<?xml version="1.0" encoding="utf-8"?>
<!-- Generator: Adobe Illustrator 18.1.1, SVG Export Plug-In . SVG Version: 6.00 Build 0)  -->
<svg version="1.1" xmlns="http://www.w3.org/2000/svg" xmlns:xlink="http://www.w3.org/1999/xlink" x="0px" y="0px"
	 viewBox="0 0 640 1136" style="enable-background:new 0 0 640 1136;" xml:space="preserve">
<style type="text/css">
	.st0{fill:#3B8C6B;}
	.st1{fill:#FFFFFF;}
	.st2{fill:url(#SVGID_1_);}
	.st3{opacity:0.3;}
	.st4{fill-rule:evenodd;clip-rule:evenodd;fill:#F46B83;}
	.st5{fill:#58BD98;}
	.st6{fill:#EFEFEF;}
	.st7{fill:none;stroke:#E0E1E2;stroke-width:11;stroke-miterlimit:10;}
	.st8{opacity:0.3;fill-rule:evenodd;clip-rule:evenodd;fill:#F56980;}
	.st9{fill:#F56980;}
	.st10{fill:#2AD19D;}
	.st11{fill-rule:evenodd;clip-rule:evenodd;fill:#FFFFFF;}
	.st12{fill:#F36D85;}
	.st13{fill:#E0E1E2;}
	.st14{fill:#F46B83;}
	.st15{fill:none;stroke:#F46B83;stroke-width:8;stroke-miterlimit:10;}
	.st16{opacity:0.3;fill:#2AD19D;}
	.st17{fill:#89D7E6;}
	.st18{clip-path:url(#SVGID_3_);}
	.st19{fill-rule:evenodd;clip-rule:evenodd;fill:#F56980;}
	.st20{opacity:0.3;fill:#F36D85;}
	.st21{opacity:0.3;fill:#F46B83;}
	.st22{fill:#24A45A;}
	.st23{fill:#3A5D87;}
	.st24{fill:#527EBB;}
	.st25{fill:#D82908;}
	.st26{fill:#E85749;}
	.st27{fill:#BCF7F7;}
	.st28{fill:#929496;}
	.st29{fill:none;stroke:#CDEBE0;stroke-width:5;stroke-linecap:round;stroke-miterlimit:10;}
	.st30{fill:#1A9169;}
	.st31{fill:none;stroke:#F7ADC1;stroke-width:12;stroke-miterlimit:10;}
	.st32{fill:none;stroke:#2AD19D;stroke-width:12;stroke-miterlimit:10;}
	.st33{fill:none;}
	.st34{fill:#BDF3F4;}
	.st35{fill:#34B188;}
	.st36{fill:#FDE49C;}
	.st37{fill:#FDEF6E;}
	.st38{fill:#1E845A;}
	.st39{fill:none;stroke:#A17644;stroke-width:2;stroke-miterlimit:10;}
	.st40{fill:#79E2BC;}
	.st41{fill:none;stroke:#A17644;stroke-width:3;stroke-miterlimit:10;}
	.st42{fill:none;stroke:#A17644;stroke-width:4;stroke-miterlimit:10;}
	.st43{fill:none;stroke:#A17644;stroke-width:3.4344;stroke-miterlimit:10;}
	.st44{fill:#808184;}
	.st45{fill:#BC4D65;}
	.st46{fill:#933850;}
	.st47{fill:none;stroke:#79E2BC;stroke-miterlimit:10;}
	.st48{opacity:0.2;}
	.st49{fill:#47B58D;}
	.st50{fill:none;stroke:#FFFFFF;stroke-width:8;stroke-linecap:round;stroke-miterlimit:10;}
	.st51{fill:none;stroke:#FFFFFF;stroke-width:2;stroke-miterlimit:10;}
	.st52{opacity:0.5;}
	.st53{fill:#CDE8DE;}
	.st54{clip-path:url(#SVGID_5_);}
	.st55{fill:#F6899C;}
	.st56{fill:#F66981;}
	.st57{fill:#FFFFFF;stroke:#F46B83;stroke-width:6;stroke-miterlimit:10;}
	.st58{clip-path:url(#SVGID_7_);fill:#47B58D;}
	.st59{clip-path:url(#SVGID_7_);}
	.st60{fill:none;stroke:#A17644;stroke-width:1.572;stroke-miterlimit:10;}
	.st61{clip-path:url(#SVGID_7_);fill:none;stroke:#79E2BC;stroke-width:2;stroke-miterlimit:10;}
	.st62{clip-path:url(#SVGID_7_);fill:#1E845A;}
	.st63{fill:none;stroke:#A17644;stroke-width:1.828;stroke-miterlimit:10;}
	.st64{fill:none;stroke:#A17644;stroke-width:3.4825;stroke-miterlimit:10;}
	.st65{fill:none;stroke:#A17644;stroke-width:4.1651;stroke-miterlimit:10;}
	.st66{fill:none;stroke:#A17644;stroke-width:2.8014;stroke-miterlimit:10;}
	.st67{fill:#37CF9D;}
	.st68{clip-path:url(#SVGID_9_);}
	.st69{fill:#ABE6CF;}
	.st70{display:none;}
</style>
<g id="Layer_1">
	<polygon class="st0" points="100.7,963.7 92.7,956.7 535.8,170.3 542.8,177.3 	"/>
	<g>
		<rect x="100.7" y="177.3" class="st0" width="442.1" height="786.4"/>
	</g>
	<g>
		<path class="st1" d="M240.8,80.2v-3h7.3l0.2,2.4c0.6-0.9,1.3-1.6,2.2-2.1c0.9-0.5,1.9-0.7,3.1-0.7c1.2,0,2.2,0.3,3,0.8
			c0.8,0.5,1.5,1.3,1.9,2.4c0.6-1,1.3-1.8,2.2-2.3c0.9-0.6,2-0.8,3.2-0.8c1.8,0,3.3,0.6,4.3,1.9c1.1,1.3,1.6,3.2,1.6,5.8v7.7
			l2.4,0.5v3h-9.6v-3l2.2-0.5v-7.7c0-1.4-0.2-2.4-0.7-2.9c-0.5-0.5-1.1-0.8-2-0.8c-0.7,0-1.3,0.2-1.8,0.5c-0.5,0.3-0.9,0.7-1.2,1.3
			c0,0.2,0,0.4,0,0.6c0,0.2,0,0.3,0,0.5v8.6l2,0.5v3h-9v-3l2-0.5v-7.7c0-1.4-0.2-2.3-0.7-2.9c-0.5-0.6-1.1-0.8-2.1-0.8
			c-0.7,0-1.3,0.1-1.8,0.4c-0.5,0.3-0.9,0.6-1.3,1.1v10l2.2,0.5v3H241v-3l2.4-0.5V80.7L240.8,80.2z"/>
		<path class="st1" d="M285.7,95.6c-0.1-0.3-0.3-0.6-0.4-0.9c-0.1-0.3-0.2-0.7-0.2-1c-0.6,0.7-1.3,1.2-2.2,1.7
			c-0.8,0.4-1.8,0.6-2.9,0.6c-1.8,0-3.2-0.5-4.3-1.5s-1.6-2.3-1.6-4c0-1.7,0.7-3.1,2.1-4c1.4-0.9,3.4-1.4,6.1-1.4h2.5v-1.8
			c0-0.9-0.3-1.6-0.8-2.1c-0.5-0.5-1.3-0.7-2.3-0.7c-0.6,0-1.1,0.1-1.5,0.2s-0.8,0.3-1.1,0.5l-0.3,2h-3.8l0-4.1
			c0.9-0.6,2-1.1,3.1-1.6c1.2-0.4,2.5-0.6,3.9-0.6c2.3,0,4.1,0.6,5.6,1.7c1.4,1.1,2.1,2.7,2.1,4.8v7.6c0,0.3,0,0.6,0,0.8
			c0,0.3,0,0.5,0.1,0.7l1.5,0.2v3H285.7z M281.3,92.3c0.8,0,1.4-0.2,2.1-0.5c0.6-0.3,1.1-0.7,1.4-1.2v-2.8h-2.5
			c-1.1,0-1.9,0.2-2.4,0.7c-0.5,0.5-0.8,1.1-0.8,1.8c0,0.6,0.2,1.1,0.6,1.5C280.1,92.1,280.6,92.3,281.3,92.3z"/>
		<path class="st1" d="M292.7,80.2v-3h7.2l0.2,2.2c0.5-0.8,1.2-1.4,2-1.8c0.8-0.4,1.7-0.6,2.7-0.6c2.3,0,4.1,0.9,5.3,2.7
			c1.3,1.8,1.9,4.1,1.9,7.1v0.4c0,2.7-0.6,4.9-1.9,6.6c-1.3,1.7-3,2.5-5.3,2.5c-1,0-1.8-0.2-2.6-0.5c-0.8-0.4-1.4-0.9-1.9-1.6v5.3
			l2.4,0.5v3H293v-3l2.4-0.5V80.7L292.7,80.2z M307.1,86.6c0-1.7-0.3-3.2-0.9-4.2c-0.6-1.1-1.5-1.6-2.7-1.6c-0.8,0-1.4,0.2-1.9,0.5
			c-0.5,0.3-0.9,0.7-1.3,1.3v8.1c0.3,0.5,0.7,0.9,1.3,1.2c0.5,0.3,1.2,0.4,2,0.4c1.2,0,2.1-0.5,2.7-1.4c0.6-0.9,0.8-2.2,0.8-3.8
			V86.6z"/>
		<path class="st1" d="M330.7,80.2l-1.7,0.3l2.4,8.3l0.3,1.7h0.1l0.4-1.7l2.4-8.3l-1.8-0.3v-3h8.4v3l-1.6,0.3l-5.5,15.2h-4.8
			l-5.5-15.2l-1.6-0.3v-3h8.4V80.2z"/>
		<path class="st1" d="M342.7,92.7l2.4-0.5V80.7l-2.7-0.5v-3h7.7v15l2.4,0.5v3h-9.8V92.7z M350.1,72.7h-5V69h5V72.7z"/>
		<path class="st1" d="M363,96c-2.7,0-4.8-0.9-6.4-2.6c-1.6-1.7-2.4-3.9-2.4-6.5v-0.7c0-2.7,0.8-5,2.3-6.8s3.5-2.7,6.1-2.6
			c2.5,0,4.4,0.8,5.8,2.3c1.4,1.5,2.1,3.5,2.1,6.1v2.7h-11l0,0.1c0.1,1.2,0.5,2.2,1.2,3s1.7,1.2,2.9,1.2c1.1,0,2-0.1,2.8-0.3
			c0.7-0.2,1.5-0.6,2.4-1.1l1.3,3.1c-0.8,0.6-1.8,1.1-3,1.5C365.8,95.8,364.5,96,363,96z M362.5,80.7c-0.9,0-1.7,0.4-2.2,1.1
			c-0.5,0.7-0.9,1.6-1,2.8l0.1,0.1h6.1v-0.4c0-1.1-0.2-1.9-0.7-2.5C364.3,81,363.5,80.7,362.5,80.7z"/>
		<path class="st1" d="M399.1,80.2l-1.9,0.2l-3.9,15.2h-4.2l-3.4-11h-0.1l-3.4,11h-4.2l-3.9-15.2l-1.9-0.2v-3h8.4v3l-2,0.4l1.7,8.5
			h0.1l3.5-11.8h3.3l3.5,11.9h0.1l1.7-8.5l-2-0.4v-3h8.4V80.2z"/>
		<path class="st1" d="M235.3,116.5c-0.3-0.1-0.7-0.1-1.1-0.1c-1.5,0-2.5,0.6-3,1.9v9.4h-2.3v-13.2h2.2l0,1.5
			c0.7-1.2,1.8-1.8,3.1-1.8c0.4,0,0.8,0.1,1,0.2V116.5z"/>
		<path class="st1" d="M238,120.9c0-1.3,0.3-2.5,0.8-3.5c0.5-1,1.2-1.8,2.1-2.4c0.9-0.6,1.9-0.8,3.1-0.8c1.8,0,3.3,0.6,4.4,1.9
			c1.1,1.2,1.7,2.9,1.7,5v0.2c0,1.3-0.2,2.4-0.7,3.5c-0.5,1-1.2,1.8-2.1,2.4c-0.9,0.6-2,0.9-3.2,0.9c-1.8,0-3.2-0.6-4.4-1.9
			c-1.1-1.2-1.7-2.9-1.7-4.9V120.9z M240.3,121.2c0,1.5,0.3,2.6,1,3.5s1.6,1.3,2.7,1.3c1.1,0,2.1-0.4,2.7-1.3c0.7-0.9,1-2.2,1-3.8
			c0-1.4-0.3-2.6-1-3.5c-0.7-0.9-1.6-1.3-2.7-1.3c-1.1,0-2,0.4-2.7,1.3C240.6,118.3,240.3,119.5,240.3,121.2z"/>
		<path class="st1" d="M262.5,126.3c-0.9,1-2.2,1.6-3.9,1.6c-1.4,0-2.5-0.4-3.2-1.2c-0.7-0.8-1.1-2-1.1-3.6v-8.6h2.3v8.5
			c0,2,0.8,3,2.4,3c1.7,0,2.9-0.6,3.4-1.9v-9.6h2.3v13.2h-2.1L262.5,126.3z"/>
		<path class="st1" d="M272.7,111.2v3.2h2.5v1.7h-2.5v8.2c0,0.5,0.1,0.9,0.3,1.2s0.6,0.4,1.1,0.4c0.3,0,0.6,0,1.1-0.1v1.8
			c-0.6,0.2-1.2,0.2-1.7,0.2c-1,0-1.8-0.3-2.3-0.9c-0.5-0.6-0.8-1.5-0.8-2.6v-8.2H268v-1.7h2.4v-3.2H272.7z"/>
		<path class="st1" d="M284.8,127.9c-1.8,0-3.2-0.6-4.4-1.8s-1.7-2.7-1.7-4.7V121c0-1.3,0.3-2.5,0.8-3.5c0.5-1,1.2-1.8,2.1-2.4
			s1.9-0.9,2.9-0.9c1.7,0,3.1,0.6,4,1.7c1,1.1,1.4,2.8,1.4,4.9v0.9H281c0,1.3,0.4,2.4,1.1,3.2c0.7,0.8,1.7,1.2,2.8,1.2
			c0.8,0,1.5-0.2,2-0.5c0.6-0.3,1-0.8,1.5-1.3l1.4,1.1C288.6,127,287,127.9,284.8,127.9z M284.5,116.1c-0.9,0-1.7,0.3-2.3,1
			s-1,1.6-1.1,2.8h6.6v-0.2c-0.1-1.1-0.4-2-0.9-2.7S285.4,116.1,284.5,116.1z"/>
		<path class="st1" d="M309.4,124.1c0-0.6-0.2-1.1-0.7-1.4c-0.5-0.3-1.3-0.6-2.4-0.9s-2.1-0.5-2.7-0.9c-0.7-0.3-1.2-0.7-1.5-1.2
			c-0.3-0.5-0.5-1-0.5-1.7c0-1.1,0.5-2,1.4-2.7c0.9-0.7,2.1-1.1,3.5-1.1c1.5,0,2.7,0.4,3.6,1.2c0.9,0.8,1.4,1.8,1.4,3h-2.3
			c0-0.6-0.3-1.2-0.8-1.6c-0.5-0.4-1.2-0.7-2-0.7c-0.8,0-1.5,0.2-1.9,0.5s-0.7,0.8-0.7,1.4c0,0.5,0.2,1,0.6,1.2s1.2,0.5,2.3,0.8
			c1.1,0.3,2,0.6,2.7,0.9c0.7,0.4,1.2,0.8,1.6,1.3c0.3,0.5,0.5,1.1,0.5,1.8c0,1.2-0.5,2.1-1.4,2.8c-0.9,0.7-2.2,1.1-3.7,1.1
			c-1.1,0-2-0.2-2.8-0.6s-1.5-0.9-1.9-1.6c-0.5-0.7-0.7-1.4-0.7-2.2h2.3c0,0.8,0.3,1.4,0.9,1.8c0.6,0.4,1.3,0.7,2.2,0.7
			c0.9,0,1.5-0.2,2.1-0.5C309.2,125.2,309.4,124.7,309.4,124.1z"/>
		<path class="st1" d="M321.6,127.9c-1.8,0-3.2-0.6-4.4-1.8s-1.7-2.7-1.7-4.7V121c0-1.3,0.3-2.5,0.8-3.5c0.5-1,1.2-1.8,2.1-2.4
			s1.9-0.9,2.9-0.9c1.7,0,3.1,0.6,4,1.7c1,1.1,1.4,2.8,1.4,4.9v0.9h-8.9c0,1.3,0.4,2.4,1.1,3.2c0.7,0.8,1.7,1.2,2.8,1.2
			c0.8,0,1.5-0.2,2-0.5c0.6-0.3,1-0.8,1.5-1.3l1.4,1.1C325.5,127,323.8,127.9,321.6,127.9z M321.3,116.1c-0.9,0-1.7,0.3-2.3,1
			s-1,1.6-1.1,2.8h6.6v-0.2c-0.1-1.1-0.4-2-0.9-2.7S322.3,116.1,321.3,116.1z"/>
		<path class="st1" d="M333.3,127.6h-2.3v-18.8h2.3V127.6z"/>
		<path class="st1" d="M343.9,127.9c-1.8,0-3.2-0.6-4.4-1.8s-1.7-2.7-1.7-4.7V121c0-1.3,0.3-2.5,0.8-3.5c0.5-1,1.2-1.8,2.1-2.4
			s1.9-0.9,2.9-0.9c1.7,0,3.1,0.6,4,1.7c1,1.1,1.4,2.8,1.4,4.9v0.9h-8.9c0,1.3,0.4,2.4,1.1,3.2c0.7,0.8,1.7,1.2,2.8,1.2
			c0.8,0,1.5-0.2,2-0.5c0.6-0.3,1-0.8,1.5-1.3l1.4,1.1C347.8,127,346.1,127.9,343.9,127.9z M343.6,116.1c-0.9,0-1.7,0.3-2.3,1
			s-1,1.6-1.1,2.8h6.6v-0.2c-0.1-1.1-0.4-2-0.9-2.7S344.6,116.1,343.6,116.1z"/>
		<path class="st1" d="M358.5,126.1c0.8,0,1.5-0.2,2.1-0.7c0.6-0.5,0.9-1.1,1-1.8h2.1c0,0.8-0.3,1.5-0.8,2.2s-1.1,1.2-1.9,1.6
			s-1.6,0.6-2.5,0.6c-1.8,0-3.2-0.6-4.3-1.8c-1.1-1.2-1.6-2.8-1.6-4.9v-0.4c0-1.3,0.2-2.4,0.7-3.4c0.5-1,1.1-1.8,2-2.3
			s1.9-0.8,3.1-0.8c1.5,0,2.7,0.4,3.7,1.3c1,0.9,1.5,2,1.6,3.5h-2.1c-0.1-0.9-0.4-1.6-1-2.1c-0.6-0.5-1.3-0.8-2.2-0.8
			c-1.1,0-2,0.4-2.7,1.2s-0.9,2-0.9,3.6v0.4c0,1.5,0.3,2.7,0.9,3.5S357.3,126.1,358.5,126.1z"/>
		<path class="st1" d="M370.8,111.2v3.2h2.5v1.7h-2.5v8.2c0,0.5,0.1,0.9,0.3,1.2s0.6,0.4,1.1,0.4c0.3,0,0.6,0,1.1-0.1v1.8
			c-0.6,0.2-1.2,0.2-1.7,0.2c-1,0-1.8-0.3-2.3-0.9c-0.5-0.6-0.8-1.5-0.8-2.6v-8.2h-2.4v-1.7h2.4v-3.2H370.8z"/>
		<path class="st1" d="M377.4,110.9c0-0.4,0.1-0.7,0.3-0.9c0.2-0.3,0.6-0.4,1-0.4s0.8,0.1,1,0.4c0.2,0.3,0.3,0.6,0.3,0.9
			c0,0.4-0.1,0.7-0.3,0.9s-0.6,0.4-1,0.4s-0.8-0.1-1-0.4S377.4,111.3,377.4,110.9z M379.9,127.6h-2.3v-13.2h2.3V127.6z"/>
		<path class="st1" d="M384.4,120.9c0-1.3,0.3-2.5,0.8-3.5c0.5-1,1.2-1.8,2.1-2.4c0.9-0.6,1.9-0.8,3.1-0.8c1.8,0,3.3,0.6,4.4,1.9
			c1.1,1.2,1.7,2.9,1.7,5v0.2c0,1.3-0.2,2.4-0.7,3.5c-0.5,1-1.2,1.8-2.1,2.4c-0.9,0.6-2,0.9-3.2,0.9c-1.8,0-3.2-0.6-4.4-1.9
			c-1.1-1.2-1.7-2.9-1.7-4.9V120.9z M386.7,121.2c0,1.5,0.3,2.6,1,3.5s1.6,1.3,2.7,1.3c1.1,0,2.1-0.4,2.7-1.3c0.7-0.9,1-2.2,1-3.8
			c0-1.4-0.3-2.6-1-3.5c-0.7-0.9-1.6-1.3-2.7-1.3c-1.1,0-2,0.4-2.7,1.3C387,118.3,386.7,119.5,386.7,121.2z"/>
		<path class="st1" d="M402.9,114.4l0.1,1.7c1-1.3,2.3-1.9,4-1.9c2.8,0,4.2,1.6,4.2,4.7v8.7h-2.3v-8.7c0-1-0.2-1.7-0.7-2.1
			c-0.4-0.5-1.1-0.7-2-0.7c-0.7,0-1.4,0.2-1.9,0.6c-0.6,0.4-1,0.9-1.3,1.5v9.4h-2.3v-13.2H402.9z"/>
	</g>
	<g>
		<rect x="93.5" y="170.3" class="st1" width="443.1" height="786.4"/>
	</g>
	<rect x="93.4" y="254" class="st6" width="443.3" height="702.7"/>
	<g>
		<g>
			<path class="st7" d="M162.6,254c0,0,0,90,0,112.8c0,22.8-10.6,59-57.1,59H93.4"/>
			<line class="st7" x1="162.6" y1="366.8" x2="536.8" y2="366.8"/>
			<line class="st7" x1="468.1" y1="366.8" x2="468.1" y2="254"/>
			<line class="st7" x1="363" y1="366.8" x2="363" y2="254"/>
			<path class="st7" d="M406.5,366.8c0,0,0,288.5,0,317.1s18,56.8,49.5,56.8s80.5,0,80.5,0"/>
			<line class="st7" x1="536.5" y1="507.1" x2="93.4" y2="507.1"/>
			<line class="st7" x1="536.8" y1="644.6" x2="93.4" y2="644.6"/>
			<line class="st7" x1="275.1" y1="507.1" x2="275.1" y2="956.7"/>
			<polyline class="st7" points="93.4,809.6 314.9,809.6 536.8,809.6 			"/>
			<line class="st7" x1="432.5" y1="809.6" x2="432.5" y2="956.7"/>
			<line class="st7" x1="199" y1="369.3" x2="199" y2="644.6"/>
		</g>
		<path class="st7" d="M93.2,699.7c0,0,10.4,0,27,0s60.4,9.8,60.4,67.8s0,189.2,0,189.2"/>
	</g>
	<rect x="93.2" y="170.3" class="st1" width="443.3" height="83.7"/>
	<path class="st8" d="M471.1,211h34.7c1.7,0,3.1-1.4,3.1-3.1c0-1.7-1.4-3.1-3.1-3.1h-34.7c-1.7,0-3.1,1.4-3.1,3.1
		C468.1,209.7,469.5,211,471.1,211z M505.9,229.4h-34.7c-1.7,0-3.1,1.4-3.1,3.1c0,1.7,1.4,3.1,3.1,3.1h34.7c1.7,0,3.1-1.4,3.1-3.1
		C508.9,230.8,507.6,229.4,505.9,229.4z M505.9,217.2h-34.7c-1.7,0-3.1,1.4-3.1,3.1c0,1.7,1.4,3.1,3.1,3.1h34.7
		c1.7,0,3.1-1.4,3.1-3.1C508.9,218.5,507.6,217.2,505.9,217.2z"/>
	<g class="st3">
		<g>
			<g>
				<path class="st9" d="M130.3,203.2c0,2.8-5,9.7-5,9.7s-5-6.9-5-9.7c0-2.8,2.2-5,5-5C128,198.2,130.3,200.4,130.3,203.2z"/>
			</g>
		</g>
		<g>
			<g>
				<path class="st9" d="M162.6,232.6c0,2.8-5,9.7-5,9.7s-5-6.9-5-9.7s2.2-5,5-5S162.6,229.8,162.6,232.6z"/>
			</g>
		</g>
		<g>
			<path class="st9" d="M147.7,239.7h-11.1c-10.6,0-11.4-8-11.4-10.4c0-5.2,3.5-10.4,10.2-10.4h12.8c3.2,0,5.3-2.1,5.3-5.3
				c0-2.7-1.9-4.6-4.7-4.6h-13.1c-1.5,0-2.8-1.2-2.8-2.8s1.2-2.8,2.8-2.8h13.1c5.9,0,10.3,4.4,10.3,10.2c0,6.3-4.5,10.8-10.8,10.8
				h-12.8c-4.4,0-4.6,4.1-4.6,4.9c0,2.3,0.7,4.9,5.9,4.9h11.1c1.5,0,2.8,1.2,2.8,2.8S149.2,239.7,147.7,239.7z"/>
		</g>
	</g>
	<g>
		<g>
			<circle class="st10" cx="314.9" cy="259.5" r="48.1"/>
			<path class="st11" d="M330.5,251.2c0.9-1.4,1.7-3.3,1.7-5.2c0-4.7-3.5-8.5-8-9.2c-0.7-4.5-4.5-8-9.2-8c-4.7,0-8.5,3.5-9.2,8
				c-4.5,0.7-8,4.5-8,9.2c0,1.9,0.5,3.8,1.7,5.2c-4,1.9-6.9,5.9-6.9,10.6c0,6.6,5.4,11.8,12.1,11.8h6.9v16.5h7.1v-16.5h6.9
				c6.6,0,12.1-5.4,12.1-11.8C337.4,257.1,334.5,253.1,330.5,251.2z"/>
		</g>
	</g>
	<path class="st31" d="M199,507h206.4c0,0,0,143,0,176s13.9,57.7,66.1,57.7s63.2,0,63.2,0"/>
	<path class="st31" d="M93.2,699.7c0,0,8.2,0,34.8,0s51.6,29.3,51.6,60.3s0,49.6,0,49.6h252.9v147.1"/>
	<polyline class="st32" points="93.2,507 199,507 199,644 275.1,644 275.1,956.7 	"/>
	<g>
		<path class="st14" d="M213.8,462.3v-104c0-6.6,5.4-12,12-12H404c6.6,0,12,5.4,12,12v104c0,6.6-5.4,12-12,12H225.8
			C219.2,474.3,213.8,468.9,213.8,462.3z"/>
		<g>
			<path class="st1" d="M261,370.8v3.2h2.5v1.7H261v8.2c0,0.5,0.1,0.9,0.3,1.2s0.6,0.4,1.1,0.4c0.3,0,0.6,0,1.1-0.1v1.8
				c-0.6,0.2-1.2,0.2-1.7,0.2c-1,0-1.8-0.3-2.3-0.9c-0.5-0.6-0.8-1.5-0.8-2.6v-8.2h-2.4V374h2.4v-3.2H261z"/>
			<path class="st1" d="M274.3,387.2c-0.1-0.3-0.2-0.7-0.3-1.4c-1,1.1-2.3,1.6-3.8,1.6c-1.3,0-2.4-0.4-3.2-1.1
				c-0.8-0.7-1.3-1.7-1.3-2.8c0-1.4,0.5-2.4,1.6-3.2c1-0.8,2.5-1.1,4.4-1.1h2.2v-1c0-0.8-0.2-1.4-0.7-1.9c-0.5-0.5-1.2-0.7-2.1-0.7
				c-0.8,0-1.5,0.2-2,0.6c-0.5,0.4-0.8,0.9-0.8,1.5H266c0-0.7,0.2-1.3,0.7-1.9c0.5-0.6,1.1-1.1,1.9-1.5c0.8-0.4,1.7-0.5,2.6-0.5
				c1.5,0,2.7,0.4,3.6,1.1c0.9,0.8,1.3,1.8,1.3,3.1v6.1c0,1.2,0.2,2.2,0.5,2.9v0.2H274.3z M270.5,385.5c0.7,0,1.4-0.2,2-0.5
				s1.1-0.8,1.4-1.4v-2.7h-1.8c-2.8,0-4.2,0.8-4.2,2.4c0,0.7,0.2,1.3,0.7,1.7C269.2,385.3,269.8,385.5,270.5,385.5z"/>
			<path class="st1" d="M290.9,380.8c0,2-0.5,3.6-1.4,4.9c-0.9,1.2-2.2,1.8-3.7,1.8c-1.6,0-2.9-0.5-3.8-1.5v6.4h-2.3V374h2.1
				l0.1,1.5c0.9-1.1,2.2-1.7,3.8-1.7c1.6,0,2.8,0.6,3.8,1.8s1.4,2.9,1.4,5V380.8z M288.6,380.5c0-1.5-0.3-2.7-1-3.5
				c-0.6-0.9-1.5-1.3-2.6-1.3c-1.4,0-2.4,0.6-3.1,1.8v6.3c0.7,1.2,1.7,1.8,3.1,1.8c1.1,0,1.9-0.4,2.6-1.3
				C288.3,383.5,288.6,382.2,288.6,380.5z"/>
			<path class="st1" d="M303,370.8v3.2h2.5v1.7H303v8.2c0,0.5,0.1,0.9,0.3,1.2s0.6,0.4,1.1,0.4c0.3,0,0.6,0,1.1-0.1v1.8
				c-0.6,0.2-1.2,0.2-1.7,0.2c-1,0-1.8-0.3-2.3-0.9c-0.5-0.6-0.8-1.5-0.8-2.6v-8.2h-2.4V374h2.4v-3.2H303z"/>
			<path class="st1" d="M307.2,380.5c0-1.3,0.3-2.5,0.8-3.5c0.5-1,1.2-1.8,2.1-2.4c0.9-0.6,1.9-0.8,3.1-0.8c1.8,0,3.3,0.6,4.4,1.9
				c1.1,1.2,1.7,2.9,1.7,5v0.2c0,1.3-0.2,2.4-0.7,3.5c-0.5,1-1.2,1.8-2.1,2.4c-0.9,0.6-2,0.9-3.2,0.9c-1.8,0-3.2-0.6-4.4-1.9
				c-1.1-1.2-1.7-2.9-1.7-4.9V380.5z M309.5,380.8c0,1.5,0.3,2.6,1,3.5c0.7,0.9,1.6,1.3,2.7,1.3c1.1,0,2.1-0.4,2.7-1.3
				c0.7-0.9,1-2.2,1-3.8c0-1.4-0.3-2.6-1-3.5c-0.7-0.9-1.6-1.3-2.7-1.3c-1.1,0-2,0.4-2.7,1.3C309.8,377.9,309.5,379.1,309.5,380.8z"
				/>
			<path class="st1" d="M336,383.7c0-0.6-0.2-1.1-0.7-1.4c-0.5-0.3-1.3-0.6-2.4-0.9s-2.1-0.5-2.7-0.9c-0.7-0.3-1.2-0.7-1.5-1.2
				c-0.3-0.5-0.5-1-0.5-1.7c0-1.1,0.5-2,1.4-2.7c0.9-0.7,2.1-1.1,3.5-1.1c1.5,0,2.7,0.4,3.6,1.2c0.9,0.8,1.4,1.8,1.4,3h-2.3
				c0-0.6-0.3-1.2-0.8-1.6c-0.5-0.4-1.2-0.7-2-0.7c-0.8,0-1.5,0.2-1.9,0.5c-0.5,0.4-0.7,0.8-0.7,1.4c0,0.5,0.2,1,0.6,1.2
				c0.4,0.3,1.2,0.5,2.3,0.8c1.1,0.3,2,0.6,2.7,0.9c0.7,0.4,1.2,0.8,1.6,1.3c0.3,0.5,0.5,1.1,0.5,1.8c0,1.2-0.5,2.1-1.4,2.8
				c-0.9,0.7-2.2,1.1-3.7,1.1c-1.1,0-2-0.2-2.8-0.6s-1.5-0.9-1.9-1.6c-0.5-0.7-0.7-1.4-0.7-2.2h2.3c0,0.8,0.3,1.4,0.9,1.8
				c0.6,0.4,1.3,0.7,2.2,0.7c0.9,0,1.5-0.2,2.1-0.5C335.7,384.8,336,384.3,336,383.7z"/>
			<path class="st1" d="M346.7,387.5c-1.8,0-3.2-0.6-4.4-1.8c-1.1-1.2-1.7-2.7-1.7-4.7v-0.4c0-1.3,0.3-2.5,0.8-3.5
				c0.5-1,1.2-1.8,2.1-2.4c0.9-0.6,1.9-0.9,2.9-0.9c1.7,0,3.1,0.6,4,1.7c1,1.1,1.4,2.8,1.4,4.9v0.9h-8.9c0,1.3,0.4,2.4,1.1,3.2
				c0.7,0.8,1.7,1.2,2.8,1.2c0.8,0,1.5-0.2,2-0.5c0.6-0.3,1-0.8,1.5-1.3l1.4,1.1C350.5,386.6,348.9,387.5,346.7,387.5z M346.4,375.7
				c-0.9,0-1.7,0.3-2.3,1c-0.6,0.7-1,1.6-1.1,2.8h6.6v-0.2c-0.1-1.1-0.4-2-0.9-2.7C348.1,376,347.3,375.7,346.4,375.7z"/>
			<path class="st1" d="M359.9,387.5c-1.8,0-3.2-0.6-4.4-1.8c-1.1-1.2-1.7-2.7-1.7-4.7v-0.4c0-1.3,0.3-2.5,0.8-3.5
				c0.5-1,1.2-1.8,2.1-2.4c0.9-0.6,1.9-0.9,2.9-0.9c1.7,0,3.1,0.6,4,1.7c1,1.1,1.4,2.8,1.4,4.9v0.9h-8.9c0,1.3,0.4,2.4,1.1,3.2
				c0.7,0.8,1.7,1.2,2.8,1.2c0.8,0,1.5-0.2,2-0.5c0.6-0.3,1-0.8,1.5-1.3l1.4,1.1C363.8,386.6,362.1,387.5,359.9,387.5z M359.6,375.7
				c-0.9,0-1.7,0.3-2.3,1c-0.6,0.7-1,1.6-1.1,2.8h6.6v-0.2c-0.1-1.1-0.4-2-0.9-2.7C361.3,376,360.6,375.7,359.6,375.7z"/>
			<path class="st1" d="M251.9,410.8c0,2-0.5,3.6-1.4,4.9c-0.9,1.2-2.2,1.8-3.7,1.8c-1.6,0-2.9-0.5-3.8-1.5v6.4h-2.3V404h2.1
				l0.1,1.5c0.9-1.1,2.2-1.7,3.8-1.7c1.6,0,2.8,0.6,3.8,1.8s1.4,2.9,1.4,5V410.8z M249.7,410.5c0-1.5-0.3-2.7-1-3.5
				c-0.6-0.9-1.5-1.3-2.6-1.3c-1.4,0-2.4,0.6-3.1,1.8v6.3c0.7,1.2,1.7,1.8,3.1,1.8c1.1,0,1.9-0.4,2.6-1.3
				C249.4,413.5,249.7,412.2,249.7,410.5z"/>
			<path class="st1" d="M263,417.2c-0.1-0.3-0.2-0.7-0.3-1.4c-1,1.1-2.3,1.6-3.8,1.6c-1.3,0-2.4-0.4-3.2-1.1
				c-0.8-0.7-1.3-1.7-1.3-2.8c0-1.4,0.5-2.4,1.6-3.2c1-0.8,2.5-1.1,4.4-1.1h2.2v-1c0-0.8-0.2-1.4-0.7-1.9c-0.5-0.5-1.2-0.7-2.1-0.7
				c-0.8,0-1.5,0.2-2,0.6c-0.5,0.4-0.8,0.9-0.8,1.5h-2.3c0-0.7,0.2-1.3,0.7-1.9c0.5-0.6,1.1-1.1,1.9-1.5c0.8-0.4,1.7-0.5,2.6-0.5
				c1.5,0,2.7,0.4,3.6,1.1c0.9,0.8,1.3,1.8,1.3,3.1v6.1c0,1.2,0.2,2.2,0.5,2.9v0.2H263z M259.2,415.5c0.7,0,1.4-0.2,2-0.5
				s1.1-0.8,1.4-1.4v-2.7h-1.8c-2.8,0-4.2,0.8-4.2,2.4c0,0.7,0.2,1.3,0.7,1.7C257.9,415.3,258.5,415.5,259.2,415.5z"/>
			<path class="st1" d="M274.8,406.1c-0.3-0.1-0.7-0.1-1.1-0.1c-1.5,0-2.5,0.6-3,1.9v9.4h-2.3V404h2.2l0,1.5
				c0.7-1.2,1.8-1.8,3.1-1.8c0.4,0,0.8,0.1,1,0.2V406.1z"/>
			<path class="st1" d="M280.6,411.1l-1.4,1.5v4.6h-2.3v-18.8h2.3v11.3l1.2-1.5l4.1-4.3h2.7l-5.1,5.5l5.7,7.7h-2.6L280.6,411.1z"/>
			<path class="st1" d="M297.2,413.7c0-0.6-0.2-1.1-0.7-1.4c-0.5-0.3-1.3-0.6-2.4-0.9s-2.1-0.5-2.7-0.9c-0.7-0.3-1.2-0.7-1.5-1.2
				c-0.3-0.5-0.5-1-0.5-1.7c0-1.1,0.5-2,1.4-2.7c0.9-0.7,2.1-1.1,3.5-1.1c1.5,0,2.7,0.4,3.6,1.2c0.9,0.8,1.4,1.8,1.4,3h-2.3
				c0-0.6-0.3-1.2-0.8-1.6c-0.5-0.4-1.2-0.7-2-0.7c-0.8,0-1.5,0.2-1.9,0.5c-0.5,0.4-0.7,0.8-0.7,1.4c0,0.5,0.2,1,0.6,1.2
				c0.4,0.3,1.2,0.5,2.3,0.8c1.1,0.3,2,0.6,2.7,0.9c0.7,0.4,1.2,0.8,1.6,1.3c0.3,0.5,0.5,1.1,0.5,1.8c0,1.2-0.5,2.1-1.4,2.8
				c-0.9,0.7-2.2,1.1-3.7,1.1c-1.1,0-2-0.2-2.8-0.6s-1.5-0.9-1.9-1.6c-0.5-0.7-0.7-1.4-0.7-2.2h2.3c0,0.8,0.3,1.4,0.9,1.8
				c0.6,0.4,1.3,0.7,2.2,0.7c0.9,0,1.5-0.2,2.1-0.5C297,414.8,297.2,414.3,297.2,413.7z"/>
			<path class="st1" d="M308,410.5c0-1.3,0.3-2.5,0.8-3.5c0.5-1,1.2-1.8,2.1-2.4c0.9-0.6,1.9-0.8,3.1-0.8c1.8,0,3.3,0.6,4.4,1.9
				c1.1,1.2,1.7,2.9,1.7,5v0.2c0,1.3-0.2,2.4-0.7,3.5c-0.5,1-1.2,1.8-2.1,2.4c-0.9,0.6-2,0.9-3.2,0.9c-1.8,0-3.2-0.6-4.4-1.9
				c-1.1-1.2-1.7-2.9-1.7-4.9V410.5z M310.3,410.8c0,1.5,0.3,2.6,1,3.5c0.7,0.9,1.6,1.3,2.7,1.3c1.1,0,2.1-0.4,2.7-1.3
				c0.7-0.9,1-2.2,1-3.8c0-1.4-0.3-2.6-1-3.5c-0.7-0.9-1.6-1.3-2.7-1.3c-1.1,0-2,0.4-2.7,1.3C310.6,407.9,310.3,409.1,310.3,410.8z"
				/>
			<path class="st1" d="M325,404l0.1,1.7c1-1.3,2.3-1.9,4-1.9c2.8,0,4.2,1.6,4.2,4.7v8.7H331v-8.7c0-1-0.2-1.7-0.7-2.1
				c-0.4-0.5-1.1-0.7-2-0.7c-0.7,0-1.4,0.2-1.9,0.6c-0.6,0.4-1,0.9-1.3,1.5v9.4h-2.3V404H325z"/>
			<path class="st1" d="M347.2,413.9l3.1-9.9h2.4l-5.3,15.2c-0.8,2.2-2.1,3.3-3.9,3.3l-0.4,0l-0.8-0.2v-1.8l0.6,0
				c0.8,0,1.4-0.2,1.8-0.5c0.4-0.3,0.8-0.9,1.1-1.7l0.5-1.3l-4.7-13.1h2.5L347.2,413.9z"/>
			<path class="st1" d="M353.9,410.5c0-1.3,0.3-2.5,0.8-3.5c0.5-1,1.2-1.8,2.1-2.4c0.9-0.6,1.9-0.8,3.1-0.8c1.8,0,3.3,0.6,4.4,1.9
				c1.1,1.2,1.7,2.9,1.7,5v0.2c0,1.3-0.2,2.4-0.7,3.5c-0.5,1-1.2,1.8-2.1,2.4c-0.9,0.6-2,0.9-3.2,0.9c-1.8,0-3.2-0.6-4.4-1.9
				c-1.1-1.2-1.7-2.9-1.7-4.9V410.5z M356.2,410.8c0,1.5,0.3,2.6,1,3.5c0.7,0.9,1.6,1.3,2.7,1.3c1.1,0,2.1-0.4,2.7-1.3
				c0.7-0.9,1-2.2,1-3.8c0-1.4-0.3-2.6-1-3.5c-0.7-0.9-1.6-1.3-2.7-1.3c-1.1,0-2,0.4-2.7,1.3C356.5,407.9,356.2,409.1,356.2,410.8z"
				/>
			<path class="st1" d="M376.9,415.9c-0.9,1-2.2,1.6-3.9,1.6c-1.4,0-2.5-0.4-3.2-1.2c-0.7-0.8-1.1-2-1.1-3.6V404h2.3v8.5
				c0,2,0.8,3,2.4,3c1.7,0,2.9-0.6,3.4-1.9V404h2.3v13.2H377L376.9,415.9z"/>
			<path class="st1" d="M388.9,406.1c-0.3-0.1-0.7-0.1-1.1-0.1c-1.5,0-2.5,0.6-3,1.9v9.4h-2.3V404h2.2l0,1.5
				c0.7-1.2,1.8-1.8,3.1-1.8c0.4,0,0.8,0.1,1,0.2V406.1z"/>
			<path class="st1" d="M274.5,434v14.7c0,2.5-1.2,3.8-3.5,3.8c-0.5,0-1-0.1-1.4-0.2v-1.8c0.3,0.1,0.6,0.1,1,0.1
				c0.5,0,0.9-0.1,1.2-0.4c0.3-0.3,0.4-0.7,0.4-1.4V434H274.5z M272.1,430.5c0-0.4,0.1-0.7,0.3-0.9c0.2-0.3,0.6-0.4,1-0.4
				c0.4,0,0.8,0.1,1,0.4c0.2,0.3,0.3,0.6,0.3,0.9s-0.1,0.7-0.3,0.9c-0.2,0.2-0.6,0.4-1,0.4s-0.8-0.1-1-0.4S272.1,430.9,272.1,430.5z
				"/>
			<path class="st1" d="M277.6,440.5c0-1.3,0.3-2.5,0.8-3.5c0.5-1,1.2-1.8,2.1-2.4c0.9-0.6,1.9-0.8,3.1-0.8c1.8,0,3.3,0.6,4.4,1.9
				c1.1,1.2,1.7,2.9,1.7,5v0.2c0,1.3-0.2,2.4-0.7,3.5c-0.5,1-1.2,1.8-2.1,2.4c-0.9,0.6-2,0.9-3.2,0.9c-1.8,0-3.2-0.6-4.4-1.9
				c-1.1-1.2-1.7-2.9-1.7-4.9V440.5z M279.9,440.8c0,1.5,0.3,2.6,1,3.5c0.7,0.9,1.6,1.3,2.7,1.3c1.1,0,2.1-0.4,2.7-1.3
				c0.7-0.9,1-2.2,1-3.8c0-1.4-0.3-2.6-1-3.5c-0.7-0.9-1.6-1.3-2.7-1.3c-1.1,0-2,0.4-2.7,1.3C280.2,437.9,279.9,439.1,279.9,440.8z"
				/>
			<path class="st1" d="M300.6,445.9c-0.9,1-2.2,1.6-3.9,1.6c-1.4,0-2.5-0.4-3.2-1.2c-0.7-0.8-1.1-2-1.1-3.6V434h2.3v8.5
				c0,2,0.8,3,2.4,3c1.7,0,2.9-0.6,3.4-1.9V434h2.3v13.2h-2.1L300.6,445.9z"/>
			<path class="st1" d="M312.6,436.1c-0.3-0.1-0.7-0.1-1.1-0.1c-1.5,0-2.5,0.6-3,1.9v9.4h-2.3V434h2.2l0,1.5
				c0.7-1.2,1.8-1.8,3.1-1.8c0.4,0,0.8,0.1,1,0.2V436.1z"/>
			<path class="st1" d="M316.8,434l0.1,1.7c1-1.3,2.3-1.9,4-1.9c2.8,0,4.2,1.6,4.2,4.7v8.7h-2.3v-8.7c0-1-0.2-1.7-0.7-2.1
				c-0.4-0.5-1.1-0.7-2-0.7c-0.7,0-1.4,0.2-1.9,0.6c-0.6,0.4-1,0.9-1.3,1.5v9.4h-2.3V434H316.8z"/>
			<path class="st1" d="M334,447.5c-1.8,0-3.2-0.6-4.4-1.8c-1.1-1.2-1.7-2.7-1.7-4.7v-0.4c0-1.3,0.3-2.5,0.8-3.5
				c0.5-1,1.2-1.8,2.1-2.4c0.9-0.6,1.9-0.9,2.9-0.9c1.7,0,3.1,0.6,4,1.7c1,1.1,1.4,2.8,1.4,4.9v0.9h-8.9c0,1.3,0.4,2.4,1.1,3.2
				c0.7,0.8,1.7,1.2,2.8,1.2c0.8,0,1.5-0.2,2-0.5c0.6-0.3,1-0.8,1.5-1.3l1.4,1.1C337.8,446.6,336.2,447.5,334,447.5z M333.7,435.7
				c-0.9,0-1.7,0.3-2.3,1c-0.6,0.7-1,1.6-1.1,2.8h6.6v-0.2c-0.1-1.1-0.4-2-0.9-2.7C335.4,436,334.6,435.7,333.7,435.7z"/>
			<path class="st1" d="M345.9,443.9l3.1-9.9h2.4l-5.3,15.2c-0.8,2.2-2.1,3.3-3.9,3.3l-0.4,0l-0.8-0.2v-1.8l0.6,0
				c0.8,0,1.4-0.2,1.8-0.5c0.4-0.3,0.8-0.9,1.1-1.7l0.5-1.3l-4.7-13.1h2.5L345.9,443.9z"/>
		</g>
		<path class="st14" d="M353,346.2c-0.2,0-0.5,0-0.7,0c-28.2-2-25.8-11.6-37.4-11.6c-11.5,0-9.2,9.6-37.4,11.6c-0.2,0-0.5,0-0.7,0
			H353z"/>
	</g>
	<g>
		<path class="st14" d="M517,770.7H331.4c-6.6,0-12-5.4-12-12V654.9c0-6.6,5.4-12,12-12H517c6.6,0,12,5.4,12,12v103.8
			C529,765.3,523.6,770.7,517,770.7z"/>
		<g>
			<path class="st1" d="M389.9,681.9c0.8,0,1.5-0.2,2.1-0.7c0.6-0.5,0.9-1.1,1-1.8h2.1c0,0.8-0.3,1.5-0.8,2.2s-1.1,1.2-1.9,1.6
				c-0.8,0.4-1.6,0.6-2.5,0.6c-1.8,0-3.2-0.6-4.3-1.8c-1.1-1.2-1.6-2.8-1.6-4.9v-0.4c0-1.3,0.2-2.4,0.7-3.4s1.1-1.8,2-2.3
				c0.9-0.6,1.9-0.8,3.1-0.8c1.5,0,2.7,0.4,3.7,1.3c1,0.9,1.5,2,1.6,3.5H393c-0.1-0.9-0.4-1.6-1-2.1c-0.6-0.5-1.3-0.8-2.2-0.8
				c-1.1,0-2,0.4-2.7,1.2s-0.9,2-0.9,3.6v0.4c0,1.5,0.3,2.7,0.9,3.5C387.8,681.5,388.7,681.9,389.9,681.9z"/>
			<path class="st1" d="M399.9,671.9c1-1.2,2.3-1.8,3.9-1.8c2.8,0,4.2,1.6,4.2,4.7v8.7h-2.3v-8.7c0-1-0.2-1.7-0.7-2.1
				c-0.4-0.5-1.1-0.7-2-0.7c-0.7,0-1.4,0.2-1.9,0.6c-0.6,0.4-1,0.9-1.3,1.5v9.4h-2.3v-18.8h2.3V671.9z"/>
			<path class="st1" d="M410.8,676.8c0-1.3,0.3-2.5,0.8-3.5c0.5-1,1.2-1.8,2.1-2.4c0.9-0.6,1.9-0.8,3.1-0.8c1.8,0,3.3,0.6,4.4,1.9
				c1.1,1.2,1.7,2.9,1.7,5v0.2c0,1.3-0.2,2.4-0.7,3.5c-0.5,1-1.2,1.8-2.1,2.4c-0.9,0.6-2,0.9-3.2,0.9c-1.8,0-3.2-0.6-4.4-1.9
				c-1.1-1.2-1.7-2.9-1.7-4.9V676.8z M413.1,677c0,1.5,0.3,2.6,1,3.5c0.7,0.9,1.6,1.3,2.7,1.3c1.1,0,2.1-0.5,2.7-1.3
				c0.7-0.9,1-2.2,1-3.8c0-1.4-0.3-2.6-1-3.5c-0.7-0.9-1.6-1.3-2.7-1.3c-1.1,0-2,0.4-2.7,1.3S413.1,675.4,413.1,677z"/>
			<path class="st1" d="M425.1,676.8c0-1.3,0.3-2.5,0.8-3.5c0.5-1,1.2-1.8,2.1-2.4c0.9-0.6,1.9-0.8,3.1-0.8c1.8,0,3.3,0.6,4.4,1.9
				c1.1,1.2,1.7,2.9,1.7,5v0.2c0,1.3-0.2,2.4-0.7,3.5c-0.5,1-1.2,1.8-2.1,2.4c-0.9,0.6-2,0.9-3.2,0.9c-1.8,0-3.2-0.6-4.4-1.9
				c-1.1-1.2-1.7-2.9-1.7-4.9V676.8z M427.4,677c0,1.5,0.3,2.6,1,3.5c0.7,0.9,1.6,1.3,2.7,1.3c1.1,0,2.1-0.5,2.7-1.3
				c0.7-0.9,1-2.2,1-3.8c0-1.4-0.3-2.6-1-3.5c-0.7-0.9-1.6-1.3-2.7-1.3c-1.1,0-2,0.4-2.7,1.3S427.4,675.4,427.4,677z"/>
			<path class="st1" d="M447.7,680c0-0.6-0.2-1.1-0.7-1.4c-0.5-0.3-1.3-0.6-2.4-0.9s-2.1-0.5-2.7-0.9c-0.7-0.3-1.2-0.7-1.5-1.2
				c-0.3-0.5-0.5-1-0.5-1.7c0-1.1,0.5-2,1.4-2.7c0.9-0.7,2.1-1.1,3.5-1.1c1.5,0,2.7,0.4,3.6,1.2s1.4,1.8,1.4,3h-2.3
				c0-0.6-0.3-1.2-0.8-1.6c-0.5-0.4-1.2-0.7-2-0.7c-0.8,0-1.5,0.2-1.9,0.5c-0.5,0.4-0.7,0.8-0.7,1.4c0,0.5,0.2,1,0.6,1.2
				c0.4,0.3,1.2,0.5,2.3,0.8c1.1,0.3,2,0.6,2.7,0.9s1.2,0.8,1.6,1.3c0.3,0.5,0.5,1.1,0.5,1.8c0,1.2-0.5,2.1-1.4,2.8
				c-0.9,0.7-2.2,1.1-3.7,1.1c-1.1,0-2-0.2-2.8-0.6s-1.5-0.9-1.9-1.6c-0.5-0.7-0.7-1.4-0.7-2.2h2.3c0,0.8,0.3,1.4,0.9,1.8
				c0.6,0.4,1.3,0.7,2.2,0.7c0.9,0,1.5-0.2,2.1-0.5C447.4,681,447.7,680.6,447.7,680z"/>
			<path class="st1" d="M458.3,683.7c-1.8,0-3.2-0.6-4.4-1.8s-1.7-2.7-1.7-4.7v-0.4c0-1.3,0.3-2.5,0.8-3.5c0.5-1,1.2-1.8,2.1-2.4
				s1.9-0.9,2.9-0.9c1.7,0,3.1,0.6,4,1.7s1.4,2.8,1.4,4.9v0.9h-8.9c0,1.3,0.4,2.4,1.1,3.2c0.7,0.8,1.7,1.2,2.8,1.2
				c0.8,0,1.5-0.2,2-0.5c0.6-0.3,1-0.8,1.5-1.3l1.4,1.1C462.2,682.9,460.5,683.7,458.3,683.7z M458.1,671.9c-0.9,0-1.7,0.3-2.3,1
				s-1,1.6-1.1,2.8h6.6v-0.2c-0.1-1.1-0.4-2-0.9-2.7S459,671.9,458.1,671.9z"/>
			<path class="st1" d="M357.8,707c0,2-0.5,3.6-1.4,4.9s-2.2,1.8-3.7,1.8c-1.7,0-3-0.6-3.9-1.8l-0.1,1.5h-2.1v-18.8h2.3v7
				c0.9-1.1,2.2-1.7,3.8-1.7s2.9,0.6,3.8,1.8c0.9,1.2,1.4,2.9,1.4,5V707z M355.6,706.8c0-1.5-0.3-2.7-0.9-3.6
				c-0.6-0.8-1.4-1.3-2.6-1.3c-1.5,0-2.6,0.7-3.2,2.1v5.7c0.7,1.4,1.8,2.1,3.2,2.1c1.1,0,1.9-0.4,2.5-1.3
				C355.3,709.7,355.6,708.5,355.6,706.8z"/>
			<path class="st1" d="M366.2,713.7c-1.8,0-3.2-0.6-4.4-1.8s-1.7-2.7-1.7-4.7v-0.4c0-1.3,0.3-2.5,0.8-3.5c0.5-1,1.2-1.8,2.1-2.4
				s1.9-0.9,2.9-0.9c1.7,0,3.1,0.6,4,1.7s1.4,2.8,1.4,4.9v0.9h-8.9c0,1.3,0.4,2.4,1.1,3.2c0.7,0.8,1.7,1.2,2.8,1.2
				c0.8,0,1.5-0.2,2-0.5c0.6-0.3,1-0.8,1.5-1.3l1.4,1.1C370,712.9,368.4,713.7,366.2,713.7z M365.9,701.9c-0.9,0-1.7,0.3-2.3,1
				s-1,1.6-1.1,2.8h6.6v-0.2c-0.1-1.1-0.4-2-0.9-2.7S366.8,701.9,365.9,701.9z"/>
			<path class="st1" d="M377,697.1v3.2h2.5v1.7H377v8.2c0,0.5,0.1,0.9,0.3,1.2s0.6,0.4,1.1,0.4c0.3,0,0.6,0,1.1-0.1v1.8
				c-0.6,0.2-1.2,0.2-1.7,0.2c-1,0-1.8-0.3-2.3-0.9c-0.5-0.6-0.8-1.5-0.8-2.6V702h-2.4v-1.7h2.4v-3.2H377z"/>
			<path class="st1" d="M393.8,710.4l2.5-10.1h2.3l-3.8,13.2h-1.8l-3.2-10l-3.1,10h-1.8l-3.8-13.2h2.2l2.6,9.9l3.1-9.9h1.8
				L393.8,710.4z"/>
			<path class="st1" d="M406.4,713.7c-1.8,0-3.2-0.6-4.4-1.8s-1.7-2.7-1.7-4.7v-0.4c0-1.3,0.3-2.5,0.8-3.5c0.5-1,1.2-1.8,2.1-2.4
				s1.9-0.9,2.9-0.9c1.7,0,3.1,0.6,4,1.7s1.4,2.8,1.4,4.9v0.9h-8.9c0,1.3,0.4,2.4,1.1,3.2c0.7,0.8,1.7,1.2,2.8,1.2
				c0.8,0,1.5-0.2,2-0.5c0.6-0.3,1-0.8,1.5-1.3l1.4,1.1C410.2,712.9,408.6,713.7,406.4,713.7z M406.1,701.9c-0.9,0-1.7,0.3-2.3,1
				s-1,1.6-1.1,2.8h6.6v-0.2c-0.1-1.1-0.4-2-0.9-2.7S407,701.9,406.1,701.9z"/>
			<path class="st1" d="M419.6,713.7c-1.8,0-3.2-0.6-4.4-1.8s-1.7-2.7-1.7-4.7v-0.4c0-1.3,0.3-2.5,0.8-3.5c0.5-1,1.2-1.8,2.1-2.4
				s1.9-0.9,2.9-0.9c1.7,0,3.1,0.6,4,1.7s1.4,2.8,1.4,4.9v0.9h-8.9c0,1.3,0.4,2.4,1.1,3.2c0.7,0.8,1.7,1.2,2.8,1.2
				c0.8,0,1.5-0.2,2-0.5c0.6-0.3,1-0.8,1.5-1.3l1.4,1.1C423.5,712.9,421.8,713.7,419.6,713.7z M419.3,701.9c-0.9,0-1.7,0.3-2.3,1
				s-1,1.6-1.1,2.8h6.6v-0.2c-0.1-1.1-0.4-2-0.9-2.7S420.3,701.9,419.3,701.9z"/>
			<path class="st1" d="M429.5,700.3l0.1,1.7c1-1.3,2.3-1.9,4-1.9c2.8,0,4.2,1.6,4.2,4.7v8.7h-2.3v-8.7c0-1-0.2-1.7-0.7-2.1
				c-0.4-0.5-1.1-0.7-2-0.7c-0.7,0-1.4,0.2-1.9,0.6c-0.6,0.4-1,0.9-1.3,1.5v9.4h-2.3v-13.2H429.5z"/>
			<path class="st1" d="M450.4,697.1v3.2h2.5v1.7h-2.5v8.2c0,0.5,0.1,0.9,0.3,1.2s0.6,0.4,1.1,0.4c0.3,0,0.6,0,1.1-0.1v1.8
				c-0.6,0.2-1.2,0.2-1.7,0.2c-1,0-1.8-0.3-2.3-0.9c-0.5-0.6-0.8-1.5-0.8-2.6V702h-2.4v-1.7h2.4v-3.2H450.4z"/>
			<path class="st1" d="M457.8,701.9c1-1.2,2.3-1.8,3.9-1.8c2.8,0,4.2,1.6,4.2,4.7v8.7h-2.3v-8.7c0-1-0.2-1.7-0.7-2.1
				c-0.4-0.5-1.1-0.7-2-0.7c-0.7,0-1.4,0.2-1.9,0.6c-0.6,0.4-1,0.9-1.3,1.5v9.4h-2.3v-18.8h2.3V701.9z"/>
			<path class="st1" d="M475.7,702.3c-0.3-0.1-0.7-0.1-1.1-0.1c-1.5,0-2.5,0.6-3,1.9v9.4h-2.3v-13.2h2.2l0,1.5
				c0.7-1.2,1.8-1.8,3.1-1.8c0.4,0,0.8,0.1,1,0.2V702.3z"/>
			<path class="st1" d="M483,713.7c-1.8,0-3.2-0.6-4.4-1.8s-1.7-2.7-1.7-4.7v-0.4c0-1.3,0.3-2.5,0.8-3.5c0.5-1,1.2-1.8,2.1-2.4
				s1.9-0.9,2.9-0.9c1.7,0,3.1,0.6,4,1.7s1.4,2.8,1.4,4.9v0.9h-8.9c0,1.3,0.4,2.4,1.1,3.2c0.7,0.8,1.7,1.2,2.8,1.2
				c0.8,0,1.5-0.2,2-0.5c0.6-0.3,1-0.8,1.5-1.3l1.4,1.1C486.9,712.9,485.2,713.7,483,713.7z M482.7,701.9c-0.9,0-1.7,0.3-2.3,1
				s-1,1.6-1.1,2.8h6.6v-0.2c-0.1-1.1-0.4-2-0.9-2.7S483.7,701.9,482.7,701.9z"/>
			<path class="st1" d="M496.2,713.7c-1.8,0-3.2-0.6-4.4-1.8s-1.7-2.7-1.7-4.7v-0.4c0-1.3,0.3-2.5,0.8-3.5c0.5-1,1.2-1.8,2.1-2.4
				s1.9-0.9,2.9-0.9c1.7,0,3.1,0.6,4,1.7s1.4,2.8,1.4,4.9v0.9h-8.9c0,1.3,0.4,2.4,1.1,3.2c0.7,0.8,1.7,1.2,2.8,1.2
				c0.8,0,1.5-0.2,2-0.5c0.6-0.3,1-0.8,1.5-1.3l1.4,1.1C500.1,712.9,498.5,713.7,496.2,713.7z M496,701.9c-0.9,0-1.7,0.3-2.3,1
				s-1,1.6-1.1,2.8h6.6v-0.2c-0.1-1.1-0.4-2-0.9-2.7S496.9,701.9,496,701.9z"/>
			<path class="st1" d="M363.7,736.8c0-2.1,0.5-3.7,1.4-4.9c1-1.2,2.2-1.8,3.8-1.8c1.6,0,2.9,0.6,3.8,1.7l0.1-1.5h2.1v12.9
				c0,1.7-0.5,3.1-1.5,4c-1,1-2.4,1.5-4.1,1.5c-1,0-1.9-0.2-2.8-0.6s-1.6-1-2.1-1.7l1.2-1.4c1,1.2,2.2,1.8,3.6,1.8
				c1.1,0,2-0.3,2.6-0.9c0.6-0.6,0.9-1.5,0.9-2.6v-1.1c-0.9,1-2.1,1.6-3.7,1.6c-1.5,0-2.8-0.6-3.8-1.9
				C364.2,740.6,363.7,738.9,363.7,736.8z M366,737c0,1.5,0.3,2.7,0.9,3.5c0.6,0.9,1.5,1.3,2.6,1.3c1.4,0,2.5-0.6,3.1-1.9v-6
				c-0.7-1.3-1.7-1.9-3.1-1.9c-1.1,0-2,0.4-2.6,1.3S366,735.4,366,737z"/>
			<path class="st1" d="M384.7,732.3c-0.3-0.1-0.7-0.1-1.1-0.1c-1.5,0-2.5,0.6-3,1.9v9.4h-2.3v-13.2h2.2l0,1.5
				c0.7-1.2,1.8-1.8,3.1-1.8c0.4,0,0.8,0.1,1,0.2V732.3z"/>
			<path class="st1" d="M392,743.7c-1.8,0-3.2-0.6-4.4-1.8s-1.7-2.7-1.7-4.7v-0.4c0-1.3,0.3-2.5,0.8-3.5c0.5-1,1.2-1.8,2.1-2.4
				s1.9-0.9,2.9-0.9c1.7,0,3.1,0.6,4,1.7s1.4,2.8,1.4,4.9v0.9h-8.9c0,1.3,0.4,2.4,1.1,3.2c0.7,0.8,1.7,1.2,2.8,1.2
				c0.8,0,1.5-0.2,2-0.5c0.6-0.3,1-0.8,1.5-1.3l1.4,1.1C395.9,742.9,394.2,743.7,392,743.7z M391.7,731.9c-0.9,0-1.7,0.3-2.3,1
				s-1,1.6-1.1,2.8h6.6v-0.2c-0.1-1.1-0.4-2-0.9-2.7S392.7,731.9,391.7,731.9z"/>
			<path class="st1" d="M405.3,743.7c-1.8,0-3.2-0.6-4.4-1.8s-1.7-2.7-1.7-4.7v-0.4c0-1.3,0.3-2.5,0.8-3.5c0.5-1,1.2-1.8,2.1-2.4
				s1.9-0.9,2.9-0.9c1.7,0,3.1,0.6,4,1.7s1.4,2.8,1.4,4.9v0.9h-8.9c0,1.3,0.4,2.4,1.1,3.2c0.7,0.8,1.7,1.2,2.8,1.2
				c0.8,0,1.5-0.2,2-0.5c0.6-0.3,1-0.8,1.5-1.3l1.4,1.1C409.1,742.9,407.5,743.7,405.3,743.7z M405,731.9c-0.9,0-1.7,0.3-2.3,1
				s-1,1.6-1.1,2.8h6.6v-0.2c-0.1-1.1-0.4-2-0.9-2.7S405.9,731.9,405,731.9z"/>
			<path class="st1" d="M415.2,730.3l0.1,1.7c1-1.3,2.3-1.9,4-1.9c2.8,0,4.2,1.6,4.2,4.7v8.7h-2.3v-8.7c0-1-0.2-1.7-0.7-2.1
				c-0.4-0.5-1.1-0.7-2-0.7c-0.7,0-1.4,0.2-1.9,0.6c-0.6,0.4-1,0.9-1.3,1.5v9.4H413v-13.2H415.2z"/>
			<path class="st1" d="M429.3,743.5H427v-18.8h2.3V743.5z"/>
			<path class="st1" d="M441,743.5c-0.1-0.3-0.2-0.7-0.3-1.4c-1,1.1-2.3,1.6-3.8,1.6c-1.3,0-2.4-0.4-3.2-1.1
				c-0.8-0.7-1.3-1.7-1.3-2.8c0-1.4,0.5-2.4,1.6-3.2c1-0.8,2.5-1.1,4.4-1.1h2.2v-1c0-0.8-0.2-1.4-0.7-1.9c-0.5-0.5-1.2-0.7-2.1-0.7
				c-0.8,0-1.5,0.2-2,0.6s-0.8,0.9-0.8,1.5h-2.3c0-0.7,0.2-1.3,0.7-1.9s1.1-1.1,1.9-1.5c0.8-0.4,1.7-0.5,2.6-0.5
				c1.5,0,2.7,0.4,3.6,1.1s1.3,1.8,1.3,3.1v6.1c0,1.2,0.2,2.2,0.5,2.9v0.2H441z M437.3,741.8c0.7,0,1.4-0.2,2-0.5s1.1-0.8,1.4-1.4
				v-2.7h-1.8c-2.8,0-4.2,0.8-4.2,2.4c0,0.7,0.2,1.3,0.7,1.7C435.9,741.6,436.5,741.8,437.3,741.8z"/>
			<path class="st1" d="M448.6,730.3l0.1,1.7c1-1.3,2.3-1.9,4-1.9c2.8,0,4.2,1.6,4.2,4.7v8.7h-2.3v-8.7c0-1-0.2-1.7-0.7-2.1
				c-0.4-0.5-1.1-0.7-2-0.7c-0.7,0-1.4,0.2-1.9,0.6c-0.6,0.4-1,0.9-1.3,1.5v9.4h-2.3v-13.2H448.6z"/>
			<path class="st1" d="M465.8,743.7c-1.8,0-3.2-0.6-4.4-1.8s-1.7-2.7-1.7-4.7v-0.4c0-1.3,0.3-2.5,0.8-3.5c0.5-1,1.2-1.8,2.1-2.4
				s1.9-0.9,2.9-0.9c1.7,0,3.1,0.6,4,1.7s1.4,2.8,1.4,4.9v0.9H462c0,1.3,0.4,2.4,1.1,3.2c0.7,0.8,1.7,1.2,2.8,1.2
				c0.8,0,1.5-0.2,2-0.5c0.6-0.3,1-0.8,1.5-1.3l1.4,1.1C469.6,742.9,468,743.7,465.8,743.7z M465.5,731.9c-0.9,0-1.7,0.3-2.3,1
				s-1,1.6-1.1,2.8h6.6v-0.2c-0.1-1.1-0.4-2-0.9-2.7S466.4,731.9,465.5,731.9z"/>
			<path class="st1" d="M481.2,740c0-0.6-0.2-1.1-0.7-1.4c-0.5-0.3-1.3-0.6-2.4-0.9s-2.1-0.5-2.7-0.9c-0.7-0.3-1.2-0.7-1.5-1.2
				c-0.3-0.5-0.5-1-0.5-1.7c0-1.1,0.5-2,1.4-2.7c0.9-0.7,2.1-1.1,3.5-1.1c1.5,0,2.7,0.4,3.6,1.2s1.4,1.8,1.4,3h-2.3
				c0-0.6-0.3-1.2-0.8-1.6c-0.5-0.4-1.2-0.7-2-0.7c-0.8,0-1.5,0.2-1.9,0.5c-0.5,0.4-0.7,0.8-0.7,1.4c0,0.5,0.2,1,0.6,1.2
				c0.4,0.3,1.2,0.5,2.3,0.8c1.1,0.3,2,0.6,2.7,0.9s1.2,0.8,1.6,1.3c0.3,0.5,0.5,1.1,0.5,1.8c0,1.2-0.5,2.1-1.4,2.8
				c-0.9,0.7-2.2,1.1-3.7,1.1c-1.1,0-2-0.2-2.8-0.6s-1.5-0.9-1.9-1.6c-0.5-0.7-0.7-1.4-0.7-2.2h2.3c0,0.8,0.3,1.4,0.9,1.8
				c0.6,0.4,1.3,0.7,2.2,0.7c0.9,0,1.5-0.2,2.1-0.5C480.9,741,481.2,740.6,481.2,740z"/>
		</g>
		<path class="st14" d="M319.4,668.7c0,0.2,0,0.5,0,0.7c-2,28.2-11.6,25.8-11.6,37.4s9.6,9.2,11.6,37.4c0,0.2,0,0.5,0,0.7V668.7z"/>
	</g>
</g>
<g id="grid" class="st70">
</g>
</svg>
