<?xml version="1.0" encoding="utf-8"?>
<!-- Generator: Adobe Illustrator 18.1.1, SVG Export Plug-In . SVG Version: 6.00 Build 0)  -->
<svg version="1.1" xmlns="http://www.w3.org/2000/svg" xmlns:xlink="http://www.w3.org/1999/xlink" x="0px" y="0px"
	 viewBox="0 0 640 1136" style="enable-background:new 0 0 640 1136;" xml:space="preserve">
<style type="text/css">
	.st0{fill:#3B8C6B;}
	.st1{fill:#FFFFFF;}
	.st2{fill:url(#SVGID_1_);}
	.st3{opacity:0.3;}
	.st4{fill-rule:evenodd;clip-rule:evenodd;fill:#F46B83;}
	.st5{fill:#58BD98;}
	.st6{fill:#EFEFEF;}
	.st7{fill:none;stroke:#E0E1E2;stroke-width:11;stroke-miterlimit:10;}
	.st8{opacity:0.3;fill-rule:evenodd;clip-rule:evenodd;fill:#F56980;}
	.st9{fill:#F56980;}
	.st10{fill:#2AD19D;}
	.st11{fill-rule:evenodd;clip-rule:evenodd;fill:#FFFFFF;}
	.st12{fill:#F36D85;}
	.st13{fill:#E0E1E2;}
	.st14{fill:#F46B83;}
	.st15{fill:none;stroke:#F46B83;stroke-width:8;stroke-miterlimit:10;}
	.st16{opacity:0.3;fill:#2AD19D;}
	.st17{fill:#89D7E6;}
	.st18{clip-path:url(#SVGID_3_);}
	.st19{fill-rule:evenodd;clip-rule:evenodd;fill:#F56980;}
	.st20{opacity:0.3;fill:#F36D85;}
	.st21{opacity:0.3;fill:#F46B83;}
	.st22{fill:#24A45A;}
	.st23{fill:#3A5D87;}
	.st24{fill:#527EBB;}
	.st25{fill:#D82908;}
	.st26{fill:#E85749;}
	.st27{fill:#BCF7F7;}
	.st28{fill:#929496;}
	.st29{fill:none;stroke:#CDEBE0;stroke-width:5;stroke-linecap:round;stroke-miterlimit:10;}
	.st30{fill:#1A9169;}
	.st31{fill:none;stroke:#F7ADC1;stroke-width:12;stroke-miterlimit:10;}
	.st32{fill:none;stroke:#2AD19D;stroke-width:12;stroke-miterlimit:10;}
	.st33{fill:none;}
	.st34{fill:#BDF3F4;}
	.st35{fill:#34B188;}
	.st36{fill:#FDE49C;}
	.st37{fill:#FDEF6E;}
	.st38{fill:#1E845A;}
	.st39{fill:none;stroke:#A17644;stroke-width:2;stroke-miterlimit:10;}
	.st40{fill:#79E2BC;}
	.st41{fill:none;stroke:#A17644;stroke-width:3;stroke-miterlimit:10;}
	.st42{fill:none;stroke:#A17644;stroke-width:4;stroke-miterlimit:10;}
	.st43{fill:none;stroke:#A17644;stroke-width:3.4344;stroke-miterlimit:10;}
	.st44{fill:#808184;}
	.st45{fill:#BC4D65;}
	.st46{fill:#933850;}
	.st47{fill:none;stroke:#79E2BC;stroke-miterlimit:10;}
	.st48{opacity:0.2;}
	.st49{fill:#47B58D;}
	.st50{fill:none;stroke:#FFFFFF;stroke-width:8;stroke-linecap:round;stroke-miterlimit:10;}
	.st51{fill:none;stroke:#FFFFFF;stroke-width:2;stroke-miterlimit:10;}
	.st52{opacity:0.5;}
	.st53{fill:#CDE8DE;}
	.st54{clip-path:url(#SVGID_5_);}
	.st55{fill:#F6899C;}
	.st56{fill:#F66981;}
	.st57{fill:#FFFFFF;stroke:#F46B83;stroke-width:6;stroke-miterlimit:10;}
	.st58{clip-path:url(#SVGID_7_);fill:#47B58D;}
	.st59{clip-path:url(#SVGID_7_);}
	.st60{fill:none;stroke:#A17644;stroke-width:1.572;stroke-miterlimit:10;}
	.st61{clip-path:url(#SVGID_7_);fill:none;stroke:#79E2BC;stroke-width:2;stroke-miterlimit:10;}
	.st62{clip-path:url(#SVGID_7_);fill:#1E845A;}
	.st63{fill:none;stroke:#A17644;stroke-width:1.828;stroke-miterlimit:10;}
	.st64{fill:none;stroke:#A17644;stroke-width:3.4825;stroke-miterlimit:10;}
	.st65{fill:none;stroke:#A17644;stroke-width:4.1651;stroke-miterlimit:10;}
	.st66{fill:none;stroke:#A17644;stroke-width:2.8014;stroke-miterlimit:10;}
	.st67{fill:#37CF9D;}
	.st68{clip-path:url(#SVGID_9_);}
	.st69{fill:#ABE6CF;}
	.st70{display:none;}
</style>
<g id="Layer_1">
	<polygon class="st0" points="100.7,963.7 92.7,956.7 535.8,170.3 542.8,177.3 	"/>
	<g>
		<rect x="100.7" y="176.3" class="st0" width="442.1" height="786.4"/>
	</g>
	<g>
		<rect x="94.3" y="169.6" class="st1" width="443.1" height="786.4"/>
	</g>
	<g class="st3">
		<path class="st4" d="M479.9,200.2h34.7c1.7,0,3.1-1.4,3.1-3.1c0-1.7-1.4-3.1-3.1-3.1h-34.7c-1.7,0-3.1,1.4-3.1,3.1
			C476.8,198.8,478.2,200.2,479.9,200.2z M514.6,218.6h-34.7c-1.7,0-3.1,1.4-3.1,3.1c0,1.7,1.4,3.1,3.1,3.1h34.7
			c1.7,0,3.1-1.4,3.1-3.1C517.6,220,516.3,218.6,514.6,218.6z M514.6,206.3h-34.7c-1.7,0-3.1,1.4-3.1,3.1c0,1.7,1.4,3.1,3.1,3.1
			h34.7c1.7,0,3.1-1.4,3.1-3.1C517.6,207.7,516.3,206.3,514.6,206.3z"/>
	</g>
	<path class="st5" d="M147,437.5c0,1.5,1.2,2.6,2.6,2.6h0.9c1.5,0,2.6-1.2,2.6-2.6c0-1.5-1.2-2.6-2.6-2.6h-0.9
		C148.1,434.9,147,436,147,437.5z"/>
	<g>
		<path class="st14" d="M245.9,587.6l-44.1-86.5c-0.1-0.2-0.2-0.4-0.3-0.5c-5.5,3.7-11.5,6.8-17.8,9.1c0.1,0.2,0.2,0.4,0.3,0.6
			l44.1,86.5c1.3,2.5,3.5,4.3,6.1,5c2.4,0.7,5,0.5,7.4-0.7C246.5,598.6,248.4,592.5,245.9,587.6z"/>
	</g>
	<g>
		<path class="st1" d="M227,92.7l2.4-0.5V80.7l-2.6-0.5v-3h7.3l0.2,2.7c0.4-1,1-1.7,1.7-2.2c0.7-0.5,1.5-0.8,2.4-0.8
			c0.3,0,0.5,0,0.8,0.1c0.3,0,0.5,0.1,0.7,0.1l-0.5,4.5l-2.1-0.1c-0.7,0-1.3,0.1-1.8,0.4c-0.5,0.3-0.8,0.7-1.1,1.2v9l2.4,0.5v3H227
			V92.7z"/>
		<path class="st1" d="M241,86.2c0-2.8,0.8-5,2.3-6.8c1.5-1.8,3.7-2.6,6.4-2.6c2.7,0,4.9,0.9,6.4,2.6c1.5,1.8,2.3,4,2.3,6.8v0.4
			c0,2.8-0.8,5-2.3,6.8c-1.5,1.7-3.7,2.6-6.4,2.6c-2.7,0-4.9-0.9-6.4-2.6c-1.5-1.7-2.3-4-2.3-6.8V86.2z M246,86.6
			c0,1.7,0.3,3,0.9,4.1c0.6,1,1.5,1.5,2.9,1.5c1.3,0,2.2-0.5,2.8-1.5c0.6-1,0.9-2.4,0.9-4.1v-0.4c0-1.6-0.3-3-0.9-4
			c-0.6-1-1.6-1.6-2.9-1.6s-2.2,0.5-2.8,1.6c-0.6,1-0.9,2.4-0.9,4V86.6z"/>
		<path class="st1" d="M273.6,93.3c-0.6,0.9-1.3,1.5-2.2,2c-0.9,0.5-1.9,0.7-3,0.7c-1.9,0-3.5-0.6-4.6-1.9c-1.1-1.2-1.7-3.2-1.7-5.8
			v-7.6l-2-0.5v-3h2h5v11.2c0,1.3,0.2,2.3,0.7,2.9s1.1,0.9,2,0.9c0.8,0,1.5-0.1,2-0.4c0.6-0.3,1-0.6,1.4-1.1v-10l-2.2-0.5v-3h2.2h5
			v15l2.2,0.5v3h-6.6L273.6,93.3z"/>
		<path class="st1" d="M289.9,72.6v4.5h3.2v3.5h-3.2v9.4c0,0.7,0.1,1.2,0.4,1.5c0.3,0.3,0.7,0.5,1.2,0.5c0.3,0,0.6,0,0.9,0
			c0.3,0,0.5-0.1,0.9-0.1l0.4,3.6c-0.6,0.2-1.1,0.3-1.7,0.4c-0.5,0.1-1.1,0.1-1.8,0.1c-1.7,0-3-0.5-4-1.4c-0.9-0.9-1.4-2.4-1.4-4.5
			v-9.4h-2.7v-3.5h2.7v-4.5H289.9z"/>
		<path class="st1" d="M304.4,96c-2.7,0-4.8-0.9-6.4-2.6c-1.6-1.7-2.4-3.9-2.4-6.5v-0.7c0-2.7,0.8-5,2.3-6.8s3.5-2.7,6.1-2.6
			c2.5,0,4.4,0.8,5.8,2.3c1.4,1.5,2.1,3.5,2.1,6.1v2.7h-11l0,0.1c0.1,1.2,0.5,2.2,1.2,3s1.7,1.2,2.9,1.2c1.1,0,2-0.1,2.8-0.3
			c0.7-0.2,1.5-0.6,2.4-1.1l1.3,3.1c-0.8,0.6-1.8,1.1-3,1.5C307.2,95.8,305.9,96,304.4,96z M304,80.7c-0.9,0-1.7,0.4-2.2,1.1
			c-0.5,0.7-0.9,1.6-1,2.8l0.1,0.1h6.1v-0.4c0-1.1-0.2-1.9-0.7-2.5C305.7,81,305,80.7,304,80.7z"/>
		<path class="st1" d="M337.9,83.5h-3.3l-0.5-2.3c-0.3-0.3-0.8-0.5-1.3-0.7c-0.5-0.2-1.1-0.3-1.7-0.3c-0.9,0-1.6,0.2-2.1,0.6
			c-0.5,0.4-0.8,0.9-0.8,1.5c0,0.6,0.2,1,0.7,1.4c0.5,0.4,1.5,0.7,2.9,1c2.3,0.5,4,1.1,5.1,2c1.1,0.9,1.7,2.1,1.7,3.6
			c0,1.7-0.7,3-2.1,4.1c-1.4,1.1-3.3,1.6-5.6,1.6c-1.4,0-2.7-0.2-3.9-0.6c-1.2-0.4-2.2-1-3.2-1.8l-0.1-4.2h3.5l0.7,2.4
			c0.3,0.3,0.7,0.4,1.2,0.6c0.5,0.1,1,0.2,1.6,0.2c1,0,1.8-0.2,2.3-0.5c0.5-0.4,0.8-0.9,0.8-1.5c0-0.5-0.3-1-0.8-1.4
			c-0.5-0.4-1.5-0.8-3-1.1c-2.2-0.4-3.8-1.1-4.9-2c-1.1-0.9-1.7-2.1-1.7-3.6c0-1.5,0.6-2.9,1.9-4c1.3-1.1,3.1-1.7,5.5-1.7
			c1.4,0,2.8,0.2,4.1,0.6c1.3,0.4,2.3,0.9,3,1.5L337.9,83.5z"/>
		<path class="st1" d="M349.6,96c-2.7,0-4.8-0.9-6.4-2.6c-1.6-1.7-2.4-3.9-2.4-6.5v-0.7c0-2.7,0.8-5,2.3-6.8s3.5-2.7,6.1-2.6
			c2.5,0,4.4,0.8,5.8,2.3c1.4,1.5,2.1,3.5,2.1,6.1v2.7h-11l0,0.1c0.1,1.2,0.5,2.2,1.2,3s1.7,1.2,2.9,1.2c1.1,0,2-0.1,2.8-0.3
			c0.7-0.2,1.5-0.6,2.4-1.1l1.3,3.1c-0.8,0.6-1.8,1.1-3,1.5C352.5,95.8,351.1,96,349.6,96z M349.2,80.7c-0.9,0-1.7,0.4-2.2,1.1
			c-0.5,0.7-0.9,1.6-1,2.8l0.1,0.1h6.1v-0.4c0-1.1-0.2-1.9-0.7-2.5C350.9,81,350.2,80.7,349.2,80.7z"/>
		<path class="st1" d="M366.8,72.6v4.5h3.2v3.5h-3.2v9.4c0,0.7,0.1,1.2,0.4,1.5c0.3,0.3,0.7,0.5,1.2,0.5c0.3,0,0.6,0,0.9,0
			c0.3,0,0.5-0.1,0.9-0.1l0.4,3.6c-0.6,0.2-1.1,0.3-1.7,0.4c-0.5,0.1-1.1,0.1-1.8,0.1c-1.7,0-3-0.5-4-1.4c-0.9-0.9-1.4-2.4-1.4-4.5
			v-9.4h-2.7v-3.5h2.7v-4.5H366.8z"/>
		<path class="st1" d="M385.4,93.3c-0.6,0.9-1.3,1.5-2.2,2c-0.9,0.5-1.9,0.7-3,0.7c-1.9,0-3.5-0.6-4.6-1.9c-1.1-1.2-1.7-3.2-1.7-5.8
			v-7.6l-2-0.5v-3h2h5v11.2c0,1.3,0.2,2.3,0.7,2.9s1.1,0.9,2,0.9c0.8,0,1.5-0.1,2-0.4c0.6-0.3,1-0.6,1.4-1.1v-10l-2.2-0.5v-3h2.2h5
			v15l2.2,0.5v3h-6.6L385.4,93.3z"/>
		<path class="st1" d="M393.9,80.2v-3h7.2l0.2,2.2c0.5-0.8,1.2-1.4,2-1.8c0.8-0.4,1.7-0.6,2.7-0.6c2.3,0,4.1,0.9,5.3,2.7
			c1.3,1.8,1.9,4.1,1.9,7.1v0.4c0,2.7-0.6,4.9-1.9,6.6c-1.3,1.7-3,2.5-5.3,2.5c-1,0-1.8-0.2-2.6-0.5c-0.8-0.4-1.4-0.9-1.9-1.6v5.3
			l2.4,0.5v3h-9.8v-3l2.4-0.5V80.7L393.9,80.2z M408.3,86.6c0-1.7-0.3-3.2-0.9-4.2c-0.6-1.1-1.5-1.6-2.7-1.6c-0.8,0-1.4,0.2-1.9,0.5
			c-0.5,0.3-0.9,0.7-1.3,1.3v8.1c0.3,0.5,0.7,0.9,1.3,1.2c0.5,0.3,1.2,0.4,2,0.4c1.2,0,2.1-0.5,2.7-1.4c0.6-0.9,0.8-2.2,0.8-3.8
			V86.6z"/>
		<path class="st1" d="M254.6,121.2c0,2-0.5,3.6-1.4,4.9c-0.9,1.2-2.2,1.8-3.7,1.8c-1.6,0-2.9-0.5-3.8-1.5v6.4h-2.3v-18.3h2.1
			l0.1,1.5c0.9-1.1,2.2-1.7,3.8-1.7c1.6,0,2.8,0.6,3.8,1.8c0.9,1.2,1.4,2.9,1.4,5V121.2z M252.3,120.9c0-1.5-0.3-2.7-1-3.5
			c-0.6-0.9-1.5-1.3-2.6-1.3c-1.4,0-2.4,0.6-3.1,1.8v6.3c0.7,1.2,1.7,1.8,3.1,1.8c1.1,0,1.9-0.4,2.6-1.3S252.3,122.6,252.3,120.9z"
			/>
		<path class="st1" d="M265.3,116.5c-0.3-0.1-0.7-0.1-1.1-0.1c-1.5,0-2.5,0.6-3,1.9v9.4H259v-13.2h2.2l0,1.5
			c0.7-1.2,1.8-1.8,3.1-1.8c0.4,0,0.8,0.1,1,0.2V116.5z"/>
		<path class="st1" d="M268.1,120.9c0-1.3,0.3-2.5,0.8-3.5c0.5-1,1.2-1.8,2.1-2.4c0.9-0.6,1.9-0.8,3.1-0.8c1.8,0,3.3,0.6,4.4,1.9
			c1.1,1.2,1.7,2.9,1.7,5v0.2c0,1.3-0.2,2.4-0.7,3.5c-0.5,1-1.2,1.8-2.1,2.4c-0.9,0.6-2,0.9-3.2,0.9c-1.8,0-3.2-0.6-4.4-1.9
			c-1.1-1.2-1.7-2.9-1.7-4.9V120.9z M270.3,121.2c0,1.5,0.3,2.6,1,3.5s1.6,1.3,2.7,1.3c1.1,0,2.1-0.4,2.7-1.3c0.7-0.9,1-2.2,1-3.8
			c0-1.4-0.3-2.6-1-3.5c-0.7-0.9-1.6-1.3-2.7-1.3c-1.1,0-2,0.4-2.7,1.3C270.7,118.3,270.3,119.5,270.3,121.2z"/>
		<path class="st1" d="M283.9,120.9c0-2.1,0.5-3.7,1.4-4.9c1-1.2,2.2-1.8,3.8-1.8c1.6,0,2.9,0.6,3.8,1.7l0.1-1.5h2.1v12.9
			c0,1.7-0.5,3.1-1.5,4c-1,1-2.4,1.5-4.1,1.5c-1,0-1.9-0.2-2.8-0.6s-1.6-1-2.1-1.7l1.2-1.4c1,1.2,2.2,1.8,3.6,1.8
			c1.1,0,2-0.3,2.6-0.9c0.6-0.6,0.9-1.5,0.9-2.6v-1.1c-0.9,1-2.1,1.6-3.7,1.6c-1.5,0-2.8-0.6-3.8-1.9
			C284.4,124.8,283.9,123.1,283.9,120.9z M286.2,121.2c0,1.5,0.3,2.7,0.9,3.5c0.6,0.9,1.5,1.3,2.6,1.3c1.4,0,2.5-0.6,3.1-1.9v-6
			c-0.7-1.3-1.7-1.9-3.1-1.9c-1.1,0-2,0.4-2.6,1.3S286.2,119.5,286.2,121.2z"/>
		<path class="st1" d="M306.3,116.5c-0.3-0.1-0.7-0.1-1.1-0.1c-1.5,0-2.5,0.6-3,1.9v9.4H300v-13.2h2.2l0,1.5
			c0.7-1.2,1.8-1.8,3.1-1.8c0.4,0,0.8,0.1,1,0.2V116.5z"/>
		<path class="st1" d="M315.2,127.9c-1.8,0-3.2-0.6-4.4-1.8s-1.7-2.7-1.7-4.7V121c0-1.3,0.3-2.5,0.8-3.5c0.5-1,1.2-1.8,2.1-2.4
			s1.9-0.9,2.9-0.9c1.7,0,3.1,0.6,4,1.7c1,1.1,1.4,2.8,1.4,4.9v0.9h-8.9c0,1.3,0.4,2.4,1.1,3.2c0.7,0.8,1.7,1.2,2.8,1.2
			c0.8,0,1.5-0.2,2-0.5c0.6-0.3,1-0.8,1.5-1.3l1.4,1.1C319,127,317.4,127.9,315.2,127.9z M314.9,116.1c-0.9,0-1.7,0.3-2.3,1
			s-1,1.6-1.1,2.8h6.6v-0.2c-0.1-1.1-0.4-2-0.9-2.7S315.8,116.1,314.9,116.1z"/>
		<path class="st1" d="M332.1,124.1c0-0.6-0.2-1.1-0.7-1.4c-0.5-0.3-1.3-0.6-2.4-0.9s-2.1-0.5-2.7-0.9c-0.7-0.3-1.2-0.7-1.5-1.2
			c-0.3-0.5-0.5-1-0.5-1.7c0-1.1,0.5-2,1.4-2.7c0.9-0.7,2.1-1.1,3.5-1.1c1.5,0,2.7,0.4,3.6,1.2c0.9,0.8,1.4,1.8,1.4,3H332
			c0-0.6-0.3-1.2-0.8-1.6c-0.5-0.4-1.2-0.7-2-0.7c-0.8,0-1.5,0.2-1.9,0.5s-0.7,0.8-0.7,1.4c0,0.5,0.2,1,0.6,1.2s1.2,0.5,2.3,0.8
			c1.1,0.3,2,0.6,2.7,0.9c0.7,0.4,1.2,0.8,1.6,1.3c0.3,0.5,0.5,1.1,0.5,1.8c0,1.2-0.5,2.1-1.4,2.8c-0.9,0.7-2.2,1.1-3.7,1.1
			c-1.1,0-2-0.2-2.8-0.6s-1.5-0.9-1.9-1.6c-0.5-0.7-0.7-1.4-0.7-2.2h2.3c0,0.8,0.3,1.4,0.9,1.8c0.6,0.4,1.3,0.7,2.2,0.7
			c0.9,0,1.5-0.2,2.1-0.5C331.9,125.2,332.1,124.7,332.1,124.1z"/>
		<path class="st1" d="M346.5,124.1c0-0.6-0.2-1.1-0.7-1.4c-0.5-0.3-1.3-0.6-2.4-0.9s-2.1-0.5-2.7-0.9c-0.7-0.3-1.2-0.7-1.5-1.2
			c-0.3-0.5-0.5-1-0.5-1.7c0-1.1,0.5-2,1.4-2.7c0.9-0.7,2.1-1.1,3.5-1.1c1.5,0,2.7,0.4,3.6,1.2c0.9,0.8,1.4,1.8,1.4,3h-2.3
			c0-0.6-0.3-1.2-0.8-1.6c-0.5-0.4-1.2-0.7-2-0.7c-0.8,0-1.5,0.2-1.9,0.5s-0.7,0.8-0.7,1.4c0,0.5,0.2,1,0.6,1.2s1.2,0.5,2.3,0.8
			c1.1,0.3,2,0.6,2.7,0.9c0.7,0.4,1.2,0.8,1.6,1.3c0.3,0.5,0.5,1.1,0.5,1.8c0,1.2-0.5,2.1-1.4,2.8c-0.9,0.7-2.2,1.1-3.7,1.1
			c-1.1,0-2-0.2-2.8-0.6s-1.5-0.9-1.9-1.6c-0.5-0.7-0.7-1.4-0.7-2.2h2.3c0,0.8,0.3,1.4,0.9,1.8c0.6,0.4,1.3,0.7,2.2,0.7
			c0.9,0,1.5-0.2,2.1-0.5C346.3,125.2,346.5,124.7,346.5,124.1z"/>
		<path class="st1" d="M372.1,121.2c0,2-0.5,3.6-1.4,4.9s-2.2,1.8-3.7,1.8c-1.7,0-3-0.6-3.9-1.8l-0.1,1.5h-2.1v-18.8h2.3v7
			c0.9-1.1,2.2-1.7,3.8-1.7s2.9,0.6,3.8,1.8c0.9,1.2,1.4,2.9,1.4,5V121.2z M369.8,120.9c0-1.5-0.3-2.7-0.9-3.6s-1.4-1.3-2.6-1.3
			c-1.5,0-2.6,0.7-3.2,2.1v5.7c0.7,1.4,1.8,2.1,3.2,2.1c1.1,0,1.9-0.4,2.5-1.3C369.5,123.9,369.8,122.6,369.8,120.9z"/>
		<path class="st1" d="M384.6,127.6c-0.1-0.3-0.2-0.7-0.3-1.4c-1,1.1-2.3,1.6-3.8,1.6c-1.3,0-2.4-0.4-3.2-1.1
			c-0.8-0.7-1.3-1.7-1.3-2.8c0-1.4,0.5-2.4,1.6-3.2c1-0.8,2.5-1.1,4.4-1.1h2.2v-1c0-0.8-0.2-1.4-0.7-1.9c-0.5-0.5-1.2-0.7-2.1-0.7
			c-0.8,0-1.5,0.2-2,0.6c-0.5,0.4-0.8,0.9-0.8,1.5h-2.3c0-0.7,0.2-1.3,0.7-1.9s1.1-1.1,1.9-1.5s1.7-0.5,2.6-0.5
			c1.5,0,2.7,0.4,3.6,1.1s1.3,1.8,1.3,3.1v6.1c0,1.2,0.2,2.2,0.5,2.9v0.2H384.6z M380.8,125.9c0.7,0,1.4-0.2,2-0.5s1.1-0.8,1.4-1.4
			v-2.7h-1.8c-2.8,0-4.2,0.8-4.2,2.4c0,0.7,0.2,1.3,0.7,1.7S380.1,125.9,380.8,125.9z"/>
		<path class="st1" d="M397.9,116.5c-0.3-0.1-0.7-0.1-1.1-0.1c-1.5,0-2.5,0.6-3,1.9v9.4h-2.3v-13.2h2.2l0,1.5
			c0.7-1.2,1.8-1.8,3.1-1.8c0.4,0,0.8,0.1,1,0.2V116.5z"/>
	</g>
	<g>
		<g>
			<path class="st5" d="M137.1,665.2c0,0-0.1,0-0.1,0l-28,14.1c-0.3,0.1-0.3,0.2,0,0.3l10.1,3c0.3,0.1,0.5,0.3,0.6,0.6l3,10.3
				c0.1,0.2,0.2,0.2,0.3,0l14.1-28.1C137.2,665.3,137.2,665.2,137.1,665.2L137.1,665.2z"/>
		</g>
		<g>
			<g>
				<path class="st5" d="M126,448.8h-4.3c-0.9,0-1.6-0.7-1.6-1.6s0.7-1.6,1.6-1.6h4.3c4.6,0,4.9-1.6,4.9-3.8c0-1,0-2.9-4.9-2.9
					h-17.1c-0.9,0-1.6-0.7-1.6-1.6c0-0.9,0.7-1.6,1.6-1.6H126c7,0,8.1,3.8,8.1,6.1C134.1,446.6,131.5,448.8,126,448.8z"/>
			</g>
			<g>
				<path class="st5" d="M138.3,458.4H119c-3.4,0-5.8-1-7.1-3c-1.4-2.2-1.3-5.2,0.2-7.2c1.3-1.7,3.6-2.6,6.9-2.6h3.2
					c0.9,0,1.6,0.7,1.6,1.6s-0.7,1.6-1.6,1.6H119c-2.2,0-3.7,0.5-4.4,1.3c-0.7,0.9-0.7,2.5-0.1,3.5c0.6,1,2.1,1.5,4.4,1.5h19.3
					c0.9,0,1.6,0.7,1.6,1.6S139.2,458.4,138.3,458.4z"/>
			</g>
		</g>
		<g>
			<g>
				<path class="st5" d="M136.2,225.3c-4.7,0-8.6-3.8-8.6-8.6s3.8-8.6,8.6-8.6c4.7,0,8.6,3.8,8.6,8.6S140.9,225.3,136.2,225.3z
					 M136.2,210.6c-3.4,0-6.1,2.7-6.1,6.1c0,3.4,2.7,6.1,6.1,6.1c3.4,0,6.1-2.7,6.1-6.1C142.3,213.3,139.5,210.6,136.2,210.6z"/>
			</g>
			<g>
				<path class="st5" d="M112.5,225.3c-4.7,0-8.6-3.8-8.6-8.6s3.8-8.6,8.6-8.6s8.6,3.8,8.6,8.6S117.2,225.3,112.5,225.3z
					 M112.5,210.6c-3.4,0-6.1,2.7-6.1,6.1c0,3.4,2.7,6.1,6.1,6.1s6.1-2.7,6.1-6.1C118.6,213.3,115.8,210.6,112.5,210.6z"/>
			</g>
			<g>
				<path class="st5" d="M112.3,217.9c-0.2,0-0.4-0.1-0.6-0.2c-0.6-0.3-0.8-1.1-0.5-1.7l5.6-10h14.6c0.7,0,1.2,0.6,1.2,1.2
					c0,0.7-0.6,1.2-1.2,1.2h-13.1l-4.9,8.7C113.1,217.7,112.7,217.9,112.3,217.9z"/>
			</g>
			<g>
				<path class="st5" d="M136.4,217.9c-0.5,0-0.9-0.3-1.1-0.7l-6.4-13.2c-0.3-0.5-0.2-1.1,0.1-1.6s0.9-0.8,1.4-0.8h6
					c0.7,0,1.2,0.6,1.2,1.2c0,0.7-0.6,1.2-1.2,1.2h-4.8l5.8,12.1c0.3,0.6,0,1.3-0.6,1.6C136.7,217.9,136.6,217.9,136.4,217.9z"/>
			</g>
			<g>
				<path class="st5" d="M117.6,207.9c-0.4,0-0.8-0.2-1-0.5l-2.3-3.4c-0.4-0.6-0.2-1.3,0.3-1.7c0.6-0.4,1.3-0.2,1.7,0.3l2.3,3.4
					c0.4,0.6,0.2,1.3-0.3,1.7C118,207.8,117.8,207.9,117.6,207.9z"/>
			</g>
			<g>
				<line class="st1" x1="119.9" y1="203" x2="113.2" y2="203"/>
				<path class="st5" d="M119.9,204.2h-6.7c-0.7,0-1.2-0.6-1.2-1.2s0.6-1.2,1.2-1.2h6.7c0.7,0,1.2,0.6,1.2,1.2
					S120.6,204.2,119.9,204.2z"/>
			</g>
		</g>
		<g>
			<g>
				<path class="st5" d="M124.3,884.8c-2.9,0-5.3-2.4-5.3-5.3v-167c0-2.9,2.4-5.3,5.3-5.3s5.3,2.4,5.3,5.3v167
					C129.6,882.4,127.2,884.8,124.3,884.8z"/>
			</g>
			<g>
				<path class="st5" d="M124.3,653.1c-2.9,0-5.3-2.4-5.3-5.3V479.3c0-2.9,2.4-5.3,5.3-5.3s5.3,2.4,5.3,5.3v168.6
					C129.6,650.8,127.2,653.1,124.3,653.1z"/>
			</g>
			<g>
				<path class="st5" d="M124.3,421.4c-2.9,0-5.3-2.4-5.3-5.3V246c0-2.9,2.4-5.3,5.3-5.3s5.3,2.4,5.3,5.3v170.2
					C129.6,419.1,127.2,421.4,124.3,421.4z"/>
			</g>
		</g>
		<g class="st48">
			<g>
				<circle class="st5" cx="124.3" cy="911.2" r="17.4"/>
			</g>
		</g>
		<g>
			<circle class="st5" cx="124.3" cy="911.2" r="10.6"/>
		</g>
	</g>
	<circle class="st57" cx="155.1" cy="433.1" r="81.9"/>
	<path class="st5" d="M153.5,398.3c4.9,0,8.8-3.9,8.8-8.8v-38c-2.4-0.2-4.7-0.3-7.1-0.3c-3.5,0-7,0.2-10.4,0.7v37.6
		C144.7,394.4,148.6,398.3,153.5,398.3z"/>
	<path class="st5" d="M153.5,477.1c-4.9,0-8.8,3.9-8.8,8.8v28.5c3.4,0.4,6.9,0.7,10.4,0.7c2.4,0,4.8-0.1,7.1-0.3v-28.8
		C162.3,481,158.3,477.1,153.5,477.1z"/>
	<circle class="st15" cx="155.1" cy="434.1" r="81.9"/>
	<path class="st5" d="M177.2,450.8h-32.2c-3.8,0-6.3-0.9-7.3-2.6c-1.1-1.8-1.1-4.3,0.1-5.9c1.1-1.4,3.6-2.2,7.2-2.2h4.5
		c-0.4,0-0.7-0.1-1.1-0.2l1.1,0.2h0.9h5.3h1c9.2,0,13.4-3.7,13.4-11.6c0-3.8-1.7-10.2-13.4-10.2h-28.4c-1.5,0-2.6,1.2-2.6,2.6
		c0,1.5,1.2,2.6,2.6,2.6h28.4c8.2,0,8.2,3.3,8.2,4.9c0,3.7-0.6,6.3-8.2,6.3h-1h-5.3h-0.9H147h-1.9c-5.4,0-9.3,1.4-11.4,4.3
		c-2.6,3.3-2.7,8.2-0.4,11.9c2.1,3.3,6.1,5,11.8,5h32.2c1.5,0,2.6-1.2,2.6-2.6S178.7,450.8,177.2,450.8z"/>
	<g>
		<path class="st14" d="M457.3,483.2H292.5c-6.6,0-12-5.4-12-12v-74.5c0-6.6,6.3-12,12.9-12h164.8c6.6,0,11.1,5.4,11.1,12v74.5
			C469.3,477.8,463.9,483.2,457.3,483.2z"/>
		<g>
			<path class="st1" d="M323.7,409.1v3.2h2.5v1.7h-2.5v8.2c0,0.5,0.1,0.9,0.3,1.2s0.6,0.4,1.1,0.4c0.3,0,0.6,0,1.1-0.1v1.8
				c-0.6,0.2-1.2,0.2-1.7,0.2c-1,0-1.8-0.3-2.3-0.9c-0.5-0.6-0.8-1.5-0.8-2.6v-8.2h-2.4v-1.7h2.4v-3.2H323.7z"/>
			<path class="st1" d="M337,425.5c-0.1-0.3-0.2-0.7-0.3-1.4c-1,1.1-2.3,1.6-3.8,1.6c-1.3,0-2.4-0.4-3.2-1.1
				c-0.8-0.7-1.3-1.7-1.3-2.8c0-1.4,0.5-2.4,1.6-3.2c1-0.8,2.5-1.1,4.4-1.1h2.2v-1c0-0.8-0.2-1.4-0.7-1.9c-0.5-0.5-1.2-0.7-2.1-0.7
				c-0.8,0-1.5,0.2-2,0.6c-0.5,0.4-0.8,0.9-0.8,1.5h-2.3c0-0.7,0.2-1.3,0.7-1.9c0.5-0.6,1.1-1.1,1.9-1.5c0.8-0.4,1.7-0.5,2.6-0.5
				c1.5,0,2.7,0.4,3.6,1.1c0.9,0.8,1.3,1.8,1.3,3.1v6.1c0,1.2,0.2,2.2,0.5,2.9v0.2H337z M333.2,423.8c0.7,0,1.4-0.2,2-0.5
				s1.1-0.8,1.4-1.4v-2.7h-1.8c-2.8,0-4.2,0.8-4.2,2.4c0,0.7,0.2,1.3,0.7,1.7C331.9,423.6,332.5,423.8,333.2,423.8z"/>
			<path class="st1" d="M353.6,419.1c0,2-0.5,3.6-1.4,4.9c-0.9,1.2-2.2,1.8-3.7,1.8c-1.6,0-2.9-0.5-3.8-1.5v6.4h-2.3v-18.3h2.1
				l0.1,1.5c0.9-1.1,2.2-1.7,3.8-1.7c1.6,0,2.8,0.6,3.8,1.8s1.4,2.9,1.4,5V419.1z M351.3,418.8c0-1.5-0.3-2.7-1-3.5
				c-0.6-0.9-1.5-1.3-2.6-1.3c-1.4,0-2.4,0.6-3.1,1.8v6.3c0.7,1.2,1.7,1.8,3.1,1.8c1.1,0,1.9-0.4,2.6-1.3
				C351,421.8,351.3,420.5,351.3,418.8z"/>
			<path class="st1" d="M365.7,409.1v3.2h2.5v1.7h-2.5v8.2c0,0.5,0.1,0.9,0.3,1.2s0.6,0.4,1.1,0.4c0.3,0,0.6,0,1.1-0.1v1.8
				c-0.6,0.2-1.2,0.2-1.7,0.2c-1,0-1.8-0.3-2.3-0.9c-0.5-0.6-0.8-1.5-0.8-2.6v-8.2h-2.4v-1.7h2.4v-3.2H365.7z"/>
			<path class="st1" d="M370,418.8c0-1.3,0.3-2.5,0.8-3.5c0.5-1,1.2-1.8,2.1-2.4c0.9-0.6,1.9-0.8,3.1-0.8c1.8,0,3.3,0.6,4.4,1.9
				c1.1,1.2,1.7,2.9,1.7,5v0.2c0,1.3-0.2,2.4-0.7,3.5c-0.5,1-1.2,1.8-2.1,2.4c-0.9,0.6-2,0.9-3.2,0.9c-1.8,0-3.2-0.6-4.4-1.9
				c-1.1-1.2-1.7-2.9-1.7-4.9V418.8z M372.3,419.1c0,1.5,0.3,2.6,1,3.5c0.7,0.9,1.6,1.3,2.7,1.3c1.1,0,2.1-0.4,2.7-1.3
				c0.7-0.9,1-2.2,1-3.8c0-1.4-0.3-2.6-1-3.5c-0.7-0.9-1.6-1.3-2.7-1.3c-1.1,0-2,0.4-2.7,1.3C372.6,416.1,372.3,417.4,372.3,419.1z"
				/>
			<path class="st1" d="M396.5,425.8c-1.8,0-3.2-0.6-4.4-1.8c-1.1-1.2-1.7-2.7-1.7-4.7v-0.4c0-1.3,0.3-2.5,0.8-3.5
				c0.5-1,1.2-1.8,2.1-2.4c0.9-0.6,1.9-0.9,2.9-0.9c1.7,0,3.1,0.6,4,1.7c1,1.1,1.4,2.8,1.4,4.9v0.9h-8.9c0,1.3,0.4,2.4,1.1,3.2
				c0.7,0.8,1.7,1.2,2.8,1.2c0.8,0,1.5-0.2,2-0.5c0.6-0.3,1-0.8,1.5-1.3l1.4,1.1C400.4,424.9,398.7,425.8,396.5,425.8z M396.2,413.9
				c-0.9,0-1.7,0.3-2.3,1c-0.6,0.7-1,1.6-1.1,2.8h6.6v-0.2c-0.1-1.1-0.4-2-0.9-2.7C397.9,414.2,397.2,413.9,396.2,413.9z"/>
			<path class="st1" d="M403.7,418.8c0-2,0.5-3.7,1.4-4.9c1-1.2,2.2-1.8,3.8-1.8c1.5,0,2.8,0.5,3.7,1.6v-6.9h2.3v18.8h-2.1l-0.1-1.4
				c-0.9,1.1-2.2,1.7-3.8,1.7c-1.5,0-2.8-0.6-3.7-1.9c-1-1.3-1.4-2.9-1.4-4.9V418.8z M406,419.1c0,1.5,0.3,2.7,0.9,3.5
				c0.6,0.8,1.5,1.3,2.6,1.3c1.4,0,2.5-0.6,3.1-1.9v-6.1c-0.7-1.2-1.7-1.9-3.1-1.9c-1.1,0-2,0.4-2.6,1.3S406,417.4,406,419.1z"/>
			<path class="st1" d="M418.4,408.8c0-0.4,0.1-0.7,0.3-0.9c0.2-0.3,0.6-0.4,1-0.4s0.8,0.1,1,0.4c0.2,0.3,0.3,0.6,0.3,0.9
				s-0.1,0.7-0.3,0.9s-0.6,0.4-1,0.4s-0.8-0.1-1-0.4S418.4,409.2,418.4,408.8z M420.8,425.5h-2.3v-13.2h2.3V425.5z"/>
			<path class="st1" d="M427.5,409.1v3.2h2.5v1.7h-2.5v8.2c0,0.5,0.1,0.9,0.3,1.2s0.6,0.4,1.1,0.4c0.3,0,0.6,0,1.1-0.1v1.8
				c-0.6,0.2-1.2,0.2-1.7,0.2c-1,0-1.8-0.3-2.3-0.9c-0.5-0.6-0.8-1.5-0.8-2.6v-8.2h-2.4v-1.7h2.4v-3.2H427.5z"/>
			<path class="st1" d="M313.2,452.2l3.1-9.9h2.4l-5.3,15.2c-0.8,2.2-2.1,3.3-3.9,3.3l-0.4,0l-0.8-0.2v-1.8l0.6,0
				c0.8,0,1.4-0.2,1.8-0.5c0.4-0.3,0.8-0.9,1.1-1.7l0.5-1.3l-4.7-13.1h2.5L313.2,452.2z"/>
			<path class="st1" d="M319.9,448.8c0-1.3,0.3-2.5,0.8-3.5c0.5-1,1.2-1.8,2.1-2.4c0.9-0.6,1.9-0.8,3.1-0.8c1.8,0,3.3,0.6,4.4,1.9
				c1.1,1.2,1.7,2.9,1.7,5v0.2c0,1.3-0.2,2.4-0.7,3.5c-0.5,1-1.2,1.8-2.1,2.4c-0.9,0.6-2,0.9-3.2,0.9c-1.8,0-3.2-0.6-4.4-1.9
				c-1.1-1.2-1.7-2.9-1.7-4.9V448.8z M322.2,449.1c0,1.5,0.3,2.6,1,3.5c0.7,0.9,1.6,1.3,2.7,1.3c1.1,0,2.1-0.4,2.7-1.3
				c0.7-0.9,1-2.2,1-3.8c0-1.4-0.3-2.6-1-3.5c-0.7-0.9-1.6-1.3-2.7-1.3c-1.1,0-2,0.4-2.7,1.3C322.5,446.1,322.2,447.4,322.2,449.1z"
				/>
			<path class="st1" d="M342.9,454.2c-0.9,1-2.2,1.6-3.9,1.6c-1.4,0-2.5-0.4-3.2-1.2c-0.7-0.8-1.1-2-1.1-3.6v-8.6h2.3v8.5
				c0,2,0.8,3,2.4,3c1.7,0,2.9-0.6,3.4-1.9v-9.6h2.3v13.2H343L342.9,454.2z"/>
			<path class="st1" d="M355,444.3c-0.3-0.1-0.7-0.1-1.1-0.1c-1.5,0-2.5,0.6-3,1.9v9.4h-2.3v-13.2h2.2l0,1.5
				c0.7-1.2,1.8-1.8,3.1-1.8c0.4,0,0.8,0.1,1,0.2V444.3z"/>
			<path class="st1" d="M365.6,442.3v14.7c0,2.5-1.2,3.8-3.5,3.8c-0.5,0-1-0.1-1.4-0.2v-1.8c0.3,0.1,0.6,0.1,1,0.1
				c0.5,0,0.9-0.1,1.2-0.4c0.3-0.3,0.4-0.7,0.4-1.4v-14.8H365.6z M363.1,438.8c0-0.4,0.1-0.7,0.3-0.9c0.2-0.3,0.6-0.4,1-0.4
				c0.4,0,0.8,0.1,1,0.4c0.2,0.3,0.3,0.6,0.3,0.9s-0.1,0.7-0.3,0.9c-0.2,0.2-0.6,0.4-1,0.4s-0.8-0.1-1-0.4S363.1,439.2,363.1,438.8z
				"/>
			<path class="st1" d="M368.6,448.8c0-1.3,0.3-2.5,0.8-3.5c0.5-1,1.2-1.8,2.1-2.4c0.9-0.6,1.9-0.8,3.1-0.8c1.8,0,3.3,0.6,4.4,1.9
				c1.1,1.2,1.7,2.9,1.7,5v0.2c0,1.3-0.2,2.4-0.7,3.5c-0.5,1-1.2,1.8-2.1,2.4c-0.9,0.6-2,0.9-3.2,0.9c-1.8,0-3.2-0.6-4.4-1.9
				c-1.1-1.2-1.7-2.9-1.7-4.9V448.8z M370.9,449.1c0,1.5,0.3,2.6,1,3.5c0.7,0.9,1.6,1.3,2.7,1.3c1.1,0,2.1-0.4,2.7-1.3
				c0.7-0.9,1-2.2,1-3.8c0-1.4-0.3-2.6-1-3.5c-0.7-0.9-1.6-1.3-2.7-1.3c-1.1,0-2,0.4-2.7,1.3C371.2,446.1,370.9,447.4,370.9,449.1z"
				/>
			<path class="st1" d="M391.6,454.2c-0.9,1-2.2,1.6-3.9,1.6c-1.4,0-2.5-0.4-3.2-1.2c-0.7-0.8-1.1-2-1.1-3.6v-8.6h2.3v8.5
				c0,2,0.8,3,2.4,3c1.7,0,2.9-0.6,3.4-1.9v-9.6h2.3v13.2h-2.1L391.6,454.2z"/>
			<path class="st1" d="M403.6,444.3c-0.3-0.1-0.7-0.1-1.1-0.1c-1.5,0-2.5,0.6-3,1.9v9.4h-2.3v-13.2h2.2l0,1.5
				c0.7-1.2,1.8-1.8,3.1-1.8c0.4,0,0.8,0.1,1,0.2V444.3z"/>
			<path class="st1" d="M407.8,442.3l0.1,1.7c1-1.3,2.3-1.9,4-1.9c2.8,0,4.2,1.6,4.2,4.7v8.7h-2.3v-8.7c0-1-0.2-1.7-0.7-2.1
				c-0.4-0.5-1.1-0.7-2-0.7c-0.7,0-1.4,0.2-1.9,0.6c-0.6,0.4-1,0.9-1.3,1.5v9.4h-2.3v-13.2H407.8z"/>
			<path class="st1" d="M425,455.8c-1.8,0-3.2-0.6-4.4-1.8c-1.1-1.2-1.7-2.7-1.7-4.7v-0.4c0-1.3,0.3-2.5,0.8-3.5
				c0.5-1,1.2-1.8,2.1-2.4c0.9-0.6,1.9-0.9,2.9-0.9c1.7,0,3.1,0.6,4,1.7c1,1.1,1.4,2.8,1.4,4.9v0.9h-8.9c0,1.3,0.4,2.4,1.1,3.2
				c0.7,0.8,1.7,1.2,2.8,1.2c0.8,0,1.5-0.2,2-0.5c0.6-0.3,1-0.8,1.5-1.3l1.4,1.1C428.8,454.9,427.2,455.8,425,455.8z M424.7,443.9
				c-0.9,0-1.7,0.3-2.3,1c-0.6,0.7-1,1.6-1.1,2.8h6.6v-0.2c-0.1-1.1-0.4-2-0.9-2.7C426.4,444.2,425.6,443.9,424.7,443.9z"/>
			<path class="st1" d="M436.9,452.2l3.1-9.9h2.4l-5.3,15.2c-0.8,2.2-2.1,3.3-3.9,3.3l-0.4,0l-0.8-0.2v-1.8l0.6,0
				c0.8,0,1.4-0.2,1.8-0.5c0.4-0.3,0.8-0.9,1.1-1.7l0.5-1.3l-4.7-13.1h2.5L436.9,452.2z"/>
		</g>
		<path class="st14" d="M280.7,395.9c0,0.2,0,0.5,0,0.7c-2,28.2-11.6,25.8-11.6,37.4s9.6,9.2,11.6,37.4c0,0.2,0,0.5,0,0.7V395.9z"/>
	</g>
</g>
<g id="grid" class="st70">
</g>
</svg>
