<?xml version="1.0" encoding="utf-8"?>
<!-- Generator: Adobe Illustrator 18.1.1, SVG Export Plug-In . SVG Version: 6.00 Build 0)  -->
<svg version="1.1" xmlns="http://www.w3.org/2000/svg" xmlns:xlink="http://www.w3.org/1999/xlink" x="0px" y="0px"
	 viewBox="0 0 640 1136" style="enable-background:new 0 0 640 1136;" xml:space="preserve">
<style type="text/css">
	.st0{fill:#3B8C6B;}
	.st1{fill:#FFFFFF;}
	.st2{fill:url(#SVGID_1_);}
	.st3{opacity:0.3;}
	.st4{fill-rule:evenodd;clip-rule:evenodd;fill:#F46B83;}
	.st5{fill:#58BD98;}
	.st6{fill:#EFEFEF;}
	.st7{fill:none;stroke:#E0E1E2;stroke-width:11;stroke-miterlimit:10;}
	.st8{opacity:0.3;fill-rule:evenodd;clip-rule:evenodd;fill:#F56980;}
	.st9{fill:#F56980;}
	.st10{fill:#2AD19D;}
	.st11{fill-rule:evenodd;clip-rule:evenodd;fill:#FFFFFF;}
	.st12{fill:#F36D85;}
	.st13{fill:#E0E1E2;}
	.st14{fill:#F46B83;}
	.st15{fill:none;stroke:#F46B83;stroke-width:8;stroke-miterlimit:10;}
	.st16{opacity:0.3;fill:#2AD19D;}
	.st17{fill:#89D7E6;}
	.st18{clip-path:url(#SVGID_3_);}
	.st19{fill-rule:evenodd;clip-rule:evenodd;fill:#F56980;}
	.st20{opacity:0.3;fill:#F36D85;}
	.st21{opacity:0.3;fill:#F46B83;}
	.st22{fill:#24A45A;}
	.st23{fill:#3A5D87;}
	.st24{fill:#527EBB;}
	.st25{fill:#D82908;}
	.st26{fill:#E85749;}
	.st27{fill:#BCF7F7;}
	.st28{fill:#929496;}
	.st29{fill:none;stroke:#CDEBE0;stroke-width:5;stroke-linecap:round;stroke-miterlimit:10;}
	.st30{fill:#1A9169;}
	.st31{fill:none;stroke:#F7ADC1;stroke-width:12;stroke-miterlimit:10;}
	.st32{fill:none;stroke:#2AD19D;stroke-width:12;stroke-miterlimit:10;}
	.st33{fill:none;}
	.st34{fill:#BDF3F4;}
	.st35{fill:#34B188;}
	.st36{fill:#FDE49C;}
	.st37{fill:#FDEF6E;}
	.st38{fill:#1E845A;}
	.st39{fill:none;stroke:#A17644;stroke-width:2;stroke-miterlimit:10;}
	.st40{fill:#79E2BC;}
	.st41{fill:none;stroke:#A17644;stroke-width:3;stroke-miterlimit:10;}
	.st42{fill:none;stroke:#A17644;stroke-width:4;stroke-miterlimit:10;}
	.st43{fill:none;stroke:#A17644;stroke-width:3.4344;stroke-miterlimit:10;}
	.st44{fill:#808184;}
	.st45{fill:#BC4D65;}
	.st46{fill:#933850;}
	.st47{fill:none;stroke:#79E2BC;stroke-miterlimit:10;}
	.st48{opacity:0.2;}
	.st49{fill:#47B58D;}
	.st50{fill:none;stroke:#FFFFFF;stroke-width:8;stroke-linecap:round;stroke-miterlimit:10;}
	.st51{fill:none;stroke:#FFFFFF;stroke-width:2;stroke-miterlimit:10;}
	.st52{opacity:0.5;}
	.st53{fill:#CDE8DE;}
	.st54{clip-path:url(#SVGID_5_);}
	.st55{fill:#F6899C;}
	.st56{fill:#F66981;}
	.st57{fill:#FFFFFF;stroke:#F46B83;stroke-width:6;stroke-miterlimit:10;}
	.st58{clip-path:url(#SVGID_7_);fill:#47B58D;}
	.st59{clip-path:url(#SVGID_7_);}
	.st60{fill:none;stroke:#A17644;stroke-width:1.572;stroke-miterlimit:10;}
	.st61{clip-path:url(#SVGID_7_);fill:none;stroke:#79E2BC;stroke-width:2;stroke-miterlimit:10;}
	.st62{clip-path:url(#SVGID_7_);fill:#1E845A;}
	.st63{fill:none;stroke:#A17644;stroke-width:1.828;stroke-miterlimit:10;}
	.st64{fill:none;stroke:#A17644;stroke-width:3.4825;stroke-miterlimit:10;}
	.st65{fill:none;stroke:#A17644;stroke-width:4.1651;stroke-miterlimit:10;}
	.st66{fill:none;stroke:#A17644;stroke-width:2.8014;stroke-miterlimit:10;}
	.st67{fill:#37CF9D;}
	.st68{clip-path:url(#SVGID_9_);}
	.st69{fill:#ABE6CF;}
	.st70{display:none;}
</style>
<g id="Layer_1">
	<g>
		<defs>
			<rect id="SVGID_6_" x="0" y="0" width="640" height="1136.5"/>
		</defs>
		<clipPath id="SVGID_1_">
			<use xlink:href="#SVGID_6_"  style="overflow:visible;"/>
		</clipPath>
		<rect x="0" y="0" style="clip-path:url(#SVGID_1_);fill:#47B58D;" width="640" height="1136.5"/>
		<g style="clip-path:url(#SVGID_1_);">
			<rect x="12.7" y="268.1" class="st38" width="29.2" height="4.7"/>
			<path class="st38" d="M27.9,270.5c0,1.3-12.7,2.4-15.6,2.4S7,271.8,7,270.5c0-1.3,2.4-2.4,5.3-2.4S27.9,269.2,27.9,270.5z"/>
		</g>
		<g style="clip-path:url(#SVGID_1_);">
			<g>
				<rect x="566.6" y="178.3" class="st38" width="15.1" height="2.7"/>
				<path class="st38" d="M574.5,179.6c0,0.8-6.6,1.4-8.1,1.4c-1.5,0-2.7-0.6-2.7-1.4s1.2-1.4,2.7-1.4
					C567.9,178.3,574.5,178.9,574.5,179.6z"/>
			</g>
			<g>
				<line class="st60" x1="581.8" y1="151" x2="581.8" y2="181"/>
				<path class="st10" d="M581.8,161c0,0-10.5,0.1-10.5-12.6c0-10.3,10.5-33.4,10.5-33.4s10.5,23.1,10.5,33.4
					C592.2,161.1,581.8,161,581.8,161z"/>
				<path class="st40" d="M581.8,115v46c0,0,10.5,0.1,10.5-12.6C592.2,138.2,581.8,115,581.8,115z"/>
			</g>
		</g>
		<g style="clip-path:url(#SVGID_1_);">
			<g>
				<rect x="62" y="162.1" class="st38" width="15.1" height="2.7"/>
				<path class="st38" d="M69.9,163.5c0,0.8-6.6,1.4-8.1,1.4s-2.7-0.6-2.7-1.4s1.2-1.4,2.7-1.4S69.9,162.7,69.9,163.5z"/>
			</g>
			<g>
				<line class="st60" x1="77.1" y1="134.9" x2="77.1" y2="164.9"/>
				<path class="st10" d="M77.1,144.9c0,0-10.5,0.1-10.5-12.6c0-10.3,10.5-33.4,10.5-33.4s10.5,23.1,10.5,33.4
					C87.6,145,77.1,144.9,77.1,144.9z"/>
				<path class="st40" d="M77.1,98.9v46c0,0,10.5,0.1,10.5-12.6C87.6,122,77.1,98.9,77.1,98.9z"/>
			</g>
		</g>
		<g style="clip-path:url(#SVGID_1_);">
			<g>
				<rect x="584.3" y="708.2" class="st38" width="15.1" height="2.7"/>
				<path class="st38" d="M592.2,709.6c0,0.8-6.6,1.4-8.1,1.4c-1.5,0-2.7-0.6-2.7-1.4c0-0.8,1.2-1.4,2.7-1.4
					C585.6,708.2,592.2,708.8,592.2,709.6z"/>
			</g>
			<g>
				<line class="st60" x1="599.4" y1="680.9" x2="599.4" y2="710.9"/>
				<path class="st10" d="M599.4,691c0,0-10.5,0.1-10.5-12.6c0-10.3,10.5-33.4,10.5-33.4s10.5,23.1,10.5,33.4
					C609.9,691.1,599.4,691,599.4,691z"/>
				<path class="st40" d="M599.4,645v46c0,0,10.5,0.1,10.5-12.6C609.9,668.1,599.4,645,599.4,645z"/>
			</g>
		</g>
		<g style="clip-path:url(#SVGID_1_);">
			<g>
				<rect x="40.2" y="385.5" class="st38" width="15.1" height="2.7"/>
				<path class="st38" d="M48.1,386.8c0,0.8-6.6,1.4-8.1,1.4s-2.7-0.6-2.7-1.4s1.2-1.4,2.7-1.4S48.1,386.1,48.1,386.8z"/>
			</g>
			<g>
				<line class="st60" x1="55.4" y1="358.2" x2="55.4" y2="388.2"/>
				<path class="st10" d="M55.4,368.2c0,0-10.5,0.1-10.5-12.6c0-10.3,10.5-33.4,10.5-33.4s10.5,23.1,10.5,33.4
					C65.8,368.3,55.4,368.2,55.4,368.2z"/>
				<path class="st40" d="M55.4,322.2v46c0,0,10.5,0.1,10.5-12.6C65.8,345.4,55.4,322.2,55.4,322.2z"/>
			</g>
		</g>
		<path style="clip-path:url(#SVGID_1_);fill:none;stroke:#79E2BC;stroke-width:2;stroke-miterlimit:10;" d="M599.5,809.3l0-1.6
			c0-6-4.9-10.8-10.8-10.8c-6,0-10.8,4.9-10.8,10.8c0-6-4.9-10.8-10.8-10.8c-6,0-10.8,4.9-10.8,10.8c0-6-4.9-10.8-10.8-10.8
			c-6,0-10.8,4.9-10.8,10.8l0,1.6"/>
		<g style="clip-path:url(#SVGID_1_);">
			<rect x="583" y="316.6" class="st38" width="40.5" height="3.3"/>
			<path class="st38" d="M604.1,318.2c0,0.9-17.6,1.7-21.6,1.7s-7.3-0.7-7.3-1.7c0-0.9,3.3-1.7,7.3-1.7S604.1,317.3,604.1,318.2z"/>
		</g>
		<rect x="-4.1" y="934.1" style="clip-path:url(#SVGID_1_);fill:#1E845A;" width="25" height="2"/>
		<path style="clip-path:url(#SVGID_1_);fill:#1E845A;" d="M8.9,935.1c0,0.6-10.9,1-13.4,1s-4.5-0.5-4.5-1c0-0.6,2-1,4.5-1
			S8.9,934.5,8.9,935.1z"/>
		<g style="clip-path:url(#SVGID_1_);">
			<g>
				<line class="st63" x1="596.1" y1="980.2" x2="596.1" y2="1015.1"/>
				<path class="st10" d="M596.1,991.8c0,0-12.2,0.1-12.2-14.6c0-11.9,12.2-38.8,12.2-38.8s12.2,26.9,12.2,38.8
					C608.3,991.9,596.1,991.8,596.1,991.8z"/>
				<path class="st40" d="M596.1,938.4v53.5c0,0,12.2,0.1,12.2-14.6C608.3,965.3,596.1,938.4,596.1,938.4z"/>
			</g>
			<rect x="575.9" y="1012.1" class="st38" width="21.1" height="3"/>
			<path class="st38" d="M586.9,1013.6c0,0.8-9.2,1.5-11.3,1.5c-2.1,0-3.8-0.7-3.8-1.5s1.7-1.5,3.8-1.5
				C577.7,1012.1,586.9,1012.8,586.9,1013.6z"/>
		</g>
		<g style="clip-path:url(#SVGID_1_);">
			<line class="st64" x1="19.2" y1="869.7" x2="19.2" y2="936.1"/>
			<path class="st10" d="M19.2,891.9c0,0-23.2,0.2-23.2-27.9c0-22.7,23.2-74,23.2-74s23.2,51.3,23.2,74
				C42.4,892.1,19.2,891.9,19.2,891.9z"/>
			<path class="st40" d="M19.2,790v101.9c0,0,23.2,0.2,23.2-27.9C42.4,841.3,19.2,790,19.2,790z"/>
		</g>
		<rect x="34.5" y="975.3" style="clip-path:url(#SVGID_1_);fill:#1E845A;" width="18.1" height="2.6"/>
		<path style="clip-path:url(#SVGID_1_);fill:#1E845A;" d="M43.9,976.7c0,0.7-7.9,1.3-9.7,1.3c-1.8,0-3.3-0.6-3.3-1.3
			s1.5-1.3,3.3-1.3C36,975.3,43.9,975.9,43.9,976.7z"/>
		<g style="clip-path:url(#SVGID_1_);">
			<line class="st60" x1="51.8" y1="947.9" x2="51.8" y2="977.9"/>
			<path class="st10" d="M51.8,957.9c0,0-10.5,0.1-10.5-12.6c0-10.3,10.5-33.4,10.5-33.4s10.5,23.1,10.5,33.4
				C62.3,958,51.8,957.9,51.8,957.9z"/>
			<path class="st40" d="M51.8,911.9v46c0,0,10.5,0.1,10.5-12.6C62.3,935.1,51.8,911.9,51.8,911.9z"/>
		</g>
		<g style="clip-path:url(#SVGID_1_);">
			<line class="st65" x1="624.4" y1="240.4" x2="624.4" y2="319.9"/>
			<path class="st10" d="M624.4,267c0,0-27.7,0.3-27.7-33.3c0-27.2,27.7-88.5,27.7-88.5s27.7,61.3,27.7,88.5
				C652.1,267.2,624.4,267,624.4,267z"/>
			<path class="st40" d="M624.4,145.1V267c0,0,27.7,0.3,27.7-33.3C652.1,206.5,624.4,145.1,624.4,145.1z"/>
		</g>
		<g style="clip-path:url(#SVGID_1_);">
			<line class="st66" x1="41.6" y1="219.4" x2="41.6" y2="272.9"/>
			<path class="st10" d="M41.6,237.3c0,0-18.6,0.2-18.6-22.4c0-18.3,18.6-59.5,18.6-59.5s18.6,41.2,18.6,59.5
				C60.3,237.4,41.6,237.3,41.6,237.3z"/>
			<path class="st40" d="M41.6,155.3v81.9c0,0,18.6,0.2,18.6-22.4C60.3,196.6,41.6,155.3,41.6,155.3z"/>
		</g>
		<path style="clip-path:url(#SVGID_1_);fill:none;stroke:#79E2BC;stroke-width:2;stroke-miterlimit:10;" d="M60.8,516.2
			c0-6.3-5.1-11.4-11.4-11.4c-6.3,0-11.4,5.1-11.4,11.4l0,1.7"/>
		<path style="clip-path:url(#SVGID_1_);fill:none;stroke:#79E2BC;stroke-width:2;stroke-miterlimit:10;" d="M40.9,525.2
			c0-6.3-5.1-11.4-11.4-11.4s-11.4,5.1-11.4,11.4l0,1.7"/>
	</g>
	<g>
		<path class="st33" d="M319.8,166.9"/>
	</g>
	<g>
		<path class="st33" d="M352.9,531.3"/>
	</g>
</g>
<g id="grid" class="st70">
</g>
</svg>
