<?xml version="1.0" encoding="utf-8"?>
<!-- Generator: Adobe Illustrator 18.1.1, SVG Export Plug-In . SVG Version: 6.00 Build 0)  -->
<svg version="1.1" xmlns="http://www.w3.org/2000/svg" xmlns:xlink="http://www.w3.org/1999/xlink" x="0px" y="0px"
	 viewBox="0 0 640 1136" style="enable-background:new 0 0 640 1136;" xml:space="preserve">
<style type="text/css">
	.st0{fill:#3B8C6B;}
	.st1{fill:#FFFFFF;}
	.st2{fill:url(#SVGID_1_);}
	.st3{opacity:0.3;}
	.st4{fill-rule:evenodd;clip-rule:evenodd;fill:#F46B83;}
	.st5{fill:#58BD98;}
	.st6{fill:#EFEFEF;}
	.st7{fill:none;stroke:#E0E1E2;stroke-width:11;stroke-miterlimit:10;}
	.st8{opacity:0.3;fill-rule:evenodd;clip-rule:evenodd;fill:#F56980;}
	.st9{fill:#F56980;}
	.st10{fill:#2AD19D;}
	.st11{fill-rule:evenodd;clip-rule:evenodd;fill:#FFFFFF;}
	.st12{fill:#F36D85;}
	.st13{fill:#E0E1E2;}
	.st14{fill:#F46B83;}
	.st15{fill:none;stroke:#F46B83;stroke-width:8;stroke-miterlimit:10;}
	.st16{opacity:0.3;fill:#2AD19D;}
	.st17{fill:#89D7E6;}
	.st18{clip-path:url(#SVGID_3_);}
	.st19{fill-rule:evenodd;clip-rule:evenodd;fill:#F56980;}
	.st20{opacity:0.3;fill:#F36D85;}
	.st21{opacity:0.3;fill:#F46B83;}
	.st22{fill:#24A45A;}
	.st23{fill:#3A5D87;}
	.st24{fill:#527EBB;}
	.st25{fill:#D82908;}
	.st26{fill:#E85749;}
	.st27{fill:#BCF7F7;}
	.st28{fill:#929496;}
	.st29{fill:none;stroke:#CDEBE0;stroke-width:5;stroke-linecap:round;stroke-miterlimit:10;}
	.st30{fill:#1A9169;}
	.st31{fill:none;stroke:#F7ADC1;stroke-width:12;stroke-miterlimit:10;}
	.st32{fill:none;stroke:#2AD19D;stroke-width:12;stroke-miterlimit:10;}
	.st33{fill:none;}
	.st34{fill:#BDF3F4;}
	.st35{fill:#34B188;}
	.st36{fill:#FDE49C;}
	.st37{fill:#FDEF6E;}
	.st38{fill:#1E845A;}
	.st39{fill:none;stroke:#A17644;stroke-width:2;stroke-miterlimit:10;}
	.st40{fill:#79E2BC;}
	.st41{fill:none;stroke:#A17644;stroke-width:3;stroke-miterlimit:10;}
	.st42{fill:none;stroke:#A17644;stroke-width:4;stroke-miterlimit:10;}
	.st43{fill:none;stroke:#A17644;stroke-width:3.4344;stroke-miterlimit:10;}
	.st44{fill:#808184;}
	.st45{fill:#BC4D65;}
	.st46{fill:#933850;}
	.st47{fill:none;stroke:#79E2BC;stroke-miterlimit:10;}
	.st48{opacity:0.2;}
	.st49{fill:#47B58D;}
	.st50{fill:none;stroke:#FFFFFF;stroke-width:8;stroke-linecap:round;stroke-miterlimit:10;}
	.st51{fill:none;stroke:#FFFFFF;stroke-width:2;stroke-miterlimit:10;}
	.st52{opacity:0.5;}
	.st53{fill:#CDE8DE;}
	.st54{clip-path:url(#SVGID_5_);}
	.st55{fill:#F6899C;}
	.st56{fill:#F66981;}
	.st57{fill:#FFFFFF;stroke:#F46B83;stroke-width:6;stroke-miterlimit:10;}
	.st58{clip-path:url(#SVGID_7_);fill:#47B58D;}
	.st59{clip-path:url(#SVGID_7_);}
	.st60{fill:none;stroke:#A17644;stroke-width:1.572;stroke-miterlimit:10;}
	.st61{clip-path:url(#SVGID_7_);fill:none;stroke:#79E2BC;stroke-width:2;stroke-miterlimit:10;}
	.st62{clip-path:url(#SVGID_7_);fill:#1E845A;}
	.st63{fill:none;stroke:#A17644;stroke-width:1.828;stroke-miterlimit:10;}
	.st64{fill:none;stroke:#A17644;stroke-width:3.4825;stroke-miterlimit:10;}
	.st65{fill:none;stroke:#A17644;stroke-width:4.1651;stroke-miterlimit:10;}
	.st66{fill:none;stroke:#A17644;stroke-width:2.8014;stroke-miterlimit:10;}
	.st67{fill:#37CF9D;}
	.st68{clip-path:url(#SVGID_9_);}
	.st69{fill:#ABE6CF;}
	.st70{display:none;}
</style>
<g id="Layer_1">
	<path class="st0" d="M297.4,782H67.9c-7.6-0.1-13.9-7.3-15.3-14.4l2.6-76.8c0-6.6,6.3-12,12.9-12h230.2c6.6,0,11.1,5.4,11.1,12V770
		C309.4,776.6,304,782,297.4,782z"/>
	<polygon class="st0" points="100.7,963.7 92.7,956.7 535.8,170.3 542.8,177.3 	"/>
	<g>
		<rect x="100.7" y="177.3" class="st0" width="442.1" height="786.4"/>
	</g>
	<g>
		<path class="st1" d="M273,80.2v-3h7.3l0.2,2.4c0.6-0.9,1.3-1.6,2.2-2.1c0.9-0.5,1.9-0.7,3.1-0.7c1.2,0,2.2,0.3,3,0.8
			c0.8,0.5,1.5,1.3,1.9,2.4c0.6-1,1.3-1.8,2.2-2.3c0.9-0.6,2-0.8,3.2-0.8c1.8,0,3.3,0.6,4.3,1.9c1.1,1.3,1.6,3.2,1.6,5.8v7.7
			l2.4,0.5v3h-9.6v-3l2.2-0.5v-7.7c0-1.4-0.2-2.4-0.7-2.9c-0.5-0.5-1.1-0.8-2-0.8c-0.7,0-1.3,0.2-1.8,0.5c-0.5,0.3-0.9,0.7-1.2,1.3
			c0,0.2,0,0.4,0,0.6c0,0.2,0,0.3,0,0.5v8.6l2,0.5v3h-9v-3l2-0.5v-7.7c0-1.4-0.2-2.3-0.7-2.9c-0.5-0.6-1.1-0.8-2.1-0.8
			c-0.7,0-1.3,0.1-1.8,0.4c-0.5,0.3-0.9,0.6-1.3,1.1v10l2.2,0.5v3h-9.5v-3l2.4-0.5V80.7L273,80.2z"/>
		<path class="st1" d="M314.8,96c-2.7,0-4.8-0.9-6.4-2.6c-1.6-1.7-2.4-3.9-2.4-6.5v-0.7c0-2.7,0.8-5,2.3-6.8s3.5-2.7,6.1-2.6
			c2.5,0,4.4,0.8,5.8,2.3c1.4,1.5,2.1,3.5,2.1,6.1v2.7h-11l0,0.1c0.1,1.2,0.5,2.2,1.2,3s1.7,1.2,2.9,1.2c1.1,0,2-0.1,2.8-0.3
			c0.7-0.2,1.5-0.6,2.4-1.1l1.3,3.1c-0.8,0.6-1.8,1.1-3,1.5C317.6,95.8,316.3,96,314.8,96z M314.3,80.7c-0.9,0-1.7,0.4-2.2,1.1
			c-0.5,0.7-0.9,1.6-1,2.8l0.1,0.1h6.1v-0.4c0-1.1-0.2-1.9-0.7-2.5C316.1,81,315.3,80.7,314.3,80.7z"/>
		<path class="st1" d="M324.3,92.7l2.4-0.5V80.7l-2.6-0.5v-3h7.3l0.2,2.6c0.6-0.9,1.4-1.7,2.3-2.2c0.9-0.5,1.9-0.8,3-0.8
			c1.9,0,3.3,0.6,4.4,1.8c1,1.2,1.6,3,1.6,5.5v8l2.4,0.5v3h-9.5v-3l2.1-0.5v-8c0-1.2-0.3-2.1-0.8-2.6c-0.5-0.5-1.3-0.8-2.3-0.8
			c-0.7,0-1.3,0.1-1.8,0.4c-0.5,0.3-1,0.6-1.3,1.1v9.9l2,0.5v3h-9.4V92.7z"/>
		<path class="st1" d="M359.7,93.3c-0.6,0.9-1.3,1.5-2.2,2c-0.9,0.5-1.9,0.7-3,0.7c-1.9,0-3.5-0.6-4.6-1.9c-1.1-1.2-1.7-3.2-1.7-5.8
			v-7.6l-2-0.5v-3h2h5v11.2c0,1.3,0.2,2.3,0.7,2.9s1.1,0.9,2,0.9c0.8,0,1.5-0.1,2-0.4c0.6-0.3,1-0.6,1.4-1.1v-10l-2.2-0.5v-3h2.2h5
			v15l2.2,0.5v3H360L359.7,93.3z"/>
		<path class="st1" d="M224.2,127.6v-11.5h-2.1v-1.7h2.1v-1.4c0-1.4,0.4-2.5,1.1-3.3s1.8-1.2,3.2-1.2c0.5,0,1,0.1,1.5,0.2l-0.1,1.8
			c-0.4-0.1-0.8-0.1-1.2-0.1c-0.7,0-1.3,0.2-1.7,0.6c-0.4,0.4-0.6,1-0.6,1.8v1.4h2.8v1.7h-2.8v11.5H224.2z"/>
		<path class="st1" d="M241.4,127.6c-0.1-0.3-0.2-0.7-0.3-1.4c-1,1.1-2.3,1.6-3.8,1.6c-1.3,0-2.4-0.4-3.2-1.1
			c-0.8-0.7-1.3-1.7-1.3-2.8c0-1.4,0.5-2.4,1.6-3.2c1-0.8,2.5-1.1,4.4-1.1h2.2v-1c0-0.8-0.2-1.4-0.7-1.9c-0.5-0.5-1.2-0.7-2.1-0.7
			c-0.8,0-1.5,0.2-2,0.6c-0.5,0.4-0.8,0.9-0.8,1.5h-2.3c0-0.7,0.2-1.3,0.7-1.9s1.1-1.1,1.9-1.5s1.7-0.5,2.6-0.5
			c1.5,0,2.7,0.4,3.6,1.1s1.3,1.8,1.3,3.1v6.1c0,1.2,0.2,2.2,0.5,2.9v0.2H241.4z M237.7,125.9c0.7,0,1.4-0.2,2-0.5s1.1-0.8,1.4-1.4
			v-2.7h-1.8c-2.8,0-4.2,0.8-4.2,2.4c0,0.7,0.2,1.3,0.7,1.7S236.9,125.9,237.7,125.9z"/>
		<path class="st1" d="M252.5,124.6l3.3-10.1h2.3l-4.7,13.2h-1.7l-4.8-13.2h2.3L252.5,124.6z"/>
		<path class="st1" d="M261,120.9c0-1.3,0.3-2.5,0.8-3.5c0.5-1,1.2-1.8,2.1-2.4c0.9-0.6,1.9-0.8,3.1-0.8c1.8,0,3.3,0.6,4.4,1.9
			c1.1,1.2,1.7,2.9,1.7,5v0.2c0,1.3-0.2,2.4-0.7,3.5c-0.5,1-1.2,1.8-2.1,2.4c-0.9,0.6-2,0.9-3.2,0.9c-1.8,0-3.2-0.6-4.4-1.9
			c-1.1-1.2-1.7-2.9-1.7-4.9V120.9z M263.3,121.2c0,1.5,0.3,2.6,1,3.5s1.6,1.3,2.7,1.3c1.1,0,2.1-0.4,2.7-1.3c0.7-0.9,1-2.2,1-3.8
			c0-1.4-0.3-2.6-1-3.5c-0.7-0.9-1.6-1.3-2.7-1.3c-1.1,0-2,0.4-2.7,1.3C263.6,118.3,263.3,119.5,263.3,121.2z"/>
		<path class="st1" d="M285.5,126.3c-0.9,1-2.2,1.6-3.9,1.6c-1.4,0-2.5-0.4-3.2-1.2c-0.7-0.8-1.1-2-1.1-3.6v-8.6h2.3v8.5
			c0,2,0.8,3,2.4,3c1.7,0,2.9-0.6,3.4-1.9v-9.6h2.3v13.2h-2.1L285.5,126.3z"/>
		<path class="st1" d="M299,116.5c-0.3-0.1-0.7-0.1-1.1-0.1c-1.5,0-2.5,0.6-3,1.9v9.4h-2.3v-13.2h2.2l0,1.5c0.7-1.2,1.8-1.8,3.1-1.8
			c0.4,0,0.8,0.1,1,0.2V116.5z"/>
		<path class="st1" d="M302.6,110.9c0-0.4,0.1-0.7,0.3-0.9c0.2-0.3,0.6-0.4,1-0.4s0.8,0.1,1,0.4c0.2,0.3,0.3,0.6,0.3,0.9
			c0,0.4-0.1,0.7-0.3,0.9s-0.6,0.4-1,0.4s-0.8-0.1-1-0.4S302.6,111.3,302.6,110.9z M305.1,127.6h-2.3v-13.2h2.3V127.6z"/>
		<path class="st1" d="M313.2,111.2v3.2h2.5v1.7h-2.5v8.2c0,0.5,0.1,0.9,0.3,1.2s0.6,0.4,1.1,0.4c0.3,0,0.6,0,1.1-0.1v1.8
			c-0.6,0.2-1.2,0.2-1.7,0.2c-1,0-1.8-0.3-2.3-0.9c-0.5-0.6-0.8-1.5-0.8-2.6v-8.2h-2.4v-1.7h2.4v-3.2H313.2z"/>
		<path class="st1" d="M325.3,127.9c-1.8,0-3.2-0.6-4.4-1.8s-1.7-2.7-1.7-4.7V121c0-1.3,0.3-2.5,0.8-3.5c0.5-1,1.2-1.8,2.1-2.4
			s1.9-0.9,2.9-0.9c1.7,0,3.1,0.6,4,1.7c1,1.1,1.4,2.8,1.4,4.9v0.9h-8.9c0,1.3,0.4,2.4,1.1,3.2c0.7,0.8,1.7,1.2,2.8,1.2
			c0.8,0,1.5-0.2,2-0.5c0.6-0.3,1-0.8,1.5-1.3l1.4,1.1C329.2,127,327.5,127.9,325.3,127.9z M325,116.1c-0.9,0-1.7,0.3-2.3,1
			s-1,1.6-1.1,2.8h6.6v-0.2c-0.1-1.1-0.4-2-0.9-2.7S326,116.1,325,116.1z"/>
		<path class="st1" d="M348.7,116.5c-0.3-0.1-0.7-0.1-1.1-0.1c-1.5,0-2.5,0.6-3,1.9v9.4h-2.3v-13.2h2.2l0,1.5
			c0.7-1.2,1.8-1.8,3.1-1.8c0.4,0,0.8,0.1,1,0.2V116.5z"/>
		<path class="st1" d="M351.4,120.9c0-1.3,0.3-2.5,0.8-3.5c0.5-1,1.2-1.8,2.1-2.4c0.9-0.6,1.9-0.8,3.1-0.8c1.8,0,3.3,0.6,4.4,1.9
			c1.1,1.2,1.7,2.9,1.7,5v0.2c0,1.3-0.2,2.4-0.7,3.5c-0.5,1-1.2,1.8-2.1,2.4c-0.9,0.6-2,0.9-3.2,0.9c-1.8,0-3.2-0.6-4.4-1.9
			c-1.1-1.2-1.7-2.9-1.7-4.9V120.9z M353.7,121.2c0,1.5,0.3,2.6,1,3.5s1.6,1.3,2.7,1.3c1.1,0,2.1-0.4,2.7-1.3c0.7-0.9,1-2.2,1-3.8
			c0-1.4-0.3-2.6-1-3.5c-0.7-0.9-1.6-1.3-2.7-1.3c-1.1,0-2,0.4-2.7,1.3C354,118.3,353.7,119.5,353.7,121.2z"/>
		<path class="st1" d="M375.9,126.3c-0.9,1-2.2,1.6-3.9,1.6c-1.4,0-2.5-0.4-3.2-1.2c-0.7-0.8-1.1-2-1.1-3.6v-8.6h2.3v8.5
			c0,2,0.8,3,2.4,3c1.7,0,2.9-0.6,3.4-1.9v-9.6h2.3v13.2h-2.1L375.9,126.3z"/>
		<path class="st1" d="M386.1,111.2v3.2h2.5v1.7h-2.5v8.2c0,0.5,0.1,0.9,0.3,1.2s0.6,0.4,1.1,0.4c0.3,0,0.6,0,1.1-0.1v1.8
			c-0.6,0.2-1.2,0.2-1.7,0.2c-1,0-1.8-0.3-2.3-0.9c-0.5-0.6-0.8-1.5-0.8-2.6v-8.2h-2.4v-1.7h2.4v-3.2H386.1z"/>
		<path class="st1" d="M398.2,127.9c-1.8,0-3.2-0.6-4.4-1.8s-1.7-2.7-1.7-4.7V121c0-1.3,0.3-2.5,0.8-3.5c0.5-1,1.2-1.8,2.1-2.4
			s1.9-0.9,2.9-0.9c1.7,0,3.1,0.6,4,1.7c1,1.1,1.4,2.8,1.4,4.9v0.9h-8.9c0,1.3,0.4,2.4,1.1,3.2c0.7,0.8,1.7,1.2,2.8,1.2
			c0.8,0,1.5-0.2,2-0.5c0.6-0.3,1-0.8,1.5-1.3l1.4,1.1C402,127,400.4,127.9,398.2,127.9z M397.9,116.1c-0.9,0-1.7,0.3-2.3,1
			s-1,1.6-1.1,2.8h6.6v-0.2c-0.1-1.1-0.4-2-0.9-2.7S398.8,116.1,397.9,116.1z"/>
		<path class="st1" d="M415.1,124.1c0-0.6-0.2-1.1-0.7-1.4c-0.5-0.3-1.3-0.6-2.4-0.9s-2.1-0.5-2.7-0.9c-0.7-0.3-1.2-0.7-1.5-1.2
			c-0.3-0.5-0.5-1-0.5-1.7c0-1.1,0.5-2,1.4-2.7c0.9-0.7,2.1-1.1,3.5-1.1c1.5,0,2.7,0.4,3.6,1.2c0.9,0.8,1.4,1.8,1.4,3H415
			c0-0.6-0.3-1.2-0.8-1.6c-0.5-0.4-1.2-0.7-2-0.7c-0.8,0-1.5,0.2-1.9,0.5s-0.7,0.8-0.7,1.4c0,0.5,0.2,1,0.6,1.2s1.2,0.5,2.3,0.8
			c1.1,0.3,2,0.6,2.7,0.9c0.7,0.4,1.2,0.8,1.6,1.3c0.3,0.5,0.5,1.1,0.5,1.8c0,1.2-0.5,2.1-1.4,2.8c-0.9,0.7-2.2,1.1-3.7,1.1
			c-1.1,0-2-0.2-2.8-0.6s-1.5-0.9-1.9-1.6c-0.5-0.7-0.7-1.4-0.7-2.2h2.3c0,0.8,0.3,1.4,0.9,1.8c0.6,0.4,1.3,0.7,2.2,0.7
			c0.9,0,1.5-0.2,2.1-0.5C414.9,125.2,415.1,124.7,415.1,124.1z"/>
	</g>
	<g>
		<rect x="93.5" y="170.3" class="st1" width="443.1" height="786.4"/>
	</g>
	<rect x="274.3" y="588.2" class="st17" width="152.5" height="154.6"/>
	<g>
		<rect x="93.5" y="170.3" class="st1" width="443.1" height="786.4"/>
	</g>
	<g>
		<defs>
			<rect id="SVGID_2_" x="93.5" y="170.3" width="443.1" height="786.4"/>
		</defs>
		<clipPath id="SVGID_1_">
			<use xlink:href="#SVGID_2_"  style="overflow:visible;"/>
		</clipPath>
		<g style="clip-path:url(#SVGID_1_);">
			<rect x="-275" y="176.6" class="st6" width="443.3" height="780.1"/>
			<g>
				<g>
					<line class="st7" x1="-205.8" y1="366.8" x2="168.3" y2="366.8"/>
					<line class="st7" x1="99.6" y1="366.8" x2="99.6" y2="254"/>
					<path class="st7" d="M38.1,366.8c0,0,0,288.5,0,317.1s18,56.8,49.5,56.8s80.5,0,80.5,0"/>
					<line class="st7" x1="168" y1="507.1" x2="-275" y2="507.1"/>
					<line class="st7" x1="168.3" y1="644.6" x2="-275" y2="644.6"/>
					<polyline class="st7" points="-275,809.6 -53.5,809.6 168.3,809.6 					"/>
					<line class="st7" x1="64.1" y1="809.6" x2="64.1" y2="956.7"/>
				</g>
			</g>
			<path class="st13" d="M-5.7,254L-5.7,254c0.2,1.8,0.3,3.7,0.3,5.5c0,8.1-2,15.7-5.5,22.3v85h11V254H-5.7z"/>
			<path class="st1" d="M168.1,170.3h-443.3V254h173.9c2.7-24,23.1-42.6,47.8-42.6S-8.5,230-5.7,254h173.9V170.3z"/>
			<path class="st19" d="M114.7,211h34.7c1.7,0,3.1-1.4,3.1-3.1c0-1.7-1.4-3.1-3.1-3.1h-34.7c-1.7,0-3.1,1.4-3.1,3.1
				C111.6,209.7,113,211,114.7,211z M149.4,229.4h-34.7c-1.7,0-3.1,1.4-3.1,3.1c0,1.7,1.4,3.1,3.1,3.1h34.7c1.7,0,3.1-1.4,3.1-3.1
				C152.5,230.8,151.1,229.4,149.4,229.4z M149.4,217.2h-34.7c-1.7,0-3.1,1.4-3.1,3.1c0,1.7,1.4,3.1,3.1,3.1h34.7
				c1.7,0,3.1-1.4,3.1-3.1C152.5,218.5,151.1,217.2,149.4,217.2z"/>
		</g>
	</g>
	<path class="st20" d="M258.8,760.8h-6.8v6.9h-1.2V753h9.1v1h-7.8v5.7h6.8V760.8z"/>
	<path class="st20" d="M268.7,763.6H262l-1.5,4.1h-1.3l5.5-14.7h1.2l5.5,14.7h-1.3L268.7,763.6z M262.4,762.5h5.9l-2.9-8
		L262.4,762.5z"/>
	<path class="st20" d="M284.5,761.1c0,1.4-0.2,2.6-0.7,3.6c-0.5,1-1.2,1.8-2.1,2.3l2.7,2.3l-0.9,0.8l-3-2.6
		c-0.6,0.2-1.1,0.2-1.7,0.2c-1.1,0-2.1-0.3-3-0.8c-0.9-0.6-1.5-1.3-2-2.3c-0.5-1-0.7-2.2-0.7-3.5v-1.6c0-1.3,0.2-2.5,0.7-3.5
		c0.5-1,1.1-1.8,2-2.4c0.9-0.6,1.9-0.8,3-0.8c1.1,0,2.1,0.3,3,0.8c0.9,0.6,1.5,1.3,2,2.4c0.5,1,0.7,2.2,0.7,3.6V761.1z M283.3,759.5
		c0-1.8-0.4-3.1-1.2-4.1c-0.8-1-1.9-1.5-3.3-1.5c-1.4,0-2.4,0.5-3.2,1.5c-0.8,1-1.2,2.4-1.2,4.2v1.5c0,1.7,0.4,3.1,1.2,4.1
		c0.8,1,1.9,1.5,3.3,1.5c1.4,0,2.5-0.5,3.3-1.5c0.8-1,1.2-2.4,1.2-4.2V759.5z"/>
	<path class="st20" d="M294.1,764.9c0-0.6-0.2-1.1-0.7-1.4c-0.5-0.4-1.2-0.6-2.2-0.9c-1-0.2-1.7-0.4-2.2-0.7c-0.5-0.3-0.9-0.6-1.2-1
		c-0.3-0.4-0.4-0.8-0.4-1.4c0-0.9,0.4-1.6,1.1-2.1c0.7-0.6,1.6-0.8,2.8-0.8c1.2,0,2.2,0.3,2.9,0.9c0.7,0.6,1.1,1.4,1.1,2.3h-1.2
		c0-0.6-0.3-1.2-0.8-1.6c-0.5-0.4-1.2-0.6-2-0.6c-0.8,0-1.4,0.2-1.9,0.5c-0.5,0.4-0.7,0.8-0.7,1.4c0,0.5,0.2,1,0.6,1.3
		c0.4,0.3,1.1,0.6,2.2,0.8c1.1,0.2,1.8,0.5,2.4,0.8c0.5,0.3,0.9,0.6,1.2,1c0.3,0.4,0.4,0.9,0.4,1.4c0,0.9-0.4,1.7-1.1,2.2
		c-0.7,0.6-1.7,0.8-2.9,0.8c-1.3,0-2.3-0.3-3.1-0.9c-0.8-0.6-1.2-1.4-1.2-2.3h1.2c0,0.7,0.3,1.3,0.9,1.6c0.5,0.4,1.3,0.6,2.2,0.6
		c0.8,0,1.5-0.2,2-0.6S294.1,765.5,294.1,764.9z"/>
	<path class="st20" d="M257.3,815.8c-0.1-0.3-0.2-0.8-0.2-1.5c-0.4,0.6-1,1-1.6,1.3c-0.7,0.3-1.3,0.4-2.1,0.4c-1,0-1.9-0.3-2.5-0.9
		c-0.6-0.6-1-1.3-1-2.2c0-1.1,0.4-1.9,1.3-2.5c0.9-0.6,2.1-0.9,3.7-0.9h2.2v-1.2c0-0.8-0.2-1.4-0.7-1.8s-1.2-0.7-2.1-0.7
		c-0.8,0-1.5,0.2-2.1,0.6s-0.8,0.9-0.8,1.5l-1.2,0c0-0.9,0.4-1.6,1.2-2.2c0.8-0.6,1.8-1,3-1c1.2,0,2.2,0.3,2.9,0.9s1.1,1.5,1.1,2.5
		v5.2c0,1.1,0.1,1.8,0.3,2.4v0.1H257.3z M253.5,814.9c0.8,0,1.5-0.2,2.2-0.6c0.6-0.4,1.1-0.9,1.4-1.6v-2.4h-2.2
		c-1.2,0-2.1,0.2-2.8,0.7c-0.7,0.4-1,1-1,1.8c0,0.6,0.2,1.1,0.7,1.5C252.2,814.7,252.8,814.9,253.5,814.9z"/>
	<path class="st20" d="M270.4,810.4c0,1.7-0.4,3-1.1,4c-0.8,1-1.8,1.5-3,1.5c-1.5,0-2.7-0.6-3.4-1.7l-0.1,1.5h-1.1v-15.5h1.2v6.1
		c0.8-1.2,1.9-1.8,3.4-1.8c1.3,0,2.3,0.5,3.1,1.5c0.7,1,1.1,2.4,1.1,4.1V810.4z M269.2,810.2c0-1.4-0.3-2.5-0.8-3.3
		s-1.3-1.2-2.4-1.2c-0.8,0-1.4,0.2-2,0.6c-0.5,0.4-0.9,0.9-1.2,1.7v4.9c0.6,1.4,1.7,2.1,3.2,2.1c1,0,1.8-0.4,2.3-1.2
		S269.2,811.8,269.2,810.2z"/>
	<path class="st20" d="M272.6,810.2c0-1,0.2-2,0.6-2.8c0.4-0.8,1-1.5,1.7-2c0.7-0.5,1.6-0.7,2.5-0.7c1.4,0,2.6,0.5,3.5,1.5
		c0.9,1,1.3,2.4,1.3,4v0.3c0,1.1-0.2,2-0.6,2.8c-0.4,0.8-1,1.5-1.7,1.9c-0.7,0.5-1.6,0.7-2.5,0.7c-1.4,0-2.6-0.5-3.5-1.5
		c-0.9-1-1.4-2.4-1.4-4V810.2z M273.8,810.5c0,1.3,0.3,2.4,1,3.2c0.7,0.8,1.6,1.3,2.7,1.3c1.1,0,2-0.4,2.6-1.3c0.7-0.8,1-1.9,1-3.3
		v-0.2c0-0.8-0.2-1.6-0.5-2.3s-0.7-1.2-1.3-1.6s-1.2-0.6-1.9-0.6c-1.1,0-1.9,0.4-2.6,1.3c-0.7,0.8-1,1.9-1,3.3V810.5z"/>
	<path class="st20" d="M292,814.4c-0.7,1.1-1.9,1.6-3.5,1.6c-1.2,0-2-0.3-2.6-1c-0.6-0.7-0.9-1.7-0.9-3v-7.1h1.2v6.9
		c0,2.1,0.8,3.1,2.5,3.1c1.7,0,2.8-0.7,3.3-2.2v-7.9h1.2v10.9H292L292,814.4z"/>
	<path class="st20" d="M298.4,802.1v2.8h2.3v1h-2.3v7.3c0,0.6,0.1,1.1,0.3,1.4c0.2,0.3,0.6,0.4,1.1,0.4c0.2,0,0.5,0,1-0.1l0.1,1
		c-0.3,0.1-0.7,0.2-1.3,0.2c-0.8,0-1.4-0.2-1.8-0.7c-0.4-0.5-0.6-1.2-0.6-2.1v-7.3h-2v-1h2v-2.8H298.4z"/>
	<path class="st20" d="M252.3,850.2v2.8h2.3v1h-2.3v7.3c0,0.6,0.1,1.1,0.3,1.4c0.2,0.3,0.6,0.4,1.1,0.4c0.2,0,0.5,0,1-0.1l0,1
		c-0.3,0.1-0.7,0.2-1.3,0.2c-0.8,0-1.4-0.2-1.8-0.7c-0.4-0.5-0.6-1.2-0.6-2.1V854h-2v-1h2v-2.8H252.3z"/>
	<path class="st20" d="M264.2,862.5c-0.7,1.1-1.9,1.6-3.5,1.6c-1.2,0-2-0.3-2.6-1c-0.6-0.7-0.9-1.7-0.9-3V853h1.2v6.9
		c0,2.1,0.8,3.1,2.5,3.1c1.7,0,2.8-0.7,3.3-2.2V853h1.2v10.9h-1.2L264.2,862.5z"/>
	<path class="st20" d="M270.6,850.2v2.8h2.3v1h-2.3v7.3c0,0.6,0.1,1.1,0.3,1.4c0.2,0.3,0.6,0.4,1.1,0.4c0.2,0,0.5,0,1-0.1l0.1,1
		c-0.3,0.1-0.7,0.2-1.3,0.2c-0.8,0-1.4-0.2-1.8-0.7c-0.4-0.5-0.6-1.2-0.6-2.1V854h-2v-1h2v-2.8H270.6z"/>
	<path class="st20" d="M274.7,858.2c0-1,0.2-2,0.6-2.8c0.4-0.8,1-1.5,1.7-2c0.7-0.5,1.6-0.7,2.5-0.7c1.4,0,2.6,0.5,3.5,1.5
		c0.9,1,1.3,2.4,1.3,4v0.3c0,1.1-0.2,2-0.6,2.8c-0.4,0.8-1,1.5-1.7,1.9c-0.7,0.5-1.6,0.7-2.5,0.7c-1.4,0-2.6-0.5-3.5-1.5
		c-0.9-1-1.4-2.4-1.4-4V858.2z M275.9,858.6c0,1.3,0.3,2.4,1,3.2c0.7,0.8,1.6,1.3,2.7,1.3c1.1,0,2-0.4,2.6-1.3c0.7-0.8,1-1.9,1-3.3
		v-0.2c0-0.8-0.2-1.6-0.5-2.3s-0.7-1.2-1.3-1.6c-0.6-0.4-1.2-0.6-1.9-0.6c-1.1,0-1.9,0.4-2.6,1.3c-0.7,0.8-1,1.9-1,3.3V858.6z"/>
	<path class="st20" d="M292.2,854c-0.3,0-0.5-0.1-0.8-0.1c-0.8,0-1.4,0.2-1.9,0.6c-0.5,0.4-0.9,1-1.1,1.8v7.5h-1.2V853h1.2l0,1.7
		c0.6-1.3,1.7-1.9,3.1-1.9c0.3,0,0.6,0,0.8,0.1L292.2,854z"/>
	<path class="st20" d="M294.2,849.8c0-0.2,0.1-0.4,0.2-0.6c0.1-0.2,0.3-0.2,0.6-0.2s0.5,0.1,0.6,0.2c0.2,0.2,0.2,0.3,0.2,0.6
		s-0.1,0.4-0.2,0.6c-0.2,0.2-0.4,0.2-0.6,0.2s-0.5-0.1-0.6-0.2C294.3,850.2,294.2,850,294.2,849.8z M295.6,863.9h-1.2V853h1.2V863.9
		z"/>
	<path class="st20" d="M306,863.9c-0.1-0.3-0.2-0.8-0.2-1.5c-0.4,0.6-1,1-1.6,1.3c-0.7,0.3-1.3,0.4-2.1,0.4c-1,0-1.9-0.3-2.5-0.9
		c-0.6-0.6-1-1.3-1-2.2c0-1.1,0.4-1.9,1.3-2.5c0.9-0.6,2.1-0.9,3.7-0.9h2.2v-1.2c0-0.8-0.2-1.4-0.7-1.8s-1.2-0.7-2.1-0.7
		c-0.8,0-1.5,0.2-2.1,0.6c-0.6,0.4-0.8,0.9-0.8,1.5l-1.2,0c0-0.9,0.4-1.6,1.2-2.2c0.8-0.6,1.8-1,3-1c1.2,0,2.2,0.3,2.9,0.9
		s1.1,1.5,1.1,2.5v5.2c0,1.1,0.1,1.8,0.3,2.4v0.1H306z M302.2,863c0.8,0,1.5-0.2,2.2-0.6c0.6-0.4,1.1-0.9,1.4-1.6v-2.4h-2.2
		c-1.2,0-2.1,0.2-2.8,0.7s-1,1-1,1.8c0,0.6,0.2,1.1,0.7,1.5C300.9,862.8,301.5,863,302.2,863z"/>
	<path class="st20" d="M311.7,863.9h-1.2v-15.5h1.2V863.9z"/>
	<path class="st20" d="M251.7,911.9h-1.2v-15.5h1.2V911.9z"/>
	<path class="st20" d="M254.6,906.3c0-1,0.2-2,0.6-2.8c0.4-0.8,1-1.5,1.7-2c0.7-0.5,1.6-0.7,2.5-0.7c1.4,0,2.6,0.5,3.5,1.5
		c0.9,1,1.3,2.4,1.3,4v0.3c0,1.1-0.2,2-0.6,2.8c-0.4,0.8-1,1.5-1.7,1.9s-1.6,0.7-2.5,0.7c-1.4,0-2.6-0.5-3.5-1.5
		c-0.9-1-1.4-2.4-1.4-4V906.3z M255.8,906.7c0,1.3,0.3,2.4,1,3.2c0.7,0.8,1.6,1.3,2.7,1.3c1.1,0,2-0.4,2.6-1.3c0.7-0.8,1-1.9,1-3.3
		v-0.2c0-0.8-0.2-1.6-0.5-2.3s-0.7-1.2-1.3-1.6c-0.6-0.4-1.2-0.6-1.9-0.6c-1.1,0-1.9,0.4-2.6,1.3c-0.7,0.8-1,1.9-1,3.3V906.7z"/>
	<path class="st20" d="M266.5,906.4c0-1.7,0.4-3.1,1.1-4.1c0.8-1,1.8-1.5,3.1-1.5c1.5,0,2.6,0.6,3.4,1.8l0.1-1.6h1.1v10.7
		c0,1.4-0.4,2.5-1.2,3.3c-0.8,0.8-1.8,1.2-3.2,1.2c-0.8,0-1.5-0.2-2.2-0.5c-0.7-0.3-1.2-0.8-1.6-1.4l0.7-0.7c0.9,1,1.9,1.6,3,1.6
		c1,0,1.8-0.3,2.4-0.9c0.6-0.6,0.9-1.4,0.9-2.5v-1.4c-0.8,1.1-1.9,1.6-3.4,1.6c-1.3,0-2.3-0.5-3-1.5c-0.8-1-1.1-2.4-1.1-4.1V906.4z
		 M267.7,906.6c0,1.4,0.3,2.5,0.8,3.3s1.3,1.2,2.4,1.2c1.5,0,2.5-0.7,3.1-2V904c-0.3-0.7-0.7-1.2-1.2-1.6c-0.5-0.4-1.2-0.5-1.9-0.5
		c-1,0-1.8,0.4-2.4,1.2S267.7,905.1,267.7,906.6z"/>
	<path class="st20" d="M277.9,906.3c0-1,0.2-2,0.6-2.8c0.4-0.8,1-1.5,1.7-2c0.7-0.5,1.6-0.7,2.5-0.7c1.4,0,2.6,0.5,3.5,1.5
		c0.9,1,1.3,2.4,1.3,4v0.3c0,1.1-0.2,2-0.6,2.8c-0.4,0.8-1,1.5-1.7,1.9s-1.6,0.7-2.5,0.7c-1.4,0-2.6-0.5-3.5-1.5
		c-0.9-1-1.4-2.4-1.4-4V906.3z M279.2,906.7c0,1.3,0.3,2.4,1,3.2c0.7,0.8,1.6,1.3,2.7,1.3c1.1,0,2-0.4,2.6-1.3c0.7-0.8,1-1.9,1-3.3
		v-0.2c0-0.8-0.2-1.6-0.5-2.3s-0.7-1.2-1.3-1.6c-0.6-0.4-1.2-0.6-1.9-0.6c-1.1,0-1.9,0.4-2.6,1.3c-0.7,0.8-1,1.9-1,3.3V906.7z"/>
	<path class="st20" d="M297.4,910.6c-0.7,1.1-1.9,1.6-3.5,1.6c-1.2,0-2-0.3-2.6-1c-0.6-0.7-0.9-1.7-0.9-3v-7.1h1.2v6.9
		c0,2.1,0.8,3.1,2.5,3.1c1.7,0,2.8-0.7,3.3-2.2v-7.9h1.2v10.9h-1.2L297.4,910.6z"/>
	<path class="st20" d="M303.8,898.3v2.8h2.3v1h-2.3v7.3c0,0.6,0.1,1.1,0.3,1.4c0.2,0.3,0.6,0.4,1.1,0.4c0.2,0,0.5,0,1-0.1l0,1
		c-0.3,0.1-0.7,0.2-1.3,0.2c-0.8,0-1.4-0.2-1.8-0.7c-0.4-0.5-0.6-1.2-0.6-2.1V902h-2v-1h2v-2.8H303.8z"/>
	<path class="st20" d="M302.6,451c-0.3-0.1-0.7-0.1-1.1-0.1c-1.4,0-2.4,0.6-2.9,1.8v9h-2.2v-12.7h2.1l0,1.5c0.7-1.1,1.7-1.7,3-1.7
		c0.4,0,0.7,0.1,1,0.2V451z"/>
	<path class="st20" d="M309.9,462c-1.7,0-3.1-0.6-4.2-1.7c-1.1-1.1-1.6-2.6-1.6-4.5v-0.4c0-1.3,0.2-2.4,0.7-3.4c0.5-1,1.2-1.8,2-2.3
		c0.9-0.6,1.8-0.8,2.8-0.8c1.7,0,2.9,0.5,3.9,1.6c0.9,1.1,1.4,2.6,1.4,4.7v0.9h-8.6c0,1.3,0.4,2.3,1.1,3c0.7,0.8,1.6,1.2,2.7,1.2
		c0.8,0,1.4-0.2,1.9-0.5c0.5-0.3,1-0.7,1.4-1.2l1.3,1C313.6,461.2,312,462,309.9,462z M309.7,450.6c-0.9,0-1.6,0.3-2.2,1
		c-0.6,0.6-1,1.5-1.1,2.7h6.4v-0.2c-0.1-1.1-0.4-2-0.9-2.6C311.3,450.9,310.6,450.6,309.7,450.6z"/>
	<path class="st20" d="M325,458.4c0-0.6-0.2-1-0.7-1.4c-0.4-0.3-1.2-0.6-2.3-0.8c-1.1-0.2-2-0.5-2.6-0.8c-0.6-0.3-1.1-0.7-1.4-1.2
		c-0.3-0.5-0.5-1-0.5-1.6c0-1,0.4-1.9,1.3-2.6c0.9-0.7,2-1.1,3.4-1.1c1.4,0,2.6,0.4,3.5,1.1c0.9,0.7,1.3,1.7,1.3,2.9h-2.2
		c0-0.6-0.3-1.1-0.8-1.5c-0.5-0.4-1.1-0.6-1.9-0.6c-0.8,0-1.4,0.2-1.9,0.5c-0.4,0.3-0.7,0.8-0.7,1.4c0,0.5,0.2,0.9,0.6,1.2
		c0.4,0.3,1.2,0.5,2.2,0.8c1.1,0.2,2,0.5,2.6,0.9c0.7,0.3,1.2,0.7,1.5,1.2c0.3,0.5,0.5,1.1,0.5,1.7c0,1.1-0.5,2-1.4,2.7
		c-0.9,0.7-2.1,1-3.5,1c-1,0-1.9-0.2-2.7-0.5c-0.8-0.4-1.4-0.9-1.8-1.5c-0.4-0.6-0.7-1.3-0.7-2.1h2.2c0,0.7,0.3,1.3,0.9,1.7
		c0.5,0.4,1.3,0.6,2.2,0.6c0.8,0,1.5-0.2,2-0.5C324.8,459.4,325,458.9,325,458.4z"/>
	<path class="st20" d="M333.2,446v3.1h2.4v1.7h-2.4v7.9c0,0.5,0.1,0.9,0.3,1.1c0.2,0.3,0.6,0.4,1.1,0.4c0.3,0,0.6,0,1-0.1v1.8
		c-0.6,0.2-1.1,0.2-1.7,0.2c-1,0-1.7-0.3-2.2-0.9c-0.5-0.6-0.7-1.4-0.7-2.5v-7.9h-2.3v-1.7h2.3V446H333.2z"/>
	<path class="st20" d="M346.2,461.8c-0.1-0.3-0.2-0.7-0.3-1.3c-1,1-2.2,1.6-3.6,1.6c-1.3,0-2.3-0.4-3.1-1.1
		c-0.8-0.7-1.2-1.6-1.2-2.7c0-1.3,0.5-2.4,1.5-3.1c1-0.7,2.4-1.1,4.2-1.1h2.1v-1c0-0.8-0.2-1.4-0.7-1.8c-0.5-0.5-1.1-0.7-2-0.7
		c-0.8,0-1.4,0.2-1.9,0.6c-0.5,0.4-0.8,0.9-0.8,1.4h-2.2c0-0.6,0.2-1.2,0.7-1.8c0.4-0.6,1.1-1.1,1.8-1.4c0.8-0.3,1.6-0.5,2.5-0.5
		c1.5,0,2.6,0.4,3.4,1.1c0.8,0.7,1.3,1.7,1.3,3v5.8c0,1.2,0.1,2.1,0.4,2.8v0.2H346.2z M342.6,460.1c0.7,0,1.3-0.2,1.9-0.5
		c0.6-0.4,1.1-0.8,1.3-1.4v-2.6h-1.7c-2.7,0-4,0.8-4,2.3c0,0.7,0.2,1.2,0.7,1.6C341.3,459.9,341.9,460.1,342.6,460.1z"/>
	<path class="st20" d="M357.8,451c-0.3-0.1-0.7-0.1-1.1-0.1c-1.4,0-2.4,0.6-2.9,1.8v9h-2.2v-12.7h2.1l0,1.5c0.7-1.1,1.7-1.7,3-1.7
		c0.4,0,0.7,0.1,1,0.2V451z"/>
	<path class="st20" d="M363.6,446v3.1h2.4v1.7h-2.4v7.9c0,0.5,0.1,0.9,0.3,1.1c0.2,0.3,0.6,0.4,1.1,0.4c0.3,0,0.6,0,1-0.1v1.8
		c-0.6,0.2-1.1,0.2-1.7,0.2c-1,0-1.7-0.3-2.2-0.9c-0.5-0.6-0.7-1.4-0.7-2.5v-7.9h-2.3v-1.7h2.3V446H363.6z"/>
	<path class="st20" d="M381.1,451c-0.3-0.1-0.7-0.1-1.1-0.1c-1.4,0-2.4,0.6-2.9,1.8v9h-2.2v-12.7h2.1l0,1.5c0.7-1.1,1.7-1.7,3-1.7
		c0.4,0,0.7,0.1,1,0.2V451z"/>
	<path class="st20" d="M382.5,455.3c0-1.2,0.2-2.4,0.7-3.4c0.5-1,1.2-1.8,2-2.3c0.9-0.5,1.9-0.8,3-0.8c1.7,0,3.1,0.6,4.2,1.8
		c1.1,1.2,1.6,2.8,1.6,4.8v0.2c0,1.2-0.2,2.3-0.7,3.3c-0.5,1-1.2,1.7-2,2.3c-0.9,0.5-1.9,0.8-3,0.8c-1.7,0-3.1-0.6-4.2-1.8
		c-1.1-1.2-1.6-2.8-1.6-4.8V455.3z M384.7,455.5c0,1.4,0.3,2.5,1,3.4c0.7,0.9,1.5,1.3,2.6,1.3c1.1,0,2-0.4,2.6-1.3
		c0.6-0.9,1-2.1,1-3.6c0-1.4-0.3-2.5-1-3.4c-0.7-0.9-1.5-1.3-2.6-1.3c-1.1,0-1.9,0.4-2.6,1.3C385,452.7,384.7,454,384.7,455.5z"/>
	<path class="st20" d="M404.9,460.5c-0.8,1-2.1,1.5-3.7,1.5c-1.4,0-2.4-0.4-3.1-1.2c-0.7-0.8-1.1-2-1.1-3.5v-8.3h2.2v8.2
		c0,1.9,0.8,2.9,2.3,2.9c1.7,0,2.8-0.6,3.3-1.9v-9.2h2.2v12.7h-2.1L404.9,460.5z"/>
	<path class="st20" d="M413.5,446v3.1h2.4v1.7h-2.4v7.9c0,0.5,0.1,0.9,0.3,1.1c0.2,0.3,0.6,0.4,1.1,0.4c0.3,0,0.6,0,1-0.1v1.8
		c-0.6,0.2-1.1,0.2-1.7,0.2c-1,0-1.7-0.3-2.2-0.9c-0.5-0.6-0.7-1.4-0.7-2.5v-7.9H409v-1.7h2.3V446H413.5z"/>
	<path class="st20" d="M423.9,462c-1.7,0-3.1-0.6-4.2-1.7c-1.1-1.1-1.6-2.6-1.6-4.5v-0.4c0-1.3,0.2-2.4,0.7-3.4c0.5-1,1.2-1.8,2-2.3
		c0.9-0.6,1.8-0.8,2.8-0.8c1.7,0,2.9,0.5,3.9,1.6c0.9,1.1,1.4,2.6,1.4,4.7v0.9h-8.6c0,1.3,0.4,2.3,1.1,3c0.7,0.8,1.6,1.2,2.7,1.2
		c0.8,0,1.4-0.2,1.9-0.5c0.5-0.3,1-0.7,1.4-1.2l1.3,1C427.6,461.2,426,462,423.9,462z M423.6,450.6c-0.9,0-1.6,0.3-2.2,1
		c-0.6,0.6-1,1.5-1.1,2.7h6.4v-0.2c-0.1-1.1-0.4-2-0.9-2.6C425.3,450.9,424.5,450.6,423.6,450.6z"/>
	<path class="st12" d="M297.6,546.9v-11h-2v-1.7h2v-1.3c0-1.4,0.4-2.4,1.1-3.2c0.7-0.7,1.8-1.1,3.1-1.1c0.5,0,1,0.1,1.5,0.2
		l-0.1,1.8c-0.4-0.1-0.8-0.1-1.2-0.1c-0.7,0-1.2,0.2-1.6,0.6c-0.4,0.4-0.6,1-0.6,1.8v1.3h2.7v1.7h-2.7v11H297.6z"/>
	<path class="st12" d="M312.9,546.9c-0.1-0.3-0.2-0.7-0.3-1.3c-1,1-2.2,1.6-3.6,1.6c-1.3,0-2.3-0.4-3.1-1.1
		c-0.8-0.7-1.2-1.6-1.2-2.7c0-1.3,0.5-2.4,1.5-3.1c1-0.7,2.4-1.1,4.2-1.1h2.1v-1c0-0.8-0.2-1.4-0.7-1.8c-0.5-0.5-1.1-0.7-2-0.7
		c-0.8,0-1.4,0.2-1.9,0.6c-0.5,0.4-0.8,0.9-0.8,1.4H305c0-0.6,0.2-1.2,0.7-1.8c0.4-0.6,1.1-1.1,1.8-1.4c0.8-0.3,1.6-0.5,2.5-0.5
		c1.5,0,2.6,0.4,3.4,1.1c0.8,0.7,1.3,1.7,1.3,3v5.8c0,1.2,0.1,2.1,0.4,2.8v0.2H312.9z M309.3,545.3c0.7,0,1.3-0.2,1.9-0.5
		s1.1-0.8,1.3-1.4v-2.6h-1.7c-2.7,0-4,0.8-4,2.3c0,0.7,0.2,1.2,0.7,1.6C308,545.1,308.6,545.3,309.3,545.3z"/>
	<path class="st12" d="M322.4,544l3.1-9.8h2.2l-4.6,12.7h-1.7l-4.6-12.7h2.2L322.4,544z"/>
	<path class="st12" d="M329.4,540.5c0-1.2,0.2-2.4,0.7-3.4c0.5-1,1.2-1.8,2-2.3c0.9-0.5,1.9-0.8,3-0.8c1.7,0,3.1,0.6,4.2,1.8
		c1.1,1.2,1.6,2.8,1.6,4.8v0.2c0,1.2-0.2,2.3-0.7,3.3s-1.2,1.7-2,2.3c-0.9,0.5-1.9,0.8-3,0.8c-1.7,0-3.1-0.6-4.2-1.8
		c-1.1-1.2-1.6-2.8-1.6-4.8V540.5z M331.5,540.7c0,1.4,0.3,2.5,1,3.4c0.7,0.9,1.5,1.3,2.6,1.3c1.1,0,2-0.4,2.6-1.3
		c0.6-0.9,1-2.1,1-3.6c0-1.4-0.3-2.5-1-3.4c-0.7-0.9-1.5-1.3-2.6-1.3c-1.1,0-1.9,0.4-2.6,1.3C331.9,537.9,331.5,539.1,331.5,540.7z"
		/>
	<path class="st12" d="M351.7,545.7c-0.8,1-2.1,1.5-3.7,1.5c-1.4,0-2.4-0.4-3.1-1.2c-0.7-0.8-1.1-2-1.1-3.5v-8.3h2.2v8.2
		c0,1.9,0.8,2.9,2.3,2.9c1.7,0,2.8-0.6,3.3-1.9v-9.2h2.2v12.7h-2.1L351.7,545.7z"/>
	<path class="st12" d="M363.5,536.2c-0.3-0.1-0.7-0.1-1.1-0.1c-1.4,0-2.4,0.6-2.9,1.8v9h-2.2v-12.7h2.1l0,1.5c0.7-1.1,1.7-1.7,3-1.7
		c0.4,0,0.7,0.1,1,0.2V536.2z"/>
	<path class="st12" d="M365.8,530.9c0-0.4,0.1-0.6,0.3-0.9c0.2-0.2,0.5-0.4,1-0.4s0.7,0.1,1,0.4c0.2,0.2,0.3,0.5,0.3,0.9
		c0,0.4-0.1,0.6-0.3,0.9c-0.2,0.2-0.5,0.4-1,0.4s-0.7-0.1-1-0.4C365.9,531.5,365.8,531.2,365.8,530.9z M368.1,546.9H366v-12.7h2.2
		V546.9z"/>
	<path class="st12" d="M374.8,531.2v3.1h2.4v1.7h-2.4v7.9c0,0.5,0.1,0.9,0.3,1.1c0.2,0.3,0.6,0.4,1.1,0.4c0.3,0,0.6,0,1-0.1v1.8
		c-0.6,0.2-1.1,0.2-1.7,0.2c-1,0-1.7-0.3-2.2-0.9c-0.5-0.6-0.7-1.4-0.7-2.5v-7.9h-2.3v-1.7h2.3v-3.1H374.8z"/>
	<path class="st12" d="M385.2,547.2c-1.7,0-3.1-0.6-4.2-1.7c-1.1-1.1-1.6-2.6-1.6-4.5v-0.4c0-1.3,0.2-2.4,0.7-3.4
		c0.5-1,1.2-1.8,2-2.3c0.9-0.6,1.8-0.8,2.8-0.8c1.7,0,2.9,0.5,3.9,1.6c0.9,1.1,1.4,2.6,1.4,4.7v0.9h-8.6c0,1.3,0.4,2.3,1.1,3
		s1.6,1.2,2.7,1.2c0.8,0,1.4-0.2,1.9-0.5c0.5-0.3,1-0.7,1.4-1.2l1.3,1C388.9,546.4,387.3,547.2,385.2,547.2z M384.9,535.8
		c-0.9,0-1.6,0.3-2.2,1c-0.6,0.6-1,1.5-1.1,2.7h6.4v-0.2c-0.1-1.1-0.4-2-0.9-2.6C386.6,536.1,385.8,535.8,384.9,535.8z"/>
	<path class="st12" d="M405.2,536.2c-0.3-0.1-0.7-0.1-1.1-0.1c-1.4,0-2.4,0.6-2.9,1.8v9h-2.2v-12.7h2.1l0,1.5c0.7-1.1,1.7-1.7,3-1.7
		c0.4,0,0.7,0.1,1,0.2V536.2z"/>
	<path class="st12" d="M406.7,540.5c0-1.2,0.2-2.4,0.7-3.4c0.5-1,1.2-1.8,2-2.3c0.9-0.5,1.9-0.8,3-0.8c1.7,0,3.1,0.6,4.2,1.8
		c1.1,1.2,1.6,2.8,1.6,4.8v0.2c0,1.2-0.2,2.3-0.7,3.3s-1.2,1.7-2,2.3c-0.9,0.5-1.9,0.8-3,0.8c-1.7,0-3.1-0.6-4.2-1.8
		c-1.1-1.2-1.6-2.8-1.6-4.8V540.5z M408.9,540.7c0,1.4,0.3,2.5,1,3.4c0.7,0.9,1.5,1.3,2.6,1.3c1.1,0,2-0.4,2.6-1.3
		c0.6-0.9,1-2.1,1-3.6c0-1.4-0.3-2.5-1-3.4c-0.7-0.9-1.5-1.3-2.6-1.3c-1.1,0-1.9,0.4-2.6,1.3C409.2,537.9,408.9,539.1,408.9,540.7z"
		/>
	<path class="st12" d="M429,545.7c-0.8,1-2.1,1.5-3.7,1.5c-1.4,0-2.4-0.4-3.1-1.2c-0.7-0.8-1.1-2-1.1-3.5v-8.3h2.2v8.2
		c0,1.9,0.8,2.9,2.3,2.9c1.7,0,2.8-0.6,3.3-1.9v-9.2h2.2v12.7h-2.1L429,545.7z"/>
	<path class="st12" d="M437.6,531.2v3.1h2.4v1.7h-2.4v7.9c0,0.5,0.1,0.9,0.3,1.1c0.2,0.3,0.6,0.4,1.1,0.4c0.3,0,0.6,0,1-0.1v1.8
		c-0.6,0.2-1.1,0.2-1.7,0.2c-1,0-1.7-0.3-2.2-0.9c-0.5-0.6-0.7-1.4-0.7-2.5v-7.9h-2.3v-1.7h2.3v-3.1H437.6z"/>
	<path class="st12" d="M448.1,547.2c-1.7,0-3.1-0.6-4.2-1.7c-1.1-1.1-1.6-2.6-1.6-4.5v-0.4c0-1.3,0.2-2.4,0.7-3.4
		c0.5-1,1.2-1.8,2-2.3c0.9-0.6,1.8-0.8,2.8-0.8c1.7,0,2.9,0.5,3.9,1.6c0.9,1.1,1.4,2.6,1.4,4.7v0.9h-8.6c0,1.3,0.4,2.3,1.1,3
		s1.6,1.2,2.7,1.2c0.8,0,1.4-0.2,1.9-0.5c0.5-0.3,1-0.7,1.4-1.2l1.3,1C451.8,546.4,450.2,547.2,448.1,547.2z M447.8,535.8
		c-0.9,0-1.6,0.3-2.2,1c-0.6,0.6-1,1.5-1.1,2.7h6.4v-0.2c-0.1-1.1-0.4-2-0.9-2.6C449.4,536.1,448.7,535.8,447.8,535.8z"/>
	<path class="st12" d="M463.2,543.6c0-0.6-0.2-1-0.7-1.4c-0.4-0.3-1.2-0.6-2.3-0.8c-1.1-0.2-2-0.5-2.6-0.8c-0.6-0.3-1.1-0.7-1.4-1.2
		c-0.3-0.5-0.5-1-0.5-1.6c0-1,0.4-1.9,1.3-2.6c0.9-0.7,2-1.1,3.4-1.1c1.4,0,2.6,0.4,3.5,1.1c0.9,0.7,1.3,1.7,1.3,2.9H463
		c0-0.6-0.3-1.1-0.8-1.5c-0.5-0.4-1.1-0.6-1.9-0.6c-0.8,0-1.4,0.2-1.9,0.5c-0.4,0.3-0.7,0.8-0.7,1.4c0,0.5,0.2,0.9,0.6,1.2
		c0.4,0.3,1.2,0.5,2.2,0.8c1.1,0.2,2,0.5,2.6,0.9c0.7,0.3,1.2,0.7,1.5,1.2c0.3,0.5,0.5,1.1,0.5,1.7c0,1.1-0.5,2-1.4,2.7
		c-0.9,0.7-2.1,1-3.5,1c-1,0-1.9-0.2-2.7-0.5c-0.8-0.4-1.4-0.9-1.8-1.5c-0.4-0.6-0.7-1.3-0.7-2.1h2.2c0,0.7,0.3,1.3,0.9,1.7
		c0.5,0.4,1.3,0.6,2.2,0.6c0.8,0,1.5-0.2,2-0.5C462.9,544.6,463.2,544.1,463.2,543.6z"/>
	<path class="st20" d="M303.9,628.8c0-0.6-0.2-1-0.7-1.4c-0.4-0.3-1.2-0.6-2.3-0.8c-1.1-0.2-2-0.5-2.6-0.8c-0.6-0.3-1.1-0.7-1.4-1.2
		c-0.3-0.5-0.5-1-0.5-1.6c0-1,0.4-1.9,1.3-2.6c0.9-0.7,2-1.1,3.4-1.1c1.4,0,2.6,0.4,3.5,1.1c0.9,0.7,1.3,1.7,1.3,2.9h-2.2
		c0-0.6-0.3-1.1-0.8-1.5c-0.5-0.4-1.1-0.6-1.9-0.6c-0.8,0-1.4,0.2-1.9,0.5c-0.4,0.3-0.7,0.8-0.7,1.4c0,0.5,0.2,0.9,0.6,1.2
		c0.4,0.3,1.2,0.5,2.2,0.8c1.1,0.2,2,0.5,2.6,0.9c0.7,0.3,1.2,0.7,1.5,1.2c0.3,0.5,0.5,1.1,0.5,1.7c0,1.1-0.5,2-1.4,2.7
		c-0.9,0.7-2.1,1-3.5,1c-1,0-1.9-0.2-2.7-0.5c-0.8-0.4-1.4-0.9-1.8-1.5c-0.4-0.6-0.7-1.3-0.7-2.1h2.2c0,0.7,0.3,1.3,0.9,1.7
		c0.5,0.4,1.3,0.6,2.2,0.6c0.8,0,1.5-0.2,2-0.5C303.6,629.8,303.9,629.3,303.9,628.8z"/>
	<path class="st20" d="M311.3,621c1-1.2,2.2-1.8,3.8-1.8c2.7,0,4,1.5,4.1,4.5v8.4H317v-8.4c0-0.9-0.2-1.6-0.6-2
		c-0.4-0.4-1.1-0.7-1.9-0.7c-0.7,0-1.3,0.2-1.9,0.6c-0.5,0.4-0.9,0.9-1.2,1.5v9.1h-2.2v-18h2.2V621z"/>
	<path class="st20" d="M330.5,632.1c-0.1-0.3-0.2-0.7-0.3-1.3c-1,1-2.2,1.6-3.6,1.6c-1.3,0-2.3-0.4-3.1-1.1
		c-0.8-0.7-1.2-1.6-1.2-2.7c0-1.3,0.5-2.4,1.5-3.1c1-0.7,2.4-1.1,4.2-1.1h2.1v-1c0-0.8-0.2-1.4-0.7-1.8c-0.5-0.5-1.1-0.7-2-0.7
		c-0.8,0-1.4,0.2-1.9,0.6c-0.5,0.4-0.8,0.9-0.8,1.4h-2.2c0-0.6,0.2-1.2,0.7-1.8c0.4-0.6,1.1-1.1,1.8-1.4c0.8-0.3,1.6-0.5,2.5-0.5
		c1.5,0,2.6,0.4,3.4,1.1c0.8,0.7,1.3,1.7,1.3,3v5.8c0,1.2,0.1,2.1,0.4,2.8v0.2H330.5z M326.9,630.5c0.7,0,1.3-0.2,1.9-0.5
		s1.1-0.8,1.3-1.4V626h-1.7c-2.7,0-4,0.8-4,2.3c0,0.7,0.2,1.2,0.7,1.6C325.6,630.3,326.1,630.5,326.9,630.5z"/>
	<path class="st20" d="M342.1,621.4c-0.3-0.1-0.7-0.1-1.1-0.1c-1.4,0-2.4,0.6-2.9,1.8v9h-2.2v-12.7h2.1l0,1.5c0.7-1.1,1.7-1.7,3-1.7
		c0.4,0,0.7,0.1,1,0.2V621.4z"/>
	<path class="st20" d="M349.4,632.4c-1.7,0-3.1-0.6-4.2-1.7c-1.1-1.1-1.6-2.6-1.6-4.5v-0.4c0-1.3,0.2-2.4,0.7-3.4
		c0.5-1,1.2-1.8,2-2.3c0.9-0.6,1.8-0.8,2.8-0.8c1.7,0,2.9,0.5,3.9,1.6c0.9,1.1,1.4,2.6,1.4,4.7v0.9h-8.6c0,1.3,0.4,2.3,1.1,3
		s1.6,1.2,2.7,1.2c0.8,0,1.4-0.2,1.9-0.5c0.5-0.3,1-0.7,1.4-1.2l1.3,1C353.1,631.6,351.5,632.4,349.4,632.4z M349.1,621
		c-0.9,0-1.6,0.3-2.2,1c-0.6,0.6-1,1.5-1.1,2.7h6.4v-0.2c-0.1-1.1-0.4-2-0.9-2.6C350.7,621.3,350,621,349.1,621z"/>
	<g class="st3">
		<g>
			<path class="st9" d="M261,638.7c-0.3,0-0.5-0.1-0.8-0.2l-20.7-9.6c-0.6-0.3-1.1-0.9-1.1-1.6s0.4-1.3,1.1-1.6l20.7-9.6
				c0.9-0.4,2,0,2.4,0.9c0.4,0.9,0,2-0.9,2.4l-17.1,8l17.1,8c0.9,0.4,1.3,1.5,0.9,2.4C262.3,638.3,261.6,638.7,261,638.7z"/>
		</g>
		<g>
			<circle class="st9" cx="240.3" cy="627.3" r="5.1"/>
		</g>
		<g>
			<circle class="st9" cx="261" cy="617" r="5.1"/>
		</g>
		<g>
			<circle class="st9" cx="261" cy="636.9" r="5.1"/>
		</g>
	</g>
	<g class="st3">
		<g>
			<path class="st9" d="M250.6,472c-6.9,0-12.5-5.6-12.5-12.5c0-1.2,1-2.1,2.1-2.1s2.1,1,2.1,2.1c0,4.5,3.7,8.2,8.2,8.2
				c4.5,0,8.2-3.7,8.2-8.2c0-4.5-3.7-8.2-8.2-8.2c-1.2,0-2.1-1-2.1-2.1s1-2.1,2.1-2.1c6.9,0,12.5,5.6,12.5,12.5
				C263.1,466.4,257.5,472,250.6,472z"/>
		</g>
		<g>
			<path class="st9" d="M250.5,441.6c0.6-0.4,1.2-0.1,1.2,0.6l0,14c0,0.8-0.5,1.1-1.2,0.6l-10.3-6.8c-0.6-0.4-0.7-1.1,0-1.6
				L250.5,441.6z"/>
		</g>
	</g>
	<g class="st3">
		<path class="st14" d="M303.7,280.6c-0.8,1-2,1.5-3.6,1.5c-1.4,0-2.4-0.4-3.1-1.2c-0.7-0.8-1.1-2-1.1-3.5v-8.2h2.9v8.2
			c0,1.6,0.7,2.4,2,2.4c1.4,0,2.3-0.5,2.8-1.5v-9.1h2.9v12.7h-2.7L303.7,280.6z"/>
		<path class="st14" d="M316.8,278.4c0-0.5-0.2-0.9-0.6-1.2c-0.4-0.3-1.1-0.5-2.1-0.7c-1-0.2-1.8-0.5-2.4-0.8
			c-1.4-0.7-2.1-1.7-2.1-3c0-1.1,0.5-2,1.4-2.7c0.9-0.7,2.1-1.1,3.5-1.1c1.5,0,2.7,0.4,3.7,1.1c0.9,0.8,1.4,1.7,1.4,2.9h-2.9
			c0-0.5-0.2-1-0.6-1.4c-0.4-0.4-0.9-0.5-1.6-0.5c-0.6,0-1.1,0.1-1.5,0.4c-0.4,0.3-0.6,0.7-0.6,1.2c0,0.4,0.2,0.8,0.6,1
			c0.4,0.2,1.1,0.5,2.2,0.7c1.1,0.2,2,0.5,2.6,0.9c0.6,0.3,1.1,0.7,1.4,1.2c0.3,0.5,0.5,1.1,0.5,1.7c0,1.1-0.5,2.1-1.4,2.8
			c-0.9,0.7-2.2,1.1-3.7,1.1c-1,0-2-0.2-2.8-0.6c-0.8-0.4-1.4-0.9-1.9-1.5c-0.5-0.7-0.7-1.4-0.7-2.1h2.8c0,0.7,0.3,1.2,0.8,1.6
			c0.5,0.4,1.1,0.5,1.9,0.5c0.8,0,1.3-0.1,1.7-0.4C316.6,279.2,316.8,278.9,316.8,278.4z"/>
		<path class="st14" d="M327.9,282.1c-1.8,0-3.3-0.6-4.4-1.7c-1.1-1.1-1.7-2.7-1.7-4.5v-0.4c0-1.3,0.2-2.4,0.7-3.4
			c0.5-1,1.2-1.8,2.1-2.3c0.9-0.6,1.9-0.8,3-0.8c1.7,0,3.1,0.6,4,1.7c0.9,1.1,1.4,2.7,1.4,4.7v1.2h-8.3c0.1,1,0.4,1.9,1.1,2.5
			s1.4,0.9,2.3,0.9c1.3,0,2.4-0.5,3.2-1.6l1.5,1.5c-0.5,0.8-1.2,1.3-2,1.8C329.9,281.9,328.9,282.1,327.9,282.1z M327.5,271.2
			c-0.8,0-1.4,0.3-1.9,0.8c-0.5,0.5-0.8,1.3-0.9,2.3h5.4v-0.2c-0.1-1-0.3-1.7-0.8-2.2C329,271.5,328.3,271.2,327.5,271.2z"/>
		<path class="st14" d="M342.1,271.8c-0.4-0.1-0.8-0.1-1.2-0.1c-1.3,0-2.2,0.5-2.6,1.5v8.7h-2.9v-12.7h2.7l0.1,1.4
			c0.7-1.1,1.6-1.7,2.9-1.7c0.4,0,0.7,0.1,1,0.2L342.1,271.8z"/>
		<path class="st14" d="M353,269.2l0.1,1.5c0.9-1.1,2.2-1.7,3.7-1.7c2.6,0,4,1.5,4,4.5v8.4H358v-8.2c0-0.8-0.2-1.4-0.5-1.8
			c-0.3-0.4-0.9-0.6-1.7-0.6c-1.1,0-2,0.5-2.6,1.6v9h-2.9v-12.7H353z"/>
		<path class="st14" d="M371.6,281.9c-0.1-0.2-0.2-0.6-0.3-1.2c-0.9,0.9-2,1.4-3.3,1.4c-1.3,0-2.3-0.4-3.1-1.1
			c-0.8-0.7-1.2-1.6-1.2-2.7c0-1.4,0.5-2.4,1.5-3.1c1-0.7,2.4-1.1,4.3-1.1h1.7v-0.8c0-0.7-0.2-1.2-0.6-1.6c-0.4-0.4-0.9-0.6-1.7-0.6
			c-0.7,0-1.2,0.2-1.6,0.5c-0.4,0.3-0.6,0.7-0.6,1.2h-2.9c0-0.7,0.2-1.3,0.7-2c0.5-0.6,1.1-1.1,1.9-1.4c0.8-0.3,1.7-0.5,2.7-0.5
			c1.5,0,2.7,0.4,3.6,1.1c0.9,0.7,1.3,1.8,1.4,3.2v5.7c0,1.1,0.2,2.1,0.5,2.7v0.2H371.6z M368.4,279.8c0.6,0,1.1-0.1,1.6-0.4
			c0.5-0.3,0.9-0.6,1.1-1.1v-2.4h-1.5c-1.1,0-1.9,0.2-2.4,0.6c-0.5,0.4-0.8,0.9-0.8,1.6c0,0.5,0.2,1,0.5,1.3
			C367.3,279.6,367.8,279.8,368.4,279.8z"/>
		<path class="st14" d="M379.9,269.2l0.1,1.3c0.9-1,2.1-1.6,3.7-1.6c1.7,0,2.9,0.6,3.5,1.9c0.9-1.3,2.2-1.9,3.9-1.9
			c1.4,0,2.4,0.4,3.1,1.2s1,1.9,1.1,3.4v8.3h-2.9v-8.3c0-0.8-0.2-1.4-0.5-1.8c-0.4-0.4-0.9-0.6-1.7-0.6c-0.7,0-1.2,0.2-1.6,0.5
			c-0.4,0.3-0.7,0.8-0.9,1.4l0,8.7h-2.9v-8.4c0-1.5-0.8-2.2-2.3-2.2c-1.1,0-2,0.5-2.4,1.4v9.2h-2.9v-12.7H379.9z"/>
		<path class="st14" d="M404,282.1c-1.8,0-3.3-0.6-4.4-1.7c-1.1-1.1-1.7-2.7-1.7-4.5v-0.4c0-1.3,0.2-2.4,0.7-3.4
			c0.5-1,1.2-1.8,2.1-2.3c0.9-0.6,1.9-0.8,3-0.8c1.7,0,3.1,0.6,4,1.7c0.9,1.1,1.4,2.7,1.4,4.7v1.2h-8.3c0.1,1,0.4,1.9,1.1,2.5
			s1.4,0.9,2.3,0.9c1.3,0,2.4-0.5,3.2-1.6l1.5,1.5c-0.5,0.8-1.2,1.3-2,1.8C406,281.9,405,282.1,404,282.1z M403.6,271.2
			c-0.8,0-1.4,0.3-1.9,0.8c-0.5,0.5-0.8,1.3-0.9,2.3h5.4v-0.2c-0.1-1-0.3-1.7-0.8-2.2C405,271.5,404.4,271.2,403.6,271.2z"/>
	</g>
	<circle class="st21" cx="243.8" cy="273.5" r="34.5"/>
	<path class="st14" d="M327.7,634.4l-82.8-50.7c-0.2-0.1-0.4-0.2-0.5-0.3c-2.8,6.1-6.3,11.8-10.4,17c0.2,0.1,0.3,0.2,0.5,0.3
		l82.8,50.7c2.4,1.5,5.3,1.8,7.8,1.1c2.4-0.6,4.5-2.2,5.9-4.4C333.8,643.4,332.4,637.3,327.7,634.4z"/>
	<g>
		<g>
			<polygon class="st22" points="266.3,559.4 264.4,552.8 266.3,559.4 			"/>
			<polygon class="st22" points="234.9,559.4 234.9,559.4 236.8,552.8 			"/>
			<polygon class="st22" points="264.4,552.8 262.5,546.1 262.5,546.1 			"/>
			<polygon class="st22" points="238.7,546.1 236.8,552.8 238.7,546.1 			"/>
			<path class="st9" d="M264.6,560.6c1.4,0.9,2.1,0.4,1.7-1.2l-1.9-6.6l-1.9-6.6v0l-0.8-2.9l7.8-6.1l5.4-4.3c1.3-1,1-1.9-0.6-2
				l-6.9-0.3l-9.9-0.4l-5.8-15.8c-0.6-1.4-1.5-1.6-2.1,0l-1.6,4.3l-4.2,11.5l-9.9,0.4l-6.9,0.3c-1.7,0.1-2,1-0.6,2l5.4,4.3l7.8,6.1
				l-0.8,2.9v0l-1.9,6.6l-1.9,6.6c-0.5,1.6,0.3,2.2,1.7,1.2l10.3-6.9l3.7-2.5l2.5,1.7l0,0L264.6,560.6z"/>
		</g>
	</g>
	<circle class="st1" cx="179.5" cy="550" r="81.9"/>
	<g>
		<g>
			<polygon class="st22" points="223,591.3 218.9,576.6 223,591.3 			"/>
			<polygon class="st22" points="154,591.3 154,591.3 158.1,576.6 			"/>
			<polygon class="st22" points="218.9,576.6 214.7,562 214.7,562 			"/>
			<polygon class="st22" points="162.2,562 158.1,576.6 162.2,562 			"/>
			<path class="st9" d="M219.3,594c3,2,4.7,0.8,3.7-2.7l-4.1-14.6l-4.1-14.6v0l-1.8-6.4l17.2-13.5l11.9-9.4c2.9-2.3,2.2-4.2-1.4-4.4
				l-15.2-0.6l-21.8-0.9l-12.8-34.8c-1.3-3.1-3.3-3.4-4.6,0l-3.5,9.4l-9.3,25.4l-21.8,0.9l-15.2,0.6c-3.7,0.1-4.3,2.1-1.4,4.4
				l11.9,9.4l17.2,13.5l-1.8,6.4v0l-4.1,14.6l-4.1,14.6c-1,3.5,0.7,4.7,3.7,2.7l22.7-15.2l8.1-5.4l5.5,3.7l0,0L219.3,594z"/>
		</g>
	</g>
	<path class="st6" d="M118.2,495.6v110.7c0,0-20.6-21.7-20.6-56.3S118.2,495.6,118.2,495.6z"/>
	<circle class="st15" cx="179.5" cy="550" r="81.9"/>
	<g>
		<path class="st14" d="M217.6,674.9c-0.2,0-0.5,0-0.7,0c-28.2-2-25.8-11.6-37.4-11.6c-11.5,0-9.2,9.6-37.4,11.6c-0.2,0-0.5,0-0.7,0
			H217.6z"/>
		<path class="st14" d="M294.7,777.6H64.4c-6.6,0-12-5.4-12-12v-79.2c0-6.6,6.3-12,12.9-12h230.2c6.6,0,11.1,5.4,11.1,12v79.2
			C306.7,772.2,301.3,777.6,294.7,777.6z"/>
		<g>
			<path class="st1" d="M81.7,720.4v-11.5h-2.1v-1.7h2.1v-1.4c0-1.4,0.4-2.5,1.1-3.3c0.8-0.8,1.8-1.2,3.2-1.2c0.5,0,1,0.1,1.5,0.2
				l-0.1,1.8c-0.4-0.1-0.8-0.1-1.2-0.1c-0.7,0-1.3,0.2-1.7,0.6c-0.4,0.4-0.6,1-0.6,1.8v1.4h2.8v1.7h-2.8v11.5H81.7z"/>
			<path class="st1" d="M89.3,703.7c0-0.4,0.1-0.7,0.3-0.9s0.6-0.4,1-0.4s0.8,0.1,1,0.4s0.3,0.6,0.3,0.9s-0.1,0.7-0.3,0.9
				s-0.6,0.4-1,0.4s-0.8-0.1-1-0.4S89.3,704,89.3,703.7z M91.7,720.4h-2.3v-13.2h2.3V720.4z"/>
			<path class="st1" d="M97.4,707.2l0.1,1.7c1-1.3,2.3-1.9,4-1.9c2.8,0,4.2,1.6,4.2,4.7v8.7h-2.3v-8.7c0-1-0.2-1.7-0.7-2.1
				c-0.4-0.5-1.1-0.7-2-0.7c-0.7,0-1.4,0.2-1.9,0.6c-0.6,0.4-1,0.9-1.3,1.5v9.4h-2.3v-13.2H97.4z"/>
			<path class="st1" d="M108.6,713.7c0-2,0.5-3.7,1.4-4.9c1-1.2,2.2-1.8,3.8-1.8c1.5,0,2.8,0.5,3.7,1.6v-6.9h2.3v18.8h-2.1l-0.1-1.4
				c-0.9,1.1-2.2,1.7-3.8,1.7c-1.5,0-2.8-0.6-3.7-1.9c-1-1.3-1.4-2.9-1.4-4.9V713.7z M110.8,713.9c0,1.5,0.3,2.7,0.9,3.5
				s1.5,1.3,2.6,1.3c1.4,0,2.5-0.6,3.1-1.9v-6.1c-0.7-1.2-1.7-1.9-3.1-1.9c-1.1,0-2,0.4-2.6,1.3S110.8,712.3,110.8,713.9z"/>
			<path class="st1" d="M133.7,717.1l3.1-9.9h2.4l-5.3,15.2c-0.8,2.2-2.1,3.3-3.9,3.3l-0.4,0l-0.8-0.2v-1.8l0.6,0
				c0.8,0,1.4-0.2,1.8-0.5c0.4-0.3,0.8-0.9,1.1-1.7l0.5-1.3l-4.7-13.1h2.5L133.7,717.1z"/>
			<path class="st1" d="M140.4,713.7c0-1.3,0.3-2.5,0.8-3.5c0.5-1,1.2-1.8,2.1-2.4c0.9-0.6,1.9-0.8,3.1-0.8c1.8,0,3.3,0.6,4.4,1.9
				c1.1,1.2,1.7,2.9,1.7,5v0.2c0,1.3-0.2,2.4-0.7,3.5c-0.5,1-1.2,1.8-2.1,2.4c-0.9,0.6-2,0.9-3.2,0.9c-1.8,0-3.2-0.6-4.4-1.9
				c-1.1-1.2-1.7-2.9-1.7-4.9V713.7z M142.7,713.9c0,1.5,0.3,2.6,1,3.5c0.7,0.9,1.6,1.3,2.7,1.3c1.1,0,2.1-0.5,2.7-1.3
				c0.7-0.9,1-2.2,1-3.8c0-1.4-0.3-2.6-1-3.5c-0.7-0.9-1.6-1.3-2.7-1.3c-1.1,0-2,0.4-2.7,1.3S142.7,712.3,142.7,713.9z"/>
			<path class="st1" d="M163.4,719.1c-0.9,1-2.2,1.5-3.9,1.5c-1.4,0-2.5-0.4-3.2-1.2c-0.7-0.8-1.1-2-1.1-3.6v-8.6h2.3v8.5
				c0,2,0.8,3,2.4,3c1.7,0,2.9-0.6,3.4-1.9v-9.6h2.3v13.2h-2.1L163.4,719.1z"/>
			<path class="st1" d="M175.5,709.2c-0.3-0.1-0.7-0.1-1.1-0.1c-1.5,0-2.5,0.6-3,1.9v9.4h-2.3v-13.2h2.2l0,1.5
				c0.7-1.2,1.8-1.8,3.1-1.8c0.4,0,0.8,0.1,1,0.2V709.2z"/>
			<path class="st1" d="M184.8,720.4v-11.5h-2.1v-1.7h2.1v-1.4c0-1.4,0.4-2.5,1.1-3.3c0.8-0.8,1.8-1.2,3.2-1.2c0.5,0,1,0.1,1.5,0.2
				l-0.1,1.8c-0.4-0.1-0.8-0.1-1.2-0.1c-0.7,0-1.3,0.2-1.7,0.6c-0.4,0.4-0.6,1-0.6,1.8v1.4h2.8v1.7h-2.8v11.5H184.8z"/>
			<path class="st1" d="M200.6,720.4c-0.1-0.3-0.2-0.7-0.3-1.4c-1,1.1-2.3,1.6-3.8,1.6c-1.3,0-2.4-0.4-3.2-1.1
				c-0.8-0.7-1.3-1.7-1.3-2.8c0-1.4,0.5-2.4,1.6-3.2c1-0.8,2.5-1.1,4.4-1.1h2.2v-1c0-0.8-0.2-1.4-0.7-1.9c-0.5-0.5-1.2-0.7-2.1-0.7
				c-0.8,0-1.5,0.2-2,0.6s-0.8,0.9-0.8,1.5h-2.3c0-0.7,0.2-1.3,0.7-1.9s1.1-1.1,1.9-1.5c0.8-0.4,1.7-0.5,2.6-0.5
				c1.5,0,2.7,0.4,3.6,1.1s1.3,1.8,1.3,3.1v6.1c0,1.2,0.2,2.2,0.5,2.9v0.2H200.6z M196.8,718.7c0.7,0,1.4-0.2,2-0.5s1.1-0.8,1.4-1.4
				V714h-1.8c-2.8,0-4.2,0.8-4.2,2.4c0,0.7,0.2,1.3,0.7,1.7C195.5,718.5,196.1,718.7,196.8,718.7z"/>
			<path class="st1" d="M210.2,717.3l3.3-10.1h2.3l-4.7,13.2h-1.7l-4.8-13.2h2.3L210.2,717.3z"/>
			<path class="st1" d="M217.1,713.7c0-1.3,0.3-2.5,0.8-3.5c0.5-1,1.2-1.8,2.1-2.4c0.9-0.6,1.9-0.8,3.1-0.8c1.8,0,3.3,0.6,4.4,1.9
				c1.1,1.2,1.7,2.9,1.7,5v0.2c0,1.3-0.2,2.4-0.7,3.5c-0.5,1-1.2,1.8-2.1,2.4c-0.9,0.6-2,0.9-3.2,0.9c-1.8,0-3.2-0.6-4.4-1.9
				c-1.1-1.2-1.7-2.9-1.7-4.9V713.7z M219.4,713.9c0,1.5,0.3,2.6,1,3.5c0.7,0.9,1.6,1.3,2.7,1.3c1.1,0,2.1-0.5,2.7-1.3
				c0.7-0.9,1-2.2,1-3.8c0-1.4-0.3-2.6-1-3.5c-0.7-0.9-1.6-1.3-2.7-1.3c-1.1,0-2,0.4-2.7,1.3S219.4,712.3,219.4,713.9z"/>
			<path class="st1" d="M240.2,719.1c-0.9,1-2.2,1.5-3.9,1.5c-1.4,0-2.5-0.4-3.2-1.2c-0.7-0.8-1.1-2-1.1-3.6v-8.6h2.3v8.5
				c0,2,0.8,3,2.4,3c1.7,0,2.9-0.6,3.4-1.9v-9.6h2.3v13.2h-2.1L240.2,719.1z"/>
			<path class="st1" d="M252.2,709.2c-0.3-0.1-0.7-0.1-1.1-0.1c-1.5,0-2.5,0.6-3,1.9v9.4h-2.3v-13.2h2.2l0,1.5
				c0.7-1.2,1.8-1.8,3.1-1.8c0.4,0,0.8,0.1,1,0.2V709.2z"/>
			<path class="st1" d="M254.3,703.7c0-0.4,0.1-0.7,0.3-0.9s0.6-0.4,1-0.4s0.8,0.1,1,0.4s0.3,0.6,0.3,0.9s-0.1,0.7-0.3,0.9
				s-0.6,0.4-1,0.4s-0.8-0.1-1-0.4S254.3,704,254.3,703.7z M256.7,720.4h-2.3v-13.2h2.3V720.4z"/>
			<path class="st1" d="M263.4,704v3.2h2.5v1.7h-2.5v8.2c0,0.5,0.1,0.9,0.3,1.2s0.6,0.4,1.1,0.4c0.3,0,0.6,0,1.1-0.1v1.8
				c-0.6,0.2-1.2,0.2-1.7,0.2c-1,0-1.8-0.3-2.3-0.9c-0.5-0.6-0.8-1.5-0.8-2.6v-8.2h-2.4v-1.7h2.4V704H263.4z"/>
			<path class="st1" d="M274,720.6c-1.8,0-3.2-0.6-4.4-1.8s-1.7-2.7-1.7-4.7v-0.4c0-1.3,0.3-2.5,0.8-3.5c0.5-1,1.2-1.8,2.1-2.4
				s1.9-0.9,2.9-0.9c1.7,0,3.1,0.6,4,1.7s1.4,2.8,1.4,4.9v0.9h-8.9c0,1.3,0.4,2.4,1.1,3.2c0.7,0.8,1.7,1.2,2.8,1.2
				c0.8,0,1.5-0.2,2-0.5c0.6-0.3,1-0.8,1.5-1.3l1.4,1.1C277.8,719.8,276.2,720.6,274,720.6z M273.7,708.8c-0.9,0-1.7,0.3-2.3,1
				s-1,1.6-1.1,2.8h6.6v-0.2c-0.1-1.1-0.4-2-0.9-2.7S274.6,708.8,273.7,708.8z"/>
			<path class="st1" d="M124.9,739.2c-0.3-0.1-0.7-0.1-1.1-0.1c-1.5,0-2.5,0.6-3,1.9v9.4h-2.3v-13.2h2.2l0,1.5
				c0.7-1.2,1.8-1.8,3.1-1.8c0.4,0,0.8,0.1,1,0.2V739.2z"/>
			<path class="st1" d="M126.1,743.7c0-1.3,0.3-2.5,0.8-3.5c0.5-1,1.2-1.8,2.1-2.4c0.9-0.6,1.9-0.8,3.1-0.8c1.8,0,3.3,0.6,4.4,1.9
				c1.1,1.2,1.7,2.9,1.7,5v0.2c0,1.3-0.2,2.4-0.7,3.5c-0.5,1-1.2,1.8-2.1,2.4c-0.9,0.6-2,0.9-3.2,0.9c-1.8,0-3.2-0.6-4.4-1.9
				c-1.1-1.2-1.7-2.9-1.7-4.9V743.7z M128.4,743.9c0,1.5,0.3,2.6,1,3.5c0.7,0.9,1.6,1.3,2.7,1.3c1.1,0,2.1-0.5,2.7-1.3
				c0.7-0.9,1-2.2,1-3.8c0-1.4-0.3-2.6-1-3.5c-0.7-0.9-1.6-1.3-2.7-1.3c-1.1,0-2,0.4-2.7,1.3S128.4,742.3,128.4,743.9z"/>
			<path class="st1" d="M149.2,749.1c-0.9,1-2.2,1.5-3.9,1.5c-1.4,0-2.5-0.4-3.2-1.2c-0.7-0.8-1.1-2-1.1-3.6v-8.6h2.3v8.5
				c0,2,0.8,3,2.4,3c1.7,0,2.9-0.6,3.4-1.9v-9.6h2.3v13.2h-2.1L149.2,749.1z"/>
			<path class="st1" d="M157.8,734v3.2h2.5v1.7h-2.5v8.2c0,0.5,0.1,0.9,0.3,1.2s0.6,0.4,1.1,0.4c0.3,0,0.6,0,1.1-0.1v1.8
				c-0.6,0.2-1.2,0.2-1.7,0.2c-1,0-1.8-0.3-2.3-0.9c-0.5-0.6-0.8-1.5-0.8-2.6v-8.2h-2.4v-1.7h2.4V734H157.8z"/>
			<path class="st1" d="M168.4,750.6c-1.8,0-3.2-0.6-4.4-1.8s-1.7-2.7-1.7-4.7v-0.4c0-1.3,0.3-2.5,0.8-3.5c0.5-1,1.2-1.8,2.1-2.4
				s1.9-0.9,2.9-0.9c1.7,0,3.1,0.6,4,1.7s1.4,2.8,1.4,4.9v0.9h-8.9c0,1.3,0.4,2.4,1.1,3.2c0.7,0.8,1.7,1.2,2.8,1.2
				c0.8,0,1.5-0.2,2-0.5c0.6-0.3,1-0.8,1.5-1.3l1.4,1.1C172.3,749.8,170.6,750.6,168.4,750.6z M168.1,738.8c-0.9,0-1.7,0.3-2.3,1
				s-1,1.6-1.1,2.8h6.6v-0.2c-0.1-1.1-0.4-2-0.9-2.7S169.1,738.8,168.1,738.8z"/>
			<path class="st1" d="M183.9,746.9c0-0.6-0.2-1.1-0.7-1.4c-0.5-0.3-1.3-0.6-2.4-0.9s-2.1-0.5-2.7-0.9c-0.7-0.3-1.2-0.7-1.5-1.2
				c-0.3-0.5-0.5-1-0.5-1.7c0-1.1,0.5-2,1.4-2.7c0.9-0.7,2.1-1.1,3.5-1.1c1.5,0,2.7,0.4,3.6,1.2s1.4,1.8,1.4,3h-2.3
				c0-0.6-0.3-1.2-0.8-1.6c-0.5-0.4-1.2-0.7-2-0.7c-0.8,0-1.5,0.2-1.9,0.5c-0.5,0.4-0.7,0.8-0.7,1.4c0,0.5,0.2,1,0.6,1.2
				c0.4,0.3,1.2,0.5,2.3,0.8c1.1,0.3,2,0.6,2.7,0.9s1.2,0.8,1.6,1.3c0.3,0.5,0.5,1.1,0.5,1.8c0,1.2-0.5,2.1-1.4,2.8
				c-0.9,0.7-2.2,1.1-3.7,1.1c-1.1,0-2-0.2-2.8-0.6s-1.5-0.9-1.9-1.6c-0.5-0.7-0.7-1.4-0.7-2.2h2.3c0,0.8,0.3,1.4,0.9,1.8
				c0.6,0.4,1.3,0.7,2.2,0.7c0.9,0,1.5-0.2,2.1-0.5C183.6,747.9,183.9,747.5,183.9,746.9z"/>
			<path class="st1" d="M197.5,738.8c1-1.2,2.3-1.8,3.9-1.8c2.8,0,4.2,1.6,4.2,4.7v8.7h-2.3v-8.7c0-1-0.2-1.7-0.7-2.1
				c-0.4-0.5-1.1-0.7-2-0.7c-0.7,0-1.4,0.2-1.9,0.6c-0.6,0.4-1,0.9-1.3,1.5v9.4h-2.3v-18.8h2.3V738.8z"/>
			<path class="st1" d="M214.5,750.6c-1.8,0-3.2-0.6-4.4-1.8s-1.7-2.7-1.7-4.7v-0.4c0-1.3,0.3-2.5,0.8-3.5c0.5-1,1.2-1.8,2.1-2.4
				s1.9-0.9,2.9-0.9c1.7,0,3.1,0.6,4,1.7s1.4,2.8,1.4,4.9v0.9h-8.9c0,1.3,0.4,2.4,1.1,3.2c0.7,0.8,1.7,1.2,2.8,1.2
				c0.8,0,1.5-0.2,2-0.5c0.6-0.3,1-0.8,1.5-1.3l1.4,1.1C218.4,749.8,216.7,750.6,214.5,750.6z M214.2,738.8c-0.9,0-1.7,0.3-2.3,1
				s-1,1.6-1.1,2.8h6.6v-0.2c-0.1-1.1-0.4-2-0.9-2.7S215.2,738.8,214.2,738.8z"/>
			<path class="st1" d="M228.7,739.2c-0.3-0.1-0.7-0.1-1.1-0.1c-1.5,0-2.5,0.6-3,1.9v9.4h-2.3v-13.2h2.2l0,1.5
				c0.7-1.2,1.8-1.8,3.1-1.8c0.4,0,0.8,0.1,1,0.2V739.2z"/>
			<path class="st1" d="M236,750.6c-1.8,0-3.2-0.6-4.4-1.8s-1.7-2.7-1.7-4.7v-0.4c0-1.3,0.3-2.5,0.8-3.5c0.5-1,1.2-1.8,2.1-2.4
				s1.9-0.9,2.9-0.9c1.7,0,3.1,0.6,4,1.7s1.4,2.8,1.4,4.9v0.9h-8.9c0,1.3,0.4,2.4,1.1,3.2c0.7,0.8,1.7,1.2,2.8,1.2
				c0.8,0,1.5-0.2,2-0.5c0.6-0.3,1-0.8,1.5-1.3l1.4,1.1C239.9,749.8,238.2,750.6,236,750.6z M235.7,738.8c-0.9,0-1.7,0.3-2.3,1
				s-1,1.6-1.1,2.8h6.6v-0.2c-0.1-1.1-0.4-2-0.9-2.7S236.7,738.8,235.7,738.8z"/>
		</g>
	</g>
</g>
<g id="grid" class="st70">
</g>
</svg>
