<?xml version="1.0" encoding="utf-8"?>
<!-- Generator: Adobe Illustrator 18.1.1, SVG Export Plug-In . SVG Version: 6.00 Build 0)  -->
<svg version="1.1" xmlns="http://www.w3.org/2000/svg" xmlns:xlink="http://www.w3.org/1999/xlink" x="0px" y="0px"
	 viewBox="0 0 640 1136" style="enable-background:new 0 0 640 1136;" xml:space="preserve">
<style type="text/css">
	.st0{fill:#3B8C6B;}
	.st1{fill:#FFFFFF;}
	.st2{fill:url(#SVGID_1_);}
	.st3{opacity:0.3;}
	.st4{fill-rule:evenodd;clip-rule:evenodd;fill:#F46B83;}
	.st5{fill:#58BD98;}
	.st6{fill:#EFEFEF;}
	.st7{fill:none;stroke:#E0E1E2;stroke-width:11;stroke-miterlimit:10;}
	.st8{opacity:0.3;fill-rule:evenodd;clip-rule:evenodd;fill:#F56980;}
	.st9{fill:#F56980;}
	.st10{fill:#2AD19D;}
	.st11{fill-rule:evenodd;clip-rule:evenodd;fill:#FFFFFF;}
	.st12{fill:#F36D85;}
	.st13{fill:#E0E1E2;}
	.st14{fill:#F46B83;}
	.st15{fill:none;stroke:#F46B83;stroke-width:8;stroke-miterlimit:10;}
	.st16{opacity:0.3;fill:#2AD19D;}
	.st17{fill:#89D7E6;}
	.st18{clip-path:url(#SVGID_3_);}
	.st19{fill-rule:evenodd;clip-rule:evenodd;fill:#F56980;}
	.st20{opacity:0.3;fill:#F36D85;}
	.st21{opacity:0.3;fill:#F46B83;}
	.st22{fill:#24A45A;}
	.st23{fill:#3A5D87;}
	.st24{fill:#527EBB;}
	.st25{fill:#D82908;}
	.st26{fill:#E85749;}
	.st27{fill:#BCF7F7;}
	.st28{fill:#929496;}
	.st29{fill:none;stroke:#CDEBE0;stroke-width:5;stroke-linecap:round;stroke-miterlimit:10;}
	.st30{fill:#1A9169;}
	.st31{fill:none;stroke:#F7ADC1;stroke-width:12;stroke-miterlimit:10;}
	.st32{fill:none;stroke:#2AD19D;stroke-width:12;stroke-miterlimit:10;}
	.st33{fill:none;}
	.st34{fill:#BDF3F4;}
	.st35{fill:#34B188;}
	.st36{fill:#FDE49C;}
	.st37{fill:#FDEF6E;}
	.st38{fill:#1E845A;}
	.st39{fill:none;stroke:#A17644;stroke-width:2;stroke-miterlimit:10;}
	.st40{fill:#79E2BC;}
	.st41{fill:none;stroke:#A17644;stroke-width:3;stroke-miterlimit:10;}
	.st42{fill:none;stroke:#A17644;stroke-width:4;stroke-miterlimit:10;}
	.st43{fill:none;stroke:#A17644;stroke-width:3.4344;stroke-miterlimit:10;}
	.st44{fill:#808184;}
	.st45{fill:#BC4D65;}
	.st46{fill:#933850;}
	.st47{fill:none;stroke:#79E2BC;stroke-miterlimit:10;}
	.st48{opacity:0.2;}
	.st49{fill:#47B58D;}
	.st50{fill:none;stroke:#FFFFFF;stroke-width:8;stroke-linecap:round;stroke-miterlimit:10;}
	.st51{fill:none;stroke:#FFFFFF;stroke-width:2;stroke-miterlimit:10;}
	.st52{opacity:0.5;}
	.st53{fill:#CDE8DE;}
	.st54{clip-path:url(#SVGID_5_);}
	.st55{fill:#F6899C;}
	.st56{fill:#F66981;}
	.st57{fill:#FFFFFF;stroke:#F46B83;stroke-width:6;stroke-miterlimit:10;}
	.st58{clip-path:url(#SVGID_7_);fill:#47B58D;}
	.st59{clip-path:url(#SVGID_7_);}
	.st60{fill:none;stroke:#A17644;stroke-width:1.572;stroke-miterlimit:10;}
	.st61{clip-path:url(#SVGID_7_);fill:none;stroke:#79E2BC;stroke-width:2;stroke-miterlimit:10;}
	.st62{clip-path:url(#SVGID_7_);fill:#1E845A;}
	.st63{fill:none;stroke:#A17644;stroke-width:1.828;stroke-miterlimit:10;}
	.st64{fill:none;stroke:#A17644;stroke-width:3.4825;stroke-miterlimit:10;}
	.st65{fill:none;stroke:#A17644;stroke-width:4.1651;stroke-miterlimit:10;}
	.st66{fill:none;stroke:#A17644;stroke-width:2.8014;stroke-miterlimit:10;}
	.st67{fill:#37CF9D;}
	.st68{clip-path:url(#SVGID_9_);}
	.st69{fill:#ABE6CF;}
	.st70{display:none;}
</style>
<g id="Layer_1">
	<g>
		<g>
			<path class="st1" d="M288.7,315.7h-3.3l-0.5-2.3c-0.3-0.3-0.8-0.5-1.3-0.7c-0.5-0.2-1.1-0.3-1.7-0.3c-0.9,0-1.6,0.2-2.1,0.6
				c-0.5,0.4-0.8,0.9-0.8,1.5c0,0.6,0.2,1,0.7,1.4c0.5,0.4,1.5,0.7,2.9,1c2.3,0.5,4,1.1,5.1,2c1.1,0.9,1.7,2.1,1.7,3.6
				c0,1.7-0.7,3-2.1,4.1c-1.4,1.1-3.3,1.6-5.6,1.6c-1.4,0-2.7-0.2-3.9-0.6c-1.2-0.4-2.2-1-3.2-1.8l-0.1-4.2h3.5l0.7,2.4
				c0.3,0.3,0.7,0.4,1.2,0.6c0.5,0.1,1,0.2,1.6,0.2c1,0,1.8-0.2,2.3-0.5c0.5-0.4,0.8-0.9,0.8-1.5c0-0.5-0.3-1-0.8-1.4
				c-0.5-0.4-1.5-0.8-3-1.1c-2.2-0.4-3.8-1.1-4.9-2c-1.1-0.9-1.7-2.1-1.7-3.6c0-1.5,0.6-2.9,1.9-4c1.3-1.1,3.1-1.7,5.5-1.7
				c1.4,0,2.8,0.2,4.1,0.6c1.3,0.4,2.3,0.9,3,1.5L288.7,315.7z"/>
			<path class="st1" d="M299,304.9v4.5h3.2v3.5H299v9.4c0,0.7,0.1,1.2,0.4,1.5c0.3,0.3,0.7,0.5,1.2,0.5c0.3,0,0.6,0,0.9,0
				c0.3,0,0.5-0.1,0.9-0.1l0.4,3.6c-0.6,0.2-1.1,0.3-1.7,0.4c-0.5,0.1-1.1,0.1-1.8,0.1c-1.7,0-3-0.5-4-1.4c-0.9-0.9-1.4-2.4-1.4-4.5
				v-9.4h-2.7v-3.5h2.7v-4.5H299z"/>
			<path class="st1" d="M313.5,328.2c-2.7,0-4.8-0.9-6.4-2.6c-1.6-1.7-2.4-3.9-2.4-6.5v-0.7c0-2.7,0.8-5,2.3-6.8s3.5-2.7,6.1-2.6
				c2.5,0,4.4,0.8,5.8,2.3c1.4,1.5,2.1,3.5,2.1,6.1v2.7h-11l0,0.1c0.1,1.2,0.5,2.2,1.2,3s1.7,1.2,2.9,1.2c1.1,0,2-0.1,2.8-0.3
				c0.7-0.2,1.5-0.6,2.4-1.1l1.3,3.1c-0.8,0.6-1.8,1.1-3,1.5C316.4,328,315,328.2,313.5,328.2z M313.1,312.9c-0.9,0-1.7,0.4-2.2,1.1
				c-0.5,0.7-0.9,1.6-1,2.8l0.1,0.1h6.1v-0.4c0-1.1-0.2-1.9-0.7-2.5C314.8,313.2,314.1,312.9,313.1,312.9z"/>
			<path class="st1" d="M322.9,312.4v-3h7.2l0.2,2.2c0.5-0.8,1.2-1.4,2-1.8c0.8-0.4,1.7-0.6,2.7-0.6c2.3,0,4.1,0.9,5.3,2.7
				c1.3,1.8,1.9,4.1,1.9,7.1v0.4c0,2.7-0.6,4.9-1.9,6.6c-1.3,1.7-3,2.5-5.3,2.5c-1,0-1.8-0.2-2.6-0.5c-0.8-0.4-1.4-0.9-1.9-1.6v5.3
				l2.4,0.5v3h-9.8v-3l2.4-0.5v-18.6L322.9,312.4z M337.3,318.8c0-1.7-0.3-3.2-0.9-4.2s-1.5-1.6-2.7-1.6c-0.8,0-1.4,0.2-1.9,0.5
				c-0.5,0.3-0.9,0.7-1.3,1.3v8.1c0.3,0.5,0.7,0.9,1.3,1.2c0.5,0.3,1.2,0.4,2,0.4c1.2,0,2.1-0.5,2.7-1.4c0.6-0.9,0.8-2.2,0.8-3.8
				V318.8z"/>
			<path class="st1" d="M353.1,324.9l4.2-0.5v-16.9h-4.3v-2.9l9.2-1.7v21.4l4.2,0.5v3h-13.4V324.9z"/>
			<path class="st1" d="M210.9,354.4c0-0.6-0.2-1.1-0.7-1.4c-0.5-0.3-1.3-0.6-2.4-0.9s-2.1-0.5-2.7-0.9c-0.7-0.3-1.2-0.7-1.5-1.2
				c-0.3-0.5-0.5-1-0.5-1.7c0-1.1,0.5-2,1.4-2.7c0.9-0.7,2.1-1.1,3.5-1.1c1.5,0,2.7,0.4,3.6,1.2c0.9,0.8,1.4,1.8,1.4,3h-2.3
				c0-0.6-0.3-1.2-0.8-1.6c-0.5-0.4-1.2-0.7-2-0.7c-0.8,0-1.5,0.2-1.9,0.5s-0.7,0.8-0.7,1.4c0,0.5,0.2,1,0.6,1.2s1.2,0.5,2.3,0.8
				c1.1,0.3,2,0.6,2.7,0.9c0.7,0.4,1.2,0.8,1.6,1.3c0.3,0.5,0.5,1.1,0.5,1.8c0,1.2-0.5,2.1-1.4,2.8c-0.9,0.7-2.2,1.1-3.7,1.1
				c-1.1,0-2-0.2-2.8-0.6s-1.5-0.9-1.9-1.6c-0.5-0.7-0.7-1.4-0.7-2.2h2.3c0,0.8,0.3,1.4,0.9,1.8s1.3,0.7,2.2,0.7
				c0.9,0,1.5-0.2,2.1-0.5S210.9,354.9,210.9,354.4z"/>
			<path class="st1" d="M223.1,358.1c-1.8,0-3.2-0.6-4.4-1.8c-1.1-1.2-1.7-2.7-1.7-4.7v-0.4c0-1.3,0.3-2.5,0.8-3.5
				c0.5-1,1.2-1.8,2.1-2.4c0.9-0.6,1.9-0.9,2.9-0.9c1.7,0,3.1,0.6,4,1.7c1,1.1,1.4,2.8,1.4,4.9v0.9h-8.9c0,1.3,0.4,2.4,1.1,3.2
				c0.7,0.8,1.7,1.2,2.8,1.2c0.8,0,1.5-0.2,2-0.5c0.6-0.3,1-0.8,1.5-1.3l1.4,1.1C227,357.3,225.3,358.1,223.1,358.1z M222.8,346.3
				c-0.9,0-1.7,0.3-2.3,1c-0.6,0.7-1,1.6-1.1,2.8h6.6v-0.2c-0.1-1.1-0.4-2-0.9-2.7C224.5,346.6,223.7,346.3,222.8,346.3z"/>
			<path class="st1" d="M235.4,341.5v3.2h2.5v1.7h-2.5v8.2c0,0.5,0.1,0.9,0.3,1.2s0.6,0.4,1.1,0.4c0.3,0,0.6,0,1.1-0.1v1.8
				c-0.6,0.2-1.2,0.2-1.7,0.2c-1,0-1.8-0.3-2.3-0.9c-0.5-0.6-0.8-1.5-0.8-2.6v-8.2h-2.4v-1.7h2.4v-3.2H235.4z"/>
			<path class="st1" d="M257.9,356.6c-0.9,1-2.2,1.6-3.9,1.6c-1.4,0-2.5-0.4-3.2-1.2c-0.7-0.8-1.1-2-1.1-3.6v-8.6h2.3v8.5
				c0,2,0.8,3,2.4,3c1.7,0,2.9-0.6,3.4-1.9v-9.6h2.3v13.2h-2.1L257.9,356.6z"/>
			<path class="st1" d="M276.1,351.4c0,2-0.5,3.6-1.4,4.9c-0.9,1.2-2.2,1.8-3.7,1.8c-1.6,0-2.9-0.5-3.8-1.5v6.4H265v-18.3h2.1
				l0.1,1.5c0.9-1.1,2.2-1.7,3.8-1.7c1.6,0,2.8,0.6,3.8,1.8s1.4,2.9,1.4,5V351.4z M273.9,351.2c0-1.5-0.3-2.7-1-3.5
				c-0.6-0.9-1.5-1.3-2.6-1.3c-1.4,0-2.4,0.6-3.1,1.8v6.3c0.7,1.2,1.7,1.8,3.1,1.8c1.1,0,1.9-0.4,2.6-1.3
				C273.6,354.1,273.9,352.8,273.9,351.2z"/>
			<path class="st1" d="M292.5,354.6l3.1-9.9h2.4l-5.3,15.2c-0.8,2.2-2.1,3.3-3.9,3.3l-0.4,0l-0.8-0.2v-1.8l0.6,0
				c0.8,0,1.4-0.2,1.8-0.5c0.4-0.3,0.8-0.9,1.1-1.7l0.5-1.3l-4.7-13.1h2.5L292.5,354.6z"/>
			<path class="st1" d="M300.7,351.1c0-1.3,0.3-2.5,0.8-3.5c0.5-1,1.2-1.8,2.1-2.4c0.9-0.6,1.9-0.8,3.1-0.8c1.8,0,3.3,0.6,4.4,1.9
				c1.1,1.2,1.7,2.9,1.7,5v0.2c0,1.3-0.2,2.4-0.7,3.5c-0.5,1-1.2,1.8-2.1,2.4c-0.9,0.6-2,0.9-3.2,0.9c-1.8,0-3.2-0.6-4.4-1.9
				c-1.1-1.2-1.7-2.9-1.7-4.9V351.1z M303,351.4c0,1.5,0.3,2.6,1,3.5s1.6,1.3,2.7,1.3c1.1,0,2.1-0.4,2.7-1.3s1-2.2,1-3.8
				c0-1.4-0.3-2.6-1-3.5s-1.6-1.3-2.7-1.3c-1.1,0-2,0.4-2.7,1.3C303.4,348.5,303,349.8,303,351.4z"/>
			<path class="st1" d="M325.3,356.6c-0.9,1-2.2,1.6-3.9,1.6c-1.4,0-2.5-0.4-3.2-1.2c-0.7-0.8-1.1-2-1.1-3.6v-8.6h2.3v8.5
				c0,2,0.8,3,2.4,3c1.7,0,2.9-0.6,3.4-1.9v-9.6h2.3v13.2h-2.1L325.3,356.6z"/>
			<path class="st1" d="M338.8,346.7c-0.3-0.1-0.7-0.1-1.1-0.1c-1.5,0-2.5,0.6-3,1.9v9.4h-2.3v-13.2h2.2l0,1.5
				c0.7-1.2,1.8-1.8,3.1-1.8c0.4,0,0.8,0.1,1,0.2V346.7z"/>
			<path class="st1" d="M352.4,344.7v14.7c0,2.5-1.2,3.8-3.5,3.8c-0.5,0-1-0.1-1.4-0.2v-1.8c0.3,0.1,0.6,0.1,1,0.1
				c0.5,0,0.9-0.1,1.2-0.4c0.3-0.3,0.4-0.7,0.4-1.4v-14.8H352.4z M349.9,341.2c0-0.4,0.1-0.7,0.3-0.9c0.2-0.3,0.6-0.4,1-0.4
				c0.4,0,0.8,0.1,1,0.4c0.2,0.3,0.3,0.6,0.3,0.9s-0.1,0.7-0.3,0.9c-0.2,0.2-0.6,0.4-1,0.4s-0.8-0.1-1-0.4S349.9,341.5,349.9,341.2z
				"/>
			<path class="st1" d="M356.9,351.1c0-1.3,0.3-2.5,0.8-3.5c0.5-1,1.2-1.8,2.1-2.4c0.9-0.6,1.9-0.8,3.1-0.8c1.8,0,3.3,0.6,4.4,1.9
				c1.1,1.2,1.7,2.9,1.7,5v0.2c0,1.3-0.2,2.4-0.7,3.5c-0.5,1-1.2,1.8-2.1,2.4c-0.9,0.6-2,0.9-3.2,0.9c-1.8,0-3.2-0.6-4.4-1.9
				c-1.1-1.2-1.7-2.9-1.7-4.9V351.1z M359.2,351.4c0,1.5,0.3,2.6,1,3.5s1.6,1.3,2.7,1.3c1.1,0,2.1-0.4,2.7-1.3s1-2.2,1-3.8
				c0-1.4-0.3-2.6-1-3.5s-1.6-1.3-2.7-1.3c-1.1,0-2,0.4-2.7,1.3C359.5,348.5,359.2,349.8,359.2,351.4z"/>
			<path class="st1" d="M381.4,356.6c-0.9,1-2.2,1.6-3.9,1.6c-1.4,0-2.5-0.4-3.2-1.2c-0.7-0.8-1.1-2-1.1-3.6v-8.6h2.3v8.5
				c0,2,0.8,3,2.4,3c1.7,0,2.9-0.6,3.4-1.9v-9.6h2.3v13.2h-2.1L381.4,356.6z"/>
			<path class="st1" d="M394.9,346.7c-0.3-0.1-0.7-0.1-1.1-0.1c-1.5,0-2.5,0.6-3,1.9v9.4h-2.3v-13.2h2.2l0,1.5
				c0.7-1.2,1.8-1.8,3.1-1.8c0.4,0,0.8,0.1,1,0.2V346.7z"/>
			<path class="st1" d="M400.6,344.7l0.1,1.7c1-1.3,2.3-1.9,4-1.9c2.8,0,4.2,1.6,4.2,4.7v8.7h-2.3v-8.7c0-1-0.2-1.7-0.7-2.1
				c-0.4-0.5-1.1-0.7-2-0.7c-0.7,0-1.4,0.2-1.9,0.6c-0.6,0.4-1,0.9-1.3,1.5v9.4h-2.3v-13.2H400.6z"/>
			<path class="st1" d="M419.3,358.1c-1.8,0-3.2-0.6-4.4-1.8c-1.1-1.2-1.7-2.7-1.7-4.7v-0.4c0-1.3,0.3-2.5,0.8-3.5
				c0.5-1,1.2-1.8,2.1-2.4c0.9-0.6,1.9-0.9,2.9-0.9c1.7,0,3.1,0.6,4,1.7c1,1.1,1.4,2.8,1.4,4.9v0.9h-8.9c0,1.3,0.4,2.4,1.1,3.2
				c0.7,0.8,1.7,1.2,2.8,1.2c0.8,0,1.5-0.2,2-0.5c0.6-0.3,1-0.8,1.5-1.3l1.4,1.1C423.1,357.3,421.5,358.1,419.3,358.1z M419,346.3
				c-0.9,0-1.7,0.3-2.3,1c-0.6,0.7-1,1.6-1.1,2.8h6.6v-0.2c-0.1-1.1-0.4-2-0.9-2.7C420.7,346.6,419.9,346.3,419,346.3z"/>
			<path class="st1" d="M432.7,354.6l3.1-9.9h2.4l-5.3,15.2c-0.8,2.2-2.1,3.3-3.9,3.3l-0.4,0l-0.8-0.2v-1.8l0.6,0
				c0.8,0,1.4-0.2,1.8-0.5c0.4-0.3,0.8-0.9,1.1-1.7l0.5-1.3l-4.7-13.1h2.5L432.7,354.6z"/>
		</g>
		<g>
			<g>
				<g>
					<path class="st1" d="M354.5,200.7c0,19.1-34.5,67.2-34.5,67.2s-34.5-48.1-34.5-67.2S301,166,320,166S354.5,181.5,354.5,200.7z"
						/>
				</g>
			</g>
			<g>
				<g>
					<ellipse class="st49" cx="320" cy="202.3" rx="17.3" ry="17.4"/>
				</g>
			</g>
		</g>
	</g>
	<g>
		<path class="st1" d="M286.9,914.9h-3.3l-0.5-2.3c-0.3-0.3-0.8-0.5-1.3-0.7c-0.5-0.2-1.1-0.3-1.7-0.3c-0.9,0-1.6,0.2-2.1,0.6
			c-0.5,0.4-0.8,0.9-0.8,1.5c0,0.6,0.2,1,0.7,1.4c0.5,0.4,1.5,0.7,2.9,1c2.3,0.5,4,1.1,5.1,2c1.1,0.9,1.7,2.1,1.7,3.6
			c0,1.7-0.7,3-2.1,4.1c-1.4,1.1-3.3,1.6-5.6,1.6c-1.4,0-2.7-0.2-3.9-0.6c-1.2-0.4-2.2-1-3.2-1.8l-0.1-4.2h3.5l0.7,2.4
			c0.3,0.3,0.7,0.4,1.2,0.6c0.5,0.1,1,0.2,1.6,0.2c1,0,1.8-0.2,2.3-0.5c0.5-0.4,0.8-0.9,0.8-1.5c0-0.5-0.3-1-0.8-1.4
			c-0.5-0.4-1.5-0.8-3-1.1c-2.2-0.4-3.8-1.1-4.9-2c-1.1-0.9-1.7-2.1-1.7-3.6c0-1.5,0.6-2.9,1.9-4c1.3-1.1,3.1-1.7,5.5-1.7
			c1.4,0,2.8,0.2,4.1,0.6c1.3,0.4,2.3,0.9,3,1.5L286.9,914.9z"/>
		<path class="st1" d="M297.2,904v4.5h3.2v3.5h-3.2v9.4c0,0.7,0.1,1.2,0.4,1.5c0.3,0.3,0.7,0.5,1.2,0.5c0.3,0,0.6,0,0.9,0
			c0.3,0,0.5-0.1,0.9-0.1l0.4,3.6c-0.6,0.2-1.1,0.3-1.7,0.4c-0.5,0.1-1.1,0.1-1.8,0.1c-1.7,0-3-0.5-4-1.4c-0.9-0.9-1.4-2.4-1.4-4.5
			V912h-2.7v-3.5h2.7V904H297.2z"/>
		<path class="st1" d="M311.8,927.4c-2.7,0-4.8-0.9-6.4-2.6c-1.6-1.7-2.4-3.9-2.4-6.5v-0.7c0-2.7,0.8-5,2.3-6.8s3.5-2.7,6.1-2.6
			c2.5,0,4.4,0.8,5.8,2.3c1.4,1.5,2.1,3.5,2.1,6.1v2.7h-11l0,0.1c0.1,1.2,0.5,2.2,1.2,3s1.7,1.2,2.9,1.2c1.1,0,2-0.1,2.8-0.3
			c0.7-0.2,1.5-0.6,2.4-1.1l1.3,3.1c-0.8,0.6-1.8,1.1-3,1.5C314.6,927.2,313.2,927.4,311.8,927.4z M311.3,912
			c-0.9,0-1.7,0.4-2.2,1.1c-0.5,0.7-0.9,1.6-1,2.8l0.1,0.1h6.1v-0.4c0-1.1-0.2-1.9-0.7-2.5C313.1,912.4,312.3,912,311.3,912z"/>
		<path class="st1" d="M321.2,911.5v-3h7.2l0.2,2.2c0.5-0.8,1.2-1.4,2-1.8c0.8-0.4,1.7-0.6,2.7-0.6c2.3,0,4.1,0.9,5.3,2.7
			c1.3,1.8,1.9,4.1,1.9,7.1v0.4c0,2.7-0.6,4.9-1.9,6.6c-1.3,1.7-3,2.5-5.3,2.5c-1,0-1.8-0.2-2.6-0.5c-0.8-0.4-1.4-0.9-1.9-1.6v5.3
			l2.4,0.5v3h-9.8v-3l2.4-0.5v-18.6L321.2,911.5z M335.5,917.9c0-1.7-0.3-3.2-0.9-4.2s-1.5-1.6-2.7-1.6c-0.8,0-1.4,0.2-1.9,0.5
			c-0.5,0.3-0.9,0.7-1.3,1.3v8.1c0.3,0.5,0.7,0.9,1.3,1.2c0.5,0.3,1.2,0.4,2,0.4c1.2,0,2.1-0.5,2.7-1.4c0.6-0.9,0.8-2.2,0.8-3.8
			V917.9z"/>
		<path class="st1" d="M356.8,912.5h2.8c1.2,0,2.1-0.3,2.6-0.9c0.6-0.6,0.9-1.5,0.9-2.6c0-1-0.3-1.8-0.9-2.4
			c-0.6-0.6-1.4-0.9-2.5-0.9c-0.9,0-1.7,0.3-2.4,0.8c-0.6,0.5-1,1.3-1,2.2h-4.8l0-0.1c-0.1-1.9,0.7-3.6,2.2-4.8
			c1.6-1.3,3.5-1.9,5.8-1.9c2.6,0,4.6,0.6,6.2,1.8c1.5,1.2,2.3,3,2.3,5.3c0,1.1-0.3,2.1-1,3.1c-0.7,1-1.6,1.7-2.8,2.3
			c1.4,0.5,2.4,1.2,3.2,2.3c0.7,1,1.1,2.2,1.1,3.5c0,2.3-0.8,4.1-2.5,5.4c-1.7,1.3-3.8,2-6.4,2c-2.3,0-4.3-0.6-6-1.8
			c-1.7-1.2-2.5-3-2.4-5.2l0-0.1h4.8c0,1,0.3,1.7,1,2.4s1.5,0.9,2.6,0.9c1.2,0,2.1-0.3,2.7-1c0.7-0.6,1-1.5,1-2.6
			c0-1.3-0.3-2.3-1-2.9c-0.7-0.6-1.6-0.9-2.9-0.9h-2.8V912.5z"/>
		<path class="st1" d="M200.5,957v-11.5h-2.1v-1.7h2.1v-1.4c0-1.4,0.4-2.5,1.1-3.3c0.8-0.8,1.8-1.2,3.2-1.2c0.5,0,1,0.1,1.5,0.2
			l-0.1,1.8c-0.4-0.1-0.8-0.1-1.2-0.1c-0.7,0-1.3,0.2-1.7,0.6c-0.4,0.4-0.6,1-0.6,1.8v1.4h2.8v1.7h-2.8V957H200.5z"/>
		<path class="st1" d="M217.7,957c-0.1-0.3-0.2-0.7-0.3-1.4c-1,1.1-2.3,1.6-3.8,1.6c-1.3,0-2.4-0.4-3.2-1.1
			c-0.8-0.7-1.3-1.7-1.3-2.8c0-1.4,0.5-2.4,1.6-3.2c1-0.8,2.5-1.1,4.4-1.1h2.2v-1c0-0.8-0.2-1.4-0.7-1.9c-0.5-0.5-1.2-0.7-2.1-0.7
			c-0.8,0-1.5,0.2-2,0.6c-0.5,0.4-0.8,0.9-0.8,1.5h-2.3c0-0.7,0.2-1.3,0.7-1.9s1.1-1.1,1.9-1.5s1.7-0.5,2.6-0.5
			c1.5,0,2.7,0.4,3.6,1.1c0.9,0.8,1.3,1.8,1.3,3.1v6.1c0,1.2,0.2,2.2,0.5,2.9v0.2H217.7z M214,955.3c0.7,0,1.4-0.2,2-0.5
			s1.1-0.8,1.4-1.4v-2.7h-1.8c-2.8,0-4.2,0.8-4.2,2.4c0,0.7,0.2,1.3,0.7,1.7C212.6,955.1,213.2,955.3,214,955.3z"/>
		<path class="st1" d="M228.8,954l3.3-10.1h2.3l-4.7,13.2h-1.7l-4.8-13.2h2.3L228.8,954z"/>
		<path class="st1" d="M237.3,950.3c0-1.3,0.3-2.5,0.8-3.5c0.5-1,1.2-1.8,2.1-2.4c0.9-0.6,1.9-0.8,3.1-0.8c1.8,0,3.3,0.6,4.4,1.9
			c1.1,1.2,1.7,2.9,1.7,5v0.2c0,1.3-0.2,2.4-0.7,3.5c-0.5,1-1.2,1.8-2.1,2.4c-0.9,0.6-2,0.9-3.2,0.9c-1.8,0-3.2-0.6-4.4-1.9
			c-1.1-1.2-1.7-2.9-1.7-4.9V950.3z M239.6,950.6c0,1.5,0.3,2.6,1,3.5s1.6,1.3,2.7,1.3c1.1,0,2.1-0.4,2.7-1.3s1-2.2,1-3.8
			c0-1.4-0.3-2.6-1-3.5c-0.7-0.9-1.6-1.3-2.7-1.3c-1.1,0-2,0.4-2.7,1.3S239.6,948.9,239.6,950.6z"/>
		<path class="st1" d="M261.8,955.7c-0.9,1-2.2,1.6-3.9,1.6c-1.4,0-2.5-0.4-3.2-1.2c-0.7-0.8-1.1-2-1.1-3.6v-8.6h2.3v8.5
			c0,2,0.8,3,2.4,3c1.7,0,2.9-0.6,3.4-1.9v-9.6h2.3V957h-2.1L261.8,955.7z"/>
		<path class="st1" d="M275.3,945.8c-0.3-0.1-0.7-0.1-1.1-0.1c-1.5,0-2.5,0.6-3,1.9v9.4h-2.3v-13.2h2.2l0,1.5
			c0.7-1.2,1.8-1.8,3.1-1.8c0.4,0,0.8,0.1,1,0.2V945.8z"/>
		<path class="st1" d="M278.9,940.3c0-0.4,0.1-0.7,0.3-0.9s0.6-0.4,1-0.4s0.8,0.1,1,0.4s0.3,0.6,0.3,0.9c0,0.4-0.1,0.7-0.3,0.9
			s-0.6,0.4-1,0.4s-0.8-0.1-1-0.4S278.9,940.7,278.9,940.3z M281.3,957h-2.3v-13.2h2.3V957z"/>
		<path class="st1" d="M289.5,940.6v3.2h2.5v1.7h-2.5v8.2c0,0.5,0.1,0.9,0.3,1.2s0.6,0.4,1.1,0.4c0.3,0,0.6,0,1.1-0.1v1.8
			c-0.6,0.2-1.2,0.2-1.7,0.2c-1,0-1.8-0.3-2.3-0.9c-0.5-0.6-0.8-1.5-0.8-2.6v-8.2h-2.4v-1.7h2.4v-3.2H289.5z"/>
		<path class="st1" d="M301.6,957.3c-1.8,0-3.2-0.6-4.4-1.8s-1.7-2.7-1.7-4.7v-0.4c0-1.3,0.3-2.5,0.8-3.5c0.5-1,1.2-1.8,2.1-2.4
			c0.9-0.6,1.9-0.9,2.9-0.9c1.7,0,3.1,0.6,4,1.7c1,1.1,1.4,2.8,1.4,4.9v0.9h-8.9c0,1.3,0.4,2.4,1.1,3.2c0.7,0.8,1.7,1.2,2.8,1.2
			c0.8,0,1.5-0.2,2-0.5c0.6-0.3,1-0.8,1.5-1.3l1.4,1.1C305.5,956.4,303.8,957.3,301.6,957.3z M301.3,945.4c-0.9,0-1.7,0.3-2.3,1
			c-0.6,0.7-1,1.6-1.1,2.8h6.6V949c-0.1-1.1-0.4-2-0.9-2.7S302.3,945.4,301.3,945.4z"/>
		<path class="st1" d="M322.9,953.7l3.1-9.9h2.4l-5.3,15.2c-0.8,2.2-2.1,3.3-3.9,3.3l-0.4,0l-0.8-0.2v-1.8l0.6,0
			c0.8,0,1.4-0.2,1.8-0.5c0.4-0.3,0.8-0.9,1.1-1.7l0.5-1.3l-4.7-13.1h2.5L322.9,953.7z"/>
		<path class="st1" d="M331.1,950.3c0-1.3,0.3-2.5,0.8-3.5c0.5-1,1.2-1.8,2.1-2.4c0.9-0.6,1.9-0.8,3.1-0.8c1.8,0,3.3,0.6,4.4,1.9
			c1.1,1.2,1.7,2.9,1.7,5v0.2c0,1.3-0.2,2.4-0.7,3.5c-0.5,1-1.2,1.8-2.1,2.4c-0.9,0.6-2,0.9-3.2,0.9c-1.8,0-3.2-0.6-4.4-1.9
			c-1.1-1.2-1.7-2.9-1.7-4.9V950.3z M333.4,950.6c0,1.5,0.3,2.6,1,3.5s1.6,1.3,2.7,1.3c1.1,0,2.1-0.4,2.7-1.3s1-2.2,1-3.8
			c0-1.4-0.3-2.6-1-3.5c-0.7-0.9-1.6-1.3-2.7-1.3c-1.1,0-2,0.4-2.7,1.3S333.4,948.9,333.4,950.6z"/>
		<path class="st1" d="M355.6,955.7c-0.9,1-2.2,1.6-3.9,1.6c-1.4,0-2.5-0.4-3.2-1.2c-0.7-0.8-1.1-2-1.1-3.6v-8.6h2.3v8.5
			c0,2,0.8,3,2.4,3c1.7,0,2.9-0.6,3.4-1.9v-9.6h2.3V957h-2.1L355.6,955.7z"/>
		<path class="st1" d="M369.1,945.8c-0.3-0.1-0.7-0.1-1.1-0.1c-1.5,0-2.5,0.6-3,1.9v9.4h-2.3v-13.2h2.2l0,1.5
			c0.7-1.2,1.8-1.8,3.1-1.8c0.4,0,0.8,0.1,1,0.2V945.8z"/>
		<path class="st1" d="M386.8,945.8c-0.3-0.1-0.7-0.1-1.1-0.1c-1.5,0-2.5,0.6-3,1.9v9.4h-2.3v-13.2h2.2l0,1.5
			c0.7-1.2,1.8-1.8,3.1-1.8c0.4,0,0.8,0.1,1,0.2V945.8z"/>
		<path class="st1" d="M389.5,950.3c0-1.3,0.3-2.5,0.8-3.5c0.5-1,1.2-1.8,2.1-2.4c0.9-0.6,1.9-0.8,3.1-0.8c1.8,0,3.3,0.6,4.4,1.9
			c1.1,1.2,1.7,2.9,1.7,5v0.2c0,1.3-0.2,2.4-0.7,3.5c-0.5,1-1.2,1.8-2.1,2.4c-0.9,0.6-2,0.9-3.2,0.9c-1.8,0-3.2-0.6-4.4-1.9
			c-1.1-1.2-1.7-2.9-1.7-4.9V950.3z M391.8,950.6c0,1.5,0.3,2.6,1,3.5s1.6,1.3,2.7,1.3c1.1,0,2.1-0.4,2.7-1.3s1-2.2,1-3.8
			c0-1.4-0.3-2.6-1-3.5c-0.7-0.9-1.6-1.3-2.7-1.3c-1.1,0-2,0.4-2.7,1.3S391.8,948.9,391.8,950.6z"/>
		<path class="st1" d="M414,955.7c-0.9,1-2.2,1.6-3.9,1.6c-1.4,0-2.5-0.4-3.2-1.2c-0.7-0.8-1.1-2-1.1-3.6v-8.6h2.3v8.5
			c0,2,0.8,3,2.4,3c1.7,0,2.9-0.6,3.4-1.9v-9.6h2.3V957h-2.1L414,955.7z"/>
		<path class="st1" d="M424.2,940.6v3.2h2.5v1.7h-2.5v8.2c0,0.5,0.1,0.9,0.3,1.2s0.6,0.4,1.1,0.4c0.3,0,0.6,0,1.1-0.1v1.8
			c-0.6,0.2-1.2,0.2-1.7,0.2c-1,0-1.8-0.3-2.3-0.9c-0.5-0.6-0.8-1.5-0.8-2.6v-8.2h-2.4v-1.7h2.4v-3.2H424.2z"/>
		<path class="st1" d="M436.3,957.3c-1.8,0-3.2-0.6-4.4-1.8s-1.7-2.7-1.7-4.7v-0.4c0-1.3,0.3-2.5,0.8-3.5c0.5-1,1.2-1.8,2.1-2.4
			c0.9-0.6,1.9-0.9,2.9-0.9c1.7,0,3.1,0.6,4,1.7c1,1.1,1.4,2.8,1.4,4.9v0.9h-8.9c0,1.3,0.4,2.4,1.1,3.2c0.7,0.8,1.7,1.2,2.8,1.2
			c0.8,0,1.5-0.2,2-0.5c0.6-0.3,1-0.8,1.5-1.3l1.4,1.1C440.2,956.4,438.5,957.3,436.3,957.3z M436,945.4c-0.9,0-1.7,0.3-2.3,1
			c-0.6,0.7-1,1.6-1.1,2.8h6.6V949c-0.1-1.1-0.4-2-0.9-2.7S437,945.4,436,945.4z"/>
	</g>
	<g>
		<polygon class="st1" points="348.6,863.6 345.2,851.5 348.6,863.6 		"/>
		<polygon class="st1" points="291.4,863.6 291.4,863.6 294.8,851.5 		"/>
		<polygon class="st1" points="345.2,851.5 341.8,839.4 341.8,839.4 		"/>
		<polygon class="st1" points="298.2,839.4 294.8,851.5 298.2,839.4 		"/>
		<path class="st1" d="M345.5,865.9c2.5,1.7,3.9,0.7,3.1-2.2l-3.4-12.1l-3.4-12.1v0l-1.5-5.3l14.2-11.2l9.9-7.8
			c2.4-1.9,1.9-3.5-1.2-3.6l-12.6-0.5l-18.1-0.7l-10.6-28.8c-1-2.6-2.8-2.9-3.8,0l-2.9,7.8l-7.8,21l-18.1,0.7l-12.6,0.5
			c-3,0.1-3.6,1.8-1.2,3.6l9.9,7.8l14.2,11.2l-1.5,5.3v0l-3.4,12.1l-3.4,12.1c-0.8,2.9,0.6,3.9,3.1,2.2l18.8-12.6l6.7-4.5l4.6,3.1
			l0,0L345.5,865.9z"/>
	</g>
	<g>
		<path class="st1" d="M286.8,631.1h-3.3l-0.5-2.3c-0.3-0.3-0.8-0.5-1.3-0.7c-0.5-0.2-1.1-0.3-1.7-0.3c-0.9,0-1.6,0.2-2.1,0.6
			c-0.5,0.4-0.8,0.9-0.8,1.5c0,0.6,0.2,1,0.7,1.4c0.5,0.4,1.5,0.7,2.9,1c2.3,0.5,4,1.1,5.1,2c1.1,0.9,1.7,2.1,1.7,3.6
			c0,1.7-0.7,3-2.1,4.1c-1.4,1.1-3.3,1.6-5.6,1.6c-1.4,0-2.7-0.2-3.9-0.6c-1.2-0.4-2.2-1-3.2-1.8l-0.1-4.2h3.5l0.7,2.4
			c0.3,0.3,0.7,0.4,1.2,0.6c0.5,0.1,1,0.2,1.6,0.2c1,0,1.8-0.2,2.3-0.5c0.5-0.4,0.8-0.9,0.8-1.5c0-0.5-0.3-1-0.8-1.4
			c-0.5-0.4-1.5-0.8-3-1.1c-2.2-0.4-3.8-1.1-4.9-2c-1.1-0.9-1.7-2.1-1.7-3.6c0-1.5,0.6-2.9,1.9-4c1.3-1.1,3.1-1.7,5.5-1.7
			c1.4,0,2.8,0.2,4.1,0.6c1.3,0.4,2.3,0.9,3,1.5L286.8,631.1z"/>
		<path class="st1" d="M297,620.3v4.5h3.2v3.5H297v9.4c0,0.7,0.1,1.2,0.4,1.5c0.3,0.3,0.7,0.5,1.2,0.5c0.3,0,0.6,0,0.9,0
			c0.3,0,0.5-0.1,0.9-0.1l0.4,3.6c-0.6,0.2-1.1,0.3-1.7,0.4c-0.5,0.1-1.1,0.1-1.8,0.1c-1.7,0-3-0.5-4-1.4c-0.9-0.9-1.4-2.4-1.4-4.5
			v-9.4h-2.7v-3.5h2.7v-4.5H297z"/>
		<path class="st1" d="M311.6,643.6c-2.7,0-4.8-0.9-6.4-2.6c-1.6-1.7-2.4-3.9-2.4-6.5v-0.7c0-2.7,0.8-5,2.3-6.8s3.5-2.7,6.1-2.6
			c2.5,0,4.4,0.8,5.8,2.3c1.4,1.5,2.1,3.5,2.1,6.1v2.7h-11l0,0.1c0.1,1.2,0.5,2.2,1.2,3s1.7,1.2,2.9,1.2c1.1,0,2-0.1,2.8-0.3
			c0.7-0.2,1.5-0.6,2.4-1.1l1.3,3.1c-0.8,0.6-1.8,1.1-3,1.5C314.4,643.4,313.1,643.6,311.6,643.6z M311.1,628.3
			c-0.9,0-1.7,0.4-2.2,1.1c-0.5,0.7-0.9,1.6-1,2.8l0.1,0.1h6.1v-0.4c0-1.1-0.2-1.9-0.7-2.5C312.9,628.6,312.1,628.3,311.1,628.3z"/>
		<path class="st1" d="M321,627.8v-3h7.2l0.2,2.2c0.5-0.8,1.2-1.4,2-1.8c0.8-0.4,1.7-0.6,2.7-0.6c2.3,0,4.1,0.9,5.3,2.7
			s1.9,4.1,1.9,7.1v0.4c0,2.7-0.6,4.9-1.9,6.6c-1.3,1.7-3,2.5-5.3,2.5c-1,0-1.8-0.2-2.6-0.5c-0.8-0.4-1.4-0.9-1.9-1.6v5.3l2.4,0.5v3
			h-9.8v-3l2.4-0.5v-18.6L321,627.8z M335.4,634.2c0-1.7-0.3-3.2-0.9-4.2c-0.6-1.1-1.5-1.6-2.7-1.6c-0.8,0-1.4,0.2-1.9,0.5
			c-0.5,0.3-0.9,0.7-1.3,1.3v8.1c0.3,0.5,0.7,0.9,1.3,1.2c0.5,0.3,1.2,0.4,2,0.4c1.2,0,2.1-0.5,2.7-1.4c0.6-0.9,0.8-2.2,0.8-3.8
			V634.2z"/>
		<path class="st1" d="M351.3,643.3V640l8-8.6c1.2-1.3,2-2.5,2.5-3.4c0.5-0.9,0.7-1.8,0.7-2.6c0-1-0.3-1.9-0.8-2.6
			c-0.6-0.7-1.4-1-2.4-1c-1.2,0-2,0.4-2.6,1.2c-0.6,0.8-0.9,1.8-0.9,3.1H351l0-0.1c-0.1-2.2,0.7-4.1,2.2-5.7
			c1.5-1.6,3.6-2.3,6.2-2.3c2.6,0,4.6,0.7,6,2s2.2,3.1,2.2,5.3c0,1.5-0.4,2.9-1.2,4.2c-0.8,1.3-2.2,2.9-4.1,5l-4.4,4.8l0,0.1h6.5
			l0.2-2.5h3.8v6.3H351.3z"/>
		<path class="st1" d="M205.9,671.7c0.8,0,1.5-0.2,2.1-0.7c0.6-0.5,0.9-1.1,1-1.8h2.1c0,0.8-0.3,1.5-0.8,2.2s-1.1,1.2-1.9,1.6
			s-1.6,0.6-2.5,0.6c-1.8,0-3.2-0.6-4.3-1.8c-1.1-1.2-1.6-2.8-1.6-4.9v-0.4c0-1.3,0.2-2.4,0.7-3.4c0.5-1,1.1-1.8,2-2.3
			c0.9-0.6,1.9-0.8,3.1-0.8c1.5,0,2.7,0.4,3.7,1.3c1,0.9,1.5,2,1.6,3.5H209c-0.1-0.9-0.4-1.6-1-2.1c-0.6-0.5-1.3-0.8-2.2-0.8
			c-1.1,0-2,0.4-2.7,1.2c-0.6,0.8-0.9,2-0.9,3.6v0.4c0,1.5,0.3,2.7,0.9,3.5C203.8,671.3,204.7,671.7,205.9,671.7z"/>
		<path class="st1" d="M217.4,661.7c1-1.2,2.3-1.8,3.9-1.8c2.8,0,4.2,1.6,4.2,4.7v8.7h-2.3v-8.7c0-1-0.2-1.7-0.7-2.1
			c-0.4-0.5-1.1-0.7-2-0.7c-0.7,0-1.4,0.2-1.9,0.6c-0.6,0.4-1,0.9-1.3,1.5v9.4h-2.3v-18.8h2.3V661.7z"/>
		<path class="st1" d="M229.9,666.6c0-1.3,0.3-2.5,0.8-3.5c0.5-1,1.2-1.8,2.1-2.4c0.9-0.6,1.9-0.8,3.1-0.8c1.8,0,3.3,0.6,4.4,1.9
			c1.1,1.2,1.7,2.9,1.7,5v0.2c0,1.3-0.2,2.4-0.7,3.5c-0.5,1-1.2,1.8-2.1,2.4c-0.9,0.6-2,0.9-3.2,0.9c-1.8,0-3.2-0.6-4.4-1.9
			c-1.1-1.2-1.7-2.9-1.7-4.9V666.6z M232.1,666.8c0,1.5,0.3,2.6,1,3.5c0.7,0.9,1.6,1.3,2.7,1.3c1.1,0,2.1-0.5,2.7-1.3
			c0.7-0.9,1-2.2,1-3.8c0-1.4-0.3-2.6-1-3.5s-1.6-1.3-2.7-1.3c-1.1,0-2,0.4-2.7,1.3C232.5,663.9,232.1,665.2,232.1,666.8z"/>
		<path class="st1" d="M245.6,666.6c0-1.3,0.3-2.5,0.8-3.5c0.5-1,1.2-1.8,2.1-2.4c0.9-0.6,1.9-0.8,3.1-0.8c1.8,0,3.3,0.6,4.4,1.9
			c1.1,1.2,1.7,2.9,1.7,5v0.2c0,1.3-0.2,2.4-0.7,3.5c-0.5,1-1.2,1.8-2.1,2.4c-0.9,0.6-2,0.9-3.2,0.9c-1.8,0-3.2-0.6-4.4-1.9
			c-1.1-1.2-1.7-2.9-1.7-4.9V666.6z M247.9,666.8c0,1.5,0.3,2.6,1,3.5c0.7,0.9,1.6,1.3,2.7,1.3c1.1,0,2.1-0.5,2.7-1.3
			c0.7-0.9,1-2.2,1-3.8c0-1.4-0.3-2.6-1-3.5s-1.6-1.3-2.7-1.3c-1.1,0-2,0.4-2.7,1.3C248.2,663.9,247.9,665.2,247.9,666.8z"/>
		<path class="st1" d="M269.7,669.8c0-0.6-0.2-1.1-0.7-1.4c-0.5-0.3-1.3-0.6-2.4-0.9s-2.1-0.5-2.7-0.9c-0.7-0.3-1.2-0.7-1.5-1.2
			c-0.3-0.5-0.5-1-0.5-1.7c0-1.1,0.5-2,1.4-2.7c0.9-0.7,2.1-1.1,3.5-1.1c1.5,0,2.7,0.4,3.6,1.2s1.4,1.8,1.4,3h-2.3
			c0-0.6-0.3-1.2-0.8-1.6c-0.5-0.4-1.2-0.7-2-0.7c-0.8,0-1.5,0.2-1.9,0.5c-0.5,0.4-0.7,0.8-0.7,1.4c0,0.5,0.2,1,0.6,1.2
			c0.4,0.3,1.2,0.5,2.3,0.8c1.1,0.3,2,0.6,2.7,0.9s1.2,0.8,1.6,1.3c0.3,0.5,0.5,1.1,0.5,1.8c0,1.2-0.5,2.1-1.4,2.8
			c-0.9,0.7-2.2,1.1-3.7,1.1c-1.1,0-2-0.2-2.8-0.6s-1.5-0.9-1.9-1.6c-0.5-0.7-0.7-1.4-0.7-2.2h2.3c0,0.8,0.3,1.4,0.9,1.8
			s1.3,0.7,2.2,0.7c0.9,0,1.5-0.2,2.1-0.5S269.7,670.4,269.7,669.8z"/>
		<path class="st1" d="M281.8,673.5c-1.8,0-3.2-0.6-4.4-1.8c-1.1-1.2-1.7-2.7-1.7-4.7v-0.4c0-1.3,0.3-2.5,0.8-3.5
			c0.5-1,1.2-1.8,2.1-2.4s1.9-0.9,2.9-0.9c1.7,0,3.1,0.6,4,1.7s1.4,2.8,1.4,4.9v0.9H278c0,1.3,0.4,2.4,1.1,3.2
			c0.7,0.8,1.7,1.2,2.8,1.2c0.8,0,1.5-0.2,2-0.5c0.6-0.3,1-0.8,1.5-1.3l1.4,1.1C285.7,672.7,284.1,673.5,281.8,673.5z M281.6,661.7
			c-0.9,0-1.7,0.3-2.3,1s-1,1.6-1.1,2.8h6.6v-0.2c-0.1-1.1-0.4-2-0.9-2.7C283.3,662,282.5,661.7,281.6,661.7z"/>
		<path class="st1" d="M306.9,673.3c-0.1-0.3-0.2-0.7-0.3-1.4c-1,1.1-2.3,1.6-3.8,1.6c-1.3,0-2.4-0.4-3.2-1.1
			c-0.8-0.7-1.3-1.7-1.3-2.8c0-1.4,0.5-2.4,1.6-3.2c1-0.8,2.5-1.1,4.4-1.1h2.2v-1c0-0.8-0.2-1.4-0.7-1.9c-0.5-0.5-1.2-0.7-2.1-0.7
			c-0.8,0-1.5,0.2-2,0.6c-0.5,0.4-0.8,0.9-0.8,1.5h-2.3c0-0.7,0.2-1.3,0.7-1.9c0.5-0.6,1.1-1.1,1.9-1.5c0.8-0.4,1.7-0.5,2.6-0.5
			c1.5,0,2.7,0.4,3.6,1.1s1.3,1.8,1.3,3.1v6.1c0,1.2,0.2,2.2,0.5,2.9v0.2H306.9z M303.2,671.6c0.7,0,1.4-0.2,2-0.5s1.1-0.8,1.4-1.4
			v-2.7h-1.8c-2.8,0-4.2,0.8-4.2,2.4c0,0.7,0.2,1.3,0.7,1.7S302.5,671.6,303.2,671.6z"/>
		<path class="st1" d="M321,666.6c0-2.1,0.5-3.7,1.4-4.9c1-1.2,2.2-1.8,3.8-1.8c1.6,0,2.9,0.6,3.8,1.7l0.1-1.5h2.1V673
			c0,1.7-0.5,3.1-1.5,4c-1,1-2.4,1.5-4.1,1.5c-1,0-1.9-0.2-2.8-0.6s-1.6-1-2.1-1.7l1.2-1.4c1,1.2,2.2,1.8,3.6,1.8
			c1.1,0,2-0.3,2.6-0.9c0.6-0.6,0.9-1.5,0.9-2.6V672c-0.9,1-2.1,1.6-3.7,1.6c-1.5,0-2.8-0.6-3.8-1.9
			C321.5,670.4,321,668.7,321,666.6z M323.3,666.8c0,1.5,0.3,2.7,0.9,3.5c0.6,0.9,1.5,1.3,2.6,1.3c1.4,0,2.5-0.6,3.1-1.9v-6
			c-0.7-1.3-1.7-1.9-3.1-1.9c-1.1,0-2,0.4-2.6,1.3S323.3,665.1,323.3,666.8z"/>
		<path class="st1" d="M343.5,662.1c-0.3-0.1-0.7-0.1-1.1-0.1c-1.5,0-2.5,0.6-3,1.9v9.4h-2.3v-13.2h2.2l0,1.5
			c0.7-1.2,1.8-1.8,3.1-1.8c0.4,0,0.8,0.1,1,0.2V662.1z"/>
		<path class="st1" d="M352.3,673.5c-1.8,0-3.2-0.6-4.4-1.8c-1.1-1.2-1.7-2.7-1.7-4.7v-0.4c0-1.3,0.3-2.5,0.8-3.5
			c0.5-1,1.2-1.8,2.1-2.4s1.9-0.9,2.9-0.9c1.7,0,3.1,0.6,4,1.7s1.4,2.8,1.4,4.9v0.9h-8.9c0,1.3,0.4,2.4,1.1,3.2
			c0.7,0.8,1.7,1.2,2.8,1.2c0.8,0,1.5-0.2,2-0.5c0.6-0.3,1-0.8,1.5-1.3l1.4,1.1C356.2,672.7,354.5,673.5,352.3,673.5z M352,661.7
			c-0.9,0-1.7,0.3-2.3,1s-1,1.6-1.1,2.8h6.6v-0.2c-0.1-1.1-0.4-2-0.9-2.7C353.7,662,353,661.7,352,661.7z"/>
		<path class="st1" d="M367.1,673.5c-1.8,0-3.2-0.6-4.4-1.8c-1.1-1.2-1.7-2.7-1.7-4.7v-0.4c0-1.3,0.3-2.5,0.8-3.5
			c0.5-1,1.2-1.8,2.1-2.4s1.9-0.9,2.9-0.9c1.7,0,3.1,0.6,4,1.7s1.4,2.8,1.4,4.9v0.9h-8.9c0,1.3,0.4,2.4,1.1,3.2
			c0.7,0.8,1.7,1.2,2.8,1.2c0.8,0,1.5-0.2,2-0.5c0.6-0.3,1-0.8,1.5-1.3l1.4,1.1C370.9,672.7,369.3,673.5,367.1,673.5z M366.8,661.7
			c-0.9,0-1.7,0.3-2.3,1s-1,1.6-1.1,2.8h6.6v-0.2c-0.1-1.1-0.4-2-0.9-2.7C368.5,662,367.7,661.7,366.8,661.7z"/>
		<path class="st1" d="M378.5,660.1l0.1,1.7c1-1.3,2.3-1.9,4-1.9c2.8,0,4.2,1.6,4.2,4.7v8.7h-2.3v-8.7c0-1-0.2-1.7-0.7-2.1
			c-0.4-0.5-1.1-0.7-2-0.7c-0.7,0-1.4,0.2-1.9,0.6c-0.6,0.4-1,0.9-1.3,1.5v9.4h-2.3v-13.2H378.5z"/>
		<path class="st1" d="M394.1,673.3h-2.3v-18.8h2.3V673.3z"/>
		<path class="st1" d="M407.3,673.3c-0.1-0.3-0.2-0.7-0.3-1.4c-1,1.1-2.3,1.6-3.8,1.6c-1.3,0-2.4-0.4-3.2-1.1
			c-0.8-0.7-1.3-1.7-1.3-2.8c0-1.4,0.5-2.4,1.6-3.2c1-0.8,2.5-1.1,4.4-1.1h2.2v-1c0-0.8-0.2-1.4-0.7-1.9c-0.5-0.5-1.2-0.7-2.1-0.7
			c-0.8,0-1.5,0.2-2,0.6c-0.5,0.4-0.8,0.9-0.8,1.5h-2.3c0-0.7,0.2-1.3,0.7-1.9c0.5-0.6,1.1-1.1,1.9-1.5c0.8-0.4,1.7-0.5,2.6-0.5
			c1.5,0,2.7,0.4,3.6,1.1s1.3,1.8,1.3,3.1v6.1c0,1.2,0.2,2.2,0.5,2.9v0.2H407.3z M403.6,671.6c0.7,0,1.4-0.2,2-0.5s1.1-0.8,1.4-1.4
			v-2.7h-1.8c-2.8,0-4.2,0.8-4.2,2.4c0,0.7,0.2,1.3,0.7,1.7S402.8,671.6,403.6,671.6z"/>
		<path class="st1" d="M416.4,660.1l0.1,1.7c1-1.3,2.3-1.9,4-1.9c2.8,0,4.2,1.6,4.2,4.7v8.7h-2.3v-8.7c0-1-0.2-1.7-0.7-2.1
			c-0.4-0.5-1.1-0.7-2-0.7c-0.7,0-1.4,0.2-1.9,0.6c-0.6,0.4-1,0.9-1.3,1.5v9.4h-2.3v-13.2H416.4z"/>
		<path class="st1" d="M435.1,673.5c-1.8,0-3.2-0.6-4.4-1.8c-1.1-1.2-1.7-2.7-1.7-4.7v-0.4c0-1.3,0.3-2.5,0.8-3.5
			c0.5-1,1.2-1.8,2.1-2.4s1.9-0.9,2.9-0.9c1.7,0,3.1,0.6,4,1.7s1.4,2.8,1.4,4.9v0.9h-8.9c0,1.3,0.4,2.4,1.1,3.2
			c0.7,0.8,1.7,1.2,2.8,1.2c0.8,0,1.5-0.2,2-0.5c0.6-0.3,1-0.8,1.5-1.3l1.4,1.1C438.9,672.7,437.3,673.5,435.1,673.5z M434.8,661.7
			c-0.9,0-1.7,0.3-2.3,1s-1,1.6-1.1,2.8h6.6v-0.2c-0.1-1.1-0.4-2-0.9-2.7C436.5,662,435.7,661.7,434.8,661.7z"/>
	</g>
	<path class="st1" d="M320,578.9L320,578.9c-2.8,0-5-2.2-5-5V476c0-2.8,2.2-5,5-5l0,0c2.8,0,5,2.2,5,5v97.9
		C325,576.7,322.8,578.9,320,578.9z"/>
	<path class="st1" d="M288.1,499.2v-8.4c0-2.5,2-4.5,4.5-4.5h76.3c0,0,1.2-0.1,2.1,0.2s1.8,0.8,1.8,0.8l11.1,6.6
		c0,0,0.6,0.3,0.6,1.1c0,0.8-0.7,1.1-0.7,1.1l-11.1,6.6c0,0-0.7,0.5-1.7,0.7c-1,0.2-2.3,0.3-2.3,0.3h-76.2
		C290.1,503.7,288.1,501.7,288.1,499.2z"/>
	<path class="st1" d="M352.6,517.8v8.4c0,2.5-2,4.5-4.5,4.5h-76.3c0,0-1.2,0.1-2.1-0.2c-1-0.3-1.8-0.8-1.8-0.8l-11.1-6.6
		c0,0-0.6-0.3-0.6-1.1c0-0.8,0.7-1.1,0.7-1.1l11.1-6.6c0,0,0.7-0.5,1.7-0.7c1-0.2,2.3-0.3,2.3-0.3h76.2
		C350.5,513.3,352.6,515.3,352.6,517.8z"/>
	<line class="st50" x1="240.3" y1="578.9" x2="399.7" y2="578.9"/>
</g>
<g id="grid" class="st70">
</g>
</svg>
