<?xml version="1.0" encoding="utf-8"?>
<!-- Generator: Adobe Illustrator 18.1.1, SVG Export Plug-In . SVG Version: 6.00 Build 0)  -->
<svg version="1.1" xmlns="http://www.w3.org/2000/svg" xmlns:xlink="http://www.w3.org/1999/xlink" x="0px" y="0px"
	 viewBox="0 0 640 1136" style="enable-background:new 0 0 640 1136;" xml:space="preserve">
<style type="text/css">
	.st0{fill:#3B8C6B;}
	.st1{fill:#FFFFFF;}
	.st2{fill:url(#SVGID_1_);}
	.st3{opacity:0.3;}
	.st4{fill-rule:evenodd;clip-rule:evenodd;fill:#F46B83;}
	.st5{fill:#58BD98;}
	.st6{fill:#EFEFEF;}
	.st7{fill:none;stroke:#E0E1E2;stroke-width:11;stroke-miterlimit:10;}
	.st8{opacity:0.3;fill-rule:evenodd;clip-rule:evenodd;fill:#F56980;}
	.st9{fill:#F56980;}
	.st10{fill:#2AD19D;}
	.st11{fill-rule:evenodd;clip-rule:evenodd;fill:#FFFFFF;}
	.st12{fill:#F36D85;}
	.st13{fill:#E0E1E2;}
	.st14{fill:#F46B83;}
	.st15{fill:none;stroke:#F46B83;stroke-width:8;stroke-miterlimit:10;}
	.st16{opacity:0.3;fill:#2AD19D;}
	.st17{fill:#89D7E6;}
	.st18{clip-path:url(#SVGID_3_);}
	.st19{fill-rule:evenodd;clip-rule:evenodd;fill:#F56980;}
	.st20{opacity:0.3;fill:#F36D85;}
	.st21{opacity:0.3;fill:#F46B83;}
	.st22{fill:#24A45A;}
	.st23{fill:#3A5D87;}
	.st24{fill:#527EBB;}
	.st25{fill:#D82908;}
	.st26{fill:#E85749;}
	.st27{fill:#BCF7F7;}
	.st28{fill:#929496;}
	.st29{fill:none;stroke:#CDEBE0;stroke-width:5;stroke-linecap:round;stroke-miterlimit:10;}
	.st30{fill:#1A9169;}
	.st31{fill:none;stroke:#F7ADC1;stroke-width:12;stroke-miterlimit:10;}
	.st32{fill:none;stroke:#2AD19D;stroke-width:12;stroke-miterlimit:10;}
	.st33{fill:none;}
	.st34{fill:#BDF3F4;}
	.st35{fill:#34B188;}
	.st36{fill:#FDE49C;}
	.st37{fill:#FDEF6E;}
	.st38{fill:#1E845A;}
	.st39{fill:none;stroke:#A17644;stroke-width:2;stroke-miterlimit:10;}
	.st40{fill:#79E2BC;}
	.st41{fill:none;stroke:#A17644;stroke-width:3;stroke-miterlimit:10;}
	.st42{fill:none;stroke:#A17644;stroke-width:4;stroke-miterlimit:10;}
	.st43{fill:none;stroke:#A17644;stroke-width:3.4344;stroke-miterlimit:10;}
	.st44{fill:#808184;}
	.st45{fill:#BC4D65;}
	.st46{fill:#933850;}
	.st47{fill:none;stroke:#79E2BC;stroke-miterlimit:10;}
	.st48{opacity:0.2;}
	.st49{fill:#47B58D;}
	.st50{fill:none;stroke:#FFFFFF;stroke-width:8;stroke-linecap:round;stroke-miterlimit:10;}
	.st51{fill:none;stroke:#FFFFFF;stroke-width:2;stroke-miterlimit:10;}
	.st52{opacity:0.5;}
	.st53{fill:#CDE8DE;}
	.st54{clip-path:url(#SVGID_5_);}
	.st55{fill:#F6899C;}
	.st56{fill:#F66981;}
	.st57{fill:#FFFFFF;stroke:#F46B83;stroke-width:6;stroke-miterlimit:10;}
	.st58{clip-path:url(#SVGID_7_);fill:#47B58D;}
	.st59{clip-path:url(#SVGID_7_);}
	.st60{fill:none;stroke:#A17644;stroke-width:1.572;stroke-miterlimit:10;}
	.st61{clip-path:url(#SVGID_7_);fill:none;stroke:#79E2BC;stroke-width:2;stroke-miterlimit:10;}
	.st62{clip-path:url(#SVGID_7_);fill:#1E845A;}
	.st63{fill:none;stroke:#A17644;stroke-width:1.828;stroke-miterlimit:10;}
	.st64{fill:none;stroke:#A17644;stroke-width:3.4825;stroke-miterlimit:10;}
	.st65{fill:none;stroke:#A17644;stroke-width:4.1651;stroke-miterlimit:10;}
	.st66{fill:none;stroke:#A17644;stroke-width:2.8014;stroke-miterlimit:10;}
	.st67{fill:#37CF9D;}
	.st68{clip-path:url(#SVGID_9_);}
	.st69{fill:#ABE6CF;}
	.st70{display:none;}
</style>
<g id="Layer_1">
	<path class="st0" d="M280.3,326.6H50.7c-7.6-0.1-13.9-7.3-15.3-14.4l2.6-76.8c0-6.6,6.3-12,12.9-12h230.2c6.6,0,11.1,5.4,11.1,12
		v79.2C292.3,321.2,286.9,326.6,280.3,326.6z"/>
	<polygon class="st0" points="100.7,963.7 92.7,956.7 535.8,170.3 542.8,177.3 	"/>
	<g>
		<rect x="100.7" y="177.3" class="st0" width="442.1" height="786.4"/>
	</g>
	<g>
		<path class="st1" d="M240.8,80.2v-3h7.3l0.2,2.4c0.6-0.9,1.3-1.6,2.2-2.1s1.9-0.7,3.1-0.7c1.2,0,2.2,0.3,3,0.8
			c0.8,0.5,1.5,1.3,1.9,2.4c0.6-1,1.3-1.8,2.2-2.3c0.9-0.6,2-0.8,3.2-0.8c1.8,0,3.3,0.6,4.3,1.9c1.1,1.3,1.6,3.2,1.6,5.8v7.7
			l2.4,0.5v3h-9.6v-3l2.2-0.5v-7.7c0-1.4-0.2-2.4-0.7-2.9s-1.1-0.8-2-0.8c-0.7,0-1.3,0.2-1.8,0.5s-0.9,0.7-1.2,1.3
			c0,0.2,0,0.4,0,0.6c0,0.2,0,0.3,0,0.5v8.6l2,0.5v3h-9v-3l2-0.5v-7.7c0-1.4-0.2-2.3-0.7-2.9c-0.5-0.6-1.1-0.8-2.1-0.8
			c-0.7,0-1.3,0.1-1.8,0.4c-0.5,0.3-0.9,0.6-1.3,1.1v10l2.2,0.5v3H241v-3l2.4-0.5V80.7L240.8,80.2z"/>
		<path class="st1" d="M285.7,95.6c-0.1-0.3-0.3-0.6-0.4-0.9c-0.1-0.3-0.2-0.7-0.2-1c-0.6,0.7-1.3,1.2-2.2,1.7S281.1,96,280,96
			c-1.8,0-3.2-0.5-4.3-1.5c-1.1-1-1.6-2.3-1.6-4c0-1.7,0.7-3.1,2.1-4c1.4-0.9,3.4-1.4,6.1-1.4h2.5v-1.8c0-0.9-0.3-1.6-0.8-2.1
			c-0.5-0.5-1.3-0.7-2.3-0.7c-0.6,0-1.1,0.1-1.5,0.2c-0.4,0.1-0.8,0.3-1.1,0.5l-0.3,2h-3.8l0-4.1c0.9-0.6,2-1.1,3.1-1.6
			c1.2-0.4,2.5-0.6,3.9-0.6c2.3,0,4.2,0.6,5.6,1.7s2.1,2.7,2.1,4.8v7.6c0,0.3,0,0.6,0,0.8c0,0.3,0,0.5,0.1,0.7l1.5,0.2v3H285.7z
			 M281.3,92.3c0.8,0,1.4-0.2,2.1-0.5c0.6-0.3,1.1-0.7,1.4-1.2v-2.8h-2.5c-1.1,0-1.9,0.2-2.4,0.7c-0.5,0.5-0.8,1.1-0.8,1.8
			c0,0.6,0.2,1.1,0.6,1.5C280.1,92.1,280.6,92.3,281.3,92.3z"/>
		<path class="st1" d="M292.7,80.2v-3h7.2l0.2,2.2c0.5-0.8,1.2-1.4,2-1.8c0.8-0.4,1.7-0.6,2.7-0.6c2.3,0,4.1,0.9,5.3,2.7
			c1.3,1.8,1.9,4.1,1.9,7.1v0.4c0,2.7-0.6,4.9-1.9,6.6c-1.3,1.7-3,2.5-5.3,2.5c-1,0-1.8-0.2-2.6-0.5c-0.8-0.4-1.4-0.9-1.9-1.6v5.3
			l2.4,0.5v3H293v-3l2.4-0.5V80.7L292.7,80.2z M307.1,86.6c0-1.7-0.3-3.2-0.9-4.2c-0.6-1.1-1.5-1.6-2.7-1.6c-0.8,0-1.4,0.2-1.9,0.5
			c-0.5,0.3-0.9,0.7-1.3,1.3v8.1c0.3,0.5,0.7,0.9,1.3,1.2c0.5,0.3,1.2,0.4,2,0.4c1.2,0,2.1-0.5,2.7-1.4c0.6-0.9,0.8-2.2,0.8-3.8
			V86.6z"/>
		<path class="st1" d="M330.7,80.2l-1.7,0.3l2.4,8.3l0.3,1.7h0.1l0.4-1.7l2.4-8.3l-1.8-0.3v-3h8.4v3l-1.6,0.3l-5.5,15.2h-4.8
			l-5.5-15.2l-1.6-0.3v-3h8.4V80.2z"/>
		<path class="st1" d="M342.7,92.7l2.4-0.5V80.7l-2.7-0.5v-3h7.7v15l2.4,0.5v3h-9.8V92.7z M350.1,72.7h-5V69h5V72.7z"/>
		<path class="st1" d="M363,96c-2.7,0-4.8-0.9-6.4-2.6c-1.6-1.7-2.4-3.9-2.4-6.5v-0.7c0-2.7,0.8-5,2.3-6.8s3.5-2.7,6.1-2.6
			c2.5,0,4.4,0.8,5.8,2.3c1.4,1.5,2.1,3.5,2.1,6.1v2.7h-11l0,0.1c0.1,1.2,0.5,2.2,1.2,3c0.7,0.8,1.7,1.2,2.9,1.2
			c1.1,0,2-0.1,2.8-0.3c0.7-0.2,1.5-0.6,2.4-1.1l1.3,3.1c-0.8,0.6-1.8,1.1-3,1.5S364.5,96,363,96z M362.5,80.7
			c-0.9,0-1.7,0.4-2.2,1.1c-0.5,0.7-0.9,1.6-1,2.8l0.1,0.1h6.1v-0.4c0-1.1-0.2-1.9-0.7-2.5C364.3,81,363.5,80.7,362.5,80.7z"/>
		<path class="st1" d="M399.1,80.2l-1.9,0.2l-3.9,15.2h-4.2l-3.4-11h-0.1l-3.4,11h-4.2l-3.9-15.2l-1.9-0.2v-3h8.4v3l-2,0.4l1.7,8.5
			h0.1l3.5-11.8h3.3l3.5,11.9h0.1l1.7-8.5l-2-0.4v-3h8.4V80.2z"/>
		<path class="st1" d="M267.6,121.2c0,2-0.5,3.6-1.4,4.9c-0.9,1.2-2.2,1.8-3.7,1.8c-1.6,0-2.9-0.5-3.8-1.5v6.4h-2.3v-18.3h2.1
			l0.1,1.5c0.9-1.1,2.2-1.7,3.8-1.7c1.6,0,2.8,0.6,3.8,1.8c0.9,1.2,1.4,2.9,1.4,5V121.2z M265.4,120.9c0-1.5-0.3-2.7-1-3.5
			c-0.6-0.9-1.5-1.3-2.6-1.3c-1.4,0-2.4,0.6-3.1,1.8v6.3c0.7,1.2,1.7,1.8,3.1,1.8c1.1,0,1.9-0.4,2.6-1.3S265.4,122.6,265.4,120.9z"
			/>
		<path class="st1" d="M280.2,127.6c-0.1-0.3-0.2-0.7-0.3-1.4c-1.1,1.1-2.3,1.6-3.8,1.6c-1.3,0-2.4-0.4-3.2-1.1s-1.3-1.7-1.3-2.8
			c0-1.4,0.5-2.4,1.6-3.2c1-0.8,2.5-1.1,4.4-1.1h2.2v-1c0-0.8-0.2-1.4-0.7-1.9c-0.5-0.5-1.2-0.7-2.1-0.7c-0.8,0-1.5,0.2-2,0.6
			c-0.5,0.4-0.8,0.9-0.8,1.5h-2.3c0-0.7,0.2-1.3,0.7-1.9c0.5-0.6,1.1-1.1,1.9-1.5c0.8-0.4,1.7-0.5,2.6-0.5c1.5,0,2.7,0.4,3.6,1.1
			c0.9,0.8,1.3,1.8,1.3,3.1v6.1c0,1.2,0.2,2.2,0.5,2.9v0.2H280.2z M276.4,125.9c0.7,0,1.4-0.2,2-0.5s1.1-0.8,1.4-1.4v-2.7H278
			c-2.8,0-4.2,0.8-4.2,2.4c0,0.7,0.2,1.3,0.7,1.7C275.1,125.7,275.7,125.9,276.4,125.9z"/>
		<path class="st1" d="M293.5,116.5c-0.3-0.1-0.7-0.1-1.1-0.1c-1.5,0-2.5,0.6-3,1.9v9.4h-2.3v-13.2h2.2l0,1.5
			c0.7-1.2,1.8-1.8,3.1-1.8c0.4,0,0.8,0.1,1,0.2V116.5z"/>
		<path class="st1" d="M300.8,121.5l-1.4,1.5v4.6h-2.3v-18.8h2.3v11.3l1.2-1.5l4.1-4.3h2.7l-5.1,5.5l5.7,7.7h-2.6L300.8,121.5z"/>
		<path class="st1" d="M321,114.4l0.1,1.5c1-1.1,2.3-1.7,3.9-1.7c1.8,0,3.1,0.7,3.8,2.1c0.4-0.6,1-1.1,1.7-1.5
			c0.7-0.4,1.5-0.6,2.5-0.6c2.9,0,4.4,1.5,4.4,4.6v8.8h-2.3v-8.7c0-0.9-0.2-1.6-0.6-2.1c-0.4-0.5-1.2-0.7-2.2-0.7
			c-0.8,0-1.5,0.2-2.1,0.8c-0.6,0.5-0.9,1.2-1,2v8.8H327V119c0-1.9-0.9-2.9-2.8-2.9c-1.5,0-2.5,0.6-3,1.9v9.6h-2.3v-13.2H321z"/>
		<path class="st1" d="M341.7,120.9c0-1.3,0.3-2.5,0.8-3.5c0.5-1,1.2-1.8,2.1-2.4c0.9-0.6,1.9-0.8,3.1-0.8c1.8,0,3.3,0.6,4.4,1.9
			c1.1,1.2,1.7,2.9,1.7,5v0.2c0,1.3-0.2,2.4-0.7,3.5c-0.5,1-1.2,1.8-2.1,2.4s-2,0.9-3.2,0.9c-1.8,0-3.2-0.6-4.4-1.9
			c-1.1-1.2-1.7-2.9-1.7-4.9V120.9z M344,121.2c0,1.5,0.3,2.6,1,3.5s1.6,1.3,2.7,1.3c1.1,0,2.1-0.4,2.7-1.3c0.7-0.9,1-2.2,1-3.8
			c0-1.4-0.3-2.6-1-3.5c-0.7-0.9-1.6-1.3-2.7-1.3c-1.1,0-2,0.4-2.7,1.3C344.4,118.3,344,119.5,344,121.2z"/>
		<path class="st1" d="M357.5,120.9c0-2,0.5-3.7,1.4-4.9c1-1.2,2.2-1.8,3.8-1.8c1.5,0,2.8,0.5,3.7,1.6v-6.9h2.3v18.8h-2.1l-0.1-1.4
			c-0.9,1.1-2.2,1.7-3.8,1.7c-1.5,0-2.8-0.6-3.7-1.9c-1-1.3-1.4-2.9-1.4-4.9V120.9z M359.8,121.2c0,1.5,0.3,2.7,0.9,3.5
			c0.6,0.8,1.5,1.3,2.6,1.3c1.4,0,2.5-0.6,3.1-1.9V118c-0.7-1.2-1.7-1.9-3.1-1.9c-1.1,0-2,0.4-2.6,1.3
			C360.1,118.3,359.8,119.5,359.8,121.2z"/>
		<path class="st1" d="M379.2,127.9c-1.8,0-3.2-0.6-4.4-1.8s-1.7-2.7-1.7-4.7V121c0-1.3,0.3-2.5,0.8-3.5s1.2-1.8,2.1-2.4
			c0.9-0.6,1.9-0.9,2.9-0.9c1.7,0,3.1,0.6,4,1.7c1,1.1,1.4,2.8,1.4,4.9v0.9h-8.9c0,1.3,0.4,2.4,1.1,3.2c0.7,0.8,1.7,1.2,2.8,1.2
			c0.8,0,1.5-0.2,2-0.5c0.6-0.3,1-0.8,1.5-1.3l1.4,1.1C383,127,381.4,127.9,379.2,127.9z M378.9,116.1c-0.9,0-1.7,0.3-2.3,1
			c-0.6,0.7-1,1.6-1.1,2.8h6.6v-0.2c-0.1-1.1-0.4-2-0.9-2.7C380.6,116.4,379.8,116.1,378.9,116.1z"/>
	</g>
	<g>
		<rect x="93.5" y="170.3" class="st1" width="443.1" height="786.4"/>
	</g>
	<rect x="93.4" y="180.5" class="st6" width="443.3" height="780.1"/>
	<g>
		<g>
			<path class="st7" d="M162.6,254c0,0,0,90,0,112.8c0,22.8-10.6,59-57.1,59H93.4"/>
			<line class="st7" x1="162.6" y1="366.8" x2="536.8" y2="366.8"/>
			<line class="st7" x1="468.1" y1="366.8" x2="468.1" y2="254"/>
			<path class="st7" d="M406.5,366.8c0,0,0,288.5,0,317.1s18,56.8,49.5,56.8s80.5,0,80.5,0"/>
			<line class="st7" x1="536.5" y1="507.1" x2="93.4" y2="507.1"/>
			<line class="st7" x1="536.8" y1="644.6" x2="93.4" y2="644.6"/>
			<line class="st7" x1="275.1" y1="507.1" x2="275.1" y2="956.7"/>
			<polyline class="st7" points="93.4,809.6 314.9,809.6 536.8,809.6 			"/>
			<line class="st7" x1="432.5" y1="809.6" x2="432.5" y2="956.7"/>
			<line class="st7" x1="199" y1="369.3" x2="199" y2="644.6"/>
		</g>
		<path class="st7" d="M93.2,699.7c0,0,10.4,0,27,0s60.4,9.8,60.4,67.8s0,189.2,0,189.2"/>
	</g>
	<path class="st1" d="M417.4,360.7c-76.7-5.1-70.3-31.2-101.4-31.2s-24.7,26.1-101.4,31.2H93.6v106.6h121.1
		c76.7,5.1,69.3,31.2,100.4,31.2s25.7-26.1,102.4-31.2h119.2V360.7H417.4z"/>
	<g>
		<path class="st12" d="M315.2,481.1c-0.7,0-1.4-0.2-2.1-0.6l-19.7-12.4c-1.8-1.1-2.3-3.5-1.2-5.3c1.1-1.8,3.5-2.4,5.3-1.2
			l17.7,11.1l17.7-11.1c1.8-1.1,4.2-0.6,5.3,1.2c1.1,1.8,0.6,4.2-1.2,5.3l-19.7,12.4C316.7,480.9,316,481.1,315.2,481.1z"/>
	</g>
	<path class="st6" d="M442.3,573.3c15.7-13.6,26.2-33.1,28-55.1c-33.3,16.9-45,34.5-81.3,34.5c-37.5,0-47.3-18.8-82-36.1
		c1.4,22.9,12.3,43.3,28.7,57.3"/>
	<path class="st13" d="M335.6,573.8c14.3,12.1,32.8,19.5,53,19.5c20.5,0,39.3-7.5,53.6-20"/>
	<path class="st1" d="M388.6,429.5c-38.1,0-81.8,31.5-81.8,76.8c0,1.7,0.1,3.4,0.2,5.2c34.7,17.3,44.4,41.3,82,41.3
		c36.3,0,48-17.6,81.3-34.5c0.2-2.2,0.3-4.5,0.3-6.8C470.6,466.1,433.9,429.5,388.6,429.5z M433.4,491.2l-39.9,25.1
		c-1.3,0.8-2.7,1.2-4.2,1.2s-2.9-0.4-4.2-1.2l-39.9-25.1c-3.7-2.3-4.8-7.1-2.5-10.8c2.3-3.7,7.1-4.8,10.8-2.5l35.7,22.5l35.7-22.5
		c3.7-2.3,8.5-1.2,10.8,2.5C438.2,484.1,437.1,488.9,433.4,491.2z"/>
	<path class="st12" d="M425.1,478l-35.7,22.5L353.6,478c-3.7-2.3-8.5-1.2-10.8,2.5c-2.3,3.7-1.2,8.5,2.5,10.8l39.9,25.1
		c1.3,0.8,2.7,1.2,4.2,1.2s2.9-0.4,4.2-1.2l39.9-25.1c3.7-2.3,4.8-7.1,2.5-10.8C433.6,476.8,428.8,475.7,425.1,478z"/>
	<path class="st14" d="M516.2,637.3l-64.9-72.2c-0.1-0.2-0.3-0.3-0.4-0.4c-4.4,5-9.4,9.5-14.8,13.3c0.1,0.2,0.2,0.3,0.4,0.5
		l64.9,72.2c1.9,2.1,4.5,3.2,7.2,3.3c2.5,0.1,5-0.8,6.9-2.6C519.6,647.7,519.9,641.4,516.2,637.3z"/>
	<circle class="st15" cx="388.6" cy="511.4" r="81.9"/>
	<path class="st1" d="M536.6,170.3H93.2V254h173.9c2.7-24,23.1-42.6,47.8-42.6S360,230,362.7,254h173.9V170.3z"/>
	<path class="st16" d="M362.7,254c-2.7-24-23.1-42.6-47.8-42.6S269.8,230,267.1,254c-0.2,1.8-0.3,3.7-0.3,5.5
		c0,26.6,21.6,48.1,48.1,48.1s48.1-21.6,48.1-48.1C363,257.6,362.9,255.8,362.7,254z M325.3,273.7h-6.9v16.5h-7.1v-16.5h-6.9
		c-6.6,0-12.1-5.2-12.1-11.8c0-3.1,1.2-5.8,3.1-7.9c1.1-1.1,2.3-2.1,3.7-2.7c-1.2-1.4-1.7-3.3-1.7-5.2c0-4.7,3.5-8.5,8-9.2
		c0.7-4.5,4.5-8,9.2-8s8.5,3.5,9.2,8c4.5,0.7,8,4.5,8,9.2c0,1.9-0.7,3.8-1.7,5.2c1.4,0.7,2.7,1.6,3.7,2.7c1.9,2.1,3.1,4.8,3.1,7.9
		C337.4,268.2,331.9,273.7,325.3,273.7z"/>
	<path class="st1" d="M334.2,254c-1.1-1.1-2.3-2.1-3.7-2.7c0.9-1.4,1.7-3.3,1.7-5.2c0-4.7-3.5-8.5-8-9.2c-0.7-4.5-4.5-8-9.2-8
		s-8.5,3.5-9.2,8c-4.5,0.7-8,4.5-8,9.2c0,1.9,0.5,3.8,1.7,5.2c-1.4,0.7-2.7,1.6-3.7,2.7c-1.9,2.1-3.1,4.8-3.1,7.9
		c0,6.6,5.4,11.8,12.1,11.8h6.9v16.5h7.1v-16.5h6.9c6.6,0,12.1-5.4,12.1-11.8C337.4,258.8,336.2,256.1,334.2,254z"/>
	<path class="st8" d="M471.1,211h34.7c1.7,0,3.1-1.4,3.1-3.1c0-1.7-1.4-3.1-3.1-3.1h-34.7c-1.7,0-3.1,1.4-3.1,3.1
		C468.1,209.7,469.5,211,471.1,211z M505.9,229.4h-34.7c-1.7,0-3.1,1.4-3.1,3.1c0,1.7,1.4,3.1,3.1,3.1h34.7c1.7,0,3.1-1.4,3.1-3.1
		C508.9,230.8,507.6,229.4,505.9,229.4z M505.9,217.2h-34.7c-1.7,0-3.1,1.4-3.1,3.1c0,1.7,1.4,3.1,3.1,3.1h34.7
		c1.7,0,3.1-1.4,3.1-3.1C508.9,218.5,507.6,217.2,505.9,217.2z"/>
	<g class="st3">
		<g>
			<path class="st9" d="M130.3,203.2c0,2.8-5,9.7-5,9.7s-5-6.9-5-9.7s2.2-5,5-5C128,198.2,130.3,200.4,130.3,203.2z"/>
		</g>
	</g>
	<g class="st3">
		<g>
			<path class="st9" d="M162.6,232.6c0,2.8-5,9.7-5,9.7s-5-6.9-5-9.7s2.2-5,5-5S162.6,229.8,162.6,232.6z"/>
		</g>
	</g>
	<g class="st3">
		<path class="st9" d="M147.7,239.7h-11.1c-10.6,0-11.4-8-11.4-10.4c0-5.2,3.5-10.4,10.2-10.4h12.8c3.2,0,5.3-2.1,5.3-5.3
			c0-2.7-1.9-4.6-4.7-4.6h-13.1c-1.5,0-2.8-1.2-2.8-2.8s1.2-2.8,2.8-2.8h13.1c5.9,0,10.3,4.4,10.3,10.2c0,6.3-4.5,10.8-10.8,10.8
			h-12.8c-4.4,0-4.6,4.1-4.6,4.9c0,2.3,0.7,4.9,5.9,4.9h11.1c1.5,0,2.8,1.2,2.8,2.8S149.2,239.7,147.7,239.7z"/>
	</g>
	<g>
		<defs>
			<rect id="SVGID_2_" x="949.2" y="170.3" width="443.1" height="786.4"/>
		</defs>
		<clipPath id="SVGID_1_">
			<use xlink:href="#SVGID_2_"  style="overflow:visible;"/>
		</clipPath>
		<g style="clip-path:url(#SVGID_1_);">
			<rect x="580.7" y="176.6" class="st6" width="443.3" height="780.1"/>
			<g>
				<g>
					<path class="st7" d="M649.9,254c0,0,0,90,0,112.8c0,22.8-10.6,59-57.1,59h-12.1"/>
					<line class="st7" x1="1023.7" y1="507.1" x2="580.7" y2="507.1"/>
					<line class="st7" x1="1024" y1="644.6" x2="580.7" y2="644.6"/>
					<polyline class="st7" points="580.7,809.6 802.2,809.6 1024,809.6 					"/>
				</g>
				<path class="st7" d="M580.5,699.7c0,0,10.4,0,27,0c16.6,0,60.4,9.8,60.4,67.8s0,189.2,0,189.2"/>
			</g>
			<path class="st1" d="M1023.8,170.3H580.5V254h173.9c2.7-24,23.1-42.6,47.8-42.6S847.2,230,850,254h173.9V170.3z"/>
			<g class="st3">
				<g>
					<path class="st9" d="M617.5,203.2c0,2.8-5,9.7-5,9.7s-5-6.9-5-9.7c0-2.8,2.2-5,5-5C615.3,198.2,617.5,200.4,617.5,203.2z"/>
				</g>
			</g>
			<g class="st3">
				<g>
					<path class="st9" d="M649.9,232.6c0,2.8-5,9.7-5,9.7s-5-6.9-5-9.7c0-2.8,2.2-5,5-5C647.6,227.6,649.9,229.8,649.9,232.6z"/>
				</g>
			</g>
			<g class="st3">
				<path class="st9" d="M634.9,239.7h-11.1c-10.6,0-11.4-8-11.4-10.4c0-5.2,3.5-10.4,10.2-10.4h12.8c3.2,0,5.3-2.1,5.3-5.3
					c0-2.7-1.9-4.6-4.7-4.6h-13.1c-1.5,0-2.8-1.2-2.8-2.8s1.2-2.8,2.8-2.8h13.1c5.9,0,10.3,4.4,10.3,10.2c0,6.3-4.5,10.8-10.8,10.8
					h-12.8c-4.4,0-4.6,4.1-4.6,4.9c0,2.3,0.7,4.9,5.9,4.9h11.1c1.5,0,2.8,1.2,2.8,2.8S636.5,239.7,634.9,239.7z"/>
			</g>
		</g>
	</g>
	<g class="st52">
		<path class="st67" d="M264.3,403.4L264.3,403.4L259,418h-2.7l-5.3-14.6l-0.1,0l0.4,8.7v3.1l2.1,0.4v2.4h-8.2v-2.4l2.1-0.4v-14.2
			l-2.1-0.4v-2.4h2.1h5.2l5,14.5h0.1l5.1-14.5h7.3v2.4l-2.1,0.4v14.2l2.1,0.4v2.4h-8.2v-2.4l2.1-0.4v-3.1L264.3,403.4z"/>
		<path class="st67" d="M271.8,410.6c0-2.2,0.6-4,1.8-5.4c1.2-1.4,2.9-2.1,5.1-2.1c2.2,0,3.9,0.7,5.1,2.1c1.2,1.4,1.8,3.2,1.8,5.4
			v0.3c0,2.2-0.6,4-1.8,5.4c-1.2,1.4-2.9,2.1-5.1,2.1c-2.2,0-3.9-0.7-5.1-2.1c-1.2-1.4-1.8-3.2-1.8-5.4V410.6z M275.8,410.8
			c0,1.3,0.2,2.4,0.7,3.2s1.2,1.2,2.3,1.2c1,0,1.8-0.4,2.2-1.2s0.7-1.9,0.7-3.2v-0.3c0-1.3-0.2-2.4-0.7-3.2
			c-0.5-0.8-1.2-1.2-2.3-1.2c-1,0-1.8,0.4-2.2,1.2c-0.5,0.8-0.7,1.9-0.7,3.2V410.8z"/>
		<path class="st67" d="M299.6,408.4h-2.7l-0.4-1.8c-0.3-0.2-0.6-0.4-1-0.5s-0.9-0.2-1.4-0.2c-0.7,0-1.2,0.2-1.7,0.5
			c-0.4,0.3-0.6,0.7-0.6,1.2c0,0.4,0.2,0.8,0.6,1.1c0.4,0.3,1.2,0.6,2.3,0.8c1.8,0.4,3.2,0.9,4,1.6c0.9,0.7,1.3,1.7,1.3,2.9
			c0,1.3-0.6,2.4-1.7,3.2s-2.6,1.3-4.5,1.3c-1.1,0-2.2-0.2-3.1-0.5c-0.9-0.3-1.8-0.8-2.5-1.4l0-3.3h2.8l0.5,1.9
			c0.2,0.2,0.6,0.3,1,0.4s0.8,0.1,1.3,0.1c0.8,0,1.4-0.1,1.8-0.4c0.4-0.3,0.6-0.7,0.6-1.2c0-0.4-0.2-0.8-0.6-1.1
			c-0.4-0.3-1.2-0.6-2.3-0.8c-1.7-0.4-3-0.9-3.9-1.6c-0.9-0.7-1.3-1.6-1.3-2.8c0-1.2,0.5-2.3,1.5-3.2s2.5-1.3,4.3-1.3
			c1.1,0,2.2,0.2,3.2,0.5s1.8,0.7,2.4,1.2L299.6,408.4z"/>
		<path class="st67" d="M314.2,408.4h-2.7l-0.4-1.8c-0.3-0.2-0.6-0.4-1-0.5s-0.9-0.2-1.4-0.2c-0.7,0-1.2,0.2-1.7,0.5
			c-0.4,0.3-0.6,0.7-0.6,1.2c0,0.4,0.2,0.8,0.6,1.1c0.4,0.3,1.2,0.6,2.3,0.8c1.8,0.4,3.2,0.9,4,1.6c0.9,0.7,1.3,1.7,1.3,2.9
			c0,1.3-0.6,2.4-1.7,3.2s-2.6,1.3-4.5,1.3c-1.1,0-2.2-0.2-3.1-0.5c-0.9-0.3-1.8-0.8-2.5-1.4l0-3.3h2.8l0.5,1.9
			c0.2,0.2,0.6,0.3,1,0.4s0.8,0.1,1.3,0.1c0.8,0,1.4-0.1,1.8-0.4c0.4-0.3,0.6-0.7,0.6-1.2c0-0.4-0.2-0.8-0.6-1.1
			c-0.4-0.3-1.2-0.6-2.3-0.8c-1.7-0.4-3-0.9-3.9-1.6c-0.9-0.7-1.3-1.6-1.3-2.8c0-1.2,0.5-2.3,1.5-3.2s2.5-1.3,4.3-1.3
			c1.1,0,2.2,0.2,3.2,0.5s1.8,0.7,2.4,1.2L314.2,408.4z"/>
		<path class="st67" d="M333.1,398.3c2.3,0,4,0.6,5.3,1.7c1.3,1.2,2,2.7,2,4.6c0,1.9-0.7,3.4-2,4.6c-1.3,1.1-3.1,1.7-5.3,1.7h-3.3
			v4.4l2.1,0.4v2.4h-8.2v-2.4l2.1-0.4v-14.2l-2.1-0.4v-2.4h2.1H333.1z M329.8,407.8h3.3c1.1,0,1.9-0.3,2.5-0.9
			c0.6-0.6,0.8-1.4,0.8-2.3c0-0.9-0.3-1.7-0.8-2.4s-1.4-0.9-2.5-0.9h-3.3V407.8z"/>
		<path class="st67" d="M351.3,418c-0.1-0.2-0.2-0.5-0.3-0.8c-0.1-0.3-0.1-0.5-0.2-0.8c-0.5,0.5-1,1-1.7,1.3
			c-0.7,0.3-1.4,0.5-2.3,0.5c-1.4,0-2.6-0.4-3.4-1.2c-0.8-0.8-1.3-1.8-1.3-3.2c0-1.4,0.6-2.4,1.7-3.2c1.1-0.7,2.7-1.1,4.9-1.1h2
			v-1.4c0-0.7-0.2-1.3-0.6-1.6c-0.4-0.4-1-0.6-1.8-0.6c-0.5,0-0.9,0.1-1.2,0.2s-0.6,0.2-0.9,0.4l-0.3,1.6h-3l0-3.3
			c0.7-0.5,1.6-0.9,2.5-1.2c0.9-0.3,2-0.5,3.1-0.5c1.8,0,3.3,0.4,4.4,1.3c1.1,0.9,1.7,2.2,1.7,3.8v6.1c0,0.2,0,0.4,0,0.6
			c0,0.2,0,0.4,0,0.6l1.2,0.2v2.4H351.3z M347.8,415.4c0.6,0,1.1-0.1,1.6-0.4c0.5-0.3,0.9-0.6,1.1-1v-2.2h-2c-0.8,0-1.5,0.2-1.9,0.6
			c-0.4,0.4-0.7,0.9-0.7,1.4c0,0.5,0.2,0.9,0.5,1.2C346.8,415.2,347.3,415.4,347.8,415.4z"/>
		<path class="st67" d="M357.7,415.7l1.9-0.4v-9.1l-2.1-0.4v-2.4h5.8l0.2,2.1c0.3-0.8,0.8-1.4,1.3-1.8s1.2-0.6,1.9-0.6
			c0.2,0,0.4,0,0.7,0s0.4,0.1,0.6,0.1l-0.4,3.6l-1.6,0c-0.6,0-1.1,0.1-1.4,0.3c-0.4,0.2-0.7,0.5-0.9,1v7.1l1.9,0.4v2.4h-7.8V415.7z"
			/>
		<path class="st67" d="M368.3,399.3v-2.4h6.1v12.2h0.9l2.3-3.2l-1.3-0.2v-2.4h7.2v2.4l-1.7,0.4l-2.6,3.6l3.7,5.6l1.5,0.3v2.4h-6.8
			v-2.4l0.8-0.1l-2.2-3.6h-1.7v3.4l1.7,0.4v2.4h-7.6v-2.4l1.9-0.4v-15.6L368.3,399.3z"/>
	</g>
	<g class="st52">
		<defs>
			<rect id="SVGID_8_" x="92.7" y="378.8" class="st52" width="443.8" height="58.5"/>
		</defs>
		<clipPath id="SVGID_3_">
			<use xlink:href="#SVGID_8_"  style="overflow:visible;"/>
		</clipPath>
		<g class="st18">
			<path class="st69" d="M-0.5,405.6v-2.4h5.8l0.2,1.9c0.5-0.7,1.1-1.2,1.8-1.6c0.7-0.4,1.5-0.6,2.5-0.6c0.9,0,1.7,0.2,2.4,0.6
				s1.2,1,1.5,1.9c0.5-0.8,1-1.4,1.8-1.8c0.7-0.4,1.6-0.7,2.5-0.7c1.4,0,2.6,0.5,3.4,1.5c0.8,1,1.3,2.5,1.3,4.6v6.1l1.9,0.4v2.4
				h-7.6v-2.4l1.7-0.4V409c0-1.1-0.2-1.9-0.5-2.3s-0.9-0.7-1.6-0.7c-0.6,0-1,0.1-1.5,0.4c-0.4,0.2-0.7,0.6-1,1c0,0.2,0,0.3,0,0.4
				c0,0.1,0,0.2,0,0.4v6.9l1.6,0.4v2.4H8.5v-2.4l1.6-0.4V409c0-1.1-0.2-1.8-0.5-2.3S8.7,406,8,406c-0.5,0-1,0.1-1.4,0.3
				c-0.4,0.2-0.7,0.5-1,0.9v7.9l1.7,0.4v2.4h-7.6v-2.4l1.9-0.4V406L-0.5,405.6z"/>
			<path class="st69" d="M25.9,410.4c0-2.2,0.6-4,1.8-5.4c1.2-1.4,2.9-2.1,5.1-2.1c2.2,0,3.9,0.7,5.1,2.1c1.2,1.4,1.8,3.2,1.8,5.4
				v0.3c0,2.2-0.6,4-1.8,5.4c-1.2,1.4-2.9,2.1-5.1,2.1c-2.2,0-3.9-0.7-5.1-2.1c-1.2-1.4-1.8-3.2-1.8-5.4V410.4z M29.9,410.7
				c0,1.3,0.2,2.4,0.7,3.2s1.2,1.2,2.3,1.2c1,0,1.8-0.4,2.2-1.2s0.7-1.9,0.7-3.2v-0.3c0-1.3-0.2-2.4-0.7-3.2
				c-0.5-0.8-1.2-1.2-2.3-1.2c-1,0-1.8,0.4-2.2,1.2c-0.5,0.8-0.7,1.9-0.7,3.2V410.7z"/>
			<path class="st69" d="M53.7,408.3h-2.7l-0.4-1.8c-0.3-0.2-0.6-0.4-1-0.5s-0.9-0.2-1.4-0.2c-0.7,0-1.2,0.2-1.7,0.5
				c-0.4,0.3-0.6,0.7-0.6,1.2c0,0.4,0.2,0.8,0.6,1.1c0.4,0.3,1.2,0.6,2.3,0.8c1.8,0.4,3.2,0.9,4,1.6c0.9,0.7,1.3,1.7,1.3,2.9
				c0,1.3-0.6,2.4-1.7,3.2s-2.6,1.3-4.5,1.3c-1.1,0-2.2-0.2-3.1-0.5c-0.9-0.3-1.8-0.8-2.5-1.4l0-3.3h2.8l0.5,1.9
				c0.2,0.2,0.6,0.3,1,0.4s0.8,0.1,1.3,0.1c0.8,0,1.4-0.1,1.8-0.4c0.4-0.3,0.6-0.7,0.6-1.2c0-0.4-0.2-0.8-0.6-1.1
				c-0.4-0.3-1.2-0.6-2.3-0.8c-1.7-0.4-3-0.9-3.9-1.6c-0.9-0.7-1.3-1.6-1.3-2.8c0-1.2,0.5-2.3,1.5-3.2s2.5-1.3,4.3-1.3
				c1.1,0,2.2,0.2,3.2,0.5s1.8,0.7,2.4,1.2L53.7,408.3z"/>
			<path class="st69" d="M68.3,408.3h-2.7l-0.4-1.8c-0.3-0.2-0.6-0.4-1-0.5s-0.9-0.2-1.4-0.2c-0.7,0-1.2,0.2-1.7,0.5
				c-0.4,0.3-0.6,0.7-0.6,1.2c0,0.4,0.2,0.8,0.6,1.1c0.4,0.3,1.2,0.6,2.3,0.8c1.8,0.4,3.2,0.9,4,1.6c0.9,0.7,1.3,1.7,1.3,2.9
				c0,1.3-0.6,2.4-1.7,3.2s-2.6,1.3-4.5,1.3c-1.1,0-2.2-0.2-3.1-0.5c-0.9-0.3-1.8-0.8-2.5-1.4l0-3.3h2.8l0.5,1.9
				c0.2,0.2,0.6,0.3,1,0.4s0.8,0.1,1.3,0.1c0.8,0,1.4-0.1,1.8-0.4c0.4-0.3,0.6-0.7,0.6-1.2c0-0.4-0.2-0.8-0.6-1.1
				c-0.4-0.3-1.2-0.6-2.3-0.8c-1.7-0.4-3-0.9-3.9-1.6c-0.9-0.7-1.3-1.6-1.3-2.8c0-1.2,0.5-2.3,1.5-3.2s2.5-1.3,4.3-1.3
				c1.1,0,2.2,0.2,3.2,0.5s1.8,0.7,2.4,1.2L68.3,408.3z"/>
			<path class="st69" d="M77.7,405.6v-2.4h5.7l0.2,1.7c0.4-0.6,1-1.1,1.6-1.5s1.3-0.5,2.1-0.5c1.8,0,3.2,0.7,4.2,2.1
				c1,1.4,1.5,3.3,1.5,5.6v0.3c0,2.2-0.5,3.9-1.5,5.2s-2.4,2-4.2,2c-0.8,0-1.5-0.1-2-0.4c-0.6-0.3-1.1-0.7-1.5-1.3v4.2l1.9,0.4v2.4
				h-7.8v-2.4l1.9-0.4V406L77.7,405.6z M89,410.7c0-1.4-0.2-2.5-0.7-3.4s-1.2-1.3-2.1-1.3c-0.6,0-1.1,0.1-1.5,0.4
				c-0.4,0.2-0.8,0.6-1,1v6.4c0.2,0.4,0.6,0.7,1,0.9s0.9,0.3,1.6,0.3c1,0,1.7-0.4,2.1-1.1c0.4-0.7,0.7-1.8,0.7-3V410.7z"/>
			<path class="st69" d="M104.4,417.9c-0.1-0.2-0.2-0.5-0.3-0.8c-0.1-0.3-0.1-0.5-0.2-0.8c-0.5,0.5-1,1-1.7,1.3
				c-0.7,0.3-1.4,0.5-2.3,0.5c-1.4,0-2.6-0.4-3.4-1.2c-0.8-0.8-1.3-1.8-1.3-3.2c0-1.4,0.6-2.4,1.7-3.2c1.1-0.7,2.7-1.1,4.9-1.1h2
				v-1.4c0-0.7-0.2-1.3-0.6-1.6c-0.4-0.4-1-0.6-1.8-0.6c-0.5,0-0.9,0.1-1.2,0.2s-0.6,0.2-0.9,0.4L99,408h-3l0-3.3
				c0.7-0.5,1.6-0.9,2.5-1.2c0.9-0.3,2-0.5,3.1-0.5c1.8,0,3.3,0.4,4.4,1.3c1.1,0.9,1.7,2.2,1.7,3.8v6.1c0,0.2,0,0.4,0,0.6
				c0,0.2,0,0.4,0,0.6l1.2,0.2v2.4H104.4z M100.9,415.3c0.6,0,1.1-0.1,1.6-0.4c0.5-0.3,0.9-0.6,1.1-1v-2.2h-2
				c-0.8,0-1.5,0.2-1.9,0.6c-0.4,0.4-0.7,0.9-0.7,1.4c0,0.5,0.2,0.9,0.5,1.2C99.9,415.1,100.4,415.3,100.9,415.3z"/>
			<path class="st69" d="M110.9,415.5l1.9-0.4V406l-2.1-0.4v-2.4h5.8l0.2,2.1c0.3-0.8,0.8-1.4,1.3-1.8s1.2-0.6,1.9-0.6
				c0.2,0,0.4,0,0.7,0s0.4,0.1,0.6,0.1l-0.4,3.6l-1.6,0c-0.6,0-1.1,0.1-1.4,0.3c-0.4,0.2-0.7,0.5-0.9,1v7.1l1.9,0.4v2.4h-7.8V415.5z
				"/>
			<path class="st69" d="M121.4,399.1v-2.4h6.1V409h0.9l2.3-3.2l-1.3-0.2v-2.4h7.2v2.4l-1.7,0.4l-2.6,3.6l3.7,5.6l1.5,0.3v2.4h-6.8
				v-2.4l0.8-0.1l-2.2-3.6h-1.7v3.4l1.7,0.4v2.4h-7.6v-2.4l1.9-0.4v-15.6L121.4,399.1z"/>
		</g>
		<g class="st18">
			<path class="st69" d="M506.3,398.2v2.4l-2.1,0.4v11c0,1.9-0.6,3.4-1.9,4.5c-1.2,1.1-2.8,1.7-4.7,1.7c-2.1,0-3.7-0.5-4.9-1.5
				c-1.2-1-1.8-2.5-1.7-4.4l0-0.1h3.8c0,1,0.2,1.8,0.7,2.3c0.5,0.5,1.2,0.7,2,0.7c0.7,0,1.4-0.3,1.9-0.8c0.5-0.6,0.8-1.3,0.8-2.3
				v-11l-2.1-0.4v-2.4h6.1H506.3z"/>
			<path class="st69" d="M517.2,417.9c-0.1-0.2-0.2-0.5-0.3-0.8c-0.1-0.3-0.1-0.5-0.2-0.8c-0.5,0.5-1,1-1.7,1.3
				c-0.7,0.3-1.4,0.5-2.3,0.5c-1.4,0-2.6-0.4-3.4-1.2c-0.8-0.8-1.3-1.8-1.3-3.2c0-1.4,0.6-2.4,1.7-3.2c1.1-0.7,2.7-1.1,4.9-1.1h2
				v-1.4c0-0.7-0.2-1.3-0.6-1.6c-0.4-0.4-1-0.6-1.8-0.6c-0.5,0-0.9,0.1-1.2,0.2s-0.6,0.2-0.9,0.4l-0.3,1.6h-3l0-3.3
				c0.7-0.5,1.6-0.9,2.5-1.2c0.9-0.3,2-0.5,3.1-0.5c1.8,0,3.3,0.4,4.4,1.3c1.1,0.9,1.7,2.2,1.7,3.8v6.1c0,0.2,0,0.4,0,0.6
				c0,0.2,0,0.4,0,0.6l1.2,0.2v2.4H517.2z M513.7,415.3c0.6,0,1.1-0.1,1.6-0.4c0.5-0.3,0.9-0.6,1.1-1v-2.2h-2
				c-0.8,0-1.5,0.2-1.9,0.6c-0.4,0.4-0.7,0.9-0.7,1.4c0,0.5,0.2,0.9,0.5,1.2C512.7,415.1,513.2,415.3,513.7,415.3z"/>
			<path class="st69" d="M522.9,405.6v-2.4h5.8l0.2,1.9c0.5-0.7,1.1-1.2,1.8-1.6c0.7-0.4,1.5-0.6,2.5-0.6c0.9,0,1.7,0.2,2.4,0.6
				s1.2,1,1.5,1.9c0.5-0.8,1-1.4,1.8-1.8c0.7-0.4,1.6-0.7,2.5-0.7c1.4,0,2.6,0.5,3.4,1.5c0.8,1,1.3,2.5,1.3,4.6v6.1l1.9,0.4v2.4
				h-7.6v-2.4l1.7-0.4V409c0-1.1-0.2-1.9-0.5-2.3s-0.9-0.7-1.6-0.7c-0.6,0-1,0.1-1.5,0.4c-0.4,0.2-0.7,0.6-1,1c0,0.2,0,0.3,0,0.4
				c0,0.1,0,0.2,0,0.4v6.9l1.6,0.4v2.4h-7.1v-2.4l1.6-0.4V409c0-1.1-0.2-1.8-0.5-2.3s-0.9-0.7-1.6-0.7c-0.5,0-1,0.1-1.4,0.3
				c-0.4,0.2-0.7,0.5-1,0.9v7.9l1.7,0.4v2.4h-7.6v-2.4l1.9-0.4V406L522.9,405.6z"/>
			<path class="st69" d="M556.3,418.2c-2.1,0-3.8-0.7-5.1-2s-1.9-3.1-1.9-5.2v-0.5c0-2.2,0.6-4,1.8-5.4s2.8-2.1,4.8-2.1
				c2,0,3.5,0.6,4.6,1.8s1.6,2.8,1.6,4.8v2.2h-8.8l0,0.1c0.1,1,0.4,1.8,1,2.4c0.6,0.6,1.4,0.9,2.3,0.9c0.9,0,1.6-0.1,2.2-0.3
				s1.2-0.5,1.9-0.8l1.1,2.4c-0.6,0.5-1.4,0.9-2.4,1.2C558.6,418,557.5,418.2,556.3,418.2z M556,406c-0.7,0-1.3,0.3-1.7,0.8
				c-0.4,0.6-0.7,1.3-0.8,2.2l0,0.1h4.9v-0.4c0-0.8-0.2-1.5-0.6-2C557.3,406.3,556.8,406,556,406z"/>
			<path class="st69" d="M576.3,408.3h-2.7l-0.4-1.8c-0.3-0.2-0.6-0.4-1-0.5s-0.9-0.2-1.4-0.2c-0.7,0-1.2,0.2-1.7,0.5
				c-0.4,0.3-0.6,0.7-0.6,1.2c0,0.4,0.2,0.8,0.6,1.1c0.4,0.3,1.2,0.6,2.3,0.8c1.8,0.4,3.2,0.9,4,1.6c0.9,0.7,1.3,1.7,1.3,2.9
				c0,1.3-0.6,2.4-1.7,3.2s-2.6,1.3-4.5,1.3c-1.1,0-2.2-0.2-3.1-0.5c-0.9-0.3-1.8-0.8-2.5-1.4l0-3.3h2.8l0.5,1.9
				c0.2,0.2,0.6,0.3,1,0.4s0.8,0.1,1.3,0.1c0.8,0,1.4-0.1,1.8-0.4c0.4-0.3,0.6-0.7,0.6-1.2c0-0.4-0.2-0.8-0.6-1.1
				c-0.4-0.3-1.2-0.6-2.3-0.8c-1.7-0.4-3-0.9-3.9-1.6c-0.9-0.7-1.3-1.6-1.3-2.8c0-1.2,0.5-2.3,1.5-3.2s2.5-1.3,4.3-1.3
				c1.1,0,2.2,0.2,3.2,0.5s1.8,0.7,2.4,1.2L576.3,408.3z"/>
			<path class="st69" d="M584.8,399.6v3.6h2.6v2.8h-2.6v7.5c0,0.6,0.1,1,0.4,1.2c0.2,0.2,0.6,0.4,0.9,0.4c0.3,0,0.5,0,0.7,0
				c0.2,0,0.4-0.1,0.7-0.1l0.3,2.9c-0.4,0.1-0.9,0.2-1.3,0.3c-0.4,0.1-0.9,0.1-1.4,0.1c-1.4,0-2.4-0.4-3.2-1.1
				c-0.7-0.7-1.1-1.9-1.1-3.6V406h-2.2v-2.8h2.2v-3.6H584.8z"/>
			<path class="st69" d="M589.1,410.4c0-2.2,0.6-4,1.8-5.4c1.2-1.4,2.9-2.1,5.1-2.1c2.2,0,3.9,0.7,5.1,2.1c1.2,1.4,1.8,3.2,1.8,5.4
				v0.3c0,2.2-0.6,4-1.8,5.4c-1.2,1.4-2.9,2.1-5.1,2.1c-2.2,0-3.9-0.7-5.1-2.1c-1.2-1.4-1.8-3.2-1.8-5.4V410.4z M593.1,410.7
				c0,1.3,0.2,2.4,0.7,3.2s1.2,1.2,2.3,1.2c1,0,1.8-0.4,2.2-1.2s0.7-1.9,0.7-3.2v-0.3c0-1.3-0.2-2.4-0.7-3.2
				c-0.5-0.8-1.2-1.2-2.3-1.2c-1,0-1.8,0.4-2.2,1.2c-0.5,0.8-0.7,1.9-0.7,3.2V410.7z"/>
			<path class="st69" d="M625.9,405.6l-1.5,0.2l-3.1,12.1H618l-2.7-8.7h-0.1l-2.7,8.7h-3.3l-3.1-12.1l-1.5-0.2v-2.4h6.6v2.4
				l-1.6,0.3l1.4,6.7h0.1l2.7-9.4h2.7l2.8,9.4h0.1l1.4-6.7l-1.6-0.3v-2.4h6.6V405.6z"/>
			<path class="st69" d="M627.3,415.5l1.9-0.4V406l-2.1-0.4v-2.4h5.8l0.2,2.1c0.5-0.7,1.1-1.3,1.8-1.7s1.5-0.6,2.4-0.6
				c1.5,0,2.6,0.5,3.5,1.4c0.8,0.9,1.2,2.4,1.2,4.4v6.4l1.9,0.4v2.4h-7.6v-2.4l1.7-0.4v-6.4c0-1-0.2-1.7-0.6-2.1
				c-0.4-0.4-1-0.6-1.8-0.6c-0.5,0-1,0.1-1.4,0.3c-0.4,0.2-0.8,0.5-1,0.9v7.9l1.6,0.4v2.4h-7.5V415.5z"/>
		</g>
	</g>
	<g>
		<path class="st14" d="M252.3,207.3v101.7c0,7.1-5.4,12.9-12,12.9h-193c-6.6,0-12-5.8-12-12.9V207.3c0-7.1,5.4-12.9,12-12.9h193
			C246.9,194.5,252.3,200.3,252.3,207.3z"/>
		<g>
			<path class="st1" d="M70.5,231.5c0-0.6-0.2-1.1-0.7-1.4c-0.5-0.3-1.3-0.6-2.4-0.9s-2.1-0.5-2.7-0.9c-0.7-0.3-1.2-0.7-1.5-1.2
				c-0.3-0.5-0.5-1-0.5-1.7c0-1.1,0.5-2,1.4-2.7c0.9-0.7,2.1-1.1,3.5-1.1c1.5,0,2.7,0.4,3.6,1.2c0.9,0.8,1.4,1.8,1.4,3h-2.3
				c0-0.6-0.3-1.2-0.8-1.6c-0.5-0.4-1.2-0.7-2-0.7c-0.8,0-1.5,0.2-1.9,0.5c-0.5,0.4-0.7,0.8-0.7,1.4c0,0.5,0.2,1,0.6,1.2
				c0.4,0.3,1.2,0.5,2.3,0.8c1.1,0.3,2,0.6,2.7,0.9c0.7,0.4,1.2,0.8,1.6,1.3c0.3,0.5,0.5,1.1,0.5,1.8c0,1.2-0.5,2.1-1.4,2.8
				c-0.9,0.7-2.2,1.1-3.7,1.1c-1.1,0-2-0.2-2.8-0.6s-1.5-0.9-1.9-1.6c-0.5-0.7-0.7-1.4-0.7-2.2h2.3c0,0.8,0.3,1.4,0.9,1.8
				c0.6,0.4,1.3,0.7,2.2,0.7c0.9,0,1.5-0.2,2.1-0.5C70.2,232.5,70.5,232.1,70.5,231.5z"/>
			<path class="st1" d="M87.4,231.9l2.5-10.1h2.3L88.3,235h-1.8l-3.2-10l-3.1,10h-1.8l-3.8-13.2h2.2l2.6,9.9l3.1-9.9h1.8L87.4,231.9
				z"/>
			<path class="st1" d="M94.5,218.3c0-0.4,0.1-0.7,0.3-0.9c0.2-0.3,0.6-0.4,1-0.4s0.8,0.1,1,0.4c0.2,0.3,0.3,0.6,0.3,0.9
				s-0.1,0.7-0.3,0.9s-0.6,0.4-1,0.4s-0.8-0.1-1-0.4S94.5,218.6,94.5,218.3z M96.9,235h-2.3v-13.2h2.3V235z"/>
			<path class="st1" d="M111.7,228.5c0,2-0.5,3.6-1.4,4.9c-0.9,1.2-2.2,1.8-3.7,1.8c-1.6,0-2.9-0.5-3.8-1.5v6.4h-2.3v-18.3h2.1
				l0.1,1.5c0.9-1.1,2.2-1.7,3.8-1.7c1.6,0,2.8,0.6,3.8,1.8s1.4,2.9,1.4,5V228.5z M109.5,228.3c0-1.5-0.3-2.7-1-3.5
				c-0.6-0.9-1.5-1.3-2.6-1.3c-1.4,0-2.4,0.6-3.1,1.8v6.3c0.7,1.2,1.7,1.8,3.1,1.8c1.1,0,1.9-0.4,2.6-1.3
				C109.1,231.2,109.5,230,109.5,228.3z"/>
			<path class="st1" d="M120.1,235.2c-1.8,0-3.2-0.6-4.4-1.8c-1.1-1.2-1.7-2.7-1.7-4.7v-0.4c0-1.3,0.3-2.5,0.8-3.5
				c0.5-1,1.2-1.8,2.1-2.4c0.9-0.6,1.9-0.9,2.9-0.9c1.7,0,3.1,0.6,4,1.7c1,1.1,1.4,2.8,1.4,4.9v0.9h-8.9c0,1.3,0.4,2.4,1.1,3.2
				c0.7,0.8,1.7,1.2,2.8,1.2c0.8,0,1.5-0.2,2-0.5c0.6-0.3,1-0.8,1.5-1.3l1.4,1.1C123.9,234.4,122.3,235.2,120.1,235.2z M119.8,223.4
				c-0.9,0-1.7,0.3-2.3,1c-0.6,0.7-1,1.6-1.1,2.8h6.6V227c-0.1-1.1-0.4-2-0.9-2.7C121.5,223.7,120.7,223.4,119.8,223.4z"/>
			<path class="st1" d="M145.2,228.5c0,2-0.5,3.6-1.4,4.9c-0.9,1.2-2.2,1.8-3.7,1.8c-1.7,0-3-0.6-3.9-1.8l-0.1,1.5H134v-18.8h2.3v7
				c0.9-1.1,2.2-1.7,3.8-1.7s2.9,0.6,3.8,1.8c0.9,1.2,1.4,2.9,1.4,5V228.5z M142.9,228.3c0-1.5-0.3-2.7-0.9-3.6
				c-0.6-0.8-1.4-1.3-2.6-1.3c-1.5,0-2.6,0.7-3.2,2.1v5.7c0.7,1.4,1.8,2.1,3.2,2.1c1.1,0,1.9-0.4,2.5-1.3
				C142.6,231.2,142.9,230,142.9,228.3z"/>
			<path class="st1" d="M153.5,235.2c-1.8,0-3.2-0.6-4.4-1.8c-1.1-1.2-1.7-2.7-1.7-4.7v-0.4c0-1.3,0.3-2.5,0.8-3.5
				c0.5-1,1.2-1.8,2.1-2.4c0.9-0.6,1.9-0.9,2.9-0.9c1.7,0,3.1,0.6,4,1.7c1,1.1,1.4,2.8,1.4,4.9v0.9h-8.9c0,1.3,0.4,2.4,1.1,3.2
				c0.7,0.8,1.7,1.2,2.8,1.2c0.8,0,1.5-0.2,2-0.5c0.6-0.3,1-0.8,1.5-1.3l1.4,1.1C157.4,234.4,155.7,235.2,153.5,235.2z M153.2,223.4
				c-0.9,0-1.7,0.3-2.3,1c-0.6,0.7-1,1.6-1.1,2.8h6.6V227c-0.1-1.1-0.4-2-0.9-2.7C154.9,223.7,154.2,223.4,153.2,223.4z"/>
			<path class="st1" d="M164.3,218.6v3.2h2.5v1.7h-2.5v8.2c0,0.5,0.1,0.9,0.3,1.2s0.6,0.4,1.1,0.4c0.3,0,0.6,0,1.1-0.1v1.8
				c-0.6,0.2-1.2,0.2-1.7,0.2c-1,0-1.8-0.3-2.3-0.9c-0.5-0.6-0.8-1.5-0.8-2.6v-8.2h-2.4v-1.7h2.4v-3.2H164.3z"/>
			<path class="st1" d="M181.1,231.9l2.5-10.1h2.3l-3.8,13.2h-1.8l-3.2-10l-3.1,10h-1.8l-3.8-13.2h2.2l2.6,9.9l3.1-9.9h1.8
				L181.1,231.9z"/>
			<path class="st1" d="M193.7,235.2c-1.8,0-3.2-0.6-4.4-1.8c-1.1-1.2-1.7-2.7-1.7-4.7v-0.4c0-1.3,0.3-2.5,0.8-3.5
				c0.5-1,1.2-1.8,2.1-2.4c0.9-0.6,1.9-0.9,2.9-0.9c1.7,0,3.1,0.6,4,1.7c1,1.1,1.4,2.8,1.4,4.9v0.9h-8.9c0,1.3,0.4,2.4,1.1,3.2
				c0.7,0.8,1.7,1.2,2.8,1.2c0.8,0,1.5-0.2,2-0.5c0.6-0.3,1-0.8,1.5-1.3l1.4,1.1C197.6,234.4,195.9,235.2,193.7,235.2z M193.4,223.4
				c-0.9,0-1.7,0.3-2.3,1c-0.6,0.7-1,1.6-1.1,2.8h6.6V227c-0.1-1.1-0.4-2-0.9-2.7C195.1,223.7,194.4,223.4,193.4,223.4z"/>
			<path class="st1" d="M207,235.2c-1.8,0-3.2-0.6-4.4-1.8c-1.1-1.2-1.7-2.7-1.7-4.7v-0.4c0-1.3,0.3-2.5,0.8-3.5
				c0.5-1,1.2-1.8,2.1-2.4c0.9-0.6,1.9-0.9,2.9-0.9c1.7,0,3.1,0.6,4,1.7c1,1.1,1.4,2.8,1.4,4.9v0.9h-8.9c0,1.3,0.4,2.4,1.1,3.2
				c0.7,0.8,1.7,1.2,2.8,1.2c0.8,0,1.5-0.2,2-0.5c0.6-0.3,1-0.8,1.5-1.3l1.4,1.1C210.8,234.4,209.2,235.2,207,235.2z M206.7,223.4
				c-0.9,0-1.7,0.3-2.3,1c-0.6,0.7-1,1.6-1.1,2.8h6.6V227c-0.1-1.1-0.4-2-0.9-2.7C208.4,223.7,207.6,223.4,206.7,223.4z"/>
			<path class="st1" d="M216.9,221.8l0.1,1.7c1-1.3,2.3-1.9,4-1.9c2.8,0,4.2,1.6,4.2,4.7v8.7h-2.3v-8.7c0-1-0.2-1.7-0.7-2.1
				c-0.4-0.5-1.1-0.7-2-0.7c-0.7,0-1.4,0.2-1.9,0.6c-0.6,0.4-1,0.9-1.3,1.5v9.4h-2.3v-13.2H216.9z"/>
			<path class="st1" d="M81.7,258.5c0,2-0.5,3.6-1.4,4.9c-0.9,1.2-2.2,1.8-3.7,1.8c-1.6,0-2.9-0.5-3.8-1.5v6.4h-2.3v-18.3h2.1
				l0.1,1.5c0.9-1.1,2.2-1.7,3.8-1.7c1.6,0,2.8,0.6,3.8,1.8s1.4,2.9,1.4,5V258.5z M79.5,258.3c0-1.5-0.3-2.7-1-3.5
				c-0.6-0.9-1.5-1.3-2.6-1.3c-1.4,0-2.4,0.6-3.1,1.8v6.3c0.7,1.2,1.7,1.8,3.1,1.8c1.1,0,1.9-0.4,2.6-1.3
				C79.1,261.2,79.5,260,79.5,258.3z"/>
			<path class="st1" d="M92.7,265c-0.1-0.3-0.2-0.7-0.3-1.4c-1,1.1-2.3,1.6-3.8,1.6c-1.3,0-2.4-0.4-3.2-1.1
				c-0.8-0.7-1.3-1.7-1.3-2.8c0-1.4,0.5-2.4,1.6-3.2c1-0.8,2.5-1.1,4.4-1.1h2.2v-1c0-0.8-0.2-1.4-0.7-1.9c-0.5-0.5-1.2-0.7-2.1-0.7
				c-0.8,0-1.5,0.2-2,0.6c-0.5,0.4-0.8,0.9-0.8,1.5h-2.3c0-0.7,0.2-1.3,0.7-1.9c0.5-0.6,1.1-1.1,1.9-1.5c0.8-0.4,1.7-0.5,2.6-0.5
				c1.5,0,2.7,0.4,3.6,1.1c0.9,0.8,1.3,1.8,1.3,3.1v6.1c0,1.2,0.2,2.2,0.5,2.9v0.2H92.7z M89,263.3c0.7,0,1.4-0.2,2-0.5
				s1.1-0.8,1.4-1.4v-2.7h-1.8c-2.8,0-4.2,0.8-4.2,2.4c0,0.7,0.2,1.3,0.7,1.7C87.6,263.1,88.2,263.3,89,263.3z"/>
			<path class="st1" d="M104.6,253.8c-0.3-0.1-0.7-0.1-1.1-0.1c-1.5,0-2.5,0.6-3,1.9v9.4h-2.3v-13.2h2.2l0,1.5
				c0.7-1.2,1.8-1.8,3.1-1.8c0.4,0,0.8,0.1,1,0.2V253.8z"/>
			<path class="st1" d="M110.3,258.9l-1.4,1.5v4.6h-2.3v-18.8h2.3v11.3l1.2-1.5l4.1-4.3h2.7l-5.1,5.5l5.7,7.7h-2.6L110.3,258.9z"/>
			<path class="st1" d="M127,261.5c0-0.6-0.2-1.1-0.7-1.4c-0.5-0.3-1.3-0.6-2.4-0.9s-2.1-0.5-2.7-0.9c-0.7-0.3-1.2-0.7-1.5-1.2
				c-0.3-0.5-0.5-1-0.5-1.7c0-1.1,0.5-2,1.4-2.7c0.9-0.7,2.1-1.1,3.5-1.1c1.5,0,2.7,0.4,3.6,1.2c0.9,0.8,1.4,1.8,1.4,3h-2.3
				c0-0.6-0.3-1.2-0.8-1.6c-0.5-0.4-1.2-0.7-2-0.7c-0.8,0-1.5,0.2-1.9,0.5c-0.5,0.4-0.7,0.8-0.7,1.4c0,0.5,0.2,1,0.6,1.2
				c0.4,0.3,1.2,0.5,2.3,0.8c1.1,0.3,2,0.6,2.7,0.9c0.7,0.4,1.2,0.8,1.6,1.3c0.3,0.5,0.5,1.1,0.5,1.8c0,1.2-0.5,2.1-1.4,2.8
				c-0.9,0.7-2.2,1.1-3.7,1.1c-1.1,0-2-0.2-2.8-0.6s-1.5-0.9-1.9-1.6c-0.5-0.7-0.7-1.4-0.7-2.2h2.3c0,0.8,0.3,1.4,0.9,1.8
				c0.6,0.4,1.3,0.7,2.2,0.7c0.9,0,1.5-0.2,2.1-0.5C126.7,262.5,127,262.1,127,261.5z"/>
			<path class="st1" d="M137.8,258.3c0-1.3,0.3-2.5,0.8-3.5c0.5-1,1.2-1.8,2.1-2.4c0.9-0.6,1.9-0.8,3.1-0.8c1.8,0,3.3,0.6,4.4,1.9
				c1.1,1.2,1.7,2.9,1.7,5v0.2c0,1.3-0.2,2.4-0.7,3.5c-0.5,1-1.2,1.8-2.1,2.4c-0.9,0.6-2,0.9-3.2,0.9c-1.8,0-3.2-0.6-4.4-1.9
				c-1.1-1.2-1.7-2.9-1.7-4.9V258.3z M140.1,258.5c0,1.5,0.3,2.6,1,3.5c0.7,0.9,1.6,1.3,2.7,1.3c1.1,0,2.1-0.4,2.7-1.3
				c0.7-0.9,1-2.2,1-3.8c0-1.4-0.3-2.6-1-3.5c-0.7-0.9-1.6-1.3-2.7-1.3c-1.1,0-2,0.4-2.7,1.3C140.4,255.6,140.1,256.9,140.1,258.5z"
				/>
			<path class="st1" d="M154.8,251.8l0.1,1.7c1-1.3,2.3-1.9,4-1.9c2.8,0,4.2,1.6,4.2,4.7v8.7h-2.3v-8.7c0-1-0.2-1.7-0.7-2.1
				c-0.4-0.5-1.1-0.7-2-0.7c-0.7,0-1.4,0.2-1.9,0.6c-0.6,0.4-1,0.9-1.3,1.5v9.4h-2.3v-13.2H154.8z"/>
			<path class="st1" d="M177,261.7l3.1-9.9h2.4l-5.3,15.2c-0.8,2.2-2.1,3.3-3.9,3.3l-0.4,0l-0.8-0.2v-1.8l0.6,0
				c0.8,0,1.4-0.2,1.8-0.5c0.4-0.3,0.8-0.9,1.1-1.7l0.5-1.3l-4.7-13.1h2.5L177,261.7z"/>
			<path class="st1" d="M183.7,258.3c0-1.3,0.3-2.5,0.8-3.5c0.5-1,1.2-1.8,2.1-2.4c0.9-0.6,1.9-0.8,3.1-0.8c1.8,0,3.3,0.6,4.4,1.9
				c1.1,1.2,1.7,2.9,1.7,5v0.2c0,1.3-0.2,2.4-0.7,3.5c-0.5,1-1.2,1.8-2.1,2.4c-0.9,0.6-2,0.9-3.2,0.9c-1.8,0-3.2-0.6-4.4-1.9
				c-1.1-1.2-1.7-2.9-1.7-4.9V258.3z M185.9,258.5c0,1.5,0.3,2.6,1,3.5c0.7,0.9,1.6,1.3,2.7,1.3c1.1,0,2.1-0.4,2.7-1.3
				c0.7-0.9,1-2.2,1-3.8c0-1.4-0.3-2.6-1-3.5c-0.7-0.9-1.6-1.3-2.7-1.3c-1.1,0-2,0.4-2.7,1.3C186.3,255.6,185.9,256.9,185.9,258.5z"
				/>
			<path class="st1" d="M206.7,263.7c-0.9,1-2.2,1.6-3.9,1.6c-1.4,0-2.5-0.4-3.2-1.2c-0.7-0.8-1.1-2-1.1-3.6v-8.6h2.3v8.5
				c0,2,0.8,3,2.4,3c1.7,0,2.9-0.6,3.4-1.9v-9.6h2.3V265h-2.1L206.7,263.7z"/>
			<path class="st1" d="M218.7,253.8c-0.3-0.1-0.7-0.1-1.1-0.1c-1.5,0-2.5,0.6-3,1.9v9.4h-2.3v-13.2h2.2l0,1.5
				c0.7-1.2,1.8-1.8,3.1-1.8c0.4,0,0.8,0.1,1,0.2V253.8z"/>
			<path class="st1" d="M107.4,281.8v14.7c0,2.5-1.2,3.8-3.5,3.8c-0.5,0-1-0.1-1.4-0.2v-1.8c0.3,0.1,0.6,0.1,1,0.1
				c0.5,0,0.9-0.1,1.2-0.4c0.3-0.3,0.4-0.7,0.4-1.4v-14.8H107.4z M104.9,278.3c0-0.4,0.1-0.7,0.3-0.9c0.2-0.3,0.6-0.4,1-0.4
				c0.4,0,0.8,0.1,1,0.4c0.2,0.3,0.3,0.6,0.3,0.9s-0.1,0.7-0.3,0.9c-0.2,0.2-0.6,0.4-1,0.4s-0.8-0.1-1-0.4S104.9,278.6,104.9,278.3z
				"/>
			<path class="st1" d="M110.4,288.3c0-1.3,0.3-2.5,0.8-3.5c0.5-1,1.2-1.8,2.1-2.4c0.9-0.6,1.9-0.8,3.1-0.8c1.8,0,3.3,0.6,4.4,1.9
				c1.1,1.2,1.7,2.9,1.7,5v0.2c0,1.3-0.2,2.4-0.7,3.5c-0.5,1-1.2,1.8-2.1,2.4c-0.9,0.6-2,0.9-3.2,0.9c-1.8,0-3.2-0.6-4.4-1.9
				c-1.1-1.2-1.7-2.9-1.7-4.9V288.3z M112.7,288.5c0,1.5,0.3,2.6,1,3.5c0.7,0.9,1.6,1.3,2.7,1.3c1.1,0,2.1-0.4,2.7-1.3
				c0.7-0.9,1-2.2,1-3.8c0-1.4-0.3-2.6-1-3.5c-0.7-0.9-1.6-1.3-2.7-1.3c-1.1,0-2,0.4-2.7,1.3C113.1,285.6,112.7,286.9,112.7,288.5z"
				/>
			<path class="st1" d="M133.5,293.7c-0.9,1-2.2,1.6-3.9,1.6c-1.4,0-2.5-0.4-3.2-1.2c-0.7-0.8-1.1-2-1.1-3.6v-8.6h2.3v8.5
				c0,2,0.8,3,2.4,3c1.7,0,2.9-0.6,3.4-1.9v-9.6h2.3V295h-2.1L133.5,293.7z"/>
			<path class="st1" d="M145.5,283.8c-0.3-0.1-0.7-0.1-1.1-0.1c-1.5,0-2.5,0.6-3,1.9v9.4h-2.3v-13.2h2.2l0,1.5
				c0.7-1.2,1.8-1.8,3.1-1.8c0.4,0,0.8,0.1,1,0.2V283.8z"/>
			<path class="st1" d="M149.7,281.8l0.1,1.7c1-1.3,2.3-1.9,4-1.9c2.8,0,4.2,1.6,4.2,4.7v8.7h-2.3v-8.7c0-1-0.2-1.7-0.7-2.1
				c-0.4-0.5-1.1-0.7-2-0.7c-0.7,0-1.4,0.2-1.9,0.6c-0.6,0.4-1,0.9-1.3,1.5v9.4h-2.3v-13.2H149.7z"/>
			<path class="st1" d="M166.8,295.2c-1.8,0-3.2-0.6-4.4-1.8c-1.1-1.2-1.7-2.7-1.7-4.7v-0.4c0-1.3,0.3-2.5,0.8-3.5
				c0.5-1,1.2-1.8,2.1-2.4c0.9-0.6,1.9-0.9,2.9-0.9c1.7,0,3.1,0.6,4,1.7c1,1.1,1.4,2.8,1.4,4.9v0.9H163c0,1.3,0.4,2.4,1.1,3.2
				c0.7,0.8,1.7,1.2,2.8,1.2c0.8,0,1.5-0.2,2-0.5c0.6-0.3,1-0.8,1.5-1.3l1.4,1.1C170.7,294.4,169,295.2,166.8,295.2z M166.5,283.4
				c-0.9,0-1.7,0.3-2.3,1c-0.6,0.7-1,1.6-1.1,2.8h6.6V287c-0.1-1.1-0.4-2-0.9-2.7C168.2,283.7,167.5,283.4,166.5,283.4z"/>
			<path class="st1" d="M178.7,291.7l3.1-9.9h2.4l-5.3,15.2c-0.8,2.2-2.1,3.3-3.9,3.3l-0.4,0l-0.8-0.2v-1.8l0.6,0
				c0.8,0,1.4-0.2,1.8-0.5c0.4-0.3,0.8-0.9,1.1-1.7l0.5-1.3l-4.7-13.1h2.5L178.7,291.7z"/>
		</g>
		<path class="st14" d="M105.7,321.9c0.2,0,0.5,0,0.7,0c28.2,2,25.8,11.6,37.4,11.6s9.2-9.6,37.4-11.6c0.2,0,0.5,0,0.7,0H105.7z"/>
	</g>
	<g>
		<path class="st14" d="M426.1,635.9c-0.2,0-0.5,0-0.7,0c-28.2-2-25.8-11.6-37.4-11.6c-11.5,0-9.2,9.6-37.4,11.6c-0.2,0-0.5,0-0.7,0
			H426.1z"/>
		<path class="st14" d="M294.9,722.9v-74.9c0-6.6,5.4-12,12-12h163c6.6,0,12,5.4,12,12v74.9c0,6.6-5.4,12-12,12h-163
			C300.3,734.9,294.9,729.5,294.9,722.9z"/>
		<g>
			<path class="st1" d="M333.1,670.5c0,2-0.5,3.6-1.4,4.9c-0.9,1.2-2.2,1.8-3.7,1.8c-1.6,0-2.9-0.5-3.8-1.5v6.4h-2.3v-18.3h2.1
				l0.1,1.5c0.9-1.1,2.2-1.7,3.8-1.7c1.6,0,2.8,0.6,3.8,1.8s1.4,2.9,1.4,5V670.5z M330.8,670.2c0-1.5-0.3-2.7-1-3.5
				s-1.5-1.3-2.6-1.3c-1.4,0-2.4,0.6-3.1,1.8v6.3c0.7,1.2,1.7,1.8,3.1,1.8c1.1,0,1.9-0.4,2.6-1.3S330.8,671.9,330.8,670.2z"/>
			<path class="st1" d="M344.1,675.6c-0.9,1-2.2,1.5-3.9,1.5c-1.4,0-2.5-0.4-3.2-1.2c-0.7-0.8-1.1-2-1.1-3.6v-8.6h2.3v8.5
				c0,2,0.8,3,2.4,3c1.7,0,2.9-0.6,3.4-1.9v-9.6h2.3v13.2h-2.1L344.1,675.6z"/>
			<path class="st1" d="M352.2,676.9h-2.3v-18.8h2.3V676.9z"/>
			<path class="st1" d="M358.3,676.9H356v-18.8h2.3V676.9z"/>
			<path class="st1" d="M367.5,670.2c0-2,0.5-3.7,1.4-4.9c1-1.2,2.2-1.8,3.8-1.8c1.5,0,2.8,0.5,3.7,1.6v-6.9h2.3v18.8h-2.1l-0.1-1.4
				c-0.9,1.1-2.2,1.7-3.8,1.7c-1.5,0-2.8-0.6-3.7-1.9c-1-1.3-1.4-2.9-1.4-4.9V670.2z M369.8,670.5c0,1.5,0.3,2.7,0.9,3.5
				c0.6,0.8,1.5,1.3,2.6,1.3c1.4,0,2.5-0.6,3.1-1.9v-6.1c-0.7-1.2-1.7-1.9-3.1-1.9c-1.1,0-2,0.4-2.6,1.3
				C370.1,667.5,369.8,668.8,369.8,670.5z"/>
			<path class="st1" d="M381.6,670.2c0-1.3,0.3-2.5,0.8-3.5c0.5-1,1.2-1.8,2.1-2.4s1.9-0.8,3.1-0.8c1.8,0,3.3,0.6,4.4,1.9
				s1.7,2.9,1.7,5v0.2c0,1.3-0.2,2.4-0.7,3.5c-0.5,1-1.2,1.8-2.1,2.4c-0.9,0.6-2,0.9-3.2,0.9c-1.8,0-3.2-0.6-4.4-1.9
				s-1.7-2.9-1.7-4.9V670.2z M383.8,670.5c0,1.5,0.3,2.6,1,3.5c0.7,0.9,1.6,1.3,2.7,1.3c1.1,0,2.1-0.5,2.7-1.3c0.7-0.9,1-2.2,1-3.8
				c0-1.4-0.3-2.6-1-3.5c-0.7-0.9-1.6-1.3-2.7-1.3c-1.1,0-2,0.4-2.7,1.3S383.8,668.8,383.8,670.5z"/>
			<path class="st1" d="M408.1,673.8l2.5-10.1h2.3l-3.8,13.2h-1.8l-3.2-10l-3.1,10h-1.8l-3.8-13.2h2.2l2.6,9.9l3.1-9.9h1.8
				L408.1,673.8z"/>
			<path class="st1" d="M417.4,663.7l0.1,1.7c1-1.3,2.3-1.9,4-1.9c2.8,0,4.2,1.6,4.2,4.7v8.7h-2.3v-8.7c0-1-0.2-1.7-0.7-2.1
				c-0.4-0.5-1.1-0.7-2-0.7c-0.7,0-1.4,0.2-1.9,0.6s-1,0.9-1.3,1.5v9.4h-2.3v-13.2H417.4z"/>
			<path class="st1" d="M438.3,660.5v3.2h2.5v1.7h-2.5v8.2c0,0.5,0.1,0.9,0.3,1.2c0.2,0.3,0.6,0.4,1.1,0.4c0.3,0,0.6,0,1.1-0.1v1.8
				c-0.6,0.2-1.2,0.2-1.7,0.2c-1,0-1.8-0.3-2.3-0.9c-0.5-0.6-0.8-1.5-0.8-2.6v-8.2h-2.4v-1.7h2.4v-3.2H438.3z"/>
			<path class="st1" d="M442.5,670.2c0-1.3,0.3-2.5,0.8-3.5c0.5-1,1.2-1.8,2.1-2.4s1.9-0.8,3.1-0.8c1.8,0,3.3,0.6,4.4,1.9
				s1.7,2.9,1.7,5v0.2c0,1.3-0.2,2.4-0.7,3.5c-0.5,1-1.2,1.8-2.1,2.4c-0.9,0.6-2,0.9-3.2,0.9c-1.8,0-3.2-0.6-4.4-1.9
				s-1.7-2.9-1.7-4.9V670.2z M444.8,670.5c0,1.5,0.3,2.6,1,3.5c0.7,0.9,1.6,1.3,2.7,1.3c1.1,0,2.1-0.5,2.7-1.3c0.7-0.9,1-2.2,1-3.8
				c0-1.4-0.3-2.6-1-3.5c-0.7-0.9-1.6-1.3-2.7-1.3c-1.1,0-2,0.4-2.7,1.3S444.8,668.8,444.8,670.5z"/>
			<path class="st1" d="M332.6,706.9h-2.3v-18.8h2.3V706.9z"/>
			<path class="st1" d="M341.7,707.2c-1.8,0-3.2-0.6-4.4-1.8s-1.7-2.7-1.7-4.7v-0.4c0-1.3,0.3-2.5,0.8-3.5s1.2-1.8,2.1-2.4
				c0.9-0.6,1.9-0.9,2.9-0.9c1.7,0,3.1,0.6,4,1.7c1,1.1,1.4,2.8,1.4,4.9v0.9h-8.9c0,1.3,0.4,2.4,1.1,3.2c0.7,0.8,1.7,1.2,2.8,1.2
				c0.8,0,1.5-0.2,2-0.5c0.6-0.3,1-0.8,1.5-1.3l1.4,1.1C345.6,706.3,343.9,707.2,341.7,707.2z M341.4,695.3c-0.9,0-1.7,0.3-2.3,1
				c-0.6,0.7-1,1.6-1.1,2.8h6.6V699c-0.1-1.1-0.4-2-0.9-2.7C343.1,695.7,342.4,695.3,341.4,695.3z"/>
			<path class="st1" d="M357.6,706.9c-0.1-0.3-0.2-0.7-0.3-1.4c-1.1,1.1-2.3,1.6-3.8,1.6c-1.3,0-2.4-0.4-3.2-1.1s-1.3-1.7-1.3-2.8
				c0-1.4,0.5-2.4,1.6-3.2c1-0.8,2.5-1.1,4.4-1.1h2.2v-1c0-0.8-0.2-1.4-0.7-1.9c-0.5-0.5-1.2-0.7-2.1-0.7c-0.8,0-1.5,0.2-2,0.6
				s-0.8,0.9-0.8,1.5h-2.3c0-0.7,0.2-1.3,0.7-1.9c0.5-0.6,1.1-1.1,1.9-1.5c0.8-0.4,1.7-0.5,2.6-0.5c1.5,0,2.7,0.4,3.6,1.1
				c0.9,0.8,1.3,1.8,1.3,3.1v6.1c0,1.2,0.2,2.2,0.5,2.9v0.2H357.6z M353.9,705.2c0.7,0,1.4-0.2,2-0.5s1.1-0.8,1.4-1.4v-2.7h-1.8
				c-2.8,0-4.2,0.8-4.2,2.4c0,0.7,0.2,1.3,0.7,1.7C352.5,705,353.1,705.2,353.9,705.2z"/>
			<path class="st1" d="M369.5,695.8c-0.3-0.1-0.7-0.1-1.1-0.1c-1.5,0-2.5,0.6-3,1.9v9.4h-2.3v-13.2h2.2l0,1.5
				c0.7-1.2,1.8-1.8,3.1-1.8c0.4,0,0.8,0.1,1,0.2V695.8z"/>
			<path class="st1" d="M373.7,693.7l0.1,1.7c1-1.3,2.3-1.9,4-1.9c2.8,0,4.2,1.6,4.2,4.7v8.7h-2.3v-8.7c0-1-0.2-1.7-0.7-2.1
				c-0.4-0.5-1.1-0.7-2-0.7c-0.7,0-1.4,0.2-1.9,0.6s-1,0.9-1.3,1.5v9.4h-2.3v-13.2H373.7z"/>
			<path class="st1" d="M393.6,693.7l0.1,1.5c1-1.1,2.3-1.7,3.9-1.7c1.8,0,3.1,0.7,3.8,2.1c0.4-0.6,1-1.1,1.7-1.5
				c0.7-0.4,1.5-0.6,2.5-0.6c2.9,0,4.4,1.5,4.4,4.6v8.8h-2.3v-8.7c0-0.9-0.2-1.6-0.6-2.1c-0.4-0.5-1.2-0.7-2.2-0.7
				c-0.8,0-1.5,0.2-2.1,0.8c-0.6,0.5-0.9,1.2-1,2v8.8h-2.3v-8.7c0-1.9-0.9-2.9-2.8-2.9c-1.5,0-2.5,0.6-3,1.9v9.6h-2.3v-13.2H393.6z"
				/>
			<path class="st1" d="M412.8,700.2c0-1.3,0.3-2.5,0.8-3.5c0.5-1,1.2-1.8,2.1-2.4s1.9-0.8,3.1-0.8c1.8,0,3.3,0.6,4.4,1.9
				s1.7,2.9,1.7,5v0.2c0,1.3-0.2,2.4-0.7,3.5c-0.5,1-1.2,1.8-2.1,2.4c-0.9,0.6-2,0.9-3.2,0.9c-1.8,0-3.2-0.6-4.4-1.9
				s-1.7-2.9-1.7-4.9V700.2z M415.1,700.5c0,1.5,0.3,2.6,1,3.5c0.7,0.9,1.6,1.3,2.7,1.3c1.1,0,2.1-0.5,2.7-1.3c0.7-0.9,1-2.2,1-3.8
				c0-1.4-0.3-2.6-1-3.5c-0.7-0.9-1.6-1.3-2.7-1.3c-1.1,0-2,0.4-2.7,1.3S415.1,698.8,415.1,700.5z"/>
			<path class="st1" d="M434.1,695.8c-0.3-0.1-0.7-0.1-1.1-0.1c-1.5,0-2.5,0.6-3,1.9v9.4h-2.3v-13.2h2.2l0,1.5
				c0.7-1.2,1.8-1.8,3.1-1.8c0.4,0,0.8,0.1,1,0.2V695.8z"/>
			<path class="st1" d="M441.4,707.2c-1.8,0-3.2-0.6-4.4-1.8s-1.7-2.7-1.7-4.7v-0.4c0-1.3,0.3-2.5,0.8-3.5s1.2-1.8,2.1-2.4
				c0.9-0.6,1.9-0.9,2.9-0.9c1.7,0,3.1,0.6,4,1.7c1,1.1,1.4,2.8,1.4,4.9v0.9h-8.9c0,1.3,0.4,2.4,1.1,3.2c0.7,0.8,1.7,1.2,2.8,1.2
				c0.8,0,1.5-0.2,2-0.5c0.6-0.3,1-0.8,1.5-1.3l1.4,1.1C445.3,706.3,443.6,707.2,441.4,707.2z M441.1,695.3c-0.9,0-1.7,0.3-2.3,1
				c-0.6,0.7-1,1.6-1.1,2.8h6.6V699c-0.1-1.1-0.4-2-0.9-2.7C442.8,695.7,442.1,695.3,441.1,695.3z"/>
		</g>
	</g>
</g>
<g id="grid" class="st70">
</g>
</svg>
