<?xml version="1.0" encoding="utf-8"?>
<!-- Generator: Adobe Illustrator 18.1.1, SVG Export Plug-In . SVG Version: 6.00 Build 0)  -->
<svg version="1.1" xmlns="http://www.w3.org/2000/svg" xmlns:xlink="http://www.w3.org/1999/xlink" x="0px" y="0px"
	 viewBox="0 0 640 1136" style="enable-background:new 0 0 640 1136;" xml:space="preserve">
<style type="text/css">
	.st0{fill:#3B8C6B;}
	.st1{fill:#FFFFFF;}
	.st2{fill:url(#SVGID_1_);}
	.st3{opacity:0.3;}
	.st4{fill-rule:evenodd;clip-rule:evenodd;fill:#F46B83;}
	.st5{fill:#58BD98;}
	.st6{fill:#EFEFEF;}
	.st7{fill:none;stroke:#E0E1E2;stroke-width:11;stroke-miterlimit:10;}
	.st8{opacity:0.3;fill-rule:evenodd;clip-rule:evenodd;fill:#F56980;}
	.st9{fill:#F56980;}
	.st10{fill:#2AD19D;}
	.st11{fill-rule:evenodd;clip-rule:evenodd;fill:#FFFFFF;}
	.st12{fill:#F36D85;}
	.st13{fill:#E0E1E2;}
	.st14{fill:#F46B83;}
	.st15{fill:none;stroke:#F46B83;stroke-width:8;stroke-miterlimit:10;}
	.st16{opacity:0.3;fill:#2AD19D;}
	.st17{fill:#89D7E6;}
	.st18{clip-path:url(#SVGID_3_);}
	.st19{fill-rule:evenodd;clip-rule:evenodd;fill:#F56980;}
	.st20{opacity:0.3;fill:#F36D85;}
	.st21{opacity:0.3;fill:#F46B83;}
	.st22{fill:#24A45A;}
	.st23{fill:#3A5D87;}
	.st24{fill:#527EBB;}
	.st25{fill:#D82908;}
	.st26{fill:#E85749;}
	.st27{fill:#BCF7F7;}
	.st28{fill:#929496;}
	.st29{fill:none;stroke:#CDEBE0;stroke-width:5;stroke-linecap:round;stroke-miterlimit:10;}
	.st30{fill:#1A9169;}
	.st31{fill:none;stroke:#F7ADC1;stroke-width:12;stroke-miterlimit:10;}
	.st32{fill:none;stroke:#2AD19D;stroke-width:12;stroke-miterlimit:10;}
	.st33{fill:none;}
	.st34{fill:#BDF3F4;}
	.st35{fill:#34B188;}
	.st36{fill:#FDE49C;}
	.st37{fill:#FDEF6E;}
	.st38{fill:#1E845A;}
	.st39{fill:none;stroke:#A17644;stroke-width:2;stroke-miterlimit:10;}
	.st40{fill:#79E2BC;}
	.st41{fill:none;stroke:#A17644;stroke-width:3;stroke-miterlimit:10;}
	.st42{fill:none;stroke:#A17644;stroke-width:4;stroke-miterlimit:10;}
	.st43{fill:none;stroke:#A17644;stroke-width:3.4344;stroke-miterlimit:10;}
	.st44{fill:#808184;}
	.st45{fill:#BC4D65;}
	.st46{fill:#933850;}
	.st47{fill:none;stroke:#79E2BC;stroke-miterlimit:10;}
	.st48{opacity:0.2;}
	.st49{fill:#47B58D;}
	.st50{fill:none;stroke:#FFFFFF;stroke-width:8;stroke-linecap:round;stroke-miterlimit:10;}
	.st51{fill:none;stroke:#FFFFFF;stroke-width:2;stroke-miterlimit:10;}
	.st52{opacity:0.5;}
	.st53{fill:#CDE8DE;}
	.st54{clip-path:url(#SVGID_5_);}
	.st55{fill:#F6899C;}
	.st56{fill:#F66981;}
	.st57{fill:#FFFFFF;stroke:#F46B83;stroke-width:6;stroke-miterlimit:10;}
	.st58{clip-path:url(#SVGID_7_);fill:#47B58D;}
	.st59{clip-path:url(#SVGID_7_);}
	.st60{fill:none;stroke:#A17644;stroke-width:1.572;stroke-miterlimit:10;}
	.st61{clip-path:url(#SVGID_7_);fill:none;stroke:#79E2BC;stroke-width:2;stroke-miterlimit:10;}
	.st62{clip-path:url(#SVGID_7_);fill:#1E845A;}
	.st63{fill:none;stroke:#A17644;stroke-width:1.828;stroke-miterlimit:10;}
	.st64{fill:none;stroke:#A17644;stroke-width:3.4825;stroke-miterlimit:10;}
	.st65{fill:none;stroke:#A17644;stroke-width:4.1651;stroke-miterlimit:10;}
	.st66{fill:none;stroke:#A17644;stroke-width:2.8014;stroke-miterlimit:10;}
	.st67{fill:#37CF9D;}
	.st68{clip-path:url(#SVGID_9_);}
	.st69{fill:#ABE6CF;}
	.st70{display:none;}
</style>
<g id="Layer_1">
	<path class="st0" d="M577.5,422.7v111.3c0,4.7-3.8,8.5-8.5,8.5H399c-4.7,0-8.5-3.8-8.5-8.5V422.7c0-4.7,3.8-8.5,8.5-8.5l169.5-3.4
		C573.2,414,576.1,418.1,577.5,422.7z"/>
	<polygon class="st0" points="100.7,963.7 92.7,956.7 535.8,170.3 542.8,177.3 	"/>
	<g>
		<rect x="100.7" y="177.3" class="st0" width="442.1" height="786.4"/>
	</g>
	<g>
		<path class="st1" d="M227,92.7l2.4-0.5V80.7l-2.6-0.5v-3h7.3l0.2,2.7c0.4-1,1-1.7,1.7-2.2c0.7-0.5,1.5-0.8,2.4-0.8
			c0.3,0,0.5,0,0.8,0.1c0.3,0,0.5,0.1,0.7,0.1l-0.5,4.5l-2.1-0.1c-0.7,0-1.3,0.1-1.8,0.4c-0.5,0.3-0.8,0.7-1.1,1.2v9l2.4,0.5v3H227
			V92.7z"/>
		<path class="st1" d="M241,86.2c0-2.8,0.8-5,2.3-6.8c1.5-1.8,3.7-2.6,6.4-2.6c2.7,0,4.9,0.9,6.4,2.6c1.5,1.8,2.3,4,2.3,6.8v0.4
			c0,2.8-0.8,5-2.3,6.8c-1.5,1.7-3.7,2.6-6.4,2.6c-2.7,0-4.9-0.9-6.4-2.6c-1.5-1.7-2.3-4-2.3-6.8V86.2z M246,86.6
			c0,1.7,0.3,3,0.9,4.1c0.6,1,1.5,1.5,2.9,1.5c1.3,0,2.2-0.5,2.8-1.5c0.6-1,0.9-2.4,0.9-4.1v-0.4c0-1.6-0.3-3-0.9-4
			c-0.6-1-1.6-1.6-2.9-1.6s-2.2,0.5-2.8,1.6c-0.6,1-0.9,2.4-0.9,4V86.6z"/>
		<path class="st1" d="M273.6,93.3c-0.6,0.9-1.3,1.5-2.2,2c-0.9,0.5-1.9,0.7-3,0.7c-1.9,0-3.5-0.6-4.6-1.9c-1.1-1.2-1.7-3.2-1.7-5.8
			v-7.6l-2-0.5v-3h2h5v11.2c0,1.3,0.2,2.3,0.7,2.9s1.1,0.9,2,0.9c0.8,0,1.5-0.1,2-0.4c0.6-0.3,1-0.6,1.4-1.1v-10l-2.2-0.5v-3h2.2h5
			v15l2.2,0.5v3h-6.6L273.6,93.3z"/>
		<path class="st1" d="M289.9,72.6v4.5h3.2v3.5h-3.2v9.4c0,0.7,0.1,1.2,0.4,1.5c0.3,0.3,0.7,0.5,1.2,0.5c0.3,0,0.6,0,0.9,0
			c0.3,0,0.5-0.1,0.9-0.1l0.4,3.6c-0.6,0.2-1.1,0.3-1.7,0.4c-0.5,0.1-1.1,0.1-1.8,0.1c-1.7,0-3-0.5-4-1.4c-0.9-0.9-1.4-2.4-1.4-4.5
			v-9.4h-2.7v-3.5h2.7v-4.5H289.9z"/>
		<path class="st1" d="M304.4,96c-2.7,0-4.8-0.9-6.4-2.6c-1.6-1.7-2.4-3.9-2.4-6.5v-0.7c0-2.7,0.8-5,2.3-6.8s3.5-2.7,6.1-2.6
			c2.5,0,4.4,0.8,5.8,2.3c1.4,1.5,2.1,3.5,2.1,6.1v2.7h-11l0,0.1c0.1,1.2,0.5,2.2,1.2,3s1.7,1.2,2.9,1.2c1.1,0,2-0.1,2.8-0.3
			c0.7-0.2,1.5-0.6,2.4-1.1l1.3,3.1c-0.8,0.6-1.8,1.1-3,1.5C307.2,95.8,305.9,96,304.4,96z M304,80.7c-0.9,0-1.7,0.4-2.2,1.1
			c-0.5,0.7-0.9,1.6-1,2.8l0.1,0.1h6.1v-0.4c0-1.1-0.2-1.9-0.7-2.5C305.7,81,305,80.7,304,80.7z"/>
		<path class="st1" d="M337.9,83.5h-3.3l-0.5-2.3c-0.3-0.3-0.8-0.5-1.3-0.7c-0.5-0.2-1.1-0.3-1.7-0.3c-0.9,0-1.6,0.2-2.1,0.6
			c-0.5,0.4-0.8,0.9-0.8,1.5c0,0.6,0.2,1,0.7,1.4c0.5,0.4,1.5,0.7,2.9,1c2.3,0.5,4,1.1,5.1,2c1.1,0.9,1.7,2.1,1.7,3.6
			c0,1.7-0.7,3-2.1,4.1c-1.4,1.1-3.3,1.6-5.6,1.6c-1.4,0-2.7-0.2-3.9-0.6c-1.2-0.4-2.2-1-3.2-1.8l-0.1-4.2h3.5l0.7,2.4
			c0.3,0.3,0.7,0.4,1.2,0.6c0.5,0.1,1,0.2,1.6,0.2c1,0,1.8-0.2,2.3-0.5c0.5-0.4,0.8-0.9,0.8-1.5c0-0.5-0.3-1-0.8-1.4
			c-0.5-0.4-1.5-0.8-3-1.1c-2.2-0.4-3.8-1.1-4.9-2c-1.1-0.9-1.7-2.1-1.7-3.6c0-1.5,0.6-2.9,1.9-4c1.3-1.1,3.1-1.7,5.5-1.7
			c1.4,0,2.8,0.2,4.1,0.6c1.3,0.4,2.3,0.9,3,1.5L337.9,83.5z"/>
		<path class="st1" d="M349.6,96c-2.7,0-4.8-0.9-6.4-2.6c-1.6-1.7-2.4-3.9-2.4-6.5v-0.7c0-2.7,0.8-5,2.3-6.8s3.5-2.7,6.1-2.6
			c2.5,0,4.4,0.8,5.8,2.3c1.4,1.5,2.1,3.5,2.1,6.1v2.7h-11l0,0.1c0.1,1.2,0.5,2.2,1.2,3s1.7,1.2,2.9,1.2c1.1,0,2-0.1,2.8-0.3
			c0.7-0.2,1.5-0.6,2.4-1.1l1.3,3.1c-0.8,0.6-1.8,1.1-3,1.5C352.5,95.8,351.1,96,349.6,96z M349.2,80.7c-0.9,0-1.7,0.4-2.2,1.1
			c-0.5,0.7-0.9,1.6-1,2.8l0.1,0.1h6.1v-0.4c0-1.1-0.2-1.9-0.7-2.5C350.9,81,350.2,80.7,349.2,80.7z"/>
		<path class="st1" d="M366.8,72.6v4.5h3.2v3.5h-3.2v9.4c0,0.7,0.1,1.2,0.4,1.5c0.3,0.3,0.7,0.5,1.2,0.5c0.3,0,0.6,0,0.9,0
			c0.3,0,0.5-0.1,0.9-0.1l0.4,3.6c-0.6,0.2-1.1,0.3-1.7,0.4c-0.5,0.1-1.1,0.1-1.8,0.1c-1.7,0-3-0.5-4-1.4c-0.9-0.9-1.4-2.4-1.4-4.5
			v-9.4h-2.7v-3.5h2.7v-4.5H366.8z"/>
		<path class="st1" d="M385.4,93.3c-0.6,0.9-1.3,1.5-2.2,2c-0.9,0.5-1.9,0.7-3,0.7c-1.9,0-3.5-0.6-4.6-1.9c-1.1-1.2-1.7-3.2-1.7-5.8
			v-7.6l-2-0.5v-3h2h5v11.2c0,1.3,0.2,2.3,0.7,2.9s1.1,0.9,2,0.9c0.8,0,1.5-0.1,2-0.4c0.6-0.3,1-0.6,1.4-1.1v-10l-2.2-0.5v-3h2.2h5
			v15l2.2,0.5v3h-6.6L385.4,93.3z"/>
		<path class="st1" d="M393.9,80.2v-3h7.2l0.2,2.2c0.5-0.8,1.2-1.4,2-1.8c0.8-0.4,1.7-0.6,2.7-0.6c2.3,0,4.1,0.9,5.3,2.7
			c1.3,1.8,1.9,4.1,1.9,7.1v0.4c0,2.7-0.6,4.9-1.9,6.6c-1.3,1.7-3,2.5-5.3,2.5c-1,0-1.8-0.2-2.6-0.5c-0.8-0.4-1.4-0.9-1.9-1.6v5.3
			l2.4,0.5v3h-9.8v-3l2.4-0.5V80.7L393.9,80.2z M408.3,86.6c0-1.7-0.3-3.2-0.9-4.2c-0.6-1.1-1.5-1.6-2.7-1.6c-0.8,0-1.4,0.2-1.9,0.5
			c-0.5,0.3-0.9,0.7-1.3,1.3v8.1c0.3,0.5,0.7,0.9,1.3,1.2c0.5,0.3,1.2,0.4,2,0.4c1.2,0,2.1-0.5,2.7-1.4c0.6-0.9,0.8-2.2,0.8-3.8
			V86.6z"/>
		<path class="st1" d="M218.6,127.6v-11.5h-2.1v-1.7h2.1v-1.4c0-1.4,0.4-2.5,1.1-3.3s1.8-1.2,3.2-1.2c0.5,0,1,0.1,1.5,0.2l-0.1,1.8
			c-0.4-0.1-0.8-0.1-1.2-0.1c-0.7,0-1.3,0.2-1.7,0.6c-0.4,0.4-0.6,1-0.6,1.8v1.4h2.8v1.7h-2.8v11.5H218.6z"/>
		<path class="st1" d="M235.9,127.6c-0.1-0.3-0.2-0.7-0.3-1.4c-1,1.1-2.3,1.6-3.8,1.6c-1.3,0-2.4-0.4-3.2-1.1
			c-0.8-0.7-1.3-1.7-1.3-2.8c0-1.4,0.5-2.4,1.6-3.2c1-0.8,2.5-1.1,4.4-1.1h2.2v-1c0-0.8-0.2-1.4-0.7-1.9c-0.5-0.5-1.2-0.7-2.1-0.7
			c-0.8,0-1.5,0.2-2,0.6c-0.5,0.4-0.8,0.9-0.8,1.5h-2.3c0-0.7,0.2-1.3,0.7-1.9s1.1-1.1,1.9-1.5s1.7-0.5,2.6-0.5
			c1.5,0,2.7,0.4,3.6,1.1s1.3,1.8,1.3,3.1v6.1c0,1.2,0.2,2.2,0.5,2.9v0.2H235.9z M232.1,125.9c0.7,0,1.4-0.2,2-0.5s1.1-0.8,1.4-1.4
			v-2.7h-1.8c-2.8,0-4.2,0.8-4.2,2.4c0,0.7,0.2,1.3,0.7,1.7S231.4,125.9,232.1,125.9z"/>
		<path class="st1" d="M250.5,124.1c0-0.6-0.2-1.1-0.7-1.4c-0.5-0.3-1.3-0.6-2.4-0.9s-2.1-0.5-2.7-0.9c-0.7-0.3-1.2-0.7-1.5-1.2
			c-0.3-0.5-0.5-1-0.5-1.7c0-1.1,0.5-2,1.4-2.7c0.9-0.7,2.1-1.1,3.5-1.1c1.5,0,2.7,0.4,3.6,1.2c0.9,0.8,1.4,1.8,1.4,3h-2.3
			c0-0.6-0.3-1.2-0.8-1.6c-0.5-0.4-1.2-0.7-2-0.7c-0.8,0-1.5,0.2-1.9,0.5s-0.7,0.8-0.7,1.4c0,0.5,0.2,1,0.6,1.2s1.2,0.5,2.3,0.8
			c1.1,0.3,2,0.6,2.7,0.9c0.7,0.4,1.2,0.8,1.6,1.3c0.3,0.5,0.5,1.1,0.5,1.8c0,1.2-0.5,2.1-1.4,2.8c-0.9,0.7-2.2,1.1-3.7,1.1
			c-1.1,0-2-0.2-2.8-0.6s-1.5-0.9-1.9-1.6c-0.5-0.7-0.7-1.4-0.7-2.2h2.3c0,0.8,0.3,1.4,0.9,1.8c0.6,0.4,1.3,0.7,2.2,0.7
			c0.9,0,1.5-0.2,2.1-0.5C250.2,125.2,250.5,124.7,250.5,124.1z"/>
		<path class="st1" d="M260.3,111.2v3.2h2.5v1.7h-2.5v8.2c0,0.5,0.1,0.9,0.3,1.2s0.6,0.4,1.1,0.4c0.3,0,0.6,0,1.1-0.1v1.8
			c-0.6,0.2-1.2,0.2-1.7,0.2c-1,0-1.8-0.3-2.3-0.9c-0.5-0.6-0.8-1.5-0.8-2.6v-8.2h-2.4v-1.7h2.4v-3.2H260.3z"/>
		<path class="st1" d="M272.3,127.9c-1.8,0-3.2-0.6-4.4-1.8s-1.7-2.7-1.7-4.7V121c0-1.3,0.3-2.5,0.8-3.5c0.5-1,1.2-1.8,2.1-2.4
			s1.9-0.9,2.9-0.9c1.7,0,3.1,0.6,4,1.7c1,1.1,1.4,2.8,1.4,4.9v0.9h-8.9c0,1.3,0.4,2.4,1.1,3.2c0.7,0.8,1.7,1.2,2.8,1.2
			c0.8,0,1.5-0.2,2-0.5c0.6-0.3,1-0.8,1.5-1.3l1.4,1.1C276.2,127,274.6,127.9,272.3,127.9z M272.1,116.1c-0.9,0-1.7,0.3-2.3,1
			s-1,1.6-1.1,2.8h6.6v-0.2c-0.1-1.1-0.4-2-0.9-2.7S273,116.1,272.1,116.1z"/>
		<path class="st1" d="M288,116.5c-0.3-0.1-0.7-0.1-1.1-0.1c-1.5,0-2.5,0.6-3,1.9v9.4h-2.3v-13.2h2.2l0,1.5c0.7-1.2,1.8-1.8,3.1-1.8
			c0.4,0,0.8,0.1,1,0.2V116.5z"/>
		<path class="st1" d="M298.7,120.9c0-1.3,0.3-2.5,0.8-3.5c0.5-1,1.2-1.8,2.1-2.4c0.9-0.6,1.9-0.8,3.1-0.8c1.8,0,3.3,0.6,4.4,1.9
			c1.1,1.2,1.7,2.9,1.7,5v0.2c0,1.3-0.2,2.4-0.7,3.5c-0.5,1-1.2,1.8-2.1,2.4c-0.9,0.6-2,0.9-3.2,0.9c-1.8,0-3.2-0.6-4.4-1.9
			c-1.1-1.2-1.7-2.9-1.7-4.9V120.9z M300.9,121.2c0,1.5,0.3,2.6,1,3.5s1.6,1.3,2.7,1.3c1.1,0,2.1-0.4,2.7-1.3c0.7-0.9,1-2.2,1-3.8
			c0-1.4-0.3-2.6-1-3.5c-0.7-0.9-1.6-1.3-2.7-1.3c-1.1,0-2,0.4-2.7,1.3C301.3,118.3,300.9,119.5,300.9,121.2z"/>
		<path class="st1" d="M321.4,116.5c-0.3-0.1-0.7-0.1-1.1-0.1c-1.5,0-2.5,0.6-3,1.9v9.4H315v-13.2h2.2l0,1.5
			c0.7-1.2,1.8-1.8,3.1-1.8c0.4,0,0.8,0.1,1,0.2V116.5z"/>
		<path class="st1" d="M332.1,120.9c0-2.1,0.5-3.7,1.4-4.9c1-1.2,2.2-1.8,3.8-1.8c1.6,0,2.9,0.6,3.8,1.7l0.1-1.5h2.1v12.9
			c0,1.7-0.5,3.1-1.5,4c-1,1-2.4,1.5-4.1,1.5c-1,0-1.9-0.2-2.8-0.6s-1.6-1-2.1-1.7l1.2-1.4c1,1.2,2.2,1.8,3.6,1.8
			c1.1,0,2-0.3,2.6-0.9c0.6-0.6,0.9-1.5,0.9-2.6v-1.1c-0.9,1-2.1,1.6-3.7,1.6c-1.5,0-2.8-0.6-3.8-1.9
			C332.6,124.8,332.1,123.1,332.1,120.9z M334.4,121.2c0,1.5,0.3,2.7,0.9,3.5c0.6,0.9,1.5,1.3,2.6,1.3c1.4,0,2.5-0.6,3.1-1.9v-6
			c-0.7-1.3-1.7-1.9-3.1-1.9c-1.1,0-2,0.4-2.6,1.3S334.4,119.5,334.4,121.2z"/>
		<path class="st1" d="M354.6,116.5c-0.3-0.1-0.7-0.1-1.1-0.1c-1.5,0-2.5,0.6-3,1.9v9.4h-2.3v-13.2h2.2l0,1.5
			c0.7-1.2,1.8-1.8,3.1-1.8c0.4,0,0.8,0.1,1,0.2V116.5z"/>
		<path class="st1" d="M363.4,127.9c-1.8,0-3.2-0.6-4.4-1.8s-1.7-2.7-1.7-4.7V121c0-1.3,0.3-2.5,0.8-3.5c0.5-1,1.2-1.8,2.1-2.4
			s1.9-0.9,2.9-0.9c1.7,0,3.1,0.6,4,1.7c1,1.1,1.4,2.8,1.4,4.9v0.9h-8.9c0,1.3,0.4,2.4,1.1,3.2c0.7,0.8,1.7,1.2,2.8,1.2
			c0.8,0,1.5-0.2,2-0.5c0.6-0.3,1-0.8,1.5-1.3l1.4,1.1C367.3,127,365.6,127.9,363.4,127.9z M363.1,116.1c-0.9,0-1.7,0.3-2.3,1
			s-1,1.6-1.1,2.8h6.6v-0.2c-0.1-1.1-0.4-2-0.9-2.7S364.1,116.1,363.1,116.1z"/>
		<path class="st1" d="M378.1,127.9c-1.8,0-3.2-0.6-4.4-1.8s-1.7-2.7-1.7-4.7V121c0-1.3,0.3-2.5,0.8-3.5c0.5-1,1.2-1.8,2.1-2.4
			s1.9-0.9,2.9-0.9c1.7,0,3.1,0.6,4,1.7c1,1.1,1.4,2.8,1.4,4.9v0.9h-8.9c0,1.3,0.4,2.4,1.1,3.2c0.7,0.8,1.7,1.2,2.8,1.2
			c0.8,0,1.5-0.2,2-0.5c0.6-0.3,1-0.8,1.5-1.3l1.4,1.1C382,127,380.3,127.9,378.1,127.9z M377.9,116.1c-0.9,0-1.7,0.3-2.3,1
			s-1,1.6-1.1,2.8h6.6v-0.2c-0.1-1.1-0.4-2-0.9-2.7S378.8,116.1,377.9,116.1z"/>
		<path class="st1" d="M389.5,114.4l0.1,1.7c1-1.3,2.3-1.9,4-1.9c2.8,0,4.2,1.6,4.2,4.7v8.7h-2.3v-8.7c0-1-0.2-1.7-0.7-2.1
			c-0.4-0.5-1.1-0.7-2-0.7c-0.7,0-1.4,0.2-1.9,0.6c-0.6,0.4-1,0.9-1.3,1.5v9.4h-2.3v-13.2H389.5z"/>
		<path class="st1" d="M408.2,127.9c-1.8,0-3.2-0.6-4.4-1.8s-1.7-2.7-1.7-4.7V121c0-1.3,0.3-2.5,0.8-3.5c0.5-1,1.2-1.8,2.1-2.4
			s1.9-0.9,2.9-0.9c1.7,0,3.1,0.6,4,1.7c1,1.1,1.4,2.8,1.4,4.9v0.9h-8.9c0,1.3,0.4,2.4,1.1,3.2c0.7,0.8,1.7,1.2,2.8,1.2
			c0.8,0,1.5-0.2,2-0.5c0.6-0.3,1-0.8,1.5-1.3l1.4,1.1C412,127,410.4,127.9,408.2,127.9z M407.9,116.1c-0.9,0-1.7,0.3-2.3,1
			s-1,1.6-1.1,2.8h6.6v-0.2c-0.1-1.1-0.4-2-0.9-2.7S408.8,116.1,407.9,116.1z"/>
		<path class="st1" d="M423.8,116.5c-0.3-0.1-0.7-0.1-1.1-0.1c-1.5,0-2.5,0.6-3,1.9v9.4h-2.3v-13.2h2.2l0,1.5
			c0.7-1.2,1.8-1.8,3.1-1.8c0.4,0,0.8,0.1,1,0.2V116.5z"/>
	</g>
	<g>
		<rect x="93.5" y="170.3" class="st1" width="443.1" height="786.4"/>
	</g>
	<g class="st3">
		<path class="st4" d="M480.6,200.2h34.7c1.7,0,3.1-1.4,3.1-3.1c0-1.7-1.4-3.1-3.1-3.1h-34.7c-1.7,0-3.1,1.4-3.1,3.1
			C477.5,198.8,478.9,200.2,480.6,200.2z M515.3,218.6h-34.7c-1.7,0-3.1,1.4-3.1,3.1c0,1.7,1.4,3.1,3.1,3.1h34.7
			c1.7,0,3.1-1.4,3.1-3.1C518.4,220,517,218.6,515.3,218.6z M515.3,206.3h-34.7c-1.7,0-3.1,1.4-3.1,3.1c0,1.7,1.4,3.1,3.1,3.1h34.7
			c1.7,0,3.1-1.4,3.1-3.1C518.4,207.7,517,206.3,515.3,206.3z"/>
	</g>
	<path class="st5" d="M419.5,527C419.5,526.9,419.6,526.9,419.5,527c-3.2-3.3-6.7-6.1-10.6-8.4c0,0,0,0,0,0
		C412.8,520.9,416.3,523.7,419.5,527z"/>
	<g class="st52">
		<g>
			<path class="st5" d="M137.1,665.2c0,0-0.1,0-0.1,0l-28,14.1c-0.3,0.1-0.3,0.2,0,0.3l10.1,3c0.3,0.1,0.5,0.3,0.6,0.6l3,10.3
				c0.1,0.2,0.2,0.2,0.3,0l14.1-28.1C137.2,665.3,137.2,665.2,137.1,665.2L137.1,665.2z"/>
		</g>
		<g>
			<g>
				<path class="st5" d="M126,448.8h-4.3c-0.9,0-1.6-0.7-1.6-1.6s0.7-1.6,1.6-1.6h4.3c4.6,0,4.9-1.6,4.9-3.8c0-1,0-2.9-4.9-2.9
					h-17.1c-0.9,0-1.6-0.7-1.6-1.6c0-0.9,0.7-1.6,1.6-1.6H126c7,0,8.1,3.8,8.1,6.1C134.1,446.6,131.5,448.8,126,448.8z"/>
			</g>
			<g>
				<path class="st5" d="M138.3,458.4H119c-3.4,0-5.8-1-7.1-3c-1.4-2.2-1.3-5.2,0.2-7.2c1.3-1.7,3.6-2.6,6.9-2.6h3.2
					c0.9,0,1.6,0.7,1.6,1.6s-0.7,1.6-1.6,1.6H119c-2.2,0-3.7,0.5-4.4,1.3c-0.7,0.9-0.7,2.5-0.1,3.5c0.6,1,2.1,1.5,4.4,1.5h19.3
					c0.9,0,1.6,0.7,1.6,1.6S139.2,458.4,138.3,458.4z"/>
			</g>
		</g>
		<g>
			<g>
				<path class="st5" d="M136.2,225.3c-4.7,0-8.6-3.8-8.6-8.6s3.8-8.6,8.6-8.6c4.7,0,8.6,3.8,8.6,8.6S140.9,225.3,136.2,225.3z
					 M136.2,210.6c-3.4,0-6.1,2.7-6.1,6.1c0,3.4,2.7,6.1,6.1,6.1c3.4,0,6.1-2.7,6.1-6.1C142.3,213.3,139.5,210.6,136.2,210.6z"/>
			</g>
			<g>
				<path class="st5" d="M112.5,225.3c-4.7,0-8.6-3.8-8.6-8.6s3.8-8.6,8.6-8.6s8.6,3.8,8.6,8.6S117.2,225.3,112.5,225.3z
					 M112.5,210.6c-3.4,0-6.1,2.7-6.1,6.1c0,3.4,2.7,6.1,6.1,6.1s6.1-2.7,6.1-6.1C118.6,213.3,115.8,210.6,112.5,210.6z"/>
			</g>
			<g>
				<path class="st5" d="M112.3,217.9c-0.2,0-0.4-0.1-0.6-0.2c-0.6-0.3-0.8-1.1-0.5-1.7l5.6-10h14.6c0.7,0,1.2,0.6,1.2,1.2
					c0,0.7-0.6,1.2-1.2,1.2h-13.1l-4.9,8.7C113.1,217.7,112.7,217.9,112.3,217.9z"/>
			</g>
			<g>
				<path class="st5" d="M136.4,217.9c-0.5,0-0.9-0.3-1.1-0.7l-6.4-13.2c-0.3-0.5-0.2-1.1,0.1-1.6c0.3-0.5,0.9-0.8,1.4-0.8h6
					c0.7,0,1.2,0.6,1.2,1.2c0,0.7-0.6,1.2-1.2,1.2h-4.8l5.8,12.1c0.3,0.6,0,1.3-0.6,1.6C136.7,217.9,136.6,217.9,136.4,217.9z"/>
			</g>
			<g>
				<path class="st5" d="M117.6,207.9c-0.4,0-0.8-0.2-1-0.5l-2.3-3.4c-0.4-0.6-0.2-1.3,0.3-1.7c0.6-0.4,1.3-0.2,1.7,0.3l2.3,3.4
					c0.4,0.6,0.2,1.3-0.3,1.7C118,207.8,117.8,207.9,117.6,207.9z"/>
			</g>
			<g>
				<line class="st1" x1="119.9" y1="203" x2="113.2" y2="203"/>
				<path class="st5" d="M119.9,204.2h-6.7c-0.7,0-1.2-0.6-1.2-1.2s0.6-1.2,1.2-1.2h6.7c0.7,0,1.2,0.6,1.2,1.2
					S120.6,204.2,119.9,204.2z"/>
			</g>
		</g>
		<g>
			<g>
				<path class="st5" d="M124.3,884.8c-2.9,0-5.3-2.4-5.3-5.3v-167c0-2.9,2.4-5.3,5.3-5.3s5.3,2.4,5.3,5.3v167
					C129.6,882.4,127.2,884.8,124.3,884.8z"/>
			</g>
			<g>
				<path class="st5" d="M124.3,653.1c-2.9,0-5.3-2.4-5.3-5.3V479.3c0-2.9,2.4-5.3,5.3-5.3s5.3,2.4,5.3,5.3v168.6
					C129.6,650.8,127.2,653.1,124.3,653.1z"/>
			</g>
			<g>
				<path class="st5" d="M124.3,421.4c-2.9,0-5.3-2.4-5.3-5.3V246c0-2.9,2.4-5.3,5.3-5.3s5.3,2.4,5.3,5.3v170.2
					C129.6,419.1,127.2,421.4,124.3,421.4z"/>
			</g>
		</g>
		<g class="st48">
			<g>
				<circle class="st5" cx="124.3" cy="911.2" r="17.4"/>
			</g>
		</g>
		<g>
			<circle class="st5" cx="124.3" cy="911.2" r="10.6"/>
		</g>
	</g>
	<g>
		<g>
			<path class="st28" d="M274.9,356.5c0-2.1,0.5-3.8,1.4-5.1c0.9-1.3,2.2-1.9,3.8-1.9c0.7,0,1.4,0.2,2,0.5c0.6,0.3,1,0.8,1.4,1.4
				l0.3-1.7h3.1v12.9c0,1.8-0.6,3.1-1.7,4.2c-1.1,1-2.6,1.6-4.5,1.6c-0.7,0-1.4-0.1-2.1-0.3c-0.8-0.2-1.4-0.4-2.1-0.8l0.7-2.5
				c0.6,0.2,1.1,0.4,1.7,0.6c0.6,0.1,1.2,0.2,1.8,0.2c0.9,0,1.5-0.3,2-0.8c0.4-0.5,0.7-1.3,0.7-2.2v-0.9c-0.4,0.5-0.9,0.9-1.4,1.1
				c-0.5,0.3-1.1,0.4-1.8,0.4c-1.6,0-2.9-0.6-3.8-1.8c-0.9-1.2-1.4-2.8-1.4-4.7V356.5z M278.5,356.8c0,1.2,0.2,2.1,0.6,2.7
				c0.4,0.7,1,1,1.9,1c0.5,0,1-0.1,1.4-0.3c0.4-0.2,0.7-0.5,0.9-0.9v-5.8c-0.2-0.4-0.5-0.7-0.9-0.9c-0.4-0.2-0.8-0.3-1.4-0.3
				c-0.9,0-1.5,0.4-1.9,1.2c-0.4,0.8-0.6,1.8-0.6,3V356.8z"/>
			<path class="st28" d="M289.3,360.9l1.7-0.4v-8.2l-1.9-0.4v-2.2h5.2l0.2,1.9c0.3-0.7,0.7-1.2,1.2-1.6c0.5-0.4,1.1-0.6,1.7-0.6
				c0.2,0,0.4,0,0.6,0c0.2,0,0.4,0.1,0.5,0.1l-0.4,3.3l-1.5,0c-0.5,0-1,0.1-1.3,0.3c-0.3,0.2-0.6,0.5-0.8,0.9v6.5l1.7,0.4v2.1h-7
				V360.9z"/>
			<path class="st28" d="M305.7,363.3c-1.9,0-3.4-0.6-4.6-1.8c-1.1-1.2-1.7-2.8-1.7-4.7v-0.5c0-2,0.5-3.6,1.6-4.9
				c1.1-1.3,2.5-1.9,4.4-1.9c1.8,0,3.2,0.5,4.2,1.6c1,1.1,1.5,2.5,1.5,4.4v2h-7.9l0,0.1c0.1,0.9,0.4,1.6,0.9,2.2s1.2,0.8,2.1,0.8
				c0.8,0,1.5-0.1,2-0.2c0.5-0.2,1.1-0.4,1.7-0.8l1,2.2c-0.5,0.4-1.3,0.8-2.1,1.1C307.8,363.2,306.8,363.3,305.7,363.3z
				 M305.4,352.3c-0.7,0-1.2,0.3-1.6,0.8c-0.4,0.5-0.6,1.2-0.7,2l0,0.1h4.4v-0.3c0-0.8-0.2-1.4-0.5-1.8
				C306.7,352.5,306.1,352.3,305.4,352.3z"/>
			<path class="st28" d="M319.1,363.3c-1.9,0-3.4-0.6-4.6-1.8c-1.1-1.2-1.7-2.8-1.7-4.7v-0.5c0-2,0.5-3.6,1.6-4.9
				c1.1-1.3,2.5-1.9,4.4-1.9c1.8,0,3.2,0.5,4.2,1.6c1,1.1,1.5,2.5,1.5,4.4v2h-7.9l0,0.1c0.1,0.9,0.4,1.6,0.9,2.2
				c0.5,0.6,1.2,0.8,2.1,0.8c0.8,0,1.5-0.1,2-0.2c0.5-0.2,1.1-0.4,1.7-0.8l1,2.2c-0.5,0.4-1.3,0.8-2.1,1.1
				C321.2,363.2,320.2,363.3,319.1,363.3z M318.8,352.3c-0.7,0-1.2,0.3-1.6,0.8c-0.4,0.5-0.6,1.2-0.7,2l0,0.1h4.4v-0.3
				c0-0.8-0.2-1.4-0.5-1.8C320,352.5,319.5,352.3,318.8,352.3z"/>
			<path class="st28" d="M325.9,360.9l1.7-0.4v-8.2l-1.9-0.4v-2.2h5.2l0.2,1.9c0.4-0.7,1-1.2,1.6-1.6c0.6-0.4,1.4-0.6,2.2-0.6
				c1.3,0,2.4,0.4,3.1,1.3c0.8,0.8,1.1,2.2,1.1,4v5.8l1.7,0.4v2.1h-6.8v-2.1l1.5-0.4v-5.8c0-0.9-0.2-1.5-0.5-1.9
				c-0.4-0.4-0.9-0.6-1.6-0.6c-0.5,0-0.9,0.1-1.3,0.3c-0.4,0.2-0.7,0.5-0.9,0.8v7.1l1.4,0.4v2.1h-6.8V360.9z"/>
			<path class="st28" d="M348.3,363.3c-1.9,0-3.4-0.6-4.6-1.8c-1.1-1.2-1.7-2.8-1.7-4.7v-0.5c0-2,0.5-3.6,1.6-4.9
				c1.1-1.3,2.5-1.9,4.4-1.9c1.8,0,3.2,0.5,4.2,1.6c1,1.1,1.5,2.5,1.5,4.4v2h-7.9l0,0.1c0.1,0.9,0.4,1.6,0.9,2.2s1.2,0.8,2.1,0.8
				c0.8,0,1.5-0.1,2-0.2c0.5-0.2,1.1-0.4,1.7-0.8l1,2.2c-0.5,0.4-1.3,0.8-2.1,1.1C350.4,363.2,349.4,363.3,348.3,363.3z M348,352.3
				c-0.7,0-1.2,0.3-1.6,0.8c-0.4,0.5-0.6,1.2-0.7,2l0,0.1h4.4v-0.3c0-0.8-0.2-1.4-0.5-1.8C349.3,352.5,348.7,352.3,348,352.3z"/>
			<path class="st28" d="M355.6,360.9l1.7-0.4v-8.2l-1.9-0.4v-2.2h5.2l0.2,1.9c0.3-0.7,0.7-1.2,1.2-1.6c0.5-0.4,1.1-0.6,1.7-0.6
				c0.2,0,0.4,0,0.6,0c0.2,0,0.4,0.1,0.5,0.1l-0.4,3.3l-1.5,0c-0.5,0-1,0.1-1.3,0.3c-0.3,0.2-0.6,0.5-0.8,0.9v6.5l1.7,0.4v2.1h-7
				V360.9z"/>
		</g>
		<g>
			<path class="st28" d="M285.8,820.4l1.7-0.4v-8.2h-2v-2.5h2v-1.5c0-1.5,0.4-2.6,1.3-3.4c0.9-0.8,2.1-1.2,3.6-1.2
				c0.3,0,0.6,0,0.9,0.1c0.3,0,0.7,0.1,1,0.2l-0.3,2.7c-0.2,0-0.4-0.1-0.6-0.1c-0.2,0-0.4,0-0.6,0c-0.6,0-1,0.2-1.3,0.5
				c-0.3,0.3-0.4,0.8-0.4,1.4v1.5h2.6v2.5h-2.6v8.2l1.7,0.4v2.1h-7V820.4z"/>
			<path class="st28" d="M303.4,822.6c-0.1-0.2-0.2-0.4-0.3-0.7c-0.1-0.2-0.1-0.5-0.2-0.7c-0.4,0.5-0.9,0.9-1.6,1.2
				c-0.6,0.3-1.3,0.5-2.1,0.5c-1.3,0-2.3-0.4-3.1-1.1c-0.8-0.7-1.1-1.7-1.1-2.9c0-1.2,0.5-2.2,1.5-2.9c1-0.7,2.5-1,4.4-1h1.8v-1.3
				c0-0.6-0.2-1.1-0.6-1.5c-0.4-0.4-0.9-0.5-1.6-0.5c-0.4,0-0.8,0-1.1,0.1c-0.3,0.1-0.6,0.2-0.8,0.3l-0.2,1.4h-2.7l0-2.9
				c0.7-0.4,1.4-0.8,2.3-1.1c0.8-0.3,1.8-0.5,2.8-0.5c1.6,0,3,0.4,4,1.2c1,0.8,1.5,2,1.5,3.4v5.5c0,0.2,0,0.4,0,0.6
				c0,0.2,0,0.4,0,0.5l1.1,0.1v2.1H303.4z M300.3,820.2c0.5,0,1-0.1,1.5-0.3c0.4-0.2,0.8-0.5,1-0.9v-2H301c-0.8,0-1.3,0.2-1.7,0.5
				c-0.4,0.4-0.6,0.8-0.6,1.3c0,0.5,0.1,0.8,0.4,1.1C299.4,820.1,299.8,820.2,300.3,820.2z"/>
			<path class="st28" d="M319.6,813.9h-2.4l-0.4-1.7c-0.2-0.2-0.6-0.4-0.9-0.5c-0.4-0.1-0.8-0.2-1.2-0.2c-0.6,0-1.1,0.1-1.5,0.4
				c-0.4,0.3-0.6,0.6-0.6,1.1c0,0.4,0.2,0.7,0.5,1c0.4,0.3,1.1,0.5,2.1,0.7c1.6,0.3,2.9,0.8,3.7,1.4c0.8,0.6,1.2,1.5,1.2,2.6
				c0,1.2-0.5,2.2-1.5,2.9c-1,0.8-2.4,1.1-4.1,1.1c-1,0-2-0.2-2.8-0.4c-0.9-0.3-1.6-0.7-2.3-1.3l0-3h2.5l0.5,1.7
				c0.2,0.2,0.5,0.3,0.9,0.4c0.4,0.1,0.8,0.1,1.2,0.1c0.7,0,1.3-0.1,1.7-0.4c0.4-0.3,0.6-0.6,0.6-1.1c0-0.4-0.2-0.7-0.6-1
				c-0.4-0.3-1.1-0.5-2.1-0.8c-1.6-0.3-2.7-0.8-3.5-1.4c-0.8-0.6-1.2-1.5-1.2-2.6c0-1.1,0.5-2.1,1.4-2.9c0.9-0.8,2.2-1.2,3.9-1.2
				c1,0,2,0.1,2.9,0.4c0.9,0.3,1.6,0.6,2.2,1.1L319.6,813.9z"/>
			<path class="st28" d="M327,806.1v3.3h2.3v2.5H327v6.8c0,0.5,0.1,0.9,0.3,1.1c0.2,0.2,0.5,0.3,0.9,0.3c0.2,0,0.5,0,0.6,0
				c0.2,0,0.4-0.1,0.6-0.1l0.3,2.6c-0.4,0.1-0.8,0.2-1.2,0.3c-0.4,0.1-0.8,0.1-1.3,0.1c-1.2,0-2.2-0.3-2.9-1c-0.7-0.7-1-1.8-1-3.2
				v-6.8h-2v-2.5h2v-3.3H327z"/>
			<path class="st28" d="M337.4,822.9c-1.9,0-3.4-0.6-4.6-1.8c-1.1-1.2-1.7-2.8-1.7-4.7v-0.5c0-2,0.5-3.6,1.6-4.9
				c1.1-1.3,2.5-1.9,4.4-1.9c1.8,0,3.2,0.5,4.2,1.6c1,1.1,1.5,2.5,1.5,4.4v2h-7.9l0,0.1c0.1,0.9,0.4,1.6,0.9,2.2
				c0.5,0.6,1.2,0.8,2.1,0.8c0.8,0,1.5-0.1,2-0.2c0.5-0.2,1.1-0.4,1.7-0.8l1,2.2c-0.5,0.4-1.3,0.8-2.1,1.1
				C339.5,822.7,338.5,822.9,337.4,822.9z M337.1,811.8c-0.7,0-1.2,0.3-1.6,0.8c-0.4,0.5-0.6,1.2-0.7,2l0,0.1h4.4v-0.3
				c0-0.8-0.2-1.4-0.5-1.8C338.3,812.1,337.8,811.8,337.1,811.8z"/>
			<path class="st28" d="M344.7,820.4l1.7-0.4v-8.2l-1.9-0.4v-2.2h5.2l0.2,1.9c0.3-0.7,0.7-1.2,1.2-1.6c0.5-0.4,1.1-0.6,1.7-0.6
				c0.2,0,0.4,0,0.6,0c0.2,0,0.4,0.1,0.5,0.1l-0.4,3.3l-1.5,0c-0.5,0-1,0.1-1.3,0.3c-0.3,0.2-0.6,0.5-0.8,0.9v6.5l1.7,0.4v2.1h-7
				V820.4z"/>
		</g>
		<g>
			<path class="st53" d="M261.8,598.4h111.8c25.6,0,52.8-4.8,52.8-45.9c0-12.6-5.2-22.9-15-29.8c-10.1-7.1-17.9-10.5-37.8-10.5h-3.5
				H261.8c-16.9,0-21.5-3.4-26.2-9.9c-4.7-6.4-4.5-15.2,0.4-20.8c4.8-5.5,9.7-8.6,25.9-8.6h111.8c25.6,0,52.8-4.8,52.8-45.9
				c0-12.6-5.2-22.9-15-29.8c-10.1-7.1-17.9-10.5-37.8-10.5H220.4c-6.4,0-11.6,5-11.6,11.2c0,6.2,5.2,11.2,11.6,11.2h153.2
				c18.2,0,20.1,3.4,24.2,6.3c2.6,1.8,5.5,4.8,5.5,11.7c0,11.2-3.2,15.1-6,17.3c-5.3,4.1-8.8,6.2-23.6,6.2H261.8
				c-23.7,0-33.9,5.5-43.5,16.4c-11.8,13.5-12.5,33.3-1.7,48.2c9.4,12.8,20.1,19.4,45.1,19.4h108.3h3.5c18.2,0,20.1,3.4,24.2,6.3
				c2.6,1.8,5.5,4.8,5.5,11.7c0,11.2-3.2,15.1-6,17.3c-5.3,4.1-8.8,6.2-23.6,6.2H261.8c-23.7,0-33.9,5.5-43.5,16.4
				c-11.8,13.5-12.5,33.3-1.7,48.2c9.4,12.8,20.1,19.4,45.1,19.4h93.3c0.6,0,1.1-0.1,1.7-0.1h16.8c18.2,0,20.1,3.4,24.2,6.3
				c2.6,1.8,5.5,4.8,5.5,11.7c0,11.2-3.2,15.1-6,17.3c-5.3,4.1-8.8,6.2-23.6,6.2h-11.5h-3.8h-96.5c-23.7,0-33.9,5.5-43.5,16.4
				c-11.8,13.5-12.5,33.3-1.7,48.2c9.4,12.8,20.1,19.4,45.1,19.4h153c6.4,0,11.6-5,11.6-11.2s-5.2-11.2-11.6-11.2h-153
				c-16.9,0-21.5-3.4-26.2-9.9c-4.7-6.4-4.5-15.2,0.4-20.8c4.8-5.5,9.7-8.6,25.9-8.6h96.5h3.8h11.5c25.6,0,52.8-4.8,52.8-45.9
				c0-12.6-5.2-22.9-15-29.8c-10.1-7.1-17.9-10.5-37.8-10.5h-18.5c-0.6,0-1.1,0.1-1.7,0.1h-91.7c-16.9,0-21.5-3.4-26.2-9.9
				c-4.7-6.4-4.5-15.2,0.4-20.8C240.8,601.4,245.6,598.4,261.8,598.4z"/>
		</g>
		<g>
			<defs>
				<path id="SVGID_4_" d="M261.8,598.4h111.8c25.6,0,52.8-4.8,52.8-45.9c0-12.6-5.2-22.9-15-29.8c-10.1-7.1-17.9-10.5-37.8-10.5
					h-3.5H261.8c-16.9,0-21.5-3.4-26.2-9.9c-4.7-6.4-4.5-15.2,0.4-20.8c4.8-5.5,9.7-8.6,25.9-8.6h111.8c25.6,0,52.8-4.8,52.8-45.9
					c0-12.6-5.2-22.9-15-29.8c-10.1-7.1-17.9-10.5-37.8-10.5H220.4c-6.4,0-11.6,5-11.6,11.2c0,6.2,5.2,11.2,11.6,11.2h153.2
					c18.2,0,20.1,3.4,24.2,6.3c2.6,1.8,5.5,4.8,5.5,11.7c0,11.2-3.2,15.1-6,17.3c-5.3,4.1-8.8,6.2-23.6,6.2H261.8
					c-23.7,0-33.9,5.5-43.5,16.4c-11.8,13.5-12.5,33.3-1.7,48.2c9.4,12.8,20.1,19.4,45.1,19.4h108.3h3.5c18.2,0,20.1,3.4,24.2,6.3
					c2.6,1.8,5.5,4.8,5.5,11.7c0,11.2-3.2,15.1-6,17.3c-5.3,4.1-8.8,6.2-23.6,6.2H261.8c-23.7,0-33.9,5.5-43.5,16.4
					c-11.8,13.5-12.5,33.3-1.7,48.2c9.4,12.8,20.1,19.4,45.1,19.4h93.3c0.6,0,1.1-0.1,1.7-0.1h16.8c18.2,0,20.1,3.4,24.2,6.3
					c2.6,1.8,5.5,4.8,5.5,11.7c0,11.2-3.2,15.1-6,17.3c-5.3,4.1-8.8,6.2-23.6,6.2h-11.5h-3.8h-96.5c-23.7,0-33.9,5.5-43.5,16.4
					c-11.8,13.5-12.5,33.3-1.7,48.2c9.4,12.8,20.1,19.4,45.1,19.4h153c6.4,0,11.6-5,11.6-11.2s-5.2-11.2-11.6-11.2h-153
					c-16.9,0-21.5-3.4-26.2-9.9c-4.7-6.4-4.5-15.2,0.4-20.8c4.8-5.5,9.7-8.6,25.9-8.6h96.5h3.8h11.5c25.6,0,52.8-4.8,52.8-45.9
					c0-12.6-5.2-22.9-15-29.8c-10.1-7.1-17.9-10.5-37.8-10.5h-18.5c-0.6,0-1.1,0.1-1.7,0.1h-91.7c-16.9,0-21.5-3.4-26.2-9.9
					c-4.7-6.4-4.5-15.2,0.4-20.8C240.8,601.4,245.6,598.4,261.8,598.4z"/>
			</defs>
			<clipPath id="SVGID_1_">
				<use xlink:href="#SVGID_4_"  style="overflow:visible;"/>
			</clipPath>
			<g style="clip-path:url(#SVGID_1_);">
				<rect x="196" y="604.5" class="st10" width="249.9" height="194.9"/>
			</g>
		</g>
		<g>
			<path class="st14" d="M471,607H176.3c-1.4,0-2.5-1.1-2.5-2.5s1.1-2.5,2.5-2.5H471c1.4,0,2.5,1.1,2.5,2.5S472.4,607,471,607z"/>
		</g>
		<g>
			<circle class="st14" cx="480.9" cy="604.5" r="27.4"/>
		</g>
		<g>
			<circle class="st55" cx="480.9" cy="604.5" r="21.2"/>
		</g>
		<g>
			<path class="st56" d="M455.6,593.9c-2.4,5.4-5.6,8-12,8c-0.3,0.6,1.2,0.9,1.2,1.6c0,1.2-2.5,3.4,0.1,3.4c3.8,0,8.3,1.7,10.2,6.6
				C456.3,616.6,457,590.8,455.6,593.9z"/>
		</g>
	</g>
	<g>
		<path class="st14" d="M573.5,418.7v111.3c0,4.7-3.8,8.5-8.5,8.5H395c-4.7,0-8.5-3.8-8.5-8.5V418.7c0-4.7,3.8-8.5,8.5-8.5h170
			C569.6,410.2,573.5,414,573.5,418.7z"/>
		<g>
			<path class="st1" d="M419.3,449.5c0.8,0,1.5-0.2,2.1-0.7c0.6-0.5,0.9-1.1,1-1.8h2.1c0,0.8-0.3,1.5-0.8,2.2s-1.1,1.2-1.9,1.6
				s-1.6,0.6-2.5,0.6c-1.8,0-3.2-0.6-4.3-1.8c-1.1-1.2-1.6-2.8-1.6-4.9v-0.4c0-1.3,0.2-2.4,0.7-3.4s1.1-1.8,2-2.3
				c0.9-0.6,1.9-0.8,3.1-0.8c1.5,0,2.7,0.4,3.7,1.3c1,0.9,1.5,2,1.6,3.5h-2.1c-0.1-0.9-0.4-1.6-1-2.1c-0.6-0.5-1.3-0.8-2.2-0.8
				c-1.1,0-2,0.4-2.7,1.2c-0.6,0.8-0.9,2-0.9,3.6v0.4c0,1.5,0.3,2.7,0.9,3.5C417.3,449,418.2,449.5,419.3,449.5z"/>
			<path class="st1" d="M429.4,439.4c1-1.2,2.3-1.8,3.9-1.8c2.8,0,4.2,1.6,4.2,4.7v8.7h-2.3v-8.7c0-1-0.2-1.7-0.7-2.1
				c-0.4-0.5-1.1-0.7-2-0.7c-0.7,0-1.4,0.2-1.9,0.6c-0.6,0.4-1,0.9-1.3,1.5v9.4h-2.3v-18.8h2.3V439.4z"/>
			<path class="st1" d="M440.3,444.3c0-1.3,0.3-2.5,0.8-3.5c0.5-1,1.2-1.8,2.1-2.4c0.9-0.6,1.9-0.8,3.1-0.8c1.8,0,3.3,0.6,4.4,1.9
				c1.1,1.2,1.7,2.9,1.7,5v0.2c0,1.3-0.2,2.4-0.7,3.5c-0.5,1-1.2,1.8-2.1,2.4c-0.9,0.6-2,0.9-3.2,0.9c-1.8,0-3.2-0.6-4.4-1.9
				c-1.1-1.2-1.7-2.9-1.7-4.9V444.3z M442.6,444.6c0,1.5,0.3,2.6,1,3.5c0.7,0.9,1.6,1.3,2.7,1.3c1.1,0,2.1-0.4,2.7-1.3
				c0.7-0.9,1-2.2,1-3.8c0-1.4-0.3-2.6-1-3.5c-0.7-0.9-1.6-1.3-2.7-1.3c-1.1,0-2,0.4-2.7,1.3C442.9,441.7,442.6,442.9,442.6,444.6z"
				/>
			<path class="st1" d="M454.5,444.3c0-1.3,0.3-2.5,0.8-3.5c0.5-1,1.2-1.8,2.1-2.4c0.9-0.6,1.9-0.8,3.1-0.8c1.8,0,3.3,0.6,4.4,1.9
				c1.1,1.2,1.7,2.9,1.7,5v0.2c0,1.3-0.2,2.4-0.7,3.5c-0.5,1-1.2,1.8-2.1,2.4c-0.9,0.6-2,0.9-3.2,0.9c-1.8,0-3.2-0.6-4.4-1.9
				c-1.1-1.2-1.7-2.9-1.7-4.9V444.3z M456.8,444.6c0,1.5,0.3,2.6,1,3.5c0.7,0.9,1.6,1.3,2.7,1.3c1.1,0,2.1-0.4,2.7-1.3
				c0.7-0.9,1-2.2,1-3.8c0-1.4-0.3-2.6-1-3.5c-0.7-0.9-1.6-1.3-2.7-1.3c-1.1,0-2,0.4-2.7,1.3C457.2,441.7,456.8,442.9,456.8,444.6z"
				/>
			<path class="st1" d="M477.1,447.6c0-0.6-0.2-1.1-0.7-1.4c-0.5-0.3-1.3-0.6-2.4-0.9s-2.1-0.5-2.7-0.9c-0.7-0.3-1.2-0.7-1.5-1.2
				c-0.3-0.5-0.5-1-0.5-1.7c0-1.1,0.5-2,1.4-2.7c0.9-0.7,2.1-1.1,3.5-1.1c1.5,0,2.7,0.4,3.6,1.2c0.9,0.8,1.4,1.8,1.4,3H477
				c0-0.6-0.3-1.2-0.8-1.6c-0.5-0.4-1.2-0.7-2-0.7c-0.8,0-1.5,0.2-1.9,0.5c-0.5,0.4-0.7,0.8-0.7,1.4c0,0.5,0.2,1,0.6,1.2
				c0.4,0.3,1.2,0.5,2.3,0.8c1.1,0.3,2,0.6,2.7,0.9c0.7,0.4,1.2,0.8,1.6,1.3c0.3,0.5,0.5,1.1,0.5,1.8c0,1.2-0.5,2.1-1.4,2.8
				c-0.9,0.7-2.2,1.1-3.7,1.1c-1.1,0-2-0.2-2.8-0.6s-1.5-0.9-1.9-1.6c-0.5-0.7-0.7-1.4-0.7-2.2h2.3c0,0.8,0.3,1.4,0.9,1.8
				c0.6,0.4,1.3,0.7,2.2,0.7c0.9,0,1.5-0.2,2.1-0.5C476.8,448.6,477.1,448.1,477.1,447.6z"/>
			<path class="st1" d="M487.8,451.3c-1.8,0-3.2-0.6-4.4-1.8c-1.1-1.2-1.7-2.7-1.7-4.7v-0.4c0-1.3,0.3-2.5,0.8-3.5
				c0.5-1,1.2-1.8,2.1-2.4c0.9-0.6,1.9-0.9,2.9-0.9c1.7,0,3.1,0.6,4,1.7c1,1.1,1.4,2.8,1.4,4.9v0.9H484c0,1.3,0.4,2.4,1.1,3.2
				c0.7,0.8,1.7,1.2,2.8,1.2c0.8,0,1.5-0.2,2-0.5c0.6-0.3,1-0.8,1.5-1.3l1.4,1.1C491.6,450.5,490,451.3,487.8,451.3z M487.5,439.5
				c-0.9,0-1.7,0.3-2.3,1c-0.6,0.7-1,1.6-1.1,2.8h6.6v-0.2c-0.1-1.1-0.4-2-0.9-2.7C489.2,439.8,488.4,439.5,487.5,439.5z"/>
			<path class="st1" d="M504,439.4c1-1.2,2.3-1.8,3.9-1.8c2.8,0,4.2,1.6,4.2,4.7v8.7h-2.3v-8.7c0-1-0.2-1.7-0.7-2.1
				c-0.4-0.5-1.1-0.7-2-0.7c-0.7,0-1.4,0.2-1.9,0.6c-0.6,0.4-1,0.9-1.3,1.5v9.4h-2.3v-18.8h2.3V439.4z"/>
			<path class="st1" d="M514.9,444.3c0-1.3,0.3-2.5,0.8-3.5c0.5-1,1.2-1.8,2.1-2.4c0.9-0.6,1.9-0.8,3.1-0.8c1.8,0,3.3,0.6,4.4,1.9
				c1.1,1.2,1.7,2.9,1.7,5v0.2c0,1.3-0.2,2.4-0.7,3.5c-0.5,1-1.2,1.8-2.1,2.4c-0.9,0.6-2,0.9-3.2,0.9c-1.8,0-3.2-0.6-4.4-1.9
				c-1.1-1.2-1.7-2.9-1.7-4.9V444.3z M517.2,444.6c0,1.5,0.3,2.6,1,3.5c0.7,0.9,1.6,1.3,2.7,1.3c1.1,0,2.1-0.4,2.7-1.3
				c0.7-0.9,1-2.2,1-3.8c0-1.4-0.3-2.6-1-3.5c-0.7-0.9-1.6-1.3-2.7-1.3c-1.1,0-2,0.4-2.7,1.3C517.5,441.7,517.2,442.9,517.2,444.6z"
				/>
			<path class="st1" d="M541.4,447.9l2.5-10.1h2.3l-3.8,13.2h-1.8l-3.2-10l-3.1,10h-1.8l-3.8-13.2h2.2l2.6,9.9l3.1-9.9h1.8
				L541.4,447.9z"/>
			<path class="st1" d="M417.8,467.8l0.1,1.5c1-1.1,2.3-1.7,3.9-1.7c1.8,0,3.1,0.7,3.8,2.1c0.4-0.6,1-1.1,1.7-1.5
				c0.7-0.4,1.5-0.6,2.5-0.6c2.9,0,4.4,1.5,4.4,4.6v8.9h-2.3v-8.7c0-0.9-0.2-1.6-0.6-2.1c-0.4-0.5-1.2-0.7-2.2-0.7
				c-0.8,0-1.5,0.3-2.1,0.8c-0.6,0.5-0.9,1.2-1,2v8.8h-2.3v-8.7c0-1.9-0.9-2.9-2.8-2.9c-1.5,0-2.5,0.6-3,1.9v9.6h-2.3v-13.2H417.8z"
				/>
			<path class="st1" d="M445.7,479.8c-0.9,1-2.2,1.6-3.9,1.6c-1.4,0-2.5-0.4-3.2-1.2c-0.7-0.8-1.1-2-1.1-3.6v-8.6h2.3v8.5
				c0,2,0.8,3,2.4,3c1.7,0,2.9-0.6,3.4-1.9v-9.6h2.3v13.2h-2.1L445.7,479.8z"/>
			<path class="st1" d="M456.6,479.5c0.8,0,1.5-0.2,2.1-0.7c0.6-0.5,0.9-1.1,1-1.8h2.1c0,0.8-0.3,1.5-0.8,2.2s-1.1,1.2-1.9,1.6
				s-1.6,0.6-2.5,0.6c-1.8,0-3.2-0.6-4.3-1.8c-1.1-1.2-1.6-2.8-1.6-4.9v-0.4c0-1.3,0.2-2.4,0.7-3.4s1.1-1.8,2-2.3
				c0.9-0.6,1.9-0.8,3.1-0.8c1.5,0,2.7,0.4,3.7,1.3c1,0.9,1.5,2,1.6,3.5h-2.1c-0.1-0.9-0.4-1.6-1-2.1c-0.6-0.5-1.3-0.8-2.2-0.8
				c-1.1,0-2,0.4-2.7,1.2c-0.6,0.8-0.9,2-0.9,3.6v0.4c0,1.5,0.3,2.7,0.9,3.5C454.6,479,455.5,479.5,456.6,479.5z"/>
			<path class="st1" d="M466.7,469.4c1-1.2,2.3-1.8,3.9-1.8c2.8,0,4.2,1.6,4.2,4.7v8.7h-2.3v-8.7c0-1-0.2-1.7-0.7-2.1
				c-0.4-0.5-1.1-0.7-2-0.7c-0.7,0-1.4,0.2-1.9,0.6c-0.6,0.4-1,0.9-1.3,1.5v9.4h-2.3v-18.8h2.3V469.4z"/>
			<path class="st1" d="M483.8,474.3c0-2.1,0.5-3.7,1.4-4.9c1-1.2,2.2-1.8,3.8-1.8c1.6,0,2.9,0.6,3.8,1.7l0.1-1.5h2.1v12.9
				c0,1.7-0.5,3.1-1.5,4c-1,1-2.4,1.5-4.1,1.5c-1,0-1.9-0.2-2.8-0.6c-0.9-0.4-1.6-1-2.1-1.7l1.2-1.4c1,1.2,2.2,1.8,3.6,1.8
				c1.1,0,2-0.3,2.6-0.9c0.6-0.6,0.9-1.5,0.9-2.6v-1.1c-0.9,1-2.1,1.6-3.7,1.6c-1.5,0-2.8-0.6-3.8-1.9
				C484.3,478.2,483.8,476.5,483.8,474.3z M486.1,474.6c0,1.5,0.3,2.7,0.9,3.5c0.6,0.9,1.5,1.3,2.6,1.3c1.4,0,2.5-0.6,3.1-1.9v-6
				c-0.7-1.3-1.7-1.9-3.1-1.9c-1.1,0-2,0.4-2.6,1.3S486.1,472.9,486.1,474.6z"/>
			<path class="st1" d="M504.8,469.9c-0.3-0.1-0.7-0.1-1.1-0.1c-1.5,0-2.5,0.6-3,1.9v9.4h-2.3v-13.2h2.2l0,1.5
				c0.7-1.2,1.8-1.8,3.1-1.8c0.4,0,0.8,0.1,1,0.2V469.9z"/>
			<path class="st1" d="M512.1,481.3c-1.8,0-3.2-0.6-4.4-1.8c-1.1-1.2-1.7-2.7-1.7-4.7v-0.4c0-1.3,0.3-2.5,0.8-3.5
				c0.5-1,1.2-1.8,2.1-2.4c0.9-0.6,1.9-0.9,2.9-0.9c1.7,0,3.1,0.6,4,1.7c1,1.1,1.4,2.8,1.4,4.9v0.9h-8.9c0,1.3,0.4,2.4,1.1,3.2
				c0.7,0.8,1.7,1.2,2.8,1.2c0.8,0,1.5-0.2,2-0.5c0.6-0.3,1-0.8,1.5-1.3l1.4,1.1C516,480.5,514.3,481.3,512.1,481.3z M511.8,469.5
				c-0.9,0-1.7,0.3-2.3,1c-0.6,0.7-1,1.6-1.1,2.8h6.6v-0.2c-0.1-1.1-0.4-2-0.9-2.7C513.5,469.8,512.8,469.5,511.8,469.5z"/>
			<path class="st1" d="M525.4,481.3c-1.8,0-3.2-0.6-4.4-1.8c-1.1-1.2-1.7-2.7-1.7-4.7v-0.4c0-1.3,0.3-2.5,0.8-3.5
				c0.5-1,1.2-1.8,2.1-2.4c0.9-0.6,1.9-0.9,2.9-0.9c1.7,0,3.1,0.6,4,1.7c1,1.1,1.4,2.8,1.4,4.9v0.9h-8.9c0,1.3,0.4,2.4,1.1,3.2
				c0.7,0.8,1.7,1.2,2.8,1.2c0.8,0,1.5-0.2,2-0.5c0.6-0.3,1-0.8,1.5-1.3l1.4,1.1C529.2,480.5,527.6,481.3,525.4,481.3z M525.1,469.5
				c-0.9,0-1.7,0.3-2.3,1c-0.6,0.7-1,1.6-1.1,2.8h6.6v-0.2c-0.1-1.1-0.4-2-0.9-2.7C526.8,469.8,526,469.5,525.1,469.5z"/>
			<path class="st1" d="M535.3,467.8l0.1,1.7c1-1.3,2.3-1.9,4-1.9c2.8,0,4.2,1.6,4.2,4.7v8.7h-2.3v-8.7c0-1-0.2-1.7-0.7-2.1
				c-0.4-0.5-1.1-0.7-2-0.7c-0.7,0-1.4,0.2-1.9,0.6c-0.6,0.4-1,0.9-1.3,1.5v9.4h-2.3v-13.2H535.3z"/>
			<path class="st1" d="M435.5,507.7l3.1-9.9h2.4l-5.3,15.2c-0.8,2.2-2.1,3.3-3.9,3.3l-0.4,0l-0.8-0.2v-1.8l0.6,0
				c0.8,0,1.4-0.2,1.8-0.5c0.4-0.3,0.8-0.9,1.1-1.7l0.5-1.3l-4.7-13.1h2.5L435.5,507.7z"/>
			<path class="st1" d="M442.2,504.3c0-1.3,0.3-2.5,0.8-3.5c0.5-1,1.2-1.8,2.1-2.4c0.9-0.6,1.9-0.8,3.1-0.8c1.8,0,3.3,0.6,4.4,1.9
				c1.1,1.2,1.7,2.9,1.7,5v0.2c0,1.3-0.2,2.4-0.7,3.5c-0.5,1-1.2,1.8-2.1,2.4c-0.9,0.6-2,0.9-3.2,0.9c-1.8,0-3.2-0.6-4.4-1.9
				c-1.1-1.2-1.7-2.9-1.7-4.9V504.3z M444.5,504.6c0,1.5,0.3,2.6,1,3.5c0.7,0.9,1.6,1.3,2.7,1.3c1.1,0,2.1-0.4,2.7-1.3
				c0.7-0.9,1-2.2,1-3.8c0-1.4-0.3-2.6-1-3.5c-0.7-0.9-1.6-1.3-2.7-1.3c-1.1,0-2,0.4-2.7,1.3C444.8,501.7,444.5,502.9,444.5,504.6z"
				/>
			<path class="st1" d="M465.2,509.8c-0.9,1-2.2,1.6-3.9,1.6c-1.4,0-2.5-0.4-3.2-1.2c-0.7-0.8-1.1-2-1.1-3.6v-8.6h2.3v8.5
				c0,2,0.8,3,2.4,3c1.7,0,2.9-0.6,3.4-1.9v-9.6h2.3v13.2h-2.1L465.2,509.8z"/>
			<path class="st1" d="M488.7,507.9l2.5-10.1h2.3l-3.8,13.2h-1.8l-3.2-10l-3.1,10h-1.8l-3.8-13.2h2.2l2.6,9.9l3.1-9.9h1.8
				L488.7,507.9z"/>
			<path class="st1" d="M504,511.1c-0.1-0.3-0.2-0.7-0.3-1.4c-1,1.1-2.3,1.6-3.8,1.6c-1.3,0-2.4-0.4-3.2-1.1
				c-0.8-0.7-1.3-1.7-1.3-2.8c0-1.4,0.5-2.4,1.6-3.2c1-0.8,2.5-1.1,4.4-1.1h2.2v-1c0-0.8-0.2-1.4-0.7-1.9c-0.5-0.5-1.2-0.7-2.1-0.7
				c-0.8,0-1.5,0.2-2,0.6c-0.5,0.4-0.8,0.9-0.8,1.5h-2.3c0-0.7,0.2-1.3,0.7-1.9c0.5-0.6,1.1-1.1,1.9-1.5c0.8-0.4,1.7-0.5,2.6-0.5
				c1.5,0,2.7,0.4,3.6,1.1c0.9,0.8,1.3,1.8,1.3,3.1v6.1c0,1.2,0.2,2.2,0.5,2.9v0.2H504z M500.2,509.3c0.7,0,1.4-0.2,2-0.5
				s1.1-0.8,1.4-1.4v-2.7h-1.8c-2.8,0-4.2,0.8-4.2,2.4c0,0.7,0.2,1.3,0.7,1.7C498.9,509.1,499.5,509.3,500.2,509.3z"/>
			<path class="st1" d="M511.6,497.8l0.1,1.7c1-1.3,2.3-1.9,4-1.9c2.8,0,4.2,1.6,4.2,4.7v8.7h-2.3v-8.7c0-1-0.2-1.7-0.7-2.1
				c-0.4-0.5-1.1-0.7-2-0.7c-0.7,0-1.4,0.2-1.9,0.6c-0.6,0.4-1,0.9-1.3,1.5v9.4h-2.3v-13.2H511.6z"/>
			<path class="st1" d="M526.3,494.7v3.2h2.5v1.7h-2.5v8.2c0,0.5,0.1,0.9,0.3,1.2s0.6,0.4,1.1,0.4c0.3,0,0.6,0,1.1-0.1v1.8
				c-0.6,0.2-1.2,0.2-1.7,0.2c-1,0-1.8-0.3-2.3-0.9c-0.5-0.6-0.8-1.5-0.8-2.6v-8.2h-2.4v-1.7h2.4v-3.2H526.3z"/>
		</g>
		<path class="st14" d="M441.8,538.2c0.2,0,0.5,0,0.7,0c28.2,2,25.8,11.6,37.4,11.6s9.2-9.6,37.4-11.6c0.2,0,0.5,0,0.7,0H441.8z"/>
	</g>
</g>
<g id="grid" class="st70">
</g>
</svg>
