<?xml version="1.0" encoding="utf-8"?>
<!-- Generator: Adobe Illustrator 18.1.1, SVG Export Plug-In . SVG Version: 6.00 Build 0)  -->
<svg version="1.1" xmlns="http://www.w3.org/2000/svg" xmlns:xlink="http://www.w3.org/1999/xlink" x="0px" y="0px"
	 viewBox="0 0 640 1136" style="enable-background:new 0 0 640 1136;" xml:space="preserve">
<style type="text/css">
	.st0{fill:#3B8C6B;}
	.st1{fill:#FFFFFF;}
	.st2{fill:url(#SVGID_1_);}
	.st3{opacity:0.3;}
	.st4{fill-rule:evenodd;clip-rule:evenodd;fill:#F46B83;}
	.st5{fill:#58BD98;}
	.st6{fill:#EFEFEF;}
	.st7{fill:none;stroke:#E0E1E2;stroke-width:11;stroke-miterlimit:10;}
	.st8{opacity:0.3;fill-rule:evenodd;clip-rule:evenodd;fill:#F56980;}
	.st9{fill:#F56980;}
	.st10{fill:#2AD19D;}
	.st11{fill-rule:evenodd;clip-rule:evenodd;fill:#FFFFFF;}
	.st12{fill:#F36D85;}
	.st13{fill:#E0E1E2;}
	.st14{fill:#F46B83;}
	.st15{fill:none;stroke:#F46B83;stroke-width:8;stroke-miterlimit:10;}
	.st16{opacity:0.3;fill:#2AD19D;}
	.st17{fill:#89D7E6;}
	.st18{clip-path:url(#SVGID_3_);}
	.st19{fill-rule:evenodd;clip-rule:evenodd;fill:#F56980;}
	.st20{opacity:0.3;fill:#F36D85;}
	.st21{opacity:0.3;fill:#F46B83;}
	.st22{fill:#24A45A;}
	.st23{fill:#3A5D87;}
	.st24{fill:#527EBB;}
	.st25{fill:#D82908;}
	.st26{fill:#E85749;}
	.st27{fill:#BCF7F7;}
	.st28{fill:#929496;}
	.st29{fill:none;stroke:#CDEBE0;stroke-width:5;stroke-linecap:round;stroke-miterlimit:10;}
	.st30{fill:#1A9169;}
	.st31{fill:none;stroke:#F7ADC1;stroke-width:12;stroke-miterlimit:10;}
	.st32{fill:none;stroke:#2AD19D;stroke-width:12;stroke-miterlimit:10;}
	.st33{fill:none;}
	.st34{fill:#BDF3F4;}
	.st35{fill:#34B188;}
	.st36{fill:#FDE49C;}
	.st37{fill:#FDEF6E;}
	.st38{fill:#1E845A;}
	.st39{fill:none;stroke:#A17644;stroke-width:2;stroke-miterlimit:10;}
	.st40{fill:#79E2BC;}
	.st41{fill:none;stroke:#A17644;stroke-width:3;stroke-miterlimit:10;}
	.st42{fill:none;stroke:#A17644;stroke-width:4;stroke-miterlimit:10;}
	.st43{fill:none;stroke:#A17644;stroke-width:3.4344;stroke-miterlimit:10;}
	.st44{fill:#808184;}
	.st45{fill:#BC4D65;}
	.st46{fill:#933850;}
	.st47{fill:none;stroke:#79E2BC;stroke-miterlimit:10;}
	.st48{opacity:0.2;}
	.st49{fill:#47B58D;}
	.st50{fill:none;stroke:#FFFFFF;stroke-width:8;stroke-linecap:round;stroke-miterlimit:10;}
	.st51{fill:none;stroke:#FFFFFF;stroke-width:2;stroke-miterlimit:10;}
	.st52{opacity:0.5;}
	.st53{fill:#CDE8DE;}
	.st54{clip-path:url(#SVGID_5_);}
	.st55{fill:#F6899C;}
	.st56{fill:#F66981;}
	.st57{fill:#FFFFFF;stroke:#F46B83;stroke-width:6;stroke-miterlimit:10;}
	.st58{clip-path:url(#SVGID_7_);fill:#47B58D;}
	.st59{clip-path:url(#SVGID_7_);}
	.st60{fill:none;stroke:#A17644;stroke-width:1.572;stroke-miterlimit:10;}
	.st61{clip-path:url(#SVGID_7_);fill:none;stroke:#79E2BC;stroke-width:2;stroke-miterlimit:10;}
	.st62{clip-path:url(#SVGID_7_);fill:#1E845A;}
	.st63{fill:none;stroke:#A17644;stroke-width:1.828;stroke-miterlimit:10;}
	.st64{fill:none;stroke:#A17644;stroke-width:3.4825;stroke-miterlimit:10;}
	.st65{fill:none;stroke:#A17644;stroke-width:4.1651;stroke-miterlimit:10;}
	.st66{fill:none;stroke:#A17644;stroke-width:2.8014;stroke-miterlimit:10;}
	.st67{fill:#37CF9D;}
	.st68{clip-path:url(#SVGID_9_);}
	.st69{fill:#ABE6CF;}
	.st70{display:none;}
</style>
<g id="Layer_1">
	<g>
		<path class="st33" d="M319.8,166.9"/>
	</g>
	<g>
		<path class="st33" d="M352.9,531.3"/>
	</g>
	<g>
		<path class="st1" d="M221.7,418.6c-1.1,1.2-2.8,2.3-5,3.3s-5.1,1.6-8.6,1.6c-5.1,0-9.3-1.8-12.6-5.4c-3.2-3.6-4.9-8.3-4.9-14v-0.6
			c0-5.8,1.6-10.5,4.8-14.1s7.5-5.4,12.8-5.4c2.8,0,5.3,0.4,7.5,1.3c2.2,0.9,4,2.1,5.4,3.5v7h-3.6l-1.3-5.3
			c-0.9-0.7-1.9-1.3-3.1-1.7c-1.2-0.5-2.7-0.7-4.4-0.7c-4.1,0-7.3,1.4-9.6,4.3c-2.2,2.8-3.4,6.5-3.4,11v0.7c0,4.6,1.1,8.3,3.3,11.1
			c2.2,2.8,5.2,4.2,9,4.2c2.1,0,3.8-0.2,5.1-0.7c1.3-0.4,2.4-0.9,3.2-1.5V409l-6.3-0.3v-3.8h11.5V418.6z"/>
		<path class="st1" d="M228.2,397.8v-3.3h8.9l0.5,4.1c0.8-1.5,1.8-2.6,3-3.4c1.2-0.8,2.5-1.2,4.1-1.2c0.4,0,0.8,0,1.3,0.1
			c0.4,0.1,0.8,0.1,1,0.2l-0.7,4.8l-3-0.2c-1.4,0-2.5,0.3-3.5,1c-0.9,0.6-1.7,1.5-2.2,2.7v16.4l4.3,0.7v3.3h-13.8v-3.3l4.3-0.7
			v-20.4L228.2,397.8z"/>
		<path class="st1" d="M263,423.5c-4,0-7.1-1.3-9.5-4c-2.3-2.6-3.5-6.1-3.5-10.3v-1.2c0-4.1,1.2-7.4,3.6-10.1c2.4-2.7,5.3-4,8.6-4
			c3.8,0,6.7,1.2,8.7,3.5c2,2.3,3,5.4,3,9.3v3.2h-18.5l-0.1,0.1c0.1,2.7,0.7,5,2.1,6.8s3.2,2.6,5.6,2.6c1.8,0,3.3-0.3,4.6-0.8
			c1.3-0.5,2.5-1.2,3.4-2.1l2,3.4c-1,1-2.4,1.8-4,2.5C267.4,423.2,265.4,423.5,263,423.5z M262.2,398c-1.7,0-3.2,0.7-4.5,2.2
			c-1.2,1.5-2,3.3-2.3,5.5l0.1,0.1h13.2v-0.7c0-2-0.5-3.7-1.6-5.1S264.4,398,262.2,398z"/>
		<path class="st1" d="M292.1,423.5c-4,0-7.1-1.3-9.5-4c-2.3-2.6-3.5-6.1-3.5-10.3v-1.2c0-4.1,1.2-7.4,3.6-10.1c2.4-2.7,5.3-4,8.6-4
			c3.8,0,6.7,1.2,8.7,3.5c2,2.3,3,5.4,3,9.3v3.2h-18.5l-0.1,0.1c0.1,2.7,0.7,5,2.1,6.8s3.2,2.6,5.6,2.6c1.8,0,3.3-0.3,4.6-0.8
			c1.3-0.5,2.5-1.2,3.4-2.1l2,3.4c-1,1-2.4,1.8-4,2.5C296.4,423.2,294.4,423.5,292.1,423.5z M291.3,398c-1.7,0-3.2,0.7-4.5,2.2
			c-1.2,1.5-2,3.3-2.3,5.5l0.1,0.1h13.2v-0.7c0-2-0.5-3.7-1.6-5.1S293.4,398,291.3,398z"/>
		<path class="st1" d="M307.3,419.7l4.3-0.7v-20.4l-4.3-0.7v-3.3h8.9l0.4,4.2c0.9-1.5,2.1-2.7,3.6-3.5c1.4-0.8,3.1-1.3,4.9-1.3
			c3.1,0,5.5,0.9,7.1,2.7c1.7,1.8,2.5,4.6,2.5,8.3v13.9l4.3,0.7v3.3h-13.8v-3.3l4.3-0.7v-13.8c0-2.5-0.5-4.3-1.5-5.4
			s-2.5-1.6-4.5-1.6c-1.5,0-2.8,0.4-4,1.1c-1.2,0.7-2.1,1.7-2.8,3v16.7l4.3,0.7v3.3h-13.8V419.7z"/>
		<path class="st1" d="M342.1,385.2v-3.3h9.5v37.1l4.3,0.7v3.3h-13.8v-3.3l4.3-0.7v-33L342.1,385.2z"/>
		<path class="st1" d="M378.4,423c-0.2-0.8-0.3-1.5-0.4-2.1c-0.1-0.6-0.1-1.2-0.2-1.8c-1,1.3-2.3,2.4-3.8,3.2
			c-1.5,0.9-3.1,1.3-4.8,1.3c-3,0-5.2-0.7-6.8-2.2s-2.3-3.5-2.3-6.1c0-2.7,1.1-4.8,3.3-6.3c2.2-1.5,5.2-2.2,9-2.2h5.4v-3.3
			c0-1.7-0.5-3-1.6-4s-2.5-1.5-4.4-1.5c-1.3,0-2.4,0.2-3.4,0.5c-1,0.3-1.8,0.8-2.4,1.4l-0.6,3h-4v-5.5c1.3-1,2.9-1.9,4.7-2.5
			c1.8-0.6,3.8-0.9,6-0.9c3.2,0,5.9,0.8,7.9,2.5c2,1.7,3,4,3,7.1v13.7c0,0.4,0,0.7,0,1.1c0,0.4,0,0.7,0.1,1.1l2.1,0.3v3.3H378.4z
			 M370.1,419.2c1.7,0,3.3-0.4,4.7-1.2c1.4-0.8,2.4-1.8,3.1-3v-4.7h-5.5c-2.1,0-3.8,0.5-5,1.5c-1.2,1-1.9,2.2-1.9,3.6
			c0,1.2,0.4,2.2,1.2,2.9S368.5,419.2,370.1,419.2z"/>
		<path class="st1" d="M388.8,419.7l4.3-0.7v-20.4l-4.3-0.7v-3.3h8.9l0.4,4.2c0.9-1.5,2.1-2.7,3.6-3.5c1.4-0.8,3.1-1.3,4.9-1.3
			c3.1,0,5.5,0.9,7.1,2.7c1.7,1.8,2.5,4.6,2.5,8.3v13.9l4.3,0.7v3.3h-13.8v-3.3l4.3-0.7v-13.8c0-2.5-0.5-4.3-1.5-5.4
			s-2.5-1.6-4.5-1.6c-1.5,0-2.8,0.4-4,1.1c-1.2,0.7-2.1,1.7-2.8,3v16.7l4.3,0.7v3.3h-13.8V419.7z"/>
		<path class="st1" d="M437.1,423.5c-4,0-7.1-1.3-9.5-4c-2.3-2.6-3.5-6.1-3.5-10.3v-1.2c0-4.1,1.2-7.4,3.6-10.1c2.4-2.7,5.3-4,8.6-4
			c3.8,0,6.7,1.2,8.7,3.5c2,2.3,3,5.4,3,9.3v3.2h-18.5l-0.1,0.1c0.1,2.7,0.7,5,2.1,6.8s3.2,2.6,5.6,2.6c1.8,0,3.3-0.3,4.6-0.8
			c1.3-0.5,2.5-1.2,3.4-2.1l2,3.4c-1,1-2.4,1.8-4,2.5C441.5,423.2,439.4,423.5,437.1,423.5z M436.3,398c-1.7,0-3.2,0.7-4.5,2.2
			c-1.2,1.5-2,3.3-2.3,5.5l0.1,0.1h13.2v-0.7c0-2-0.5-3.7-1.6-5.1S438.4,398,436.3,398z"/>
		<path class="st1" d="M157.2,483.6c-0.9,1.5-2.1,2.7-3.5,3.5s-3,1.2-4.9,1.2c-3.1,0-5.5-1-7.3-3c-1.7-2-2.6-5.1-2.6-9.3v-12.7
			l-3.3-0.7v-3.3h3.3h5.2v16.9c0,3,0.4,5.1,1.3,6.3c0.9,1.1,2.3,1.7,4.2,1.7c1.8,0,3.4-0.4,4.6-1.1c1.2-0.7,2.1-1.8,2.7-3.2v-16.5
			l-3.8-0.7v-3.3h3.8h5.2v24.5l3.3,0.7v3.3h-7.9L157.2,483.6z"/>
		<path class="st1" d="M191.4,468.2h-3.9l-0.8-3.4c-0.6-0.6-1.4-1.1-2.4-1.4c-1-0.4-2-0.5-3.3-0.5c-1.8,0-3.2,0.4-4.1,1.2
			c-0.9,0.8-1.3,1.8-1.3,2.9c0,1.1,0.4,2,1.2,2.7c0.8,0.7,2.4,1.2,4.8,1.7c3.6,0.8,6.3,1.8,8,3.2c1.8,1.3,2.6,3.1,2.6,5.3
			c0,2.5-1,4.6-3.1,6.1c-2,1.6-4.7,2.3-8,2.3c-2.2,0-4.1-0.3-5.8-0.8s-3.3-1.2-4.6-2.2l0-6.5h3.9l1,3.8c0.6,0.5,1.4,0.9,2.4,1.2
			c1,0.2,2.1,0.4,3.2,0.4c1.8,0,3.3-0.4,4.3-1.1c1-0.7,1.6-1.7,1.6-2.9c0-1.1-0.4-2.1-1.3-2.8c-0.9-0.7-2.5-1.4-4.9-1.9
			c-3.5-0.8-6.1-1.8-7.8-3.1c-1.8-1.3-2.6-3.1-2.6-5.3c0-2.3,1-4.3,3-5.9c2-1.6,4.5-2.5,7.7-2.5c2.2,0,4.1,0.3,5.8,0.8
			c1.7,0.6,3.2,1.3,4.3,2.3L191.4,468.2z"/>
		<path class="st1" d="M210.1,488.3c-4,0-7.1-1.3-9.5-4c-2.3-2.6-3.5-6.1-3.5-10.3v-1.2c0-4.1,1.2-7.4,3.6-10.1c2.4-2.7,5.3-4,8.6-4
			c3.8,0,6.7,1.2,8.7,3.5c2,2.3,3,5.4,3,9.3v3.2h-18.5l-0.1,0.1c0.1,2.7,0.7,5,2.1,6.8s3.2,2.6,5.6,2.6c1.8,0,3.3-0.3,4.6-0.8
			c1.3-0.5,2.5-1.2,3.4-2.1l2,3.4c-1,1-2.4,1.8-4,2.5C214.5,488,212.5,488.3,210.1,488.3z M209.3,462.8c-1.7,0-3.2,0.7-4.5,2.2
			c-1.2,1.5-2,3.3-2.3,5.5l0.1,0.1h13.2V470c0-2-0.5-3.7-1.6-5.1S211.5,462.8,209.3,462.8z"/>
		<path class="st1" d="M248,468.2h-3.9l-0.8-3.4c-0.6-0.6-1.4-1.1-2.4-1.4c-1-0.4-2-0.5-3.3-0.5c-1.8,0-3.2,0.4-4.1,1.2
			c-0.9,0.8-1.3,1.8-1.3,2.9c0,1.1,0.4,2,1.2,2.7c0.8,0.7,2.4,1.2,4.8,1.7c3.6,0.8,6.3,1.8,8,3.2c1.8,1.3,2.6,3.1,2.6,5.3
			c0,2.5-1,4.6-3.1,6.1c-2,1.6-4.7,2.3-8,2.3c-2.2,0-4.1-0.3-5.8-0.8s-3.3-1.2-4.6-2.2l0-6.5h3.9l1,3.8c0.6,0.5,1.4,0.9,2.4,1.2
			c1,0.2,2.1,0.4,3.2,0.4c1.8,0,3.3-0.4,4.3-1.1c1-0.7,1.6-1.7,1.6-2.9c0-1.1-0.4-2.1-1.3-2.8c-0.9-0.7-2.5-1.4-4.9-1.9
			c-3.5-0.8-6.1-1.8-7.8-3.1c-1.8-1.3-2.6-3.1-2.6-5.3c0-2.3,1-4.3,3-5.9c2-1.6,4.5-2.5,7.7-2.5c2.2,0,4.1,0.3,5.8,0.8
			c1.7,0.6,3.2,1.3,4.3,2.3L248,468.2z"/>
		<path class="st1" d="M266.5,495.4l4.3-0.7v-31.3l-4.3-0.7v-3.3h8.8l0.5,3.5c0.9-1.3,2.1-2.3,3.5-3c1.4-0.7,2.9-1,4.7-1
			c3.5,0,6.3,1.4,8.2,4.2c2,2.8,2.9,6.5,2.9,11.1v0.6c0,4.1-1,7.4-3,10c-2,2.5-4.7,3.8-8.1,3.8c-1.8,0-3.3-0.3-4.6-0.9
			s-2.5-1.5-3.4-2.6v9.8l4.3,0.7v3.3h-13.8V495.4z M289.8,474.1c0-3.3-0.6-5.9-1.9-8c-1.3-2.1-3.1-3.1-5.6-3.1c-1.5,0-2.7,0.3-3.8,1
			c-1.1,0.7-1.9,1.6-2.6,2.7v13.9c0.7,1.2,1.5,2.1,2.5,2.7c1,0.6,2.3,1,3.9,1c2.5,0,4.3-0.9,5.6-2.7s1.9-4.1,1.9-7V474.1z"/>
		<path class="st1" d="M318.4,487.8c-0.2-0.8-0.3-1.5-0.4-2.1c-0.1-0.6-0.1-1.2-0.2-1.8c-1,1.3-2.3,2.4-3.8,3.2
			c-1.5,0.9-3.1,1.3-4.8,1.3c-3,0-5.2-0.7-6.8-2.2s-2.3-3.5-2.3-6.1c0-2.7,1.1-4.8,3.3-6.3c2.2-1.5,5.2-2.2,9-2.2h5.4v-3.3
			c0-1.7-0.5-3-1.6-4s-2.5-1.5-4.4-1.5c-1.3,0-2.4,0.2-3.4,0.5c-1,0.3-1.8,0.8-2.4,1.4l-0.6,3h-4v-5.5c1.3-1,2.9-1.9,4.7-2.5
			c1.8-0.6,3.8-0.9,6-0.9c3.2,0,5.9,0.8,7.9,2.5c2,1.7,3,4,3,7.1V482c0,0.4,0,0.7,0,1.1c0,0.4,0,0.7,0.1,1.1l2.1,0.3v3.3H318.4z
			 M310,484c1.7,0,3.3-0.4,4.7-1.2c1.4-0.8,2.4-1.8,3.1-3v-4.7h-5.5c-2.1,0-3.8,0.5-5,1.5c-1.2,1-1.9,2.2-1.9,3.6
			c0,1.2,0.4,2.2,1.2,2.9S308.5,484,310,484z"/>
		<path class="st1" d="M329.5,462.6v-3.3h8.9l0.5,4.1c0.8-1.5,1.8-2.6,3-3.4c1.2-0.8,2.5-1.2,4.1-1.2c0.4,0,0.8,0,1.3,0.1
			c0.4,0.1,0.8,0.1,1,0.2l-0.7,4.8l-3-0.2c-1.4,0-2.5,0.3-3.5,1c-0.9,0.6-1.7,1.5-2.2,2.7v16.4l4.3,0.7v3.3h-13.8v-3.3l4.3-0.7
			v-20.4L329.5,462.6z"/>
		<path class="st1" d="M350.6,450v-3.3h9.5v23.8h3.3l6.1-7.5l-2.6-0.3v-3.3h11.9v3.3l-3.5,0.7l-7.5,9l9.1,11.6l3.2,0.6v3.3h-11.8
			v-3.3l2.7-0.3l-7.6-9.5h-3.4v9.1l4.3,0.7v3.3h-13.8v-3.3l4.3-0.7v-33L350.6,450z"/>
		<path class="st1" d="M390.1,485.9c0,1.7-0.4,3.5-1.3,5.4c-0.9,1.9-2,3.4-3.5,4.7l-2.9-2c0.8-1.3,1.5-2.6,1.9-3.9s0.6-2.7,0.6-4.2
			v-4h5.2V485.9z"/>
		<path class="st1" d="M417.3,452.4v6.9h5.4v3.8h-5.4v17.3c0,1.3,0.3,2.3,0.8,2.8c0.6,0.5,1.3,0.8,2.2,0.8c0.5,0,1,0,1.5-0.1
			c0.6-0.1,1-0.2,1.4-0.3l0.7,3.6c-0.5,0.3-1.2,0.6-2.2,0.8c-0.9,0.2-1.9,0.3-2.8,0.3c-2.1,0-3.8-0.6-5-1.9c-1.2-1.3-1.9-3.3-1.9-6
			v-17.3h-4.5v-3.8h4.5v-6.9H417.3z"/>
		<path class="st1" d="M428,462.6v-3.3h8.9l0.5,4.1c0.8-1.5,1.8-2.6,3-3.4c1.2-0.8,2.5-1.2,4.1-1.2c0.4,0,0.8,0,1.3,0.1
			c0.4,0.1,0.8,0.1,1,0.2l-0.7,4.8l-3-0.2c-1.4,0-2.5,0.3-3.5,1c-0.9,0.6-1.7,1.5-2.2,2.7v16.4l4.3,0.7v3.3H428v-3.3l4.3-0.7v-20.4
			L428,462.6z"/>
		<path class="st1" d="M462.9,488.3c-4,0-7.1-1.3-9.5-4c-2.3-2.6-3.5-6.1-3.5-10.3v-1.2c0-4.1,1.2-7.4,3.6-10.1c2.4-2.7,5.3-4,8.6-4
			c3.8,0,6.7,1.2,8.7,3.5c2,2.3,3,5.4,3,9.3v3.2h-18.5l-0.1,0.1c0.1,2.7,0.7,5,2.1,6.8s3.2,2.6,5.6,2.6c1.8,0,3.3-0.3,4.6-0.8
			c1.3-0.5,2.5-1.2,3.4-2.1l2,3.4c-1,1-2.4,1.8-4,2.5C467.2,488,465.2,488.3,462.9,488.3z M462.1,462.8c-1.7,0-3.2,0.7-4.5,2.2
			c-1.2,1.5-2,3.3-2.3,5.5l0.1,0.1h13.2V470c0-2-0.5-3.7-1.6-5.1S464.2,462.8,462.1,462.8z"/>
		<path class="st1" d="M491.9,488.3c-4,0-7.1-1.3-9.5-4c-2.3-2.6-3.5-6.1-3.5-10.3v-1.2c0-4.1,1.2-7.4,3.6-10.1c2.4-2.7,5.3-4,8.6-4
			c3.8,0,6.7,1.2,8.7,3.5c2,2.3,3,5.4,3,9.3v3.2h-18.5l-0.1,0.1c0.1,2.7,0.7,5,2.1,6.8s3.2,2.6,5.6,2.6c1.8,0,3.3-0.3,4.6-0.8
			c1.3-0.5,2.5-1.2,3.4-2.1l2,3.4c-1,1-2.4,1.8-4,2.5C496.3,488,494.3,488.3,491.9,488.3z M491.1,462.8c-1.7,0-3.2,0.7-4.5,2.2
			c-1.2,1.5-2,3.3-2.3,5.5l0.1,0.1h13.2V470c0-2-0.5-3.7-1.6-5.1S493.3,462.8,491.1,462.8z"/>
		<path class="st1" d="M170.1,552.6c-0.2-0.8-0.3-1.5-0.4-2.1c-0.1-0.6-0.1-1.2-0.2-1.8c-1,1.3-2.3,2.4-3.8,3.2
			c-1.5,0.9-3.1,1.3-4.8,1.3c-3,0-5.2-0.7-6.8-2.2s-2.3-3.5-2.3-6.1c0-2.7,1.1-4.8,3.3-6.3c2.2-1.5,5.2-2.2,9-2.2h5.4v-3.3
			c0-1.7-0.5-3-1.6-4s-2.5-1.5-4.4-1.5c-1.3,0-2.4,0.2-3.4,0.5c-1,0.3-1.8,0.8-2.4,1.4l-0.6,3h-4V527c1.3-1,2.9-1.9,4.7-2.5
			c1.8-0.6,3.8-0.9,6-0.9c3.2,0,5.9,0.8,7.9,2.5c2,1.7,3,4,3,7.1v13.7c0,0.4,0,0.7,0,1.1c0,0.4,0,0.7,0.1,1.1l2.1,0.3v3.3H170.1z
			 M161.7,548.8c1.7,0,3.3-0.4,4.7-1.2c1.4-0.8,2.4-1.8,3.1-3v-4.7H164c-2.1,0-3.8,0.5-5,1.5c-1.2,1-1.9,2.2-1.9,3.6
			c0,1.2,0.4,2.2,1.2,2.9S160.2,548.8,161.7,548.8z"/>
		<path class="st1" d="M180.5,549.3l4.3-0.7v-20.4l-4.3-0.7v-3.3h8.9l0.4,4.2c0.9-1.5,2.1-2.7,3.6-3.5c1.4-0.8,3.1-1.3,4.9-1.3
			c3.1,0,5.5,0.9,7.1,2.7c1.7,1.8,2.5,4.6,2.5,8.3v13.9l4.3,0.7v3.3h-13.8v-3.3l4.3-0.7v-13.8c0-2.5-0.5-4.3-1.5-5.4
			s-2.5-1.6-4.5-1.6c-1.5,0-2.8,0.4-4,1.1c-1.2,0.7-2.1,1.7-2.8,3v16.7l4.3,0.7v3.3h-13.8V549.3z"/>
		<path class="st1" d="M234.9,549.2c-0.9,1.3-2.1,2.3-3.4,3c-1.3,0.7-2.9,1-4.7,1c-3.5,0-6.2-1.3-8.2-3.8c-2-2.5-2.9-5.8-2.9-10
			v-0.6c0-4.6,1-8.3,2.9-11.1c2-2.8,4.7-4.2,8.2-4.2c1.7,0,3.2,0.3,4.5,0.9c1.3,0.6,2.4,1.5,3.3,2.7v-11.6l-4.3-0.7v-3.3h4.3h5.2
			v37.1l4.3,0.7v3.3h-8.8L234.9,549.2z M220.9,539.4c0,2.9,0.6,5.2,1.8,6.9s3,2.6,5.5,2.6c1.5,0,2.8-0.4,3.9-1.1
			c1.1-0.7,1.9-1.7,2.6-3v-13.2c-0.7-1.2-1.5-2.1-2.6-2.8c-1.1-0.7-2.4-1.1-3.8-1.1c-2.5,0-4.3,1-5.5,3.1c-1.2,2.1-1.8,4.7-1.8,8
			V539.4z"/>
		<path class="st1" d="M270.6,517.2v6.9h5.4v3.8h-5.4v17.3c0,1.3,0.3,2.3,0.8,2.8c0.6,0.5,1.3,0.8,2.2,0.8c0.5,0,1,0,1.5-0.1
			c0.6-0.1,1-0.2,1.4-0.3l0.7,3.6c-0.5,0.3-1.2,0.6-2.2,0.8c-0.9,0.2-1.9,0.3-2.8,0.3c-2.1,0-3.8-0.6-5-1.9c-1.2-1.3-1.9-3.3-1.9-6
			v-17.3h-4.5v-3.8h4.5v-6.9H270.6z"/>
		<path class="st1" d="M281.3,527.4v-3.3h8.9l0.5,4.1c0.8-1.5,1.8-2.6,3-3.4c1.2-0.8,2.5-1.2,4.1-1.2c0.4,0,0.8,0,1.3,0.1
			c0.4,0.1,0.8,0.1,1,0.2l-0.7,4.8l-3-0.2c-1.4,0-2.5,0.3-3.5,1c-0.9,0.6-1.7,1.5-2.2,2.7v16.4l4.3,0.7v3.3h-13.8v-3.3l4.3-0.7
			v-20.4L281.3,527.4z"/>
		<path class="st1" d="M322.3,552.6c-0.2-0.8-0.3-1.5-0.4-2.1c-0.1-0.6-0.1-1.2-0.2-1.8c-1,1.3-2.3,2.4-3.8,3.2
			c-1.5,0.9-3.1,1.3-4.8,1.3c-3,0-5.2-0.7-6.8-2.2s-2.3-3.5-2.3-6.1c0-2.7,1.1-4.8,3.3-6.3c2.2-1.5,5.2-2.2,9-2.2h5.4v-3.3
			c0-1.7-0.5-3-1.6-4s-2.5-1.5-4.4-1.5c-1.3,0-2.4,0.2-3.4,0.5c-1,0.3-1.8,0.8-2.4,1.4l-0.6,3h-4V527c1.3-1,2.9-1.9,4.7-2.5
			c1.8-0.6,3.8-0.9,6-0.9c3.2,0,5.9,0.8,7.9,2.5c2,1.7,3,4,3,7.1v13.7c0,0.4,0,0.7,0,1.1c0,0.4,0,0.7,0.1,1.1l2.1,0.3v3.3H322.3z
			 M313.9,548.8c1.7,0,3.3-0.4,4.7-1.2c1.4-0.8,2.4-1.8,3.1-3v-4.7h-5.5c-2.1,0-3.8,0.5-5,1.5c-1.2,1-1.9,2.2-1.9,3.6
			c0,1.2,0.4,2.2,1.2,2.9S312.3,548.8,313.9,548.8z"/>
		<path class="st1" d="M333.4,549.3l4.3-0.7v-20.4l-4.3-0.7v-3.3h9.5v24.5l4.3,0.7v3.3h-13.8V549.3z M342.9,516.8h-5.2v-5.3h5.2
			V516.8z"/>
		<path class="st1" d="M350.4,514.8v-3.3h9.5v37.1l4.3,0.7v3.3h-13.8v-3.3l4.3-0.7v-33L350.4,514.8z"/>
		<path class="st1" d="M400.8,549.2c-0.9,1.3-2.1,2.3-3.4,3c-1.3,0.7-2.9,1-4.7,1c-3.5,0-6.2-1.3-8.2-3.8c-2-2.5-2.9-5.8-2.9-10
			v-0.6c0-4.6,1-8.3,2.9-11.1c2-2.8,4.7-4.2,8.2-4.2c1.7,0,3.2,0.3,4.5,0.9c1.3,0.6,2.4,1.5,3.3,2.7v-11.6l-4.3-0.7v-3.3h4.3h5.2
			v37.1l4.3,0.7v3.3h-8.8L400.8,549.2z M386.8,539.4c0,2.9,0.6,5.2,1.8,6.9s3,2.6,5.5,2.6c1.5,0,2.8-0.4,3.9-1.1
			c1.1-0.7,1.9-1.7,2.6-3v-13.2c-0.7-1.2-1.5-2.1-2.6-2.8c-1.1-0.7-2.4-1.1-3.8-1.1c-2.5,0-4.3,1-5.5,3.1c-1.2,2.1-1.8,4.7-1.8,8
			V539.4z"/>
		<path class="st1" d="M432.6,552.6c-0.2-0.8-0.3-1.5-0.4-2.1c-0.1-0.6-0.1-1.2-0.2-1.8c-1,1.3-2.3,2.4-3.8,3.2
			c-1.5,0.9-3.1,1.3-4.8,1.3c-3,0-5.2-0.7-6.8-2.2s-2.3-3.5-2.3-6.1c0-2.7,1.1-4.8,3.3-6.3c2.2-1.5,5.2-2.2,9-2.2h5.4v-3.3
			c0-1.7-0.5-3-1.6-4s-2.5-1.5-4.4-1.5c-1.3,0-2.4,0.2-3.4,0.5c-1,0.3-1.8,0.8-2.4,1.4l-0.6,3h-4V527c1.3-1,2.9-1.9,4.7-2.5
			c1.8-0.6,3.8-0.9,6-0.9c3.2,0,5.9,0.8,7.9,2.5c2,1.7,3,4,3,7.1v13.7c0,0.4,0,0.7,0,1.1c0,0.4,0,0.7,0.1,1.1l2.1,0.3v3.3H432.6z
			 M424.2,548.8c1.7,0,3.3-0.4,4.7-1.2c1.4-0.8,2.4-1.8,3.1-3v-4.7h-5.5c-2.1,0-3.8,0.5-5,1.5c-1.2,1-1.9,2.2-1.9,3.6
			c0,1.2,0.4,2.2,1.2,2.9S422.7,548.8,424.2,548.8z"/>
		<path class="st1" d="M452.8,517.2v6.9h5.4v3.8h-5.4v17.3c0,1.3,0.3,2.3,0.8,2.8c0.6,0.5,1.3,0.8,2.2,0.8c0.5,0,1,0,1.5-0.1
			c0.6-0.1,1-0.2,1.4-0.3l0.7,3.6c-0.5,0.3-1.2,0.6-2.2,0.8c-0.9,0.2-1.9,0.3-2.8,0.3c-2.1,0-3.8-0.6-5-1.9c-1.2-1.3-1.9-3.3-1.9-6
			v-17.3h-4.5v-3.8h4.5v-6.9H452.8z"/>
		<path class="st1" d="M482.1,552.6c-0.2-0.8-0.3-1.5-0.4-2.1c-0.1-0.6-0.1-1.2-0.2-1.8c-1,1.3-2.3,2.4-3.8,3.2
			c-1.5,0.9-3.1,1.3-4.8,1.3c-3,0-5.2-0.7-6.8-2.2s-2.3-3.5-2.3-6.1c0-2.7,1.1-4.8,3.3-6.3c2.2-1.5,5.2-2.2,9-2.2h5.4v-3.3
			c0-1.7-0.5-3-1.6-4s-2.5-1.5-4.4-1.5c-1.3,0-2.4,0.2-3.4,0.5c-1,0.3-1.8,0.8-2.4,1.4l-0.6,3h-4V527c1.3-1,2.9-1.9,4.7-2.5
			c1.8-0.6,3.8-0.9,6-0.9c3.2,0,5.9,0.8,7.9,2.5c2,1.7,3,4,3,7.1v13.7c0,0.4,0,0.7,0,1.1c0,0.4,0,0.7,0.1,1.1l2.1,0.3v3.3H482.1z
			 M473.7,548.8c1.7,0,3.3-0.4,4.7-1.2c1.4-0.8,2.4-1.8,3.1-3v-4.7H476c-2.1,0-3.8,0.5-5,1.5c-1.2,1-1.9,2.2-1.9,3.6
			c0,1.2,0.4,2.2,1.2,2.9S472.2,548.8,473.7,548.8z"/>
		<path class="st1" d="M152.9,582v6.9h5.4v3.8h-5.4V610c0,1.3,0.3,2.3,0.8,2.8c0.6,0.5,1.3,0.8,2.2,0.8c0.5,0,1,0,1.5-0.1
			c0.6-0.1,1-0.2,1.4-0.2l0.7,3.6c-0.5,0.3-1.2,0.6-2.2,0.8s-1.9,0.3-2.8,0.3c-2.1,0-3.8-0.6-5-1.9c-1.2-1.3-1.9-3.3-1.9-6v-17.3
			h-4.5v-3.8h4.5V582H152.9z"/>
		<path class="st1" d="M163.1,602.9c0-4.2,1.1-7.7,3.4-10.4c2.3-2.7,5.4-4.1,9.3-4.1c3.9,0,7.1,1.4,9.3,4.1
			c2.3,2.7,3.4,6.2,3.4,10.4v0.6c0,4.3-1.1,7.7-3.4,10.4s-5.4,4.1-9.3,4.1c-4,0-7.1-1.4-9.4-4.1s-3.4-6.2-3.4-10.4V602.9z
			 M168.3,603.4c0,3,0.6,5.5,1.9,7.5s3.2,3,5.7,3c2.5,0,4.3-1,5.6-3s1.9-4.5,1.9-7.5v-0.6c0-3-0.6-5.5-1.9-7.5s-3.2-3-5.7-3
			s-4.4,1-5.6,3s-1.9,4.5-1.9,7.5V603.4z"/>
		<path class="st1" d="M205.7,614.1l4.3-0.7V593l-4.3-0.7v-3.3h9l0.3,3.7c0.9-1.4,2.1-2.4,3.5-3.1s3.1-1.1,5-1.1s3.5,0.4,4.9,1.3
			c1.4,0.9,2.4,2.2,3.1,4c0.9-1.6,2.1-2.9,3.6-3.8s3.2-1.4,5.2-1.4c2.9,0,5.2,1,6.9,3c1.7,2,2.5,5,2.5,9v13l4.3,0.7v3.3h-13.8v-3.3
			l4.3-0.7v-13.1c0-2.8-0.5-4.8-1.5-6c-1-1.2-2.4-1.8-4.3-1.8c-1.8,0-3.3,0.6-4.4,1.9c-1.1,1.3-1.7,2.9-1.9,4.8v14.1l4.3,0.7v3.3
			H223v-3.3l4.3-0.7v-13.1c0-2.7-0.5-4.6-1.5-5.9c-1-1.2-2.4-1.9-4.3-1.9c-1.6,0-2.9,0.3-3.9,1s-1.8,1.6-2.3,2.7v17.1l4.3,0.7v3.3
			h-13.8V614.1z"/>
		<path class="st1" d="M276.4,617.4c-0.2-0.8-0.3-1.5-0.4-2.1s-0.1-1.2-0.2-1.8c-1,1.3-2.3,2.4-3.8,3.2c-1.5,0.9-3.1,1.3-4.8,1.3
			c-3,0-5.2-0.7-6.8-2.2s-2.3-3.5-2.3-6.1c0-2.7,1.1-4.8,3.3-6.3c2.2-1.5,5.2-2.2,9-2.2h5.4v-3.3c0-1.7-0.5-3-1.6-4
			s-2.5-1.5-4.4-1.5c-1.3,0-2.4,0.2-3.4,0.5s-1.8,0.8-2.4,1.4l-0.6,3h-4v-5.5c1.3-1,2.9-1.9,4.7-2.5c1.8-0.6,3.8-0.9,6-0.9
			c3.2,0,5.9,0.8,7.9,2.5s3,4,3,7.1v13.7c0,0.4,0,0.7,0,1.1c0,0.4,0,0.7,0.1,1.1l2.1,0.3v3.3H276.4z M268,613.6
			c1.7,0,3.3-0.4,4.7-1.2s2.4-1.8,3.1-3v-4.7h-5.5c-2.1,0-3.8,0.5-5,1.5c-1.2,1-1.9,2.2-1.9,3.6c0,1.2,0.4,2.2,1.2,2.9
			S266.5,613.6,268,613.6z"/>
		<path class="st1" d="M286.9,625l4.3-0.7V593l-4.3-0.7v-3.3h8.8l0.5,3.5c0.9-1.3,2.1-2.3,3.5-3c1.4-0.7,2.9-1,4.7-1
			c3.5,0,6.3,1.4,8.2,4.2c2,2.8,2.9,6.5,2.9,11.1v0.6c0,4.1-1,7.4-3,10c-2,2.5-4.7,3.8-8.1,3.8c-1.8,0-3.3-0.3-4.6-0.9
			s-2.5-1.5-3.4-2.6v9.8l4.3,0.7v3.3h-13.8V625z M310.3,603.7c0-3.3-0.6-5.9-1.9-8s-3.1-3.1-5.6-3.1c-1.5,0-2.7,0.3-3.8,1
			s-1.9,1.6-2.6,2.7v13.9c0.7,1.2,1.5,2.1,2.5,2.7c1,0.6,2.3,1,3.9,1c2.5,0,4.3-0.9,5.6-2.7s1.9-4.1,1.9-7V603.7z"/>
		<path class="st1" d="M355.5,597.8h-3.9l-0.8-3.4c-0.6-0.6-1.4-1.1-2.4-1.4c-1-0.4-2-0.5-3.3-0.5c-1.8,0-3.2,0.4-4.1,1.2
			s-1.3,1.8-1.3,2.9c0,1.1,0.4,2,1.2,2.7s2.4,1.2,4.8,1.7c3.6,0.8,6.3,1.8,8,3.2c1.8,1.3,2.6,3.1,2.6,5.3c0,2.5-1,4.6-3.1,6.1
			c-2,1.6-4.7,2.3-8,2.3c-2.2,0-4.1-0.3-5.8-0.8s-3.3-1.2-4.6-2.2l0-6.5h3.9l1,3.8c0.6,0.5,1.4,0.9,2.4,1.2c1,0.2,2.1,0.4,3.2,0.4
			c1.8,0,3.3-0.4,4.3-1.1c1-0.7,1.6-1.7,1.6-2.9c0-1.1-0.4-2.1-1.3-2.8c-0.9-0.7-2.5-1.4-4.9-1.9c-3.5-0.8-6.1-1.8-7.8-3.1
			s-2.6-3.1-2.6-5.3c0-2.3,1-4.3,3-5.9c2-1.6,4.5-2.5,7.7-2.5c2.2,0,4.1,0.3,5.8,0.8s3.2,1.3,4.3,2.3L355.5,597.8z"/>
		<path class="st1" d="M374,613.9c1.7,0,3.2-0.5,4.5-1.6c1.3-1.1,2-2.4,2-3.9h4.7l0.1,0.2c0.1,2.5-1,4.6-3.3,6.6
			c-2.3,1.9-4.9,2.9-8,2.9c-4.1,0-7.3-1.4-9.5-4.1c-2.2-2.7-3.3-6.1-3.3-10.2v-1.1c0-4.1,1.1-7.4,3.3-10.2s5.4-4.1,9.5-4.1
			c2.3,0,4.3,0.4,6.2,1.1c1.8,0.8,3.3,1.8,4.5,3.1l0.2,6.3h-4.1l-1.1-4.5c-0.6-0.6-1.4-1.1-2.4-1.5s-2.1-0.6-3.3-0.6
			c-2.7,0-4.7,1-5.8,2.9c-1.2,2-1.8,4.4-1.8,7.2v1.1c0,2.9,0.6,5.3,1.7,7.3C369.3,612.9,371.2,613.9,374,613.9z"/>
		<path class="st1" d="M403.3,617.9c-4,0-7.1-1.3-9.5-4c-2.3-2.6-3.5-6.1-3.5-10.3v-1.2c0-4.1,1.2-7.4,3.6-10.1c2.4-2.7,5.3-4,8.6-4
			c3.8,0,6.7,1.2,8.7,3.5c2,2.3,3,5.4,3,9.3v3.2h-18.5l-0.1,0.1c0.1,2.7,0.7,5,2.1,6.8s3.2,2.7,5.6,2.7c1.8,0,3.3-0.3,4.6-0.8
			c1.3-0.5,2.5-1.2,3.4-2.1l2,3.4c-1,1-2.4,1.8-4,2.5C407.7,617.6,405.6,617.9,403.3,617.9z M402.5,592.4c-1.7,0-3.2,0.7-4.5,2.2
			c-1.2,1.5-2,3.3-2.3,5.5l0.1,0.1H409v-0.7c0-2-0.5-3.7-1.6-5.1S404.6,592.4,402.5,592.4z"/>
		<path class="st1" d="M418.5,614.1l4.3-0.7V593l-4.3-0.7v-3.3h8.9l0.4,4.2c0.9-1.5,2.1-2.7,3.6-3.5c1.4-0.8,3.1-1.3,4.9-1.3
			c3.1,0,5.5,0.9,7.1,2.7c1.7,1.8,2.5,4.6,2.5,8.3v13.9l4.3,0.7v3.3h-13.8v-3.3l4.3-0.7v-13.8c0-2.5-0.5-4.3-1.5-5.4
			s-2.5-1.6-4.5-1.6c-1.5,0-2.8,0.4-4,1.1c-1.2,0.7-2.1,1.7-2.8,3v16.7l4.3,0.7v3.3h-13.8V614.1z"/>
		<path class="st1" d="M454.1,614.1l4.3-0.7V593l-4.3-0.7v-3.3h9.5v24.5l4.3,0.7v3.3h-13.8V614.1z M463.5,581.6h-5.2v-5.3h5.2V581.6
			z"/>
		<path class="st1" d="M484.6,613.9c1.7,0,3.2-0.5,4.5-1.6c1.3-1.1,2-2.4,2-3.9h4.7l0.1,0.2c0.1,2.5-1,4.6-3.3,6.6
			c-2.3,1.9-4.9,2.9-8,2.9c-4.1,0-7.3-1.4-9.5-4.1c-2.2-2.7-3.3-6.1-3.3-10.2v-1.1c0-4.1,1.1-7.4,3.3-10.2s5.4-4.1,9.5-4.1
			c2.3,0,4.3,0.4,6.2,1.1c1.8,0.8,3.3,1.8,4.5,3.1l0.2,6.3h-4.1l-1.1-4.5c-0.6-0.6-1.4-1.1-2.4-1.5s-2.1-0.6-3.3-0.6
			c-2.7,0-4.7,1-5.8,2.9c-1.2,2-1.8,4.4-1.8,7.2v1.1c0,2.9,0.6,5.3,1.7,7.3C479.9,612.9,481.9,613.9,484.6,613.9z"/>
		<path class="st1" d="M140.2,689.8l4.3-0.7v-31.3l-4.3-0.7v-3.3h8.8l0.5,3.5c0.9-1.3,2.1-2.3,3.5-3c1.4-0.7,2.9-1,4.7-1
			c3.5,0,6.3,1.4,8.2,4.2c2,2.8,2.9,6.5,2.9,11.1v0.6c0,4.1-1,7.4-3,10s-4.7,3.8-8.1,3.8c-1.8,0-3.3-0.3-4.6-0.9s-2.5-1.5-3.4-2.6
			v9.8l4.3,0.7v3.3h-13.8V689.8z M163.6,668.5c0-3.3-0.6-5.9-1.9-8c-1.3-2.1-3.1-3.1-5.6-3.1c-1.5,0-2.7,0.3-3.8,1
			c-1.1,0.7-1.9,1.6-2.6,2.7V675c0.7,1.2,1.5,2.1,2.5,2.7s2.3,1,3.9,1c2.5,0,4.3-0.9,5.6-2.7s1.9-4.1,1.9-7V668.5z"/>
		<path class="st1" d="M192.2,682.2c-0.2-0.8-0.3-1.5-0.4-2.1c-0.1-0.6-0.1-1.2-0.2-1.8c-1,1.3-2.3,2.4-3.8,3.2
			c-1.5,0.9-3.1,1.3-4.8,1.3c-3,0-5.2-0.7-6.8-2.2s-2.3-3.5-2.3-6.1c0-2.7,1.1-4.8,3.3-6.3c2.2-1.5,5.2-2.2,9-2.2h5.4v-3.3
			c0-1.7-0.5-3-1.6-4s-2.5-1.5-4.4-1.5c-1.3,0-2.4,0.2-3.4,0.5c-1,0.3-1.8,0.8-2.4,1.4l-0.6,3h-4v-5.5c1.3-1,2.9-1.9,4.7-2.5
			s3.8-0.9,6-0.9c3.2,0,5.9,0.8,7.9,2.5c2,1.7,3,4,3,7.1v13.7c0,0.4,0,0.7,0,1.1c0,0.4,0,0.7,0.1,1.1l2.1,0.3v3.3H192.2z
			 M183.8,678.4c1.7,0,3.3-0.4,4.7-1.2c1.4-0.8,2.4-1.8,3.1-3v-4.7h-5.5c-2.1,0-3.8,0.5-5,1.5c-1.2,1-1.9,2.2-1.9,3.6
			c0,1.2,0.4,2.2,1.2,2.9S182.2,678.4,183.8,678.4z"/>
		<path class="st1" d="M212.4,646.8v6.9h5.4v3.8h-5.4v17.3c0,1.3,0.3,2.3,0.8,2.8c0.6,0.5,1.3,0.8,2.2,0.8c0.5,0,1,0,1.5-0.1
			c0.6-0.1,1-0.2,1.4-0.3l0.7,3.6c-0.5,0.3-1.2,0.6-2.2,0.8c-0.9,0.2-1.9,0.3-2.8,0.3c-2.1,0-3.8-0.6-5-1.9s-1.9-3.3-1.9-6v-17.3
			h-4.5v-3.8h4.5v-6.9H212.4z"/>
		<path class="st1" d="M222.4,678.9l4.3-0.7v-33l-4.3-0.7v-3.3h9.5v16.4c1-1.4,2.2-2.4,3.6-3.2c1.4-0.8,3-1.1,4.7-1.1
			c3.1,0,5.4,0.9,7.1,2.7c1.7,1.8,2.5,4.6,2.5,8.4v13.8l4.3,0.7v3.3h-13.8v-3.3l4.3-0.7v-13.9c0-2.4-0.5-4.1-1.5-5.2
			c-1-1.1-2.5-1.7-4.5-1.7c-1.4,0-2.7,0.3-3.9,1s-2.1,1.6-2.9,2.8v17l4.3,0.7v3.3h-13.8V678.9z"/>
		<path class="st1" d="M279.8,662.6h-3.9l-0.8-3.4c-0.6-0.6-1.4-1.1-2.4-1.4c-1-0.4-2-0.5-3.3-0.5c-1.8,0-3.2,0.4-4.1,1.2
			c-0.9,0.8-1.3,1.8-1.3,2.9c0,1.1,0.4,2,1.2,2.7c0.8,0.7,2.4,1.2,4.8,1.7c3.6,0.8,6.3,1.8,8,3.2s2.6,3.1,2.6,5.3
			c0,2.5-1,4.6-3.1,6.1c-2,1.6-4.7,2.3-8,2.3c-2.2,0-4.1-0.2-5.8-0.8s-3.3-1.2-4.6-2.2l0-6.5h3.9l1,3.8c0.6,0.5,1.4,0.9,2.4,1.2
			c1,0.2,2.1,0.4,3.2,0.4c1.8,0,3.3-0.4,4.3-1.1c1-0.7,1.6-1.7,1.6-2.9c0-1.1-0.4-2.1-1.3-2.8c-0.9-0.7-2.5-1.4-4.9-1.9
			c-3.5-0.8-6.1-1.8-7.8-3.1c-1.8-1.3-2.6-3.1-2.6-5.3c0-2.3,1-4.3,3-5.9c2-1.6,4.5-2.5,7.7-2.5c2.2,0,4.1,0.3,5.8,0.8
			c1.7,0.6,3.2,1.3,4.3,2.3L279.8,662.6z"/>
		<path class="st1" d="M308,646.8v6.9h5.4v3.8H308v17.3c0,1.3,0.3,2.3,0.8,2.8c0.6,0.5,1.3,0.8,2.2,0.8c0.5,0,1,0,1.5-0.1
			c0.6-0.1,1-0.2,1.4-0.3l0.7,3.6c-0.5,0.3-1.2,0.6-2.2,0.8c-0.9,0.2-1.9,0.3-2.8,0.3c-2.1,0-3.8-0.6-5-1.9s-1.9-3.3-1.9-6v-17.3
			h-4.5v-3.8h4.5v-6.9H308z"/>
		<path class="st1" d="M317.9,678.9l4.3-0.7v-33l-4.3-0.7v-3.3h9.5v16.4c1-1.4,2.2-2.4,3.6-3.2c1.4-0.8,3-1.1,4.7-1.1
			c3.1,0,5.4,0.9,7.1,2.7c1.7,1.8,2.5,4.6,2.5,8.4v13.8l4.3,0.7v3.3H336v-3.3l4.3-0.7v-13.9c0-2.4-0.5-4.1-1.5-5.2
			c-1-1.1-2.5-1.7-4.5-1.7c-1.4,0-2.7,0.3-3.9,1s-2.1,1.6-2.9,2.8v17l4.3,0.7v3.3h-13.8V678.9z"/>
		<path class="st1" d="M353.5,657v-3.3h8.9l0.5,4.1c0.8-1.5,1.8-2.6,3-3.4c1.2-0.8,2.5-1.2,4.1-1.2c0.4,0,0.8,0,1.3,0.1
			c0.4,0.1,0.8,0.1,1,0.2l-0.7,4.8l-3-0.2c-1.4,0-2.5,0.3-3.5,1s-1.7,1.5-2.2,2.7v16.4l4.3,0.7v3.3h-13.8v-3.3l4.3-0.7v-20.4
			L353.5,657z"/>
		<path class="st1" d="M375.3,667.7c0-4.2,1.1-7.7,3.4-10.4s5.4-4.1,9.3-4.1c3.9,0,7.1,1.4,9.3,4.1c2.3,2.7,3.4,6.2,3.4,10.4v0.6
			c0,4.3-1.1,7.7-3.4,10.4c-2.3,2.7-5.4,4.1-9.3,4.1c-4,0-7.1-1.4-9.4-4.1s-3.4-6.2-3.4-10.4V667.7z M380.5,668.2
			c0,3,0.6,5.5,1.9,7.5c1.3,2,3.2,3,5.7,3c2.5,0,4.3-1,5.6-3c1.3-2,1.9-4.5,1.9-7.5v-0.6c0-3-0.6-5.5-1.9-7.5c-1.3-2-3.2-3-5.7-3
			s-4.4,1-5.6,3c-1.3,2-1.9,4.5-1.9,7.5V668.2z"/>
		<path class="st1" d="M426,678c-0.9,1.5-2.1,2.7-3.5,3.5s-3,1.2-4.9,1.2c-3.1,0-5.5-1-7.3-3c-1.7-2-2.6-5.1-2.6-9.3v-12.7l-3.3-0.7
			v-3.3h3.3h5.2v16.9c0,3,0.4,5.1,1.3,6.3c0.9,1.1,2.3,1.7,4.2,1.7c1.8,0,3.4-0.4,4.6-1.1c1.2-0.7,2.1-1.8,2.7-3.2v-16.5L422,657
			v-3.3h3.8h5.2v24.5l3.3,0.7v3.3h-7.9L426,678z"/>
		<path class="st1" d="M438.4,668.5c0-4.6,1-8.3,3-11.1c2-2.8,4.8-4.2,8.3-4.2c1.8,0,3.4,0.4,4.7,1.1c1.4,0.7,2.5,1.7,3.4,3.1
			l0.5-3.6h4.4v28.2c0,3.7-1,6.6-3.1,8.7c-2.1,2.1-5,3.2-8.8,3.2c-1.4,0-2.9-0.2-4.5-0.6c-1.6-0.4-3-0.9-4.2-1.5l1.3-4
			c1,0.5,2.1,0.9,3.4,1.3s2.6,0.5,3.8,0.5c2.3,0,4-0.7,5.1-2c1.1-1.3,1.6-3.2,1.6-5.6v-2.7c-0.9,1.2-2,2.1-3.3,2.7s-2.8,0.9-4.5,0.9
			c-3.5,0-6.2-1.3-8.3-3.8s-3-5.8-3-9.9V668.5z M443.6,669c0,2.9,0.6,5.2,1.8,6.9s3.1,2.6,5.5,2.6c1.6,0,2.9-0.4,3.9-1.1
			s1.9-1.7,2.6-3v-13.1c-0.7-1.2-1.5-2.2-2.6-2.9s-2.4-1.1-3.9-1.1c-2.5,0-4.3,1-5.6,3.1c-1.2,2.1-1.8,4.7-1.8,8V669z"/>
		<path class="st1" d="M468.3,678.9l4.3-0.7v-33l-4.3-0.7v-3.3h9.5v16.4c1-1.4,2.2-2.4,3.6-3.2c1.4-0.8,3-1.1,4.7-1.1
			c3.1,0,5.4,0.9,7.1,2.7c1.7,1.8,2.5,4.6,2.5,8.4v13.8l4.3,0.7v3.3h-13.8v-3.3l4.3-0.7v-13.9c0-2.4-0.5-4.1-1.5-5.2
			c-1-1.1-2.5-1.7-4.5-1.7c-1.4,0-2.7,0.3-3.9,1s-2.1,1.6-2.9,2.8v17l4.3,0.7v3.3h-13.8V678.9z"/>
		<path class="st1" d="M247.4,708.6v8.5H243l-0.4-4.4h-8.5v30.2l4.3,0.7v3.3h-13.8v-3.3l4.3-0.7v-30.2h-8.5l-0.4,4.4h-4.5v-8.5
			H247.4z"/>
		<path class="st1" d="M248.1,732.5c0-4.2,1.1-7.7,3.4-10.4s5.4-4.1,9.3-4.1c3.9,0,7.1,1.4,9.3,4.1c2.3,2.7,3.4,6.2,3.4,10.4v0.6
			c0,4.3-1.1,7.7-3.4,10.4c-2.3,2.7-5.4,4.1-9.3,4.1c-4,0-7.1-1.4-9.4-4.1s-3.4-6.2-3.4-10.4V732.5z M253.3,733c0,3,0.6,5.5,1.9,7.5
			c1.3,2,3.2,3,5.7,3c2.5,0,4.3-1,5.6-3c1.3-2,1.9-4.5,1.9-7.5v-0.6c0-3-0.6-5.5-1.9-7.5c-1.3-2-3.2-3-5.7-3s-4.4,1-5.6,3
			c-1.3,2-1.9,4.5-1.9,7.5V733z"/>
		<path class="st1" d="M278.4,721.8v-3.3h8.9l0.5,4.1c0.8-1.5,1.8-2.6,3-3.4c1.2-0.8,2.5-1.2,4.1-1.2c0.4,0,0.8,0,1.3,0.1
			c0.4,0.1,0.8,0.1,1,0.2l-0.7,4.8l-3-0.2c-1.4,0-2.5,0.3-3.5,1s-1.7,1.5-2.2,2.7v16.4l4.3,0.7v3.3h-13.8v-3.3l4.3-0.7v-20.4
			L278.4,721.8z"/>
		<path class="st1" d="M300.3,732.5c0-4.2,1.1-7.7,3.4-10.4s5.4-4.1,9.3-4.1c3.9,0,7.1,1.4,9.3,4.1c2.3,2.7,3.4,6.2,3.4,10.4v0.6
			c0,4.3-1.1,7.7-3.4,10.4c-2.3,2.7-5.4,4.1-9.3,4.1c-4,0-7.1-1.4-9.4-4.1s-3.4-6.2-3.4-10.4V732.5z M305.4,733c0,3,0.6,5.5,1.9,7.5
			c1.3,2,3.2,3,5.7,3c2.5,0,4.3-1,5.6-3c1.3-2,1.9-4.5,1.9-7.5v-0.6c0-3-0.6-5.5-1.9-7.5c-1.3-2-3.2-3-5.7-3s-4.4,1-5.6,3
			c-1.3,2-1.9,4.5-1.9,7.5V733z"/>
		<path class="st1" d="M329.8,743.7l4.3-0.7v-20.4l-4.3-0.7v-3.3h8.9l0.4,4.2c0.9-1.5,2.1-2.7,3.6-3.5c1.4-0.8,3.1-1.3,4.9-1.3
			c3.1,0,5.5,0.9,7.1,2.7s2.5,4.6,2.5,8.3v13.9l4.3,0.7v3.3h-13.8v-3.3l4.3-0.7v-13.8c0-2.5-0.5-4.3-1.5-5.4s-2.5-1.6-4.5-1.6
			c-1.5,0-2.8,0.4-4,1.1c-1.2,0.7-2.1,1.7-2.8,3v16.7l4.3,0.7v3.3h-13.8V743.7z"/>
		<path class="st1" d="M374.3,711.6v6.9h5.4v3.8h-5.4v17.3c0,1.3,0.3,2.3,0.8,2.8c0.6,0.5,1.3,0.8,2.2,0.8c0.5,0,1,0,1.5-0.1
			c0.6-0.1,1-0.2,1.4-0.3l0.7,3.6c-0.5,0.3-1.2,0.6-2.2,0.8c-0.9,0.2-1.9,0.3-2.8,0.3c-2.1,0-3.8-0.6-5-1.9s-1.9-3.3-1.9-6v-17.3
			h-4.5v-3.8h4.5v-6.9H374.3z"/>
		<path class="st1" d="M384.5,732.5c0-4.2,1.1-7.7,3.4-10.4s5.4-4.1,9.3-4.1c3.9,0,7.1,1.4,9.3,4.1c2.3,2.7,3.4,6.2,3.4,10.4v0.6
			c0,4.3-1.1,7.7-3.4,10.4c-2.3,2.7-5.4,4.1-9.3,4.1c-4,0-7.1-1.4-9.4-4.1s-3.4-6.2-3.4-10.4V732.5z M389.7,733c0,3,0.6,5.5,1.9,7.5
			c1.3,2,3.2,3,5.7,3c2.5,0,4.3-1,5.6-3c1.3-2,1.9-4.5,1.9-7.5v-0.6c0-3-0.6-5.5-1.9-7.5c-1.3-2-3.2-3-5.7-3s-4.4,1-5.6,3
			c-1.3,2-1.9,4.5-1.9,7.5V733z"/>
		<path class="st1" d="M421.5,747h-5.2v-5.3h5.2V747z"/>
	</g>
</g>
<g id="grid" class="st70">
</g>
</svg>
