<?xml version="1.0" encoding="utf-8"?>
<!-- Generator: Adobe Illustrator 18.1.1, SVG Export Plug-In . SVG Version: 6.00 Build 0)  -->
<svg version="1.1" xmlns="http://www.w3.org/2000/svg" xmlns:xlink="http://www.w3.org/1999/xlink" x="0px" y="0px"
	 viewBox="0 0 640 1136" style="enable-background:new 0 0 640 1136;" xml:space="preserve">
<style type="text/css">
	.st0{fill:#3B8C6B;}
	.st1{fill:#FFFFFF;}
	.st2{fill:url(#SVGID_1_);}
	.st3{opacity:0.3;}
	.st4{fill-rule:evenodd;clip-rule:evenodd;fill:#F46B83;}
	.st5{fill:#58BD98;}
	.st6{fill:#EFEFEF;}
	.st7{fill:none;stroke:#E0E1E2;stroke-width:11;stroke-miterlimit:10;}
	.st8{opacity:0.3;fill-rule:evenodd;clip-rule:evenodd;fill:#F56980;}
	.st9{fill:#F56980;}
	.st10{fill:#2AD19D;}
	.st11{fill-rule:evenodd;clip-rule:evenodd;fill:#FFFFFF;}
	.st12{fill:#F36D85;}
	.st13{fill:#E0E1E2;}
	.st14{fill:#F46B83;}
	.st15{fill:none;stroke:#F46B83;stroke-width:8;stroke-miterlimit:10;}
	.st16{opacity:0.3;fill:#2AD19D;}
	.st17{fill:#89D7E6;}
	.st18{clip-path:url(#SVGID_3_);}
	.st19{fill-rule:evenodd;clip-rule:evenodd;fill:#F56980;}
	.st20{opacity:0.3;fill:#F36D85;}
	.st21{opacity:0.3;fill:#F46B83;}
	.st22{fill:#24A45A;}
	.st23{fill:#3A5D87;}
	.st24{fill:#527EBB;}
	.st25{fill:#D82908;}
	.st26{fill:#E85749;}
	.st27{fill:none;stroke:#CDEBE0;stroke-width:5;stroke-linecap:round;stroke-miterlimit:10;}
	.st28{fill:#1A9169;}
	.st29{fill:none;stroke:#F7ADC1;stroke-width:12;stroke-miterlimit:10;}
	.st30{fill:none;stroke:#2AD19D;stroke-width:12;stroke-miterlimit:10;}
	.st31{fill:none;}
	.st32{fill:#BDF3F4;}
	.st33{fill:#34B188;}
	.st34{fill:#FDE49C;}
	.st35{fill:#FDEF6E;}
	.st36{fill:#1E845A;}
	.st37{fill:none;stroke:#A17644;stroke-width:2;stroke-miterlimit:10;}
	.st38{fill:#79E2BC;}
	.st39{fill:none;stroke:#A17644;stroke-width:3;stroke-miterlimit:10;}
	.st40{fill:none;stroke:#A17644;stroke-width:4;stroke-miterlimit:10;}
	.st41{fill:none;stroke:#A17644;stroke-width:3.4344;stroke-miterlimit:10;}
	.st42{fill:#808184;}
	.st43{fill:#BC4D65;}
	.st44{fill:#933850;}
	.st45{fill:none;stroke:#79E2BC;stroke-miterlimit:10;}
	.st46{opacity:0.2;}
	.st47{fill:#47B58D;}
	.st48{fill:none;stroke:#FFFFFF;stroke-width:8;stroke-linecap:round;stroke-miterlimit:10;}
	.st49{fill:none;stroke:#FFFFFF;stroke-width:2;stroke-miterlimit:10;}
	.st50{opacity:0.5;}
	.st51{fill:#929496;}
	.st52{fill:#CDE8DE;}
	.st53{clip-path:url(#SVGID_5_);}
	.st54{fill:#F6899C;}
	.st55{fill:#F66981;}
	.st56{fill:#FFFFFF;stroke:#F46B83;stroke-width:6;stroke-miterlimit:10;}
	.st57{clip-path:url(#SVGID_7_);fill:#47B58D;}
	.st58{clip-path:url(#SVGID_7_);}
	.st59{fill:none;stroke:#A17644;stroke-width:1.572;stroke-miterlimit:10;}
	.st60{clip-path:url(#SVGID_7_);fill:none;stroke:#79E2BC;stroke-width:2;stroke-miterlimit:10;}
	.st61{clip-path:url(#SVGID_7_);fill:#1E845A;}
	.st62{fill:none;stroke:#A17644;stroke-width:1.828;stroke-miterlimit:10;}
	.st63{fill:none;stroke:#A17644;stroke-width:3.4825;stroke-miterlimit:10;}
	.st64{fill:none;stroke:#A17644;stroke-width:4.1651;stroke-miterlimit:10;}
	.st65{fill:none;stroke:#A17644;stroke-width:2.8014;stroke-miterlimit:10;}
	.st66{fill:#37CF9D;}
	.st67{clip-path:url(#SVGID_9_);}
	.st68{fill:#ABE6CF;}
	.st69{display:none;}
</style>
<g id="Layer_1">
	<g>
		<rect x="100.7" y="177.3" class="st0" width="442.1" height="786.4"/>
	</g>
	<g>
		<rect x="93.5" y="170.3" class="st1" width="443.1" height="786.4"/>
	</g>
	<path class="st23" d="M484.8,506.5H153.4c-6.2,0-11.2-5-11.2-11.2v-39.1c0-6.2,5-11.2,11.2-11.2h331.4c6.2,0,11.2,5,11.2,11.2v39.1
		C496,501.5,491,506.5,484.8,506.5z"/>
	<path class="st24" d="M484.8,503.1H153.4c-6.2,0-11.2-5-11.2-11.2v-39.1c0-6.2,5-11.2,11.2-11.2h331.4c6.2,0,11.2,5,11.2,11.2v39.1
		C496,498,491,503.1,484.8,503.1z"/>
	<path class="st1" d="M170.3,467h3.4v-3.3c0-1.5,0-3.7,1.1-5.1c1.1-1.5,2.6-2.5,5.3-2.5c4.3,0,6.1,0.6,6.1,0.6l-0.8,5
		c0,0-1.4-0.4-2.7-0.4c-1.3,0-2.5,0.5-2.5,1.8v3.8h5.4l-0.4,4.9h-5v17h-6.4v-17h-3.4V467z"/>
	<path class="st25" d="M484.2,594.5H154.1c-6.3,0-11.4-4-11.8-9c0-0.2,0-4.4,0-4.6v-38.4c0-5.3,5.3-9.6,11.8-9.6h330.1
		c6.5,0,11.8,4.3,11.8,9.6v36c0,0.2,0,6.8,0,7.1C495.5,590.6,490.4,594.5,484.2,594.5z"/>
	<path class="st26" d="M484.8,591.1H153.4c-6.2,0-11.2-5-11.2-11.2v-39.1c0-6.2,5-11.2,11.2-11.2h331.4c6.2,0,11.2,5,11.2,11.2v39.1
		C496,586,491,591.1,484.8,591.1z"/>
	<g>
		<path class="st1" d="M186.5,543.8c0,0-7.7,0-10.2,0c-4.6,0-8.9,3.5-8.9,7.5c0,4.1,3.1,7.4,7.8,7.4c0.3,0,0.6,0,0.9,0
			c-0.3,0.6-0.5,1.2-0.5,1.9c0,1.1,0.6,2.1,1.4,2.8c-0.6,0-1.2,0-1.8,0c-5.7,0-10.1,3.6-10.1,7.4c0,3.7,4.8,6,10.5,6
			c6.5,0,10.1-3.7,10.1-7.4c0-3-0.9-4.7-3.6-6.6c-0.9-0.7-2.7-2.2-2.7-3.2c0-1.1,0.3-1.6,2-2.9c1.7-1.3,2.9-3.2,2.9-5.3
			c0-2.6-1.1-5.1-3.3-5.9h3.2L186.5,543.8z M182.9,568.8c0.1,0.3,0.1,0.7,0.1,1.1c0,3-1.9,5.3-7.4,5.3c-3.9,0-6.8-2.5-6.8-5.5
			c0-2.9,3.5-5.4,7.4-5.3c0.9,0,1.8,0.2,2.5,0.4C180.9,566.3,182.5,567.2,182.9,568.8z M176.6,557.7c-2.6-0.1-5.1-2.9-5.6-6.4
			c-0.5-3.5,1.3-6.1,3.9-6c2.6,0.1,5.1,2.9,5.6,6.3C181,555,179.2,557.8,176.6,557.7z"/>
	</g>
	<g>
		<g>
			<path class="st10" d="M146.9,301.8v3.9h2.8v3h-2.8v8.1c0,0.6,0.1,1.1,0.4,1.3s0.6,0.4,1,0.4c0.3,0,0.5,0,0.8,0
				c0.2,0,0.5-0.1,0.7-0.1l0.4,3.1c-0.5,0.1-1,0.3-1.4,0.3s-1,0.1-1.5,0.1c-1.5,0-2.6-0.4-3.4-1.2c-0.8-0.8-1.2-2.1-1.2-3.9v-8.1
				h-2.3v-3h2.3v-3.9H146.9z"/>
			<path class="st10" d="M151.3,313.5c0-2.4,0.7-4.3,2-5.8c1.3-1.5,3.2-2.3,5.5-2.3c2.3,0,4.2,0.8,5.5,2.3c1.3,1.5,2,3.4,2,5.8v0.3
				c0,2.4-0.7,4.3-2,5.8c-1.3,1.5-3.1,2.2-5.5,2.2c-2.4,0-4.2-0.7-5.5-2.2c-1.3-1.5-2-3.4-2-5.8V313.5z M155.6,313.8
				c0,1.4,0.3,2.6,0.8,3.5s1.3,1.3,2.5,1.3c1.1,0,1.9-0.4,2.4-1.3c0.5-0.9,0.8-2,0.8-3.5v-0.3c0-1.4-0.3-2.6-0.8-3.4
				s-1.3-1.3-2.4-1.3s-1.9,0.4-2.4,1.3s-0.8,2-0.8,3.4V313.8z"/>
			<path class="st10" d="M175.2,308.3v-2.6h6.2l0.2,1.8c0.5-0.7,1-1.2,1.7-1.6s1.4-0.6,2.3-0.6c2,0,3.5,0.8,4.6,2.3s1.6,3.5,1.6,6
				v0.3c0,2.3-0.5,4.2-1.6,5.7s-2.6,2.1-4.5,2.1c-0.8,0-1.6-0.2-2.2-0.5s-1.2-0.8-1.7-1.4v4.6l2.1,0.4v2.6h-8.4v-2.6l2.1-0.4v-15.9
				L175.2,308.3z M187.5,313.7c0-1.5-0.2-2.7-0.7-3.6s-1.3-1.4-2.3-1.4c-0.6,0-1.2,0.1-1.6,0.4c-0.5,0.3-0.8,0.6-1.1,1.1v6.9
				c0.3,0.4,0.6,0.8,1.1,1c0.5,0.2,1,0.4,1.7,0.4c1,0,1.8-0.4,2.3-1.2c0.5-0.8,0.7-1.9,0.7-3.3V313.7z"/>
			<path class="st10" d="M201.3,321.8c-2.3,0-4.1-0.7-5.5-2.2s-2.1-3.3-2.1-5.6v-0.6c0-2.4,0.6-4.3,1.9-5.8s3-2.3,5.2-2.3
				c2.1,0,3.8,0.6,5,1.9s1.8,3,1.8,5.2v2.3h-9.5l0,0.1c0.1,1,0.4,1.9,1,2.6s1.5,1,2.5,1c0.9,0,1.7-0.1,2.4-0.3s1.3-0.5,2.1-0.9
				l1.2,2.6c-0.7,0.5-1.5,1-2.5,1.3C203.7,321.7,202.5,321.8,201.3,321.8z M200.9,308.7c-0.8,0-1.4,0.3-1.9,0.9s-0.7,1.4-0.8,2.4
				l0,0.1h5.2v-0.4c0-0.9-0.2-1.6-0.6-2.2C202.4,309,201.7,308.7,200.9,308.7z"/>
			<path class="st10" d="M210,319l2.1-0.4v-9.8l-2.3-0.4v-2.6h6.3l0.2,2.3c0.4-0.8,0.8-1.5,1.4-1.9s1.3-0.7,2-0.7
				c0.2,0,0.5,0,0.7,0.1c0.2,0,0.5,0.1,0.6,0.1l-0.5,3.9l-1.8,0c-0.6,0-1.1,0.1-1.6,0.4s-0.7,0.6-0.9,1v7.7l2.1,0.4v2.6H210V319z"/>
			<path class="st10" d="M235.2,311.1h-2.9l-0.5-2c-0.3-0.2-0.7-0.4-1.1-0.6s-0.9-0.2-1.5-0.2c-0.8,0-1.3,0.2-1.8,0.5
				s-0.7,0.8-0.7,1.3c0,0.5,0.2,0.9,0.6,1.2s1.3,0.6,2.5,0.8c2,0.4,3.4,1,4.4,1.7s1.4,1.8,1.4,3.1c0,1.4-0.6,2.6-1.8,3.5
				c-1.2,0.9-2.8,1.4-4.8,1.4c-1.2,0-2.3-0.2-3.4-0.5c-1-0.4-1.9-0.9-2.7-1.5l0-3.6h3l0.6,2.1c0.3,0.2,0.6,0.4,1,0.5
				s0.9,0.2,1.4,0.2c0.9,0,1.5-0.2,2-0.5c0.5-0.3,0.7-0.7,0.7-1.3c0-0.5-0.2-0.9-0.7-1.2s-1.3-0.6-2.5-0.9c-1.9-0.4-3.3-0.9-4.2-1.7
				c-1-0.7-1.4-1.8-1.4-3.1c0-1.3,0.5-2.5,1.6-3.4s2.7-1.4,4.7-1.4c1.2,0,2.4,0.2,3.5,0.5c1.1,0.3,2,0.8,2.6,1.3L235.2,311.1z"/>
			<path class="st10" d="M237.7,313.5c0-2.4,0.7-4.3,2-5.8c1.3-1.5,3.2-2.3,5.5-2.3c2.3,0,4.2,0.8,5.5,2.3c1.3,1.5,2,3.4,2,5.8v0.3
				c0,2.4-0.7,4.3-2,5.8c-1.3,1.5-3.1,2.2-5.5,2.2c-2.4,0-4.2-0.7-5.5-2.2c-1.3-1.5-2-3.4-2-5.8V313.5z M242,313.8
				c0,1.4,0.3,2.6,0.8,3.5s1.3,1.3,2.5,1.3c1.1,0,1.9-0.4,2.4-1.3c0.5-0.9,0.8-2,0.8-3.5v-0.3c0-1.4-0.3-2.6-0.8-3.4
				s-1.3-1.3-2.4-1.3s-1.9,0.4-2.4,1.3s-0.8,2-0.8,3.4V313.8z"/>
			<path class="st10" d="M254.3,319l2.1-0.4v-9.8l-2.3-0.4v-2.6h6.3l0.2,2.3c0.5-0.8,1.2-1.4,1.9-1.9s1.6-0.7,2.6-0.7
				c1.6,0,2.9,0.5,3.8,1.5s1.3,2.6,1.3,4.7v6.9l2.1,0.4v2.6H264V319l1.8-0.4v-6.9c0-1.1-0.2-1.8-0.6-2.3s-1.1-0.7-1.9-0.7
				c-0.6,0-1.1,0.1-1.5,0.3s-0.8,0.6-1.1,1v8.5l1.7,0.4v2.6h-8.1V319z"/>
			<path class="st10" d="M283.7,321.5c-0.1-0.3-0.2-0.5-0.3-0.8s-0.2-0.6-0.2-0.8c-0.5,0.6-1.1,1.1-1.9,1.4
				c-0.7,0.4-1.6,0.5-2.5,0.5c-1.6,0-2.8-0.4-3.7-1.3s-1.4-2-1.4-3.4c0-1.5,0.6-2.6,1.8-3.4s2.9-1.2,5.2-1.2h2.2v-1.6
				c0-0.8-0.2-1.4-0.7-1.8s-1.1-0.6-1.9-0.6c-0.5,0-0.9,0.1-1.3,0.2s-0.7,0.2-0.9,0.4l-0.3,1.7h-3.2l0-3.5c0.8-0.5,1.7-1,2.7-1.3
				c1-0.4,2.1-0.5,3.3-0.5c2,0,3.6,0.5,4.8,1.4c1.2,1,1.8,2.3,1.8,4.1v6.5c0,0.2,0,0.5,0,0.7c0,0.2,0,0.4,0.1,0.6l1.3,0.2v2.6H283.7
				z M280,318.7c0.6,0,1.2-0.1,1.8-0.4s0.9-0.6,1.2-1v-2.4h-2.2c-0.9,0-1.6,0.2-2.1,0.6s-0.7,0.9-0.7,1.5c0,0.5,0.2,1,0.5,1.3
				C278.9,318.5,279.3,318.7,280,318.7z"/>
			<path class="st10" d="M289.6,301.3v-2.6h6.6v19.8l2.1,0.4v2.6h-8.4V319l2.1-0.4v-16.8L289.6,301.3z"/>
			<path class="st10" d="M299.5,319l2.1-0.4v-9.8l-2.3-0.4v-2.6h6.6v12.8l2.1,0.4v2.6h-8.4V319z M305.8,301.9h-4.3v-3.2h4.3V301.9z"
				/>
			<path class="st10" d="M315,318.3h4.4l0.2-2.1h3.3v5.4h-13.2V319l7.5-10h-3.9l-0.2,2.1h-3.3v-5.4h12.7v2.4L315,318.3z"/>
			<path class="st10" d="M332.3,321.8c-2.3,0-4.1-0.7-5.5-2.2s-2.1-3.3-2.1-5.6v-0.6c0-2.4,0.6-4.3,1.9-5.8s3-2.3,5.2-2.3
				c2.1,0,3.8,0.6,5,1.9s1.8,3,1.8,5.2v2.3h-9.5l0,0.1c0.1,1,0.4,1.9,1,2.6s1.5,1,2.5,1c0.9,0,1.7-0.1,2.4-0.3s1.3-0.5,2.1-0.9
				l1.2,2.6c-0.7,0.5-1.5,1-2.5,1.3C334.8,321.7,333.6,321.8,332.3,321.8z M331.9,308.7c-0.8,0-1.4,0.3-1.9,0.9s-0.7,1.4-0.8,2.4
				l0,0.1h5.2v-0.4c0-0.9-0.2-1.6-0.6-2.2C333.4,309,332.8,308.7,331.9,308.7z"/>
			<path class="st10" d="M365.6,319.2c-0.7,0.7-1.7,1.3-3,1.9s-3,0.8-5,0.8c-2.9,0-5.2-1-7-2.9s-2.7-4.4-2.7-7.5v-0.7
				c0-3.2,0.9-5.8,2.7-7.8s4.1-3,7-3c1.7,0,3.2,0.3,4.6,0.8c1.4,0.5,2.5,1.3,3.4,2.2v4.3h-3.2l-0.6-2.9c-0.4-0.3-0.9-0.6-1.5-0.8
				s-1.4-0.3-2.2-0.3c-1.9,0-3.3,0.7-4.4,2.1s-1.6,3.2-1.6,5.4v0.8c0,2.2,0.5,3.9,1.5,5.2s2.5,1.9,4.4,1.9c0.9,0,1.6-0.1,2.1-0.2
				c0.5-0.1,0.9-0.3,1.3-0.5v-3.6l-3-0.2v-3h7.3V319.2z"/>
			<path class="st10" d="M368.2,319l2.1-0.4v-9.8l-2.3-0.4v-2.6h6.3l0.2,2.3c0.4-0.8,0.8-1.5,1.4-1.9s1.3-0.7,2-0.7
				c0.2,0,0.5,0,0.7,0.1c0.2,0,0.5,0.1,0.6,0.1l-0.5,3.9l-1.8,0c-0.6,0-1.1,0.1-1.6,0.4s-0.7,0.6-0.9,1v7.7l2.1,0.4v2.6h-8.4V319z"
				/>
			<path class="st10" d="M387.8,321.8c-2.3,0-4.1-0.7-5.5-2.2s-2.1-3.3-2.1-5.6v-0.6c0-2.4,0.6-4.3,1.9-5.8s3-2.3,5.2-2.3
				c2.1,0,3.8,0.6,5,1.9s1.8,3,1.8,5.2v2.3h-9.5l0,0.1c0.1,1,0.4,1.9,1,2.6s1.5,1,2.5,1c0.9,0,1.7-0.1,2.4-0.3s1.3-0.5,2.1-0.9
				l1.2,2.6c-0.7,0.5-1.5,1-2.5,1.3C390.3,321.7,389.1,321.8,387.8,321.8z M387.4,308.7c-0.8,0-1.4,0.3-1.9,0.9s-0.7,1.4-0.8,2.4
				l0,0.1h5.2v-0.4c0-0.9-0.2-1.6-0.6-2.2C388.9,309,388.3,308.7,387.4,308.7z"/>
			<path class="st10" d="M403.8,321.8c-2.3,0-4.1-0.7-5.5-2.2s-2.1-3.3-2.1-5.6v-0.6c0-2.4,0.6-4.3,1.9-5.8s3-2.3,5.2-2.3
				c2.1,0,3.8,0.6,5,1.9s1.8,3,1.8,5.2v2.3h-9.5l0,0.1c0.1,1,0.4,1.9,1,2.6s1.5,1,2.5,1c0.9,0,1.7-0.1,2.4-0.3s1.3-0.5,2.1-0.9
				l1.2,2.6c-0.7,0.5-1.5,1-2.5,1.3C406.2,321.7,405.1,321.8,403.8,321.8z M403.4,308.7c-0.8,0-1.4,0.3-1.9,0.9s-0.7,1.4-0.8,2.4
				l0,0.1h5.2v-0.4c0-0.9-0.2-1.6-0.6-2.2C404.9,309,404.3,308.7,403.4,308.7z"/>
			<path class="st10" d="M412,319l2.1-0.4v-9.8l-2.3-0.4v-2.6h6.3l0.2,2.3c0.5-0.8,1.2-1.4,1.9-1.9s1.6-0.7,2.6-0.7
				c1.6,0,2.9,0.5,3.8,1.5s1.3,2.6,1.3,4.7v6.9l2.1,0.4v2.6h-8.2V319l1.8-0.4v-6.9c0-1.1-0.2-1.8-0.6-2.3s-1.1-0.7-1.9-0.7
				c-0.6,0-1.1,0.1-1.5,0.3s-0.8,0.6-1.1,1v8.5l1.7,0.4v2.6H412V319z"/>
			<path class="st10" d="M430.8,301.3v-2.6h6.6v19.8l2.1,0.4v2.6H431V319l2.1-0.4v-16.8L430.8,301.3z"/>
			<path class="st10" d="M450.9,321.5c-0.1-0.3-0.2-0.5-0.3-0.8s-0.2-0.6-0.2-0.8c-0.5,0.6-1.1,1.1-1.9,1.4
				c-0.7,0.4-1.6,0.5-2.5,0.5c-1.6,0-2.8-0.4-3.7-1.3s-1.4-2-1.4-3.4c0-1.5,0.6-2.6,1.8-3.4s2.9-1.2,5.2-1.2h2.2v-1.6
				c0-0.8-0.2-1.4-0.7-1.8s-1.1-0.6-1.9-0.6c-0.5,0-0.9,0.1-1.3,0.2s-0.7,0.2-0.9,0.4l-0.3,1.7h-3.2l0-3.5c0.8-0.5,1.7-1,2.7-1.3
				c1-0.4,2.1-0.5,3.3-0.5c2,0,3.6,0.5,4.8,1.4c1.2,1,1.8,2.3,1.8,4.1v6.5c0,0.2,0,0.5,0,0.7c0,0.2,0,0.4,0.1,0.6l1.3,0.2v2.6H450.9
				z M447.2,318.7c0.6,0,1.2-0.1,1.8-0.4s0.9-0.6,1.2-1v-2.4H448c-0.9,0-1.6,0.2-2.1,0.6s-0.7,0.9-0.7,1.5c0,0.5,0.2,1,0.5,1.3
				C446.1,318.5,446.6,318.7,447.2,318.7z"/>
			<path class="st10" d="M457,319l2.1-0.4v-9.8l-2.3-0.4v-2.6h6.3l0.2,2.3c0.5-0.8,1.2-1.4,1.9-1.9s1.6-0.7,2.6-0.7
				c1.6,0,2.9,0.5,3.8,1.5s1.3,2.6,1.3,4.7v6.9l2.1,0.4v2.6h-8.2V319l1.8-0.4v-6.9c0-1.1-0.2-1.8-0.6-2.3s-1.1-0.7-1.9-0.7
				c-0.6,0-1.1,0.1-1.5,0.3s-0.8,0.6-1.1,1v8.5l1.7,0.4v2.6H457V319z"/>
			<path class="st10" d="M483.8,321.8c-2.3,0-4.1-0.7-5.5-2.2s-2.1-3.3-2.1-5.6v-0.6c0-2.4,0.6-4.3,1.9-5.8s3-2.3,5.2-2.3
				c2.1,0,3.8,0.6,5,1.9s1.8,3,1.8,5.2v2.3h-9.5l0,0.1c0.1,1,0.4,1.9,1,2.6s1.5,1,2.5,1c0.9,0,1.7-0.1,2.4-0.3s1.3-0.5,2.1-0.9
				l1.2,2.6c-0.7,0.5-1.5,1-2.5,1.3C486.2,321.7,485,321.8,483.8,321.8z M483.4,308.7c-0.8,0-1.4,0.3-1.9,0.9s-0.7,1.4-0.8,2.4
				l0,0.1h5.2v-0.4c0-0.9-0.2-1.6-0.6-2.2C484.9,309,484.2,308.7,483.4,308.7z"/>
			<path class="st10" d="M497.1,321c0,1-0.3,2.1-0.8,3.2c-0.6,1.1-1.2,2-2.1,2.7l-2.1-1.1c0.4-0.7,0.7-1.4,0.9-2.1s0.3-1.5,0.3-2.4
				V318h3.8L497.1,321z"/>
			<path class="st10" d="M221.7,344.3v-2.6h6.2l0.2,1.8c0.5-0.7,1-1.2,1.7-1.6s1.4-0.6,2.3-0.6c2,0,3.5,0.8,4.6,2.3s1.6,3.5,1.6,6
				v0.3c0,2.3-0.5,4.2-1.6,5.7s-2.6,2.1-4.5,2.1c-0.8,0-1.6-0.2-2.2-0.5c-0.6-0.3-1.2-0.8-1.7-1.4v4.6l2.1,0.4v2.6h-8.4v-2.6
				l2.1-0.4v-15.9L221.7,344.3z M234,349.7c0-1.5-0.2-2.7-0.7-3.6s-1.3-1.4-2.3-1.4c-0.6,0-1.2,0.1-1.6,0.4
				c-0.5,0.3-0.8,0.6-1.1,1.1v6.9c0.3,0.4,0.6,0.8,1.1,1c0.5,0.2,1,0.4,1.7,0.4c1,0,1.8-0.4,2.3-1.2c0.5-0.8,0.7-1.9,0.7-3.3V349.7z
				"/>
			<path class="st10" d="M239.5,337.3v-2.6h6.6v19.8l2.1,0.4v2.6h-8.4V355l2.1-0.4v-16.8L239.5,337.3z"/>
			<path class="st10" d="M257.1,357.8c-2.3,0-4.1-0.7-5.5-2.2s-2.1-3.3-2.1-5.6v-0.6c0-2.4,0.6-4.3,1.9-5.8s3-2.3,5.2-2.3
				c2.1,0,3.8,0.6,5,1.9s1.8,3,1.8,5.2v2.3H254l0,0.1c0.1,1,0.4,1.9,1,2.6s1.5,1,2.5,1c0.9,0,1.7-0.1,2.4-0.3
				c0.6-0.2,1.3-0.5,2.1-0.9l1.2,2.6c-0.7,0.5-1.5,1-2.5,1.3C259.5,357.7,258.3,357.8,257.1,357.8z M256.7,344.7
				c-0.8,0-1.4,0.3-1.9,0.9s-0.7,1.4-0.8,2.4l0,0.1h5.2v-0.4c0-0.9-0.2-1.6-0.6-2.2C258.2,345,257.5,344.7,256.7,344.7z"/>
			<path class="st10" d="M275.6,357.5c-0.1-0.3-0.2-0.5-0.3-0.8c-0.1-0.3-0.2-0.6-0.2-0.8c-0.5,0.6-1.1,1.1-1.9,1.4
				c-0.7,0.4-1.6,0.5-2.5,0.5c-1.6,0-2.8-0.4-3.7-1.3s-1.4-2-1.4-3.5c0-1.5,0.6-2.6,1.8-3.4s2.9-1.2,5.2-1.2h2.2v-1.6
				c0-0.8-0.2-1.4-0.7-1.8s-1.1-0.6-1.9-0.6c-0.5,0-0.9,0.1-1.3,0.2s-0.7,0.2-0.9,0.4l-0.3,1.7h-3.2l0-3.5c0.8-0.5,1.7-1,2.7-1.3
				c1-0.4,2.1-0.5,3.3-0.5c2,0,3.6,0.5,4.8,1.4c1.2,1,1.8,2.3,1.8,4.1v6.5c0,0.2,0,0.5,0,0.7c0,0.2,0,0.4,0.1,0.6l1.3,0.2v2.6H275.6
				z M271.8,354.7c0.6,0,1.2-0.1,1.8-0.4c0.5-0.3,0.9-0.6,1.2-1v-2.4h-2.2c-0.9,0-1.6,0.2-2.1,0.6c-0.5,0.4-0.7,0.9-0.7,1.5
				c0,0.5,0.2,1,0.5,1.3C270.8,354.5,271.2,354.7,271.8,354.7z"/>
			<path class="st10" d="M294.9,347.1H292l-0.5-2c-0.3-0.2-0.7-0.4-1.1-0.6s-0.9-0.2-1.5-0.2c-0.8,0-1.3,0.2-1.8,0.5
				c-0.4,0.3-0.7,0.8-0.7,1.3c0,0.5,0.2,0.9,0.6,1.2c0.4,0.3,1.3,0.6,2.5,0.8c2,0.4,3.4,1,4.4,1.7s1.4,1.8,1.4,3.1
				c0,1.4-0.6,2.6-1.8,3.5c-1.2,0.9-2.8,1.4-4.8,1.4c-1.2,0-2.3-0.2-3.4-0.5c-1-0.4-1.9-0.9-2.7-1.5l0-3.6h3l0.6,2.1
				c0.3,0.2,0.6,0.4,1,0.5c0.4,0.1,0.9,0.2,1.4,0.2c0.9,0,1.5-0.2,2-0.5c0.5-0.3,0.7-0.7,0.7-1.3c0-0.5-0.2-0.9-0.7-1.2
				s-1.3-0.6-2.5-0.9c-1.9-0.4-3.3-0.9-4.2-1.7c-1-0.7-1.4-1.8-1.4-3.1c0-1.3,0.5-2.5,1.6-3.4s2.7-1.4,4.7-1.4
				c1.2,0,2.4,0.2,3.5,0.5c1.1,0.3,2,0.8,2.6,1.3L294.9,347.1z"/>
			<path class="st10" d="M305,357.8c-2.3,0-4.1-0.7-5.5-2.2s-2.1-3.3-2.1-5.6v-0.6c0-2.4,0.6-4.3,1.9-5.8s3-2.3,5.2-2.3
				c2.1,0,3.8,0.6,5,1.9s1.8,3,1.8,5.2v2.3h-9.5l0,0.1c0.1,1,0.4,1.9,1,2.6s1.5,1,2.5,1c0.9,0,1.7-0.1,2.4-0.3
				c0.6-0.2,1.3-0.5,2.1-0.9l1.2,2.6c-0.7,0.5-1.5,1-2.5,1.3C307.4,357.7,306.2,357.8,305,357.8z M304.6,344.7
				c-0.8,0-1.4,0.3-1.9,0.9s-0.7,1.4-0.8,2.4l0,0.1h5.2v-0.4c0-0.9-0.2-1.6-0.6-2.2C306.1,345,305.4,344.7,304.6,344.7z"/>
			<path class="st10" d="M333.7,347.1h-2.9l-0.5-2c-0.3-0.2-0.7-0.4-1.1-0.6s-0.9-0.2-1.5-0.2c-0.8,0-1.3,0.2-1.8,0.5
				c-0.4,0.3-0.7,0.8-0.7,1.3c0,0.5,0.2,0.9,0.6,1.2c0.4,0.3,1.3,0.6,2.5,0.8c2,0.4,3.4,1,4.4,1.7s1.4,1.8,1.4,3.1
				c0,1.4-0.6,2.6-1.8,3.5c-1.2,0.9-2.8,1.4-4.8,1.4c-1.2,0-2.3-0.2-3.4-0.5c-1-0.4-1.9-0.9-2.7-1.5l0-3.6h3l0.6,2.1
				c0.3,0.2,0.6,0.4,1,0.5c0.4,0.1,0.9,0.2,1.4,0.2c0.9,0,1.5-0.2,2-0.5c0.5-0.3,0.7-0.7,0.7-1.3c0-0.5-0.2-0.9-0.7-1.2
				s-1.3-0.6-2.5-0.9c-1.9-0.4-3.3-0.9-4.2-1.7c-1-0.7-1.4-1.8-1.4-3.1c0-1.3,0.5-2.5,1.6-3.4s2.7-1.4,4.7-1.4
				c1.2,0,2.4,0.2,3.5,0.5c1.1,0.3,2,0.8,2.6,1.3L333.7,347.1z"/>
			<path class="st10" d="M336,355l2.1-0.4v-9.8l-2.3-0.4v-2.6h6.6v12.8l2.1,0.4v2.6H336V355z M342.4,337.9h-4.3v-3.2h4.3V337.9z"/>
			<path class="st10" d="M346.1,349.7c0-2.5,0.5-4.5,1.6-6c1.1-1.5,2.6-2.3,4.6-2.3c0.9,0,1.7,0.2,2.3,0.6c0.7,0.4,1.2,1,1.7,1.7
				l0.3-2h3.7v15.4c0,2.1-0.7,3.8-2,5c-1.3,1.2-3.1,1.9-5.4,1.9c-0.8,0-1.7-0.1-2.5-0.3c-0.9-0.2-1.7-0.5-2.5-0.9l0.8-3
				c0.7,0.3,1.4,0.5,2.1,0.7s1.4,0.3,2.2,0.3c1,0,1.8-0.3,2.3-1s0.8-1.5,0.8-2.7v-1c-0.5,0.6-1,1-1.7,1.4s-1.4,0.5-2.2,0.5
				c-1.9,0-3.5-0.7-4.5-2.1c-1.1-1.4-1.6-3.3-1.6-5.6V349.7z M350.4,350.1c0,1.4,0.2,2.5,0.7,3.3s1.2,1.2,2.3,1.2
				c0.7,0,1.2-0.1,1.7-0.4c0.5-0.2,0.8-0.6,1.1-1v-6.9c-0.3-0.5-0.6-0.8-1.1-1.1c-0.5-0.3-1-0.4-1.6-0.4c-1,0-1.8,0.5-2.3,1.4
				c-0.5,0.9-0.7,2.1-0.7,3.6V350.1z"/>
			<path class="st10" d="M362.7,355l2.1-0.4v-9.8l-2.3-0.4v-2.6h6.3l0.2,2.3c0.5-0.8,1.2-1.4,1.9-1.9s1.6-0.7,2.6-0.7
				c1.6,0,2.9,0.5,3.8,1.5s1.3,2.6,1.3,4.7v6.9l2.1,0.4v2.6h-8.2V355l1.8-0.4v-6.9c0-1.1-0.2-1.8-0.6-2.3s-1.1-0.7-1.9-0.7
				c-0.6,0-1.1,0.1-1.5,0.3s-0.8,0.6-1.1,1v8.5l1.7,0.4v2.6h-8.1V355z"/>
			<path class="st10" d="M389.2,355l2.1-0.4v-9.8l-2.3-0.4v-2.6h6.6v12.8l2.1,0.4v2.6h-8.4V355z M395.6,337.9h-4.3v-3.2h4.3V337.9z"
				/>
			<path class="st10" d="M398.8,355l2.1-0.4v-9.8l-2.3-0.4v-2.6h6.3l0.2,2.3c0.5-0.8,1.2-1.4,1.9-1.9s1.6-0.7,2.6-0.7
				c1.6,0,2.9,0.5,3.8,1.5s1.3,2.6,1.3,4.7v6.9l2.1,0.4v2.6h-8.2V355l1.8-0.4v-6.9c0-1.1-0.2-1.8-0.6-2.3s-1.1-0.7-1.9-0.7
				c-0.6,0-1.1,0.1-1.5,0.3s-0.8,0.6-1.1,1v8.5l1.7,0.4v2.6h-8.1V355z"/>
		</g>
	</g>
	<g>
		<g>
			<path class="st10" d="M309.5,674.1c0-2,0.6-3.6,1.7-4.8c1.1-1.3,2.6-1.9,4.6-1.9c2,0,3.5,0.6,4.6,1.9s1.7,2.9,1.7,4.8v0.3
				c0,2-0.6,3.6-1.7,4.9c-1.1,1.2-2.6,1.9-4.6,1.9c-2,0-3.5-0.6-4.6-1.9c-1.1-1.2-1.7-2.9-1.7-4.9V674.1z M313.1,674.4
				c0,1.2,0.2,2.2,0.6,2.9c0.4,0.7,1.1,1.1,2.1,1.1c0.9,0,1.6-0.4,2-1.1c0.4-0.7,0.6-1.7,0.6-2.9v-0.3c0-1.2-0.2-2.1-0.6-2.9
				s-1.1-1.1-2-1.1s-1.6,0.4-2,1.1c-0.4,0.7-0.6,1.7-0.6,2.9V674.4z"/>
			<path class="st10" d="M325.3,678.7l1.7-0.4v-8.2l-1.9-0.4v-2.1h5.2l0.2,1.9c0.3-0.7,0.7-1.2,1.2-1.6c0.5-0.4,1.1-0.6,1.7-0.6
				c0.2,0,0.4,0,0.6,0c0.2,0,0.4,0.1,0.5,0.1l-0.4,3.2l-1.5,0c-0.5,0-1,0.1-1.3,0.3s-0.6,0.5-0.8,0.9v6.4l1.7,0.4v2.1h-7V678.7z"/>
		</g>
	</g>
	<line class="st27" x1="142.2" y1="674" x2="286.6" y2="674"/>
	<line class="st27" x1="356.9" y1="674" x2="496" y2="674"/>
	<g>
		<path class="st28" d="M475.1,828.7h-312c-6.2,0-11.2-5-11.2-11.2v-49.3c0-6.2,5-11.2,11.2-11.2h312c6.2,0,11.2,5,11.2,11.2v49.3
			C486.3,823.7,481.3,828.7,475.1,828.7z"/>
	</g>
	<g>
		<path class="st10" d="M475.1,824.7h-312c-6.2,0-11.2-5-11.2-11.2v-49.3c0-6.2,5-11.2,11.2-11.2h312c6.2,0,11.2,5,11.2,11.2v49.3
			C486.3,819.7,481.3,824.7,475.1,824.7z"/>
	</g>
	<g>
		<path class="st1" d="M207.7,478.2c0-0.8-0.3-1.5-1-2s-1.6-0.9-2.9-1.2c-1.3-0.3-2.3-0.6-3.1-1c-0.7-0.4-1.3-0.8-1.6-1.3
			s-0.5-1.1-0.5-1.9c0-1.2,0.5-2.1,1.5-2.9c1-0.8,2.2-1.1,3.7-1.1c1.6,0,3,0.4,4,1.2c1,0.8,1.5,1.9,1.5,3.2h-1.6
			c0-0.9-0.4-1.6-1.1-2.2s-1.6-0.9-2.7-0.9c-1.1,0-1.9,0.2-2.6,0.7s-1,1.1-1,1.9c0,0.7,0.3,1.3,0.8,1.7c0.5,0.4,1.5,0.8,3,1.1
			c1.4,0.3,2.5,0.7,3.2,1.1s1.2,0.8,1.6,1.4c0.3,0.5,0.5,1.2,0.5,2c0,1.2-0.5,2.2-1.5,3c-1,0.7-2.3,1.1-3.9,1.1
			c-1.7,0-3.1-0.4-4.2-1.3s-1.6-1.9-1.6-3.2h1.6c0.1,1,0.5,1.7,1.2,2.2s1.7,0.8,2.9,0.8c1.1,0,2.1-0.3,2.8-0.8
			C207.3,479.6,207.7,479,207.7,478.2z"/>
		<path class="st1" d="M214,462.9c0-0.3,0.1-0.6,0.3-0.8s0.5-0.3,0.8-0.3s0.6,0.1,0.8,0.3s0.3,0.5,0.3,0.8s-0.1,0.6-0.3,0.8
			s-0.5,0.3-0.8,0.3s-0.6-0.1-0.8-0.3S214,463.2,214,462.9z M215.9,482h-1.6v-14.8h1.6V482z"/>
		<path class="st1" d="M220.8,474.5c0-2.3,0.5-4.1,1.5-5.5s2.4-2,4.2-2c2,0,3.5,0.8,4.6,2.4l0.1-2.1h1.5v14.5c0,1.9-0.5,3.4-1.6,4.5
			c-1.1,1.1-2.5,1.7-4.3,1.7c-1,0-2-0.2-2.9-0.7c-0.9-0.5-1.7-1.1-2.2-1.8l0.9-1c1.2,1.4,2.5,2.1,4.1,2.1c1.4,0,2.4-0.4,3.2-1.2
			s1.2-1.9,1.2-3.4v-1.9c-1,1.5-2.6,2.2-4.6,2.2c-1.7,0-3.1-0.7-4.1-2.1s-1.6-3.2-1.6-5.5V474.5z M222.5,474.8
			c0,1.9,0.4,3.4,1.1,4.5c0.8,1.1,1.8,1.6,3.2,1.6c2,0,3.4-0.9,4.3-2.7v-6.9c-0.4-0.9-0.9-1.7-1.7-2.2c-0.7-0.5-1.6-0.7-2.6-0.7
			c-1.4,0-2.4,0.5-3.2,1.6S222.5,472.6,222.5,474.8z"/>
		<path class="st1" d="M239.7,467.2l0.1,2.5c0.6-0.9,1.2-1.6,2.1-2.1s1.7-0.7,2.7-0.7c1.6,0,2.8,0.4,3.5,1.3c0.8,0.9,1.2,2.2,1.2,4
			v9.7h-1.6v-9.7c0-1.3-0.3-2.3-0.8-3c-0.6-0.6-1.4-1-2.6-1c-1,0-1.9,0.3-2.7,1c-0.8,0.6-1.4,1.5-1.7,2.6V482h-1.6v-14.8H239.7z"/>
		<path class="st1" d="M262.5,462.9c0-0.3,0.1-0.6,0.3-0.8s0.5-0.3,0.8-0.3s0.6,0.1,0.8,0.3s0.3,0.5,0.3,0.8s-0.1,0.6-0.3,0.8
			s-0.5,0.3-0.8,0.3s-0.6-0.1-0.8-0.3S262.5,463.2,262.5,462.9z M264.4,482h-1.6v-14.8h1.6V482z"/>
		<path class="st1" d="M271.5,467.2l0.1,2.5c0.6-0.9,1.2-1.6,2.1-2.1s1.7-0.7,2.7-0.7c1.6,0,2.8,0.4,3.5,1.3c0.8,0.9,1.2,2.2,1.2,4
			v9.7h-1.6v-9.7c0-1.3-0.3-2.3-0.8-3c-0.6-0.6-1.4-1-2.6-1c-1,0-1.9,0.3-2.7,1c-0.8,0.6-1.4,1.5-1.7,2.6V482H270v-14.8H271.5z"/>
		<path class="st1" d="M297.9,478.6l0.2,1.3l0.3-1.3l3.6-11.3h1.4l3.5,11.2l0.4,1.6l0.3-1.4l3-11.3h1.7l-4.3,14.8h-1.4l-3.8-11.7
			l-0.2-0.8l-0.2,0.8l-3.7,11.7h-1.4l-4.3-14.8h1.7L297.9,478.6z"/>
		<path class="st1" d="M316.5,462.9c0-0.3,0.1-0.6,0.3-0.8s0.5-0.3,0.8-0.3s0.6,0.1,0.8,0.3s0.3,0.5,0.3,0.8s-0.1,0.6-0.3,0.8
			s-0.5,0.3-0.8,0.3s-0.6-0.1-0.8-0.3S316.5,463.2,316.5,462.9z M318.5,482h-1.6v-14.8h1.6V482z"/>
		<path class="st1" d="M326.6,463.4v3.8h3.1v1.3h-3.1v9.9c0,0.8,0.1,1.4,0.4,1.8s0.8,0.6,1.5,0.6c0.3,0,0.7,0,1.3-0.1l0.1,1.3
			c-0.4,0.2-1,0.2-1.8,0.2c-1.1,0-1.9-0.3-2.4-1c-0.5-0.7-0.8-1.6-0.8-2.9v-9.9h-2.7v-1.3h2.7v-3.8H326.6z"/>
		<path class="st1" d="M335.8,469.7c0.5-0.9,1.2-1.6,2.1-2.1c0.8-0.5,1.8-0.7,2.7-0.7c1.6,0,2.8,0.4,3.5,1.3c0.8,0.9,1.2,2.2,1.2,4
			v9.7h-1.6v-9.7c0-1.3-0.3-2.3-0.8-3c-0.6-0.6-1.4-1-2.6-1c-1,0-1.9,0.3-2.7,1c-0.8,0.6-1.4,1.5-1.7,2.6V482h-1.6v-21h1.6V469.7z"
			/>
		<path class="st1" d="M359.7,482v-13.5h-2.4v-1.3h2.4v-1.8c0-1.5,0.4-2.7,1.2-3.5c0.8-0.8,1.8-1.2,3.2-1.2c0.6,0,1.2,0.1,1.7,0.2
			l-0.1,1.4c-0.5-0.1-1-0.2-1.5-0.2c-0.9,0-1.6,0.3-2.1,0.8s-0.8,1.4-0.8,2.4v1.8h3.5v1.3h-3.5V482H359.7z"/>
		<path class="st1" d="M378.3,482c-0.2-0.5-0.3-1.2-0.3-2.1c-0.6,0.7-1.3,1.3-2.2,1.7s-1.8,0.6-2.8,0.6c-1.4,0-2.6-0.4-3.5-1.2
			s-1.3-1.8-1.3-3c0-1.4,0.6-2.6,1.8-3.4c1.2-0.8,2.9-1.3,5-1.3h3v-1.7c0-1.1-0.3-1.9-1-2.5c-0.7-0.6-1.6-0.9-2.9-0.9
			c-1.1,0-2.1,0.3-2.8,0.9c-0.7,0.6-1.1,1.3-1.1,2.1l-1.6,0c0-1.2,0.5-2.2,1.6-3.1s2.4-1.3,4-1.3c1.6,0,3,0.4,3.9,1.2
			c1,0.8,1.4,2,1.5,3.5v7c0,1.4,0.2,2.5,0.5,3.2v0.2H378.3z M373.1,480.8c1.1,0,2.1-0.3,2.9-0.8c0.9-0.5,1.5-1.2,1.9-2.1v-3.3H375
			c-1.6,0-2.9,0.3-3.8,0.9c-0.9,0.6-1.4,1.4-1.4,2.4c0,0.8,0.3,1.5,0.9,2.1S372.2,480.8,373.1,480.8z"/>
		<path class="st1" d="M390.5,480.9c1.1,0,2.1-0.3,2.9-1s1.2-1.5,1.3-2.5h1.6c0,0.9-0.3,1.7-0.8,2.5c-0.5,0.7-1.2,1.3-2.1,1.7
			s-1.8,0.6-2.8,0.6c-1.9,0-3.5-0.7-4.6-2c-1.1-1.3-1.7-3.2-1.7-5.4v-0.5c0-1.5,0.3-2.7,0.8-3.9s1.2-2,2.2-2.6
			c1-0.6,2.1-0.9,3.3-0.9c1.6,0,3,0.5,4,1.4c1.1,1,1.6,2.2,1.7,3.8h-1.6c-0.1-1.2-0.5-2.1-1.3-2.8s-1.7-1.1-2.9-1.1
			c-1.5,0-2.6,0.5-3.4,1.6s-1.2,2.6-1.2,4.5v0.5c0,1.9,0.4,3.4,1.2,4.4C387.9,480.4,389,480.9,390.5,480.9z"/>
		<path class="st1" d="M406.3,482.3c-1.3,0-2.4-0.3-3.4-0.9c-1-0.6-1.8-1.5-2.4-2.6s-0.8-2.3-0.8-3.7v-0.6c0-1.4,0.3-2.7,0.8-3.8
			c0.6-1.1,1.3-2,2.3-2.7c1-0.7,2.1-1,3.2-1c1.8,0,3.2,0.6,4.3,1.8c1.1,1.2,1.6,2.9,1.6,5v0.9h-10.6v0.3c0,1.7,0.5,3.1,1.4,4.2
			c1,1.1,2.2,1.7,3.6,1.7c0.9,0,1.6-0.2,2.3-0.5c0.7-0.3,1.3-0.8,1.8-1.5l1,0.8C410.4,481.4,408.6,482.3,406.3,482.3z M406,468.3
			c-1.2,0-2.3,0.5-3.1,1.4s-1.4,2.1-1.5,3.6h8.9v-0.2c0-1.4-0.5-2.6-1.2-3.5C408.3,468.8,407.3,468.3,406,468.3z"/>
		<path class="st1" d="M428.1,474.8c0,2.3-0.5,4.1-1.5,5.5s-2.4,2-4.1,2c-2.1,0-3.6-0.8-4.7-2.3l-0.1,2h-1.5v-21h1.6v8.4
			c1-1.6,2.6-2.4,4.6-2.4c1.8,0,3.1,0.7,4.1,2c1,1.3,1.5,3.2,1.5,5.6V474.8z M426.5,474.5c0-2-0.4-3.5-1.1-4.5
			c-0.8-1.1-1.8-1.6-3.2-1.6c-1,0-1.9,0.3-2.7,0.8c-0.7,0.5-1.3,1.3-1.7,2.3v6.7c0.8,1.9,2.3,2.8,4.3,2.8c1.3,0,2.4-0.5,3.2-1.6
			S426.5,476.6,426.5,474.5z"/>
		<path class="st1" d="M431.9,474.4c0-1.4,0.3-2.7,0.8-3.8c0.6-1.1,1.3-2,2.3-2.7c1-0.6,2.1-1,3.4-1c2,0,3.6,0.7,4.8,2.1
			s1.8,3.2,1.8,5.5v0.3c0,1.4-0.3,2.7-0.8,3.9c-0.6,1.1-1.3,2-2.3,2.6c-1,0.6-2.1,0.9-3.4,0.9c-2,0-3.6-0.7-4.8-2.1
			s-1.8-3.2-1.8-5.5V474.4z M433.6,474.8c0,1.8,0.5,3.2,1.4,4.4s2.1,1.7,3.6,1.7c1.5,0,2.7-0.6,3.6-1.7s1.4-2.6,1.4-4.5v-0.3
			c0-1.1-0.2-2.2-0.6-3.1c-0.4-0.9-1-1.7-1.8-2.2c-0.8-0.5-1.6-0.8-2.6-0.8c-1.5,0-2.6,0.6-3.6,1.7c-0.9,1.1-1.4,2.6-1.4,4.5V474.8z
			"/>
		<path class="st1" d="M448.7,474.4c0-1.4,0.3-2.7,0.8-3.8c0.6-1.1,1.3-2,2.3-2.7c1-0.6,2.1-1,3.4-1c2,0,3.6,0.7,4.8,2.1
			s1.8,3.2,1.8,5.5v0.3c0,1.4-0.3,2.7-0.8,3.9c-0.6,1.1-1.3,2-2.3,2.6c-1,0.6-2.1,0.9-3.4,0.9c-2,0-3.6-0.7-4.8-2.1
			s-1.8-3.2-1.8-5.5V474.4z M450.4,474.8c0,1.8,0.5,3.2,1.4,4.4s2.1,1.7,3.6,1.7c1.5,0,2.7-0.6,3.6-1.7s1.4-2.6,1.4-4.5v-0.3
			c0-1.1-0.2-2.2-0.6-3.1c-0.4-0.9-1-1.7-1.8-2.2c-0.8-0.5-1.6-0.8-2.6-0.8c-1.5,0-2.6,0.6-3.6,1.7c-0.9,1.1-1.4,2.6-1.4,4.5V474.8z
			"/>
		<path class="st1" d="M470,474.5l-1.9,1.8v5.6h-1.6v-21h1.6v13.4l1.5-1.7l5.7-5.6h2.1l-6.3,6.2l6.8,8.6h-2L470,474.5z"/>
	</g>
	<g>
		<path class="st1" d="M224.1,567c0-0.8-0.3-1.5-1-2s-1.6-0.9-2.9-1.2c-1.3-0.3-2.3-0.6-3.1-1c-0.7-0.4-1.3-0.8-1.6-1.3
			s-0.5-1.1-0.5-1.9c0-1.2,0.5-2.1,1.5-2.9c1-0.8,2.2-1.1,3.7-1.1c1.6,0,3,0.4,4,1.2c1,0.8,1.5,1.9,1.5,3.2H224
			c0-0.9-0.4-1.6-1.1-2.2s-1.6-0.9-2.7-0.9c-1.1,0-1.9,0.2-2.6,0.7s-1,1.1-1,1.9c0,0.7,0.3,1.3,0.8,1.7c0.5,0.4,1.5,0.8,3,1.1
			c1.4,0.3,2.5,0.7,3.2,1.1s1.2,0.8,1.6,1.4c0.3,0.5,0.5,1.2,0.5,2c0,1.2-0.5,2.2-1.5,3s-2.3,1.1-3.9,1.1c-1.7,0-3.1-0.4-4.2-1.3
			c-1.1-0.8-1.6-1.9-1.6-3.2h1.6c0.1,1,0.5,1.7,1.2,2.2c0.7,0.5,1.7,0.8,2.9,0.8c1.1,0,2.1-0.3,2.8-0.8
			C223.7,568.4,224.1,567.8,224.1,567z"/>
		<path class="st1" d="M230.4,551.7c0-0.3,0.1-0.6,0.3-0.8s0.5-0.3,0.8-0.3s0.6,0.1,0.8,0.3s0.3,0.5,0.3,0.8s-0.1,0.6-0.3,0.8
			s-0.5,0.3-0.8,0.3s-0.6-0.1-0.8-0.3S230.4,552,230.4,551.7z M232.3,570.8h-1.6V556h1.6V570.8z"/>
		<path class="st1" d="M237.3,563.3c0-2.3,0.5-4.1,1.5-5.5s2.4-2,4.2-2c2,0,3.5,0.8,4.6,2.4l0.1-2.1h1.5v14.5c0,1.9-0.5,3.4-1.6,4.5
			c-1.1,1.1-2.5,1.7-4.3,1.7c-1,0-2-0.2-2.9-0.7c-0.9-0.5-1.7-1.1-2.2-1.8l0.9-1c1.2,1.4,2.5,2.1,4.1,2.1c1.4,0,2.4-0.4,3.2-1.2
			s1.2-1.9,1.2-3.4v-1.9c-1,1.5-2.6,2.2-4.6,2.2c-1.7,0-3.1-0.7-4.1-2.1c-1-1.4-1.6-3.2-1.6-5.5V563.3z M238.9,563.6
			c0,1.9,0.4,3.4,1.1,4.5c0.8,1.1,1.8,1.6,3.2,1.6c2,0,3.4-0.9,4.3-2.7v-6.9c-0.4-0.9-0.9-1.7-1.7-2.2c-0.7-0.5-1.6-0.7-2.6-0.7
			c-1.4,0-2.4,0.5-3.2,1.6S238.9,561.5,238.9,563.6z"/>
		<path class="st1" d="M256.1,556l0.1,2.5c0.6-0.9,1.2-1.6,2.1-2.1s1.7-0.7,2.7-0.7c1.6,0,2.8,0.4,3.5,1.3c0.8,0.9,1.2,2.2,1.2,4
			v9.7h-1.6v-9.7c0-1.3-0.3-2.3-0.8-3c-0.6-0.6-1.4-1-2.6-1c-1,0-1.9,0.3-2.7,1c-0.8,0.6-1.4,1.5-1.7,2.6v10.1h-1.6V556H256.1z"/>
		<path class="st1" d="M278.9,551.7c0-0.3,0.1-0.6,0.3-0.8s0.5-0.3,0.8-0.3s0.6,0.1,0.8,0.3s0.3,0.5,0.3,0.8s-0.1,0.6-0.3,0.8
			s-0.5,0.3-0.8,0.3s-0.6-0.1-0.8-0.3S278.9,552,278.9,551.7z M280.8,570.8h-1.6V556h1.6V570.8z"/>
		<path class="st1" d="M287.9,556l0.1,2.5c0.6-0.9,1.2-1.6,2.1-2.1s1.7-0.7,2.7-0.7c1.6,0,2.8,0.4,3.5,1.3c0.8,0.9,1.2,2.2,1.2,4
			v9.7h-1.6v-9.7c0-1.3-0.3-2.3-0.8-3c-0.6-0.6-1.4-1-2.6-1c-1,0-1.9,0.3-2.7,1c-0.8,0.6-1.4,1.5-1.7,2.6v10.1h-1.6V556H287.9z"/>
		<path class="st1" d="M314.4,567.4l0.2,1.3l0.3-1.3l3.6-11.3h1.4l3.5,11.2l0.4,1.6l0.3-1.4l3-11.3h1.7l-4.3,14.8h-1.4l-3.8-11.7
			l-0.2-0.8l-0.2,0.8l-3.7,11.7h-1.4l-4.3-14.8h1.7L314.4,567.4z"/>
		<path class="st1" d="M332.9,551.7c0-0.3,0.1-0.6,0.3-0.8s0.5-0.3,0.8-0.3s0.6,0.1,0.8,0.3s0.3,0.5,0.3,0.8s-0.1,0.6-0.3,0.8
			s-0.5,0.3-0.8,0.3s-0.6-0.1-0.8-0.3S332.9,552,332.9,551.7z M334.9,570.8h-1.6V556h1.6V570.8z"/>
		<path class="st1" d="M343,552.2v3.8h3.1v1.3H343v9.9c0,0.8,0.1,1.4,0.4,1.8s0.8,0.6,1.5,0.6c0.3,0,0.7,0,1.3-0.1l0.1,1.3
			c-0.4,0.2-1,0.2-1.8,0.2c-1.1,0-1.9-0.3-2.4-1s-0.8-1.6-0.8-2.9v-9.9h-2.7V556h2.7v-3.8H343z"/>
		<path class="st1" d="M352.2,558.5c0.5-0.9,1.2-1.6,2.1-2.1c0.8-0.5,1.8-0.7,2.7-0.7c1.6,0,2.8,0.4,3.5,1.3c0.8,0.9,1.2,2.2,1.2,4
			v9.7h-1.6v-9.7c0-1.3-0.3-2.3-0.8-3c-0.6-0.6-1.4-1-2.6-1c-1,0-1.9,0.3-2.7,1c-0.8,0.6-1.4,1.5-1.7,2.6v10.1h-1.6v-21h1.6V558.5z"
			/>
		<path class="st1" d="M374.3,563.3c0-2.3,0.5-4.1,1.5-5.5s2.4-2,4.2-2c2,0,3.5,0.8,4.6,2.4l0.1-2.1h1.5v14.5c0,1.9-0.5,3.4-1.6,4.5
			c-1.1,1.1-2.5,1.7-4.3,1.7c-1,0-2-0.2-2.9-0.7c-0.9-0.5-1.7-1.1-2.2-1.8l0.9-1c1.2,1.4,2.5,2.1,4.1,2.1c1.4,0,2.4-0.4,3.2-1.2
			s1.2-1.9,1.2-3.4v-1.9c-1,1.5-2.6,2.2-4.6,2.2c-1.7,0-3.1-0.7-4.1-2.1c-1-1.4-1.6-3.2-1.6-5.5V563.3z M376,563.6
			c0,1.9,0.4,3.4,1.1,4.5c0.8,1.1,1.8,1.6,3.2,1.6c2,0,3.4-0.9,4.3-2.7v-6.9c-0.4-0.9-0.9-1.7-1.7-2.2c-0.7-0.5-1.6-0.7-2.6-0.7
			c-1.4,0-2.4,0.5-3.2,1.6S376,561.5,376,563.6z"/>
		<path class="st1" d="M390.7,563.2c0-1.4,0.3-2.7,0.8-3.8c0.6-1.1,1.3-2,2.3-2.7c1-0.6,2.1-1,3.4-1c2,0,3.6,0.7,4.8,2.1
			s1.8,3.2,1.8,5.5v0.3c0,1.4-0.3,2.7-0.8,3.9c-0.6,1.1-1.3,2-2.3,2.6s-2.1,0.9-3.4,0.9c-2,0-3.6-0.7-4.8-2.1
			c-1.2-1.4-1.8-3.2-1.8-5.5V563.2z M392.4,563.6c0,1.8,0.5,3.2,1.4,4.4c0.9,1.1,2.1,1.7,3.6,1.7c1.5,0,2.7-0.6,3.6-1.7
			c0.9-1.1,1.4-2.6,1.4-4.5v-0.3c0-1.1-0.2-2.2-0.6-3.1c-0.4-0.9-1-1.7-1.8-2.2c-0.8-0.5-1.6-0.8-2.6-0.8c-1.5,0-2.6,0.6-3.6,1.7
			c-0.9,1.1-1.4,2.6-1.4,4.5V563.6z"/>
		<path class="st1" d="M407.5,563.2c0-1.4,0.3-2.7,0.8-3.8c0.6-1.1,1.3-2,2.3-2.7c1-0.6,2.1-1,3.4-1c2,0,3.6,0.7,4.8,2.1
			s1.8,3.2,1.8,5.5v0.3c0,1.4-0.3,2.7-0.8,3.9c-0.6,1.1-1.3,2-2.3,2.6s-2.1,0.9-3.4,0.9c-2,0-3.6-0.7-4.8-2.1
			c-1.2-1.4-1.8-3.2-1.8-5.5V563.2z M409.2,563.6c0,1.8,0.5,3.2,1.4,4.4c0.9,1.1,2.1,1.7,3.6,1.7c1.5,0,2.7-0.6,3.6-1.7
			c0.9-1.1,1.4-2.6,1.4-4.5v-0.3c0-1.1-0.2-2.2-0.6-3.1c-0.4-0.9-1-1.7-1.8-2.2c-0.8-0.5-1.6-0.8-2.6-0.8c-1.5,0-2.6,0.6-3.6,1.7
			c-0.9,1.1-1.4,2.6-1.4,4.5V563.6z"/>
		<path class="st1" d="M424.6,563.3c0-2.3,0.5-4.1,1.5-5.5s2.4-2,4.2-2c2,0,3.5,0.8,4.6,2.4l0.1-2.1h1.5v14.5c0,1.9-0.5,3.4-1.6,4.5
			c-1.1,1.1-2.5,1.7-4.3,1.7c-1,0-2-0.2-2.9-0.7c-0.9-0.5-1.7-1.1-2.2-1.8l0.9-1c1.2,1.4,2.5,2.1,4.1,2.1c1.4,0,2.4-0.4,3.2-1.2
			s1.2-1.9,1.2-3.4v-1.9c-1,1.5-2.6,2.2-4.6,2.2c-1.7,0-3.1-0.7-4.1-2.1c-1-1.4-1.6-3.2-1.6-5.5V563.3z M426.2,563.6
			c0,1.9,0.4,3.4,1.1,4.5c0.8,1.1,1.8,1.6,3.2,1.6c2,0,3.4-0.9,4.3-2.7v-6.9c-0.4-0.9-0.9-1.7-1.7-2.2c-0.7-0.5-1.6-0.7-2.6-0.7
			c-1.4,0-2.4,0.5-3.2,1.6S426.2,561.5,426.2,563.6z"/>
		<path class="st1" d="M443.7,570.8h-1.6v-21h1.6V570.8z"/>
		<path class="st1" d="M455,571.1c-1.3,0-2.4-0.3-3.4-0.9s-1.8-1.5-2.4-2.6s-0.8-2.3-0.8-3.7v-0.6c0-1.4,0.3-2.7,0.8-3.8
			c0.6-1.1,1.3-2,2.3-2.7c1-0.7,2.1-1,3.2-1c1.8,0,3.2,0.6,4.3,1.8c1.1,1.2,1.6,2.9,1.6,5v0.9H450v0.3c0,1.7,0.5,3.1,1.4,4.2
			c1,1.1,2.2,1.7,3.6,1.7c0.9,0,1.6-0.2,2.3-0.5s1.3-0.8,1.8-1.5l1,0.8C459,570.2,457.3,571.1,455,571.1z M454.7,557.1
			c-1.2,0-2.3,0.5-3.1,1.4s-1.4,2.1-1.5,3.6h8.9v-0.2c0-1.4-0.5-2.6-1.2-3.5C456.9,557.6,455.9,557.1,454.7,557.1z"/>
	</g>
	<g>
		<g>
			<path class="st1" d="M247,794.8c0-0.8-0.3-1.5-1-2c-0.7-0.5-1.6-0.9-2.9-1.2s-2.3-0.6-3.1-1s-1.3-0.8-1.6-1.3
				c-0.4-0.5-0.5-1.1-0.5-1.9c0-1.2,0.5-2.1,1.5-2.9c1-0.8,2.2-1.1,3.7-1.1c1.6,0,3,0.4,4,1.2s1.5,1.9,1.5,3.2h-1.6
				c0-0.9-0.4-1.6-1.1-2.2s-1.6-0.9-2.7-0.9c-1.1,0-1.9,0.2-2.6,0.7c-0.7,0.5-1,1.1-1,1.9c0,0.7,0.3,1.3,0.8,1.7
				c0.5,0.4,1.5,0.8,3,1.1s2.5,0.7,3.2,1.1c0.7,0.4,1.2,0.8,1.6,1.4c0.3,0.5,0.5,1.2,0.5,2c0,1.2-0.5,2.2-1.5,3
				c-1,0.7-2.3,1.1-3.9,1.1c-1.7,0-3.1-0.4-4.2-1.3c-1.1-0.8-1.6-1.9-1.6-3.2h1.6c0.1,1,0.5,1.7,1.2,2.2c0.7,0.5,1.7,0.8,2.9,0.8
				c1.1,0,2.1-0.3,2.8-0.8C246.7,796.2,247,795.5,247,794.8z"/>
			<path class="st1" d="M256,780v3.8h3.1v1.3H256v9.9c0,0.8,0.1,1.4,0.4,1.8c0.3,0.4,0.8,0.6,1.5,0.6c0.3,0,0.7,0,1.3-0.1l0.1,1.3
				c-0.4,0.2-1,0.2-1.8,0.2c-1.1,0-1.9-0.3-2.4-1c-0.5-0.7-0.8-1.6-0.8-2.9v-9.9h-2.7v-1.3h2.7V780H256z"/>
			<path class="st1" d="M272.9,798.5c-0.2-0.5-0.3-1.2-0.3-2.1c-0.6,0.7-1.3,1.3-2.2,1.7s-1.8,0.6-2.8,0.6c-1.4,0-2.6-0.4-3.5-1.2
				c-0.9-0.8-1.3-1.8-1.3-3c0-1.4,0.6-2.6,1.8-3.4c1.2-0.8,2.9-1.3,5-1.3h3v-1.7c0-1.1-0.3-1.9-1-2.5c-0.7-0.6-1.6-0.9-2.8-0.9
				c-1.1,0-2.1,0.3-2.8,0.9c-0.7,0.6-1.1,1.3-1.1,2.1l-1.6,0c0-1.2,0.5-2.2,1.6-3.1s2.4-1.3,4-1.3c1.6,0,3,0.4,3.9,1.2
				c1,0.8,1.4,2,1.5,3.5v7c0,1.4,0.2,2.5,0.5,3.2v0.2H272.9z M267.8,797.4c1.1,0,2.1-0.3,2.9-0.8s1.5-1.2,1.9-2.1v-3.3h-2.9
				c-1.6,0-2.9,0.3-3.8,0.9c-0.9,0.6-1.4,1.4-1.4,2.4c0,0.8,0.3,1.5,0.9,2.1S266.8,797.4,267.8,797.4z"/>
			<path class="st1" d="M286.5,785.1c-0.3-0.1-0.7-0.1-1.1-0.1c-1,0-1.9,0.3-2.6,0.9s-1.2,1.4-1.5,2.5v10.2h-1.6v-14.8h1.6l0,2.4
				c0.9-1.8,2.3-2.6,4.2-2.6c0.5,0,0.8,0.1,1.1,0.2L286.5,785.1z"/>
			<path class="st1" d="M292.8,780v3.8h3.1v1.3h-3.1v9.9c0,0.8,0.1,1.4,0.4,1.8c0.3,0.4,0.8,0.6,1.5,0.6c0.3,0,0.7,0,1.3-0.1
				l0.1,1.3c-0.4,0.2-1,0.2-1.8,0.2c-1.1,0-1.9-0.3-2.4-1s-0.8-1.6-0.8-2.9v-9.9h-2.7v-1.3h2.7V780H292.8z"/>
			<path class="st1" d="M310,783.7v16.6c0,1.4-0.3,2.4-1,3.1s-1.6,1.1-2.9,1.1c-0.5,0-1-0.1-1.4-0.3l0-1.3c0.4,0.1,0.8,0.2,1.2,0.2
				c1.6,0,2.4-0.9,2.4-2.8v-16.5H310z M309.2,778.4c0.4,0,0.6,0.1,0.8,0.3s0.3,0.5,0.3,0.8s-0.1,0.6-0.3,0.8s-0.5,0.3-0.8,0.3
				c-0.3,0-0.6-0.1-0.8-0.3c-0.2-0.2-0.3-0.5-0.3-0.8s0.1-0.6,0.3-0.8C308.6,778.5,308.9,778.4,309.2,778.4z"/>
			<path class="st1" d="M314.9,790.9c0-1.4,0.3-2.7,0.8-3.8c0.6-1.1,1.3-2,2.3-2.7c1-0.6,2.1-1,3.4-1c2,0,3.6,0.7,4.8,2.1
				c1.2,1.4,1.8,3.2,1.8,5.5v0.3c0,1.4-0.3,2.7-0.8,3.9c-0.6,1.1-1.3,2-2.3,2.6c-1,0.6-2.1,0.9-3.4,0.9c-2,0-3.6-0.7-4.8-2.1
				c-1.2-1.4-1.8-3.2-1.8-5.5V790.9z M316.5,791.4c0,1.8,0.5,3.2,1.4,4.4s2.1,1.7,3.6,1.7c1.5,0,2.7-0.6,3.6-1.7s1.4-2.6,1.4-4.5
				v-0.3c0-1.1-0.2-2.2-0.6-3.1c-0.4-0.9-1-1.7-1.8-2.2c-0.8-0.5-1.6-0.8-2.6-0.8c-1.5,0-2.6,0.6-3.6,1.7c-0.9,1.1-1.4,2.6-1.4,4.5
				V791.4z"/>
			<path class="st1" d="M342.1,796.7c-1,1.4-2.6,2.1-4.7,2.1c-1.6,0-2.8-0.5-3.6-1.4s-1.2-2.3-1.3-4.1v-9.6h1.6v9.4
				c0,2.8,1.1,4.2,3.4,4.2c2.4,0,3.9-1,4.5-2.9v-10.7h1.6v14.8h-1.6L342.1,796.7z"/>
			<path class="st1" d="M355.9,785.1c-0.3-0.1-0.7-0.1-1.1-0.1c-1,0-1.9,0.3-2.6,0.9c-0.7,0.6-1.2,1.4-1.5,2.5v10.2h-1.6v-14.8h1.6
				l0,2.4c0.9-1.8,2.3-2.6,4.2-2.6c0.5,0,0.8,0.1,1.1,0.2L355.9,785.1z"/>
			<path class="st1" d="M361.2,783.7l0.1,2.5c0.6-0.9,1.2-1.6,2.1-2.1c0.8-0.5,1.7-0.7,2.7-0.7c1.6,0,2.8,0.4,3.5,1.3
				c0.8,0.9,1.2,2.2,1.2,4v9.7h-1.6v-9.7c0-1.3-0.3-2.3-0.8-3c-0.6-0.6-1.4-1-2.6-1c-1,0-1.9,0.3-2.7,1c-0.8,0.6-1.4,1.5-1.7,2.6
				v10.1h-1.6v-14.8H361.2z"/>
			<path class="st1" d="M381.8,798.8c-1.3,0-2.4-0.3-3.4-0.9s-1.8-1.5-2.4-2.6s-0.8-2.3-0.8-3.7V791c0-1.4,0.3-2.7,0.8-3.8
				s1.3-2,2.3-2.7s2.1-1,3.2-1c1.8,0,3.2,0.6,4.3,1.8s1.6,2.9,1.6,5v0.9h-10.6v0.3c0,1.7,0.5,3.1,1.4,4.2s2.2,1.7,3.6,1.7
				c0.9,0,1.6-0.2,2.3-0.5s1.3-0.8,1.8-1.5l1,0.8C385.9,797.9,384.1,798.8,381.8,798.8z M381.5,784.9c-1.2,0-2.3,0.5-3.1,1.4
				s-1.4,2.1-1.5,3.6h8.9v-0.2c0-1.4-0.5-2.6-1.2-3.5S382.8,784.9,381.5,784.9z"/>
			<path class="st1" d="M396.4,796.2l4.3-12.4h1.8l-6.3,17.3l-0.3,0.8c-0.8,1.8-2.1,2.7-3.8,2.7c-0.4,0-0.8-0.1-1.3-0.2l0-1.4
				l0.8,0.1c0.8,0,1.5-0.2,1.9-0.6s0.9-1.1,1.3-2l0.7-2l-5.6-14.7h1.8L396.4,796.2z"/>
		</g>
	</g>
	<g>
		<path class="st1" d="M274.3,72v-3h7.7v23.2l2.4,0.5v3h-9.8v-3l2.4-0.5V72.5L274.3,72z"/>
		<path class="st1" d="M285.6,86.2c0-2.8,0.8-5,2.3-6.8c1.5-1.8,3.7-2.6,6.4-2.6c2.7,0,4.9,0.9,6.4,2.6c1.5,1.8,2.3,4,2.3,6.8v0.4
			c0,2.8-0.8,5-2.3,6.8c-1.5,1.7-3.7,2.6-6.4,2.6c-2.7,0-4.9-0.9-6.4-2.6c-1.5-1.7-2.3-4-2.3-6.8V86.2z M290.6,86.6
			c0,1.7,0.3,3,0.9,4.1c0.6,1,1.5,1.5,2.9,1.5c1.3,0,2.2-0.5,2.8-1.5c0.6-1,0.9-2.4,0.9-4.1v-0.4c0-1.6-0.3-3-0.9-4
			c-0.6-1-1.6-1.6-2.9-1.6s-2.2,0.5-2.8,1.6c-0.6,1-0.9,2.4-0.9,4V86.6z"/>
		<path class="st1" d="M305.6,86.6c0-2.9,0.6-5.3,1.9-7.1c1.3-1.8,3-2.7,5.3-2.7c1,0,1.9,0.2,2.7,0.7c0.8,0.5,1.5,1.1,2,2l0.4-2.3
			h4.3v17.9c0,2.4-0.8,4.4-2.3,5.8c-1.5,1.5-3.6,2.2-6.3,2.2c-0.9,0-1.9-0.1-3-0.4c-1-0.3-2-0.6-2.9-1.1l0.9-3.5
			c0.8,0.3,1.6,0.6,2.4,0.8c0.8,0.2,1.6,0.3,2.5,0.3c1.2,0,2.1-0.4,2.7-1.1c0.6-0.7,0.9-1.8,0.9-3.1v-1.2c-0.5,0.7-1.2,1.2-1.9,1.6
			c-0.7,0.4-1.6,0.5-2.5,0.5c-2.3,0-4-0.8-5.3-2.5c-1.3-1.7-1.9-3.9-1.9-6.6V86.6z M310.6,86.9c0,1.6,0.3,2.9,0.8,3.8
			s1.4,1.4,2.7,1.4c0.8,0,1.4-0.1,1.9-0.4c0.5-0.3,1-0.7,1.3-1.2v-8c-0.3-0.6-0.7-1-1.3-1.3c-0.5-0.3-1.2-0.5-1.9-0.5
			c-1.2,0-2.1,0.5-2.7,1.6c-0.6,1.1-0.8,2.5-0.8,4.2V86.9z"/>
		<path class="st1" d="M333.7,92.7l2.4-0.5V80.7l-2.7-0.5v-3h7.7v15l2.4,0.5v3h-9.8V92.7z M341.1,72.7h-5V69h5V72.7z"/>
		<path class="st1" d="M344.8,92.7l2.4-0.5V80.7l-2.6-0.5v-3h7.3l0.2,2.6c0.6-0.9,1.4-1.7,2.3-2.2c0.9-0.5,1.9-0.8,3-0.8
			c1.9,0,3.3,0.6,4.4,1.8c1,1.2,1.6,3,1.6,5.5v8l2.4,0.5v3h-9.5v-3l2.1-0.5v-8c0-1.2-0.3-2.1-0.8-2.6c-0.5-0.5-1.3-0.8-2.3-0.8
			c-0.7,0-1.3,0.1-1.8,0.4c-0.5,0.3-1,0.6-1.3,1.1v9.9l2,0.5v3h-9.4V92.7z"/>
		<path class="st1" d="M228.9,126.1c0.8,0,1.5-0.2,2.1-0.7c0.6-0.5,0.9-1.1,1-1.8h2.1c0,0.8-0.3,1.5-0.8,2.2s-1.1,1.2-1.9,1.6
			s-1.6,0.6-2.5,0.6c-1.8,0-3.2-0.6-4.3-1.8c-1.1-1.2-1.6-2.8-1.6-4.9v-0.4c0-1.3,0.2-2.4,0.7-3.4c0.5-1,1.1-1.8,2-2.3
			s1.9-0.8,3.1-0.8c1.5,0,2.7,0.4,3.7,1.3c1,0.9,1.5,2,1.6,3.5H232c-0.1-0.9-0.4-1.6-1-2.1c-0.6-0.5-1.3-0.8-2.2-0.8
			c-1.1,0-2,0.4-2.7,1.2s-0.9,2-0.9,3.6v0.4c0,1.5,0.3,2.7,0.9,3.5S227.7,126.1,228.9,126.1z"/>
		<path class="st1" d="M237.6,120.9c0-1.3,0.3-2.5,0.8-3.5c0.5-1,1.2-1.8,2.1-2.4c0.9-0.6,1.9-0.8,3.1-0.8c1.8,0,3.3,0.6,4.4,1.9
			c1.1,1.2,1.7,2.9,1.7,5v0.2c0,1.3-0.2,2.4-0.7,3.5c-0.5,1-1.2,1.8-2.1,2.4c-0.9,0.6-2,0.9-3.2,0.9c-1.8,0-3.2-0.6-4.4-1.9
			c-1.1-1.2-1.7-2.9-1.7-4.9V120.9z M239.8,121.2c0,1.5,0.3,2.6,1,3.5s1.6,1.3,2.7,1.3c1.1,0,2.1-0.4,2.7-1.3c0.7-0.9,1-2.2,1-3.8
			c0-1.4-0.3-2.6-1-3.5c-0.7-0.9-1.6-1.3-2.7-1.3c-1.1,0-2,0.4-2.7,1.3C240.2,118.3,239.8,119.5,239.8,121.2z"/>
		<path class="st1" d="M256.1,114.4l0.1,1.7c1-1.3,2.3-1.9,4-1.9c2.8,0,4.2,1.6,4.2,4.7v8.7H262v-8.7c0-1-0.2-1.7-0.7-2.1
			c-0.4-0.5-1.1-0.7-2-0.7c-0.7,0-1.4,0.2-1.9,0.6c-0.6,0.4-1,0.9-1.3,1.5v9.4h-2.3v-13.2H256.1z"/>
		<path class="st1" d="M271.3,114.4l0.1,1.7c1-1.3,2.3-1.9,4-1.9c2.8,0,4.2,1.6,4.2,4.7v8.7h-2.3v-8.7c0-1-0.2-1.7-0.7-2.1
			c-0.4-0.5-1.1-0.7-2-0.7c-0.7,0-1.4,0.2-1.9,0.6c-0.6,0.4-1,0.9-1.3,1.5v9.4h-2.3v-13.2H271.3z"/>
		<path class="st1" d="M290,127.9c-1.8,0-3.2-0.6-4.4-1.8s-1.7-2.7-1.7-4.7V121c0-1.3,0.3-2.5,0.8-3.5c0.5-1,1.2-1.8,2.1-2.4
			s1.9-0.9,2.9-0.9c1.7,0,3.1,0.6,4,1.7c1,1.1,1.4,2.8,1.4,4.9v0.9h-8.9c0,1.3,0.4,2.4,1.1,3.2c0.7,0.8,1.7,1.2,2.8,1.2
			c0.8,0,1.5-0.2,2-0.5c0.6-0.3,1-0.8,1.5-1.3l1.4,1.1C293.9,127,292.2,127.9,290,127.9z M289.7,116.1c-0.9,0-1.7,0.3-2.3,1
			s-1,1.6-1.1,2.8h6.6v-0.2c-0.1-1.1-0.4-2-0.9-2.7S290.7,116.1,289.7,116.1z"/>
		<path class="st1" d="M304.5,126.1c0.8,0,1.5-0.2,2.1-0.7c0.6-0.5,0.9-1.1,1-1.8h2.1c0,0.8-0.3,1.5-0.8,2.2s-1.1,1.2-1.9,1.6
			s-1.6,0.6-2.5,0.6c-1.8,0-3.2-0.6-4.3-1.8c-1.1-1.2-1.6-2.8-1.6-4.9v-0.4c0-1.3,0.2-2.4,0.7-3.4c0.5-1,1.1-1.8,2-2.3
			s1.9-0.8,3.1-0.8c1.5,0,2.7,0.4,3.7,1.3c1,0.9,1.5,2,1.6,3.5h-2.1c-0.1-0.9-0.4-1.6-1-2.1c-0.6-0.5-1.3-0.8-2.2-0.8
			c-1.1,0-2,0.4-2.7,1.2s-0.9,2-0.9,3.6v0.4c0,1.5,0.3,2.7,0.9,3.5S303.4,126.1,304.5,126.1z"/>
		<path class="st1" d="M316.9,111.2v3.2h2.5v1.7h-2.5v8.2c0,0.5,0.1,0.9,0.3,1.2s0.6,0.4,1.1,0.4c0.3,0,0.6,0,1.1-0.1v1.8
			c-0.6,0.2-1.2,0.2-1.7,0.2c-1,0-1.8-0.3-2.3-0.9c-0.5-0.6-0.8-1.5-0.8-2.6v-8.2h-2.4v-1.7h2.4v-3.2H316.9z"/>
		<path class="st1" d="M342.9,124.5l2.5-10.1h2.3l-3.8,13.2H342l-3.2-10l-3.1,10h-1.8l-3.8-13.2h2.2l2.6,9.9l3.1-9.9h1.8
			L342.9,124.5z"/>
		<path class="st1" d="M351.5,110.9c0-0.4,0.1-0.7,0.3-0.9c0.2-0.3,0.6-0.4,1-0.4s0.8,0.1,1,0.4c0.2,0.3,0.3,0.6,0.3,0.9
			c0,0.4-0.1,0.7-0.3,0.9s-0.6,0.4-1,0.4s-0.8-0.1-1-0.4S351.5,111.3,351.5,110.9z M353.9,127.6h-2.3v-13.2h2.3V127.6z"/>
		<path class="st1" d="M362.1,111.2v3.2h2.5v1.7h-2.5v8.2c0,0.5,0.1,0.9,0.3,1.2s0.6,0.4,1.1,0.4c0.3,0,0.6,0,1.1-0.1v1.8
			c-0.6,0.2-1.2,0.2-1.7,0.2c-1,0-1.8-0.3-2.3-0.9c-0.5-0.6-0.8-1.5-0.8-2.6v-8.2h-2.4v-1.7h2.4v-3.2H362.1z"/>
		<path class="st1" d="M371,116c1-1.2,2.3-1.8,3.9-1.8c2.8,0,4.2,1.6,4.2,4.7v8.7h-2.3v-8.7c0-1-0.2-1.7-0.7-2.1
			c-0.4-0.5-1.1-0.7-2-0.7c-0.7,0-1.4,0.2-1.9,0.6c-0.6,0.4-1,0.9-1.3,1.5v9.4h-2.3v-18.8h2.3V116z"/>
		<path class="st1" d="M399.8,126.3c-0.9,1-2.2,1.6-3.9,1.6c-1.4,0-2.5-0.4-3.2-1.2c-0.7-0.8-1.1-2-1.1-3.6v-8.6h2.3v8.5
			c0,2,0.8,3,2.4,3c1.7,0,2.9-0.6,3.4-1.9v-9.6h2.3v13.2h-2.1L399.8,126.3z"/>
		<path class="st1" d="M414.6,124.1c0-0.6-0.2-1.1-0.7-1.4c-0.5-0.3-1.3-0.6-2.4-0.9s-2.1-0.5-2.7-0.9c-0.7-0.3-1.2-0.7-1.5-1.2
			c-0.3-0.5-0.5-1-0.5-1.7c0-1.1,0.5-2,1.4-2.7c0.9-0.7,2.1-1.1,3.5-1.1c1.5,0,2.7,0.4,3.6,1.2c0.9,0.8,1.4,1.8,1.4,3h-2.3
			c0-0.6-0.3-1.2-0.8-1.6c-0.5-0.4-1.2-0.7-2-0.7c-0.8,0-1.5,0.2-1.9,0.5s-0.7,0.8-0.7,1.4c0,0.5,0.2,1,0.6,1.2s1.2,0.5,2.3,0.8
			c1.1,0.3,2,0.6,2.7,0.9c0.7,0.4,1.2,0.8,1.6,1.3c0.3,0.5,0.5,1.1,0.5,1.8c0,1.2-0.5,2.1-1.4,2.8c-0.9,0.7-2.2,1.1-3.7,1.1
			c-1.1,0-2-0.2-2.8-0.6s-1.5-0.9-1.9-1.6c-0.5-0.7-0.7-1.4-0.7-2.2h2.3c0,0.8,0.3,1.4,0.9,1.8c0.6,0.4,1.3,0.7,2.2,0.7
			c0.9,0,1.5-0.2,2.1-0.5C414.4,125.2,414.6,124.7,414.6,124.1z"/>
	</g>
</g>
<g id="grid" class="st69">
</g>
</svg>
