<?xml version="1.0" encoding="utf-8"?>
<!-- Generator: Adobe Illustrator 18.1.1, SVG Export Plug-In . SVG Version: 6.00 Build 0)  -->
<svg version="1.1" id="Layer_1" xmlns="http://www.w3.org/2000/svg" xmlns:xlink="http://www.w3.org/1999/xlink" x="0px" y="0px"
	 viewBox="0 0 323.3 323.3" style="enable-background:new 0 0 323.3 323.3;" xml:space="preserve">
<style type="text/css">
	.st0{fill:#C6AF76;}
	.st1{fill:none;stroke:#A17644;stroke-width:3.3156;stroke-miterlimit:10;}
	.st2{fill:#51BC96;}
	.st3{fill:#88CCB3;}
	.st4{fill:#34B188;}
	.st5{fill:#FBEC60;}
	.st6{fill:#FCE49B;}
	.st7{fill:#E3CD8A;}
	.st8{fill:#D9C080;}
	.st9{fill:none;stroke:#636467;stroke-width:10.5772;stroke-miterlimit:10;}
	.st10{fill:none;stroke:#EF6B83;stroke-width:8.9907;stroke-linejoin:round;stroke-miterlimit:10;}
	.st11{fill:none;stroke:#EF6B83;stroke-width:8.9907;stroke-linecap:round;stroke-miterlimit:10;}
	.st12{fill:#CC496B;}
	.st13{fill:#EF6B83;}
	.st14{fill:none;stroke:#CF5C7A;stroke-width:4.9592;stroke-linecap:round;stroke-miterlimit:10;}
	.st15{fill:#636467;}
	.st16{fill:#FFFFFF;stroke:#636467;stroke-width:7.1491;stroke-linecap:round;stroke-miterlimit:10;}
	.st17{fill:none;stroke:#A17644;stroke-width:3.2757;stroke-miterlimit:10;}
	.st18{fill:#626568;}
	.st19{fill:#E7D1B9;}
	.st20{fill:#ED6E83;}
	.st21{fill:#5BBBBB;}
	.st22{fill:#DFDFDE;}
	.st23{opacity:0.5;}
	.st24{fill:#D2D3D4;}
	.st25{fill:none;stroke:#A17644;stroke-width:3.6673;stroke-miterlimit:10;}
	.st26{fill:#FFFFFF;}
	.st27{fill:#16A457;}
	.st28{fill:none;stroke:#51BC96;stroke-width:20.1693;stroke-linecap:round;stroke-miterlimit:10;}
	.st29{fill:none;stroke:#51BC96;stroke-width:19.8239;stroke-linecap:round;stroke-miterlimit:10;}
	.st30{fill-rule:evenodd;clip-rule:evenodd;fill:#EF6B83;}
	.st31{fill:none;stroke:#59BE99;stroke-width:3.5;stroke-miterlimit:10;}
	.st32{fill:none;stroke:#59BE99;stroke-width:3.5;stroke-linecap:round;stroke-miterlimit:10;}
	.st33{fill:#FFFFFF;stroke:#59BE99;stroke-width:3.5;stroke-linecap:round;stroke-miterlimit:10;}
	.st34{fill:none;stroke:#59BE99;stroke-width:4.5;stroke-linecap:round;stroke-miterlimit:10;}
	.st35{fill:#59BE99;}
	.st36{fill:none;stroke:#59BE99;stroke-width:4.5;stroke-linecap:round;stroke-linejoin:round;stroke-miterlimit:10;}
	.st37{opacity:0.8;fill:#EF6B83;}
	.st38{opacity:0.8;fill:none;stroke:#EF6C84;stroke-width:5;stroke-linecap:round;stroke-miterlimit:10;}
</style>
<path class="st0" d="M292.4,245.2c-0.1,0-0.3,0-0.4,0H31.8c-0.1,0-0.3,0-0.4,0c-7,0-12.7,3-12.7,10.1c0,7.7,2.8,11.8,6.9,13.9l0,0
	c0,0,0,0,0,0c1.7,0.9,3.7,1.4,5.8,1.4h10.9c5.1,1,8.9,5.5,8.9,10.9c0,11.6-11,11.2-11.1,11.3c-5.4,0-9.7-0.7-9.7,4.7
	c0,11.1,5.3,14.7,10.6,14.7c0.6,0,1.7,0.1,1.7,0.1c10.6,0,178.7,0,207.8,0c0,0,1.3,0,2,0c5.4,0,9.8-4,9.8-14.8
	c0-5.4-4.4-4.8-9.8-4.8c-0.2,0-0.3,0-0.4,0c-0.1,0-0.2,0-0.4,0c-3.5,0-6.3-2.8-6.3-6.3c0-3.5,2.8-6.3,6.3-6.3c0.4,0,2.4,0,3.1,0
	c5,0,16.2,0,20.8,0c4.6,0,8.7-2.6,8.7-9.3h8.1c7,0,12.7-4.4,12.7-15.4C305.1,248.2,299.4,245.2,292.4,245.2z"/>
<line class="st1" x1="60.7" y1="99.3" x2="60.7" y2="226.5"/>
<line class="st1" x1="255.9" y1="81.4" x2="255.9" y2="228.8"/>
<path class="st2" d="M256.4,159.9c0,0-33.5,0.3-33.5-40.3c0-32.9,33.5-107,33.5-107s33.5,74.1,33.5,107
	C289.9,160.2,256.4,159.9,256.4,159.9z"/>
<path class="st3" d="M256.4,12.7v147.3c0,0,33.5,0.3,33.5-40.3C289.9,86.8,256.4,12.7,256.4,12.7z"/>
<line class="st1" x1="105.9" y1="117.3" x2="105.9" y2="237.5"/>
<path class="st2" d="M105.9,146.9c0,0-30.8,0.3-30.8-37.1c0-30.3,30.8-98.5,30.8-98.5s30.8,68.2,30.8,98.5
	C136.7,147.2,105.9,146.9,105.9,146.9z"/>
<path class="st3" d="M105.9,11.3v135.6c0,0,30.8,0.3,30.8-37.1C136.7,79.5,105.9,11.3,105.9,11.3z"/>
<path class="st4" d="M274,218.6C274,218.6,274,218.6,274,218.6c-3.5-3-15.1-11.1-26.7,0.5c-13.2,13.2-25.7,0-25.7,0
	s-13.8-13.1-27.1,0.1c-13.2,13.2-25.7,0-25.7,0s-13.8-13.1-27.1,0.1c-13.2,13.2-25.5,0.1-25.5,0.1s-14-13.2-27.2,0
	c-13.2,13.2-25.7,0-25.7,0s-10.4-10.7-27.1-0.7c-6.6,4-13.4,15.4-15.1,26.7l1,9.8h252.5l0,0h24.1l1.6-12.3
	C284.7,227.6,268,212.4,274,218.6z"/>
<path class="st2" d="M60.7,171.1c0,0-22.8,0.2-22.8-27.3c0-22.3,22.8-72.6,22.8-72.6s22.8,50.3,22.8,72.6
	C83.4,171.3,60.7,171.1,60.7,171.1z"/>
<path class="st3" d="M60.7,71.1v100c0,0,22.8,0.2,22.8-27.3C83.4,121.4,60.7,71.1,60.7,71.1z"/>
<circle class="st5" cx="43.9" cy="225.1" r="2"/>
<circle class="st5" cx="202.5" cy="226.5" r="1.1"/>
<circle class="st5" cx="176.4" cy="236.2" r="1.1"/>
<circle class="st5" cx="93.5" cy="227.2" r="1.1"/>
<circle class="st5" cx="279.6" cy="231.3" r="2"/>
<circle class="st5" cx="34.9" cy="232.3" r="1.1"/>
<path class="st6" d="M292.4,240.1c-0.1,0-0.3,0-0.4,0H31.8c-0.1,0-0.3,0-0.4,0c-7,0-12.7,5.7-12.7,12.7c0,4.9,2.8,9.2,6.9,11.3l0,0
	c0,0,0,0,0,0c1.7,0.9,3.7,1.4,5.8,1.4h10.9c5.1,1,8.9,5.5,8.9,10.9c0,11.6-11,11.2-11.1,11.3c-5.4,0-9.7,4.3-9.7,9.7
	s4.3,9.7,9.7,9.7c0.2,0,1.7,0.1,1.7,0.1c10.6,0,179.6,0,208.7,0h2c5.4,0,9.8-4.4,9.8-9.8c0-5.4-4.4-9.8-9.8-9.8c-0.2,0-0.7,0-0.8,0
	c-3.5,0-6.3-2.8-6.3-6.3s2.8-6.3,6.3-6.3c0.4,0,2.4,0,3.1,0c5,0,16.2,0,20.8,0c4.6,0,8.7-2.6,8.7-9.3h8.1c7,0,12.7-5.7,12.7-12.7
	C305.1,245.8,299.4,240.1,292.4,240.1z"/>
<circle class="st5" cx="113.3" cy="231.3" r="1.1"/>
<ellipse class="st7" cx="79" cy="249.6" rx="4.1" ry="1.5"/>
<path class="st8" d="M242.7,248c-0.1,0-0.2,0-0.4,0c0,0,0,0,0,0H41.6c0,0-0.1,0-0.1,0c0,0,0,0-0.1,0c-3.1,0-5.6,0.9-5.6,2.1
	c0,1.2,2.5,2.1,5.6,2.1c0,0,0.1,0,0.1,0c0,0,0,0,0,0h200.1c0.2,0,0.3,0,0.5-0.1c0.2,0,0.4,0,0.6,0c3.1,0,5.5-0.9,5.5-2.1
	S245.8,248,242.7,248z"/>
<circle class="st5" cx="264" cy="226.3" r="2"/>
<circle class="st9" cx="229.7" cy="209.5" r="35.7"/>
<circle class="st9" cx="91.8" cy="209.5" r="35.7"/>
<polygon class="st10" points="87.1,209.5 126,157.6 203.7,157.6 163.3,209.5 "/>
<path class="st11" d="M229.7,209.5l-33.4-70.9c-0.7-1.5,0.4-3.3,2.1-3.3h29"/>
<g>
	<path class="st12" d="M201.9,139.8h25.5c2.5,0,4.5-2,4.5-4.5c0-2.5-2-4.5-4.5-4.5h-29.6L201.9,139.8z"/>
</g>
<line class="st11" x1="161.4" y1="207.6" x2="114.7" y2="137.6"/>
<circle class="st13" cx="163.3" cy="209.5" r="12.9"/>
<line class="st14" x1="148.2" y1="227.2" x2="163.3" y2="209.5"/>
<path class="st15" d="M155.7,231.1h-15c-1.4,0-2.5-1.1-2.5-2.5l0,0c0-1.4,1.1-2.5,2.5-2.5h15c1.4,0,2.5,1.1,2.5,2.5l0,0
	C158.2,230,157.1,231.1,155.7,231.1z"/>
<line class="st16" x1="137.3" y1="136.3" x2="104.8" y2="136.3"/>
</svg>
