<?xml version="1.0" encoding="utf-8"?>
<!-- Generator: Adobe Illustrator 18.1.1, SVG Export Plug-In . SVG Version: 6.00 Build 0)  -->
<svg version="1.1" id="Layer_1" xmlns="http://www.w3.org/2000/svg" xmlns:xlink="http://www.w3.org/1999/xlink" x="0px" y="0px"
	 viewBox="0 0 323.3 397.2" style="enable-background:new 0 0 323.3 397.2;" xml:space="preserve">
<style type="text/css">
	.st0{fill:#C6AF75;}
	.st1{fill:#A17644;}
	.st2{fill:#2AD19D;}
	.st3{fill:#79E2BC;}
	.st4{fill:#34B188;}
	.st5{fill:#FCED5E;}
	.st6{fill:#FDE49C;}
	.st7{fill:#E2CC8A;}
	.st8{fill:#D9C081;}
	.st9{fill:#626366;}
	.st10{fill:#F46B83;}
	.st11{fill:#CC486A;}
	.st12{fill:#CE5B79;}
	.st13{fill:#FFFFFF;}
	.st14{fill:#929496;}
	.st15{fill:#626467;}
	.st16{fill:#E6D0B8;}
	.st17{fill:#EE6D83;}
	.st18{fill:#5ABABA;}
	.st19{fill:#DEDEDE;}
	.st20{fill:#D1D3D4;}
	.st21{fill:#16A457;}
	.st22{fill:#58BD98;}
	.st23{fill:#F6899C;}
	.st24{fill:#1A9169;}
	.st25{fill:#AA4660;}
	.st26{fill-rule:evenodd;clip-rule:evenodd;fill:#F46B83;}
	.st27{fill:#EF6B83;}
</style>
<g>
	<g>
		<path class="st0" d="M291,239.6c-0.1,0-0.3,0-0.4,0H30.4c-0.1,0-0.3,0-0.4,0c-7,0-12.7,3-12.7,10.1c0,7.7,2.8,11.8,6.9,13.9l0,0
			c0,0,0,0,0,0c1.7,0.9,3.7,1.4,5.8,1.4h10.9c5.1,1,8.9,5.5,8.9,10.9c0,11.6-11,11.2-11.1,11.3c-5.4,0-9.7-0.7-9.7,4.7
			c0,11.1,5.3,14.7,10.6,14.7c0.6,0,1.7,0.1,1.7,0.1c10.6,0,178.7,0,207.8,0c0,0,1.3,0,2,0c5.4,0,9.8-4,9.8-14.8
			c0-5.4-4.4-4.8-9.8-4.8c-0.2,0-0.3,0-0.4,0c-0.1,0-0.2,0-0.4,0c-3.5,0-6.3-2.8-6.3-6.3c0-3.5,2.8-6.3,6.3-6.3c0.4,0,2.4,0,3.1,0
			c5,0,16.2,0,20.8,0c4.6,0,8.7-2.6,8.7-9.3h8.1c7,0,12.7-4.4,12.7-15.4C303.7,242.6,298,239.6,291,239.6z"/>
	</g>
	<g>
		<rect x="57.6" y="93.7" class="st1" width="3.3" height="127.2"/>
	</g>
	<g>
		<rect x="252.8" y="75.8" class="st1" width="3.3" height="147.4"/>
	</g>
	<g>
		<path class="st2" d="M255,154.3c0,0-33.5,0.3-33.5-40.3c0-32.9,33.5-107,33.5-107s33.5,74.1,33.5,107
			C288.5,154.7,255,154.3,255,154.3z"/>
	</g>
	<g>
		<path class="st3" d="M255,7.1v147.3c0,0,33.5,0.3,33.5-40.3C288.5,81.2,255,7.1,255,7.1z"/>
	</g>
	<g>
		<rect x="102.8" y="111.7" class="st1" width="3.3" height="120.2"/>
	</g>
	<g>
		<path class="st2" d="M104.4,141.3c0,0-30.8,0.3-30.8-37.1c0-30.3,30.8-98.5,30.8-98.5s30.8,68.2,30.8,98.5
			C135.3,141.6,104.4,141.3,104.4,141.3z"/>
	</g>
	<g>
		<path class="st3" d="M104.4,5.7v135.6c0,0,30.8,0.3,30.8-37.1C135.3,73.9,104.4,5.7,104.4,5.7z"/>
	</g>
	<g>
		<path class="st4" d="M272.6,213C272.6,213,272.6,213,272.6,213c-3.5-3-15.1-11.1-26.7,0.5c-13.2,13.2-25.7,0-25.7,0
			s-13.8-13.1-27.1,0.1c-13.2,13.2-25.7,0-25.7,0s-13.8-13.1-27.1,0.1c-13.2,13.2-25.5,0.1-25.5,0.1s-14-13.2-27.2,0
			c-13.2,13.2-25.7,0-25.7,0s-10.4-10.7-27.1-0.7c-6.6,4-13.4,15.4-15.1,26.7l1,9.8h252.5l0,0h24.1l1.6-12.3
			C283.2,222,266.6,206.9,272.6,213z"/>
	</g>
	<g>
		<path class="st2" d="M59.2,165.5c0,0-22.8,0.2-22.8-27.3c0-22.3,22.8-72.6,22.8-72.6S82,115.8,82,138.2
			C82,165.7,59.2,165.5,59.2,165.5z"/>
	</g>
	<g>
		<path class="st3" d="M59.2,65.5v100c0,0,22.8,0.2,22.8-27.3C82,115.8,59.2,65.5,59.2,65.5z"/>
	</g>
	<g>
		<circle class="st5" cx="42.5" cy="219.6" r="2"/>
	</g>
	<g>
		<circle class="st5" cx="201" cy="220.9" r="1.1"/>
	</g>
	<g>
		<circle class="st5" cx="175" cy="230.6" r="1.1"/>
	</g>
	<g>
		<circle class="st5" cx="92.1" cy="221.6" r="1.1"/>
	</g>
	<g>
		<circle class="st5" cx="278.1" cy="225.7" r="2"/>
	</g>
	<g>
		<circle class="st5" cx="33.5" cy="226.7" r="1.1"/>
	</g>
	<g>
		<path class="st6" d="M291,234.6c-0.1,0-0.3,0-0.4,0H30.4c-0.1,0-0.3,0-0.4,0c-7,0-12.7,5.7-12.7,12.7c0,4.9,2.8,9.2,6.9,11.3l0,0
			c0,0,0,0,0,0c1.7,0.9,3.7,1.4,5.8,1.4h10.9c5.1,1,8.9,5.5,8.9,10.9c0,11.6-11,11.2-11.1,11.3c-5.4,0-9.7,4.3-9.7,9.7
			s4.3,9.7,9.7,9.7c0.2,0,1.7,0.1,1.7,0.1c10.6,0,179.6,0,208.7,0h2c5.4,0,9.8-4.4,9.8-9.8c0-5.4-4.4-9.8-9.8-9.8
			c-0.2,0-0.7,0-0.8,0c-3.5,0-6.3-2.8-6.3-6.3s2.8-6.3,6.3-6.3c0.4,0,2.4,0,3.1,0c5,0,16.2,0,20.8,0c4.6,0,8.7-2.6,8.7-9.3h8.1
			c7,0,12.7-5.7,12.7-12.7C303.7,240.2,298,234.6,291,234.6z"/>
	</g>
	<g>
		<circle class="st5" cx="111.9" cy="225.7" r="1.1"/>
	</g>
	<g>
		<ellipse class="st7" cx="77.5" cy="244" rx="4.1" ry="1.5"/>
	</g>
	<g>
		<path class="st8" d="M241.3,242.4c-0.1,0-0.2,0-0.4,0c0,0,0,0,0,0H40.2c0,0-0.1,0-0.1,0c0,0,0,0-0.1,0c-3.1,0-5.6,0.9-5.6,2.1
			c0,1.2,2.5,2.1,5.6,2.1c0,0,0.1,0,0.1,0c0,0,0,0,0,0h200.1c0.2,0,0.3,0,0.5-0.1c0.2,0,0.4,0,0.6,0c3.1,0,5.5-0.9,5.5-2.1
			S244.4,242.4,241.3,242.4z"/>
	</g>
	<g>
		<circle class="st5" cx="262.6" cy="220.7" r="2"/>
	</g>
	<g>
		<path class="st9" d="M228.2,244.9c-22.6,0-41-18.4-41-41s18.4-41,41-41s41,18.4,41,41S250.8,244.9,228.2,244.9z M228.2,173.5
			c-16.8,0-30.4,13.6-30.4,30.4s13.6,30.4,30.4,30.4s30.4-13.6,30.4-30.4S245,173.5,228.2,173.5z"/>
	</g>
	<g>
		<path class="st9" d="M90.4,244.9c-22.6,0-41-18.4-41-41s18.4-41,41-41s41,18.4,41,41S113,244.9,90.4,244.9z M90.4,173.5
			c-16.8,0-30.4,13.6-30.4,30.4s13.6,30.4,30.4,30.4s30.4-13.6,30.4-30.4S107.2,173.5,90.4,173.5z"/>
	</g>
	<g>
		<path class="st10" d="M161.8,208.4H85.7c-1.7,0-3.3-1-4-2.5s-0.6-3.3,0.4-4.7l38.9-51.8c0.8-1.1,2.2-1.8,3.6-1.8h77.7
			c1.7,0,3.3,1,4,2.5c0.8,1.5,0.6,3.4-0.5,4.7l-40.5,51.8C164.5,207.7,163.2,208.4,161.8,208.4z M94.7,199.4h65l33.4-42.9h-66.3
			L94.7,199.4z"/>
	</g>
	<g>
		<path class="st10" d="M228.2,208.4c-1.7,0-3.3-1-4.1-2.6l-33.4-70.9c-1-2.1-0.8-4.5,0.4-6.5c1.2-2,3.4-3.1,5.7-3.1h29
			c2.5,0,4.5,2,4.5,4.5c0,2.5-2,4.5-4.5,4.5h-25.5l31.9,67.7c1.1,2.2,0.1,4.9-2.2,6C229.5,208.2,228.9,208.4,228.2,208.4z"/>
	</g>
	<g>
		<g>
			<path class="st11" d="M200.4,134.3h25.5c2.5,0,4.5-2,4.5-4.5c0-2.5-2-4.5-4.5-4.5h-29.6L200.4,134.3z"/>
		</g>
	</g>
	<g>
		<path class="st10" d="M160,206.5c-1.5,0-2.9-0.7-3.7-2l-46.7-70c-1.4-2.1-0.8-4.9,1.2-6.2c2.1-1.4,4.9-0.8,6.2,1.2l46.7,70
			c1.4,2.1,0.8,4.9-1.2,6.2C161.7,206.2,160.9,206.5,160,206.5z"/>
	</g>
	<g>
		<circle class="st10" cx="161.8" cy="203.9" r="12.9"/>
	</g>
	<g>
		<path class="st12" d="M146.8,224.1c-0.6,0-1.1-0.2-1.6-0.6c-1-0.9-1.2-2.4-0.3-3.5l15-17.8c0.9-1,2.4-1.2,3.5-0.3
			c1,0.9,1.2,2.4,0.3,3.5l-15,17.8C148.2,223.8,147.5,224.1,146.8,224.1z"/>
	</g>
	<g>
		<path class="st9" d="M154.3,225.5h-15c-1.4,0-2.5-1.1-2.5-2.5l0,0c0-1.4,1.1-2.5,2.5-2.5h15c1.4,0,2.5,1.1,2.5,2.5l0,0
			C156.8,224.4,155.7,225.5,154.3,225.5z"/>
	</g>
	<g>
		<line class="st13" x1="135.9" y1="130.7" x2="103.3" y2="130.7"/>
		<path class="st9" d="M135.9,134.3h-32.6c-2,0-3.6-1.6-3.6-3.6s1.6-3.6,3.6-3.6h32.6c2,0,3.6,1.6,3.6,3.6S137.9,134.3,135.9,134.3z
			"/>
	</g>
	<g>
		<g>
			<path class="st14" d="M77.1,345.4v4.5h3.2v3.5h-3.2v9.4c0,0.7,0.1,1.2,0.4,1.5c0.3,0.3,0.7,0.5,1.2,0.5c0.3,0,0.6,0,0.9,0
				c0.3,0,0.5-0.1,0.9-0.1l0.4,3.6c-0.6,0.2-1.1,0.3-1.7,0.4c-0.5,0.1-1.1,0.1-1.8,0.1c-1.7,0-3-0.5-4-1.4c-0.9-0.9-1.4-2.4-1.4-4.5
				v-9.4h-2.7v-3.5h2.7v-4.5H77.1z"/>
		</g>
		<g>
			<path class="st14" d="M109.2,352.9l-1.9,0.2l-3.9,15.2h-4.2l-3.4-11h-0.1l-3.4,11h-4.2l-3.9-15.2l-1.9-0.2v-3h8.4v3l-2,0.4
				l1.7,8.5h0.1l3.5-11.8h3.3l3.5,11.9h0.1l1.7-8.5l-2-0.4v-3h8.4V352.9z"/>
		</g>
		<g>
			<path class="st14" d="M110.9,359c0-2.8,0.8-5,2.3-6.8c1.5-1.8,3.7-2.6,6.4-2.6c2.7,0,4.9,0.9,6.4,2.6c1.5,1.8,2.3,4,2.3,6.8v0.4
				c0,2.8-0.8,5-2.3,6.8c-1.5,1.7-3.7,2.6-6.4,2.6c-2.7,0-4.9-0.9-6.4-2.6c-1.5-1.7-2.3-4-2.3-6.8V359z M115.9,359.3
				c0,1.7,0.3,3,0.9,4.1c0.6,1,1.5,1.5,2.9,1.5c1.3,0,2.2-0.5,2.8-1.5c0.6-1,0.9-2.4,0.9-4V359c0-1.6-0.3-3-0.9-4
				c-0.6-1-1.6-1.6-2.9-1.6s-2.2,0.5-2.8,1.6c-0.6,1-0.9,2.4-0.9,4V359.3z"/>
		</g>
		<g>
			<path class="st14" d="M165.5,352.9l-1.9,0.2l-3.9,15.2h-4.2l-3.4-11H152l-3.4,11h-4.2l-3.9-15.2l-1.9-0.2v-3h8.4v3l-2,0.4
				l1.7,8.5h0.1l3.5-11.8h3.3l3.5,11.9h0.1l1.7-8.5l-2-0.4v-3h8.4V352.9z"/>
		</g>
		<g>
			<path class="st14" d="M166.9,365.4l2.4-0.5v-19.6l-2.7-0.5v-3h7.6v10.5c0.6-0.9,1.3-1.5,2.1-2c0.8-0.5,1.8-0.7,2.8-0.7
				c1.9,0,3.5,0.6,4.6,1.9c1.1,1.3,1.6,3.3,1.6,5.9v7.5l2.4,0.5v3h-9.5v-3l2.2-0.5v-7.5c0-1.4-0.3-2.5-0.8-3.1
				c-0.5-0.6-1.3-0.9-2.3-0.9c-0.7,0-1.3,0.1-1.8,0.4c-0.5,0.3-1,0.6-1.3,1.1v10l2.2,0.5v3h-9.5V365.4z"/>
		</g>
		<g>
			<path class="st14" d="M198.1,368.8c-2.7,0-4.8-0.9-6.4-2.6c-1.6-1.7-2.4-3.9-2.4-6.5V359c0-2.7,0.8-5,2.3-6.8s3.5-2.7,6.1-2.6
				c2.5,0,4.4,0.8,5.8,2.3c1.4,1.5,2.1,3.5,2.1,6.1v2.7h-11l0,0.1c0.1,1.2,0.5,2.2,1.2,3s1.7,1.2,2.9,1.2c1.1,0,2-0.1,2.8-0.3
				c0.7-0.2,1.5-0.6,2.4-1.1l1.3,3.1c-0.8,0.6-1.8,1.1-3,1.5C200.9,368.6,199.6,368.8,198.1,368.8z M197.6,353.4
				c-0.9,0-1.7,0.4-2.2,1.1c-0.5,0.7-0.9,1.6-1,2.8l0.1,0.1h6.1v-0.4c0-1.1-0.2-1.9-0.7-2.5C199.4,353.7,198.7,353.4,197.6,353.4z"
				/>
		</g>
		<g>
			<path class="st14" d="M216.7,368.8c-2.7,0-4.8-0.9-6.4-2.6c-1.6-1.7-2.4-3.9-2.4-6.5V359c0-2.7,0.8-5,2.3-6.8s3.5-2.7,6.1-2.6
				c2.5,0,4.4,0.8,5.8,2.3c1.4,1.5,2.1,3.5,2.1,6.1v2.7h-11l0,0.1c0.1,1.2,0.5,2.2,1.2,3s1.7,1.2,2.9,1.2c1.1,0,2-0.1,2.8-0.3
				c0.7-0.2,1.5-0.6,2.4-1.1l1.3,3.1c-0.8,0.6-1.8,1.1-3,1.5C219.6,368.6,218.2,368.8,216.7,368.8z M216.3,353.4
				c-0.9,0-1.7,0.4-2.2,1.1c-0.5,0.7-0.9,1.6-1,2.8l0.1,0.1h6.1v-0.4c0-1.1-0.2-1.9-0.7-2.5C218,353.7,217.3,353.4,216.3,353.4z"/>
		</g>
		<g>
			<path class="st14" d="M226,344.7v-3h7.7v23.2l2.4,0.5v3h-9.8v-3l2.4-0.5v-19.6L226,344.7z"/>
		</g>
		<g>
			<path class="st14" d="M252.8,356.3h-3.3l-0.5-2.3c-0.3-0.3-0.8-0.5-1.3-0.7c-0.5-0.2-1.1-0.3-1.7-0.3c-0.9,0-1.6,0.2-2.1,0.6
				c-0.5,0.4-0.8,0.9-0.8,1.5c0,0.6,0.2,1,0.7,1.4c0.5,0.4,1.5,0.7,2.9,1c2.3,0.5,4,1.1,5.1,2c1.1,0.9,1.7,2.1,1.7,3.6
				c0,1.7-0.7,3-2.1,4.1c-1.4,1.1-3.3,1.6-5.6,1.6c-1.4,0-2.7-0.2-3.9-0.6c-1.2-0.4-2.2-1-3.2-1.8l-0.1-4.2h3.5l0.7,2.4
				c0.3,0.3,0.7,0.4,1.2,0.6c0.5,0.1,1,0.2,1.6,0.2c1,0,1.8-0.2,2.3-0.5c0.5-0.4,0.8-0.9,0.8-1.5c0-0.5-0.3-1-0.8-1.4
				c-0.5-0.4-1.5-0.8-3-1.1c-2.2-0.4-3.8-1.1-4.9-2c-1.1-0.9-1.7-2.1-1.7-3.6c0-1.5,0.6-2.9,1.9-4c1.3-1.1,3.1-1.7,5.5-1.7
				c1.4,0,2.8,0.2,4.1,0.6c1.3,0.4,2.3,0.9,3,1.5L252.8,356.3z"/>
		</g>
	</g>
</g>
</svg>
