<?xml version="1.0" encoding="utf-8"?>
<!-- Generator: Adobe Illustrator 18.1.1, SVG Export Plug-In . SVG Version: 6.00 Build 0)  -->
<svg version="1.1" id="Layer_1" xmlns="http://www.w3.org/2000/svg" xmlns:xlink="http://www.w3.org/1999/xlink" x="0px" y="0px"
	 viewBox="0 0 62.9 36.6" style="enable-background:new 0 0 62.9 36.6;" xml:space="preserve">
<style type="text/css">
	.st0{fill:#58BD98;}
	.st1{fill:#FFFFFF;}
	.st2{fill:#F6899C;}
	.st3{fill:#1A9169;}
	.st4{fill:#2AD19D;}
	.st5{fill:#F46B83;}
	.st6{fill:#17916A;}
	.st7{fill:#AA4660;}
	.st8{fill:#3A5D87;}
	.st9{fill:#527EBB;}
	.st10{fill:#D82908;}
	.st11{fill:#E85749;}
	.st12{fill:#C6AF75;}
	.st13{fill:#A17644;}
	.st14{fill:#79E2BC;}
	.st15{fill:#34B188;}
	.st16{fill:#FCED5E;}
	.st17{fill:#FDE49C;}
	.st18{fill:#E2CC8A;}
	.st19{fill:#D9C081;}
	.st20{fill:#626366;}
	.st21{fill:#CC486A;}
	.st22{fill:#CE5B79;}
	.st23{fill:#939598;}
	.st24{fill:#626467;}
	.st25{fill:#E6D0B8;}
	.st26{fill:#EE6D83;}
	.st27{fill:#5ABABA;}
	.st28{fill:#DEDEDE;}
	.st29{fill:#D1D3D4;}
	.st30{fill:#16A457;}
	.st31{fill:#929496;}
	.st32{fill:#EE6B82;}
	.st33{fill:#F66981;}
	.st34{fill:#16D19B;}
	.st35{fill:#24A45A;}
	.st36{opacity:0.21;}
	.st37{fill:#231F20;}
	.st38{fill-rule:evenodd;clip-rule:evenodd;fill:#FFFFFF;}
	.st39{fill:#F16D83;}
	.st40{fill-rule:evenodd;clip-rule:evenodd;fill:#F56980;}
	.st41{fill:#CCCCCC;}
	.st42{fill:#F36D85;}
	.st43{fill:#F4A6B7;}
	.st44{fill:#CBCBCB;}
	.st45{fill:#F06E85;}
	.st46{fill:#909294;}
	.st47{fill:#F56980;}
	.st48{opacity:0.3;}
	.st49{fill:#E2F2EB;}
</style>
<g>
	<g>
		<g>
			<path class="st23" d="M49.7,36.6c-7.3,0-13.2-5.9-13.2-13.2s5.9-13.2,13.2-13.2s13.2,5.9,13.2,13.2S57,36.6,49.7,36.6z
				 M49.7,13.9c-5.2,0-9.4,4.2-9.4,9.4s4.2,9.4,9.4,9.4s9.4-4.2,9.4-9.4S54.9,13.9,49.7,13.9z"/>
		</g>
	</g>
	<g>
		<g>
			<path class="st23" d="M13.2,36.6C5.9,36.6,0,30.6,0,23.3s5.9-13.2,13.2-13.2s13.2,5.9,13.2,13.2S20.5,36.6,13.2,36.6z M13.2,13.9
				c-5.2,0-9.4,4.2-9.4,9.4s4.2,9.4,9.4,9.4c5.2,0,9.4-4.2,9.4-9.4S18.4,13.9,13.2,13.9z"/>
		</g>
	</g>
	<g>
		<g>
			<path class="st23" d="M12.9,25.2c-0.3,0-0.6-0.1-0.9-0.2c-0.9-0.5-1.2-1.7-0.7-2.6l8.7-15.4h22.5c1,0,1.9,0.9,1.9,1.9
				s-0.9,1.9-1.9,1.9H22.2l-7.6,13.4C14.2,24.9,13.6,25.2,12.9,25.2z"/>
		</g>
	</g>
	<g>
		<g>
			<path class="st23" d="M50.1,25.2c-0.7,0-1.4-0.4-1.7-1.1L38.5,3.8c-0.4-0.8-0.3-1.8,0.1-2.5S40,0,40.9,0h9.2c1,0,1.9,0.9,1.9,1.9
				s-0.9,1.9-1.9,1.9h-7.3l9,18.7c0.5,0.9,0.1,2.1-0.9,2.5C50.6,25.2,50.3,25.2,50.1,25.2z"/>
		</g>
	</g>
	<g>
		<g>
			<path class="st23" d="M21,9.8c-0.6,0-1.2-0.3-1.6-0.8l-3.6-5.3c-0.6-0.9-0.4-2,0.5-2.6c0.9-0.6,2-0.4,2.6,0.5l3.6,5.3
				c0.6,0.9,0.4,2-0.5,2.6C21.8,9.7,21.4,9.8,21,9.8z"/>
		</g>
	</g>
	<g>
		<g>
			<line class="st23" x1="24.6" y1="2.2" x2="14.3" y2="2.2"/>
		</g>
		<g>
			<path class="st23" d="M24.6,4.1H14.3c-1,0-1.9-0.9-1.9-1.9s0.9-1.9,1.9-1.9h10.3c1,0,1.9,0.9,1.9,1.9S25.7,4.1,24.6,4.1z"/>
		</g>
	</g>
</g>
</svg>
