<?xml version="1.0" encoding="utf-8"?>
<!-- Generator: Adobe Illustrator 18.1.1, SVG Export Plug-In . SVG Version: 6.00 Build 0)  -->
<svg version="1.1" id="Layer_1" xmlns="http://www.w3.org/2000/svg" xmlns:xlink="http://www.w3.org/1999/xlink" x="0px" y="0px"
	 viewBox="0 0 65 65" style="enable-background:new 0 0 65 65;" xml:space="preserve">
<style type="text/css">
	.st0{fill:#58BD98;}
	.st1{fill:#FFFFFF;}
	.st2{fill:#F6899C;}
	.st3{fill:#1A9169;}
	.st4{fill:#2AD19D;}
	.st5{fill:#F46B83;}
	.st6{fill:#17916A;}
	.st7{fill:#AA4660;}
	.st8{fill:#3A5D87;}
	.st9{fill:#527EBB;}
	.st10{fill:#D82908;}
	.st11{fill:#E85749;}
	.st12{fill:#C6AF75;}
	.st13{fill:#A17644;}
	.st14{fill:#79E2BC;}
	.st15{fill:#34B188;}
	.st16{fill:#FCED5E;}
	.st17{fill:#FDE49C;}
	.st18{fill:#E2CC8A;}
	.st19{fill:#D9C081;}
	.st20{fill:#626366;}
	.st21{fill:#CC486A;}
	.st22{fill:#CE5B79;}
	.st23{fill:#939598;}
	.st24{fill:#626467;}
	.st25{fill:#E6D0B8;}
	.st26{fill:#EE6D83;}
	.st27{fill:#5ABABA;}
	.st28{fill:#DEDEDE;}
	.st29{fill:#D1D3D4;}
	.st30{fill:#16A457;}
	.st31{fill:#929496;}
	.st32{fill:#EE6B82;}
	.st33{fill:#F66981;}
	.st34{fill:#16D19B;}
	.st35{fill:#24A45A;}
	.st36{opacity:0.21;}
	.st37{fill:#231F20;}
	.st38{fill-rule:evenodd;clip-rule:evenodd;fill:#FFFFFF;}
	.st39{fill:#F16D83;}
	.st40{fill-rule:evenodd;clip-rule:evenodd;fill:#F56980;}
	.st41{fill:#CCCCCC;}
	.st42{fill:#F36D85;}
	.st43{fill:#F4A6B7;}
	.st44{fill:#CBCBCB;}
	.st45{fill:#F06E85;}
	.st46{fill:#909294;}
	.st47{fill:#F56980;}
	.st48{opacity:0.3;}
	.st49{fill:#E2F2EB;}
</style>
<g>
	<g>
		<g>
			<circle class="st34" cx="32.5" cy="32.5" r="32.5"/>
		</g>
	</g>
	<g>
		<g>
			<g>
				<path class="st1" d="M30.5,40.6c-0.6,0.6-1.6,1.2-2.8,1.7c-1.2,0.5-2.8,0.8-4.7,0.8c-2.7,0-4.9-0.9-6.6-2.7
					c-1.7-1.8-2.5-4.1-2.5-7v-0.7c0-3,0.8-5.4,2.5-7.3c1.7-1.9,3.8-2.8,6.5-2.8c1.6,0,3,0.2,4.3,0.7c1.3,0.5,2.4,1.2,3.2,2v4h-2.9
					l-0.6-2.7c-0.4-0.3-0.8-0.6-1.4-0.7c-0.6-0.2-1.3-0.3-2.1-0.3c-1.7,0-3.1,0.6-4.1,1.9c-1,1.3-1.4,3-1.4,5v0.7
					c0,2,0.5,3.6,1.4,4.8c0.9,1.2,2.3,1.8,4.1,1.8c0.8,0,1.4-0.1,1.9-0.2c0.5-0.1,0.9-0.3,1.2-0.5V36l-2.8-0.2V33h6.8V40.6z"/>
			</g>
		</g>
		<g>
			<g>
				<path class="st1" d="M50.9,33c0,2.9-0.8,5.3-2.5,7.2c-1.7,1.9-3.8,2.9-6.5,2.9c-2.7,0-4.9-1-6.5-2.9c-1.7-1.9-2.5-4.3-2.5-7.2
					v-0.3c0-2.9,0.8-5.3,2.5-7.2c1.6-1.9,3.8-2.9,6.5-2.9c2.7,0,4.9,1,6.5,2.9c1.7,1.9,2.5,4.3,2.5,7.2V33z M46.9,32.7
					c0-2.1-0.4-3.7-1.3-5c-0.9-1.3-2.1-1.9-3.8-1.9c-1.7,0-2.9,0.6-3.7,1.9c-0.8,1.3-1.2,2.9-1.2,5V33c0,2.1,0.4,3.8,1.2,5.1
					c0.8,1.3,2.1,1.9,3.7,1.9c1.7,0,2.9-0.6,3.8-1.9c0.8-1.3,1.3-3,1.3-5.1V32.7z"/>
			</g>
		</g>
	</g>
</g>
</svg>
