<?xml version="1.0" encoding="utf-8"?>
<!-- Generator: Adobe Illustrator 18.1.1, SVG Export Plug-In . SVG Version: 6.00 Build 0)  -->
<svg version="1.1" id="Layer_1" xmlns="http://www.w3.org/2000/svg" xmlns:xlink="http://www.w3.org/1999/xlink" x="0px" y="0px"
	 viewBox="0 0 82 82" style="enable-background:new 0 0 82 82;" xml:space="preserve">
<style type="text/css">
	.st0{fill:#F46B83;}
	.st1{fill:#C6AF75;}
	.st2{fill:#A17644;}
	.st3{fill:#2AD19D;}
	.st4{fill:#79E2BC;}
	.st5{fill:#34B188;}
	.st6{fill:#FCED5E;}
	.st7{fill:#FDE49C;}
	.st8{fill:#E2CC8A;}
	.st9{fill:#D9C081;}
	.st10{fill:#626366;}
	.st11{fill:#CC486A;}
	.st12{fill:#CE5B79;}
	.st13{fill:#FFFFFF;}
	.st14{fill:#929496;}
	.st15{fill:#626467;}
	.st16{fill:#E6D0B8;}
	.st17{fill:#EE6D83;}
	.st18{fill:#5ABABA;}
	.st19{fill:#DEDEDE;}
	.st20{fill:#D1D3D4;}
	.st21{fill:#16A457;}
	.st22{fill:#58BD98;}
	.st23{fill:#F6899C;}
	.st24{fill:#1A9169;}
	.st25{fill:#AA4660;}
	.st26{fill-rule:evenodd;clip-rule:evenodd;fill:#F46B83;}
	.st27{fill:#EF6B83;}
	.st28{fill:none;stroke:#000000;stroke-miterlimit:10;}
	.st29{fill:#F4879A;}
	.st30{fill:#37CF9D;}
	.st31{fill-rule:evenodd;clip-rule:evenodd;fill:#FFFFFF;}
</style>
<g>
	<path class="st26" d="M15.9,27.7h50.1c2.4,0,4.4-2,4.4-4.4c0-2.4-2-4.4-4.4-4.4H15.9c-2.4,0-4.4,2-4.4,4.4
		C11.5,25.7,13.5,27.7,15.9,27.7z M66.1,54.3H15.9c-2.4,0-4.4,2-4.4,4.4c0,2.4,2,4.4,4.4,4.4h50.1c2.4,0,4.4-2,4.4-4.4
		C70.5,56.2,68.5,54.3,66.1,54.3z M66.1,36.6H15.9c-2.4,0-4.4,2-4.4,4.4c0,2.4,2,4.4,4.4,4.4h50.1c2.4,0,4.4-2,4.4-4.4
		C70.5,38.6,68.5,36.6,66.1,36.6z"/>
</g>
<rect x="-45.2" y="-159.5" class="st28" width="947.6" height="563.9"/>
</svg>
