<?xml version="1.0" encoding="utf-8"?>
<!-- Generator: Adobe Illustrator 18.1.1, SVG Export Plug-In . SVG Version: 6.00 Build 0)  -->
<svg version="1.1" id="Layer_1" xmlns="http://www.w3.org/2000/svg" xmlns:xlink="http://www.w3.org/1999/xlink" x="0px" y="0px"
	 viewBox="0 0 323.3 368.8" style="enable-background:new 0 0 323.3 368.8;" xml:space="preserve">
<style type="text/css">
	.st0{fill:#C6AF75;}
	.st1{fill:#A17644;}
	.st2{fill:#2AD19D;}
	.st3{fill:#79E2BC;}
	.st4{fill:#34B188;}
	.st5{fill:#FCED5E;}
	.st6{fill:#FDE49C;}
	.st7{fill:#E2CC8A;}
	.st8{fill:#D9C081;}
	.st9{fill:#626366;}
	.st10{fill:#F46B83;}
	.st11{fill:#CC486A;}
	.st12{fill:#CE5B79;}
	.st13{fill:#FFFFFF;}
	.st14{fill:#929496;}
	.st15{fill:#626467;}
	.st16{fill:#E6D0B8;}
	.st17{fill:#EE6D83;}
	.st18{fill:#5ABABA;}
	.st19{fill:#DEDEDE;}
	.st20{fill:#D1D3D4;}
	.st21{fill:#16A457;}
	.st22{fill:#58BD98;}
	.st23{fill:#F6899C;}
	.st24{fill:#1A9169;}
	.st25{fill:#AA4660;}
	.st26{fill-rule:evenodd;clip-rule:evenodd;fill:#F46B83;}
	.st27{fill:#EF6B83;}
</style>
<g>
	<g>
		<g>
			<g>
				<path class="st21" d="M230.8,223H92.6c-20.4,0-37.5-7.6-49.6-22.1c-10.5-12.5-16.2-29.4-16.2-47.4c0-35.5,23.1-71.4,67.3-71.4
					H131c5.3,0,9.9,5.9,9.9,5.9s0,2.8,0,4c0,5.5-4.4,10-9.9,10H94.1c-32.6,0-47.5,26.7-47.5,51.5c0,34.2,23.1,49.5,46,49.5h138.2
					c14.3,0,26.2-5.2,34.4-15c7.5-9,11.6-21.2,11.6-34.6c0-24.8-14.9-51.5-47.5-51.5h-36.9c-5.5,0-9.9-4.5-9.9-10c0-1.2,0-4,0-4
					s4.6-5.9,9.9-5.9h36.9c20.7,0,38.2,7.9,50.6,22.8c10.8,13,16.7,30.2,16.7,48.6c0,18-5.8,34.8-16.2,47.4
					C268.3,215.4,251.1,223,230.8,223z"/>
			</g>
		</g>
	</g>
	<g>
		<g>
			<g>
				<path class="st20" d="M95.4,186h14.2c0.5,0,0.8,0.4,0.8,0.8v1.3c0,0.5-0.4,0.8-0.8,0.8H95.4c-0.5,0-0.8-0.4-0.8-0.8v-1.3
					C94.6,186.4,94.9,186,95.4,186z"/>
			</g>
		</g>
		<g>
			<g>
				<ellipse class="st20" cx="95.2" cy="187.5" rx="5.6" ry="1.5"/>
			</g>
		</g>
	</g>
	<g>
		<g>
			<rect x="106.9" y="139.3" class="st1" width="3.7" height="49.6"/>
		</g>
	</g>
	<g>
		<g>
			<path class="st2" d="M109,170.4c0,0-13.2,0.1-13.2-15.9c0-13,13.2-42.3,13.2-42.3s13.2,29.3,13.2,42.3
				C122.2,170.5,109,170.4,109,170.4z"/>
		</g>
	</g>
	<g>
		<g>
			<path class="st3" d="M109,112.2v58.2c0,0,13.2,0.1,13.2-15.9C122.2,141.5,109,112.2,109,112.2z"/>
		</g>
	</g>
	<g>
		<g>
			<g>
				<path class="st20" d="M147,186h14.2c0.5,0,0.8,0.4,0.8,0.8v1.3c0,0.5-0.4,0.8-0.8,0.8H147c-0.5,0-0.8-0.4-0.8-0.8v-1.3
					C146.2,186.4,146.6,186,147,186z"/>
			</g>
		</g>
		<g>
			<g>
				<ellipse class="st20" cx="146.9" cy="187.5" rx="5.6" ry="1.5"/>
			</g>
		</g>
	</g>
	<g>
		<g>
			<rect x="158.6" y="139.3" class="st1" width="3.7" height="49.6"/>
		</g>
	</g>
	<g>
		<g>
			<path class="st2" d="M160.6,170.4c0,0-13.2,0.1-13.2-15.9c0-13,13.2-42.3,13.2-42.3s13.2,29.3,13.2,42.3
				C173.8,170.5,160.6,170.4,160.6,170.4z"/>
		</g>
	</g>
	<g>
		<g>
			<path class="st3" d="M160.6,112.2v58.2c0,0,13.2,0.1,13.2-15.9C173.8,141.5,160.6,112.2,160.6,112.2z"/>
		</g>
	</g>
	<g>
		<g>
			<g>
				<path class="st20" d="M198.9,186h14.2c0.5,0,0.8,0.4,0.8,0.8v1.3c0,0.5-0.4,0.8-0.8,0.8h-14.2c-0.5,0-0.8-0.4-0.8-0.8v-1.3
					C198,186.4,198.4,186,198.9,186z"/>
			</g>
		</g>
		<g>
			<g>
				<ellipse class="st20" cx="198.7" cy="187.5" rx="5.6" ry="1.5"/>
			</g>
		</g>
	</g>
	<g>
		<g>
			<rect x="210.4" y="139.3" class="st1" width="3.7" height="49.6"/>
		</g>
	</g>
	<g>
		<g>
			<path class="st2" d="M212.4,170.4c0,0-13.2,0.1-13.2-15.9c0-13,13.2-42.3,13.2-42.3s13.2,29.3,13.2,42.3
				C225.6,170.5,212.4,170.4,212.4,170.4z"/>
		</g>
	</g>
	<g>
		<g>
			<path class="st3" d="M212.4,112.2v58.2c0,0,13.2,0.1,13.2-15.9C225.6,141.5,212.4,112.2,212.4,112.2z"/>
		</g>
	</g>
	<g>
		<g>
			<g>
				<path class="st14" d="M46.6,286.1l2.4-0.5V274l-2.6-0.5v-3h7.3l0.2,2.7c0.6-1,1.4-1.7,2.3-2.2c0.9-0.5,1.9-0.8,3-0.8
					c1.9,0,3.3,0.6,4.4,1.8c1,1.2,1.6,3,1.6,5.5v8.1l2.4,0.5v3H58v-3l2.1-0.5v-8.1c0-1.2-0.3-2.1-0.8-2.7c-0.5-0.5-1.3-0.8-2.3-0.8
					c-0.7,0-1.3,0.1-1.8,0.4c-0.5,0.3-1,0.6-1.3,1.1v10l2,0.5v3h-9.4V286.1z"/>
			</g>
		</g>
		<g>
			<g>
				<path class="st14" d="M69,279.6c0-2.8,0.8-5,2.3-6.8c1.5-1.8,3.7-2.7,6.4-2.7c2.7,0,4.9,0.9,6.4,2.6c1.5,1.8,2.3,4,2.3,6.8v0.4
					c0,2.8-0.8,5.1-2.3,6.8c-1.5,1.8-3.7,2.6-6.4,2.6c-2.7,0-4.9-0.9-6.4-2.6c-1.5-1.8-2.3-4-2.3-6.8V279.6z M73.9,280
					c0,1.7,0.3,3.1,0.9,4.1c0.6,1,1.5,1.5,2.9,1.5c1.3,0,2.2-0.5,2.8-1.5c0.6-1,0.9-2.4,0.9-4.1v-0.4c0-1.6-0.3-3-0.9-4
					c-0.6-1-1.6-1.6-2.9-1.6s-2.2,0.5-2.8,1.6c-0.6,1-0.9,2.4-0.9,4V280z"/>
			</g>
		</g>
		<g>
			<g>
				<path class="st14" d="M114.9,273.5l-1.9,0.2l-3.9,15.3H105l-3.4-11.1h-0.1l-3.4,11.1h-4.2L90,273.8l-1.9-0.2v-3h8.4v3l-2,0.4
					l1.7,8.5h0.1l3.5-11.9h3.3l3.5,11.9h0.1l1.7-8.5l-2-0.4v-3h8.4V273.5z"/>
			</g>
		</g>
		<g>
			<g>
				<path class="st14" d="M116.4,286.1l2.4-0.5v-19.7l-2.7-0.5v-3h7.6v10.6c0.6-0.9,1.3-1.5,2.1-2c0.8-0.5,1.8-0.7,2.8-0.7
					c1.9,0,3.5,0.6,4.6,1.9c1.1,1.3,1.6,3.3,1.6,6v7.5l2.4,0.5v3h-9.5v-3l2.2-0.5V278c0-1.4-0.3-2.5-0.8-3.1
					c-0.5-0.6-1.3-0.9-2.3-0.9c-0.7,0-1.3,0.1-1.8,0.4c-0.5,0.3-1,0.6-1.3,1.1v10.1l2.2,0.5v3h-9.5V286.1z"/>
			</g>
		</g>
		<g>
			<g>
				<path class="st14" d="M147.6,289.4c-2.7,0-4.8-0.9-6.4-2.6c-1.6-1.7-2.4-3.9-2.4-6.5v-0.7c0-2.8,0.8-5,2.3-6.8
					c1.5-1.8,3.5-2.7,6.1-2.7c2.5,0,4.4,0.8,5.8,2.3c1.4,1.5,2.1,3.6,2.1,6.1v2.7h-11l0,0.1c0.1,1.2,0.5,2.2,1.2,3
					c0.7,0.8,1.7,1.2,2.9,1.2c1.1,0,2-0.1,2.8-0.3c0.7-0.2,1.5-0.6,2.4-1.1l1.3,3.1c-0.8,0.6-1.8,1.1-3,1.5
					C150.4,289.2,149.1,289.4,147.6,289.4z M147.1,274c-0.9,0-1.7,0.4-2.2,1.1c-0.5,0.7-0.9,1.6-1,2.8l0.1,0.1h6.1v-0.4
					c0-1.1-0.2-1.9-0.7-2.5C148.9,274.3,148.1,274,147.1,274z"/>
			</g>
		</g>
		<g>
			<g>
				<path class="st14" d="M157.7,286.1l2.4-0.5V274l-2.6-0.5v-3h7.3l0.2,2.7c0.4-1,1-1.7,1.7-2.2s1.5-0.8,2.4-0.8
					c0.3,0,0.5,0,0.8,0.1c0.3,0,0.5,0.1,0.7,0.1l-0.5,4.6l-2.1-0.1c-0.7,0-1.3,0.1-1.8,0.4s-0.8,0.7-1.1,1.2v9l2.4,0.5v3h-9.8V286.1
					z"/>
			</g>
		</g>
		<g>
			<g>
				<path class="st14" d="M180.6,289.4c-2.7,0-4.8-0.9-6.4-2.6c-1.6-1.7-2.4-3.9-2.4-6.5v-0.7c0-2.8,0.8-5,2.3-6.8
					c1.5-1.8,3.5-2.7,6.1-2.7c2.5,0,4.4,0.8,5.8,2.3c1.4,1.5,2.1,3.6,2.1,6.1v2.7h-11l0,0.1c0.1,1.2,0.5,2.2,1.2,3
					c0.7,0.8,1.7,1.2,2.9,1.2c1.1,0,2-0.1,2.8-0.3c0.7-0.2,1.5-0.6,2.4-1.1l1.3,3.1c-0.8,0.6-1.8,1.1-3,1.5
					C183.5,289.2,182.1,289.4,180.6,289.4z M180.2,274c-0.9,0-1.7,0.4-2.2,1.1c-0.5,0.7-0.9,1.6-1,2.8l0.1,0.1h6.1v-0.4
					c0-1.1-0.2-1.9-0.7-2.5C181.9,274.3,181.2,274,180.2,274z"/>
			</g>
		</g>
		<g>
			<g>
				<path class="st14" d="M206.4,266v4.5h3.2v3.5h-3.2v9.5c0,0.7,0.1,1.2,0.4,1.5c0.3,0.3,0.7,0.5,1.2,0.5c0.3,0,0.6,0,0.9,0
					c0.3,0,0.5-0.1,0.9-0.1l0.4,3.6c-0.6,0.2-1.1,0.3-1.7,0.4s-1.1,0.1-1.8,0.1c-1.7,0-3-0.5-4-1.4c-0.9-1-1.4-2.5-1.4-4.5V274h-2.7
					v-3.5h2.7V266H206.4z"/>
			</g>
		</g>
		<g>
			<g>
				<path class="st14" d="M211.5,279.6c0-2.8,0.8-5,2.3-6.8c1.5-1.8,3.7-2.7,6.4-2.7c2.7,0,4.9,0.9,6.4,2.6c1.5,1.8,2.3,4,2.3,6.8
					v0.4c0,2.8-0.8,5.1-2.3,6.8c-1.5,1.8-3.7,2.6-6.4,2.6c-2.7,0-4.9-0.9-6.4-2.6c-1.5-1.8-2.3-4-2.3-6.8V279.6z M216.5,280
					c0,1.7,0.3,3.1,0.9,4.1c0.6,1,1.5,1.5,2.9,1.5c1.3,0,2.2-0.5,2.8-1.5c0.6-1,0.9-2.4,0.9-4.1v-0.4c0-1.6-0.3-3-0.9-4
					c-0.6-1-1.6-1.6-2.9-1.6s-2.2,0.5-2.8,1.6c-0.6,1-0.9,2.4-0.9,4V280z"/>
			</g>
		</g>
		<g>
			<g>
				<path class="st14" d="M257.6,280.3c0,2.8-0.6,5-1.8,6.6s-3,2.5-5.3,2.5c-1.1,0-2-0.2-2.8-0.7c-0.8-0.5-1.5-1.1-2-2l-0.4,2.3
					h-4.3v-23.2l-2.6-0.5v-3h7.6v10.2c0.5-0.7,1.2-1.3,1.9-1.7c0.7-0.4,1.6-0.6,2.6-0.6c2.3,0,4.1,0.9,5.4,2.7
					c1.2,1.8,1.8,4.2,1.8,7.1V280.3z M252.6,279.9c0-1.8-0.3-3.2-0.8-4.3c-0.5-1.1-1.4-1.6-2.7-1.6c-0.8,0-1.4,0.2-2,0.5
					c-0.5,0.3-1,0.8-1.3,1.4v7.8c0.3,0.6,0.7,1,1.3,1.3c0.5,0.3,1.2,0.4,2,0.4c1.3,0,2.2-0.5,2.7-1.4c0.5-0.9,0.8-2.2,0.8-3.9V279.9
					z"/>
			</g>
		</g>
		<g>
			<g>
				<path class="st14" d="M268.8,289.4c-2.7,0-4.8-0.9-6.4-2.6c-1.6-1.7-2.4-3.9-2.4-6.5v-0.7c0-2.8,0.8-5,2.3-6.8
					c1.5-1.8,3.5-2.7,6.1-2.7c2.5,0,4.4,0.8,5.8,2.3c1.4,1.5,2.1,3.6,2.1,6.1v2.7h-11l0,0.1c0.1,1.2,0.5,2.2,1.2,3
					c0.7,0.8,1.7,1.2,2.9,1.2c1.1,0,2-0.1,2.8-0.3c0.7-0.2,1.5-0.6,2.4-1.1l1.3,3.1c-0.8,0.6-1.8,1.1-3,1.5
					C271.6,289.2,270.3,289.4,268.8,289.4z M268.3,274c-0.9,0-1.7,0.4-2.2,1.1c-0.5,0.7-0.9,1.6-1,2.8l0.1,0.1h6.1v-0.4
					c0-1.1-0.2-1.9-0.7-2.5C270.1,274.3,269.3,274,268.3,274z"/>
			</g>
		</g>
		<g>
			<g>
				<path class="st14" d="M116.2,310c-0.3-0.1-0.7-0.1-1.1-0.1c-1.5,0-2.5,0.6-3,1.9v9.4h-2.3V308h2.2l0,1.5
					c0.7-1.2,1.8-1.8,3.1-1.8c0.4,0,0.8,0.1,1,0.2V310z"/>
			</g>
		</g>
		<g>
			<g>
				<path class="st14" d="M117.5,314.5c0-1.3,0.3-2.5,0.8-3.5c0.5-1,1.2-1.8,2.1-2.4c0.9-0.6,1.9-0.8,3.1-0.8c1.8,0,3.3,0.6,4.4,1.9
					c1.1,1.3,1.7,2.9,1.7,5v0.2c0,1.3-0.2,2.5-0.7,3.5c-0.5,1-1.2,1.8-2.1,2.4c-0.9,0.6-2,0.9-3.2,0.9c-1.8,0-3.2-0.6-4.4-1.9
					c-1.1-1.3-1.7-2.9-1.7-5V314.5z M119.7,314.7c0,1.5,0.3,2.7,1,3.5s1.6,1.3,2.7,1.3c1.1,0,2.1-0.5,2.7-1.4s1-2.2,1-3.8
					c0-1.5-0.3-2.6-1-3.5s-1.6-1.4-2.7-1.4c-1.1,0-2,0.4-2.7,1.3C120.1,311.8,119.7,313.1,119.7,314.7z"/>
			</g>
		</g>
		<g>
			<g>
				<path class="st14" d="M140.5,319.9c-0.9,1-2.2,1.6-3.9,1.6c-1.4,0-2.5-0.4-3.2-1.2c-0.7-0.8-1.1-2-1.1-3.6V308h2.3v8.6
					c0,2,0.8,3,2.4,3c1.7,0,2.9-0.6,3.4-1.9V308h2.3v13.3h-2.1L140.5,319.9z"/>
			</g>
		</g>
		<g>
			<g>
				<path class="st14" d="M148.2,308l0.1,1.7c1-1.3,2.3-1.9,4-1.9c2.8,0,4.2,1.6,4.2,4.7v8.8h-2.3v-8.8c0-1-0.2-1.7-0.7-2.1
					c-0.4-0.5-1.1-0.7-2-0.7c-0.7,0-1.4,0.2-1.9,0.6c-0.6,0.4-1,0.9-1.3,1.5v9.5h-2.3V308H148.2z"/>
			</g>
		</g>
		<g>
			<g>
				<path class="st14" d="M159.3,314.5c0-2,0.5-3.7,1.4-4.9c1-1.2,2.2-1.9,3.8-1.9c1.5,0,2.8,0.5,3.7,1.6v-6.9h2.3v18.8h-2.1
					l-0.1-1.4c-0.9,1.1-2.2,1.7-3.8,1.7c-1.5,0-2.8-0.6-3.7-1.9c-1-1.3-1.4-2.9-1.4-4.9V314.5z M161.6,314.7c0,1.5,0.3,2.7,0.9,3.5
					c0.6,0.9,1.5,1.3,2.6,1.3c1.4,0,2.5-0.6,3.1-1.9v-6.1c-0.7-1.3-1.7-1.9-3.1-1.9c-1.1,0-2,0.4-2.6,1.3S161.6,313.1,161.6,314.7z"
					/>
			</g>
		</g>
		<g>
			<g>
				<path class="st14" d="M183.2,304.7v3.2h2.5v1.8h-2.5v8.2c0,0.5,0.1,0.9,0.3,1.2s0.6,0.4,1.1,0.4c0.3,0,0.6,0,1.1-0.1v1.8
					c-0.6,0.2-1.2,0.2-1.7,0.2c-1,0-1.8-0.3-2.3-0.9c-0.5-0.6-0.8-1.5-0.8-2.6v-8.2h-2.4V308h2.4v-3.2H183.2z"/>
			</g>
		</g>
		<g>
			<g>
				<path class="st14" d="M194.7,310c-0.3-0.1-0.7-0.1-1.1-0.1c-1.5,0-2.5,0.6-3,1.9v9.4h-2.3V308h2.2l0,1.5
					c0.7-1.2,1.8-1.8,3.1-1.8c0.4,0,0.8,0.1,1,0.2V310z"/>
			</g>
		</g>
		<g>
			<g>
				<path class="st14" d="M196.8,304.4c0-0.4,0.1-0.7,0.3-0.9c0.2-0.3,0.6-0.4,1-0.4s0.8,0.1,1,0.4c0.2,0.3,0.3,0.6,0.3,0.9
					s-0.1,0.7-0.3,0.9s-0.6,0.4-1,0.4s-0.8-0.1-1-0.4S196.8,304.8,196.8,304.4z M199.3,321.2H197V308h2.3V321.2z"/>
			</g>
		</g>
		<g>
			<g>
				<path class="st14" d="M214,314.7c0,2-0.5,3.6-1.4,4.9c-0.9,1.2-2.2,1.9-3.7,1.9c-1.6,0-2.9-0.5-3.8-1.5v6.4h-2.3V308h2.1
					l0.1,1.5c0.9-1.1,2.2-1.7,3.8-1.7c1.6,0,2.8,0.6,3.8,1.8c0.9,1.2,1.4,2.9,1.4,5V314.7z M211.8,314.5c0-1.5-0.3-2.7-1-3.5
					c-0.6-0.9-1.5-1.3-2.6-1.3c-1.4,0-2.4,0.6-3.1,1.8v6.3c0.7,1.2,1.7,1.8,3.1,1.8c1.1,0,1.9-0.4,2.6-1.3S211.8,316.2,211.8,314.5z
					"/>
			</g>
		</g>
	</g>
	<g>
		<g>
			<path class="st10" d="M183.4,44.4c0,12.4-22.4,43.7-22.4,43.7s-22.4-31.2-22.4-43.7s10-22.5,22.4-22.5
				C173.4,21.9,183.4,32,183.4,44.4z"/>
		</g>
	</g>
	<g>
		<g>
			<ellipse class="st13" cx="161" cy="45.5" rx="11.3" ry="11.3"/>
		</g>
	</g>
	<g>
		<g>
			<path class="st2" d="M230.8,218.9H92.6c-20.4,0-37.5-7.6-49.6-22.1c-10.5-12.5-16.2-29.3-16.2-47.3c0-35.5,23.1-71.4,67.3-71.4
				H131c5.5,0,9.9,4.4,9.9,9.9c0,5.5-4.4,9.9-9.9,9.9H94.1c-32.6,0-47.5,26.7-47.5,51.5c0,34.2,23.1,49.5,46,49.5h138.2
				c14.3,0,26.2-5.2,34.3-15c7.5-9,11.6-21.2,11.6-34.6c0-24.8-14.9-51.5-47.5-51.5h-36.9c-5.5,0-9.9-4.4-9.9-9.9
				c0-5.5,4.4-9.9,9.9-9.9h36.9c20.7,0,38.2,7.9,50.6,22.9c10.8,13,16.7,30.2,16.7,48.5c0,18-5.8,34.8-16.2,47.3
				C268.3,211.3,251.2,218.9,230.8,218.9z"/>
		</g>
	</g>
	<g>
		<g>
			<rect x="100.7" y="218.9" class="st21" width="18.5" height="4.2"/>
		</g>
	</g>
</g>
</svg>
