<?xml version="1.0" encoding="utf-8"?>
<!-- Generator: Adobe Illustrator 18.1.1, SVG Export Plug-In . SVG Version: 6.00 Build 0)  -->
<svg version="1.1" id="Layer_1" xmlns="http://www.w3.org/2000/svg" xmlns:xlink="http://www.w3.org/1999/xlink" x="0px" y="0px"
	 viewBox="0 0 54 54" style="enable-background:new 0 0 54 54;" xml:space="preserve">
<style type="text/css">
	.st0{fill:#F46B83;}
	.st1{fill:#C6AF75;}
	.st2{fill:#A17644;}
	.st3{fill:#2AD19D;}
	.st4{fill:#79E2BC;}
	.st5{fill:#34B188;}
	.st6{fill:#FCED5E;}
	.st7{fill:#FDE49C;}
	.st8{fill:#E2CC8A;}
	.st9{fill:#D9C081;}
	.st10{fill:#626366;}
	.st11{fill:#CC486A;}
	.st12{fill:#CE5B79;}
	.st13{fill:#FFFFFF;}
	.st14{fill:#929496;}
	.st15{fill:#626467;}
	.st16{fill:#E6D0B8;}
	.st17{fill:#EE6D83;}
	.st18{fill:#5ABABA;}
	.st19{fill:#DEDEDE;}
	.st20{fill:#D1D3D4;}
	.st21{fill:#16A457;}
	.st22{fill:#58BD98;}
	.st23{fill:#F6899C;}
	.st24{fill:#1A9169;}
	.st25{fill:#AA4660;}
	.st26{fill-rule:evenodd;clip-rule:evenodd;fill:#F46B83;}
	.st27{fill:#EF6B83;}
	.st28{fill:none;stroke:#000000;stroke-miterlimit:10;}
	.st29{fill:#F4879A;}
	.st30{fill:#37CF9D;}
	.st31{fill-rule:evenodd;clip-rule:evenodd;fill:#FFFFFF;}
</style>
<g>
	<path class="st22" d="M38.6,39.2H15.4C7,39.2,1.9,35,1.9,27.9c0-4.9,2.3-10.8,13.4-10.8h23.3c11.2,0,13.5,5.9,13.5,10.8
		C52.1,35,47,39.2,38.6,39.2z M15.4,21.6c-6.3,0-9,1.9-9,6.3c0,4.5,3,6.8,9,6.8h23.2c6,0,9-2.3,9-6.8c0-4.4-2.7-6.3-8.9-6.3H15.4z"
		/>
</g>
<rect x="-1827.2" y="-140.2" class="st28" width="2853.9" height="647.9"/>
</svg>
