<?xml version="1.0" encoding="utf-8"?>
<!-- Generator: Adobe Illustrator 18.1.1, SVG Export Plug-In . SVG Version: 6.00 Build 0)  -->
<svg version="1.1" id="Layer_1" xmlns="http://www.w3.org/2000/svg" xmlns:xlink="http://www.w3.org/1999/xlink" x="0px" y="0px"
	 viewBox="0 0 323.3 323.3" style="enable-background:new 0 0 323.3 323.3;" xml:space="preserve">
<style type="text/css">
	.st0{fill:#C6AF76;}
	.st1{fill:none;stroke:#A17644;stroke-width:3.3156;stroke-miterlimit:10;}
	.st2{fill:#51BC96;}
	.st3{fill:#88CCB3;}
	.st4{fill:#34B188;}
	.st5{fill:#FBEC60;}
	.st6{fill:#FCE49B;}
	.st7{fill:#E3CD8A;}
	.st8{fill:#D9C080;}
	.st9{fill:none;stroke:#636467;stroke-width:10.5772;stroke-miterlimit:10;}
	.st10{fill:none;stroke:#EF6B83;stroke-width:8.9907;stroke-linejoin:round;stroke-miterlimit:10;}
	.st11{fill:none;stroke:#EF6B83;stroke-width:8.9907;stroke-linecap:round;stroke-miterlimit:10;}
	.st12{fill:#CC496B;}
	.st13{fill:#EF6B83;}
	.st14{fill:none;stroke:#CF5C7A;stroke-width:4.9592;stroke-linecap:round;stroke-miterlimit:10;}
	.st15{fill:#636467;}
	.st16{fill:#FFFFFF;stroke:#636467;stroke-width:7.1491;stroke-linecap:round;stroke-miterlimit:10;}
	.st17{fill:none;stroke:#A17644;stroke-width:3.2757;stroke-miterlimit:10;}
	.st18{fill:#626568;}
	.st19{fill:#E7D1B9;}
	.st20{fill:#ED6E83;}
	.st21{fill:#5BBBBB;}
	.st22{fill:#DFDFDE;}
	.st23{opacity:0.5;}
	.st24{fill:#D2D3D4;}
	.st25{fill:none;stroke:#A17644;stroke-width:3.6673;stroke-miterlimit:10;}
	.st26{fill:#FFFFFF;}
	.st27{fill:#16A457;}
	.st28{fill:none;stroke:#51BC96;stroke-width:20.1693;stroke-linecap:round;stroke-miterlimit:10;}
	.st29{fill:none;stroke:#51BC96;stroke-width:19.8239;stroke-linecap:round;stroke-miterlimit:10;}
	.st30{fill-rule:evenodd;clip-rule:evenodd;fill:#EF6B83;}
	.st31{fill:none;stroke:#59BE99;stroke-width:3.5;stroke-miterlimit:10;}
	.st32{fill:none;stroke:#59BE99;stroke-width:3.5;stroke-linecap:round;stroke-miterlimit:10;}
	.st33{fill:#FFFFFF;stroke:#59BE99;stroke-width:3.5;stroke-linecap:round;stroke-miterlimit:10;}
	.st34{fill:none;stroke:#59BE99;stroke-width:4.5;stroke-linecap:round;stroke-miterlimit:10;}
	.st35{fill:#59BE99;}
	.st36{fill:none;stroke:#59BE99;stroke-width:4.5;stroke-linecap:round;stroke-linejoin:round;stroke-miterlimit:10;}
	.st37{opacity:0.8;fill:#EF6B83;}
	.st38{opacity:0.8;fill:none;stroke:#EF6C84;stroke-width:5;stroke-linecap:round;stroke-miterlimit:10;}
</style>
<g>
	<path class="st27" d="M230.8,262.9H92.6c-20.4,0-37.5-7.6-49.6-22c-10.5-12.5-16.2-29.2-16.2-47.1c0-35.3,23.1-71.1,67.3-71.1H131
		c5.3,0,9.9,5.9,9.9,5.9s0,2.8,0,4c0,5.5-4.4,9.9-9.9,9.9H94.1c-32.6,0-47.5,26.6-47.5,51.3c0,34.1,23.1,49.3,46,49.3h138.2
		c14.3,0,26.2-5.2,34.4-14.9c7.5-8.9,11.6-21.1,11.6-34.4c0-24.7-14.9-51.3-47.5-51.3h-36.9c-5.5,0-9.9-4.4-9.9-9.9c0-1.2,0-4,0-4
		s4.6-5.9,9.9-5.9h36.9c20.7,0,38.2,7.9,50.6,22.7c10.8,12.9,16.7,30.1,16.7,48.3c0,17.9-5.8,34.7-16.2,47.1
		C268.3,255.3,251.1,262.9,230.8,262.9z"/>
</g>
<g>
	<path class="st24" d="M95.4,226.1h14.2c0.5,0,0.8,0.4,0.8,0.8v1.2c0,0.5-0.4,0.8-0.8,0.8H95.4c-0.5,0-0.8-0.4-0.8-0.8v-1.2
		C94.6,226.5,94.9,226.1,95.4,226.1z"/>
	<ellipse class="st24" cx="95.2" cy="227.6" rx="5.6" ry="1.5"/>
</g>
<line class="st25" x1="108.8" y1="179.7" x2="108.8" y2="229"/>
<path class="st2" d="M109,210.6c0,0-13.2,0.1-13.2-15.9c0-12.9,13.2-42.1,13.2-42.1s13.2,29.2,13.2,42.1
	C122.2,210.7,109,210.6,109,210.6z"/>
<path class="st3" d="M109,152.6v58c0,0,13.2,0.1,13.2-15.9C122.2,181.8,109,152.6,109,152.6z"/>
<g>
	<path class="st24" d="M147,226.1h14.2c0.5,0,0.8,0.4,0.8,0.8v1.2c0,0.5-0.4,0.8-0.8,0.8H147c-0.5,0-0.8-0.4-0.8-0.8v-1.2
		C146.2,226.5,146.6,226.1,147,226.1z"/>
	<ellipse class="st24" cx="146.9" cy="227.6" rx="5.6" ry="1.5"/>
</g>
<line class="st25" x1="160.4" y1="179.7" x2="160.4" y2="229"/>
<path class="st2" d="M160.6,210.6c0,0-13.2,0.1-13.2-15.9c0-12.9,13.2-42.1,13.2-42.1s13.2,29.2,13.2,42.1
	C173.8,210.7,160.6,210.6,160.6,210.6z"/>
<path class="st3" d="M160.6,152.6v58c0,0,13.2,0.1,13.2-15.9C173.8,181.8,160.6,152.6,160.6,152.6z"/>
<g>
	<path class="st24" d="M198.9,226.1h14.2c0.5,0,0.8,0.4,0.8,0.8v1.2c0,0.5-0.4,0.8-0.8,0.8h-14.2c-0.5,0-0.8-0.4-0.8-0.8v-1.2
		C198,226.5,198.4,226.1,198.9,226.1z"/>
	<ellipse class="st24" cx="198.7" cy="227.6" rx="5.6" ry="1.5"/>
</g>
<line class="st25" x1="212.2" y1="179.7" x2="212.2" y2="229"/>
<path class="st2" d="M212.4,210.6c0,0-13.2,0.1-13.2-15.9c0-12.9,13.2-42.1,13.2-42.1s13.2,29.2,13.2,42.1
	C225.6,210.7,212.4,210.6,212.4,210.6z"/>
<path class="st3" d="M212.4,152.6v58c0,0,13.2,0.1,13.2-15.9C225.6,181.8,212.4,152.6,212.4,152.6z"/>
<path class="st13" d="M183.4,85.2c0,12.4-22.4,43.5-22.4,43.5s-22.4-31.1-22.4-43.5s10-22.4,22.4-22.4
	C173.4,62.8,183.4,72.8,183.4,85.2z"/>
<circle class="st26" cx="161" cy="86.2" r="11.3"/>
<path class="st29" d="M192.3,128.6c0,0,12.9,0,36.9,0c75.4,0,77.2,120.4,1.5,120.4c-12.1,0-40.6,0-69.1,0s-57,0-69.1,0
	c-75.7,0-73.9-120.4,1.5-120.4c24.1,0,36.9,0,36.9,0"/>
</svg>
