<?xml version="1.0" encoding="utf-8"?>
<!-- Generator: Adobe Illustrator 18.1.1, SVG Export Plug-In . SVG Version: 6.00 Build 0)  -->
<svg version="1.1" id="Layer_1" xmlns="http://www.w3.org/2000/svg" xmlns:xlink="http://www.w3.org/1999/xlink" x="0px" y="0px"
	 viewBox="0 0 337.9 217.9" style="enable-background:new 0 0 337.9 217.9;" xml:space="preserve">
<style type="text/css">
	.st0{fill:#58BD98;}
	.st1{fill:#FFFFFF;}
	.st2{fill:#F6899C;}
	.st3{fill:#2AD19D;}
	.st4{fill:#F46B83;}
	.st5{fill:#1A9169;}
	.st6{fill:#17916A;}
	.st7{fill:#AA4660;}
	.st8{fill:#3A5D87;}
	.st9{fill:#527EBB;}
	.st10{fill:#D82908;}
	.st11{fill:#E85749;}
	.st12{fill:#C6AF75;}
	.st13{fill:none;stroke:#A17644;stroke-width:3.3156;stroke-miterlimit:10;}
	.st14{fill:#79E2BC;}
	.st15{fill:#34B188;}
	.st16{fill:#FCED5E;}
	.st17{fill:#FDE49C;}
	.st18{fill:#E2CC8A;}
	.st19{fill:#D9C081;}
	.st20{fill:none;stroke:#626366;stroke-width:10.5772;stroke-miterlimit:10;}
	.st21{fill:none;stroke:#F46B83;stroke-width:8.9907;stroke-linejoin:round;stroke-miterlimit:10;}
	.st22{fill:none;stroke:#F46B83;stroke-width:8.9907;stroke-linecap:round;stroke-miterlimit:10;}
	.st23{fill:#CC486A;}
	.st24{fill:none;stroke:#CE5B79;stroke-width:4.9592;stroke-linecap:round;stroke-miterlimit:10;}
	.st25{fill:#626366;}
	.st26{fill:#FFFFFF;stroke:#626366;stroke-width:7.1491;stroke-linecap:round;stroke-miterlimit:10;}
	.st27{fill:#939598;}
	.st28{fill:#A17644;}
	.st29{fill:#626467;}
	.st30{fill:#E6D0B8;}
	.st31{fill:#EE6D83;}
	.st32{fill:#5ABABA;}
	.st33{fill:#DEDEDE;}
	.st34{fill:#D1D3D4;}
	.st35{fill:none;stroke:#A17644;stroke-width:3.6673;stroke-miterlimit:10;}
	.st36{fill:#16A457;}
	.st37{fill:none;stroke:#2AD19D;stroke-width:20.1693;stroke-linecap:round;stroke-miterlimit:10;}
	.st38{fill:#929496;}
	.st39{fill:none;stroke:#2AD19D;stroke-width:19.8239;stroke-linecap:round;stroke-miterlimit:10;}
	.st40{fill:#EE6B82;}
	.st41{fill:none;stroke:#F46B83;stroke-width:7;stroke-linecap:round;stroke-miterlimit:10;}
	.st42{fill:#F66981;}
	.st43{fill:#16D19B;}
	.st44{fill:#24A45A;}
	.st45{opacity:0.21;fill:#231F20;}
	.st46{fill-rule:evenodd;clip-rule:evenodd;fill:#FFFFFF;}
	.st47{fill:#F16D83;}
	.st48{fill-rule:evenodd;clip-rule:evenodd;fill:#F56980;}
	.st49{fill:#CCCCCC;}
	.st50{fill:#F36D85;}
	.st51{fill:none;stroke:#F36D85;stroke-width:10.3615;stroke-linecap:round;stroke-linejoin:round;stroke-miterlimit:10;}
	.st52{fill:#F4A6B7;}
	.st53{fill:#CBCBCB;}
	.st54{fill:#F06E85;}
	.st55{fill:#909294;}
	.st56{fill:#F56980;}
	.st57{opacity:0.3;}
	.st58{fill:#E2F2EB;}
	.st59{fill:#BC4D65;}
	.st60{fill:#933850;}
	.st61{fill:none;stroke:#929496;stroke-width:2.3266;stroke-linecap:round;stroke-miterlimit:10;stroke-dasharray:4.0716,11.6331;}
	.st62{fill:none;stroke:#F46B83;stroke-width:3.4899;stroke-miterlimit:10;}
</style>
<g>
	<g>
		<g>
			
				<ellipse transform="matrix(-0.165 0.9863 -0.9863 -0.165 233.0396 -136.9475)" class="st4" cx="174.5" cy="30.2" rx="15.8" ry="13.1"/>
			
				<ellipse transform="matrix(0.9982 5.998912e-02 -5.998912e-02 0.9982 3.5074 -11.4483)" class="st4" cx="192.4" cy="52.7" rx="15.8" ry="13.1"/>
			
				<ellipse transform="matrix(-0.2016 0.9795 -0.9795 -0.2016 267.4239 -92.957)" class="st4" cx="171.6" cy="62.5" rx="10.1" ry="8.4"/>
			
				<ellipse transform="matrix(0.9997 2.279850e-02 -2.279850e-02 0.9997 1.1514 -3.6482)" class="st4" cx="160.6" cy="48.7" rx="10.1" ry="8.4"/>
			
				<rect x="163.7" y="41.8" transform="matrix(-0.7823 0.6229 -0.6229 -0.7823 339.2507 -19.8682)" class="st4" width="18.7" height="15.1"/>
			
				<ellipse transform="matrix(-0.165 0.9863 -0.9863 -0.165 235.5134 -132.847)" class="st59" cx="174" cy="33.3" rx="10.1" ry="6.8"/>
			
				<ellipse transform="matrix(-0.9982 -5.998909e-02 5.998909e-02 -0.9982 376.116 117.593)" class="st59" cx="189.8" cy="53.2" rx="10.1" ry="6.8"/>
			<ellipse transform="matrix(0.165 -0.9863 0.9863 0.165 81.7674 221.5575)" class="st59" cx="171.7" cy="62.5" rx="5.9" ry="4"/>
			
				<ellipse transform="matrix(-0.9982 -5.998909e-02 5.998909e-02 -0.9982 317.9189 106.4455)" class="st59" cx="160.6" cy="48.5" rx="5.9" ry="4"/>
			<path class="st60" d="M161.3,59.4L161.3,59.4c0.9,1.1,2.5,1.3,3.7,0.4l18.5-14.7c1.1-0.9,1.3-2.5,0.4-3.6l0,0
				c-0.9-1.1-2.5-1.3-3.7-0.4l-18.5,14.7C160.6,56.6,160.4,58.3,161.3,59.4z"/>
		</g>
		<path class="st61" d="M75.8,21.8c5.6-7.1,13.6-11.9,22.8-8.1c7.6,3.2,12.5,11.1,13.7,19.2c1.1,8.2-1,16.5-4.4,24
			C99.7,75,86.8,90,83.7,110.4c-1.2,8.3-0.6,17,3.2,24.4c8.8,17.3,32.3,22,49.5,14.7c8.8-3.7,15.9-10.6,18.5-20
			c4.2-15.4-3.3-21.3-10.4-33.5c-7.6-13.1,4.2-25.7,12.1-32.3"/>
		<g>
			<path class="st4" d="M244.8,126.7l-35.3-44.1c-0.1-0.1-0.2-0.2-0.2-0.3c-2.7,2.8-5.8,5.2-9,7.3c0.1,0.1,0.1,0.2,0.2,0.3
				l35.3,44.1c1,1.3,2.5,2,4.1,2.2c1.4,0.1,2.9-0.3,4.1-1.3C246.4,132.9,246.8,129.2,244.8,126.7z"/>
		</g>
		<circle class="st62" cx="174.9" cy="49.4" r="47.6"/>
	</g>
	<g>
		<path class="st4" d="M83.1,189.3h-1.9l-7.2-11v11h-1.9v-14.2h1.9l7.2,11v-11h1.9V189.3z"/>
		<path class="st4" d="M92.7,189.3c-0.1-0.2-0.2-0.6-0.3-1.1c-0.8,0.9-1.8,1.3-3,1.3c-1,0-1.9-0.3-2.6-0.9s-1-1.3-1-2.2
			c0-1.1,0.4-2,1.3-2.6s2-0.9,3.5-0.9h1.8v-0.8c0-0.6-0.2-1.1-0.6-1.5s-0.9-0.6-1.7-0.6c-0.6,0-1.2,0.2-1.6,0.5s-0.7,0.7-0.7,1.2
			h-1.8c0-0.5,0.2-1,0.6-1.5s0.9-0.9,1.5-1.2s1.3-0.4,2.1-0.4c1.2,0,2.2,0.3,2.9,0.9s1,1.4,1.1,2.5v4.9c0,1,0.1,1.7,0.4,2.3v0.2
			H92.7z M89.7,187.9c0.6,0,1.1-0.1,1.6-0.4s0.9-0.7,1.1-1.1v-2.2H91c-2.2,0-3.3,0.6-3.3,1.9c0,0.6,0.2,1,0.6,1.3
			S89.1,187.9,89.7,187.9z"/>
		<path class="st4" d="M99.5,176.2v2.6h2v1.4h-2v6.6c0,0.4,0.1,0.7,0.3,1s0.5,0.3,0.9,0.3c0.2,0,0.5,0,0.9-0.1v1.5
			c-0.5,0.1-0.9,0.2-1.4,0.2c-0.8,0-1.4-0.2-1.8-0.7s-0.6-1.2-0.6-2.1v-6.6h-1.9v-1.4h1.9v-2.6H99.5z"/>
		<path class="st4" d="M110.1,188.3c-0.7,0.8-1.7,1.2-3.1,1.2c-1.1,0-2-0.3-2.6-1s-0.9-1.6-0.9-2.9v-6.9h1.8v6.8
			c0,1.6,0.7,2.4,2,2.4c1.4,0,2.3-0.5,2.8-1.5v-7.7h1.8v10.6h-1.7L110.1,188.3z"/>
		<path class="st4" d="M119.7,180.4c-0.3,0-0.6-0.1-0.9-0.1c-1.2,0-2,0.5-2.4,1.5v7.5h-1.8v-10.6h1.8l0,1.2c0.6-0.9,1.4-1.4,2.5-1.4
			c0.4,0,0.6,0,0.8,0.1V180.4z"/>
		<path class="st4" d="M127.5,189.3c-0.1-0.2-0.2-0.6-0.3-1.1c-0.8,0.9-1.8,1.3-3,1.3c-1,0-1.9-0.3-2.6-0.9s-1-1.3-1-2.2
			c0-1.1,0.4-2,1.3-2.6s2-0.9,3.5-0.9h1.8v-0.8c0-0.6-0.2-1.1-0.6-1.5s-0.9-0.6-1.7-0.6c-0.6,0-1.2,0.2-1.6,0.5s-0.7,0.7-0.7,1.2
			h-1.8c0-0.5,0.2-1,0.6-1.5s0.9-0.9,1.5-1.2s1.3-0.4,2.1-0.4c1.2,0,2.2,0.3,2.9,0.9c0.7,0.6,1,1.4,1.1,2.5v4.9c0,1,0.1,1.7,0.4,2.3
			v0.2H127.5z M124.5,187.9c0.6,0,1.1-0.1,1.6-0.4s0.9-0.7,1.1-1.1v-2.2h-1.4c-2.2,0-3.3,0.6-3.3,1.9c0,0.6,0.2,1,0.6,1.3
			S123.9,187.9,124.5,187.9z"/>
		<path class="st4" d="M133.8,189.3H132v-15h1.8V189.3z"/>
		<path class="st4" d="M150.6,184.1c0,1.6-0.4,2.9-1.1,3.9s-1.7,1.5-3,1.5c-1.3,0-2.4-0.5-3.1-1.4l-0.1,1.2h-1.7v-15h1.8v5.6
			c0.7-0.9,1.7-1.4,3-1.4s2.3,0.5,3,1.5s1.1,2.3,1.1,4V184.1z M148.8,183.9c0-1.2-0.2-2.2-0.7-2.9s-1.2-1-2.1-1
			c-1.2,0-2,0.6-2.6,1.7v4.6c0.6,1.1,1.4,1.7,2.6,1.7c0.9,0,1.5-0.3,2-1S148.8,185.3,148.8,183.9z"/>
		<path class="st4" d="M157.3,189.5c-1.4,0-2.6-0.5-3.5-1.4s-1.3-2.2-1.3-3.8V184c0-1,0.2-2,0.6-2.8s1-1.5,1.7-1.9s1.5-0.7,2.3-0.7
			c1.4,0,2.4,0.5,3.2,1.4s1.1,2.2,1.1,3.9v0.8h-7.2c0,1,0.3,1.9,0.9,2.5s1.3,1,2.2,1c0.6,0,1.2-0.1,1.6-0.4s0.8-0.6,1.2-1l1.1,0.9
			C160.4,188.8,159,189.5,157.3,189.5z M157.1,180c-0.7,0-1.3,0.3-1.8,0.8s-0.8,1.3-0.9,2.2h5.3v-0.1c-0.1-0.9-0.3-1.6-0.7-2.1
			S157.8,180,157.1,180z"/>
		<path class="st4" d="M170,189.3c-0.1-0.2-0.2-0.6-0.3-1.1c-0.8,0.9-1.8,1.3-3,1.3c-1,0-1.9-0.3-2.6-0.9s-1-1.3-1-2.2
			c0-1.1,0.4-2,1.3-2.6s2-0.9,3.5-0.9h1.8v-0.8c0-0.6-0.2-1.1-0.6-1.5s-0.9-0.6-1.7-0.6c-0.6,0-1.2,0.2-1.6,0.5s-0.7,0.7-0.7,1.2
			h-1.8c0-0.5,0.2-1,0.6-1.5s0.9-0.9,1.5-1.2s1.3-0.4,2.1-0.4c1.2,0,2.2,0.3,2.9,0.9c0.7,0.6,1,1.4,1.1,2.5v4.9c0,1,0.1,1.7,0.4,2.3
			v0.2H170z M167,187.9c0.6,0,1.1-0.1,1.6-0.4s0.9-0.7,1.1-1.1v-2.2h-1.4c-2.2,0-3.3,0.6-3.3,1.9c0,0.6,0.2,1,0.6,1.3
			S166.4,187.9,167,187.9z"/>
		<path class="st4" d="M180.9,188.3c-0.7,0.8-1.7,1.2-3.1,1.2c-1.1,0-2-0.3-2.6-1s-0.9-1.6-0.9-2.9v-6.9h1.8v6.8
			c0,1.6,0.7,2.4,2,2.4c1.4,0,2.3-0.5,2.8-1.5v-7.7h1.8v10.6h-1.7L180.9,188.3z"/>
		<path class="st4" d="M187.8,176.2v2.6h2v1.4h-2v6.6c0,0.4,0.1,0.7,0.3,1s0.5,0.3,0.9,0.3c0.2,0,0.5,0,0.9-0.1v1.5
			c-0.5,0.1-0.9,0.2-1.4,0.2c-0.8,0-1.4-0.2-1.8-0.7s-0.6-1.2-0.6-2.1v-6.6h-1.9v-1.4h1.9v-2.6H187.8z"/>
		<path class="st4" d="M195.4,186.7l2.5-7.9h1.9l-4.2,12.2c-0.7,1.8-1.7,2.6-3.1,2.6l-0.3,0l-0.7-0.1V192l0.5,0
			c0.6,0,1.1-0.1,1.4-0.4s0.6-0.7,0.8-1.4l0.4-1.1l-3.8-10.4h2L195.4,186.7z"/>
		<path class="st4" d="M212.9,189.3c-0.1-0.2-0.2-0.6-0.3-1.1c-0.8,0.9-1.8,1.3-3,1.3c-1,0-1.9-0.3-2.6-0.9s-1-1.3-1-2.2
			c0-1.1,0.4-2,1.3-2.6s2-0.9,3.5-0.9h1.8v-0.8c0-0.6-0.2-1.1-0.6-1.5s-0.9-0.6-1.7-0.6c-0.6,0-1.2,0.2-1.6,0.5s-0.7,0.7-0.7,1.2
			h-1.8c0-0.5,0.2-1,0.6-1.5s0.9-0.9,1.5-1.2s1.3-0.4,2.1-0.4c1.2,0,2.2,0.3,2.9,0.9s1,1.4,1.1,2.5v4.9c0,1,0.1,1.7,0.4,2.3v0.2
			H212.9z M209.9,187.9c0.6,0,1.1-0.1,1.6-0.4s0.9-0.7,1.1-1.1v-2.2h-1.4c-2.2,0-3.3,0.6-3.3,1.9c0,0.6,0.2,1,0.6,1.3
			S209.3,187.9,209.9,187.9z"/>
		<path class="st4" d="M226.6,186.8l2-8.1h1.8l-3.1,10.6h-1.5l-2.6-8l-2.5,8h-1.5l-3.1-10.6h1.8l2.1,7.9l2.5-7.9h1.5L226.6,186.8z"
			/>
		<path class="st4" d="M238.8,189.3c-0.1-0.2-0.2-0.6-0.3-1.1c-0.8,0.9-1.8,1.3-3,1.3c-1,0-1.9-0.3-2.6-0.9s-1-1.3-1-2.2
			c0-1.1,0.4-2,1.3-2.6s2-0.9,3.5-0.9h1.8v-0.8c0-0.6-0.2-1.1-0.6-1.5s-0.9-0.6-1.7-0.6c-0.6,0-1.2,0.2-1.6,0.5s-0.7,0.7-0.7,1.2
			h-1.8c0-0.5,0.2-1,0.6-1.5s0.9-0.9,1.5-1.2s1.3-0.4,2.1-0.4c1.2,0,2.2,0.3,2.9,0.9s1,1.4,1.1,2.5v4.9c0,1,0.1,1.7,0.4,2.3v0.2
			H238.8z M235.8,187.9c0.6,0,1.1-0.1,1.6-0.4s0.9-0.7,1.1-1.1v-2.2h-1.4c-2.2,0-3.3,0.6-3.3,1.9c0,0.6,0.2,1,0.6,1.3
			S235.2,187.9,235.8,187.9z"/>
		<path class="st4" d="M243.1,175.9c0-0.3,0.1-0.5,0.3-0.7s0.4-0.3,0.8-0.3s0.6,0.1,0.8,0.3s0.3,0.4,0.3,0.7s-0.1,0.5-0.3,0.7
			s-0.4,0.3-0.8,0.3s-0.6-0.1-0.8-0.3S243.1,176.2,243.1,175.9z M245.1,189.3h-1.8v-10.6h1.8V189.3z"/>
		<path class="st4" d="M250.4,176.2v2.6h2v1.4h-2v6.6c0,0.4,0.1,0.7,0.3,1s0.5,0.3,0.9,0.3c0.2,0,0.5,0,0.9-0.1v1.5
			c-0.5,0.1-0.9,0.2-1.4,0.2c-0.8,0-1.4-0.2-1.8-0.7s-0.6-1.2-0.6-2.1v-6.6h-1.9v-1.4h1.9v-2.6H250.4z"/>
		<path class="st4" d="M260.7,186.5c0-0.5-0.2-0.9-0.6-1.1s-1-0.5-1.9-0.7s-1.6-0.4-2.2-0.7c-0.5-0.3-0.9-0.6-1.2-1
			s-0.4-0.8-0.4-1.3c0-0.9,0.4-1.6,1.1-2.2c0.7-0.6,1.7-0.9,2.8-0.9c1.2,0,2.2,0.3,2.9,0.9s1.1,1.4,1.1,2.4h-1.8
			c0-0.5-0.2-0.9-0.6-1.3s-0.9-0.5-1.6-0.5c-0.7,0-1.2,0.1-1.5,0.4s-0.6,0.7-0.6,1.1c0,0.4,0.2,0.8,0.5,1s1,0.4,1.9,0.6
			s1.6,0.4,2.2,0.7s1,0.6,1.2,1s0.4,0.9,0.4,1.4c0,0.9-0.4,1.7-1.1,2.3s-1.7,0.9-2.9,0.9c-0.8,0-1.6-0.1-2.2-0.4
			c-0.7-0.3-1.2-0.7-1.5-1.3s-0.6-1.1-0.6-1.7h1.8c0,0.6,0.3,1.1,0.7,1.4s1,0.5,1.8,0.5c0.7,0,1.2-0.1,1.6-0.4
			S260.7,187,260.7,186.5z"/>
		<path class="st4" d="M264.8,192.1l-1-0.7c0.6-0.9,0.9-1.7,1-2.6v-1.6h1.8v1.4c0,0.7-0.2,1.3-0.5,2S265.3,191.7,264.8,192.1z"/>
		<path class="st4" d="M16.4,210.8l2-8.1h1.8l-3.1,10.6h-1.5l-2.6-8l-2.5,8H9.2l-3.1-10.6h1.8l2.1,7.9l2.5-7.9h1.5L16.4,210.8z"/>
		<path class="st4" d="M26.5,213.5c-1.4,0-2.6-0.5-3.5-1.4s-1.3-2.2-1.3-3.8V208c0-1,0.2-2,0.6-2.8s1-1.5,1.7-1.9s1.5-0.7,2.3-0.7
			c1.4,0,2.4,0.5,3.2,1.4s1.1,2.2,1.1,3.9v0.8h-7.2c0,1,0.3,1.9,0.9,2.5s1.3,1,2.2,1c0.6,0,1.2-0.1,1.6-0.4s0.8-0.6,1.2-1l1.1,0.9
			C29.5,212.8,28.2,213.5,26.5,213.5z M26.2,204c-0.7,0-1.3,0.3-1.8,0.8s-0.8,1.3-0.9,2.2h5.3v-0.1c-0.1-0.9-0.3-1.6-0.7-2.1
			S27,204,26.2,204z"/>
		<path class="st4" d="M39.5,202.7v11.8c0,2-0.9,3-2.8,3c-0.4,0-0.8-0.1-1.1-0.2V216c0.2,0.1,0.5,0.1,0.8,0.1c0.4,0,0.7-0.1,0.9-0.3
			c0.2-0.2,0.3-0.6,0.3-1.1v-11.8H39.5z M37.5,199.9c0-0.3,0.1-0.5,0.3-0.7s0.4-0.3,0.8-0.3c0.4,0,0.6,0.1,0.8,0.3s0.3,0.4,0.3,0.7
			s-0.1,0.5-0.3,0.7s-0.4,0.3-0.8,0.3s-0.6-0.1-0.8-0.3S37.5,200.2,37.5,199.9z"/>
		<path class="st4" d="M48.9,212.3c-0.7,0.8-1.7,1.2-3.1,1.2c-1.1,0-2-0.3-2.6-1s-0.9-1.6-0.9-2.9v-6.9h1.8v6.8c0,1.6,0.7,2.4,2,2.4
			c1.4,0,2.3-0.5,2.8-1.5v-7.7h1.8v10.6H49L48.9,212.3z"/>
		<path class="st4" d="M59.6,210.5c0-0.5-0.2-0.9-0.6-1.1s-1-0.5-1.9-0.7s-1.6-0.4-2.2-0.7s-0.9-0.6-1.2-1s-0.4-0.8-0.4-1.3
			c0-0.9,0.4-1.6,1.1-2.2s1.7-0.9,2.8-0.9c1.2,0,2.2,0.3,2.9,0.9s1.1,1.4,1.1,2.4h-1.8c0-0.5-0.2-0.9-0.6-1.3s-0.9-0.5-1.6-0.5
			c-0.7,0-1.2,0.1-1.5,0.4s-0.6,0.7-0.6,1.1c0,0.4,0.2,0.8,0.5,1s1,0.4,1.9,0.6s1.6,0.4,2.2,0.7s1,0.6,1.2,1s0.4,0.9,0.4,1.4
			c0,0.9-0.4,1.7-1.1,2.3s-1.7,0.9-2.9,0.9c-0.8,0-1.6-0.1-2.2-0.4s-1.2-0.7-1.5-1.3s-0.6-1.1-0.6-1.7h1.8c0,0.6,0.3,1.1,0.7,1.4
			s1,0.5,1.8,0.5c0.7,0,1.2-0.1,1.6-0.4S59.6,211,59.6,210.5z"/>
		<path class="st4" d="M66.2,200.2v2.6h2v1.4h-2v6.6c0,0.4,0.1,0.7,0.3,1s0.5,0.3,0.9,0.3c0.2,0,0.5,0,0.9-0.1v1.5
			c-0.5,0.1-0.9,0.2-1.4,0.2c-0.8,0-1.4-0.2-1.8-0.7s-0.6-1.2-0.6-2.1v-6.6h-1.9v-1.4h1.9v-2.6H66.2z"/>
		<path class="st4" d="M74.8,207.9c0-1.6,0.4-2.9,1.2-3.9s1.8-1.5,3-1.5c1.2,0,2.2,0.4,2.9,1.3v-5.5h1.8v15H82l-0.1-1.1
			c-0.7,0.9-1.7,1.3-3,1.3c-1.2,0-2.2-0.5-3-1.5s-1.2-2.3-1.2-3.9V207.9z M76.6,208.1c0,1.2,0.2,2.1,0.7,2.8s1.2,1,2.1,1
			c1.1,0,2-0.5,2.5-1.5v-4.9c-0.5-1-1.4-1.5-2.5-1.5c-0.9,0-1.6,0.3-2.1,1S76.6,206.8,76.6,208.1z"/>
		<path class="st4" d="M86,207.9c0-1,0.2-2,0.6-2.8s1-1.5,1.7-1.9s1.6-0.7,2.5-0.7c1.4,0,2.6,0.5,3.5,1.5s1.3,2.3,1.3,4v0.1
			c0,1-0.2,2-0.6,2.8s-1,1.5-1.7,1.9s-1.6,0.7-2.5,0.7c-1.4,0-2.6-0.5-3.5-1.5s-1.3-2.3-1.3-4V207.9z M87.8,208.1
			c0,1.2,0.3,2.1,0.8,2.8s1.3,1.1,2.2,1.1c0.9,0,1.6-0.4,2.2-1.1s0.8-1.7,0.8-3c0-1.2-0.3-2.1-0.8-2.8s-1.3-1.1-2.2-1.1
			c-0.9,0-1.6,0.4-2.2,1.1S87.8,206.8,87.8,208.1z"/>
		<path class="st4" d="M99.6,202.7l0.1,1.3c0.8-1,1.9-1.5,3.2-1.5c2.2,0,3.4,1.3,3.4,3.8v7h-1.8v-7c0-0.8-0.2-1.3-0.5-1.7
			s-0.9-0.5-1.6-0.5c-0.6,0-1.1,0.2-1.5,0.5s-0.8,0.7-1,1.2v7.5h-1.8v-10.6H99.6z"/>
		<path class="st4" d="M108.3,203.1l-1-0.7c0.6-0.8,0.9-1.7,0.9-2.7v-1.4h1.8v1.3c0,0.7-0.2,1.3-0.5,1.9S108.8,202.7,108.3,203.1z"
			/>
		<path class="st4" d="M114.6,200.2v2.6h2v1.4h-2v6.6c0,0.4,0.1,0.7,0.3,1s0.5,0.3,0.9,0.3c0.2,0,0.5,0,0.9-0.1v1.5
			c-0.5,0.1-0.9,0.2-1.4,0.2c-0.8,0-1.4-0.2-1.8-0.7s-0.6-1.2-0.6-2.1v-6.6h-1.9v-1.4h1.9v-2.6H114.6z"/>
		<path class="st4" d="M125.4,204c0.8-1,1.8-1.5,3.1-1.5c2.2,0,3.4,1.3,3.4,3.8v7h-1.8v-7c0-0.8-0.2-1.3-0.5-1.7s-0.9-0.5-1.6-0.5
			c-0.6,0-1.1,0.2-1.5,0.5s-0.8,0.7-1,1.2v7.5h-1.8v-15h1.8V204z"/>
		<path class="st4" d="M141.2,213.3c-0.1-0.2-0.2-0.6-0.3-1.1c-0.8,0.9-1.8,1.3-3,1.3c-1,0-1.9-0.3-2.6-0.9s-1-1.3-1-2.2
			c0-1.1,0.4-2,1.3-2.6s2-0.9,3.5-0.9h1.8v-0.8c0-0.6-0.2-1.1-0.6-1.5s-0.9-0.6-1.7-0.6c-0.6,0-1.2,0.2-1.6,0.5s-0.7,0.7-0.7,1.2
			h-1.8c0-0.5,0.2-1,0.6-1.5s0.9-0.9,1.5-1.2s1.3-0.4,2.1-0.4c1.2,0,2.2,0.3,2.9,0.9s1,1.4,1.1,2.5v4.9c0,1,0.1,1.7,0.4,2.3v0.2
			H141.2z M138.2,211.9c0.6,0,1.1-0.1,1.6-0.4s0.9-0.7,1.1-1.1v-2.2h-1.4c-2.2,0-3.3,0.6-3.3,1.9c0,0.6,0.2,1,0.6,1.3
			S137.6,211.9,138.2,211.9z"/>
		<path class="st4" d="M148.9,210.9l2.6-8.1h1.8l-3.8,10.6h-1.4l-3.8-10.6h1.8L148.9,210.9z"/>
		<path class="st4" d="M159.3,213.5c-1.4,0-2.6-0.5-3.5-1.4s-1.3-2.2-1.3-3.8V208c0-1,0.2-2,0.6-2.8s1-1.5,1.7-1.9s1.5-0.7,2.3-0.7
			c1.4,0,2.4,0.5,3.2,1.4s1.1,2.2,1.1,3.9v0.8h-7.2c0,1,0.3,1.9,0.9,2.5s1.3,1,2.2,1c0.6,0,1.2-0.1,1.6-0.4s0.8-0.6,1.2-1l1.1,0.9
			C162.4,212.8,161.1,213.5,159.3,213.5z M159.1,204c-0.7,0-1.3,0.3-1.8,0.8s-0.8,1.3-0.9,2.2h5.3v-0.1c-0.1-0.9-0.3-1.6-0.7-2.1
			S159.9,204,159.1,204z"/>
		<path class="st4" d="M172.9,200.2v2.6h2v1.4h-2v6.6c0,0.4,0.1,0.7,0.3,1s0.5,0.3,0.9,0.3c0.2,0,0.5,0,0.9-0.1v1.5
			c-0.5,0.1-0.9,0.2-1.4,0.2c-0.8,0-1.4-0.2-1.8-0.7s-0.6-1.2-0.6-2.1v-6.6h-1.9v-1.4h1.9v-2.6H172.9z"/>
		<path class="st4" d="M178.8,204c0.8-1,1.8-1.5,3.1-1.5c2.2,0,3.4,1.3,3.4,3.8v7h-1.8v-7c0-0.8-0.2-1.3-0.5-1.7s-0.9-0.5-1.6-0.5
			c-0.6,0-1.1,0.2-1.5,0.5s-0.8,0.7-1,1.2v7.5H177v-15h1.8V204z"/>
		<path class="st4" d="M192.4,213.5c-1.4,0-2.6-0.5-3.5-1.4s-1.3-2.2-1.3-3.8V208c0-1,0.2-2,0.6-2.8s1-1.5,1.7-1.9s1.5-0.7,2.3-0.7
			c1.4,0,2.4,0.5,3.2,1.4s1.1,2.2,1.1,3.9v0.8h-7.2c0,1,0.3,1.9,0.9,2.5s1.3,1,2.2,1c0.6,0,1.2-0.1,1.6-0.4s0.8-0.6,1.2-1l1.1,0.9
			C195.5,212.8,194.2,213.5,192.4,213.5z M192.2,204c-0.7,0-1.3,0.3-1.8,0.8s-0.8,1.3-0.9,2.2h5.3v-0.1c-0.1-0.9-0.3-1.6-0.7-2.1
			S192.9,204,192.2,204z"/>
		<path class="st4" d="M212.5,208.1c0,1.6-0.4,2.9-1.1,3.9s-1.7,1.5-3,1.5c-1.3,0-2.3-0.4-3-1.2v5.1h-1.8v-14.6h1.7l0.1,1.2
			c0.7-0.9,1.8-1.4,3.1-1.4c1.3,0,2.3,0.5,3,1.4s1.1,2.3,1.1,4V208.1z M210.7,207.9c0-1.2-0.3-2.1-0.8-2.8s-1.2-1-2.1-1
			c-1.1,0-1.9,0.5-2.5,1.5v5c0.5,1,1.4,1.4,2.5,1.4c0.9,0,1.6-0.3,2.1-1S210.7,209.3,210.7,207.9z"/>
		<path class="st4" d="M214.8,199.9c0-0.3,0.1-0.5,0.3-0.7s0.4-0.3,0.8-0.3s0.6,0.1,0.8,0.3s0.3,0.4,0.3,0.7s-0.1,0.5-0.3,0.7
			s-0.4,0.3-0.8,0.3s-0.6-0.1-0.8-0.3S214.8,200.2,214.8,199.9z M216.8,213.3H215v-10.6h1.8V213.3z"/>
		<path class="st4" d="M223.9,212c0.6,0,1.2-0.2,1.7-0.6s0.7-0.9,0.8-1.5h1.7c0,0.6-0.2,1.2-0.6,1.7s-0.9,1-1.5,1.3s-1.3,0.5-2,0.5
			c-1.4,0-2.6-0.5-3.4-1.4s-1.3-2.3-1.3-3.9v-0.3c0-1,0.2-1.9,0.6-2.7s0.9-1.4,1.6-1.9s1.5-0.7,2.5-0.7c1.2,0,2.2,0.4,3,1.1
			s1.2,1.6,1.3,2.8h-1.7c-0.1-0.7-0.3-1.2-0.8-1.7s-1-0.7-1.7-0.7c-0.9,0-1.6,0.3-2.1,1s-0.8,1.6-0.8,2.9v0.3c0,1.2,0.3,2.2,0.8,2.8
			S223,212,223.9,212z"/>
		<path class="st4" d="M236.3,210.5c0-0.5-0.2-0.9-0.6-1.1s-1-0.5-1.9-0.7s-1.6-0.4-2.2-0.7s-0.9-0.6-1.2-1s-0.4-0.8-0.4-1.3
			c0-0.9,0.4-1.6,1.1-2.2s1.7-0.9,2.8-0.9c1.2,0,2.2,0.3,2.9,0.9s1.1,1.4,1.1,2.4h-1.8c0-0.5-0.2-0.9-0.6-1.3s-0.9-0.5-1.6-0.5
			c-0.7,0-1.2,0.1-1.5,0.4s-0.6,0.7-0.6,1.1c0,0.4,0.2,0.8,0.5,1s1,0.4,1.9,0.6s1.6,0.4,2.2,0.7s1,0.6,1.2,1s0.4,0.9,0.4,1.4
			c0,0.9-0.4,1.7-1.1,2.3s-1.7,0.9-2.9,0.9c-0.8,0-1.6-0.1-2.2-0.4s-1.2-0.7-1.5-1.3s-0.6-1.1-0.6-1.7h1.8c0,0.6,0.3,1.1,0.7,1.4
			s1,0.5,1.8,0.5c0.7,0,1.2-0.1,1.6-0.4S236.3,211,236.3,210.5z"/>
		<path class="st4" d="M247.8,200.2v2.6h2v1.4h-2v6.6c0,0.4,0.1,0.7,0.3,1s0.5,0.3,0.9,0.3c0.2,0,0.5,0,0.9-0.1v1.5
			c-0.5,0.1-0.9,0.2-1.4,0.2c-0.8,0-1.4-0.2-1.8-0.7s-0.6-1.2-0.6-2.1v-6.6h-1.9v-1.4h1.9v-2.6H247.8z"/>
		<path class="st4" d="M251.2,207.9c0-1,0.2-2,0.6-2.8s1-1.5,1.7-1.9s1.6-0.7,2.5-0.7c1.4,0,2.6,0.5,3.5,1.5s1.3,2.3,1.3,4v0.1
			c0,1-0.2,2-0.6,2.8s-1,1.5-1.7,1.9s-1.6,0.7-2.5,0.7c-1.4,0-2.6-0.5-3.5-1.5s-1.3-2.3-1.3-4V207.9z M253.1,208.1
			c0,1.2,0.3,2.1,0.8,2.8s1.3,1.1,2.2,1.1c0.9,0,1.6-0.4,2.2-1.1s0.8-1.7,0.8-3c0-1.2-0.3-2.1-0.8-2.8S257,204,256,204
			c-0.9,0-1.6,0.4-2.2,1.1S253.1,206.8,253.1,208.1z"/>
		<path class="st4" d="M277,208.1c0,1.6-0.4,2.9-1.1,3.9s-1.7,1.5-3,1.5c-1.3,0-2.3-0.4-3-1.2v5.1h-1.8v-14.6h1.7l0.1,1.2
			c0.7-0.9,1.8-1.4,3.1-1.4c1.3,0,2.3,0.5,3,1.4s1.1,2.3,1.1,4V208.1z M275.2,207.9c0-1.2-0.3-2.1-0.8-2.8s-1.2-1-2.1-1
			c-1.1,0-1.9,0.5-2.5,1.5v5c0.5,1,1.4,1.4,2.5,1.4c0.9,0,1.6-0.3,2.1-1S275.2,209.3,275.2,207.9z"/>
		<path class="st4" d="M284.4,204.4c-0.3,0-0.6-0.1-0.9-0.1c-1.2,0-2,0.5-2.4,1.5v7.5h-1.8v-10.6h1.8l0,1.2c0.6-0.9,1.4-1.4,2.5-1.4
			c0.4,0,0.6,0,0.8,0.1V204.4z"/>
		<path class="st4" d="M285.4,207.9c0-1,0.2-2,0.6-2.8s1-1.5,1.7-1.9s1.6-0.7,2.5-0.7c1.4,0,2.6,0.5,3.5,1.5s1.3,2.3,1.3,4v0.1
			c0,1-0.2,2-0.6,2.8s-1,1.5-1.7,1.9s-1.6,0.7-2.5,0.7c-1.4,0-2.6-0.5-3.5-1.5s-1.3-2.3-1.3-4V207.9z M287.2,208.1
			c0,1.2,0.3,2.1,0.8,2.8s1.3,1.1,2.2,1.1c0.9,0,1.6-0.4,2.2-1.1s0.8-1.7,0.8-3c0-1.2-0.3-2.1-0.8-2.8s-1.3-1.1-2.2-1.1
			c-0.9,0-1.6,0.4-2.2,1.1S287.2,206.8,287.2,208.1z"/>
		<path class="st4" d="M300.6,210.9l2.6-8.1h1.8l-3.8,10.6h-1.4l-3.8-10.6h1.8L300.6,210.9z"/>
		<path class="st4" d="M311.1,213.5c-1.4,0-2.6-0.5-3.5-1.4s-1.3-2.2-1.3-3.8V208c0-1,0.2-2,0.6-2.8s1-1.5,1.7-1.9s1.5-0.7,2.3-0.7
			c1.4,0,2.4,0.5,3.2,1.4s1.1,2.2,1.1,3.9v0.8H308c0,1,0.3,1.9,0.9,2.5s1.3,1,2.2,1c0.6,0,1.2-0.1,1.6-0.4s0.8-0.6,1.2-1l1.1,0.9
			C314.2,212.8,312.9,213.5,311.1,213.5z M310.9,204c-0.7,0-1.3,0.3-1.8,0.8s-0.8,1.3-0.9,2.2h5.3v-0.1c-0.1-0.9-0.3-1.6-0.7-2.1
			S311.6,204,310.9,204z"/>
		<path class="st4" d="M322.3,199.9c0-0.3,0.1-0.5,0.3-0.7s0.4-0.3,0.8-0.3s0.6,0.1,0.8,0.3s0.3,0.4,0.3,0.7s-0.1,0.5-0.3,0.7
			s-0.4,0.3-0.8,0.3s-0.6-0.1-0.8-0.3S322.3,200.2,322.3,199.9z M324.2,213.3h-1.8v-10.6h1.8V213.3z"/>
		<path class="st4" d="M329.5,200.2v2.6h2v1.4h-2v6.6c0,0.4,0.1,0.7,0.3,1s0.5,0.3,0.9,0.3c0.2,0,0.5,0,0.9-0.1v1.5
			c-0.5,0.1-0.9,0.2-1.4,0.2c-0.8,0-1.4-0.2-1.8-0.7s-0.6-1.2-0.6-2.1v-6.6h-1.9v-1.4h1.9v-2.6H329.5z"/>
	</g>
</g>
</svg>
