<?xml version="1.0" encoding="utf-8"?>
<!-- Generator: Adobe Illustrator 18.1.1, SVG Export Plug-In . SVG Version: 6.00 Build 0)  -->
<svg version="1.1" id="Layer_1" xmlns="http://www.w3.org/2000/svg" xmlns:xlink="http://www.w3.org/1999/xlink" x="0px" y="0px"
	 viewBox="0 0 87.9 87.5" style="enable-background:new 0 0 87.9 87.5;" xml:space="preserve">
<style type="text/css">
	.st0{fill:#F46B83;}
	.st1{fill:#C6AF75;}
	.st2{fill:#A17644;}
	.st3{fill:#2AD19D;}
	.st4{fill:#79E2BC;}
	.st5{fill:#34B188;}
	.st6{fill:#FCED5E;}
	.st7{fill:#FDE49C;}
	.st8{fill:#E2CC8A;}
	.st9{fill:#D9C081;}
	.st10{fill:#626366;}
	.st11{fill:#CC486A;}
	.st12{fill:#CE5B79;}
	.st13{fill:#FFFFFF;}
	.st14{fill:#929496;}
	.st15{fill:#626467;}
	.st16{fill:#E6D0B8;}
	.st17{fill:#EE6D83;}
	.st18{fill:#5ABABA;}
	.st19{fill:#DEDEDE;}
	.st20{fill:#D1D3D4;}
	.st21{fill:#16A457;}
	.st22{fill:#58BD98;}
	.st23{fill:#F6899C;}
	.st24{fill:#1A9169;}
	.st25{fill:#AA4660;}
	.st26{fill-rule:evenodd;clip-rule:evenodd;fill:#F46B83;}
	.st27{fill:#EF6B83;}
	.st28{fill:none;stroke:#000000;stroke-miterlimit:10;}
	.st29{fill:#F4879A;}
	.st30{fill:#37CF9D;}
	.st31{fill-rule:evenodd;clip-rule:evenodd;fill:#FFFFFF;}
	.st32{fill:none;stroke:#CDEBE0;stroke-width:3.8567;stroke-linecap:round;stroke-miterlimit:10;}
	.st33{fill:none;stroke:#CDEBE0;stroke-width:10;stroke-linecap:round;stroke-miterlimit:10;}
	.st34{fill:#16D19B;}
	.st35{fill:#1D7F45;}
</style>
<rect x="-526.2" y="-154.2" class="st28" width="658" height="563.9"/>
<g>
	<circle class="st34" cx="43.9" cy="43.4" r="42.4"/>
	<g>
		<polygon class="st13" points="61.1,66.8 59.1,59.5 61.1,66.8 		"/>
		<polygon class="st13" points="26.8,66.8 26.8,66.8 28.8,59.5 		"/>
		<polygon class="st13" points="59.1,59.5 57,52.2 57,52.2 		"/>
		<polygon class="st13" points="30.9,52.2 28.8,59.5 30.9,52.2 		"/>
		<path class="st35" d="M59.3,68.1c1.5,1,2.4,0.4,1.9-1.3l-2.1-7.3L57,52.2v0L56.1,49l8.5-6.7l5.9-4.7c1.4-1.1,1.1-2.1-0.7-2.2
			l-7.6-0.3l-10.9-0.4l-6.4-17.3c-0.6-1.6-1.7-1.7-2.3,0l-1.7,4.7l-4.7,12.6l-10.9,0.4L18,35.5c-1.8,0.1-2.1,1.1-0.7,2.2l5.9,4.7
			l8.5,6.7l-0.9,3.2v0l-2.1,7.3l-2.1,7.3c-0.5,1.8,0.3,2.4,1.9,1.3l11.3-7.5l4-2.7l2.8,1.8l0,0L59.3,68.1z"/>
	</g>
</g>
</svg>
