<?xml version="1.0" encoding="utf-8"?>
<!-- Generator: Adobe Illustrator 18.1.1, SVG Export Plug-In . SVG Version: 6.00 Build 0)  -->
<svg version="1.1" id="Layer_1" xmlns="http://www.w3.org/2000/svg" xmlns:xlink="http://www.w3.org/1999/xlink" x="0px" y="0px"
	 viewBox="0 0 487 480.8" preserveAspectRatio="none" xml:space="preserve">
<style type="text/css">
	.st0{fill:#F46B83;}
	.st1{fill:#C6AF75;}
	.st2{fill:#A17644;}
	.st3{fill:#2AD19D;}
	.st4{fill:#79E2BC;}
	.st5{fill:#34B188;}
	.st6{fill:#FCED5E;}
	.st7{fill:#FDE49C;}
	.st8{fill:#E2CC8A;}
	.st9{fill:#D9C081;}
	.st10{fill:#626366;}
	.st11{fill:#CC486A;}
	.st12{fill:#CE5B79;}
	.st13{fill:#FFFFFF;}
	.st14{fill:#929496;}
	.st15{fill:#626467;}
	.st16{fill:#E6D0B8;}
	.st17{fill:#EE6D83;}
	.st18{fill:#5ABABA;}
	.st19{fill:#DEDEDE;}
	.st20{fill:#D1D3D4;}
	.st21{fill:#16A457;}
	.st22{fill:#58BD98;}
	.st23{fill:#F6899C;}
	.st24{fill:#1A9169;}
	.st25{fill:#AA4660;}
	.st26{fill-rule:evenodd;clip-rule:evenodd;fill:#F46B83;}
	.st27{fill:#EF6B83;}
	.st28{fill:none;stroke:#000000;stroke-miterlimit:10;}
	.st29{fill:#F4879A;}
	.st30{fill:#37CF9D;}
	.st31{fill-rule:evenodd;clip-rule:evenodd;fill:#FFFFFF;}
	.st32{fill:#CDEBE0;}
</style>
<g>
	<path class="st0" d="M-756.5-282.7h86c6.6,0,12,5.4,12,12v37.8c0,6.6-5.4,12-12,12h-60c0,0-5.1-0.2-9.6,3.7
		c-4.7,4-5.4,10.4-16.3,10.4s-11.6-6.3-16.3-10.4c-4.6-3.9-9.6-3.7-9.6-3.7h-60c-6.6,0-12-5.4-12-12v-37.8c0-6.6,5.4-12,12-12
		H-756.5z"/>
</g>
<g>
	<g>
		<path class="st1" d="M-2930.8-1103.6c-0.1,0-0.3,0-0.4,0h-260.2c-0.1,0-0.3,0-0.4,0c-7,0-12.7,3-12.7,10.1
			c0,7.7,2.8,11.8,6.9,13.9l0,0c0,0,0,0,0,0c1.7,0.9,3.7,1.4,5.8,1.4h10.9c5.1,1,8.9,5.5,8.9,10.9c0,11.6-11,11.2-11.1,11.3
			c-5.4,0-9.7-0.7-9.7,4.7c0,11.1,5.3,14.7,10.6,14.7c0.6,0,1.7,0.1,1.7,0.1c10.6,0,178.7,0,207.8,0c0,0,1.3,0,2,0
			c5.4,0,9.8-4,9.8-14.8c0-5.4-4.4-4.8-9.8-4.8c-0.2,0-0.3,0-0.4,0c-0.1,0-0.2,0-0.4,0c-3.5,0-6.3-2.8-6.3-6.3
			c0-3.5,2.8-6.3,6.3-6.3c0.4,0,2.4,0,3.1,0c5,0,16.2,0,20.8,0s8.7-2.6,8.7-9.3h8.1c7,0,12.7-4.4,12.7-15.4
			C-2918.1-1100.6-2923.7-1103.6-2930.8-1103.6z"/>
	</g>
	<g>
		<rect x="-3164.1" y="-1249.5" class="st2" width="3.3" height="127.2"/>
	</g>
	<g>
		<rect x="-2968.9" y="-1267.4" class="st2" width="3.3" height="147.4"/>
	</g>
	<g>
		<path class="st3" d="M-2966.8-1188.9c0,0-33.5,0.3-33.5-40.3c0-32.9,33.5-107,33.5-107s33.5,74.1,33.5,107
			C-2933.3-1188.5-2966.8-1188.9-2966.8-1188.9z"/>
	</g>
	<g>
		<path class="st4" d="M-2966.8-1336.1v147.3c0,0,33.5,0.3,33.5-40.3C-2933.3-1262-2966.8-1336.1-2966.8-1336.1z"/>
	</g>
	<g>
		<rect x="-3118.9" y="-1231.5" class="st2" width="3.3" height="120.2"/>
	</g>
	<g>
		<path class="st3" d="M-3117.3-1201.9c0,0-30.8,0.3-30.8-37.1c0-30.3,30.8-98.5,30.8-98.5s30.8,68.2,30.8,98.5
			C-3086.4-1201.6-3117.3-1201.9-3117.3-1201.9z"/>
	</g>
	<g>
		<path class="st4" d="M-3117.3-1337.5v135.6c0,0,30.8,0.3,30.8-37.1C-3086.4-1269.3-3117.3-1337.5-3117.3-1337.5z"/>
	</g>
	<g>
		<path class="st5" d="M-2949.1-1130.2L-2949.1-1130.2c-3.5-3-15.1-11.1-26.7,0.5c-13.2,13.2-25.7,0-25.7,0s-13.8-13.1-27.1,0.1
			c-13.2,13.2-25.7,0-25.7,0s-13.8-13.1-27.1,0.1c-13.2,13.2-25.5,0.1-25.5,0.1s-14-13.2-27.2,0c-13.2,13.2-25.7,0-25.7,0
			s-10.4-10.7-27.1-0.7c-6.6,4-13.4,15.4-15.1,26.7l1,9.8h252.5l0,0h24.1l1.6-12.3C-2938.5-1121.2-2955.2-1136.3-2949.1-1130.2z"/>
	</g>
	<g>
		<path class="st3" d="M-3162.5-1177.7c0,0-22.8,0.2-22.8-27.3c0-22.3,22.8-72.6,22.8-72.6s22.8,50.3,22.8,72.6
			C-3139.7-1177.5-3162.5-1177.7-3162.5-1177.7z"/>
	</g>
	<g>
		<path class="st4" d="M-3162.5-1277.7v100c0,0,22.8,0.2,22.8-27.3C-3139.7-1227.4-3162.5-1277.7-3162.5-1277.7z"/>
	</g>
	<g>
		<circle class="st6" cx="-3179.2" cy="-1123.6" r="2"/>
	</g>
	<g>
		<circle class="st6" cx="-3020.7" cy="-1122.3" r="1.1"/>
	</g>
	<g>
		<circle class="st6" cx="-3046.8" cy="-1112.6" r="1.1"/>
	</g>
	<g>
		<circle class="st6" cx="-3129.7" cy="-1121.6" r="1.1"/>
	</g>
	<g>
		<circle class="st6" cx="-2943.6" cy="-1117.5" r="2"/>
	</g>
	<g>
		<circle class="st6" cx="-3188.3" cy="-1116.5" r="1.1"/>
	</g>
	<g>
		<path class="st7" d="M-2930.8-1108.6c-0.1,0-0.3,0-0.4,0h-260.2c-0.1,0-0.3,0-0.4,0c-7,0-12.7,5.7-12.7,12.7
			c0,4.9,2.8,9.2,6.9,11.3l0,0c0,0,0,0,0,0c1.7,0.9,3.7,1.4,5.8,1.4h10.9c5.1,1,8.9,5.5,8.9,10.9c0,11.6-11,11.2-11.1,11.3
			c-5.4,0-9.7,4.3-9.7,9.7s4.3,9.7,9.7,9.7c0.2,0,1.7,0.1,1.7,0.1c10.6,0,179.6,0,208.7,0h2c5.4,0,9.8-4.4,9.8-9.8s-4.4-9.8-9.8-9.8
			c-0.2,0-0.7,0-0.8,0c-3.5,0-6.3-2.8-6.3-6.3c0-3.5,2.8-6.3,6.3-6.3c0.4,0,2.4,0,3.1,0c5,0,16.2,0,20.8,0s8.7-2.6,8.7-9.3h8.1
			c7,0,12.7-5.7,12.7-12.7S-2923.7-1108.6-2930.8-1108.6z"/>
	</g>
	<g>
		<circle class="st6" cx="-3109.9" cy="-1117.5" r="1.1"/>
	</g>
	<g>
		<ellipse class="st8" cx="-3144.2" cy="-1099.2" rx="4.1" ry="1.5"/>
	</g>
	<g>
		<path class="st9" d="M-2980.4-1100.8c-0.1,0-0.2,0-0.4,0c0,0,0,0,0,0h-200.8c0,0-0.1,0-0.1,0c0,0,0,0-0.1,0
			c-3.1,0-5.6,0.9-5.6,2.1c0,1.2,2.5,2.1,5.6,2.1c0,0,0.1,0,0.1,0c0,0,0,0,0,0h200.1c0.2,0,0.3,0,0.5-0.1c0.2,0,0.4,0,0.6,0
			c3.1,0,5.5-0.9,5.5-2.1S-2977.4-1100.8-2980.4-1100.8z"/>
	</g>
	<g>
		<circle class="st6" cx="-2959.1" cy="-1122.5" r="2"/>
	</g>
	<g>
		<path class="st10" d="M-2993.5-1098.4c-22.6,0-41-18.4-41-41s18.4-41,41-41s41,18.4,41,41S-2970.9-1098.4-2993.5-1098.4z
			 M-2993.5-1169.7c-16.8,0-30.4,13.6-30.4,30.4s13.6,30.4,30.4,30.4s30.4-13.6,30.4-30.4S-2976.7-1169.7-2993.5-1169.7z"/>
	</g>
	<g>
		<path class="st10" d="M-3131.3-1098.4c-22.6,0-41-18.4-41-41s18.4-41,41-41s41,18.4,41,41S-3108.7-1098.4-3131.3-1098.4z
			 M-3131.3-1169.7c-16.8,0-30.4,13.6-30.4,30.4s13.6,30.4,30.4,30.4s30.4-13.6,30.4-30.4S-3114.6-1169.7-3131.3-1169.7z"/>
	</g>
	<g>
		<path class="st0" d="M-3059.9-1134.8h-76.2c-1.7,0-3.3-1-4-2.5s-0.6-3.3,0.4-4.7l38.9-51.8c0.8-1.1,2.2-1.8,3.6-1.8h77.7
			c1.7,0,3.3,1,4,2.5c0.8,1.5,0.6,3.4-0.5,4.7l-40.5,51.8C-3057.2-1135.5-3058.5-1134.8-3059.9-1134.8z M-3127.1-1143.8h65
			l33.4-42.9h-66.3L-3127.1-1143.8z"/>
	</g>
	<g>
		<path class="st0" d="M-2993.5-1134.8c-1.7,0-3.3-1-4.1-2.6l-33.4-70.9c-1-2.1-0.8-4.5,0.4-6.5c1.2-2,3.4-3.1,5.7-3.1h29
			c2.5,0,4.5,2,4.5,4.5s-2,4.5-4.5,4.5h-25.5l31.9,67.7c1.1,2.2,0.1,4.9-2.2,6C-2992.2-1135-2992.8-1134.8-2993.5-1134.8z"/>
	</g>
	<g>
		<g>
			<path class="st11" d="M-3021.3-1209h25.5c2.5,0,4.5-2,4.5-4.5c0-2.5-2-4.5-4.5-4.5h-29.6L-3021.3-1209z"/>
		</g>
	</g>
	<g>
		<path class="st0" d="M-3061.7-1136.7c-1.5,0-2.9-0.7-3.7-2l-46.7-70c-1.4-2.1-0.8-4.9,1.2-6.2c2.1-1.4,4.9-0.8,6.2,1.2l46.7,70
			c1.4,2.1,0.8,4.9-1.2,6.2C-3060-1137-3060.9-1136.7-3061.7-1136.7z"/>
	</g>
	<g>
		<circle class="st0" cx="-3059.9" cy="-1139.3" r="12.9"/>
	</g>
	<g>
		<path class="st12" d="M-3074.9-1119.1c-0.6,0-1.1-0.2-1.6-0.6c-1-0.9-1.2-2.4-0.3-3.5l15-17.8c0.9-1,2.4-1.2,3.5-0.3
			c1,0.9,1.2,2.4,0.3,3.5l-15,17.8C-3073.5-1119.4-3074.2-1119.1-3074.9-1119.1z"/>
	</g>
	<g>
		<path class="st10" d="M-3067.4-1117.7h-15c-1.4,0-2.5-1.1-2.5-2.5l0,0c0-1.4,1.1-2.5,2.5-2.5h15c1.4,0,2.5,1.1,2.5,2.5l0,0
			C-3065-1118.8-3066.1-1117.7-3067.4-1117.7z"/>
	</g>
	<g>
		<line class="st13" x1="-3085.8" y1="-1212.5" x2="-3118.4" y2="-1212.5"/>
		<path class="st10" d="M-3085.8-1208.9h-32.6c-2,0-3.6-1.6-3.6-3.6s1.6-3.6,3.6-3.6h32.6c2,0,3.6,1.6,3.6,3.6
			S-3083.8-1208.9-3085.8-1208.9z"/>
	</g>
	<g>
		<g>
			<path class="st14" d="M-3144.6-997.8v4.5h3.2v3.5h-3.2v9.4c0,0.7,0.1,1.2,0.4,1.5c0.3,0.3,0.7,0.5,1.2,0.5c0.3,0,0.6,0,0.9,0
				c0.3,0,0.5-0.1,0.9-0.1l0.4,3.6c-0.6,0.2-1.1,0.3-1.7,0.4c-0.5,0.1-1.1,0.1-1.8,0.1c-1.7,0-3-0.5-4-1.4c-0.9-0.9-1.4-2.4-1.4-4.5
				v-9.4h-2.7v-3.5h2.7v-4.5H-3144.6z"/>
		</g>
		<g>
			<path class="st14" d="M-3112.5-990.3l-1.9,0.2l-3.9,15.2h-4.2l-3.4-11h-0.1l-3.4,11h-4.2l-3.9-15.2l-1.9-0.2v-3h8.4v3l-2,0.4
				l1.7,8.5h0.1l3.5-11.8h3.3l3.5,11.9h0.1l1.7-8.5l-2-0.4v-3h8.4V-990.3z"/>
		</g>
		<g>
			<path class="st14" d="M-3110.8-984.2c0-2.8,0.8-5,2.3-6.8c1.5-1.8,3.7-2.6,6.4-2.6c2.7,0,4.9,0.9,6.4,2.6c1.5,1.8,2.3,4,2.3,6.8
				v0.4c0,2.8-0.8,5-2.3,6.8c-1.5,1.7-3.7,2.6-6.4,2.6c-2.7,0-4.9-0.9-6.4-2.6c-1.5-1.7-2.3-4-2.3-6.8V-984.2z M-3105.8-983.9
				c0,1.7,0.3,3,0.9,4.1c0.6,1,1.5,1.5,2.9,1.5c1.3,0,2.2-0.5,2.8-1.5c0.6-1,0.9-2.4,0.9-4v-0.4c0-1.6-0.3-3-0.9-4
				c-0.6-1-1.6-1.6-2.9-1.6s-2.2,0.5-2.8,1.6c-0.6,1-0.9,2.4-0.9,4V-983.9z"/>
		</g>
		<g>
			<path class="st14" d="M-3056.3-990.3l-1.9,0.2l-3.9,15.2h-4.2l-3.4-11h-0.1l-3.4,11h-4.2l-3.9-15.2l-1.9-0.2v-3h8.4v3l-2,0.4
				l1.7,8.5h0.1l3.5-11.8h3.3l3.5,11.9h0.1l1.7-8.5l-2-0.4v-3h8.4V-990.3z"/>
		</g>
		<g>
			<path class="st14" d="M-3054.8-977.8l2.4-0.5v-19.6l-2.7-0.5v-3h7.6v10.5c0.6-0.9,1.3-1.5,2.1-2c0.8-0.5,1.8-0.7,2.8-0.7
				c1.9,0,3.5,0.6,4.6,1.9c1.1,1.3,1.6,3.3,1.6,5.9v7.5l2.4,0.5v3h-9.5v-3l2.2-0.5v-7.5c0-1.4-0.3-2.5-0.8-3.1
				c-0.5-0.6-1.3-0.9-2.3-0.9c-0.7,0-1.3,0.1-1.8,0.4c-0.5,0.3-1,0.6-1.3,1.1v10l2.2,0.5v3h-9.5V-977.8z"/>
		</g>
		<g>
			<path class="st14" d="M-3023.6-974.5c-2.7,0-4.8-0.9-6.4-2.6c-1.6-1.7-2.4-3.9-2.4-6.5v-0.7c0-2.7,0.8-5,2.3-6.8s3.5-2.7,6.1-2.6
				c2.5,0,4.4,0.8,5.8,2.3c1.4,1.5,2.1,3.5,2.1,6.1v2.7h-11l0,0.1c0.1,1.2,0.5,2.2,1.2,3s1.7,1.2,2.9,1.2c1.1,0,2-0.1,2.8-0.3
				c0.7-0.2,1.5-0.6,2.4-1.1l1.3,3.1c-0.8,0.6-1.8,1.1-3,1.5C-3020.8-974.7-3022.1-974.5-3023.6-974.5z M-3024.1-989.8
				c-0.9,0-1.7,0.4-2.2,1.1c-0.5,0.7-0.9,1.6-1,2.8l0.1,0.1h6.1v-0.4c0-1.1-0.2-1.9-0.7-2.5
				C-3022.3-989.5-3023.1-989.8-3024.1-989.8z"/>
		</g>
		<g>
			<path class="st14" d="M-3005-974.5c-2.7,0-4.8-0.9-6.4-2.6c-1.6-1.7-2.4-3.9-2.4-6.5v-0.7c0-2.7,0.8-5,2.3-6.8s3.5-2.7,6.1-2.6
				c2.5,0,4.4,0.8,5.8,2.3c1.4,1.5,2.1,3.5,2.1,6.1v2.7h-11l0,0.1c0.1,1.2,0.5,2.2,1.2,3s1.7,1.2,2.9,1.2c1.1,0,2-0.1,2.8-0.3
				c0.7-0.2,1.5-0.6,2.4-1.1l1.3,3.1c-0.8,0.6-1.8,1.1-3,1.5C-3002.1-974.7-3003.5-974.5-3005-974.5z M-3005.4-989.8
				c-0.9,0-1.7,0.4-2.2,1.1c-0.5,0.7-0.9,1.6-1,2.8l0.1,0.1h6.1v-0.4c0-1.1-0.2-1.9-0.7-2.5
				C-3003.7-989.5-3004.4-989.8-3005.4-989.8z"/>
		</g>
		<g>
			<path class="st14" d="M-2995.7-998.5v-3h7.7v23.2l2.4,0.5v3h-9.8v-3l2.4-0.5v-19.6L-2995.7-998.5z"/>
		</g>
		<g>
			<path class="st14" d="M-2968.9-986.9h-3.3l-0.5-2.3c-0.3-0.3-0.8-0.5-1.3-0.7c-0.5-0.2-1.1-0.3-1.7-0.3c-0.9,0-1.6,0.2-2.1,0.6
				c-0.5,0.4-0.8,0.9-0.8,1.5c0,0.6,0.2,1,0.7,1.4c0.5,0.4,1.5,0.7,2.9,1c2.3,0.5,4,1.1,5.1,2c1.1,0.9,1.7,2.1,1.7,3.6
				c0,1.7-0.7,3-2.1,4.1c-1.4,1.1-3.3,1.6-5.6,1.6c-1.4,0-2.7-0.2-3.9-0.6c-1.2-0.4-2.2-1-3.2-1.8l-0.1-4.2h3.5l0.7,2.4
				c0.3,0.3,0.7,0.4,1.2,0.6c0.5,0.1,1,0.2,1.6,0.2c1,0,1.8-0.2,2.3-0.5c0.5-0.4,0.8-0.9,0.8-1.5c0-0.5-0.3-1-0.8-1.4
				c-0.5-0.4-1.5-0.8-3-1.1c-2.2-0.4-3.8-1.1-4.9-2c-1.1-0.9-1.7-2.1-1.7-3.6c0-1.5,0.6-2.9,1.9-4c1.3-1.1,3.1-1.7,5.5-1.7
				c1.4,0,2.8,0.2,4.1,0.6c1.3,0.4,2.3,0.9,3,1.5L-2968.9-986.9z"/>
		</g>
	</g>
</g>
<g>
	<g>
		<g>
			<path class="st14" d="M-2712-991.1v4.5h3.2v3.5h-3.2v9.4c0,0.7,0.1,1.2,0.4,1.5c0.3,0.3,0.7,0.5,1.2,0.5c0.3,0,0.6,0,0.9,0
				c0.3,0,0.5-0.1,0.9-0.1l0.4,3.6c-0.6,0.2-1.1,0.3-1.7,0.4c-0.5,0.1-1.1,0.1-1.8,0.1c-1.7,0-3-0.5-4-1.4c-0.9-0.9-1.4-2.4-1.4-4.5
				v-9.4h-2.7v-3.5h2.7v-4.5H-2712z"/>
		</g>
		<g>
			<path class="st14" d="M-2680-983.6l-1.9,0.2l-3.9,15.2h-4.2l-3.4-11h-0.1l-3.4,11h-4.2l-3.9-15.2l-1.9-0.2v-3h8.4v3l-2,0.4
				l1.7,8.5h0.1l3.5-11.8h3.3l3.5,11.9h0.1l1.7-8.5l-2-0.4v-3h8.4V-983.6z"/>
		</g>
		<g>
			<path class="st14" d="M-2678.2-977.5c0-2.8,0.8-5,2.3-6.8c1.5-1.8,3.7-2.6,6.4-2.6c2.7,0,4.9,0.9,6.4,2.6c1.5,1.8,2.3,4,2.3,6.8
				v0.4c0,2.8-0.8,5-2.3,6.8c-1.5,1.7-3.7,2.6-6.4,2.6c-2.7,0-4.9-0.9-6.4-2.6c-1.5-1.7-2.3-4-2.3-6.8V-977.5z M-2673.3-977.1
				c0,1.7,0.3,3,0.9,4.1c0.6,1,1.5,1.5,2.9,1.5c1.3,0,2.2-0.5,2.8-1.5c0.6-1,0.9-2.4,0.9-4v-0.4c0-1.6-0.3-3-0.9-4
				c-0.6-1-1.6-1.6-2.9-1.6s-2.2,0.5-2.8,1.6c-0.6,1-0.9,2.4-0.9,4V-977.1z"/>
		</g>
		<g>
			<path class="st14" d="M-2649.8-971.1l2.4-0.5v-11.5h-2.8v-3.5h2.8v-2.1c0-2.1,0.6-3.7,1.8-4.8c1.2-1.1,2.9-1.7,5-1.7
				c0.4,0,0.9,0,1.3,0.1s0.9,0.2,1.4,0.3l-0.4,3.7c-0.3,0-0.5-0.1-0.8-0.1c-0.3,0-0.6-0.1-0.9-0.1c-0.8,0-1.4,0.2-1.8,0.7
				c-0.4,0.4-0.6,1.1-0.6,1.9v2.1h3.7v3.5h-3.7v11.5l2.4,0.5v3h-9.8V-971.1z"/>
		</g>
		<g>
			<path class="st14" d="M-2628.6-967.7c-2.7,0-4.8-0.9-6.4-2.6c-1.6-1.7-2.4-3.9-2.4-6.5v-0.7c0-2.7,0.8-5,2.3-6.8s3.5-2.7,6.1-2.6
				c2.5,0,4.4,0.8,5.8,2.3c1.4,1.5,2.1,3.5,2.1,6.1v2.7h-11l0,0.1c0.1,1.2,0.5,2.2,1.2,3s1.7,1.2,2.9,1.2c1.1,0,2-0.1,2.8-0.3
				c0.7-0.2,1.5-0.6,2.4-1.1l1.3,3.1c-0.8,0.6-1.8,1.1-3,1.5C-2625.7-967.9-2627.1-967.7-2628.6-967.7z M-2629-983.1
				c-0.9,0-1.7,0.4-2.2,1.1c-0.5,0.7-0.9,1.6-1,2.8l0.1,0.1h6.1v-0.4c0-1.1-0.2-1.9-0.7-2.5C-2627.3-982.8-2628-983.1-2629-983.1z"
				/>
		</g>
		<g>
			<path class="st14" d="M-2609.9-967.7c-2.7,0-4.8-0.9-6.4-2.6c-1.6-1.7-2.4-3.9-2.4-6.5v-0.7c0-2.7,0.8-5,2.3-6.8s3.5-2.7,6.1-2.6
				c2.5,0,4.4,0.8,5.8,2.3c1.4,1.5,2.1,3.5,2.1,6.1v2.7h-11l0,0.1c0.1,1.2,0.5,2.2,1.2,3s1.7,1.2,2.9,1.2c1.1,0,2-0.1,2.8-0.3
				c0.7-0.2,1.5-0.6,2.4-1.1l1.3,3.1c-0.8,0.6-1.8,1.1-3,1.5C-2607.1-967.9-2608.4-967.7-2609.9-967.7z M-2610.4-983.1
				c-0.9,0-1.7,0.4-2.2,1.1c-0.5,0.7-0.9,1.6-1,2.8l0.1,0.1h6.1v-0.4c0-1.1-0.2-1.9-0.7-2.5
				C-2608.6-982.8-2609.4-983.1-2610.4-983.1z"/>
		</g>
		<g>
			<path class="st14" d="M-2592.8-991.1v4.5h3.2v3.5h-3.2v9.4c0,0.7,0.1,1.2,0.4,1.5c0.3,0.3,0.7,0.5,1.2,0.5c0.3,0,0.6,0,0.9,0
				c0.3,0,0.5-0.1,0.9-0.1l0.4,3.6c-0.6,0.2-1.1,0.3-1.7,0.4c-0.5,0.1-1.1,0.1-1.8,0.1c-1.7,0-3-0.5-4-1.4c-0.9-0.9-1.4-2.4-1.4-4.5
				v-9.4h-2.7v-3.5h2.7v-4.5H-2592.8z"/>
		</g>
	</g>
	<g>
		<path class="st1" d="M-2784.4-1102.2c0.1,0,0.3,0,0.4,0h262.7c0.1,0,0.3,0,0.4,0c7.1,0,12.8,0.2,12.8,7.3
			c0,10.6-2.8,14.8-6.9,16.9l0,0c0,0,0,0,0,0c-1.8,0.9-3.8,1.4-5.9,1.4c0,0-5.9,0-11,0s-9,5.5-9,11c0,11.7,11.1,11.3,11.2,11.4
			c5.4,0,9.8,4.4,9.8,9.8s-4.4,9.8-9.8,9.8c-0.6,0-213.7,0.1-214.4,0.1c-5.5,0-9.9-4.4-9.9-16.3c0-5.5,4.4-3.6,9.9-3.6
			c0.2,0,0.3,0,0.5,0c0.1,0,0.2,0,0.4,0c3.5,0,6.4-2.8,6.4-6.4s-2.8-6.4-6.4-6.4c-0.4,0-2.4,0-3.1,0c-5,0-16.3,0-21,0
			c-4.7,0-8.8-2.6-8.8-9.4h-8.1c-7.1,0-12.8-5.7-12.8-12.8c0-0.3,0.1-7.9,0.1-7.9S-2790.6-1102.2-2784.4-1102.2z"/>
	</g>
	<g>
		<rect x="-2770.8" y="-1245.7" class="st2" width="3.3" height="135.7"/>
	</g>
	<g>
		<rect x="-2549.8" y="-1242.5" class="st2" width="3.3" height="117.7"/>
	</g>
	<g>
		<path class="st4" d="M-2769.6-1161.6c0,0,30.9,0.3,30.9-37.1c0-30.3-30.9-98.5-30.9-98.5s-30.9,68.2-30.9,98.5
			C-2800.5-1161.3-2769.6-1161.6-2769.6-1161.6z"/>
	</g>
	<g>
		<path class="st3" d="M-2769.6-1297.2v135.6c0,0-30.9,0.3-30.9-37.1C-2800.5-1228.9-2769.6-1297.2-2769.6-1297.2z"/>
	</g>
	<g>
		<rect x="-2739.8" y="-1177.3" class="st2" width="3.3" height="62.2"/>
	</g>
	<g>
		<path class="st3" d="M-2738.1-1156.9c0,0-18.8,0.2-18.8-22.6c0-18.4,18.8-60,18.8-60s18.8,41.6,18.8,60
			C-2719.3-1156.7-2738.1-1156.9-2738.1-1156.9z"/>
	</g>
	<g>
		<path class="st4" d="M-2738.1-1239.6v82.6c0,0,18.8,0.2,18.8-22.6C-2719.3-1198-2738.1-1239.6-2738.1-1239.6z"/>
	</g>
	<g>
		<path class="st4" d="M-2548.2-1196.8c0,0,30.5,0.3,30.5-36.6c0-29.9-30.5-97.3-30.5-97.3s-30.5,67.4-30.5,97.3
			C-2578.7-1196.5-2548.2-1196.8-2548.2-1196.8z"/>
	</g>
	<g>
		<path class="st3" d="M-2548.2-1330.7v133.9c0,0-30.5,0.3-30.5-36.6C-2578.7-1263.3-2548.2-1330.7-2548.2-1330.7z"/>
	</g>
	<g>
		<rect x="-2584.9" y="-1205.3" class="st2" width="3.3" height="117.7"/>
	</g>
	<g>
		<path class="st4" d="M-2583.2-1159.6c0,0,21.4,0.2,21.4-25.7c0-21-21.4-68.2-21.4-68.2s-21.4,47.3-21.4,68.2
			C-2604.6-1159.4-2583.2-1159.6-2583.2-1159.6z"/>
	</g>
	<g>
		<path class="st3" d="M-2583.2-1253.6v93.9c0,0-21.4,0.2-21.4-25.7C-2604.6-1206.3-2583.2-1253.6-2583.2-1253.6z"/>
	</g>
	<g>
		<g>
			<path class="st5" d="M-2771.3-1132.2c0,0,17.8-11.4,29.3,0.1c13.1,13.1,25.4,0,25.4,0s13.7-13,26.7,0.1c13.1,13.1,25.4,0,25.4,0
				s13.7-13,26.7,0.1c13.1,13.1,25.2,0.1,25.2,0.1s13.8-13.1,26.9,0c13.1,13.1,25.4,0,25.4,0s10.2-10.5,26.7-0.6
				c6.5,3.9,14.2,15.2,15.9,26.4l-2,9.7h-249.4l0,0h-23.8l-0.2-8.9C-2786.4-1115.1-2779.8-1125.1-2771.3-1132.2z"/>
		</g>
		<g>
			<circle class="st6" cx="-2541.1" cy="-1126.1" r="2"/>
		</g>
		<g>
			<circle class="st6" cx="-2697.7" cy="-1124.7" r="1.1"/>
		</g>
		<g>
			<circle class="st6" cx="-2671.9" cy="-1115.1" r="1.1"/>
		</g>
		<g>
			<circle class="st6" cx="-2590" cy="-1124.1" r="1.1"/>
		</g>
		<g>
			<circle class="st6" cx="-2773.8" cy="-1120" r="1.1"/>
		</g>
		<g>
			<circle class="st6" cx="-2532.1" cy="-1119.1" r="1.1"/>
		</g>
		<g>
			<circle class="st6" cx="-2609.6" cy="-1120" r="1.1"/>
		</g>
		<g>
			<circle class="st6" cx="-2758.5" cy="-1125" r="2"/>
		</g>
	</g>
	<g>
		<path class="st7" d="M-2784.4-1108.6c0.1,0,0.3,0,0.4,0h262.7c0.1,0,0.3,0,0.4,0c7.1,0,12.8,5.7,12.8,12.8c0,5-2.8,9.2-6.9,11.4
			l0,0c0,0,0,0,0,0c-1.8,0.9-3.8,1.4-5.9,1.4c0,0-7.3,0-11,0c-3.6,0-9,5.5-9,11c0,11.7,11.1,11.3,11.2,11.4c5.4,0,9.8,4.4,9.8,9.8
			c0,5.4-4.4,9.8-9.8,9.8c-0.6,0-213.7,0.1-214.4,0.1c-5.5,0-9.9-4.4-9.9-9.9c0-5.5,4.4-9.9,9.9-9.9c0.2,0,0.3,0,0.5,0
			c0.1,0,0.2,0,0.4,0c3.5,0,6.4-2.8,6.4-6.4s-2.8-6.4-6.4-6.4c-0.4,0-2.4,0-3.1,0c-5,0-16.3,0-21,0c-4.7,0-8.8-2.6-8.8-9.4h-8.1
			c-7.1,0-12.8-5.7-12.8-12.8S-2791.5-1108.6-2784.4-1108.6z"/>
	</g>
	<g>
		<path class="st15" d="M-2741.7-1122.5"/>
	</g>
	<g>
		<path class="st16" d="M-2631.1-1231c5,2.8,9.1,5.2,9.8,5.5c1.8,0.9,3.5,4.2,3.5,4.2l7.3,27.9c0.7,1.6,0.9,3.4,0.4,5.2
			c-1.1,4.2-5.5,6.7-9.7,5.6c-3.6-1-6-4.3-5.9-7.9l-5.2-22.5l-2.9-1.7L-2631.1-1231"/>
	</g>
	<g>
		<path class="st16" d="M-2683.2-1213.7l-4.9,7.9c0,0-12.6,2.5-16.9,3.4c-3.9,0.5-6.9,3.9-6.8,7.9c0.1,4.3,3.7,7.7,8,7.6
			c0.4,0,0.8-0.1,1.2-0.1c0,0,16.9-3,18.7-3.4c2.1-0.4,3.7-1.3,4.7-2.4c0.4-0.5,2.3-3.8,4-6.2l-9-12.2"/>
	</g>
	<g>
		<path class="st17" d="M-2671.3-1181.6l0.2-24.2l-4.1,6.7l-11.3-9.2c0,0,11.5-18.4,12.9-21.3c2.1-4.2,6.9-7.9,14.3-9.5
			c5.8-1.2,13.3,0,15.8,1.2c2.5,1.2,3.7,1.9,12.5,6.9c1.6,0.9,3.1,1.7,4.4,2.5l-7.1,13.9l-4.7-2.6c0.5,1.6-0.2,38.7-0.2,38.7"/>
	</g>
	<g>
		<path class="st9" d="M-2725.3-1090.4h118.8c2.3,0,5.8-0.9,6.7-4.2c1-3.3-2.8-4.2-5.1-4.2h-115.5c-2.3,0-6.9,1.9-8,4.2
			C-2729.3-1092.3-2727.6-1090.4-2725.3-1090.4z"/>
	</g>
	<g>
		<path class="st16" d="M-2621.6-1099.9c1.3,1.7,2.3,3,2.9,3.8c1.7,2.3,4.4,3.9,7.4,3.9c5,0,9.1-4.1,9.1-9.1c0-2.6-1.1-5-2.9-6.7
			l-1.7-2.5"/>
	</g>
	<g>
		<path class="st16" d="M-2621.6-1099.9c-7.4-10-23.4-33-25.3-35.2c-2.5-2.9-3.7-7.1-4-9l20.2-4.6l1.2,4.4l22.8,33.7L-2621.6-1099.9
			z"/>
	</g>
	<g>
		<path class="st18" d="M-2690-1157.2c0.6-0.7,18.7-24.3,18.7-24.3l32.7,3l8.2,29.9l-20.4,4.5c-0.4-1.9-7-22.8-7-22.8l-15.9,21.1
			L-2690-1157.2z"/>
	</g>
	<g>
		<path class="st16" d="M-2705.1-1109.3c2.5-10.8,7.6-33,9.5-38.6c0.8-2.4,4.9-8.6,5.6-9.3l16.3,11.4l-5,6.7l-8.7,35.3"/>
	</g>
	<g>
		<path class="st16" d="M-2705.1-1109.3c-0.5,2.2-0.9,4-1.2,5c0,0.1,0,0.1-0.1,0.2c0,0,0,0.1,0,0.1c-0.1,0.5-0.2,0.8-0.2,0.8l0,0
			c-0.7,4.6,2.3,9.1,6.9,10.2c4.6,1.1,9.3-1.5,10.9-5.8l0,0l1.2-5L-2705.1-1109.3z"/>
	</g>
	<g>
		<path class="st15" d="M-2709.9-1186.7l7.3-1.2c1.6-0.3,2.7-1.8,2.4-3.4l-3.2-19.4c-0.3-1.6-1.8-2.7-3.4-2.4l-7.3,1.2
			c-1.6,0.3-2.7,1.8-2.4,3.4l3.2,19.4C-2713-1187.6-2711.5-1186.5-2709.9-1186.7z"/>
	</g>
	<g>
		<path class="st19" d="M-2710.6-1190.1l7.6-1.3c0.6-0.1,1.1-0.7,1-1.3l-2.8-16.7c-0.1-0.6-0.7-1.1-1.3-1l-7.6,1.3
			c-0.6,0.1-1.1,0.7-1,1.3l2.8,16.7C-2711.9-1190.4-2711.3-1190-2710.6-1190.1z"/>
	</g>
	<g>
		<g>
			<path class="st17" d="M-2657.1-1280.6c-6.1,0-11.5,3.1-14.6,7.9l32,8.3C-2640.4-1273.5-2647.9-1280.6-2657.1-1280.6z"/>
		</g>
		<g>
			<path class="st16" d="M-2671.7-1272.8c-1.8,2.7-2.9,6-2.9,9.6c0,9.6,7.8,17.4,17.4,17.4c9.6,0,17.4-7.8,17.4-17.4
				c0-0.4,0-0.9-0.1-1.3L-2671.7-1272.8z"/>
		</g>
	</g>
	<g>
		<polygon class="st17" points="-2660.5,-1269.8 -2687.7,-1276.8 -2687.7,-1279 -2659.9,-1271.9 		"/>
	</g>
</g>
<g>
	<g>
		<g>
			<path class="st20" d="M-2294.5-1234.8h15.6c0.5,0,0.8,0.4,0.8,0.8v1.5c0,0.5-0.4,0.8-0.8,0.8h-15.6c-0.5,0-0.8-0.4-0.8-0.8v-1.5
				C-2295.4-1234.5-2295-1234.8-2294.5-1234.8z"/>
		</g>
	</g>
	<g>
		<g>
			<ellipse class="st20" cx="-2294.6" cy="-1233.2" rx="6.1" ry="1.6"/>
		</g>
	</g>
	<g>
		<g>
			<g>
				<path class="st20" d="M-2207.5-1134.2h15.6c0.5,0,0.8,0.4,0.8,0.8v1.5c0,0.5-0.4,0.8-0.8,0.8h-15.6c-0.5,0-0.8-0.4-0.8-0.8v-1.5
					C-2208.4-1133.8-2208-1134.2-2207.5-1134.2z"/>
			</g>
		</g>
		<g>
			<g>
				<ellipse class="st20" cx="-2207.6" cy="-1132.6" rx="6.1" ry="1.6"/>
			</g>
		</g>
	</g>
	<g>
		<g>
			<g>
				<path class="st20" d="M-2171.7-1134.2h15.6c0.5,0,0.8,0.4,0.8,0.8v1.5c0,0.5-0.4,0.8-0.8,0.8h-15.6c-0.5,0-0.8-0.4-0.8-0.8v-1.5
					C-2172.6-1133.8-2172.2-1134.2-2171.7-1134.2z"/>
			</g>
		</g>
		<g>
			<g>
				<ellipse class="st20" cx="-2171.8" cy="-1132.6" rx="6.1" ry="1.6"/>
			</g>
		</g>
	</g>
	<g>
		<g>
			<path class="st20" d="M-2330.2-1234.8h15.6c0.5,0,0.8,0.4,0.8,0.8v1.5c0,0.5-0.4,0.8-0.8,0.8h-15.6c-0.5,0-0.8-0.4-0.8-0.8v-1.5
				C-2331.1-1234.5-2330.7-1234.8-2330.2-1234.8z"/>
		</g>
	</g>
	<g>
		<g>
			<rect x="-2194.7" y="-1184.7" class="st2" width="3.7" height="53.7"/>
		</g>
	</g>
	<g>
		<g>
			<path class="st3" d="M-2192.7-1151c0,0-14.3,0.1-14.3-17.2c0-14.1,14.3-45.8,14.3-45.8s14.3,31.7,14.3,45.8
				C-2178.3-1150.9-2192.7-1151-2192.7-1151z"/>
		</g>
	</g>
	<g>
		<g>
			<path class="st4" d="M-2192.7-1214.1v63c0,0,14.3,0.1,14.3-17.2C-2178.3-1182.4-2192.7-1214.1-2192.7-1214.1z"/>
		</g>
	</g>
	<g>
		<g>
			<rect x="-2159" y="-1184.7" class="st2" width="3.7" height="53.7"/>
		</g>
	</g>
	<g>
		<g>
			<path class="st3" d="M-2156.9-1151c0,0-14.3,0.1-14.3-17.2c0-14.1,14.3-45.8,14.3-45.8s14.3,31.7,14.3,45.8
				C-2142.6-1150.9-2156.9-1151-2156.9-1151z"/>
		</g>
	</g>
	<g>
		<g>
			<path class="st4" d="M-2156.9-1214.1v63c0,0,14.3,0.1,14.3-17.2C-2142.6-1182.4-2156.9-1214.1-2156.9-1214.1z"/>
		</g>
	</g>
	<g>
		<g>
			<rect x="-2317.5" y="-1285.3" class="st2" width="3.7" height="53.7"/>
		</g>
	</g>
	<g>
		<g>
			<path class="st3" d="M-2315.4-1251.7c0,0-14.3,0.1-14.3-17.2c0-14.1,14.3-45.8,14.3-45.8s14.3,31.7,14.3,45.8
				C-2301.1-1251.6-2315.4-1251.7-2315.4-1251.7z"/>
		</g>
	</g>
	<g>
		<g>
			<path class="st4" d="M-2315.4-1314.7v63c0,0,14.3,0.1,14.3-17.2C-2301.1-1283-2315.4-1314.7-2315.4-1314.7z"/>
		</g>
	</g>
	<g>
		<g>
			<rect x="-2281.7" y="-1285.3" class="st2" width="3.7" height="53.7"/>
		</g>
	</g>
	<g>
		<g>
			<path class="st3" d="M-2279.7-1251.7c0,0-14.3,0.1-14.3-17.2c0-14.1,14.3-45.8,14.3-45.8s14.3,31.7,14.3,45.8
				C-2265.3-1251.6-2279.7-1251.7-2279.7-1251.7z"/>
		</g>
	</g>
	<g>
		<g>
			<path class="st4" d="M-2279.7-1314.7v63c0,0,14.3,0.1,14.3-17.2C-2265.3-1283-2279.7-1314.7-2279.7-1314.7z"/>
		</g>
	</g>
	<g>
		<g>
			<path class="st0" d="M-2086.1-1185c0,12.6-22.8,44.2-22.8,44.2s-22.8-31.6-22.8-44.2s10.2-22.8,22.8-22.8
				C-2096.3-1207.8-2086.1-1197.6-2086.1-1185z"/>
		</g>
	</g>
	<g>
		<g>
			<circle class="st13" cx="-2108.9" cy="-1184" r="11.5"/>
		</g>
	</g>
	<g>
		<g>
			<path class="st0" d="M-2340.5-1287.1c0,12.6-22.8,44.2-22.8,44.2s-22.8-31.6-22.8-44.2s10.2-22.8,22.8-22.8
				C-2350.7-1309.9-2340.5-1299.6-2340.5-1287.1z"/>
		</g>
	</g>
	<g>
		<g>
			<circle class="st13" cx="-2363.3" cy="-1286" r="11.5"/>
		</g>
	</g>
	<g>
		<g>
			<g>
				<g>
					<g>
						<path class="st21" d="M-2252.1-1142.9h-16c-5.6,0-10.1-4.5-10.1-10.1s4.5-10.1,10.1-10.1h16c4.2,0,14.1,0,14.1-16.5
							c0-4.3-1.1-8.5-2.9-11.3c-1.4-2.2-4.1-5.1-11.2-5.1h-111.3c-5.6,0-10.1-4.5-10.1-10.1c0-0.7,0-3.5,0-3.5s4.6-6.6,10.1-6.6
							h111.3c23.6,0,34.3,33.5,34.3,33.5s0,3,0,3.1C-2217.7-1156.9-2230.9-1142.9-2252.1-1142.9z"/>
					</g>
				</g>
			</g>
			<g>
				<g>
					<g>
						<path class="st21" d="M-2107.1-1094.3H-2282c-23.7,0-34.3-18.1-34.3-36.1c0-0.5,0-3.9,0-3.9s10.9-28.7,34.3-28.7h12.1
							c5.6,0,10.1,4.5,10.1,10.1s-4.5,10.1-10.1,10.1h-12.1c-4.3,0-14.1,1.2-14.1,12.4c0,4.2,1.1,8.3,2.9,11c1.4,2.1,4.1,5,11.3,5
							h174.9c5.5,0,10.1,6.3,10.1,6.3s0,3.4,0,3.8C-2097-1098.8-2101.6-1094.3-2107.1-1094.3z"/>
					</g>
				</g>
			</g>
		</g>
		<g>
			<g>
				<g>
					<path class="st3" d="M-2252.1-1146.9h-16c-5.6,0-10.1-4.5-10.1-10.1s4.5-10.1,10.1-10.1h16c4.2,0,14.1,0,14.1-16.5
						c0-4.3-1.1-8.5-2.9-11.3c-1.4-2.2-4.1-5.1-11.2-5.1h-111.3c-5.6,0-10.1-4.5-10.1-10.1s4.5-10.1,10.1-10.1h111.3
						c23.7,0,34.3,18.4,34.3,36.6C-2217.7-1160.9-2230.9-1146.9-2252.1-1146.9z"/>
				</g>
			</g>
			<g>
				<g>
					<path class="st3" d="M-2107.1-1098.3H-2282c-23.7,0-34.3-18.1-34.3-36.1c0-15.7,10.7-32.6,34.3-32.6h12.1
						c5.6,0,10.1,4.5,10.1,10.1s-4.5,10.1-10.1,10.1h-12.1c-4.3,0-14.1,1.2-14.1,12.4c0,4.2,1.1,8.3,2.9,11
						c1.4,2.1,4.1,4.9,11.3,4.9h174.9c5.6,0,10.1,4.5,10.1,10.1S-2101.6-1098.3-2107.1-1098.3z"/>
				</g>
			</g>
		</g>
	</g>
	<g>
		<g>
			<g>
				<path class="st14" d="M-2357.8-1041.7h-3.3l-0.5-2.3c-0.3-0.3-0.8-0.5-1.3-0.7s-1.1-0.3-1.7-0.3c-0.9,0-1.6,0.2-2.1,0.6
					c-0.5,0.4-0.8,0.9-0.8,1.5c0,0.6,0.2,1,0.7,1.4c0.5,0.4,1.5,0.7,2.9,1c2.3,0.5,4,1.1,5.1,2c1.1,0.9,1.7,2.1,1.7,3.6
					c0,1.7-0.7,3-2.1,4.1c-1.4,1.1-3.3,1.6-5.6,1.6c-1.4,0-2.7-0.2-3.9-0.6c-1.2-0.4-2.2-1-3.2-1.8l-0.1-4.2h3.5l0.7,2.4
					c0.3,0.3,0.7,0.4,1.2,0.6c0.5,0.1,1,0.2,1.6,0.2c1,0,1.8-0.2,2.3-0.5c0.5-0.4,0.8-0.9,0.8-1.5c0-0.5-0.3-1-0.8-1.4
					c-0.5-0.4-1.5-0.8-3-1.1c-2.2-0.4-3.8-1.1-4.9-2c-1.1-0.9-1.7-2.1-1.7-3.6c0-1.5,0.6-2.9,1.9-4c1.3-1.1,3.1-1.7,5.5-1.7
					c1.4,0,2.8,0.2,4.1,0.6c1.3,0.4,2.3,0.9,3,1.5L-2357.8-1041.7z"/>
			</g>
		</g>
		<g>
			<g>
				<path class="st14" d="M-2354.9-1038.9c0-2.8,0.8-5,2.3-6.8c1.5-1.8,3.7-2.6,6.4-2.6c2.7,0,4.9,0.9,6.4,2.6
					c1.5,1.8,2.3,4,2.3,6.8v0.4c0,2.8-0.8,5-2.3,6.8c-1.5,1.8-3.7,2.6-6.4,2.6c-2.7,0-4.9-0.9-6.4-2.6c-1.5-1.7-2.3-4-2.3-6.8
					V-1038.9z M-2349.9-1038.6c0,1.7,0.3,3,0.9,4.1c0.6,1,1.5,1.5,2.9,1.5c1.3,0,2.2-0.5,2.8-1.5c0.6-1,0.9-2.4,0.9-4.1v-0.4
					c0-1.6-0.3-3-0.9-4c-0.6-1-1.6-1.6-2.9-1.6s-2.2,0.5-2.8,1.6c-0.6,1-0.9,2.4-0.9,4V-1038.6z"/>
			</g>
		</g>
		<g>
			<g>
				<path class="st14" d="M-2335.9-1045v-3h7.3l0.2,2.4c0.6-0.9,1.3-1.6,2.2-2.1c0.9-0.5,1.9-0.7,3.1-0.7c1.2,0,2.2,0.3,3,0.8
					c0.8,0.5,1.5,1.3,1.9,2.4c0.6-1,1.3-1.8,2.2-2.3c0.9-0.6,2-0.8,3.2-0.8c1.8,0,3.3,0.6,4.3,1.9c1.1,1.3,1.6,3.2,1.6,5.8v7.7
					l2.4,0.5v3h-9.6v-3l2.2-0.5v-7.7c0-1.4-0.2-2.4-0.7-2.9c-0.5-0.5-1.1-0.8-2-0.8c-0.7,0-1.3,0.2-1.8,0.5
					c-0.5,0.3-0.9,0.7-1.2,1.3c0,0.2,0,0.4,0,0.6c0,0.2,0,0.3,0,0.5v8.6l2,0.5v3h-9v-3l2-0.5v-7.7c0-1.4-0.2-2.3-0.7-2.9
					c-0.5-0.6-1.1-0.8-2.1-0.8c-0.7,0-1.3,0.1-1.8,0.4c-0.5,0.3-0.9,0.6-1.3,1.1v10l2.2,0.5v3h-9.5v-3l2.4-0.5v-11.5L-2335.9-1045z"
					/>
			</g>
		</g>
		<g>
			<g>
				<path class="st14" d="M-2294-1029.2c-2.7,0-4.8-0.9-6.4-2.6c-1.6-1.7-2.4-3.9-2.4-6.5v-0.7c0-2.7,0.8-5,2.3-6.8s3.5-2.7,6.1-2.6
					c2.5,0,4.4,0.8,5.8,2.3c1.4,1.5,2.1,3.5,2.1,6.1v2.7h-11l0,0.1c0.1,1.2,0.5,2.2,1.2,3s1.7,1.2,2.9,1.2c1.1,0,2-0.1,2.8-0.3
					c0.7-0.2,1.5-0.6,2.4-1.1l1.3,3.1c-0.8,0.6-1.8,1.1-3,1.5C-2291.2-1029.4-2292.5-1029.2-2294-1029.2z M-2294.5-1044.5
					c-0.9,0-1.7,0.4-2.2,1.1c-0.5,0.7-0.9,1.6-1,2.8l0.1,0.1h6.1v-0.4c0-1.1-0.2-1.9-0.7-2.5
					C-2292.7-1044.2-2293.5-1044.5-2294.5-1044.5z"/>
			</g>
		</g>
		<g>
			<g>
				<path class="st14" d="M-2257.9-1045l-1.9,0.2l-3.9,15.2h-4.2l-3.4-11h-0.1l-3.4,11h-4.2l-3.9-15.2l-1.9-0.2v-3h8.4v3l-2,0.4
					l1.7,8.5h0.1l3.5-11.8h3.3l3.5,11.9h0.1l1.7-8.5l-2-0.4v-3h8.4V-1045z"/>
			</g>
		</g>
		<g>
			<g>
				<path class="st14" d="M-2256.5-1032.5l2.4-0.5v-19.6l-2.7-0.5v-3h7.6v10.5c0.6-0.9,1.3-1.5,2.1-2c0.8-0.5,1.8-0.7,2.8-0.7
					c1.9,0,3.5,0.6,4.6,1.9c1.1,1.3,1.6,3.3,1.6,5.9v7.5l2.4,0.5v3h-9.5v-3l2.2-0.5v-7.5c0-1.4-0.3-2.5-0.8-3.1
					c-0.5-0.6-1.3-0.9-2.3-0.9c-0.7,0-1.3,0.1-1.8,0.4s-1,0.6-1.3,1.1v10l2.2,0.5v3h-9.5V-1032.5z"/>
			</g>
		</g>
		<g>
			<g>
				<path class="st14" d="M-2225.3-1029.2c-2.7,0-4.8-0.9-6.4-2.6c-1.6-1.7-2.4-3.9-2.4-6.5v-0.7c0-2.7,0.8-5,2.3-6.8
					s3.5-2.7,6.1-2.6c2.5,0,4.4,0.8,5.8,2.3c1.4,1.5,2.1,3.5,2.1,6.1v2.7h-11l0,0.1c0.1,1.2,0.5,2.2,1.2,3s1.7,1.2,2.9,1.2
					c1.1,0,2-0.1,2.8-0.3c0.7-0.2,1.5-0.6,2.4-1.1l1.3,3.1c-0.8,0.6-1.8,1.1-3,1.5C-2222.4-1029.4-2223.8-1029.2-2225.3-1029.2z
					 M-2225.7-1044.5c-0.9,0-1.7,0.4-2.2,1.1c-0.5,0.7-0.9,1.6-1,2.8l0.1,0.1h6.1v-0.4c0-1.1-0.2-1.9-0.7-2.5
					C-2223.9-1044.2-2224.7-1044.5-2225.7-1044.5z"/>
			</g>
		</g>
		<g>
			<g>
				<path class="st14" d="M-2215.1-1032.5l2.4-0.5v-11.5l-2.6-0.5v-3h7.3l0.2,2.7c0.4-1,1-1.7,1.7-2.2s1.5-0.8,2.4-0.8
					c0.3,0,0.5,0,0.8,0.1c0.3,0,0.5,0.1,0.7,0.1l-0.5,4.5l-2.1-0.1c-0.7,0-1.3,0.1-1.8,0.4c-0.5,0.3-0.8,0.7-1.1,1.2v9l2.4,0.5v3
					h-9.8V-1032.5z"/>
			</g>
		</g>
		<g>
			<g>
				<path class="st14" d="M-2192.2-1029.2c-2.7,0-4.8-0.9-6.4-2.6c-1.6-1.7-2.4-3.9-2.4-6.5v-0.7c0-2.7,0.8-5,2.3-6.8
					s3.5-2.7,6.1-2.6c2.5,0,4.4,0.8,5.8,2.3c1.4,1.5,2.1,3.5,2.1,6.1v2.7h-11l0,0.1c0.1,1.2,0.5,2.2,1.2,3s1.7,1.2,2.9,1.2
					c1.1,0,2-0.1,2.8-0.3c0.7-0.2,1.5-0.6,2.4-1.1l1.3,3.1c-0.8,0.6-1.8,1.1-3,1.5C-2189.4-1029.4-2190.7-1029.2-2192.2-1029.2z
					 M-2192.6-1044.5c-0.9,0-1.7,0.4-2.2,1.1c-0.5,0.7-0.9,1.6-1,2.8l0.1,0.1h6.1v-0.4c0-1.1-0.2-1.9-0.7-2.5
					C-2190.9-1044.2-2191.6-1044.5-2192.6-1044.5z"/>
			</g>
		</g>
		<g>
			<g>
				<path class="st14" d="M-2166.5-1052.5v4.5h3.2v3.5h-3.2v9.4c0,0.7,0.1,1.2,0.4,1.5c0.3,0.3,0.7,0.5,1.2,0.5c0.3,0,0.6,0,0.9,0
					c0.3,0,0.5-0.1,0.9-0.1l0.4,3.6c-0.6,0.2-1.1,0.3-1.7,0.4c-0.5,0.1-1.1,0.1-1.8,0.1c-1.7,0-3-0.5-4-1.4
					c-0.9-0.9-1.4-2.4-1.4-4.5v-9.4h-2.7v-3.5h2.7v-4.5H-2166.5z"/>
			</g>
		</g>
		<g>
			<g>
				<path class="st14" d="M-2161.3-1038.9c0-2.8,0.8-5,2.3-6.8c1.5-1.8,3.7-2.6,6.4-2.6c2.7,0,4.9,0.9,6.4,2.6
					c1.5,1.8,2.3,4,2.3,6.8v0.4c0,2.8-0.8,5-2.3,6.8c-1.5,1.8-3.7,2.6-6.4,2.6c-2.7,0-4.9-0.9-6.4-2.6c-1.5-1.7-2.3-4-2.3-6.8
					V-1038.9z M-2156.3-1038.6c0,1.7,0.3,3,0.9,4.1c0.6,1,1.5,1.5,2.9,1.5c1.3,0,2.2-0.5,2.8-1.5c0.6-1,0.9-2.4,0.9-4.1v-0.4
					c0-1.6-0.3-3-0.9-4c-0.6-1-1.6-1.6-2.9-1.6s-2.2,0.5-2.8,1.6c-0.6,1-0.9,2.4-0.9,4V-1038.6z"/>
			</g>
		</g>
		<g>
			<g>
				<path class="st14" d="M-2115.2-1038.3c0,2.8-0.6,5-1.8,6.6c-1.2,1.7-3,2.5-5.3,2.5c-1.1,0-2-0.2-2.8-0.7c-0.8-0.4-1.5-1.1-2-2
					l-0.4,2.3h-4.3v-23.1l-2.6-0.5v-3h7.6v10.1c0.5-0.7,1.2-1.3,1.9-1.7c0.7-0.4,1.6-0.6,2.6-0.6c2.3,0,4.1,0.9,5.4,2.7
					c1.2,1.8,1.8,4.1,1.8,7.1V-1038.3z M-2120.2-1038.6c0-1.8-0.3-3.2-0.8-4.3c-0.5-1.1-1.4-1.6-2.7-1.6c-0.8,0-1.4,0.2-2,0.5
					c-0.5,0.3-1,0.8-1.3,1.4v7.8c0.3,0.6,0.7,1,1.3,1.3c0.5,0.3,1.2,0.4,2,0.4c1.3,0,2.2-0.5,2.7-1.4c0.5-0.9,0.8-2.2,0.8-3.9
					V-1038.6z"/>
			</g>
		</g>
		<g>
			<g>
				<path class="st14" d="M-2104.1-1029.2c-2.7,0-4.8-0.9-6.4-2.6c-1.6-1.7-2.4-3.9-2.4-6.5v-0.7c0-2.7,0.8-5,2.3-6.8
					s3.5-2.7,6.1-2.6c2.5,0,4.4,0.8,5.8,2.3c1.4,1.5,2.1,3.5,2.1,6.1v2.7h-11l0,0.1c0.1,1.2,0.5,2.2,1.2,3s1.7,1.2,2.9,1.2
					c1.1,0,2-0.1,2.8-0.3c0.7-0.2,1.5-0.6,2.4-1.1l1.3,3.1c-0.8,0.6-1.8,1.1-3,1.5C-2101.2-1029.4-2102.6-1029.2-2104.1-1029.2z
					 M-2104.5-1044.5c-0.9,0-1.7,0.4-2.2,1.1c-0.5,0.7-0.9,1.6-1,2.8l0.1,0.1h6.1v-0.4c0-1.1-0.2-1.9-0.7-2.5
					C-2102.7-1044.2-2103.5-1044.5-2104.5-1044.5z"/>
			</g>
		</g>
		<g>
			<g>
				<path class="st14" d="M-2293.2-997.5v-13.8h-2.5v-2.1h2.5v-1.6c0-1.7,0.5-3,1.4-3.9s2.2-1.4,3.9-1.4c0.6,0,1.2,0.1,1.9,0.2
					l-0.1,2.2c-0.5-0.1-0.9-0.1-1.5-0.1c-0.9,0-1.6,0.3-2,0.8s-0.7,1.3-0.7,2.2v1.7h3.4v2.1h-3.4v13.8H-2293.2z"/>
			</g>
		</g>
		<g>
			<g>
				<path class="st14" d="M-2276.5-1010.9c-0.4-0.1-0.9-0.1-1.3-0.1c-1.8,0-3,0.8-3.6,2.3v11.2h-2.7v-15.8h2.6l0,1.8
					c0.9-1.4,2.1-2.1,3.8-2.1c0.5,0,0.9,0.1,1.2,0.2V-1010.9z"/>
			</g>
		</g>
		<g>
			<g>
				<path class="st14" d="M-2275-1005.6c0-1.6,0.3-2.9,0.9-4.2s1.5-2.2,2.5-2.9s2.3-1,3.7-1c2.2,0,3.9,0.7,5.2,2.2
					c1.3,1.5,2,3.5,2,6v0.2c0,1.5-0.3,2.9-0.9,4.2s-1.4,2.2-2.5,2.9c-1.1,0.7-2.4,1-3.8,1c-2.1,0-3.9-0.7-5.2-2.2
					c-1.3-1.5-2-3.5-2-5.9V-1005.6z M-2272.3-1005.3c0,1.8,0.4,3.2,1.2,4.2c0.8,1.1,1.9,1.6,3.3,1.6c1.4,0,2.5-0.5,3.3-1.6
					s1.2-2.6,1.2-4.5c0-1.7-0.4-3.1-1.2-4.2c-0.8-1.1-1.9-1.6-3.3-1.6c-1.3,0-2.4,0.5-3.2,1.6S-2272.3-1007.3-2272.3-1005.3z"/>
			</g>
		</g>
		<g>
			<g>
				<path class="st14" d="M-2254.7-1013.4l0.1,1.8c1.2-1.4,2.7-2.1,4.7-2.1c2.2,0,3.7,0.8,4.5,2.5c0.5-0.8,1.2-1.4,2.1-1.8
					s1.8-0.7,3-0.7c3.5,0,5.2,1.8,5.3,5.5v10.6h-2.7v-10.5c0-1.1-0.3-2-0.8-2.5s-1.4-0.8-2.6-0.8c-1,0-1.8,0.3-2.5,0.9
					c-0.7,0.6-1,1.4-1.2,2.4v10.5h-2.7v-10.4c0-2.3-1.1-3.5-3.4-3.5c-1.8,0-3,0.8-3.6,2.3v11.6h-2.7v-15.8H-2254.7z"/>
			</g>
		</g>
		<g>
			<g>
				<path class="st14" d="M-2213.7-997.5c-0.2-0.3-0.3-0.9-0.4-1.7c-1.3,1.3-2.8,2-4.5,2c-1.6,0-2.8-0.4-3.8-1.3
					c-1-0.9-1.5-2-1.5-3.4c0-1.7,0.6-2.9,1.9-3.8c1.3-0.9,3-1.4,5.3-1.4h2.6v-1.2c0-0.9-0.3-1.7-0.8-2.3s-1.4-0.8-2.5-0.8
					c-1,0-1.8,0.2-2.4,0.7s-1,1.1-1,1.8h-2.7c0-0.8,0.3-1.6,0.8-2.3c0.6-0.7,1.3-1.3,2.3-1.8c1-0.4,2-0.6,3.2-0.6
					c1.8,0,3.3,0.5,4.3,1.4c1,0.9,1.6,2.2,1.6,3.8v7.3c0,1.5,0.2,2.6,0.6,3.5v0.2H-2213.7z M-2218.2-999.6c0.8,0,1.7-0.2,2.4-0.7
					s1.3-1,1.7-1.7v-3.3h-2.1c-3.3,0-5,1-5,2.9c0,0.8,0.3,1.5,0.8,2S-2219.1-999.6-2218.2-999.6z"/>
			</g>
		</g>
		<g>
			<g>
				<path class="st14" d="M-2192.2-1007.1h-14.7v-2.2h14.7V-1007.1z"/>
			</g>
		</g>
		<g>
			<g>
				<path class="st14" d="M-2174.1-1005.3c0,2.4-0.6,4.4-1.7,5.8c-1.1,1.5-2.6,2.2-4.5,2.2c-2,0-3.5-0.7-4.6-2.1l-0.1,1.8h-2.5
					v-22.5h2.7v8.4c1.1-1.4,2.6-2,4.5-2s3.4,0.7,4.5,2.2c1.1,1.5,1.6,3.4,1.6,6V-1005.3z M-2176.8-1005.6c0-1.8-0.4-3.3-1.1-4.3
					s-1.7-1.5-3.1-1.5c-1.8,0-3.1,0.8-3.9,2.5v6.9c0.8,1.7,2.1,2.5,3.9,2.5c1.3,0,2.3-0.5,3-1.5S-2176.8-1003.6-2176.8-1005.6z"/>
			</g>
		</g>
	</g>
	<g>
		<g>
			<ellipse class="st20" cx="-2330.3" cy="-1233.2" rx="6.1" ry="1.6"/>
		</g>
	</g>
</g>
<g>
	<g>
		<g>
			<g>
				<path class="st21" d="M-1743.9-1120.2h-138.2c-20.4,0-37.5-7.6-49.6-22.1c-10.5-12.5-16.2-29.4-16.2-47.4
					c0-35.5,23.1-71.4,67.3-71.4h36.9c5.3,0,9.9,5.9,9.9,5.9s0,2.8,0,4c0,5.5-4.4,10-9.9,10h-36.9c-32.6,0-47.5,26.7-47.5,51.5
					c0,34.2,23.1,49.5,46,49.5h138.2c14.3,0,26.2-5.2,34.4-15c7.5-9,11.6-21.2,11.6-34.6c0-24.8-14.9-51.5-47.5-51.5h-36.9
					c-5.5,0-9.9-4.5-9.9-10c0-1.2,0-4,0-4s4.6-5.9,9.9-5.9h36.9c20.7,0,38.2,7.9,50.6,22.8c10.8,13,16.7,30.2,16.7,48.6
					c0,18-5.8,34.8-16.2,47.4C-1706.4-1127.8-1723.6-1120.2-1743.9-1120.2z"/>
			</g>
		</g>
	</g>
	<g>
		<g>
			<g>
				<path class="st20" d="M-1879.3-1157.2h14.2c0.5,0,0.8,0.4,0.8,0.8v1.3c0,0.5-0.4,0.8-0.8,0.8h-14.2c-0.5,0-0.8-0.4-0.8-0.8v-1.3
					C-1880.2-1156.8-1879.8-1157.2-1879.3-1157.2z"/>
			</g>
		</g>
		<g>
			<g>
				<ellipse class="st20" cx="-1879.5" cy="-1155.7" rx="5.6" ry="1.5"/>
			</g>
		</g>
	</g>
	<g>
		<g>
			<rect x="-1867.8" y="-1203.9" class="st2" width="3.7" height="49.6"/>
		</g>
	</g>
	<g>
		<g>
			<path class="st3" d="M-1865.7-1172.8c0,0-13.2,0.1-13.2-15.9c0-13,13.2-42.3,13.2-42.3s13.2,29.3,13.2,42.3
				C-1852.5-1172.7-1865.7-1172.8-1865.7-1172.8z"/>
		</g>
	</g>
	<g>
		<g>
			<path class="st4" d="M-1865.7-1231v58.2c0,0,13.2,0.1,13.2-15.9C-1852.5-1201.7-1865.7-1231-1865.7-1231z"/>
		</g>
	</g>
	<g>
		<g>
			<g>
				<path class="st20" d="M-1827.7-1157.2h14.2c0.5,0,0.8,0.4,0.8,0.8v1.3c0,0.5-0.4,0.8-0.8,0.8h-14.2c-0.5,0-0.8-0.4-0.8-0.8v-1.3
					C-1828.5-1156.8-1828.1-1157.2-1827.7-1157.2z"/>
			</g>
		</g>
		<g>
			<g>
				<ellipse class="st20" cx="-1827.8" cy="-1155.7" rx="5.6" ry="1.5"/>
			</g>
		</g>
	</g>
	<g>
		<g>
			<rect x="-1816.1" y="-1203.9" class="st2" width="3.7" height="49.6"/>
		</g>
	</g>
	<g>
		<g>
			<path class="st3" d="M-1814.1-1172.8c0,0-13.2,0.1-13.2-15.9c0-13,13.2-42.3,13.2-42.3s13.2,29.3,13.2,42.3
				C-1800.9-1172.7-1814.1-1172.8-1814.1-1172.8z"/>
		</g>
	</g>
	<g>
		<g>
			<path class="st4" d="M-1814.1-1231v58.2c0,0,13.2,0.1,13.2-15.9C-1800.9-1201.7-1814.1-1231-1814.1-1231z"/>
		</g>
	</g>
	<g>
		<g>
			<g>
				<path class="st20" d="M-1775.8-1157.2h14.2c0.5,0,0.8,0.4,0.8,0.8v1.3c0,0.5-0.4,0.8-0.8,0.8h-14.2c-0.5,0-0.8-0.4-0.8-0.8v-1.3
					C-1776.7-1156.8-1776.3-1157.2-1775.8-1157.2z"/>
			</g>
		</g>
		<g>
			<g>
				<ellipse class="st20" cx="-1776" cy="-1155.7" rx="5.6" ry="1.5"/>
			</g>
		</g>
	</g>
	<g>
		<g>
			<rect x="-1764.3" y="-1203.9" class="st2" width="3.7" height="49.6"/>
		</g>
	</g>
	<g>
		<g>
			<path class="st3" d="M-1762.3-1172.8c0,0-13.2,0.1-13.2-15.9c0-13,13.2-42.3,13.2-42.3s13.2,29.3,13.2,42.3
				C-1749.1-1172.7-1762.3-1172.8-1762.3-1172.8z"/>
		</g>
	</g>
	<g>
		<g>
			<path class="st4" d="M-1762.3-1231v58.2c0,0,13.2,0.1,13.2-15.9C-1749.1-1201.7-1762.3-1231-1762.3-1231z"/>
		</g>
	</g>
	<g>
		<g>
			<g>
				<path class="st14" d="M-1928.1-1057.1l2.4-0.5v-11.5l-2.6-0.5v-3h7.3l0.2,2.7c0.6-1,1.4-1.7,2.3-2.2c0.9-0.5,1.9-0.8,3-0.8
					c1.9,0,3.3,0.6,4.4,1.8c1,1.2,1.6,3,1.6,5.5v8.1l2.4,0.5v3h-9.5v-3l2.1-0.5v-8.1c0-1.2-0.3-2.1-0.8-2.7
					c-0.5-0.5-1.3-0.8-2.3-0.8c-0.7,0-1.3,0.1-1.8,0.4c-0.5,0.3-1,0.6-1.3,1.1v10l2,0.5v3h-9.4V-1057.1z"/>
			</g>
		</g>
		<g>
			<g>
				<path class="st14" d="M-1905.7-1063.6c0-2.8,0.8-5,2.3-6.8c1.5-1.8,3.7-2.7,6.4-2.7c2.7,0,4.9,0.9,6.4,2.6
					c1.5,1.8,2.3,4,2.3,6.8v0.4c0,2.8-0.8,5.1-2.3,6.8c-1.5,1.8-3.7,2.6-6.4,2.6c-2.7,0-4.9-0.9-6.4-2.6c-1.5-1.8-2.3-4-2.3-6.8
					V-1063.6z M-1900.8-1063.2c0,1.7,0.3,3.1,0.9,4.1c0.6,1,1.5,1.5,2.9,1.5c1.3,0,2.2-0.5,2.8-1.5c0.6-1,0.9-2.4,0.9-4.1v-0.4
					c0-1.6-0.3-3-0.9-4c-0.6-1-1.6-1.6-2.9-1.6s-2.2,0.5-2.8,1.6c-0.6,1-0.9,2.4-0.9,4V-1063.2z"/>
			</g>
		</g>
		<g>
			<g>
				<path class="st14" d="M-1859.8-1069.7l-1.9,0.2l-3.9,15.3h-4.2l-3.4-11.1h-0.1l-3.4,11.1h-4.2l-3.9-15.3l-1.9-0.2v-3h8.4v3
					l-2,0.4l1.7,8.5h0.1l3.5-11.9h3.3l3.5,11.9h0.1l1.7-8.5l-2-0.4v-3h8.4V-1069.7z"/>
			</g>
		</g>
		<g>
			<g>
				<path class="st14" d="M-1858.3-1057.1l2.4-0.5v-19.7l-2.7-0.5v-3h7.6v10.6c0.6-0.9,1.3-1.5,2.1-2c0.8-0.5,1.8-0.7,2.8-0.7
					c1.9,0,3.5,0.6,4.6,1.9c1.1,1.3,1.6,3.3,1.6,6v7.5l2.4,0.5v3h-9.5v-3l2.2-0.5v-7.5c0-1.4-0.3-2.5-0.8-3.1
					c-0.5-0.6-1.3-0.9-2.3-0.9c-0.7,0-1.3,0.1-1.8,0.4c-0.5,0.3-1,0.6-1.3,1.1v10.1l2.2,0.5v3h-9.5V-1057.1z"/>
			</g>
		</g>
		<g>
			<g>
				<path class="st14" d="M-1827.1-1053.8c-2.7,0-4.8-0.9-6.4-2.6c-1.6-1.7-2.4-3.9-2.4-6.5v-0.7c0-2.8,0.8-5,2.3-6.8
					c1.5-1.8,3.5-2.7,6.1-2.7c2.5,0,4.4,0.8,5.8,2.3c1.4,1.5,2.1,3.6,2.1,6.1v2.7h-11l0,0.1c0.1,1.2,0.5,2.2,1.2,3
					c0.7,0.8,1.7,1.2,2.9,1.2c1.1,0,2-0.1,2.8-0.3c0.7-0.2,1.5-0.6,2.4-1.1l1.3,3.1c-0.8,0.6-1.8,1.1-3,1.5
					C-1824.3-1054-1825.6-1053.8-1827.1-1053.8z M-1827.6-1069.2c-0.9,0-1.7,0.4-2.2,1.1c-0.5,0.7-0.9,1.6-1,2.8l0.1,0.1h6.1v-0.4
					c0-1.1-0.2-1.9-0.7-2.5C-1825.8-1068.9-1826.6-1069.2-1827.6-1069.2z"/>
			</g>
		</g>
		<g>
			<g>
				<path class="st14" d="M-1817-1057.1l2.4-0.5v-11.5l-2.6-0.5v-3h7.3l0.2,2.7c0.4-1,1-1.7,1.7-2.2s1.5-0.8,2.4-0.8
					c0.3,0,0.5,0,0.8,0.1c0.3,0,0.5,0.1,0.7,0.1l-0.5,4.6l-2.1-0.1c-0.7,0-1.3,0.1-1.8,0.4s-0.8,0.7-1.1,1.2v9l2.4,0.5v3h-9.8
					V-1057.1z"/>
			</g>
		</g>
		<g>
			<g>
				<path class="st14" d="M-1794.1-1053.8c-2.7,0-4.8-0.9-6.4-2.6c-1.6-1.7-2.4-3.9-2.4-6.5v-0.7c0-2.8,0.8-5,2.3-6.8
					c1.5-1.8,3.5-2.7,6.1-2.7c2.5,0,4.4,0.8,5.8,2.3c1.4,1.5,2.1,3.6,2.1,6.1v2.7h-11l0,0.1c0.1,1.2,0.5,2.2,1.2,3
					c0.7,0.8,1.7,1.2,2.9,1.2c1.1,0,2-0.1,2.8-0.3c0.7-0.2,1.5-0.6,2.4-1.1l1.3,3.1c-0.8,0.6-1.8,1.1-3,1.5
					C-1791.2-1054-1792.6-1053.8-1794.1-1053.8z M-1794.5-1069.2c-0.9,0-1.7,0.4-2.2,1.1c-0.5,0.7-0.9,1.6-1,2.8l0.1,0.1h6.1v-0.4
					c0-1.1-0.2-1.9-0.7-2.5C-1792.8-1068.9-1793.5-1069.2-1794.5-1069.2z"/>
			</g>
		</g>
		<g>
			<g>
				<path class="st14" d="M-1768.3-1077.2v4.5h3.2v3.5h-3.2v9.5c0,0.7,0.1,1.2,0.4,1.5c0.3,0.3,0.7,0.5,1.2,0.5c0.3,0,0.6,0,0.9,0
					c0.3,0,0.5-0.1,0.9-0.1l0.4,3.6c-0.6,0.2-1.1,0.3-1.7,0.4s-1.1,0.1-1.8,0.1c-1.7,0-3-0.5-4-1.4c-0.9-1-1.4-2.5-1.4-4.5v-9.5
					h-2.7v-3.5h2.7v-4.5H-1768.3z"/>
			</g>
		</g>
		<g>
			<g>
				<path class="st14" d="M-1763.2-1063.6c0-2.8,0.8-5,2.3-6.8c1.5-1.8,3.7-2.7,6.4-2.7c2.7,0,4.9,0.9,6.4,2.6
					c1.5,1.8,2.3,4,2.3,6.8v0.4c0,2.8-0.8,5.1-2.3,6.8c-1.5,1.8-3.7,2.6-6.4,2.6c-2.7,0-4.9-0.9-6.4-2.6c-1.5-1.8-2.3-4-2.3-6.8
					V-1063.6z M-1758.2-1063.2c0,1.7,0.3,3.1,0.9,4.1c0.6,1,1.5,1.5,2.9,1.5c1.3,0,2.2-0.5,2.8-1.5c0.6-1,0.9-2.4,0.9-4.1v-0.4
					c0-1.6-0.3-3-0.9-4c-0.6-1-1.6-1.6-2.9-1.6s-2.2,0.5-2.8,1.6c-0.6,1-0.9,2.4-0.9,4V-1063.2z"/>
			</g>
		</g>
		<g>
			<g>
				<path class="st14" d="M-1717.1-1062.9c0,2.8-0.6,5-1.8,6.6s-3,2.5-5.3,2.5c-1.1,0-2-0.2-2.8-0.7c-0.8-0.5-1.5-1.1-2-2l-0.4,2.3
					h-4.3v-23.2l-2.6-0.5v-3h7.6v10.2c0.5-0.7,1.2-1.3,1.9-1.7c0.7-0.4,1.6-0.6,2.6-0.6c2.3,0,4.1,0.9,5.4,2.7
					c1.2,1.8,1.8,4.2,1.8,7.1V-1062.9z M-1722.1-1063.3c0-1.8-0.3-3.2-0.8-4.3c-0.5-1.1-1.4-1.6-2.7-1.6c-0.8,0-1.4,0.2-2,0.5
					c-0.5,0.3-1,0.8-1.3,1.4v7.8c0.3,0.6,0.7,1,1.3,1.3c0.5,0.3,1.2,0.4,2,0.4c1.3,0,2.2-0.5,2.7-1.4c0.5-0.9,0.8-2.2,0.8-3.9
					V-1063.3z"/>
			</g>
		</g>
		<g>
			<g>
				<path class="st14" d="M-1705.9-1053.8c-2.7,0-4.8-0.9-6.4-2.6c-1.6-1.7-2.4-3.9-2.4-6.5v-0.7c0-2.8,0.8-5,2.3-6.8
					c1.5-1.8,3.5-2.7,6.1-2.7c2.5,0,4.4,0.8,5.8,2.3c1.4,1.5,2.1,3.6,2.1,6.1v2.7h-11l0,0.1c0.1,1.2,0.5,2.2,1.2,3
					c0.7,0.8,1.7,1.2,2.9,1.2c1.1,0,2-0.1,2.8-0.3c0.7-0.2,1.5-0.6,2.4-1.1l1.3,3.1c-0.8,0.6-1.8,1.1-3,1.5
					C-1703.1-1054-1704.4-1053.8-1705.9-1053.8z M-1706.4-1069.2c-0.9,0-1.7,0.4-2.2,1.1c-0.5,0.7-0.9,1.6-1,2.8l0.1,0.1h6.1v-0.4
					c0-1.1-0.2-1.9-0.7-2.5C-1704.6-1068.9-1705.4-1069.2-1706.4-1069.2z"/>
			</g>
		</g>
		<g>
			<g>
				<path class="st14" d="M-1858.5-1033.2c-0.3-0.1-0.7-0.1-1.1-0.1c-1.5,0-2.5,0.6-3,1.9v9.4h-2.3v-13.3h2.2l0,1.5
					c0.7-1.2,1.8-1.8,3.1-1.8c0.4,0,0.8,0.1,1,0.2V-1033.2z"/>
			</g>
		</g>
		<g>
			<g>
				<path class="st14" d="M-1857.2-1028.7c0-1.3,0.3-2.5,0.8-3.5c0.5-1,1.2-1.8,2.1-2.4c0.9-0.6,1.9-0.8,3.1-0.8
					c1.8,0,3.3,0.6,4.4,1.9c1.1,1.3,1.7,2.9,1.7,5v0.2c0,1.3-0.2,2.5-0.7,3.5c-0.5,1-1.2,1.8-2.1,2.4c-0.9,0.6-2,0.9-3.2,0.9
					c-1.8,0-3.2-0.6-4.4-1.9c-1.1-1.3-1.7-2.9-1.7-5V-1028.7z M-1855-1028.5c0,1.5,0.3,2.7,1,3.5s1.6,1.3,2.7,1.3
					c1.1,0,2.1-0.5,2.7-1.4s1-2.2,1-3.8c0-1.5-0.3-2.6-1-3.5s-1.6-1.4-2.7-1.4c-1.1,0-2,0.4-2.7,1.3
					C-1854.6-1031.4-1855-1030.1-1855-1028.5z"/>
			</g>
		</g>
		<g>
			<g>
				<path class="st14" d="M-1834.2-1023.3c-0.9,1-2.2,1.6-3.9,1.6c-1.4,0-2.5-0.4-3.2-1.2c-0.7-0.8-1.1-2-1.1-3.6v-8.6h2.3v8.6
					c0,2,0.8,3,2.4,3c1.7,0,2.9-0.6,3.4-1.9v-9.7h2.3v13.3h-2.1L-1834.2-1023.3z"/>
			</g>
		</g>
		<g>
			<g>
				<path class="st14" d="M-1826.5-1035.2l0.1,1.7c1-1.3,2.3-1.9,4-1.9c2.8,0,4.2,1.6,4.2,4.7v8.8h-2.3v-8.8c0-1-0.2-1.7-0.7-2.1
					c-0.4-0.5-1.1-0.7-2-0.7c-0.7,0-1.4,0.2-1.9,0.6c-0.6,0.4-1,0.9-1.3,1.5v9.5h-2.3v-13.3H-1826.5z"/>
			</g>
		</g>
		<g>
			<g>
				<path class="st14" d="M-1815.4-1028.7c0-2,0.5-3.7,1.4-4.9c1-1.2,2.2-1.9,3.8-1.9c1.5,0,2.8,0.5,3.7,1.6v-6.9h2.3v18.8h-2.1
					l-0.1-1.4c-0.9,1.1-2.2,1.7-3.8,1.7c-1.5,0-2.8-0.6-3.7-1.9c-1-1.3-1.4-2.9-1.4-4.9V-1028.7z M-1813.1-1028.5
					c0,1.5,0.3,2.7,0.9,3.5c0.6,0.9,1.5,1.3,2.6,1.3c1.4,0,2.5-0.6,3.1-1.9v-6.1c-0.7-1.3-1.7-1.9-3.1-1.9c-1.1,0-2,0.4-2.6,1.3
					S-1813.1-1030.1-1813.1-1028.5z"/>
			</g>
		</g>
		<g>
			<g>
				<path class="st14" d="M-1791.5-1038.5v3.2h2.5v1.8h-2.5v8.2c0,0.5,0.1,0.9,0.3,1.2s0.6,0.4,1.1,0.4c0.3,0,0.6,0,1.1-0.1v1.8
					c-0.6,0.2-1.2,0.2-1.7,0.2c-1,0-1.8-0.3-2.3-0.9c-0.5-0.6-0.8-1.5-0.8-2.6v-8.2h-2.4v-1.8h2.4v-3.2H-1791.5z"/>
			</g>
		</g>
		<g>
			<g>
				<path class="st14" d="M-1780-1033.2c-0.3-0.1-0.7-0.1-1.1-0.1c-1.5,0-2.5,0.6-3,1.9v9.4h-2.3v-13.3h2.2l0,1.5
					c0.7-1.2,1.8-1.8,3.1-1.8c0.4,0,0.8,0.1,1,0.2V-1033.2z"/>
			</g>
		</g>
		<g>
			<g>
				<path class="st14" d="M-1777.9-1038.8c0-0.4,0.1-0.7,0.3-0.9c0.2-0.3,0.6-0.4,1-0.4s0.8,0.1,1,0.4c0.2,0.3,0.3,0.6,0.3,0.9
					s-0.1,0.7-0.3,0.9s-0.6,0.4-1,0.4s-0.8-0.1-1-0.4S-1777.9-1038.4-1777.9-1038.8z M-1775.4-1022h-2.3v-13.3h2.3V-1022z"/>
			</g>
		</g>
		<g>
			<g>
				<path class="st14" d="M-1760.7-1028.5c0,2-0.5,3.6-1.4,4.9c-0.9,1.2-2.2,1.9-3.7,1.9c-1.6,0-2.9-0.5-3.8-1.5v6.4h-2.3v-18.4h2.1
					l0.1,1.5c0.9-1.1,2.2-1.7,3.8-1.7c1.6,0,2.8,0.6,3.8,1.8c0.9,1.2,1.4,2.9,1.4,5V-1028.5z M-1762.9-1028.7c0-1.5-0.3-2.7-1-3.5
					c-0.6-0.9-1.5-1.3-2.6-1.3c-1.4,0-2.4,0.6-3.1,1.8v6.3c0.7,1.2,1.7,1.8,3.1,1.8c1.1,0,1.9-0.4,2.6-1.3
					S-1762.9-1027-1762.9-1028.7z"/>
			</g>
		</g>
	</g>
	<g>
		<g>
			<path class="st0" d="M-1791.3-1298.8c0,12.4-22.4,43.7-22.4,43.7s-22.4-31.2-22.4-43.7c0-12.4,10-22.5,22.4-22.5
				S-1791.3-1311.2-1791.3-1298.8z"/>
		</g>
	</g>
	<g>
		<g>
			<ellipse class="st13" cx="-1813.7" cy="-1297.7" rx="11.3" ry="11.3"/>
		</g>
	</g>
	<g>
		<g>
			<path class="st3" d="M-1743.9-1124.3h-138.2c-20.4,0-37.5-7.6-49.6-22.1c-10.5-12.5-16.2-29.3-16.2-47.3
				c0-35.5,23.1-71.4,67.3-71.4h36.9c5.5,0,9.9,4.4,9.9,9.9c0,5.5-4.4,9.9-9.9,9.9h-36.9c-32.6,0-47.5,26.7-47.5,51.5
				c0,34.2,23.1,49.5,46,49.5h138.2c14.3,0,26.2-5.2,34.3-15c7.5-9,11.6-21.2,11.6-34.6c0-24.8-14.9-51.5-47.5-51.5h-36.9
				c-5.5,0-9.9-4.4-9.9-9.9c0-5.5,4.4-9.9,9.9-9.9h36.9c20.7,0,38.2,7.9,50.6,22.9c10.8,13,16.7,30.2,16.7,48.5
				c0,18-5.8,34.8-16.2,47.3C-1706.4-1131.9-1723.5-1124.3-1743.9-1124.3z"/>
		</g>
	</g>
	<g>
		<g>
			<rect x="-1874" y="-1124.3" class="st21" width="18.5" height="4.2"/>
		</g>
	</g>
</g>
<g>
	<g>
		<path class="st22" d="M-1538.1-1204.7c-6.7,0-12.2-5.5-12.2-12.2s5.5-12.2,12.2-12.2s12.2,5.5,12.2,12.2
			S-1531.4-1204.7-1538.1-1204.7z M-1538.1-1225.6c-4.8,0-8.7,3.9-8.7,8.7s3.9,8.7,8.7,8.7s8.7-3.9,8.7-8.7
			S-1533.3-1225.6-1538.1-1225.6z"/>
	</g>
	<g>
		<path class="st22" d="M-1571.8-1204.7c-6.7,0-12.2-5.5-12.2-12.2s5.5-12.2,12.2-12.2s12.2,5.5,12.2,12.2
			S-1565.1-1204.7-1571.8-1204.7z M-1571.8-1225.6c-4.8,0-8.7,3.9-8.7,8.7s3.9,8.7,8.7,8.7c4.8,0,8.7-3.9,8.7-8.7
			S-1567-1225.6-1571.8-1225.6z"/>
	</g>
	<g>
		<path class="st22" d="M-1572.1-1215.1c-0.3,0-0.6-0.1-0.9-0.2c-0.8-0.5-1.1-1.5-0.7-2.4l8-14.1h20.7c1,0,1.8,0.8,1.8,1.8
			s-0.8,1.8-1.8,1.8h-18.7l-7,12.4C-1570.9-1215.5-1571.5-1215.1-1572.1-1215.1z"/>
	</g>
	<g>
		<path class="st22" d="M-1537.8-1215.1c-0.7,0-1.3-0.4-1.6-1l-9-18.8c-0.4-0.8-0.3-1.6,0.1-2.3s1.2-1.1,2-1.1h8.5
			c1,0,1.8,0.8,1.8,1.8s-0.8,1.8-1.8,1.8h-6.7l8.3,17.3c0.4,0.9,0.1,1.9-0.8,2.3C-1537.3-1215.2-1537.6-1215.1-1537.8-1215.1z"/>
	</g>
	<g>
		<path class="st22" d="M-1564.6-1229.4c-0.6,0-1.1-0.3-1.5-0.8l-3.3-4.8c-0.5-0.8-0.3-1.9,0.5-2.4c0.8-0.5,1.9-0.3,2.4,0.5l3.3,4.8
			c0.5,0.8,0.3,1.9-0.5,2.4C-1563.9-1229.5-1564.2-1229.4-1564.6-1229.4z"/>
	</g>
	<g>
		<line class="st13" x1="-1561.2" y1="-1236.4" x2="-1570.8" y2="-1236.4"/>
		<path class="st22" d="M-1561.2-1234.6h-9.5c-1,0-1.8-0.8-1.8-1.8s0.8-1.8,1.8-1.8h9.5c1,0,1.8,0.8,1.8,1.8
			S-1560.3-1234.6-1561.2-1234.6z"/>
	</g>
</g>
<g>
	<g>
		<path class="st22" d="M-1463.7-1246.8h-6.1c-1.2,0-2.2-1-2.2-2.2s1-2.2,2.2-2.2h6.1c6.5,0,7-2.2,7-5.4c0-1.4,0-4.2-7-4.2h-24.2
			c-1.2,0-2.2-1-2.2-2.2s1-2.2,2.2-2.2h24.2c10,0,11.5,5.4,11.5,8.7C-1452.3-1250-1455.9-1246.8-1463.7-1246.8z"/>
	</g>
	<g>
		<path class="st22" d="M-1446.3-1233.2h-27.5c-4.9,0-8.3-1.4-10.1-4.3c-2-3.1-1.9-7.3,0.3-10.2c1.9-2.4,5.1-3.6,9.8-3.6h4.6
			c1.2,0,2.2,1,2.2,2.2s-1,2.2-2.2,2.2h-4.6c-3.1,0-5.2,0.6-6.2,1.9c-1,1.3-1.1,3.5-0.1,5c0.9,1.4,3,2.2,6.3,2.2h27.5
			c1.2,0,2.2,1,2.2,2.2S-1445-1233.2-1446.3-1233.2z"/>
	</g>
</g>
<g>
	<path class="st22" d="M-1357.3-1334.4c0,0-0.1,0-0.1,0l-35.9,18c-0.3,0.1-0.3,0.3,0,0.4l13,3.8c0.3,0.1,0.7,0.4,0.8,0.8l3.9,13.2
		c0.1,0.2,0.3,0.2,0.4,0l18-36C-1357.2-1334.3-1357.2-1334.4-1357.3-1334.4L-1357.3-1334.4z"/>
</g>
<g>
	<g>
		<path class="st22" d="M-1298.9-1292.6c-11.2,0-20.3-9.1-20.3-20.3s9.1-20.3,20.3-20.3s20.3,9.1,20.3,20.3
			S-1287.7-1292.6-1298.9-1292.6z M-1298.9-1328.8c-8.7,0-15.8,7.1-15.8,15.8c0,8.7,7.1,15.8,15.8,15.8s15.8-7.1,15.8-15.8
			C-1283.1-1321.7-1290.2-1328.8-1298.9-1328.8z"/>
	</g>
	<g>
		<path class="st22" d="M-1289.2-1308.9h-10.3c-1.2,0-2.2-1-2.2-2.2v-12.9c0-1.2,1-2.2,2.2-2.2s2.2,1,2.2,2.2v10.6h8
			c1.2,0,2.2,1,2.2,2.2S-1287.9-1308.9-1289.2-1308.9z"/>
	</g>
</g>
<g>
	<path class="st23" d="M-1139.7-1336c0,0-0.1,0-0.1,0l-32.5,16.3c-0.3,0.1-0.3,0.3,0,0.4l11.8,3.4c0.3,0.1,0.6,0.4,0.7,0.7l3.5,11.9
		c0.1,0.2,0.3,0.2,0.4,0l16.3-32.6C-1139.5-1335.9-1139.6-1336-1139.7-1336L-1139.7-1336z"/>
</g>
<g>
	<g>
		<path class="st23" d="M-1082.3-1300.6c-1.4,0-2.5-1.1-2.5-2.5v-26.2c0-1.4,1.1-2.5,2.5-2.5s2.5,1.1,2.5,2.5v26.2
			C-1079.8-1301.7-1080.9-1300.6-1082.3-1300.6z"/>
	</g>
	<g>
		<path class="st23" d="M-1069.1-1313.7h-26.2c-1.4,0-2.5-1.1-2.5-2.5s1.1-2.5,2.5-2.5h26.2c1.4,0,2.5,1.1,2.5,2.5
			S-1067.8-1313.7-1069.1-1313.7z"/>
	</g>
</g>
<g>
	<g>
		<path class="st24" d="M-637.7-1059h-312c-6.2,0-11.2-5-11.2-11.2v-49.3c0-6.2,5-11.2,11.2-11.2h312c6.2,0,11.2,5,11.2,11.2v49.3
			C-626.5-1064-631.6-1059-637.7-1059z"/>
	</g>
	<g>
		<path class="st3" d="M-637.7-1063h-312c-6.2,0-11.2-5-11.2-11.2v-49.3c0-6.2,5-11.2,11.2-11.2h312c6.2,0,11.2,5,11.2,11.2v49.3
			C-626.5-1068-631.6-1063-637.7-1063z"/>
	</g>
	<g>
		<g>
			<path class="st13" d="M-843.3-1088.6c1.3,0,2.4-0.4,3.3-1.1c0.9-0.7,1.4-1.7,1.4-2.9h1.8c-0.1,1-0.4,2-1,2.8
				c-0.6,0.8-1.4,1.5-2.4,2s-2,0.7-3.2,0.7c-2.2,0-4-0.8-5.3-2.3c-1.3-1.5-1.9-3.6-1.9-6.2v-0.6c0-1.7,0.3-3.1,0.9-4.4
				c0.6-1.3,1.4-2.3,2.5-3c1.1-0.7,2.4-1,3.8-1c1.9,0,3.4,0.6,4.6,1.7c1.2,1.1,1.8,2.6,1.9,4.4h-1.8c-0.1-1.3-0.6-2.4-1.4-3.2
				c-0.9-0.8-2-1.2-3.3-1.2c-1.7,0-3,0.6-3.9,1.8c-0.9,1.2-1.4,2.9-1.4,5.1v0.5c0,2.2,0.5,3.8,1.4,5
				C-846.3-1089.2-845-1088.6-843.3-1088.6z"/>
		</g>
		<g>
			<path class="st13" d="M-832.8-1096.1c0-1.6,0.3-3.1,0.9-4.4c0.6-1.3,1.5-2.3,2.7-3c1.2-0.7,2.5-1.1,3.9-1.1
				c2.2,0,4.1,0.8,5.5,2.4s2.1,3.7,2.1,6.3v0.4c0,1.6-0.3,3.1-0.9,4.4c-0.6,1.3-1.5,2.3-2.7,3c-1.1,0.7-2.5,1.1-3.9,1.1
				c-2.2,0-4.1-0.8-5.5-2.4s-2.1-3.7-2.1-6.3V-1096.1z M-830.9-1095.5c0,2,0.5,3.7,1.6,5s2.4,1.9,4.1,1.9c1.7,0,3.1-0.6,4.1-1.9
				s1.6-3,1.6-5.1v-0.4c0-1.3-0.2-2.5-0.7-3.5c-0.5-1.1-1.2-1.9-2-2.5c-0.9-0.6-1.9-0.9-3-0.9c-1.7,0-3,0.7-4.1,2
				c-1.1,1.3-1.6,3-1.6,5.1V-1095.5z"/>
		</g>
		<g>
			<path class="st13" d="M-810.8-1104.3l0.1,2.9c0.6-1,1.4-1.8,2.4-2.4c0.9-0.5,2-0.8,3.1-0.8c1.8,0,3.2,0.5,4,1.5
				c0.9,1,1.3,2.6,1.3,4.6v11.1h-1.9v-11.1c0-1.5-0.3-2.6-1-3.4c-0.6-0.7-1.6-1.1-3-1.1c-1.2,0-2.2,0.4-3.1,1.1
				c-0.9,0.7-1.5,1.7-2,2.9v11.6h-1.9v-16.9H-810.8z"/>
		</g>
		<g>
			<path class="st13" d="M-792.4-1087.4v-15.4h-2.8v-1.5h2.8v-2c0-1.7,0.4-3.1,1.3-4c0.9-0.9,2.1-1.4,3.7-1.4c0.7,0,1.4,0.1,2,0.3
				l-0.1,1.5c-0.5-0.1-1.1-0.2-1.7-0.2c-1,0-1.8,0.3-2.4,1c-0.6,0.6-0.9,1.6-0.9,2.7v2.1h4v1.5h-4v15.4H-792.4z"/>
		</g>
		<g>
			<path class="st13" d="M-782-1109.1c0-0.4,0.1-0.6,0.3-0.9c0.2-0.2,0.5-0.4,0.9-0.4c0.4,0,0.7,0.1,0.9,0.4s0.4,0.5,0.4,0.9
				s-0.1,0.6-0.4,0.9s-0.6,0.4-0.9,0.4c-0.4,0-0.7-0.1-0.9-0.4C-781.8-1108.5-782-1108.8-782-1109.1z M-779.8-1087.4h-1.9v-16.9h1.9
				V-1087.4z"/>
		</g>
		<g>
			<path class="st13" d="M-765.6-1102.7c-0.4-0.1-0.8-0.1-1.3-0.1c-1.2,0-2.2,0.3-3,1c-0.8,0.7-1.4,1.6-1.7,2.8v11.6h-1.9v-16.9h1.8
				l0,2.7c1-2,2.6-3,4.8-3c0.5,0,0.9,0.1,1.2,0.2L-765.6-1102.7z"/>
		</g>
		<g>
			<path class="st13" d="M-759.6-1104.3l0.1,2.8c0.6-1,1.4-1.8,2.3-2.3c0.9-0.5,2-0.8,3.1-0.8c2.7,0,4.4,1.1,5.1,3.3
				c0.6-1.1,1.4-1.9,2.4-2.4c1-0.6,2.1-0.9,3.3-0.9c3.6,0,5.5,2,5.5,5.9v11.3h-1.9v-11.1c0-1.5-0.3-2.6-1-3.4
				c-0.6-0.7-1.7-1.1-3.1-1.1c-1.3,0-2.5,0.5-3.4,1.3c-0.9,0.8-1.4,1.9-1.5,3.1v11.2h-1.9v-11.3c0-1.4-0.4-2.5-1-3.2
				c-0.7-0.7-1.7-1.1-3.1-1.1c-1.2,0-2.2,0.3-3,1s-1.5,1.7-1.9,3v11.6h-1.9v-16.9H-759.6z"/>
		</g>
	</g>
</g>
<g>
	<g>
		<path class="st25" d="M-1375.8-1056.3H-1581c-3.6,0-6.6-4-7.3-9.3c-0.1-0.6-0.1-4.3-0.1-5v-46.2c0-6.2,3.3-11.2,7.4-11.2h205.1
			c4,0,7.4,5,7.4,11.2v45.6c0,0.3,0,4.3,0,4.7C-1368.8-1060.8-1372-1056.3-1375.8-1056.3z"/>
	</g>
	<g>
		<path class="st0" d="M-1379.7-1060.3h-197.5c-6.2,0-11.2-5-11.2-11.2v-49.3c0-6.2,5-11.2,11.2-11.2h197.5c6.2,0,11.2,5,11.2,11.2
			v49.3C-1368.5-1065.4-1373.5-1060.3-1379.7-1060.3z"/>
	</g>
	<g>
		<g>
			<path class="st13" d="M-1496.8-1089c0-0.9-0.4-1.7-1.1-2.2c-0.7-0.6-1.9-1-3.4-1.3c-1.5-0.3-2.7-0.7-3.5-1.1
				c-0.8-0.4-1.4-0.9-1.8-1.5c-0.4-0.6-0.6-1.3-0.6-2.2c0-1.3,0.6-2.4,1.7-3.3c1.1-0.9,2.5-1.3,4.3-1.3c1.9,0,3.4,0.5,4.5,1.4
				c1.1,0.9,1.7,2.1,1.7,3.6h-1.9c0-1-0.4-1.8-1.2-2.5s-1.9-1-3.1-1c-1.2,0-2.2,0.3-3,0.8c-0.7,0.5-1.1,1.3-1.1,2.1
				c0,0.8,0.3,1.5,0.9,2c0.6,0.5,1.8,0.9,3.4,1.3c1.6,0.4,2.9,0.8,3.7,1.2c0.8,0.4,1.4,1,1.8,1.6c0.4,0.6,0.6,1.4,0.6,2.2
				c0,1.4-0.6,2.6-1.7,3.4c-1.2,0.9-2.7,1.3-4.5,1.3c-2,0-3.6-0.5-4.8-1.4c-1.2-1-1.8-2.2-1.8-3.6h1.9c0.1,1.1,0.5,1.9,1.4,2.6
				c0.8,0.6,2,0.9,3.4,0.9c1.3,0,2.4-0.3,3.2-0.9C-1497.2-1087.4-1496.8-1088.1-1496.8-1089z"/>
		</g>
		<g>
			<path class="st13" d="M-1485.4-1093.2l-2.1,2.1v6.5h-1.9v-24h1.9v15.4l1.8-1.9l6.5-6.4h2.4l-7.2,7.1l7.8,9.8h-2.2L-1485.4-1093.2
				z"/>
		</g>
		<g>
			<path class="st13" d="M-1472.6-1106.5c0-0.4,0.1-0.6,0.3-0.9s0.5-0.4,0.9-0.4s0.7,0.1,0.9,0.4s0.4,0.5,0.4,0.9s-0.1,0.6-0.4,0.9
				s-0.5,0.4-0.9,0.4s-0.7-0.1-0.9-0.4S-1472.6-1106.1-1472.6-1106.5z M-1470.4-1084.7h-1.9v-16.9h1.9V-1084.7z"/>
		</g>
		<g>
			<path class="st13" d="M-1450.4-1093c0,2.6-0.6,4.7-1.8,6.3c-1.2,1.5-2.7,2.3-4.7,2.3c-2.3,0-4.1-0.8-5.3-2.4v8.6h-1.9v-23.4h1.7
				l0.1,2.4c1.2-1.8,3-2.7,5.3-2.7c2,0,3.6,0.8,4.8,2.3c1.2,1.5,1.7,3.7,1.7,6.4V-1093z M-1452.3-1093.3c0-2.2-0.4-3.9-1.3-5.1
				c-0.9-1.2-2.1-1.9-3.7-1.9c-1.1,0-2.1,0.3-3,0.8c-0.8,0.6-1.5,1.4-1.9,2.4v8.1c0.4,1,1.1,1.7,1.9,2.2c0.8,0.5,1.8,0.8,3,0.8
				c1.6,0,2.8-0.6,3.7-1.9C-1452.7-1089.1-1452.3-1090.9-1452.3-1093.3z"/>
		</g>
	</g>
</g>
<g>
	<g>
		<path class="st24" d="M-1117-1059h-195.2c-6.2,0-11.2-5-11.2-11.2v-49.3c0-6.2,5-11.2,11.2-11.2h195.2c6.2,0,11.2,5,11.2,11.2
			v49.3C-1105.8-1064-1110.9-1059-1117-1059z"/>
	</g>
	<g>
		<path class="st3" d="M-1117-1063h-195.2c-6.2,0-11.2-5-11.2-11.2v-49.3c0-6.2,5-11.2,11.2-11.2h195.2c6.2,0,11.2,5,11.2,11.2v49.3
			C-1105.8-1068-1110.9-1063-1117-1063z"/>
	</g>
	<g>
		<g>
			<path class="st13" d="M-1237.6-1091.7c0-0.9-0.4-1.7-1.1-2.2c-0.7-0.6-1.9-1-3.4-1.3c-1.5-0.3-2.7-0.7-3.5-1.1
				c-0.8-0.4-1.4-0.9-1.8-1.5c-0.4-0.6-0.6-1.3-0.6-2.2c0-1.3,0.6-2.4,1.7-3.3c1.1-0.9,2.5-1.3,4.3-1.3c1.9,0,3.4,0.5,4.5,1.4
				c1.1,0.9,1.7,2.1,1.7,3.6h-1.9c0-1-0.4-1.8-1.2-2.5s-1.9-1-3.1-1c-1.2,0-2.2,0.3-3,0.8c-0.7,0.5-1.1,1.3-1.1,2.1
				c0,0.8,0.3,1.5,0.9,2c0.6,0.5,1.8,0.9,3.4,1.3c1.6,0.4,2.9,0.8,3.7,1.2c0.8,0.4,1.4,1,1.8,1.6c0.4,0.6,0.6,1.4,0.6,2.2
				c0,1.4-0.6,2.6-1.7,3.4c-1.2,0.9-2.7,1.3-4.5,1.3c-2,0-3.6-0.5-4.8-1.4c-1.2-1-1.8-2.2-1.8-3.6h1.9c0.1,1.1,0.5,1.9,1.4,2.6
				c0.8,0.6,2,0.9,3.4,0.9c1.3,0,2.4-0.3,3.2-0.9C-1238-1090.1-1237.6-1090.8-1237.6-1091.7z"/>
		</g>
		<g>
			<path class="st13" d="M-1227.3-1108.6v4.3h3.5v1.5h-3.5v11.3c0,0.9,0.2,1.6,0.5,2.1c0.3,0.5,0.9,0.7,1.7,0.7
				c0.3,0,0.8-0.1,1.5-0.2l0.1,1.5c-0.5,0.2-1.2,0.3-2,0.3c-1.3,0-2.2-0.4-2.8-1.1c-0.6-0.7-0.9-1.8-0.9-3.3v-11.3h-3.1v-1.5h3.1
				v-4.3H-1227.3z"/>
		</g>
		<g>
			<path class="st13" d="M-1208-1087.4c-0.2-0.5-0.3-1.3-0.4-2.4c-0.7,0.9-1.5,1.5-2.5,2s-2.1,0.7-3.2,0.7c-1.6,0-2.9-0.5-3.9-1.4
				s-1.5-2.1-1.5-3.4c0-1.6,0.7-2.9,2.1-3.9c1.4-1,3.3-1.4,5.7-1.4h3.4v-1.9c0-1.2-0.4-2.2-1.1-2.9c-0.7-0.7-1.8-1-3.3-1
				c-1.3,0-2.4,0.3-3.2,1c-0.9,0.7-1.3,1.5-1.3,2.4l-1.9,0c0-1.3,0.6-2.5,1.9-3.5s2.8-1.5,4.6-1.5c1.9,0,3.4,0.5,4.5,1.4
				c1.1,0.9,1.6,2.3,1.7,3.9v8c0,1.6,0.2,2.9,0.5,3.7v0.2H-1208z M-1213.9-1088.7c1.2,0,2.4-0.3,3.4-0.9c1-0.6,1.7-1.4,2.1-2.4v-3.7
				h-3.3c-1.9,0-3.3,0.4-4.4,1c-1.1,0.7-1.6,1.6-1.6,2.7c0,0.9,0.4,1.7,1.1,2.4S-1215-1088.7-1213.9-1088.7z"/>
		</g>
		<g>
			<path class="st13" d="M-1192.4-1102.7c-0.4-0.1-0.8-0.1-1.3-0.1c-1.2,0-2.2,0.3-3,1c-0.8,0.7-1.4,1.6-1.7,2.8v11.6h-1.9v-16.9
				h1.8l0,2.7c1-2,2.6-3,4.8-3c0.5,0,0.9,0.1,1.2,0.2L-1192.4-1102.7z"/>
		</g>
		<g>
			<path class="st13" d="M-1185.3-1108.6v4.3h3.5v1.5h-3.5v11.3c0,0.9,0.2,1.6,0.5,2.1c0.3,0.5,0.9,0.7,1.7,0.7
				c0.3,0,0.8-0.1,1.5-0.2l0.1,1.5c-0.5,0.2-1.2,0.3-2,0.3c-1.3,0-2.2-0.4-2.8-1.1c-0.6-0.7-0.9-1.8-0.9-3.3v-11.3h-3.1v-1.5h3.1
				v-4.3H-1185.3z"/>
		</g>
	</g>
</g>
<g>
	<path class="st26" d="M-36.2-486.3h50.1c2.4,0,4.4-2,4.4-4.4c0-2.4-2-4.4-4.4-4.4h-50.1c-2.4,0-4.4,2-4.4,4.4
		C-40.7-488.3-38.7-486.3-36.2-486.3z M13.9-459.7h-50.1c-2.4,0-4.4,2-4.4,4.4c0,2.4,2,4.4,4.4,4.4h50.1c2.4,0,4.4-2,4.4-4.4
		C18.3-457.8,16.3-459.7,13.9-459.7z M13.9-477.4h-50.1c-2.4,0-4.4,2-4.4,4.4c0,2.4,2,4.4,4.4,4.4h50.1c2.4,0,4.4-2,4.4-4.4
		C18.3-475.5,16.3-477.4,13.9-477.4z"/>
</g>
<g>
	<path class="st0" d="M4005.1-1070.1c-1.6,0-3.2-0.7-4.3-2c-2-2.4-1.7-6,0.7-8l19.9-16.8l-19.9-16.8c-2.4-2-2.7-5.6-0.7-8
		c2-2.4,5.6-2.7,8-0.7l25,21.1c1.3,1.1,2,2.7,2,4.3c0,1.7-0.7,3.3-2,4.3l-25,21.1C4007.7-1070.5,4006.4-1070.1,4005.1-1070.1z"/>
</g>
<g>
	<g>
		<path class="st24" d="M4667.6-1068.4h-312c-5.9,0-10.8-4.6-11.2-10.5c0-0.2,0-5.1,0-5.3v-44.7c0-6.2,5-11.2,11.2-11.2h312
			c6.2,0,11.2,5,11.2,11.2v41.9c0,0.3,0,7.9,0,8.2C4678.3-1072.9,4673.5-1068.4,4667.6-1068.4z"/>
	</g>
	<g>
		<path class="st3" d="M4667.6-1072.4h-312c-6.2,0-11.2-5-11.2-11.2v-49.3c0-6.2,5-11.2,11.2-11.2h312c6.2,0,11.2,5,11.2,11.2v49.3
			C4678.8-1077.4,4673.7-1072.4,4667.6-1072.4z"/>
	</g>
	<g>
		<g>
			<path class="st13" d="M4436.3-1105.3c0-2.6,0.6-4.7,1.8-6.3s2.8-2.3,4.8-2.3c2.3,0,4.1,0.9,5.2,2.8l0.1-2.4h1.8v16.6
				c0,2.2-0.6,3.9-1.8,5.2c-1.2,1.3-2.9,1.9-5,1.9c-1.2,0-2.3-0.3-3.4-0.8c-1.1-0.5-1.9-1.2-2.5-2.1l1-1.1c1.3,1.6,2.9,2.4,4.7,2.4
				c1.6,0,2.8-0.5,3.7-1.4s1.3-2.2,1.4-3.8v-2.1c-1.2,1.7-2.9,2.5-5.2,2.5c-2,0-3.5-0.8-4.7-2.3s-1.8-3.7-1.8-6.3V-1105.3z
				 M4438.2-1105c0,2.2,0.4,3.9,1.3,5.1c0.9,1.2,2.1,1.9,3.7,1.9c2.3,0,3.9-1,4.9-3.1v-7.9c-0.4-1.1-1.1-1.9-1.9-2.5
				c-0.8-0.6-1.8-0.9-3-0.9c-1.6,0-2.8,0.6-3.7,1.9S4438.2-1107.4,4438.2-1105z"/>
		</g>
		<g>
			<path class="st13" d="M4456-1118.5c0-0.4,0.1-0.6,0.3-0.9c0.2-0.2,0.5-0.4,0.9-0.4c0.4,0,0.7,0.1,0.9,0.4s0.4,0.5,0.4,0.9
				s-0.1,0.6-0.4,0.9s-0.5,0.4-0.9,0.4c-0.4,0-0.7-0.1-0.9-0.4C4456.1-1117.9,4456-1118.2,4456-1118.5z M4458.2-1096.7h-1.9v-16.9
				h1.9V-1096.7z"/>
		</g>
		<g>
			<path class="st13" d="M4469.8-1099.3l5.1-14.3h1.9l-6.3,16.9h-1.5l-6.3-16.9h1.9L4469.8-1099.3z"/>
		</g>
		<g>
			<path class="st13" d="M4487.7-1096.4c-1.4,0-2.7-0.4-3.9-1.1c-1.2-0.7-2.1-1.7-2.7-3c-0.6-1.3-1-2.7-1-4.3v-0.7
				c0-1.6,0.3-3.1,0.9-4.4c0.6-1.3,1.5-2.3,2.6-3.1c1.1-0.7,2.3-1.1,3.7-1.1c2.1,0,3.7,0.7,4.9,2.1c1.2,1.4,1.8,3.3,1.8,5.7v1H4482
				v0.4c0,1.9,0.5,3.5,1.6,4.8c1.1,1.3,2.5,1.9,4.1,1.9c1,0,1.9-0.2,2.6-0.5c0.8-0.4,1.5-0.9,2.1-1.8l1.2,0.9
				C4492.4-1097.4,4490.4-1096.4,4487.7-1096.4z M4487.4-1112.3c-1.4,0-2.6,0.5-3.6,1.5c-1,1-1.5,2.4-1.8,4.2h10.1v-0.2
				c-0.1-1.6-0.5-2.9-1.4-4C4490-1111.8,4488.8-1112.3,4487.4-1112.3z"/>
		</g>
		<g>
			<path class="st13" d="M4508-1118.5c0-0.4,0.1-0.6,0.3-0.9c0.2-0.2,0.5-0.4,0.9-0.4c0.4,0,0.7,0.1,0.9,0.4s0.4,0.5,0.4,0.9
				s-0.1,0.6-0.4,0.9s-0.6,0.4-0.9,0.4c-0.4,0-0.7-0.1-0.9-0.4C4508.1-1117.9,4508-1118.2,4508-1118.5z M4510.2-1096.7h-1.9v-16.9
				h1.9V-1096.7z"/>
		</g>
		<g>
			<path class="st13" d="M4519.4-1117.9v4.3h3.5v1.5h-3.5v11.3c0,0.9,0.2,1.6,0.5,2.1c0.3,0.5,0.9,0.7,1.7,0.7
				c0.3,0,0.8-0.1,1.5-0.2l0.1,1.5c-0.5,0.2-1.2,0.3-2,0.3c-1.3,0-2.2-0.4-2.8-1.1c-0.6-0.7-0.9-1.8-0.9-3.3v-11.3h-3.1v-1.5h3.1
				v-4.3H4519.4z"/>
		</g>
		<g>
			<path class="st13" d="M4547.8-1096.7c-0.2-0.5-0.3-1.3-0.4-2.4c-0.7,0.9-1.5,1.5-2.5,2s-2.1,0.7-3.2,0.7c-1.6,0-2.9-0.5-3.9-1.4
				c-1-0.9-1.5-2.1-1.5-3.4c0-1.6,0.7-2.9,2.1-3.9c1.4-1,3.3-1.4,5.7-1.4h3.4v-1.9c0-1.2-0.4-2.2-1.1-2.9c-0.7-0.7-1.8-1-3.3-1
				c-1.3,0-2.4,0.3-3.2,1c-0.9,0.7-1.3,1.5-1.3,2.4l-1.9,0c0-1.3,0.6-2.5,1.9-3.5s2.8-1.5,4.6-1.5c1.9,0,3.4,0.5,4.5,1.4
				c1.1,0.9,1.6,2.3,1.7,3.9v8c0,1.6,0.2,2.9,0.5,3.7v0.2H4547.8z M4541.9-1098.1c1.2,0,2.4-0.3,3.4-0.9c1-0.6,1.7-1.4,2.1-2.4v-3.7
				h-3.3c-1.9,0-3.3,0.4-4.4,1c-1.1,0.7-1.6,1.6-1.6,2.7c0,0.9,0.4,1.7,1.1,2.4S4540.8-1098.1,4541.9-1098.1z"/>
		</g>
		<g>
			<path class="st13" d="M4566.7-1096.7h-1.9v-24h1.9V-1096.7z"/>
		</g>
		<g>
			<path class="st13" d="M4573-1118.5c0-0.4,0.1-0.6,0.3-0.9c0.2-0.2,0.5-0.4,0.9-0.4c0.4,0,0.7,0.1,0.9,0.4s0.4,0.5,0.4,0.9
				s-0.1,0.6-0.4,0.9s-0.5,0.4-0.9,0.4c-0.4,0-0.7-0.1-0.9-0.4C4573.1-1117.9,4573-1118.2,4573-1118.5z M4575.2-1096.7h-1.9v-16.9
				h1.9V-1096.7z"/>
		</g>
		<g>
			<path class="st13" d="M4591.7-1101c0-0.9-0.4-1.7-1.1-2.2c-0.7-0.6-1.9-1-3.4-1.3c-1.5-0.3-2.7-0.7-3.5-1.1
				c-0.8-0.4-1.4-0.9-1.8-1.5c-0.4-0.6-0.6-1.3-0.6-2.2c0-1.3,0.6-2.4,1.7-3.3c1.1-0.9,2.5-1.3,4.3-1.3c1.9,0,3.4,0.5,4.5,1.4
				c1.1,0.9,1.7,2.1,1.7,3.6h-1.9c0-1-0.4-1.8-1.2-2.5s-1.9-1-3.1-1c-1.2,0-2.2,0.3-3,0.8c-0.7,0.5-1.1,1.3-1.1,2.1
				c0,0.8,0.3,1.5,0.9,2c0.6,0.5,1.8,0.9,3.4,1.3c1.6,0.4,2.9,0.8,3.7,1.2c0.8,0.4,1.4,1,1.8,1.6c0.4,0.6,0.6,1.4,0.6,2.2
				c0,1.4-0.6,2.6-1.7,3.4c-1.2,0.9-2.7,1.3-4.5,1.3c-2,0-3.6-0.5-4.8-1.4c-1.2-1-1.8-2.2-1.8-3.6h1.9c0.1,1.1,0.5,1.9,1.4,2.6
				c0.8,0.6,2,0.9,3.4,0.9c1.3,0,2.4-0.3,3.2-0.9C4591.3-1099.4,4591.7-1100.1,4591.7-1101z"/>
		</g>
		<g>
			<path class="st13" d="M4601.9-1117.9v4.3h3.5v1.5h-3.5v11.3c0,0.9,0.2,1.6,0.5,2.1c0.3,0.5,0.9,0.7,1.7,0.7
				c0.3,0,0.8-0.1,1.5-0.2l0.1,1.5c-0.5,0.2-1.2,0.3-2,0.3c-1.3,0-2.2-0.4-2.8-1.1c-0.6-0.7-0.9-1.8-0.9-3.3v-11.3h-3.1v-1.5h3.1
				v-4.3H4601.9z"/>
		</g>
		<g>
			<path class="st13" d="M4617.1-1096.4c-1.4,0-2.7-0.4-3.9-1.1c-1.2-0.7-2.1-1.7-2.7-3c-0.6-1.3-1-2.7-1-4.3v-0.7
				c0-1.6,0.3-3.1,0.9-4.4c0.6-1.3,1.5-2.3,2.6-3.1c1.1-0.7,2.3-1.1,3.7-1.1c2.1,0,3.7,0.7,4.9,2.1c1.2,1.4,1.8,3.3,1.8,5.7v1h-12.1
				v0.4c0,1.9,0.5,3.5,1.6,4.8c1.1,1.3,2.5,1.9,4.1,1.9c1,0,1.9-0.2,2.6-0.5c0.8-0.4,1.5-0.9,2.1-1.8l1.2,0.9
				C4621.7-1097.4,4619.7-1096.4,4617.1-1096.4z M4616.8-1112.3c-1.4,0-2.6,0.5-3.6,1.5c-1,1-1.5,2.4-1.8,4.2h10.1v-0.2
				c-0.1-1.6-0.5-2.9-1.4-4C4619.3-1111.8,4618.2-1112.3,4616.8-1112.3z"/>
		</g>
		<g>
			<path class="st13" d="M4630.2-1113.6l0.1,2.9c0.6-1,1.4-1.8,2.4-2.4s2-0.8,3.1-0.8c1.8,0,3.2,0.5,4,1.5c0.9,1,1.3,2.6,1.3,4.6
				v11.1h-1.9v-11.1c0-1.5-0.3-2.6-1-3.4c-0.6-0.7-1.6-1.1-3-1.1c-1.2,0-2.2,0.4-3.1,1.1c-0.9,0.7-1.5,1.7-2,2.9v11.6h-1.9v-16.9
				H4630.2z"/>
		</g>
	</g>
	<g>
		<g>
			<path class="st13" d="M4411.4-1132.8c0,0-11.7,0-15.6,0c-7,0-13.6,5.3-13.6,11.4c0,6.3,4.8,11.3,11.9,11.3c0.5,0,1,0,1.4,0
				c-0.5,0.9-0.8,1.9-0.8,2.9c0,1.7,0.9,3.2,2.1,4.3c-0.9,0-1.8,0-2.7,0c-8.7,0-15.3,5.5-15.3,11.2c0,5.6,7.3,9.2,16,9.2
				c9.9,0,15.3-5.6,15.3-11.2c0-4.5-1.3-7.2-5.5-10.1c-1.4-1-4.1-3.4-4.1-4.8c0-1.7,0.5-2.5,3-4.5c2.6-2,4.4-4.8,4.4-8.1
				c0-3.9-1.7-7.7-5-9h4.9L4411.4-1132.8z M4406-1094.6c0.1,0.5,0.2,1.1,0.2,1.6c0,4.6-2.9,8.1-11.3,8.1c-6,0-10.3-3.8-10.3-8.3
				c0-4.5,5.4-8.2,11.3-8.1c1.4,0,2.7,0.2,3.9,0.6C4403-1098.5,4405.3-1097.2,4406-1094.6z M4396.4-1111.6c-4-0.1-7.8-4.5-8.5-9.8
				c-0.7-5.3,2-9.3,6-9.2c4,0.1,7.8,4.4,8.5,9.6C4403.1-1115.7,4400.4-1111.5,4396.4-1111.6z"/>
		</g>
	</g>
</g>
<g>
	<g>
		<path class="st24" d="M584.5-1263.5h-312c-6.2,0-11.2-5-11.2-11.2v-49.3c0-6.2,5-11.2,11.2-11.2h312c6.2,0,11.2,5,11.2,11.2v49.3
			C595.7-1268.5,590.7-1263.5,584.5-1263.5z"/>
	</g>
	<g>
		<path class="st3" d="M584.5-1267.5h-312c-6.2,0-11.2-5-11.2-11.2v-49.3c0-6.2,5-11.2,11.2-11.2h312c6.2,0,11.2,5,11.2,11.2v49.3
			C595.7-1272.5,590.7-1267.5,584.5-1267.5z"/>
	</g>
	<g>
		<g>
			<path class="st13" d="M345.8-1296.1c0-0.9-0.4-1.7-1.1-2.2s-1.9-1-3.4-1.3c-1.5-0.3-2.7-0.7-3.5-1.1c-0.8-0.4-1.4-0.9-1.8-1.5
				s-0.6-1.3-0.6-2.2c0-1.3,0.6-2.4,1.7-3.3c1.1-0.9,2.5-1.3,4.3-1.3c1.9,0,3.4,0.5,4.5,1.4c1.1,0.9,1.7,2.1,1.7,3.6h-1.9
				c0-1-0.4-1.8-1.2-2.5s-1.9-1-3.1-1c-1.2,0-2.2,0.3-3,0.8s-1.1,1.3-1.1,2.1c0,0.8,0.3,1.5,0.9,2c0.6,0.5,1.8,0.9,3.4,1.3
				c1.6,0.4,2.9,0.8,3.7,1.2s1.4,1,1.8,1.6c0.4,0.6,0.6,1.4,0.6,2.2c0,1.4-0.6,2.6-1.7,3.4c-1.2,0.9-2.7,1.3-4.5,1.3
				c-2,0-3.6-0.5-4.8-1.4s-1.8-2.2-1.8-3.6h1.9c0.1,1.1,0.5,1.9,1.4,2.6s2,0.9,3.4,0.9c1.3,0,2.4-0.3,3.2-0.9
				C345.4-1294.5,345.8-1295.3,345.8-1296.1z"/>
		</g>
		<g>
			<path class="st13" d="M356-1313.1v4.3h3.5v1.5H356v11.3c0,0.9,0.2,1.6,0.5,2.1c0.3,0.5,0.9,0.7,1.7,0.7c0.3,0,0.8-0.1,1.5-0.2
				l0.1,1.5c-0.5,0.2-1.2,0.3-2,0.3c-1.3,0-2.2-0.4-2.8-1.1c-0.6-0.7-0.9-1.8-0.9-3.3v-11.3H351v-1.5h3.1v-4.3H356z"/>
		</g>
		<g>
			<path class="st13" d="M375.4-1291.8c-0.2-0.5-0.3-1.3-0.4-2.4c-0.7,0.9-1.5,1.5-2.5,2s-2.1,0.7-3.2,0.7c-1.6,0-2.9-0.5-3.9-1.4
				c-1-0.9-1.5-2.1-1.5-3.4c0-1.6,0.7-2.9,2.1-3.9c1.4-1,3.3-1.4,5.7-1.4h3.4v-1.9c0-1.2-0.4-2.2-1.1-2.9c-0.7-0.7-1.8-1-3.3-1
				c-1.3,0-2.4,0.3-3.2,1c-0.9,0.7-1.3,1.5-1.3,2.4l-1.9,0c0-1.3,0.6-2.5,1.9-3.5s2.8-1.5,4.6-1.5c1.9,0,3.4,0.5,4.5,1.4
				c1.1,0.9,1.6,2.3,1.7,3.9v8c0,1.6,0.2,2.9,0.5,3.7v0.2H375.4z M369.5-1293.2c1.2,0,2.4-0.3,3.4-0.9c1-0.6,1.7-1.4,2.1-2.4v-3.7
				h-3.3c-1.9,0-3.3,0.4-4.4,1c-1.1,0.7-1.6,1.6-1.6,2.7c0,0.9,0.4,1.7,1.1,2.4S368.4-1293.2,369.5-1293.2z"/>
		</g>
		<g>
			<path class="st13" d="M390.9-1307.1c-0.4-0.1-0.8-0.1-1.3-0.1c-1.2,0-2.2,0.3-3,1c-0.8,0.7-1.4,1.6-1.7,2.8v11.6h-1.9v-16.9h1.8
				l0,2.7c1-2,2.6-3,4.8-3c0.5,0,0.9,0.1,1.2,0.2L390.9-1307.1z"/>
		</g>
		<g>
			<path class="st13" d="M398.1-1313.1v4.3h3.5v1.5h-3.5v11.3c0,0.9,0.2,1.6,0.5,2.1c0.3,0.5,0.9,0.7,1.7,0.7c0.3,0,0.8-0.1,1.5-0.2
				l0.1,1.5c-0.5,0.2-1.2,0.3-2,0.3c-1.3,0-2.2-0.4-2.8-1.1c-0.6-0.7-0.9-1.8-0.9-3.3v-11.3h-3.1v-1.5h3.1v-4.3H398.1z"/>
		</g>
		<g>
			<path class="st13" d="M417.8-1308.7v18.9c0,1.6-0.4,2.8-1.1,3.6c-0.8,0.8-1.9,1.2-3.3,1.2c-0.6,0-1.1-0.1-1.6-0.3l0-1.5
				c0.5,0.1,0.9,0.2,1.4,0.2c1.9,0,2.8-1.1,2.8-3.2v-18.9H417.8z M416.9-1314.9c0.4,0,0.7,0.1,1,0.4c0.2,0.2,0.3,0.5,0.3,0.9
				s-0.1,0.6-0.3,0.9c-0.2,0.2-0.5,0.4-1,0.4c-0.4,0-0.7-0.1-0.9-0.4c-0.2-0.2-0.3-0.5-0.3-0.9s0.1-0.6,0.3-0.9
				C416.2-1314.8,416.5-1314.9,416.9-1314.9z"/>
		</g>
		<g>
			<path class="st13" d="M423.3-1300.5c0-1.6,0.3-3.1,0.9-4.4c0.6-1.3,1.5-2.3,2.7-3c1.2-0.7,2.5-1.1,3.9-1.1c2.2,0,4.1,0.8,5.5,2.4
				s2.1,3.7,2.1,6.3v0.4c0,1.6-0.3,3.1-0.9,4.4c-0.6,1.3-1.5,2.3-2.7,3c-1.1,0.7-2.5,1.1-3.9,1.1c-2.2,0-4.1-0.8-5.5-2.4
				s-2.1-3.7-2.1-6.3V-1300.5z M425.2-1300c0,2,0.5,3.7,1.6,5s2.4,1.9,4.1,1.9c1.7,0,3.1-0.6,4.1-1.9s1.6-3,1.6-5.1v-0.4
				c0-1.3-0.2-2.5-0.7-3.5c-0.5-1.1-1.2-1.9-2-2.5c-0.9-0.6-1.9-0.9-3-0.9c-1.7,0-3,0.7-4.1,2c-1.1,1.3-1.6,3-1.6,5.1V-1300z"/>
		</g>
		<g>
			<path class="st13" d="M454.4-1294c-1.1,1.6-2.9,2.5-5.4,2.5c-1.8,0-3.2-0.5-4.1-1.6s-1.4-2.6-1.4-4.6v-11h1.9v10.8
				c0,3.2,1.3,4.8,3.9,4.8c2.7,0,4.4-1.1,5.1-3.4v-12.2h1.9v16.9h-1.8L454.4-1294z"/>
		</g>
		<g>
			<path class="st13" d="M470.2-1307.1c-0.4-0.1-0.8-0.1-1.3-0.1c-1.2,0-2.2,0.3-3,1c-0.8,0.7-1.4,1.6-1.7,2.8v11.6h-1.9v-16.9h1.8
				l0,2.7c1-2,2.6-3,4.8-3c0.5,0,0.9,0.1,1.2,0.2L470.2-1307.1z"/>
		</g>
		<g>
			<path class="st13" d="M476.2-1308.7l0.1,2.9c0.6-1,1.4-1.8,2.4-2.4s2-0.8,3.1-0.8c1.8,0,3.2,0.5,4,1.5c0.9,1,1.3,2.6,1.3,4.6
				v11.1h-1.9v-11.1c0-1.5-0.3-2.6-1-3.4c-0.6-0.7-1.6-1.1-3-1.1c-1.2,0-2.2,0.4-3.1,1.1c-0.9,0.7-1.5,1.7-2,2.9v11.6h-1.9v-16.9
				H476.2z"/>
		</g>
		<g>
			<path class="st13" d="M499.9-1291.5c-1.4,0-2.7-0.4-3.9-1.1c-1.2-0.7-2.1-1.7-2.7-3s-1-2.7-1-4.3v-0.7c0-1.6,0.3-3.1,0.9-4.4
				c0.6-1.3,1.5-2.3,2.6-3.1c1.1-0.7,2.3-1.1,3.7-1.1c2.1,0,3.7,0.7,4.9,2.1c1.2,1.4,1.8,3.3,1.8,5.7v1h-12.1v0.4
				c0,1.9,0.5,3.5,1.6,4.8c1.1,1.3,2.5,1.9,4.1,1.9c1,0,1.9-0.2,2.6-0.5c0.8-0.4,1.5-0.9,2.1-1.8l1.2,0.9
				C504.5-1292.5,502.5-1291.5,499.9-1291.5z M499.5-1307.5c-1.4,0-2.6,0.5-3.6,1.5s-1.5,2.4-1.8,4.2h10.1v-0.2
				c-0.1-1.6-0.5-2.9-1.4-4C502.1-1306.9,500.9-1307.5,499.5-1307.5z"/>
		</g>
		<g>
			<path class="st13" d="M516.5-1294.5l4.9-14.2h2l-7.2,19.8l-0.4,0.9c-0.9,2.1-2.4,3.1-4.3,3.1c-0.4,0-0.9-0.1-1.4-0.2l0-1.5l1,0.1
				c0.9,0,1.7-0.2,2.2-0.7c0.6-0.5,1-1.2,1.4-2.3l0.8-2.3l-6.4-16.8h2L516.5-1294.5z"/>
		</g>
	</g>
</g>
<g>
	<g>
		<path class="st24" d="M1006.3-1263.5h-312c-6.2,0-11.2-5-11.2-11.2v-49.3c0-6.2,5-11.2,11.2-11.2h312c6.2,0,11.2,5,11.2,11.2v49.3
			C1017.5-1268.5,1012.4-1263.5,1006.3-1263.5z"/>
	</g>
	<g>
		<path class="st3" d="M1006.3-1267.5h-312c-6.2,0-11.2-5-11.2-11.2v-49.3c0-6.2,5-11.2,11.2-11.2h312c6.2,0,11.2,5,11.2,11.2v49.3
			C1017.5-1272.5,1012.4-1267.5,1006.3-1267.5z"/>
	</g>
	<g>
		<g>
			<path class="st13" d="M775.7-1307.1c-0.4-0.1-0.8-0.1-1.3-0.1c-1.2,0-2.2,0.3-3,1c-0.8,0.7-1.4,1.6-1.7,2.8v11.6h-1.9v-16.9h1.8
				l0,2.7c1-2,2.6-3,4.8-3c0.5,0,0.9,0.1,1.2,0.2L775.7-1307.1z"/>
		</g>
		<g>
			<path class="st13" d="M786.5-1291.5c-1.4,0-2.7-0.4-3.9-1.1c-1.2-0.7-2.1-1.7-2.7-3c-0.6-1.3-1-2.7-1-4.3v-0.7
				c0-1.6,0.3-3.1,0.9-4.4c0.6-1.3,1.5-2.3,2.6-3.1c1.1-0.7,2.3-1.1,3.7-1.1c2.1,0,3.7,0.7,4.9,2.1c1.2,1.4,1.8,3.3,1.8,5.7v1h-12.1
				v0.4c0,1.9,0.5,3.5,1.6,4.8c1.1,1.3,2.5,1.9,4.1,1.9c1,0,1.9-0.2,2.6-0.5c0.8-0.4,1.5-0.9,2.1-1.8l1.2,0.9
				C791.1-1292.5,789.1-1291.5,786.5-1291.5z M786.1-1307.5c-1.4,0-2.6,0.5-3.6,1.5c-1,1-1.5,2.4-1.8,4.2H791v-0.2
				c-0.1-1.6-0.5-2.9-1.4-4C788.7-1306.9,787.6-1307.5,786.1-1307.5z"/>
		</g>
		<g>
			<path class="st13" d="M808.4-1291.8c-0.2-0.5-0.3-1.3-0.4-2.4c-0.7,0.9-1.5,1.5-2.5,2s-2.1,0.7-3.2,0.7c-1.6,0-2.9-0.5-3.9-1.4
				c-1-0.9-1.5-2.1-1.5-3.4c0-1.6,0.7-2.9,2.1-3.9c1.4-1,3.3-1.4,5.7-1.4h3.4v-1.9c0-1.2-0.4-2.2-1.1-2.9c-0.7-0.7-1.8-1-3.3-1
				c-1.3,0-2.4,0.3-3.2,1c-0.9,0.7-1.3,1.5-1.3,2.4l-1.9,0c0-1.3,0.6-2.5,1.9-3.5s2.8-1.5,4.6-1.5c1.9,0,3.4,0.5,4.5,1.4
				c1.1,0.9,1.6,2.3,1.7,3.9v8c0,1.6,0.2,2.9,0.5,3.7v0.2H808.4z M802.5-1293.2c1.2,0,2.4-0.3,3.4-0.9c1-0.6,1.7-1.4,2.1-2.4v-3.7
				h-3.3c-1.9,0-3.3,0.4-4.4,1c-1.1,0.7-1.6,1.6-1.6,2.7c0,0.9,0.4,1.7,1.1,2.4S801.4-1293.2,802.5-1293.2z"/>
		</g>
		<g>
			<path class="st13" d="M815.4-1300.4c0-2.6,0.6-4.7,1.8-6.3c1.2-1.6,2.8-2.3,4.8-2.3c2.3,0,4,0.9,5.2,2.7v-9.5h1.9v24h-1.8
				l-0.1-2.2c-1.2,1.7-3,2.6-5.3,2.6c-1.9,0-3.5-0.8-4.7-2.4c-1.2-1.6-1.8-3.7-1.8-6.4V-1300.4z M817.3-1300.1
				c0,2.2,0.4,3.9,1.3,5.1c0.9,1.2,2.1,1.9,3.7,1.9c2.3,0,3.9-1,4.9-3v-7.9c-1-2.2-2.6-3.3-4.9-3.3c-1.6,0-2.8,0.6-3.7,1.9
				S817.3-1302.5,817.3-1300.1z"/>
		</g>
		<g>
			<path class="st13" d="M840.6-1294.5l4.9-14.2h2l-7.2,19.8l-0.4,0.9c-0.9,2.1-2.4,3.1-4.3,3.1c-0.4,0-0.9-0.1-1.4-0.2l0-1.5l1,0.1
				c0.9,0,1.7-0.2,2.2-0.7s1-1.2,1.4-2.3l0.8-2.3l-6.4-16.8h2L840.6-1294.5z"/>
		</g>
		<g>
			<path class="st13" d="M863.7-1313.1v4.3h3.5v1.5h-3.5v11.3c0,0.9,0.2,1.6,0.5,2.1c0.3,0.5,0.9,0.7,1.7,0.7c0.3,0,0.8-0.1,1.5-0.2
				l0.1,1.5c-0.5,0.2-1.2,0.3-2,0.3c-1.3,0-2.2-0.4-2.8-1.1c-0.6-0.7-0.9-1.8-0.9-3.3v-11.3h-3.1v-1.5h3.1v-4.3H863.7z"/>
		</g>
		<g>
			<path class="st13" d="M871.3-1300.5c0-1.6,0.3-3.1,0.9-4.4c0.6-1.3,1.5-2.3,2.7-3c1.2-0.7,2.5-1.1,3.9-1.1c2.2,0,4.1,0.8,5.5,2.4
				s2.1,3.7,2.1,6.3v0.4c0,1.6-0.3,3.1-0.9,4.4c-0.6,1.3-1.5,2.3-2.7,3c-1.1,0.7-2.5,1.1-3.9,1.1c-2.2,0-4.1-0.8-5.5-2.4
				s-2.1-3.7-2.1-6.3V-1300.5z M873.2-1300c0,2,0.5,3.7,1.6,5s2.4,1.9,4.1,1.9c1.7,0,3.1-0.6,4.1-1.9s1.6-3,1.6-5.1v-0.4
				c0-1.3-0.2-2.5-0.7-3.5c-0.5-1.1-1.2-1.9-2-2.5c-0.9-0.6-1.9-0.9-3-0.9c-1.7,0-3,0.7-4.1,2c-1.1,1.3-1.6,3-1.6,5.1V-1300z"/>
		</g>
		<g>
			<path class="st13" d="M899.8-1300.4c0-2.6,0.6-4.7,1.8-6.3s2.8-2.3,4.8-2.3c2.3,0,4.1,0.9,5.2,2.8l0.1-2.4h1.8v16.6
				c0,2.2-0.6,3.9-1.8,5.2c-1.2,1.3-2.9,1.9-5,1.9c-1.2,0-2.3-0.3-3.4-0.8c-1.1-0.5-1.9-1.2-2.5-2.1l1-1.1c1.3,1.6,2.9,2.4,4.7,2.4
				c1.6,0,2.8-0.5,3.7-1.4s1.3-2.2,1.4-3.8v-2.1c-1.2,1.7-2.9,2.5-5.2,2.5c-2,0-3.5-0.8-4.7-2.3s-1.8-3.7-1.8-6.3V-1300.4z
				 M901.7-1300.1c0,2.2,0.4,3.9,1.3,5.1c0.9,1.2,2.1,1.9,3.7,1.9c2.3,0,3.9-1,4.9-3.1v-7.9c-0.4-1.1-1.1-1.9-1.9-2.5
				c-0.8-0.6-1.8-0.9-3-0.9c-1.6,0-2.8,0.6-3.7,1.9S901.7-1302.5,901.7-1300.1z"/>
		</g>
		<g>
			<path class="st13" d="M918.6-1300.5c0-1.6,0.3-3.1,0.9-4.4c0.6-1.3,1.5-2.3,2.7-3c1.2-0.7,2.5-1.1,3.9-1.1c2.2,0,4.1,0.8,5.5,2.4
				s2.1,3.7,2.1,6.3v0.4c0,1.6-0.3,3.1-0.9,4.4c-0.6,1.3-1.5,2.3-2.7,3c-1.1,0.7-2.5,1.1-3.9,1.1c-2.2,0-4.1-0.8-5.5-2.4
				s-2.1-3.7-2.1-6.3V-1300.5z M920.5-1300c0,2,0.5,3.7,1.6,5s2.4,1.9,4.1,1.9c1.7,0,3.1-0.6,4.1-1.9s1.6-3,1.6-5.1v-0.4
				c0-1.3-0.2-2.5-0.7-3.5c-0.5-1.1-1.2-1.9-2-2.5c-0.9-0.6-1.9-0.9-3-0.9c-1.7,0-3,0.7-4.1,2c-1.1,1.3-1.6,3-1.6,5.1V-1300z"/>
		</g>
	</g>
</g>
<g>
	<g>
		<g>
			<path class="st25" d="M514.4-438.4h-312c-5.5,0-10.1-4-11-9.3c-0.1-0.6-0.2-4.3-0.2-5v-46.2c0-6.2,5-11.2,11.2-11.2h312
				c6.2,0,11.2,5,11.2,11.2v45.6c0,0.3,0,4.3,0,4.7C525-442.9,520.2-438.4,514.4-438.4z"/>
		</g>
	</g>
	<g>
		<g>
			<path class="st0" d="M514.4-442.4h-312c-6.2,0-11.2-5-11.2-11.2v-49.3c0-6.2,5-11.2,11.2-11.2h312c6.2,0,11.2,5,11.2,11.2v49.3
				C525.6-447.4,520.6-442.4,514.4-442.4z"/>
		</g>
	</g>
	<g>
		<g>
			<g>
				<path class="st13" d="M300.2-482c-0.4-0.1-0.8-0.1-1.3-0.1c-1.2,0-2.2,0.3-3,1c-0.8,0.7-1.4,1.6-1.7,2.8v11.6h-1.9v-16.9h1.8
					l0,2.7c1-2,2.6-3,4.8-3c0.5,0,0.9,0.1,1.2,0.2L300.2-482z"/>
			</g>
		</g>
		<g>
			<g>
				<path class="st13" d="M311-466.4c-1.4,0-2.7-0.4-3.9-1.1c-1.2-0.7-2.1-1.7-2.7-3c-0.6-1.3-1-2.7-1-4.3v-0.7
					c0-1.6,0.3-3.1,0.9-4.4c0.6-1.3,1.5-2.3,2.6-3.1c1.1-0.7,2.3-1.1,3.7-1.1c2.1,0,3.7,0.7,4.9,2.1c1.2,1.4,1.8,3.3,1.8,5.7v1
					h-12.1v0.4c0,1.9,0.5,3.5,1.6,4.8c1.1,1.3,2.5,1.9,4.1,1.9c1,0,1.9-0.2,2.6-0.5c0.8-0.4,1.5-0.9,2.1-1.8l1.2,0.9
					C315.6-467.4,313.6-466.4,311-466.4z M310.7-482.3c-1.4,0-2.6,0.5-3.6,1.5c-1,1-1.5,2.4-1.8,4.2h10.1v-0.2
					c-0.1-1.6-0.5-2.9-1.4-4C313.2-481.8,312.1-482.3,310.7-482.3z"/>
			</g>
		</g>
		<g>
			<g>
				<path class="st13" d="M332.4-471c0-0.9-0.4-1.7-1.1-2.2c-0.7-0.6-1.9-1-3.4-1.3c-1.5-0.3-2.7-0.7-3.5-1.1
					c-0.8-0.4-1.4-0.9-1.8-1.5c-0.4-0.6-0.6-1.3-0.6-2.2c0-1.3,0.6-2.4,1.7-3.3c1.1-0.9,2.5-1.3,4.3-1.3c1.9,0,3.4,0.5,4.5,1.4
					c1.1,0.9,1.7,2.1,1.7,3.6h-1.9c0-1-0.4-1.8-1.2-2.5s-1.9-1-3.1-1c-1.2,0-2.2,0.3-3,0.8c-0.7,0.5-1.1,1.3-1.1,2.1
					c0,0.8,0.3,1.5,0.9,2c0.6,0.5,1.8,0.9,3.4,1.3c1.6,0.4,2.9,0.8,3.7,1.2c0.8,0.4,1.4,1,1.8,1.6c0.4,0.6,0.6,1.4,0.6,2.2
					c0,1.4-0.6,2.6-1.7,3.4c-1.2,0.9-2.7,1.3-4.5,1.3c-2,0-3.6-0.5-4.8-1.4c-1.2-1-1.8-2.2-1.8-3.6h1.9c0.1,1.1,0.5,1.9,1.4,2.6
					c0.8,0.6,2,0.9,3.4,0.9c1.3,0,2.4-0.3,3.2-0.9C332-469.4,332.4-470.1,332.4-471z"/>
			</g>
		</g>
		<g>
			<g>
				<path class="st13" d="M342.7-488v4.3h3.5v1.5h-3.5v11.3c0,0.9,0.2,1.6,0.5,2.1c0.3,0.5,0.9,0.7,1.7,0.7c0.3,0,0.8-0.1,1.5-0.2
					l0.1,1.5c-0.5,0.2-1.2,0.3-2,0.3c-1.3,0-2.2-0.4-2.8-1.1c-0.6-0.7-0.9-1.8-0.9-3.3v-11.3h-3.1v-1.5h3.1v-4.3H342.7z"/>
			</g>
		</g>
		<g>
			<g>
				<path class="st13" d="M362-466.7c-0.2-0.5-0.3-1.3-0.4-2.4c-0.7,0.9-1.5,1.5-2.5,2s-2.1,0.7-3.2,0.7c-1.6,0-2.9-0.5-3.9-1.4
					s-1.5-2.1-1.5-3.4c0-1.6,0.7-2.9,2.1-3.9c1.4-1,3.3-1.4,5.7-1.4h3.4v-1.9c0-1.2-0.4-2.2-1.1-2.9c-0.7-0.7-1.8-1-3.3-1
					c-1.3,0-2.4,0.3-3.2,1c-0.9,0.7-1.3,1.5-1.3,2.4l-1.9,0c0-1.3,0.6-2.5,1.9-3.5s2.8-1.5,4.6-1.5c1.9,0,3.4,0.5,4.5,1.4
					c1.1,0.9,1.6,2.3,1.7,3.9v8c0,1.6,0.2,2.9,0.5,3.7v0.2H362z M356.1-468.1c1.2,0,2.4-0.3,3.4-0.9c1-0.6,1.7-1.4,2.1-2.4v-3.7
					h-3.3c-1.9,0-3.3,0.4-4.4,1c-1.1,0.7-1.6,1.6-1.6,2.7c0,0.9,0.4,1.7,1.1,2.4S355-468.1,356.1-468.1z"/>
			</g>
		</g>
		<g>
			<g>
				<path class="st13" d="M377.6-482c-0.4-0.1-0.8-0.1-1.3-0.1c-1.2,0-2.2,0.3-3,1c-0.8,0.7-1.4,1.6-1.7,2.8v11.6h-1.9v-16.9h1.8
					l0,2.7c1-2,2.6-3,4.8-3c0.5,0,0.9,0.1,1.2,0.2L377.6-482z"/>
			</g>
		</g>
		<g>
			<g>
				<path class="st13" d="M384.7-488v4.3h3.5v1.5h-3.5v11.3c0,0.9,0.2,1.6,0.5,2.1c0.3,0.5,0.9,0.7,1.7,0.7c0.3,0,0.8-0.1,1.5-0.2
					l0.1,1.5c-0.5,0.2-1.2,0.3-2,0.3c-1.3,0-2.2-0.4-2.8-1.1c-0.6-0.7-0.9-1.8-0.9-3.3v-11.3h-3.1v-1.5h3.1v-4.3H384.7z"/>
			</g>
		</g>
		<g>
			<g>
				<path class="st13" d="M410.2-482c-0.4-0.1-0.8-0.1-1.3-0.1c-1.2,0-2.2,0.3-3,1c-0.8,0.7-1.4,1.6-1.7,2.8v11.6h-1.9v-16.9h1.8
					l0,2.7c1-2,2.6-3,4.8-3c0.5,0,0.9,0.1,1.2,0.2L410.2-482z"/>
			</g>
		</g>
		<g>
			<g>
				<path class="st13" d="M413.4-475.4c0-1.6,0.3-3.1,0.9-4.4c0.6-1.3,1.5-2.3,2.7-3c1.2-0.7,2.5-1.1,3.9-1.1c2.2,0,4.1,0.8,5.5,2.4
					c1.4,1.6,2.1,3.7,2.1,6.3v0.4c0,1.6-0.3,3.1-0.9,4.4c-0.6,1.3-1.5,2.3-2.7,3c-1.1,0.7-2.5,1.1-3.9,1.1c-2.2,0-4.1-0.8-5.5-2.4
					c-1.4-1.6-2.1-3.7-2.1-6.3V-475.4z M415.3-474.9c0,2,0.5,3.7,1.6,5s2.4,1.9,4.1,1.9c1.7,0,3.1-0.6,4.1-1.9s1.6-3,1.6-5.1v-0.4
					c0-1.3-0.2-2.5-0.7-3.5c-0.5-1.1-1.2-1.9-2-2.5c-0.9-0.6-1.9-0.9-3-0.9c-1.7,0-3,0.7-4.1,2c-1.1,1.3-1.6,3-1.6,5.1V-474.9z"/>
			</g>
		</g>
		<g>
			<g>
				<path class="st13" d="M444.5-468.9c-1.1,1.6-2.9,2.5-5.4,2.5c-1.8,0-3.2-0.5-4.1-1.6s-1.4-2.6-1.4-4.6v-11h1.9v10.8
					c0,3.2,1.3,4.8,3.9,4.8c2.7,0,4.4-1.1,5.1-3.4v-12.2h1.9v16.9h-1.8L444.5-468.9z"/>
			</g>
		</g>
		<g>
			<g>
				<path class="st13" d="M455.4-488v4.3h3.5v1.5h-3.5v11.3c0,0.9,0.2,1.6,0.5,2.1c0.3,0.5,0.9,0.7,1.7,0.7c0.3,0,0.8-0.1,1.5-0.2
					l0.1,1.5c-0.5,0.2-1.2,0.3-2,0.3c-1.3,0-2.2-0.4-2.8-1.1c-0.6-0.7-0.9-1.8-0.9-3.3v-11.3h-3.1v-1.5h3.1v-4.3H455.4z"/>
			</g>
		</g>
		<g>
			<g>
				<path class="st13" d="M470.6-466.4c-1.4,0-2.7-0.4-3.9-1.1c-1.2-0.7-2.1-1.7-2.7-3c-0.6-1.3-1-2.7-1-4.3v-0.7
					c0-1.6,0.3-3.1,0.9-4.4c0.6-1.3,1.5-2.3,2.6-3.1c1.1-0.7,2.3-1.1,3.7-1.1c2.1,0,3.7,0.7,4.9,2.1c1.2,1.4,1.8,3.3,1.8,5.7v1
					h-12.1v0.4c0,1.9,0.5,3.5,1.6,4.8c1.1,1.3,2.5,1.9,4.1,1.9c1,0,1.9-0.2,2.6-0.5c0.8-0.4,1.5-0.9,2.1-1.8l1.2,0.9
					C475.2-467.4,473.3-466.4,470.6-466.4z M470.3-482.3c-1.4,0-2.6,0.5-3.6,1.5c-1,1-1.5,2.4-1.8,4.2h10.1v-0.2
					c-0.1-1.6-0.5-2.9-1.4-4C472.9-481.8,471.7-482.3,470.3-482.3z"/>
			</g>
		</g>
	</g>
	<g>
		<g>
			<path class="st13" d="M241.9-457.1c-9.9,0-18-8.1-18-18c0-1.7,1.3-3,3-3s3,1.3,3,3c0,6.6,5.4,12,12,12s12-5.4,12-12
				c0-6.6-5.4-12-12-12c-1.7,0-3-1.3-3-3s1.3-3,3-3c9.9,0,18,8.1,18,18C259.9-465.2,251.8-457.1,241.9-457.1z"/>
		</g>
	</g>
	<g>
		<g>
			<path class="st13" d="M242.1-499.1c0.8-0.5,1.4-0.2,1.4,0.7l0,16.7c0,0.9-0.6,1.3-1.4,0.8l-12.3-8.1c-0.8-0.5-0.8-1.4,0-1.9
				L242.1-499.1z"/>
		</g>
	</g>
</g>
<g>
	<circle class="st3" cx="-576.5" cy="-475.7" r="37.2"/>
</g>
<g>
	<g>
		<path class="st13" d="M-578.8-466.4c-0.7,0.7-1.8,1.4-3.2,2c-1.4,0.6-3.2,0.9-5.4,0.9c-3.1,0-5.6-1-7.5-3.1
			c-1.9-2.1-2.9-4.7-2.9-8v-0.8c0-3.4,1-6.2,2.9-8.3c1.9-2.1,4.4-3.2,7.4-3.2c1.8,0,3.4,0.3,4.9,0.9c1.5,0.6,2.7,1.3,3.7,2.3v4.6
			h-3.4l-0.6-3c-0.4-0.4-1-0.6-1.6-0.9c-0.7-0.2-1.5-0.3-2.4-0.3c-2,0-3.5,0.7-4.6,2.2c-1.1,1.5-1.7,3.4-1.7,5.8v0.8
			c0,2.3,0.5,4.2,1.6,5.5c1.1,1.4,2.6,2.1,4.7,2.1c0.9,0,1.7-0.1,2.2-0.2c0.6-0.2,1-0.3,1.3-0.5v-3.9l-3.2-0.2v-3.2h7.8V-466.4z"/>
	</g>
	<g>
		<path class="st13" d="M-555.4-475.1c0,3.3-1,6.1-2.9,8.3c-1.9,2.2-4.4,3.3-7.5,3.3c-3.1,0-5.6-1.1-7.4-3.3
			c-1.9-2.2-2.8-4.9-2.8-8.3v-0.3c0-3.3,0.9-6.1,2.8-8.2c1.9-2.2,4.4-3.3,7.4-3.3c3.1,0,5.6,1.1,7.5,3.3c1.9,2.2,2.9,4.9,2.9,8.2
			V-475.1z M-559.9-475.5c0-2.4-0.5-4.3-1.5-5.7c-1-1.5-2.4-2.2-4.3-2.2c-1.9,0-3.3,0.7-4.3,2.2c-0.9,1.5-1.4,3.4-1.4,5.8v0.4
			c0,2.4,0.5,4.3,1.4,5.8c1,1.5,2.4,2.2,4.3,2.2c1.9,0,3.4-0.7,4.3-2.2c1-1.5,1.5-3.4,1.5-5.8V-475.5z"/>
	</g>
</g>
<g>
	<g>
		<path class="st27" d="M576.4-453.7c-1.5,0-3.1-0.6-4.2-1.7c-2.3-2.3-2.3-6.1,0-8.4l44.3-44.3c2.3-2.3,6.1-2.3,8.4,0
			c2.3,2.3,2.3,6.1,0,8.4l-44.3,44.3C579.4-454.3,577.9-453.7,576.4-453.7z"/>
	</g>
	<g>
		<path class="st27" d="M620.7-453.7c-1.5,0-3.1-0.6-4.2-1.7l-44.3-44.3c-2.3-2.3-2.3-6.1,0-8.4c2.3-2.3,6.1-2.3,8.4,0l44.3,44.3
			c2.3,2.3,2.3,6.1,0,8.4C623.8-454.3,622.2-453.7,620.7-453.7z"/>
	</g>
</g>
<g>
	<circle class="st3" cx="-701.1" cy="-475.6" r="37.2"/>
</g>
<g>
	<path class="st13" d="M-683.9-492.9c0,0-0.1,0-0.1,0l-36.9,18.6c-0.4,0.1-0.4,0.3,0,0.4l13.4,3.9c0.4,0.1,0.7,0.5,0.8,0.8l4,13.6
		c0.1,0.2,0.3,0.2,0.4,0l18.6-37.1C-683.7-492.8-683.8-492.9-683.9-492.9L-683.9-492.9z"/>
</g>
<g>
	<g>
		<g>
			<path class="st0" d="M129.5-451c-0.5,0-1.1-0.1-1.6-0.4l-43.8-20.3c-1.4-0.6-2.2-2-2.2-3.5s0.9-2.9,2.2-3.5l43.8-20.3
				c1.9-0.9,4.2-0.1,5.1,1.9c0.9,1.9,0.1,4.2-1.9,5.1l-36.3,16.8l36.3,16.8c1.9,0.9,2.8,3.2,1.9,5.1C132.3-451.9,131-451,129.5-451z
				"/>
		</g>
	</g>
	<g>
		<g>
			<circle class="st0" cx="85.7" cy="-475.2" r="10.8"/>
		</g>
	</g>
	<g>
		<g>
			<circle class="st0" cx="129.5" cy="-496.9" r="10.8"/>
		</g>
	</g>
	<g>
		<g>
			<circle class="st0" cx="129.5" cy="-454.9" r="10.8"/>
		</g>
	</g>
</g>
<g>
	<g>
		<path class="st0" d="M-761-398.4h86c6.6,0,12,5.4,12,12v37.8c0,6.6-5.4,12-12,12h-60c0,0-5.1-0.2-9.6,3.7
			c-4.7,4-5.4,10.4-16.3,10.4c-11,0-11.6-6.3-16.3-10.4c-4.6-3.9-9.6-3.7-9.6-3.7h-60c-6.6,0-12-5.4-12-12v-37.8c0-6.6,5.4-12,12-12
			H-761z"/>
	</g>
	<g>
		<g>
			<path class="st13" d="M-833.2-355.8v-15.4h-2.8v-1.5h2.8v-2c0-1.7,0.4-3.1,1.3-4c0.9-0.9,2.1-1.4,3.7-1.4c0.7,0,1.4,0.1,2,0.3
				l-0.1,1.5c-0.5-0.1-1.1-0.2-1.7-0.2c-1,0-1.8,0.3-2.4,1c-0.6,0.6-0.9,1.6-0.9,2.7v2.1h4v1.5h-4v15.4H-833.2z"/>
		</g>
		<g>
			<path class="st13" d="M-812-355.8c-0.2-0.5-0.3-1.3-0.4-2.4c-0.7,0.9-1.5,1.5-2.5,2s-2.1,0.7-3.2,0.7c-1.6,0-2.9-0.5-3.9-1.4
				c-1-0.9-1.5-2.1-1.5-3.4c0-1.6,0.7-2.9,2.1-3.9c1.4-1,3.3-1.4,5.7-1.4h3.4v-1.9c0-1.2-0.4-2.2-1.1-2.9c-0.7-0.7-1.8-1-3.3-1
				c-1.3,0-2.4,0.3-3.2,1c-0.9,0.7-1.3,1.5-1.3,2.4l-1.9,0c0-1.3,0.6-2.5,1.9-3.5s2.8-1.5,4.6-1.5c1.9,0,3.4,0.5,4.5,1.4
				c1.1,0.9,1.6,2.3,1.7,3.9v8c0,1.6,0.2,2.9,0.5,3.7v0.2H-812z M-817.9-357.2c1.2,0,2.4-0.3,3.4-0.9c1-0.6,1.7-1.4,2.1-2.4v-3.7
				h-3.3c-1.9,0-3.3,0.4-4.4,1c-1.1,0.7-1.6,1.6-1.6,2.7c0,0.9,0.4,1.7,1.1,2.4S-819-357.2-817.9-357.2z"/>
		</g>
		<g>
			<path class="st13" d="M-799-358.4l5.1-14.3h1.9l-6.3,16.9h-1.5l-6.3-16.9h1.9L-799-358.4z"/>
		</g>
		<g>
			<path class="st13" d="M-788.7-364.5c0-1.6,0.3-3.1,0.9-4.4c0.6-1.3,1.5-2.3,2.7-3c1.2-0.7,2.5-1.1,3.9-1.1c2.2,0,4.1,0.8,5.5,2.4
				c1.4,1.6,2.1,3.7,2.1,6.3v0.4c0,1.6-0.3,3.1-0.9,4.4c-0.6,1.3-1.5,2.3-2.7,3c-1.1,0.7-2.5,1.1-3.9,1.1c-2.2,0-4.1-0.8-5.5-2.4
				c-1.4-1.6-2.1-3.7-2.1-6.3V-364.5z M-786.8-364c0,2,0.5,3.7,1.6,5s2.4,1.9,4.1,1.9c1.7,0,3.1-0.6,4.1-1.9s1.6-3,1.6-5.1v-0.4
				c0-1.3-0.2-2.5-0.7-3.5c-0.5-1.1-1.2-1.9-2-2.5c-0.9-0.6-1.9-0.9-3-0.9c-1.7,0-3,0.7-4.1,2c-1.1,1.3-1.6,3-1.6,5.1V-364z"/>
		</g>
		<g>
			<path class="st13" d="M-757.5-358c-1.1,1.6-2.9,2.5-5.4,2.5c-1.8,0-3.2-0.5-4.1-1.6s-1.4-2.6-1.4-4.6v-11h1.9v10.8
				c0,3.2,1.3,4.8,3.9,4.8c2.7,0,4.4-1.1,5.1-3.4v-12.2h1.9v16.9h-1.8L-757.5-358z"/>
		</g>
		<g>
			<path class="st13" d="M-741.7-371.1c-0.4-0.1-0.8-0.1-1.3-0.1c-1.2,0-2.2,0.3-3,1c-0.8,0.7-1.4,1.6-1.7,2.8v11.6h-1.9v-16.9h1.8
				l0,2.7c1-2,2.6-3,4.8-3c0.5,0,0.9,0.1,1.2,0.2L-741.7-371.1z"/>
		</g>
		<g>
			<path class="st13" d="M-737.6-377.6c0-0.4,0.1-0.6,0.3-0.9c0.2-0.2,0.5-0.4,0.9-0.4c0.4,0,0.7,0.1,0.9,0.4s0.4,0.5,0.4,0.9
				s-0.1,0.6-0.4,0.9s-0.6,0.4-0.9,0.4c-0.4,0-0.7-0.1-0.9-0.4C-737.5-377-737.6-377.3-737.6-377.6z M-735.4-355.8h-1.9v-16.9h1.9
				V-355.8z"/>
		</g>
		<g>
			<path class="st13" d="M-726.2-377.1v4.3h3.5v1.5h-3.5v11.3c0,0.9,0.2,1.6,0.5,2.1c0.3,0.5,0.9,0.7,1.7,0.7c0.3,0,0.8-0.1,1.5-0.2
				l0.1,1.5c-0.5,0.2-1.2,0.3-2,0.3c-1.3,0-2.2-0.4-2.8-1.1c-0.6-0.7-0.9-1.8-0.9-3.3v-11.3h-3.1v-1.5h3.1v-4.3H-726.2z"/>
		</g>
		<g>
			<path class="st13" d="M-711-355.5c-1.4,0-2.7-0.4-3.9-1.1c-1.2-0.7-2.1-1.7-2.7-3c-0.6-1.3-1-2.7-1-4.3v-0.7
				c0-1.6,0.3-3.1,0.9-4.4c0.6-1.3,1.5-2.3,2.6-3.1c1.1-0.7,2.3-1.1,3.7-1.1c2.1,0,3.7,0.7,4.9,2.1c1.2,1.4,1.8,3.3,1.8,5.7v1h-12.1
				v0.4c0,1.9,0.5,3.5,1.6,4.8c1.1,1.3,2.5,1.9,4.1,1.9c1,0,1.9-0.2,2.6-0.5c0.8-0.4,1.5-0.9,2.1-1.8l1.2,0.9
				C-706.3-356.5-708.3-355.5-711-355.5z M-711.3-371.5c-1.4,0-2.6,0.5-3.6,1.5c-1,1-1.6,2.4-1.8,4.2h10.1v-0.2
				c-0.1-1.6-0.5-2.9-1.4-4C-708.7-370.9-709.9-371.5-711.3-371.5z"/>
		</g>
		<g>
			<path class="st13" d="M-700.4-364.4c0-2.6,0.6-4.7,1.8-6.3c1.2-1.6,2.8-2.3,4.8-2.3c2.3,0,4,0.9,5.2,2.7v-9.5h1.9v24h-1.8
				l-0.1-2.2c-1.2,1.7-3,2.6-5.3,2.6c-1.9,0-3.5-0.8-4.7-2.4c-1.2-1.6-1.8-3.7-1.8-6.4V-364.4z M-698.5-364.1c0,2.2,0.4,3.9,1.3,5.1
				c0.9,1.2,2.1,1.9,3.7,1.9c2.3,0,3.9-1,4.9-3v-7.9c-1-2.2-2.6-3.3-4.9-3.3c-1.6,0-2.8,0.6-3.7,1.9S-698.5-366.5-698.5-364.1z"/>
		</g>
	</g>
</g>
<g>
	<g>
		<g>
			<path class="st0" d="M722.9-445.1c-14.5,0-26.4-11.8-26.4-26.4c0-2.5,2-4.5,4.5-4.5s4.5,2,4.5,4.5c0,9.6,7.8,17.4,17.4,17.4
				s17.4-7.8,17.4-17.4s-7.8-17.4-17.4-17.4c-2.5,0-4.5-2-4.5-4.5s2-4.5,4.5-4.5c14.5,0,26.4,11.8,26.4,26.4
				S737.5-445.1,722.9-445.1z"/>
		</g>
	</g>
	<g>
		<g>
			<path class="st0" d="M722.8-509.5c1.4-0.9,2.5-0.3,2.5,1.3l0.1,29.7c0,1.6-1.1,2.3-2.5,1.3L701-491.6c-1.4-0.9-1.4-2.4,0-3.3
				L722.8-509.5z"/>
		</g>
	</g>
</g>
<g>
	<g>
		<path class="st13" d="M-812.4-255.5c-0.4-0.1-0.8-0.1-1.3-0.1c-1.2,0-2.2,0.3-3,1c-0.8,0.7-1.4,1.6-1.7,2.8v11.6h-1.9v-16.9h1.8
			l0,2.7c1-2,2.6-3,4.8-3c0.5,0,0.9,0.1,1.2,0.2L-812.4-255.5z"/>
	</g>
	<g>
		<path class="st13" d="M-801.6-239.8c-1.4,0-2.7-0.4-3.9-1.1c-1.2-0.7-2.1-1.7-2.7-3s-1-2.7-1-4.3v-0.7c0-1.6,0.3-3.1,0.9-4.4
			c0.6-1.3,1.5-2.3,2.6-3.1c1.1-0.7,2.3-1.1,3.7-1.1c2.1,0,3.7,0.7,4.9,2.1c1.2,1.4,1.8,3.3,1.8,5.7v1h-12.1v0.4
			c0,1.9,0.5,3.5,1.6,4.8c1.1,1.3,2.5,1.9,4.1,1.9c1,0,1.9-0.2,2.6-0.5c0.8-0.4,1.5-0.9,2.1-1.8l1.2,0.9
			C-797-240.8-799-239.8-801.6-239.8z M-801.9-255.8c-1.4,0-2.6,0.5-3.6,1.5s-1.5,2.4-1.8,4.2h10.1v-0.2c-0.1-1.6-0.5-2.9-1.4-4
			C-799.4-255.3-800.5-255.8-801.9-255.8z"/>
	</g>
	<g>
		<path class="st13" d="M-788.6-257.1l0.1,2.8c0.6-1,1.4-1.8,2.3-2.3c0.9-0.5,2-0.8,3.1-0.8c2.7,0,4.4,1.1,5.1,3.3
			c0.6-1.1,1.4-1.9,2.4-2.4c1-0.6,2.1-0.9,3.3-0.9c3.6,0,5.5,2,5.5,5.9v11.3h-1.9v-11.1c0-1.5-0.3-2.6-1-3.4
			c-0.6-0.7-1.7-1.1-3.1-1.1c-1.3,0-2.5,0.5-3.4,1.3c-0.9,0.8-1.4,1.9-1.5,3.1v11.2h-1.9v-11.3c0-1.4-0.4-2.5-1-3.2
			c-0.7-0.7-1.7-1.1-3.1-1.1c-1.2,0-2.2,0.3-3,1s-1.5,1.7-1.9,3v11.6h-1.9v-16.9H-788.6z"/>
	</g>
	<g>
		<path class="st13" d="M-761.7-248.8c0-1.6,0.3-3.1,0.9-4.4c0.6-1.3,1.5-2.3,2.7-3c1.2-0.7,2.5-1.1,3.9-1.1c2.2,0,4.1,0.8,5.5,2.4
			c1.4,1.6,2.1,3.7,2.1,6.3v0.4c0,1.6-0.3,3.1-0.9,4.4c-0.6,1.3-1.5,2.3-2.7,3c-1.1,0.7-2.5,1.1-3.9,1.1c-2.2,0-4.1-0.8-5.5-2.4
			c-1.4-1.6-2.1-3.7-2.1-6.3V-248.8z M-759.8-248.3c0,2,0.5,3.7,1.6,5s2.4,1.9,4.1,1.9c1.7,0,3.1-0.6,4.1-1.9s1.6-3,1.6-5.1v-0.4
			c0-1.3-0.2-2.5-0.7-3.5c-0.5-1.1-1.2-1.9-2-2.5c-0.9-0.6-1.9-0.9-3-0.9c-1.7,0-3,0.7-4.1,2c-1.1,1.3-1.6,3-1.6,5.1V-248.3z"/>
	</g>
	<g>
		<path class="st13" d="M-736.2-242.7l5.1-14.3h1.9l-6.3,16.9h-1.5l-6.3-16.9h1.9L-736.2-242.7z"/>
	</g>
	<g>
		<path class="st13" d="M-718.3-239.8c-1.4,0-2.7-0.4-3.9-1.1c-1.2-0.7-2.1-1.7-2.7-3c-0.6-1.3-1-2.7-1-4.3v-0.7
			c0-1.6,0.3-3.1,0.9-4.4c0.6-1.3,1.5-2.3,2.6-3.1c1.1-0.7,2.3-1.1,3.7-1.1c2.1,0,3.7,0.7,4.9,2.1c1.2,1.4,1.8,3.3,1.8,5.7v1H-724
			v0.4c0,1.9,0.5,3.5,1.6,4.8c1.1,1.3,2.5,1.9,4.1,1.9c1,0,1.9-0.2,2.6-0.5c0.8-0.4,1.5-0.9,2.1-1.8l1.2,0.9
			C-713.7-240.8-715.6-239.8-718.3-239.8z M-718.6-255.8c-1.4,0-2.6,0.5-3.6,1.5c-1,1-1.5,2.4-1.8,4.2h10.1v-0.2
			c-0.1-1.6-0.5-2.9-1.4-4C-716-255.3-717.2-255.8-718.6-255.8z"/>
	</g>
	<g>
		<path class="st13" d="M-707.7-248.8c0-2.6,0.6-4.7,1.8-6.3c1.2-1.6,2.8-2.3,4.8-2.3c2.3,0,4,0.9,5.2,2.7v-9.5h1.9v24h-1.8
			l-0.1-2.2c-1.2,1.7-3,2.6-5.3,2.6c-1.9,0-3.5-0.8-4.7-2.4c-1.2-1.6-1.8-3.7-1.8-6.4V-248.8z M-705.9-248.4c0,2.2,0.4,3.9,1.3,5.1
			c0.9,1.2,2.1,1.9,3.7,1.9c2.3,0,3.9-1,4.9-3v-7.9c-1-2.2-2.6-3.3-4.9-3.3c-1.6,0-2.8,0.6-3.7,1.9S-705.9-250.8-705.9-248.4z"/>
	</g>
</g>
<g>
	<path class="st22" d="M-1458.9-1304h-23.2c-8.4,0-13.5-4.2-13.5-11.3c0-4.9,2.3-10.8,13.4-10.8h23.3c11.2,0,13.5,5.9,13.5,10.8
		C-1445.4-1308.2-1450.5-1304-1458.9-1304z M-1482.1-1321.6c-6.3,0-9,1.9-9,6.3c0,4.5,3,6.8,9,6.8h23.2c6,0,9-2.3,9-6.8
		c0-4.4-2.7-6.3-8.9-6.3H-1482.1z"/>
</g>
<g>
	<path class="st22" d="M-1541.4-1285.9l-0.4-0.6l-5.9-8.8l-0.3-1.1l0,0l-2.1-7.8c0,0,0.2-9.6,0.1-10.1l1.2,0.7l0.8,0.4l1.4,5.9
		c0,0.9,0.6,1.8,1.5,2c1.1,0.3,2.2-0.4,2.5-1.5c0.1-0.5,0.1-0.9-0.1-1.4l-1.9-7.3c0,0-0.4-0.9-0.9-1.1c-0.1-0.1-0.7-0.4-1.4-0.8
		c-0.3-0.2-0.7-0.4-1.1-0.6c-2.3-1.3-2.6-1.5-3.3-1.8c-0.7-0.3-2.6-0.6-4.1-0.3c-1.9,0.4-3.4,0.9-4,2c-0.4,0.7-3.1,6-3.1,6l0,0
		l-0.4,0.7c0,0-3.3,0.7-4.4,0.9c-1,0.1-1.8,1-1.8,2.1c0,1.1,1,2,2.1,2c0.1,0,0.2,0,0.3,0c0,0,4.4-0.8,4.9-0.9c0.5-0.1,1-0.3,1.2-0.6
		c0.1-0.1,0.6-1,1-1.6l1.1-1.7l0,6.3c0,0-4.7,6.1-4.9,6.3s-1.2,1.8-1.5,2.4c-0.5,1.5-1.8,7.2-2.5,10.1c-0.1,0.6-0.2,1-0.3,1.3
		c0,0,0,0,0,0c0,0,0,0,0,0c0,0.1-0.1,0.2-0.1,0.2l0,0c-0.2,1.2,0.6,2.4,1.8,2.7c1.2,0.3,2.4-0.4,2.8-1.5l0,0l0.3-1.3l2.3-9.2
		l1.3-1.7l4.1-5.5c0,0,1.7,5.4,1.8,5.9c0.1,0.5,0.4,1.6,1.1,2.3c0.5,0.6,4.6,6.6,6.6,9.2c0.3,0.4,0.6,0.8,0.8,1c0.4,0.6,1.1,1,1.9,1
		c1.3,0,2.4-1.1,2.4-2.4C-1540.7-1284.8-1541-1285.4-1541.4-1285.9z"/>
	<path class="st22" d="M-1555-1321.7c2.5,0,4.5-2,4.5-4.5c0-0.1,0-0.2,0-0.3c-0.2-2.4-2.1-4.2-4.5-4.2c-1.6,0-3,0.8-3.8,2
		c-0.5,0.7-0.7,1.6-0.7,2.5C-1559.5-1323.7-1557.5-1321.7-1555-1321.7z"/>
</g>
<text transform="matrix(1 0 0 1 -3221.7273 -1396.8334)" style="font-family:'MyriadPro-Regular'; font-size:50;">Onboarding icons</text>
<text transform="matrix(1 0 0 1 261.365 -1396.8334)" style="font-family:'MyriadPro-Regular'; font-size:50;">Major submits</text>
<text transform="matrix(1 0 0 1 -862.3276 -580.8333)" style="font-family:'MyriadPro-Regular'; font-size:50;">Map</text>
<text transform="matrix(1 0 0 1 -862.3276 217.0071)" style="font-family:'MyriadPro-Regular'; font-size:50;">turn List</text>
<text transform="matrix(1 0 0 1 -52.1664 -580.8333)" style="font-family:'MyriadPro-Regular'; font-size:50;">Menu</text>
<circle class="st3" cx="-449.7" cy="-475.9" r="37.2"/>
<g>
	<polygon class="st13" points="-434.6,-454.5 -436.4,-460.9 -434.6,-454.5 	"/>
	<polygon class="st13" points="-464.8,-454.5 -464.8,-454.5 -463,-460.9 	"/>
	<polygon class="st13" points="-436.4,-460.9 -438.2,-467.3 -438.2,-467.3 	"/>
	<polygon class="st13" points="-461.2,-467.3 -463,-460.9 -461.2,-467.3 	"/>
	<path class="st13" d="M-436.2-453.4c1.3,0.9,2.1,0.4,1.6-1.2l-1.8-6.4l-1.8-6.4v0l-0.8-2.8l7.5-5.9l5.2-4.1c1.3-1,1-1.9-0.6-1.9
		l-6.6-0.3l-9.5-0.4l-5.6-15.2c-0.6-1.4-1.5-1.5-2,0l-1.5,4.1l-4.1,11.1l-9.5,0.4l-6.6,0.3c-1.6,0.1-1.9,0.9-0.6,1.9l5.2,4.1
		l7.5,5.9l-0.8,2.8v0l-1.8,6.4l-1.8,6.4c-0.4,1.5,0.3,2.1,1.6,1.2l9.9-6.6l3.6-2.4l2.4,1.6l0,0L-436.2-453.4z"/>
</g>
<g>
	<polygon class="st13" points="-434.6,-340 -436.4,-346.4 -434.6,-340 	"/>
	<polygon class="st13" points="-464.8,-340 -464.8,-340 -463,-346.4 	"/>
	<polygon class="st13" points="-436.4,-346.4 -438.2,-352.8 -438.2,-352.8 	"/>
	<polygon class="st13" points="-461.2,-352.8 -463,-346.4 -461.2,-352.8 	"/>
	<path class="st0" d="M-436.2-338.8c1.3,0.9,2.1,0.4,1.6-1.2l-1.8-6.4l-1.8-6.4v0l-0.8-2.8l7.5-5.9l5.2-4.1c1.3-1,1-1.9-0.6-1.9
		l-6.6-0.3l-9.5-0.4l-5.6-15.2c-0.6-1.4-1.5-1.5-2,0l-1.5,4.1l-4.1,11.1l-9.5,0.4l-6.6,0.3c-1.6,0.1-1.9,0.9-0.6,1.9l5.2,4.1
		l7.5,5.9l-0.8,2.8v0l-1.8,6.4l-1.8,6.4c-0.4,1.5,0.3,2.1,1.6,1.2l9.9-6.6l3.6-2.4l2.4,1.6l0,0L-436.2-338.8z"/>
</g>
<rect x="-917.3" y="-673.6" class="st28" width="658" height="563.9"/>
<rect x="-917.3" y="112.3" class="st28" width="628.4" height="350.4"/>
<rect x="-97.3" y="-673.6" class="st28" width="947.6" height="563.9"/>
<rect x="191.2" y="-1483.4" class="st28" width="887.2" height="318.1"/>
<rect x="-3324.7" y="-1483.4" class="st28" width="2853.9" height="647.9"/>
<path class="st29" d="M-389.7,304.6l-19-28.7c-1.2-1.8-3.2-1.8-4.4,0l-19.1,28.7c-1.2,1.8-0.4,3.3,1.8,3.3l12.5,0v48.7
	c0,3.9,3.1,7,7,7c3.9,0,7-3.1,7-7v-48.7l12.5,0C-389.3,307.9-388.5,306.4-389.7,304.6z"/>
<g>
	<g>
		<path class="st29" d="M-628.3,361.8c3.9,0,7.1-3.2,7.1-7.1v-52.5h49.9c3.9,0,7.1-3.2,7.1-7.1s-3.2-7.1-7.1-7.1h-52.1
			c-6.7,0-12.1,5.4-12.1,12.1v54.7C-635.5,358.6-632.3,361.8-628.3,361.8z"/>
	</g>
	<g>
		<g>
			<path class="st29" d="M-588.1,273.3c-1.8-1.2-3.3-0.4-3.3,1.8l-0.1,39.8c0,2.2,1.5,3,3.3,1.8l29.3-19.4c1.8-1.2,1.8-3.2,0-4.5
				L-588.1,273.3z"/>
		</g>
	</g>
</g>
<g>
	<g>
		<path class="st29" d="M-770.7,367.7c-3.9,0-7.1-3.2-7.1-7.1v-52.5h-49.9c-3.9,0-7.1-3.2-7.1-7.1s3.2-7.1,7.1-7.1h52.1
			c6.7,0,12.1,5.4,12.1,12.1v54.7C-763.5,364.5-766.7,367.7-770.7,367.7z"/>
	</g>
	<g>
		<g>
			<path class="st29" d="M-810.9,279.2c1.8-1.2,3.3-0.4,3.3,1.8l0.1,39.8c0,2.2-1.5,3-3.3,1.8l-29.3-19.4c-1.8-1.2-1.8-3.2,0-4.5
				L-810.9,279.2z"/>
		</g>
	</g>
</g>
<g>
	<g>
		<circle class="st30" cx="-575.4" cy="-360.5" r="36.3"/>
		<path class="st31" d="M-563.7-366.8c0.7-1.1,1.2-2.5,1.2-3.9c0-3.6-2.7-6.4-6.1-6.9c-0.5-3.4-3.4-6.1-6.9-6.1
			c-3.6,0-6.4,2.7-6.9,6.1c-3.4,0.5-6.1,3.4-6.1,6.9c0,1.4,0.4,2.8,1.2,3.9c-3,1.4-5.2,4.5-5.2,8c0,5,4.1,8.9,9.1,8.9h5.2v12.5h5.3
			v-12.5h5.2c5,0,9.1-4.1,9.1-8.9C-558.5-362.3-560.7-365.3-563.7-366.8z"/>
	</g>
</g>
<g>
	<g>
		<g>
			<path class="st0" d="M-836.3-497.6c0,4-7.2,14-7.2,14s-7.2-10-7.2-14c0-4,3.2-7.2,7.2-7.2C-839.6-504.8-836.3-501.6-836.3-497.6z
				"/>
		</g>
	</g>
	<g>
		<g>
			<path class="st0" d="M-789.6-455.2c0,4-7.2,14-7.2,14s-7.2-10-7.2-14s3.2-7.2,7.2-7.2S-789.6-459.2-789.6-455.2z"/>
		</g>
	</g>
	<g>
		<path class="st0" d="M-811.2-444.9h-16c-15.3,0-16.5-11.5-16.5-15.1c0-7.5,5.1-15.1,14.7-15.1h18.4c4.6,0,7.6-3,7.6-7.6
			c0-3.9-2.8-6.7-6.8-6.7h-18.9c-2.2,0-4-1.8-4-4s1.8-4,4-4h18.9c8.5,0,14.8,6.3,14.8,14.7c0,9-6.6,15.6-15.6,15.6h-18.4
			c-6.4,0-6.7,5.9-6.7,7.1c0,3.3,1,7.1,8.5,7.1h16c2.2,0,4,1.8,4,4S-809-444.9-811.2-444.9z"/>
	</g>
</g>
<g>
	<path class="st0" d="M-600.8-213.1c-1.6,0-3.2-0.7-4.3-2c-2-2.4-1.7-6,0.7-8l19.9-16.8l-19.9-16.8c-2.4-2-2.7-5.6-0.7-8
		s5.6-2.7,8-0.7l25,21.1c1.3,1.1,2,2.7,2,4.3s-0.7,3.3-2,4.3l-25,21.1C-598.2-213.5-599.5-213.1-600.8-213.1z"/>
</g>
<g>
	<path class="st32" d="M243.3,476.4c-1.1,0-1.9-0.9-1.9-1.9V2.2c0-1.1,0.9-1.9,1.9-1.9s1.9,0.9,1.9,1.9v472.3
		C245.2,475.6,244.4,476.4,243.3,476.4z"/>
</g>
<g>
	<path class="st32" d="M481.6,480.2H5.5c-2.8,0-5-2.2-5-5s2.2-5,5-5h476.1c2.8,0,5,2.2,5,5S484.4,480.2,481.6,480.2z"/>
</g>
</svg>
