<?xml version="1.0" encoding="utf-8"?>
<!-- Generator: Adobe Illustrator 18.1.1, SVG Export Plug-In . SVG Version: 6.00 Build 0)  -->
<svg version="1.1" id="Layer_1" xmlns="http://www.w3.org/2000/svg" xmlns:xlink="http://www.w3.org/1999/xlink" x="0px" y="0px"
	 viewBox="0 0 60.8 60.8" style="enable-background:new 0 0 60.8 60.8;" xml:space="preserve">
<style type="text/css">
	.st0{fill:#F46B83;}
	.st1{fill:#C6AF75;}
	.st2{fill:#A17644;}
	.st3{fill:#2AD19D;}
	.st4{fill:#79E2BC;}
	.st5{fill:#34B188;}
	.st6{fill:#FCED5E;}
	.st7{fill:#FDE49C;}
	.st8{fill:#E2CC8A;}
	.st9{fill:#D9C081;}
	.st10{fill:#626366;}
	.st11{fill:#CC486A;}
	.st12{fill:#CE5B79;}
	.st13{fill:#FFFFFF;}
	.st14{fill:#929496;}
	.st15{fill:#626467;}
	.st16{fill:#E6D0B8;}
	.st17{fill:#EE6D83;}
	.st18{fill:#5ABABA;}
	.st19{fill:#DEDEDE;}
	.st20{fill:#D1D3D4;}
	.st21{fill:#16A457;}
	.st22{fill:#58BD98;}
	.st23{fill:#F6899C;}
	.st24{fill:#1A9169;}
	.st25{fill:#AA4660;}
	.st26{fill-rule:evenodd;clip-rule:evenodd;fill:#F46B83;}
	.st27{fill:#EF6B83;}
</style>
<g>
	<g>
		<path class="st22" d="M33.8,32.9h-6.1c-1.2,0-2.2-1-2.2-2.3s1-2.2,2.2-2.2h6.1c6.5,0,7-2.2,7-5.4c0-1.4,0-4.2-7-4.2H9.5
			c-1.2,0-2.2-1-2.2-2.2s1-2.2,2.2-2.2h24.2c10,0,11.5,5.4,11.5,8.7C45.2,29.7,41.6,32.9,33.8,32.9z"/>
	</g>
	<g>
		<path class="st22" d="M51.2,46.5H23.8c-4.9,0-8.3-1.4-10.1-4.3c-2-3.1-1.9-7.3,0.3-10.2c1.9-2.4,5.1-3.6,9.8-3.6h4.6
			c1.2,0,2.2,1,2.2,2.2s-1,2.3-2.2,2.3h-4.6c-3.1,0-5.2,0.6-6.2,1.9c-1,1.3-1.1,3.5-0.1,5c0.9,1.4,3,2.2,6.3,2.2h27.5
			c1.2,0,2.2,1,2.2,2.2S52.5,46.5,51.2,46.5z"/>
	</g>
</g>
</svg>
