<?xml version="1.0" encoding="utf-8"?>
<!-- Generator: Adobe Illustrator 18.1.1, SVG Export Plug-In . SVG Version: 6.00 Build 0)  -->
<svg version="1.1" id="Layer_1" xmlns="http://www.w3.org/2000/svg" xmlns:xlink="http://www.w3.org/1999/xlink" x="0px" y="0px"
	 viewBox="0 0 253 591.6" style="enable-background:new 0 0 253 591.6;" xml:space="preserve">
<style type="text/css">
	.st0{fill:#C6AF75;}
	.st1{fill:#A17644;}
	.st2{fill:#2AD19D;}
	.st3{fill:#79E2BC;}
	.st4{fill:#34B188;}
	.st5{fill:#FCED5E;}
	.st6{fill:#FDE49C;}
	.st7{fill:#E2CC8A;}
	.st8{fill:#D9C081;}
	.st9{fill:#626366;}
	.st10{fill:#F46B83;}
	.st11{fill:#CC486A;}
	.st12{fill:#CE5B79;}
	.st13{fill:#FFFFFF;}
	.st14{fill:#929496;}
	.st15{fill:#626467;}
	.st16{fill:#E6D0B8;}
	.st17{fill:#EE6D83;}
	.st18{fill:#5ABABA;}
	.st19{fill:#DEDEDE;}
	.st20{fill:#D1D3D4;}
	.st21{fill:#16A457;}
	.st22{fill:#58BD98;}
	.st23{fill:#F6899C;}
	.st24{fill:#1A9169;}
	.st25{fill:#AA4660;}
	.st26{fill-rule:evenodd;clip-rule:evenodd;fill:#F46B83;}
	.st27{fill:#EF6B83;}
	.st28{fill:none;stroke:#000000;stroke-miterlimit:10;}
	.st29{fill:#37CF9D;}
	.st30{fill-rule:evenodd;clip-rule:evenodd;fill:#FFFFFF;}
	.st31{fill:none;stroke:#CDEBE0;stroke-width:3.8567;stroke-linecap:round;stroke-miterlimit:10;}
	.st32{fill:none;stroke:#CDEBE0;stroke-width:10;stroke-linecap:round;stroke-miterlimit:10;}
	.st33{fill:#16D19B;}
	.st34{fill:#1D7F45;}
	.st35{fill:#F26B81;}
	.st36{fill:none;stroke:#F06E85;stroke-width:10.3615;stroke-linecap:round;stroke-linejoin:round;stroke-miterlimit:10;}
	.st37{fill:#CBCBCB;}
	.st38{fill:#F06E85;}
	.st39{fill:#909294;}
	.st40{fill:#17916A;}
	.st41{fill:#CDE8DE;}
</style>
<path class="st41" d="M78.7,314.2h96c37.9,0,78.4-7.1,78.4-68.1c0-18.7-7.7-33.9-22.3-44.2c-14.9-10.5-26.6-15.7-56.1-15.7h-5.3
	H78.7c-25,0-31.9-5.1-38.9-14.6c-7-9.6-6.7-22.5,0.5-30.8c7.2-8.2,14.4-12.7,38.4-12.7h96c37.9,0,78.4-7.1,78.4-68.1
	c0-18.7-7.7-33.9-22.3-44.2C215.8,5.1,204.2,0,174.6,0H17.2C7.7,0,0,7.4,0,16.6s7.7,16.6,17.2,16.6h157.5c27,0,29.9,5,35.9,9.3
	c3.8,2.7,8.1,7.1,8.1,17.3c0,16.6-4.8,22.4-8.9,25.7c-7.9,6.1-13,9.2-35.1,9.2h-96c-35.2,0-50.3,8.2-64.5,24.4
	c-17.6,20-18.6,49.4-2.5,71.5c13.9,19.1,29.8,28.7,67,28.7h90.7h5.3c27,0,29.9,5,35.9,9.3c3.8,2.7,8.1,7.1,8.1,17.3
	c0,16.6-4.8,22.4-8.9,25.7c-7.9,6.1-13,9.2-35.1,9.2h-96c-35.2,0-50.3,8.2-64.5,24.4c-17.6,20-18.6,49.4-2.5,71.5
	c13.9,19.1,29.8,28.7,67,28.7h68.5c0.8,0,1.7-0.1,2.5-0.2h25c27,0,29.9,5,35.9,9.3c3.8,2.7,8.1,7.1,8.1,17.3
	c0,16.6-4.8,22.4-8.9,25.7c-7.9,6.1-13,9.2-35.1,9.2h-17.1h-5.7H78.7c-35.2,0-50.3,8.2-64.5,24.4c-17.6,20-18.6,49.4-2.5,71.5
	c13.9,19.1,29.8,28.7,67,28.7h157.2c9.5,0,17.2-7.4,17.2-16.6s-7.7-16.6-17.2-16.6H78.7c-25,0-31.9-5.1-38.9-14.6
	c-7-9.6-6.7-22.5,0.5-30.8c7.2-8.2,14.4-12.7,38.4-12.7h73.2h5.7h17.1c37.9,0,78.4-7.1,78.4-68.1c0-18.7-7.7-33.9-22.3-44.2
	c-14.9-10.5-26.6-15.7-56.1-15.7h-27.5c-0.8,0-1.7,0.1-2.5,0.2h-66c-25,0-31.9-5.1-38.9-14.6c-7-9.6-6.7-22.5,0.5-30.8
	C47.5,318.7,54.7,314.2,78.7,314.2z"/>
</svg>
