<?xml version="1.0" encoding="utf-8"?>
<!-- Generator: Adobe Illustrator 18.1.1, SVG Export Plug-In . SVG Version: 6.00 Build 0)  -->
<svg version="1.1" id="Layer_1" xmlns="http://www.w3.org/2000/svg" xmlns:xlink="http://www.w3.org/1999/xlink" x="0px" y="0px"
	 viewBox="0 0 303 554.9" style="enable-background:new 0 0 303 554.9;" xml:space="preserve">
<style type="text/css">
	.st0{fill:#58BD98;}
	.st1{fill:#FFFFFF;}
	.st2{fill:#F6899C;}
	.st3{fill:#1A9169;}
	.st4{fill:#2AD19D;}
	.st5{fill:#F46B83;}
	.st6{fill:#17916A;}
	.st7{fill:#AA4660;}
	.st8{fill:#3A5D87;}
	.st9{fill:#527EBB;}
	.st10{fill:#D82908;}
	.st11{fill:#E85749;}
	.st12{fill:#C6AF75;}
	.st13{fill:#A17644;}
	.st14{fill:#79E2BC;}
	.st15{fill:#34B188;}
	.st16{fill:#FCED5E;}
	.st17{fill:#FDE49C;}
	.st18{fill:#E2CC8A;}
	.st19{fill:#D9C081;}
	.st20{fill:#626366;}
	.st21{fill:#CC486A;}
	.st22{fill:#CE5B79;}
	.st23{fill:#939598;}
	.st24{fill:#626467;}
	.st25{fill:#E6D0B8;}
	.st26{fill:#EE6D83;}
	.st27{fill:#5ABABA;}
	.st28{fill:#DEDEDE;}
	.st29{fill:#D1D3D4;}
	.st30{fill:#16A457;}
	.st31{fill:#929496;}
	.st32{fill:#EE6B82;}
	.st33{fill:#F66981;}
	.st34{fill:#16D19B;}
	.st35{fill:#24A45A;}
	.st36{opacity:0.21;}
	.st37{fill:#231F20;}
	.st38{fill-rule:evenodd;clip-rule:evenodd;fill:#FFFFFF;}
	.st39{fill:#F16D83;}
	.st40{fill-rule:evenodd;clip-rule:evenodd;fill:#F56980;}
	.st41{fill:#CCCCCC;}
	.st42{fill:#F36D85;}
	.st43{fill:#F4A6B7;}
	.st44{fill:#CBCBCB;}
	.st45{fill:#F06E85;}
	.st46{fill:#909294;}
	.st47{fill:#F56980;}
	.st48{opacity:0.3;}
	.st49{fill:#E2F2EB;}
</style>
<g>
	<path class="st49" d="M73.8,294.7h155.7c35.6,0,73.5-6.6,73.5-63.9c0-17.5-7.2-31.8-20.9-41.5c-14-9.9-24.9-14.7-52.6-14.7h-4.9
		H73.8c-23.5,0-30-4.8-36.5-13.7c-6.5-9-6.3-21.1,0.5-28.9c6.7-7.7,13.5-11.9,36-11.9h155.7c35.6,0,73.5-6.6,73.5-63.9
		c0-17.5-7.2-31.8-20.9-41.5C268.1,4.8,257.2,0,229.5,0H16.1C7.2,0,0,7,0,15.6s7.2,15.6,16.1,15.6h213.4c25.4,0,28,4.7,33.6,8.7
		c3.6,2.5,7.6,6.6,7.6,16.3c0,15.6-4.5,21-8.4,24.1c-7.4,5.7-12.2,8.7-32.9,8.7H73.8c-33,0-47.2,7.7-60.5,22.9
		c-16.5,18.7-17.4,46.3-2.3,67.1c13,17.9,27.9,27,62.8,27h150.7h4.9c25.4,0,28,4.7,33.6,8.7c3.6,2.5,7.6,6.6,7.6,16.3
		c0,15.6-4.5,21-8.4,24.1c-7.4,5.7-12.2,8.7-32.9,8.7H73.8c-33,0-47.2,7.7-60.5,22.9c-16.5,18.7-17.4,46.3-2.3,67.1
		c13,17.9,28,27,62.8,27h129.9c0.8,0,1.5-0.1,2.3-0.2h23.5c25.4,0,28,4.7,33.6,8.7c3.6,2.5,7.6,6.6,7.6,16.3c0,15.6-4.5,21-8.4,24.1
		c-7.4,5.7-12.2,8.7-32.9,8.7h-16.1h-5.3H73.8c-33,0-47.2,7.7-60.5,22.9C-3.2,479.6-4.2,507.2,11,528c13,17.9,28,27,62.8,27h213.1
		c8.9,0,16.1-7,16.1-15.6s-7.2-15.6-16.1-15.6H73.8c-23.5,0-30-4.8-36.5-13.7c-6.5-9-6.3-21.1,0.5-28.9c6.7-7.7,13.5-11.9,36-11.9
		h134.3h5.3h16.1c35.6,0,73.5-6.6,73.5-63.9c0-17.5-7.2-31.8-20.9-41.5c-14-9.9-24.9-14.7-52.6-14.7h-25.8c-0.8,0-1.5,0.1-2.3,0.2
		H73.8c-23.5,0-30-4.8-36.5-13.7c-6.5-9-6.3-21.1,0.5-28.9C44.6,299,51.3,294.7,73.8,294.7z"/>
</g>
</svg>
