<?xml version="1.0" encoding="utf-8"?>
<!-- Generator: Adobe Illustrator 18.1.1, SVG Export Plug-In . SVG Version: 6.00 Build 0)  -->
<svg version="1.1" id="Layer_1" xmlns="http://www.w3.org/2000/svg" xmlns:xlink="http://www.w3.org/1999/xlink" x="0px" y="0px"
	 viewBox="0 0 323.3 397.2" style="enable-background:new 0 0 323.3 397.2;" xml:space="preserve">
<style type="text/css">
	.st0{fill:#C6AF75;}
	.st1{fill:#A17644;}
	.st2{fill:#2AD19D;}
	.st3{fill:#79E2BC;}
	.st4{fill:#34B188;}
	.st5{fill:#FCED5E;}
	.st6{fill:#FDE49C;}
	.st7{fill:#E2CC8A;}
	.st8{fill:#D9C081;}
	.st9{fill:#626366;}
	.st10{fill:#F46B83;}
	.st11{fill:#CC486A;}
	.st12{fill:#CE5B79;}
	.st13{fill:#FFFFFF;}
	.st14{fill:#929496;}
	.st15{fill:#626467;}
	.st16{fill:#E6D0B8;}
	.st17{fill:#EE6D83;}
	.st18{fill:#5ABABA;}
	.st19{fill:#DEDEDE;}
	.st20{fill:#D1D3D4;}
	.st21{fill:#16A457;}
	.st22{fill:#58BD98;}
	.st23{fill:#F6899C;}
	.st24{fill:#1A9169;}
	.st25{fill:#AA4660;}
	.st26{fill-rule:evenodd;clip-rule:evenodd;fill:#F46B83;}
	.st27{fill:#EF6B83;}
</style>
<g>
	<g>
		<g>
			<path class="st20" d="M103.3,108.4h15.6c0.5,0,0.8,0.4,0.8,0.8v1.5c0,0.5-0.4,0.8-0.8,0.8h-15.6c-0.5,0-0.8-0.4-0.8-0.8v-1.5
				C102.4,108.8,102.8,108.4,103.3,108.4z"/>
		</g>
	</g>
	<g>
		<g>
			<ellipse class="st20" cx="103.2" cy="110" rx="6.1" ry="1.6"/>
		</g>
	</g>
	<g>
		<g>
			<g>
				<path class="st20" d="M190.3,209h15.6c0.5,0,0.8,0.4,0.8,0.8v1.5c0,0.5-0.4,0.8-0.8,0.8h-15.6c-0.5,0-0.8-0.4-0.8-0.8v-1.5
					C189.4,209.4,189.8,209,190.3,209z"/>
			</g>
		</g>
		<g>
			<g>
				<ellipse class="st20" cx="190.2" cy="210.6" rx="6.1" ry="1.6"/>
			</g>
		</g>
	</g>
	<g>
		<g>
			<g>
				<path class="st20" d="M226,209h15.6c0.5,0,0.8,0.4,0.8,0.8v1.5c0,0.5-0.4,0.8-0.8,0.8H226c-0.5,0-0.8-0.4-0.8-0.8v-1.5
					C225.2,209.4,225.6,209,226,209z"/>
			</g>
		</g>
		<g>
			<g>
				<ellipse class="st20" cx="226" cy="210.6" rx="6.1" ry="1.6"/>
			</g>
		</g>
	</g>
	<g>
		<g>
			<path class="st20" d="M67.6,108.4h15.6c0.5,0,0.8,0.4,0.8,0.8v1.5c0,0.5-0.4,0.8-0.8,0.8H67.6c-0.5,0-0.8-0.4-0.8-0.8v-1.5
				C66.7,108.8,67.1,108.4,67.6,108.4z"/>
		</g>
	</g>
	<g>
		<g>
			<rect x="203.1" y="158.5" class="st1" width="3.7" height="53.7"/>
		</g>
	</g>
	<g>
		<g>
			<path class="st2" d="M205.1,192.2c0,0-14.3,0.1-14.3-17.2c0-14.1,14.3-45.8,14.3-45.8s14.3,31.7,14.3,45.8
				C219.5,192.3,205.1,192.2,205.1,192.2z"/>
		</g>
	</g>
	<g>
		<g>
			<path class="st3" d="M205.1,129.1v63c0,0,14.3,0.1,14.3-17.2C219.5,160.9,205.1,129.1,205.1,129.1z"/>
		</g>
	</g>
	<g>
		<g>
			<rect x="238.8" y="158.5" class="st1" width="3.7" height="53.7"/>
		</g>
	</g>
	<g>
		<g>
			<path class="st2" d="M240.9,192.2c0,0-14.3,0.1-14.3-17.2c0-14.1,14.3-45.8,14.3-45.8s14.3,31.7,14.3,45.8
				C255.2,192.3,240.9,192.2,240.9,192.2z"/>
		</g>
	</g>
	<g>
		<g>
			<path class="st3" d="M240.9,129.1v63c0,0,14.3,0.1,14.3-17.2C255.2,160.9,240.9,129.1,240.9,129.1z"/>
		</g>
	</g>
	<g>
		<g>
			<rect x="80.3" y="57.9" class="st1" width="3.7" height="53.7"/>
		</g>
	</g>
	<g>
		<g>
			<path class="st2" d="M82.4,91.5c0,0-14.3,0.1-14.3-17.2c0-14.1,14.3-45.8,14.3-45.8s14.3,31.7,14.3,45.8
				C96.7,91.7,82.4,91.5,82.4,91.5z"/>
		</g>
	</g>
	<g>
		<g>
			<path class="st3" d="M82.4,28.5v63c0,0,14.3,0.1,14.3-17.2C96.7,60.2,82.4,28.5,82.4,28.5z"/>
		</g>
	</g>
	<g>
		<g>
			<rect x="116.1" y="57.9" class="st1" width="3.7" height="53.7"/>
		</g>
	</g>
	<g>
		<g>
			<path class="st2" d="M118.1,91.5c0,0-14.3,0.1-14.3-17.2c0-14.1,14.3-45.8,14.3-45.8s14.3,31.7,14.3,45.8
				C132.5,91.7,118.1,91.5,118.1,91.5z"/>
		</g>
	</g>
	<g>
		<g>
			<path class="st3" d="M118.1,28.5v63c0,0,14.3,0.1,14.3-17.2C132.5,60.2,118.1,28.5,118.1,28.5z"/>
		</g>
	</g>
	<g>
		<g>
			<path class="st10" d="M311.7,158.2c0,12.6-22.8,44.2-22.8,44.2s-22.8-31.6-22.8-44.2s10.2-22.8,22.8-22.8
				C301.5,135.4,311.7,145.6,311.7,158.2z"/>
		</g>
	</g>
	<g>
		<g>
			<circle class="st13" cx="288.9" cy="159.2" r="11.5"/>
		</g>
	</g>
	<g>
		<g>
			<path class="st10" d="M57.3,56.2c0,12.6-22.8,44.2-22.8,44.2S11.7,68.8,11.7,56.2s10.2-22.8,22.8-22.8S57.3,43.6,57.3,56.2z"/>
		</g>
	</g>
	<g>
		<g>
			<circle class="st13" cx="34.5" cy="57.2" r="11.5"/>
		</g>
	</g>
	<g>
		<g>
			<g>
				<g>
					<g>
						<path class="st21" d="M145.7,200.4h-16c-5.6,0-10.1-4.5-10.1-10.1s4.5-10.1,10.1-10.1h16c4.2,0,14.1,0,14.1-16.5
							c0-4.3-1.1-8.5-2.9-11.3c-1.4-2.2-4.1-5.1-11.2-5.1H34.5c-5.6,0-10.1-4.5-10.1-10.1c0-0.7,0-3.5,0-3.5s4.6-6.6,10.1-6.6h111.3
							c23.6,0,34.3,33.5,34.3,33.5s0,3,0,3.1C180,186.3,166.9,200.4,145.7,200.4z"/>
					</g>
				</g>
			</g>
			<g>
				<g>
					<g>
						<path class="st21" d="M290.7,248.9H115.8c-23.7,0-34.3-18.1-34.3-36.1c0-0.5,0-3.9,0-3.9s10.9-28.7,34.3-28.7h12.1
							c5.6,0,10.1,4.5,10.1,10.1s-4.5,10.1-10.1,10.1h-12.1c-4.3,0-14.1,1.2-14.1,12.4c0,4.2,1.1,8.3,2.9,11c1.4,2.1,4.1,5,11.3,5
							h174.9c5.5,0,10.1,6.3,10.1,6.3s0,3.4,0,3.8C300.8,244.4,296.2,248.9,290.7,248.9z"/>
					</g>
				</g>
			</g>
		</g>
		<g>
			<g>
				<g>
					<path class="st2" d="M145.7,196.4h-16c-5.6,0-10.1-4.5-10.1-10.1s4.5-10.1,10.1-10.1h16c4.2,0,14.1,0,14.1-16.5
						c0-4.3-1.1-8.5-2.9-11.3c-1.4-2.2-4.1-5.1-11.2-5.1H34.5c-5.6,0-10.1-4.5-10.1-10.1c0-5.6,4.5-10.1,10.1-10.1h111.3
						c23.7,0,34.3,18.4,34.3,36.6C180,182.3,166.9,196.4,145.7,196.4z"/>
				</g>
			</g>
			<g>
				<g>
					<path class="st2" d="M290.7,244.9H115.8c-23.7,0-34.3-18.1-34.3-36.1c0-15.7,10.7-32.6,34.3-32.6h12.1
						c5.6,0,10.1,4.5,10.1,10.1s-4.5,10.1-10.1,10.1h-12.1c-4.3,0-14.1,1.2-14.1,12.4c0,4.2,1.1,8.3,2.9,11
						c1.4,2.1,4.1,4.9,11.3,4.9h174.9c5.6,0,10.1,4.5,10.1,10.1S296.2,244.9,290.7,244.9z"/>
				</g>
			</g>
		</g>
	</g>
	<g>
		<g>
			<g>
				<path class="st14" d="M40,301.6h-3.3l-0.5-2.3c-0.3-0.3-0.8-0.5-1.3-0.7s-1.1-0.3-1.7-0.3c-0.9,0-1.6,0.2-2.1,0.6
					c-0.5,0.4-0.8,0.9-0.8,1.5c0,0.6,0.2,1,0.7,1.4c0.5,0.4,1.5,0.7,2.9,1c2.3,0.5,4,1.1,5.1,2c1.1,0.9,1.7,2.1,1.7,3.6
					c0,1.7-0.7,3-2.1,4.1c-1.4,1.1-3.3,1.6-5.6,1.6c-1.4,0-2.7-0.2-3.9-0.6c-1.2-0.4-2.2-1-3.2-1.8l-0.1-4.2h3.5l0.7,2.4
					c0.3,0.3,0.7,0.4,1.2,0.6c0.5,0.1,1,0.2,1.6,0.2c1,0,1.8-0.2,2.3-0.5c0.5-0.4,0.8-0.9,0.8-1.5c0-0.5-0.3-1-0.8-1.4
					c-0.5-0.4-1.5-0.8-3-1.1c-2.2-0.4-3.8-1.1-4.9-2c-1.1-0.9-1.7-2.1-1.7-3.6c0-1.5,0.6-2.9,1.9-4c1.3-1.1,3.1-1.7,5.5-1.7
					c1.4,0,2.8,0.2,4.1,0.6c1.3,0.4,2.3,0.9,3,1.5L40,301.6z"/>
			</g>
		</g>
		<g>
			<g>
				<path class="st14" d="M42.9,304.3c0-2.8,0.8-5,2.3-6.8c1.5-1.8,3.7-2.6,6.4-2.6c2.7,0,4.9,0.9,6.4,2.6c1.5,1.8,2.3,4,2.3,6.8
					v0.4c0,2.8-0.8,5-2.3,6.8c-1.5,1.8-3.7,2.6-6.4,2.6c-2.7,0-4.9-0.9-6.4-2.6c-1.5-1.7-2.3-4-2.3-6.8V304.3z M47.9,304.6
					c0,1.7,0.3,3,0.9,4.1c0.6,1,1.5,1.5,2.9,1.5c1.3,0,2.2-0.5,2.8-1.5c0.6-1,0.9-2.4,0.9-4.1v-0.4c0-1.6-0.3-3-0.9-4
					c-0.6-1-1.6-1.6-2.9-1.6s-2.2,0.5-2.8,1.6c-0.6,1-0.9,2.4-0.9,4V304.6z"/>
			</g>
		</g>
		<g>
			<g>
				<path class="st14" d="M61.9,298.2v-3h7.3l0.2,2.4c0.6-0.9,1.3-1.6,2.2-2.1c0.9-0.5,1.9-0.7,3.1-0.7c1.2,0,2.2,0.3,3,0.8
					c0.8,0.5,1.5,1.3,1.9,2.4c0.6-1,1.3-1.8,2.2-2.3c0.9-0.6,2-0.8,3.2-0.8c1.8,0,3.3,0.6,4.3,1.9c1.1,1.3,1.6,3.2,1.6,5.8v7.7
					l2.4,0.5v3h-9.6v-3l2.2-0.5v-7.7c0-1.4-0.2-2.4-0.7-2.9c-0.5-0.5-1.1-0.8-2-0.8c-0.7,0-1.3,0.2-1.8,0.5
					c-0.5,0.3-0.9,0.7-1.2,1.3c0,0.2,0,0.4,0,0.6c0,0.2,0,0.3,0,0.5v8.6l2,0.5v3h-9v-3l2-0.5v-7.7c0-1.4-0.2-2.3-0.7-2.9
					c-0.5-0.6-1.1-0.8-2.1-0.8c-0.7,0-1.3,0.1-1.8,0.4c-0.5,0.3-0.9,0.6-1.3,1.1v10l2.2,0.5v3h-9.5v-3l2.4-0.5v-11.5L61.9,298.2z"/>
			</g>
		</g>
		<g>
			<g>
				<path class="st14" d="M103.8,314.1c-2.7,0-4.8-0.9-6.4-2.6c-1.6-1.7-2.4-3.9-2.4-6.5v-0.7c0-2.7,0.8-5,2.3-6.8s3.5-2.7,6.1-2.6
					c2.5,0,4.4,0.8,5.8,2.3c1.4,1.5,2.1,3.5,2.1,6.1v2.7h-11l0,0.1c0.1,1.2,0.5,2.2,1.2,3s1.7,1.2,2.9,1.2c1.1,0,2-0.1,2.8-0.3
					c0.7-0.2,1.5-0.6,2.4-1.1l1.3,3.1c-0.8,0.6-1.8,1.1-3,1.5C106.6,313.9,105.2,314.1,103.8,314.1z M103.3,298.7
					c-0.9,0-1.7,0.4-2.2,1.1c-0.5,0.7-0.9,1.6-1,2.8l0.1,0.1h6.1v-0.4c0-1.1-0.2-1.9-0.7-2.5C105.1,299,104.3,298.7,103.3,298.7z"/>
			</g>
		</g>
		<g>
			<g>
				<path class="st14" d="M139.9,298.2l-1.9,0.2l-3.9,15.2H130l-3.4-11h-0.1l-3.4,11h-4.2l-3.9-15.2l-1.9-0.2v-3h8.4v3l-2,0.4
					l1.7,8.5h0.1l3.5-11.8h3.3l3.5,11.9h0.1l1.7-8.5l-2-0.4v-3h8.4V298.2z"/>
			</g>
		</g>
		<g>
			<g>
				<path class="st14" d="M141.3,310.7l2.4-0.5v-19.6l-2.7-0.5v-3h7.6v10.5c0.6-0.9,1.3-1.5,2.1-2c0.8-0.5,1.8-0.7,2.8-0.7
					c1.9,0,3.5,0.6,4.6,1.9c1.1,1.3,1.6,3.3,1.6,5.9v7.5l2.4,0.5v3h-9.5v-3l2.2-0.5v-7.5c0-1.4-0.3-2.5-0.8-3.1
					c-0.5-0.6-1.3-0.9-2.3-0.9c-0.7,0-1.3,0.1-1.8,0.4s-1,0.6-1.3,1.1v10l2.2,0.5v3h-9.5V310.7z"/>
			</g>
		</g>
		<g>
			<g>
				<path class="st14" d="M172.5,314.1c-2.7,0-4.8-0.9-6.4-2.6c-1.6-1.7-2.4-3.9-2.4-6.5v-0.7c0-2.7,0.8-5,2.3-6.8s3.5-2.7,6.1-2.6
					c2.5,0,4.4,0.8,5.8,2.3c1.4,1.5,2.1,3.5,2.1,6.1v2.7h-11l0,0.1c0.1,1.2,0.5,2.2,1.2,3s1.7,1.2,2.9,1.2c1.1,0,2-0.1,2.8-0.3
					c0.7-0.2,1.5-0.6,2.4-1.1l1.3,3.1c-0.8,0.6-1.8,1.1-3,1.5C175.4,313.9,174,314.1,172.5,314.1z M172.1,298.7
					c-0.9,0-1.7,0.4-2.2,1.1c-0.5,0.7-0.9,1.6-1,2.8l0.1,0.1h6.1v-0.4c0-1.1-0.2-1.9-0.7-2.5C173.8,299,173.1,298.7,172.1,298.7z"/>
			</g>
		</g>
		<g>
			<g>
				<path class="st14" d="M182.7,310.7l2.4-0.5v-11.5l-2.6-0.5v-3h7.3l0.2,2.7c0.4-1,1-1.7,1.7-2.2s1.5-0.8,2.4-0.8
					c0.3,0,0.5,0,0.8,0.1c0.3,0,0.5,0.1,0.7,0.1l-0.5,4.5l-2.1-0.1c-0.7,0-1.3,0.1-1.8,0.4c-0.5,0.3-0.8,0.7-1.1,1.2v9l2.4,0.5v3
					h-9.8V310.7z"/>
			</g>
		</g>
		<g>
			<g>
				<path class="st14" d="M205.6,314.1c-2.7,0-4.8-0.9-6.4-2.6c-1.6-1.7-2.4-3.9-2.4-6.5v-0.7c0-2.7,0.8-5,2.3-6.8s3.5-2.7,6.1-2.6
					c2.5,0,4.4,0.8,5.8,2.3c1.4,1.5,2.1,3.5,2.1,6.1v2.7h-11l0,0.1c0.1,1.2,0.5,2.2,1.2,3s1.7,1.2,2.9,1.2c1.1,0,2-0.1,2.8-0.3
					c0.7-0.2,1.5-0.6,2.4-1.1l1.3,3.1c-0.8,0.6-1.8,1.1-3,1.5C208.4,313.9,207.1,314.1,205.6,314.1z M205.1,298.7
					c-0.9,0-1.7,0.4-2.2,1.1c-0.5,0.7-0.9,1.6-1,2.8l0.1,0.1h6.1v-0.4c0-1.1-0.2-1.9-0.7-2.5C206.9,299,206.1,298.7,205.1,298.7z"/>
			</g>
		</g>
		<g>
			<g>
				<path class="st14" d="M231.3,290.7v4.5h3.2v3.5h-3.2v9.4c0,0.7,0.1,1.2,0.4,1.5c0.3,0.3,0.7,0.5,1.2,0.5c0.3,0,0.6,0,0.9,0
					c0.3,0,0.5-0.1,0.9-0.1l0.4,3.6c-0.6,0.2-1.1,0.3-1.7,0.4c-0.5,0.1-1.1,0.1-1.8,0.1c-1.7,0-3-0.5-4-1.4
					c-0.9-0.9-1.4-2.4-1.4-4.5v-9.4h-2.7v-3.5h2.7v-4.5H231.3z"/>
			</g>
		</g>
		<g>
			<g>
				<path class="st14" d="M236.5,304.3c0-2.8,0.8-5,2.3-6.8c1.5-1.8,3.7-2.6,6.4-2.6c2.7,0,4.9,0.9,6.4,2.6c1.5,1.8,2.3,4,2.3,6.8
					v0.4c0,2.8-0.8,5-2.3,6.8c-1.5,1.8-3.7,2.6-6.4,2.6c-2.7,0-4.9-0.9-6.4-2.6c-1.5-1.7-2.3-4-2.3-6.8V304.3z M241.5,304.6
					c0,1.7,0.3,3,0.9,4.1c0.6,1,1.5,1.5,2.9,1.5c1.3,0,2.2-0.5,2.8-1.5c0.6-1,0.9-2.4,0.9-4.1v-0.4c0-1.6-0.3-3-0.9-4
					c-0.6-1-1.6-1.6-2.9-1.6s-2.2,0.5-2.8,1.6c-0.6,1-0.9,2.4-0.9,4V304.6z"/>
			</g>
		</g>
		<g>
			<g>
				<path class="st14" d="M282.6,305c0,2.8-0.6,5-1.8,6.6c-1.2,1.7-3,2.5-5.3,2.5c-1.1,0-2-0.2-2.8-0.7c-0.8-0.4-1.5-1.1-2-2
					l-0.4,2.3h-4.3v-23.1l-2.6-0.5v-3h7.6v10.1c0.5-0.7,1.2-1.3,1.9-1.7c0.7-0.4,1.6-0.6,2.6-0.6c2.3,0,4.1,0.9,5.4,2.7
					c1.2,1.8,1.8,4.1,1.8,7.1V305z M277.6,304.6c0-1.8-0.3-3.2-0.8-4.3c-0.5-1.1-1.4-1.6-2.7-1.6c-0.8,0-1.4,0.2-2,0.5
					c-0.5,0.3-1,0.8-1.3,1.4v7.8c0.3,0.6,0.7,1,1.3,1.3c0.5,0.3,1.2,0.4,2,0.4c1.3,0,2.2-0.5,2.7-1.4c0.5-0.9,0.8-2.2,0.8-3.9V304.6
					z"/>
			</g>
		</g>
		<g>
			<g>
				<path class="st14" d="M293.7,314.1c-2.7,0-4.8-0.9-6.4-2.6c-1.6-1.7-2.4-3.9-2.4-6.5v-0.7c0-2.7,0.8-5,2.3-6.8s3.5-2.7,6.1-2.6
					c2.5,0,4.4,0.8,5.8,2.3c1.4,1.5,2.1,3.5,2.1,6.1v2.7h-11l0,0.1c0.1,1.2,0.5,2.2,1.2,3s1.7,1.2,2.9,1.2c1.1,0,2-0.1,2.8-0.3
					c0.7-0.2,1.5-0.6,2.4-1.1l1.3,3.1c-0.8,0.6-1.8,1.1-3,1.5C296.6,313.9,295.2,314.1,293.7,314.1z M293.3,298.7
					c-0.9,0-1.7,0.4-2.2,1.1c-0.5,0.7-0.9,1.6-1,2.8l0.1,0.1h6.1v-0.4c0-1.1-0.2-1.9-0.7-2.5C295,299,294.3,298.7,293.3,298.7z"/>
			</g>
		</g>
		<g>
			<g>
				<path class="st14" d="M104.5,345.7v-13.8H102v-2.1h2.5v-1.6c0-1.7,0.5-3,1.4-3.9s2.2-1.4,3.9-1.4c0.6,0,1.2,0.1,1.9,0.2
					l-0.1,2.2c-0.5-0.1-0.9-0.1-1.5-0.1c-0.9,0-1.6,0.3-2,0.8s-0.7,1.3-0.7,2.2v1.7h3.4v2.1h-3.4v13.8H104.5z"/>
			</g>
		</g>
		<g>
			<g>
				<path class="st14" d="M121.3,332.3c-0.4-0.1-0.9-0.1-1.3-0.1c-1.8,0-3,0.8-3.6,2.3v11.2h-2.7v-15.8h2.6l0,1.8
					c0.9-1.4,2.1-2.1,3.8-2.1c0.5,0,0.9,0.1,1.2,0.2V332.3z"/>
			</g>
		</g>
		<g>
			<g>
				<path class="st14" d="M122.8,337.6c0-1.6,0.3-2.9,0.9-4.2s1.5-2.2,2.5-2.9s2.3-1,3.7-1c2.2,0,3.9,0.7,5.2,2.2c1.3,1.5,2,3.5,2,6
					v0.2c0,1.5-0.3,2.9-0.9,4.2s-1.4,2.2-2.5,2.9c-1.1,0.7-2.4,1-3.8,1c-2.1,0-3.9-0.7-5.2-2.2c-1.3-1.5-2-3.5-2-5.9V337.6z
					 M125.5,337.9c0,1.8,0.4,3.2,1.2,4.2c0.8,1.1,1.9,1.6,3.3,1.6c1.4,0,2.5-0.5,3.3-1.6s1.2-2.6,1.2-4.5c0-1.7-0.4-3.1-1.2-4.2
					c-0.8-1.1-1.9-1.6-3.3-1.6c-1.3,0-2.4,0.5-3.2,1.6S125.5,336,125.5,337.9z"/>
			</g>
		</g>
		<g>
			<g>
				<path class="st14" d="M143.1,329.8l0.1,1.8c1.2-1.4,2.7-2.1,4.7-2.1c2.2,0,3.7,0.8,4.5,2.5c0.5-0.8,1.2-1.4,2.1-1.8
					s1.8-0.7,3-0.7c3.5,0,5.2,1.8,5.3,5.5v10.6h-2.7v-10.5c0-1.1-0.3-2-0.8-2.5s-1.4-0.8-2.6-0.8c-1,0-1.8,0.3-2.5,0.9
					c-0.7,0.6-1,1.4-1.2,2.4v10.5h-2.7v-10.4c0-2.3-1.1-3.5-3.4-3.5c-1.8,0-3,0.8-3.6,2.3v11.6h-2.7v-15.8H143.1z"/>
			</g>
		</g>
		<g>
			<g>
				<path class="st14" d="M184.1,345.7c-0.2-0.3-0.3-0.9-0.4-1.7c-1.3,1.3-2.8,2-4.5,2c-1.6,0-2.8-0.4-3.8-1.3c-1-0.9-1.5-2-1.5-3.4
					c0-1.7,0.6-2.9,1.9-3.8c1.3-0.9,3-1.4,5.3-1.4h2.6v-1.2c0-0.9-0.3-1.7-0.8-2.3s-1.4-0.8-2.5-0.8c-1,0-1.8,0.2-2.4,0.7
					s-1,1.1-1,1.8h-2.7c0-0.8,0.3-1.6,0.8-2.3c0.6-0.7,1.3-1.3,2.3-1.8c1-0.4,2-0.6,3.2-0.6c1.8,0,3.3,0.5,4.3,1.4
					c1,0.9,1.6,2.2,1.6,3.8v7.3c0,1.5,0.2,2.6,0.6,3.5v0.2H184.1z M179.6,343.6c0.8,0,1.7-0.2,2.4-0.7s1.3-1,1.7-1.7V338h-2.1
					c-3.3,0-5,1-5,2.9c0,0.8,0.3,1.5,0.8,2S178.7,343.6,179.6,343.6z"/>
			</g>
		</g>
		<g>
			<g>
				<path class="st14" d="M205.6,336.2H191v-2.2h14.7V336.2z"/>
			</g>
		</g>
		<g>
			<g>
				<path class="st14" d="M223.7,337.9c0,2.4-0.6,4.4-1.7,5.8c-1.1,1.5-2.6,2.2-4.5,2.2c-2,0-3.5-0.7-4.6-2.1l-0.1,1.8h-2.5v-22.5
					h2.7v8.4c1.1-1.4,2.6-2,4.5-2s3.4,0.7,4.5,2.2c1.1,1.5,1.6,3.4,1.6,6V337.9z M221,337.6c0-1.8-0.4-3.3-1.1-4.3s-1.7-1.5-3.1-1.5
					c-1.8,0-3.1,0.8-3.9,2.5v6.9c0.8,1.7,2.1,2.5,3.9,2.5c1.3,0,2.3-0.5,3-1.5S221,339.7,221,337.6z"/>
			</g>
		</g>
	</g>
	<g>
		<g>
			<ellipse class="st20" cx="67.5" cy="110" rx="6.1" ry="1.6"/>
		</g>
	</g>
</g>
</svg>
