<?xml version="1.0" encoding="utf-8"?>
<!-- Generator: Adobe Illustrator 18.1.1, SVG Export Plug-In . SVG Version: 6.00 Build 0)  -->
<svg version="1.1" id="Layer_1" xmlns="http://www.w3.org/2000/svg" xmlns:xlink="http://www.w3.org/1999/xlink" x="0px" y="0px"
	 viewBox="0 0 84.5 80.5" style="enable-background:new 0 0 84.5 80.5;" xml:space="preserve">
<style type="text/css">
	.st0{fill:#F46B83;}
	.st1{fill:#C6AF75;}
	.st2{fill:#A17644;}
	.st3{fill:#2AD19D;}
	.st4{fill:#79E2BC;}
	.st5{fill:#34B188;}
	.st6{fill:#FCED5E;}
	.st7{fill:#FDE49C;}
	.st8{fill:#E2CC8A;}
	.st9{fill:#D9C081;}
	.st10{fill:#626366;}
	.st11{fill:#CC486A;}
	.st12{fill:#CE5B79;}
	.st13{fill:#FFFFFF;}
	.st14{fill:#929496;}
	.st15{fill:#626467;}
	.st16{fill:#E6D0B8;}
	.st17{fill:#EE6D83;}
	.st18{fill:#5ABABA;}
	.st19{fill:#DEDEDE;}
	.st20{fill:#D1D3D4;}
	.st21{fill:#16A457;}
	.st22{fill:#58BD98;}
	.st23{fill:#F6899C;}
	.st24{fill:#1A9169;}
	.st25{fill:#AA4660;}
	.st26{fill-rule:evenodd;clip-rule:evenodd;fill:#F46B83;}
	.st27{fill:#EF6B83;}
	.st28{fill:none;stroke:#000000;stroke-miterlimit:10;}
	.st29{fill:#F4879A;}
	.st30{fill:#37CF9D;}
	.st31{fill-rule:evenodd;clip-rule:evenodd;fill:#FFFFFF;}
</style>
<circle class="st3" cx="42.3" cy="40.3" r="37.2"/>
<g>
	<polygon class="st13" points="57.3,61.6 55.5,55.3 57.3,61.6 	"/>
	<polygon class="st13" points="27.2,61.6 27.2,61.6 29,55.3 	"/>
	<polygon class="st13" points="55.5,55.3 53.7,48.9 53.7,48.9 	"/>
	<polygon class="st13" points="30.8,48.9 29,55.3 30.8,48.9 	"/>
	<path class="st13" d="M55.7,62.8c1.3,0.9,2.1,0.4,1.6-1.2l-1.8-6.4l-1.8-6.4c0,0,0,0,0,0l-0.8-2.8l7.5-5.9l5.2-4.1
		c1.3-1,1-1.9-0.6-1.9l-6.6-0.3l-9.5-0.4l-5.6-15.2c-0.6-1.4-1.5-1.5-2,0l-1.5,4.1l-4.1,11.1l-9.5,0.4l-6.6,0.3
		c-1.6,0.1-1.9,0.9-0.6,1.9l5.2,4.1l7.5,5.9l-0.8,2.8c0,0,0,0,0,0L29,55.3l-1.8,6.4c-0.4,1.5,0.3,2.1,1.6,1.2l9.9-6.6l3.6-2.4
		l2.4,1.6c0,0,0,0,0,0L55.7,62.8z"/>
</g>
<rect x="-495" y="-157.4" class="st28" width="658" height="563.9"/>
</svg>
