<?xml version="1.0" encoding="utf-8"?>
<!-- Generator: Adobe Illustrator 18.1.1, SVG Export Plug-In . SVG Version: 6.00 Build 0)  -->
<svg version="1.1" id="Layer_1" xmlns="http://www.w3.org/2000/svg" xmlns:xlink="http://www.w3.org/1999/xlink" x="0px" y="0px"
	 viewBox="0 0 51.4 48.9" style="enable-background:new 0 0 51.4 48.9;" xml:space="preserve">
<style type="text/css">
	.st0{fill:#58BD98;}
	.st1{fill:#FFFFFF;}
	.st2{fill:#F6899C;}
	.st3{fill:#1A9169;}
	.st4{fill:#2AD19D;}
	.st5{fill:#F46B83;}
	.st6{fill:#17916A;}
	.st7{fill:#AA4660;}
	.st8{fill:#3A5D87;}
	.st9{fill:#527EBB;}
	.st10{fill:#D82908;}
	.st11{fill:#E85749;}
	.st12{fill:#C6AF75;}
	.st13{fill:#A17644;}
	.st14{fill:#79E2BC;}
	.st15{fill:#34B188;}
	.st16{fill:#FCED5E;}
	.st17{fill:#FDE49C;}
	.st18{fill:#E2CC8A;}
	.st19{fill:#D9C081;}
	.st20{fill:#626366;}
	.st21{fill:#CC486A;}
	.st22{fill:#CE5B79;}
	.st23{fill:#939598;}
	.st24{fill:#626467;}
	.st25{fill:#E6D0B8;}
	.st26{fill:#EE6D83;}
	.st27{fill:#5ABABA;}
	.st28{fill:#DEDEDE;}
	.st29{fill:#D1D3D4;}
	.st30{fill:#16A457;}
	.st31{fill:#929496;}
	.st32{fill:#EE6B82;}
	.st33{fill:#F66981;}
	.st34{fill:#16D19B;}
	.st35{fill:#24A45A;}
	.st36{opacity:0.21;}
	.st37{fill:#231F20;}
	.st38{fill-rule:evenodd;clip-rule:evenodd;fill:#FFFFFF;}
	.st39{fill:#F16D83;}
	.st40{fill-rule:evenodd;clip-rule:evenodd;fill:#F56980;}
	.st41{fill:#CCCCCC;}
	.st42{fill:#F36D85;}
	.st43{fill:#F4A6B7;}
	.st44{fill:#CBCBCB;}
	.st45{fill:#F06E85;}
	.st46{fill:#909294;}
	.st47{fill:#F56980;}
	.st48{opacity:0.3;}
	.st49{fill:#E2F2EB;}
</style>
<g>
	<g>
		<g>
			<polygon class="st35" points="41.7,47.2 39.8,40.4 41.7,47.2 			"/>
		</g>
		<g>
			<polygon class="st35" points="9.7,47.2 9.7,47.2 11.6,40.4 			"/>
		</g>
		<g>
			<polygon class="st35" points="39.8,40.4 37.9,33.6 37.9,33.6 			"/>
		</g>
		<g>
			<polygon class="st35" points="13.5,33.6 11.6,40.4 13.5,33.6 			"/>
		</g>
		<g>
			<path class="st47" d="M40,48.4c1.4,0.9,2.2,0.4,1.7-1.3l-1.9-6.8l-1.9-6.8v0l-0.8-3l8-6.3l5.5-4.4c1.3-1.1,1-2-0.7-2l-7-0.3
				l-10.1-0.4L26.8,1.1c-0.6-1.5-1.6-1.6-2.1,0L23,5.5l-4.3,11.8L8.5,17.7l-7,0.3c-1.7,0.1-2,1-0.7,2l5.5,4.4l8,6.3l-0.8,3v0
				l-1.9,6.8l-1.9,6.8c-0.5,1.6,0.3,2.2,1.7,1.3l10.5-7l3.8-2.5l2.6,1.7l0,0L40,48.4z"/>
		</g>
	</g>
</g>
</svg>
