<?xml version="1.0" encoding="utf-8"?>
<!-- Generator: Adobe Illustrator 18.1.1, SVG Export Plug-In . SVG Version: 6.00 Build 0)  -->
<svg version="1.1" id="Layer_1" xmlns="http://www.w3.org/2000/svg" xmlns:xlink="http://www.w3.org/1999/xlink" x="0px" y="0px"
	 viewBox="0 0 443.8 323.3" style="enable-background:new 0 0 443.8 323.3;" xml:space="preserve">
<style type="text/css">
	.st0{fill:#C6AF76;}
	.st1{fill:none;stroke:#A17644;stroke-width:3.3156;stroke-miterlimit:10;}
	.st2{fill:#51BC96;}
	.st3{fill:#88CCB3;}
	.st4{fill:#34B188;}
	.st5{fill:#FBEC60;}
	.st6{fill:#FCE49B;}
	.st7{fill:#E3CD8A;}
	.st8{fill:#D9C080;}
	.st9{fill:none;stroke:#636467;stroke-width:10.5772;stroke-miterlimit:10;}
	.st10{fill:none;stroke:#EF6B83;stroke-width:8.9907;stroke-linejoin:round;stroke-miterlimit:10;}
	.st11{fill:none;stroke:#EF6B83;stroke-width:8.9907;stroke-linecap:round;stroke-miterlimit:10;}
	.st12{fill:#CC496B;}
	.st13{fill:#EF6B83;}
	.st14{fill:none;stroke:#CF5C7A;stroke-width:4.9592;stroke-linecap:round;stroke-miterlimit:10;}
	.st15{fill:#636467;}
	.st16{fill:#FFFFFF;stroke:#636467;stroke-width:7.1491;stroke-linecap:round;stroke-miterlimit:10;}
	.st17{fill:none;stroke:#A17644;stroke-width:3.2757;stroke-miterlimit:10;}
	.st18{fill:#626568;}
	.st19{fill:#E7D1B9;}
	.st20{fill:#ED6E83;}
	.st21{fill:#5BBBBB;}
	.st22{fill:#DFDFDE;}
	.st23{opacity:0.5;}
	.st24{fill:#D2D3D4;}
	.st25{fill:none;stroke:#A17644;stroke-width:3.6673;stroke-miterlimit:10;}
	.st26{fill:#FFFFFF;}
	.st27{fill:#16A457;}
	.st28{fill:none;stroke:#51BC96;stroke-width:20.1693;stroke-linecap:round;stroke-miterlimit:10;}
	.st29{fill:none;stroke:#51BC96;stroke-width:19.8239;stroke-linecap:round;stroke-miterlimit:10;}
	.st30{fill-rule:evenodd;clip-rule:evenodd;fill:#EF6B83;}
	.st31{fill:none;stroke:#59BE99;stroke-width:3.5;stroke-miterlimit:10;}
	.st32{fill:none;stroke:#59BE99;stroke-width:3.5;stroke-linecap:round;stroke-miterlimit:10;}
	.st33{fill:#FFFFFF;stroke:#59BE99;stroke-width:3.5;stroke-linecap:round;stroke-miterlimit:10;}
	.st34{fill:none;stroke:#59BE99;stroke-width:4.5;stroke-linecap:round;stroke-miterlimit:10;}
	.st35{fill:#59BE99;}
	.st36{fill:none;stroke:#59BE99;stroke-width:4.5;stroke-linecap:round;stroke-linejoin:round;stroke-miterlimit:10;}
	.st37{opacity:0.8;fill:#EF6B83;}
	.st38{opacity:0.8;fill:none;stroke:#EF6C84;stroke-width:5;stroke-linecap:round;stroke-miterlimit:10;}
	.st39{fill:#1A926A;}
	.st40{font-family:'Roboto-Light';}
	.st41{font-size:32;}
	.st42{letter-spacing:1;}
</style>
<path class="st0" d="M-5870,245.2c-0.1,0-0.3,0-0.4,0h-260.2c-0.1,0-0.3,0-0.4,0c-7,0-12.7,3-12.7,10.1c0,7.7,2.8,11.8,6.9,13.9l0,0
	c0,0,0,0,0,0c1.7,0.9,3.7,1.4,5.8,1.4h10.9c5.1,1,8.9,5.5,8.9,10.9c0,11.6-11,11.2-11.1,11.3c-5.4,0-9.7-0.7-9.7,4.7
	c0,11.1,5.3,14.7,10.6,14.7c0.6,0,1.7,0.1,1.7,0.1c10.6,0,178.7,0,207.8,0c0,0,1.3,0,2,0c5.4,0,9.8-4,9.8-14.8
	c0-5.4-4.4-4.8-9.8-4.8c-0.2,0-0.3,0-0.4,0c-0.1,0-0.2,0-0.4,0c-3.5,0-6.3-2.8-6.3-6.3c0-3.5,2.8-6.3,6.3-6.3c0.4,0,2.4,0,3.1,0
	c5,0,16.2,0,20.8,0c4.6,0,8.7-2.6,8.7-9.3h8.1c7,0,12.7-4.4,12.7-15.4C-5857.3,248.2-5862.9,245.2-5870,245.2z"/>
<line class="st1" x1="-6101.7" y1="99.3" x2="-6101.7" y2="226.5"/>
<line class="st1" x1="-5906.5" y1="81.4" x2="-5906.5" y2="228.8"/>
<path class="st2" d="M-5906,159.9c0,0-33.5,0.3-33.5-40.3c0-32.9,33.5-107,33.5-107s33.5,74.1,33.5,107
	C-5872.5,160.2-5906,159.9-5906,159.9z"/>
<path class="st3" d="M-5906,12.7v147.3c0,0,33.5,0.3,33.5-40.3C-5872.5,86.8-5906,12.7-5906,12.7z"/>
<line class="st1" x1="-6056.5" y1="117.3" x2="-6056.5" y2="237.5"/>
<path class="st2" d="M-6056.5,146.9c0,0-30.8,0.3-30.8-37.1c0-30.3,30.8-98.5,30.8-98.5s30.8,68.2,30.8,98.5
	C-6025.6,147.2-6056.5,146.9-6056.5,146.9z"/>
<path class="st3" d="M-6056.5,11.3v135.6c0,0,30.8,0.3,30.8-37.1C-6025.6,79.5-6056.5,11.3-6056.5,11.3z"/>
<path class="st4" d="M-5888.3,218.6C-5888.3,218.6-5888.3,218.6-5888.3,218.6c-3.5-3-15.1-11.1-26.7,0.5c-13.2,13.2-25.7,0-25.7,0
	s-13.8-13.1-27.1,0.1c-13.2,13.2-25.7,0-25.7,0s-13.8-13.1-27.1,0.1c-13.2,13.2-25.5,0.1-25.5,0.1s-14-13.2-27.2,0
	c-13.2,13.2-25.7,0-25.7,0s-10.4-10.7-27.1-0.7c-6.6,4-13.4,15.4-15.1,26.7l1,9.8h252.5l0,0h24.1l1.6-12.3
	C-5877.7,227.6-5894.4,212.4-5888.3,218.6z"/>
<path class="st2" d="M-6101.7,171.1c0,0-22.8,0.2-22.8-27.3c0-22.3,22.8-72.6,22.8-72.6s22.8,50.3,22.8,72.6
	C-6078.9,171.3-6101.7,171.1-6101.7,171.1z"/>
<path class="st3" d="M-6101.7,71.1v100c0,0,22.8,0.2,22.8-27.3C-6078.9,121.4-6101.7,71.1-6101.7,71.1z"/>
<circle class="st5" cx="-6118.4" cy="225.1" r="2"/>
<circle class="st5" cx="-5959.9" cy="226.5" r="1.1"/>
<circle class="st5" cx="-5986" cy="236.2" r="1.1"/>
<circle class="st5" cx="-6068.9" cy="227.2" r="1.1"/>
<circle class="st5" cx="-5882.8" cy="231.3" r="2"/>
<circle class="st5" cx="-6127.5" cy="232.3" r="1.1"/>
<path class="st6" d="M-5870,240.1c-0.1,0-0.3,0-0.4,0h-260.2c-0.1,0-0.3,0-0.4,0c-7,0-12.7,5.7-12.7,12.7c0,4.9,2.8,9.2,6.9,11.3
	l0,0c0,0,0,0,0,0c1.7,0.9,3.7,1.4,5.8,1.4h10.9c5.1,1,8.9,5.5,8.9,10.9c0,11.6-11,11.2-11.1,11.3c-5.4,0-9.7,4.3-9.7,9.7
	s4.3,9.7,9.7,9.7c0.2,0,1.7,0.1,1.7,0.1c10.6,0,179.6,0,208.7,0h2c5.4,0,9.8-4.4,9.8-9.8c0-5.4-4.4-9.8-9.8-9.8c-0.2,0-0.7,0-0.8,0
	c-3.5,0-6.3-2.8-6.3-6.3s2.8-6.3,6.3-6.3c0.4,0,2.4,0,3.1,0c5,0,16.2,0,20.8,0c4.6,0,8.7-2.6,8.7-9.3h8.1c7,0,12.7-5.7,12.7-12.7
	C-5857.3,245.8-5862.9,240.1-5870,240.1z"/>
<circle class="st5" cx="-6049.1" cy="231.3" r="1.1"/>
<ellipse class="st7" cx="-6083.4" cy="249.6" rx="4.1" ry="1.5"/>
<path class="st8" d="M-5919.6,248c-0.1,0-0.2,0-0.4,0c0,0,0,0,0,0h-200.8c0,0-0.1,0-0.1,0c0,0,0,0-0.1,0c-3.1,0-5.6,0.9-5.6,2.1
	c0,1.2,2.5,2.1,5.6,2.1c0,0,0.1,0,0.1,0c0,0,0,0,0,0h200.1c0.2,0,0.3,0,0.5-0.1c0.2,0,0.4,0,0.6,0c3.1,0,5.5-0.9,5.5-2.1
	S-5916.6,248-5919.6,248z"/>
<circle class="st5" cx="-5898.3" cy="226.3" r="2"/>
<circle class="st9" cx="-5932.7" cy="209.5" r="35.7"/>
<circle class="st9" cx="-6070.5" cy="209.5" r="35.7"/>
<polygon class="st10" points="-6075.2,209.5 -6036.4,157.6 -5958.6,157.6 -5999.1,209.5 "/>
<path class="st11" d="M-5932.7,209.5l-33.4-70.9c-0.7-1.5,0.4-3.3,2.1-3.3h29"/>
<g>
	<path class="st12" d="M-5960.5,139.8h25.5c2.5,0,4.5-2,4.5-4.5c0-2.5-2-4.5-4.5-4.5h-29.6L-5960.5,139.8z"/>
</g>
<line class="st11" x1="-6000.9" y1="207.6" x2="-6047.6" y2="137.6"/>
<circle class="st13" cx="-5999.1" cy="209.5" r="12.9"/>
<line class="st14" x1="-6014.1" y1="227.2" x2="-5999.1" y2="209.5"/>
<path class="st15" d="M-6006.6,231.1h-15c-1.4,0-2.5-1.1-2.5-2.5l0,0c0-1.4,1.1-2.5,2.5-2.5h15c1.4,0,2.5,1.1,2.5,2.5l0,0
	C-6004.2,230-6005.3,231.1-6006.6,231.1z"/>
<line class="st16" x1="-6025" y1="136.3" x2="-6057.6" y2="136.3"/>
<g>
	<path class="st0" d="M-5267.9,312c-5.5,0-9.9-4.4-9.9-16.3c0-5.5,4.4-3.6,9.9-3.6c0.2,0,0.3,0,0.5,0c0.1,0,0.2,0,0.4,0
		c3.5,0,6.4-2.8,6.4-6.4s-2.8-6.4-6.4-6.4c-0.4,0-2.4,0-3.1,0c-5,0-16.3,0-21,0s-8.8-2.6-8.8-9.4h-8.1c-7.1,0-12.8-5.7-12.8-12.8
		c0-0.3,0.1-7.9,0.1-7.9s6.5-4.9,12.7-4.9c0.1,0,0.3,0,0.4,0h262.7c0.1,0,0.3,0,0.4,0c7.1,0,12.8,0.2,12.8,7.3
		c0,10.6-2.8,14.8-6.9,16.9l0,0c0,0,0,0,0,0c-1.8,0.9-3.8,1.4-5.9,1.4c0,0-5.9,0-11,0c-5.1,0-9,5.5-9,11c0,11.7,11.1,11.3,11.2,11.4
		c5.4,0,9.8,4.4,9.8,9.8c0,5.4-4.4,9.8-9.8,9.8"/>
	<line class="st17" x1="-5292.8" y1="100.9" x2="-5292.8" y2="236.6"/>
	<line class="st17" x1="-5071.9" y1="104.1" x2="-5071.9" y2="221.8"/>
	<path class="st3" d="M-5293.3,185c0,0,30.9,0.3,30.9-37.1c0-30.3-30.9-98.5-30.9-98.5s-30.9,68.2-30.9,98.5
		C-5324.2,185.3-5293.3,185-5293.3,185z"/>
	<path class="st2" d="M-5293.3,49.4V185c0,0-30.9,0.3-30.9-37.1C-5324.2,117.6-5293.3,49.4-5293.3,49.4z"/>
	<line class="st17" x1="-5261.8" y1="169.2" x2="-5261.8" y2="231.5"/>
	<path class="st2" d="M-5261.8,189.6c0,0-18.8,0.2-18.8-22.6c0-18.4,18.8-60,18.8-60s18.8,41.6,18.8,60
		C-5243,189.8-5261.8,189.6-5261.8,189.6z"/>
	<path class="st3" d="M-5261.8,107v82.6c0,0,18.8,0.2,18.8-22.6C-5243,148.6-5261.8,107-5261.8,107z"/>
	<path class="st3" d="M-5071.9,15.9c0,0-30.5,67.4-30.5,97.3c0,36.9,30.5,36.6,30.5,36.6s30.5,0.3,30.5-36.6
		C-5041.4,83.3-5071.9,15.9-5071.9,15.9"/>
	<path class="st2" d="M-5071.9,15.9v133.9c0,0-30.5,0.3-30.5-36.6C-5102.3,83.3-5071.9,15.9-5071.9,15.9"/>
	<line class="st17" x1="-5106.9" y1="141.2" x2="-5106.9" y2="259"/>
	<path class="st3" d="M-5106.9,186.9c0,0,21.4,0.2,21.4-25.7c0-21-21.4-68.2-21.4-68.2s-21.4,47.3-21.4,68.2
		C-5128.3,187.1-5106.9,186.9-5106.9,186.9z"/>
	<path class="st2" d="M-5106.9,93v93.9c0,0-21.4,0.2-21.4-25.7C-5128.3,140.3-5106.9,93-5106.9,93z"/>
	<g>
		<path class="st4" d="M-5295,214.3c0,0,17.8-11.4,29.3,0.1c13.1,13.1,25.4,0,25.4,0s13.7-13,26.7,0.1c13.1,13.1,25.4,0,25.4,0
			s13.7-13,26.7,0.1c13.1,13.1,25.2,0.1,25.2,0.1s13.8-13.1,26.9,0c13.1,13.1,25.4,0,25.4,0s10.2-10.5,26.7-0.6
			c6.5,3.9,14.2,15.2,15.9,26.4l-2,9.7h-249.4l0,0h-23.8l-0.2-8.9C-5310.1,231.5-5303.5,221.4-5295,214.3z"/>
		<circle class="st5" cx="-5064.7" cy="220.5" r="2"/>
		<circle class="st5" cx="-5221.4" cy="221.8" r="1.1"/>
		<circle class="st5" cx="-5195.6" cy="231.4" r="1.1"/>
		<circle class="st5" cx="-5113.7" cy="222.5" r="1.1"/>
		<circle class="st5" cx="-5297.5" cy="226.6" r="1.1"/>
		<circle class="st5" cx="-5055.8" cy="227.5" r="1.1"/>
		<circle class="st5" cx="-5133.3" cy="226.6" r="1.1"/>
		<circle class="st5" cx="-5282.2" cy="221.6" r="2"/>
	</g>
	<path class="st6" d="M-5308.1,238c0.1,0,0.3,0,0.4,0h262.7c0.1,0,0.3,0,0.4,0c7.1,0,12.8,5.7,12.8,12.8c0,5-2.8,9.2-6.9,11.4l0,0
		c0,0,0,0,0,0c-1.8,0.9-3.8,1.4-5.9,1.4c0,0-7.3,0-11,0s-9,5.5-9,11c0,11.7,11.1,11.3,11.2,11.4c5.4,0,9.8,4.4,9.8,9.8
		s-4.4,9.8-9.8,9.8c-0.6,0-213.7,0.1-214.4,0.1c-5.5,0-9.9-4.4-9.9-9.9s4.4-9.9,9.9-9.9c0.2,0,0.3,0,0.5,0c0.1,0,0.2,0,0.4,0
		c3.5,0,6.4-2.8,6.4-6.4c0-3.5-2.8-6.4-6.4-6.4c-0.4,0-2.4,0-3.1,0c-5,0-16.3,0-21,0s-8.8-2.6-8.8-9.4h-8.1
		c-7.1,0-12.8-5.7-12.8-12.8C-5320.9,243.7-5315.2,238-5308.1,238z"/>
	<path class="st18" d="M-5265.4,224"/>
	<path class="st19" d="M-5154.8,115.6c5,2.8,9.1,5.2,9.8,5.5c1.8,0.9,3.5,4.2,3.5,4.2l7.3,27.9c0.7,1.6,0.9,3.4,0.4,5.2
		c-1.1,4.2-5.5,6.7-9.7,5.6c-3.6-1-6-4.3-5.9-7.9l-5.2-22.5l-2.9-1.7L-5154.8,115.6"/>
	<path class="st19" d="M-5206.9,132.9l-4.9,7.9c0,0-12.6,2.5-16.9,3.4c-3.9,0.5-6.9,3.9-6.8,7.9c0.1,4.3,3.7,7.7,8,7.6
		c0.4,0,0.8-0.1,1.2-0.1c0,0,16.9-3,18.7-3.4c2.1-0.4,3.7-1.3,4.7-2.4c0.4-0.5,2.3-3.8,4-6.2l-9-12.2"/>
	<path class="st20" d="M-5195,165l0.2-24.2l-4.1,6.7l-11.3-9.2c0,0,11.5-18.4,12.9-21.3c2.1-4.2,6.9-7.9,14.3-9.5
		c5.8-1.2,13.3,0,15.8,1.2s3.7,1.9,12.5,6.9c1.6,0.9,3.1,1.7,4.4,2.5l-7.1,13.9l-4.7-2.6c0.5,1.6-0.2,38.7-0.2,38.7"/>
	<path class="st8" d="M-5249,256.2h118.8c2.3,0,5.8-0.9,6.7-4.2c1-3.3-2.8-4.2-5.1-4.2H-5244c-2.3,0-6.9,1.9-8,4.2
		C-5253,254.3-5251.3,256.2-5249,256.2z"/>
	<path class="st19" d="M-5145.3,246.6c1.3,1.7,2.3,3,2.9,3.8c1.7,2.3,4.4,3.9,7.4,3.9c5,0,9.1-4.1,9.1-9.1c0-2.6-1.1-5-2.9-6.7
		l-1.7-2.5"/>
	<path class="st19" d="M-5145.3,246.6c-7.4-10-23.4-33-25.3-35.2c-2.5-2.9-3.7-7.1-4-9l20.2-4.6l1.2,4.4l22.8,33.7L-5145.3,246.6z"
		/>
	<path class="st21" d="M-5213.7,189.3c0.6-0.7,18.7-24.3,18.7-24.3l32.7,3l8.2,29.9l-20.4,4.5c-0.4-1.9-7-22.8-7-22.8l-15.9,21.1
		L-5213.7,189.3z"/>
	<path class="st19" d="M-5228.8,237.2c2.5-10.8,7.6-33,9.5-38.6c0.8-2.4,4.9-8.6,5.6-9.3l16.3,11.4l-5,6.7l-8.7,35.3"/>
	<path class="st19" d="M-5228.8,237.2c-0.5,2.2-0.9,4-1.2,5c0,0.1,0,0.1-0.1,0.2c0,0,0,0.1,0,0.1c-0.1,0.5-0.2,0.8-0.2,0.8l0,0
		c-0.7,4.6,2.3,9.1,6.9,10.2c4.6,1.1,9.3-1.5,10.9-5.8l0,0l1.2-5L-5228.8,237.2z"/>
	<path class="st18" d="M-5233.6,159.8l7.3-1.2c1.6-0.3,2.7-1.8,2.4-3.4l-3.2-19.4c-0.3-1.6-1.8-2.7-3.4-2.4l-7.3,1.2
		c-1.6,0.3-2.7,1.8-2.4,3.4l3.2,19.4C-5236.7,159-5235.2,160.1-5233.6,159.8z"/>
	<path class="st22" d="M-5234.3,156.5l7.6-1.3c0.6-0.1,1.1-0.7,1-1.3l-2.8-16.7c-0.1-0.6-0.7-1.1-1.3-1l-7.6,1.3
		c-0.6,0.1-1.1,0.7-1,1.3l2.8,16.7C-5235.6,156.1-5235,156.6-5234.3,156.5z"/>
	<g>
		<path class="st20" d="M-5180.8,65.9c-6.1,0-11.5,3.1-14.6,7.9l32,8.3C-5164.1,73.1-5171.6,65.9-5180.8,65.9z"/>
		<path class="st19" d="M-5195.4,73.8c-1.8,2.7-2.9,6-2.9,9.6c0,9.6,7.8,17.4,17.4,17.4c9.6,0,17.4-7.8,17.4-17.4
			c0-0.4,0-0.9-0.1-1.3L-5195.4,73.8z"/>
	</g>
	<polygon class="st20" points="-5184.2,76.7 -5211.3,69.8 -5211.3,67.5 -5183.6,74.7 	"/>
</g>
<g class="st23">
	<path class="st0" d="M-5473.5,243.5c-0.1,0-0.3,0-0.4,0h-260.2c-0.1,0-0.3,0-0.4,0c-7,0-12.7,5.7-12.7,12.7c0,4.9,2.8,9.2,6.9,11.3
		l0,0c0,0,0,0,0,0c1.7,0.9,3.7,1.4,5.8,1.4h10.9c5.1,1,8.9,5.5,8.9,10.9c0,11.6-11,11.2-11.1,11.3c-5.4,0-9.7,4.3-9.7,9.7
		s4.3,9.7,9.7,9.7c0.6,0,1.1-0.1,1.7-0.2c10.6,0,179.6,0,208.7,0c0.7,0.1,1.3,0.2,2,0.2c5.4,0,9.8-4.4,9.8-9.8
		c0-5.4-4.4-9.8-9.8-9.8c-0.2,0-0.3,0-0.4,0c-0.1,0-0.2,0-0.4,0c-3.5,0-6.3-2.8-6.3-6.3s2.8-6.3,6.3-6.3c0.4,0,0.8,0,1.1,0.1
		c0.6-0.1,1.3-0.1,1.9-0.1c5,0,16.2,0,20.8,0s8.7-2.6,8.7-9.3h8.1c7,0,12.7-5.7,12.7-12.7C-5460.8,249.2-5466.4,243.5-5473.5,243.5z
		"/>
	<line class="st1" x1="-5705.2" y1="97.7" x2="-5705.2" y2="224.9"/>
	<line class="st1" x1="-5510" y1="79.7" x2="-5510" y2="227.1"/>
	<path class="st2" d="M-5509.5,158.3c0,0-33.5,0.3-33.5-40.3c0-32.9,33.5-107,33.5-107s33.5,74.1,33.5,107
		C-5476,158.6-5509.5,158.3-5509.5,158.3z"/>
	<path class="st3" d="M-5509.5,11v147.3c0,0,33.5,0.3,33.5-40.3C-5476,85.1-5509.5,11-5509.5,11z"/>
	<line class="st1" x1="-5660" y1="115.6" x2="-5660" y2="235.8"/>
	<path class="st2" d="M-5660,145.2c0,0-30.8,0.3-30.8-37.1c0-30.3,30.8-98.5,30.8-98.5s30.8,68.2,30.8,98.5
		C-5629.1,145.5-5660,145.2-5660,145.2z"/>
	<path class="st3" d="M-5660,9.6v135.6c0,0,30.8,0.3,30.8-37.1C-5629.1,77.9-5660,9.6-5660,9.6z"/>
	<path class="st4" d="M-5491.8,216.9C-5491.8,216.9-5491.8,216.9-5491.8,216.9c-3.5-3-15.1-11.1-26.7,0.5c-13.2,13.2-25.7,0-25.7,0
		s-13.8-13.1-27.1,0.1c-13.2,13.2-25.7,0-25.7,0s-13.8-13.1-27.1,0.1c-13.2,13.2-25.5,0.1-25.5,0.1s-14-13.2-27.2,0
		c-13.2,13.2-25.7,0-25.7,0s-10.4-10.7-27.1-0.7c-6.6,4-13.4,15.4-15.1,26.7l1,9.8h252.5l0,0h24.1l1.6-12.3
		C-5481.2,225.9-5497.9,210.8-5491.8,216.9z"/>
	<path class="st2" d="M-5705.2,169.4c0,0-22.8,0.2-22.8-27.3c0-22.3,22.8-72.6,22.8-72.6s22.8,50.3,22.8,72.6
		C-5682.4,169.6-5705.2,169.4-5705.2,169.4z"/>
	<path class="st3" d="M-5705.2,69.4v100c0,0,22.8,0.2,22.8-27.3C-5682.4,119.8-5705.2,69.4-5705.2,69.4z"/>
	<circle class="st5" cx="-5721.9" cy="223.5" r="2"/>
	<circle class="st5" cx="-5563.4" cy="224.9" r="1.1"/>
	<circle class="st5" cx="-5589.5" cy="234.6" r="1.1"/>
	<circle class="st5" cx="-5672.4" cy="225.5" r="1.1"/>
	<circle class="st5" cx="-5486.3" cy="229.7" r="2"/>
	<circle class="st5" cx="-5731" cy="230.6" r="1.1"/>
	<path class="st6" d="M-5473.5,238.5c-0.1,0-0.3,0-0.4,0h-260.2c-0.1,0-0.3,0-0.4,0c-7,0-12.7,5.7-12.7,12.7c0,4.9,2.8,9.2,6.9,11.3
		l0,0c0,0,0,0,0,0c1.7,0.9,3.7,1.4,5.8,1.4h10.9c5.1,1,8.9,5.5,8.9,10.9c0,11.6-11,11.2-11.1,11.3c-5.4,0-9.7,4.3-9.7,9.7
		s4.3,9.7,9.7,9.7c0.6,0,1.1-0.1,1.7-0.2c10.6,0,179.6,0,208.7,0c0.7,0.1,1.3,0.2,2,0.2c5.4,0,9.8-4.4,9.8-9.8s-4.4-9.8-9.8-9.8
		c-0.2,0-0.3,0-0.4,0c-0.1,0-0.2,0-0.4,0c-3.5,0-6.3-2.8-6.3-6.3c0-3.5,2.8-6.3,6.3-6.3c0.4,0,0.8,0,1.1,0.1
		c0.6-0.1,1.3-0.1,1.9-0.1c5,0,16.2,0,20.8,0s8.7-2.6,8.7-9.3h8.1c7,0,12.7-5.7,12.7-12.7C-5460.8,244.2-5466.4,238.5-5473.5,238.5z
		"/>
	<circle class="st5" cx="-5652.6" cy="229.7" r="1.1"/>
	<ellipse class="st7" cx="-5686.9" cy="247.9" rx="4.1" ry="1.5"/>
	<path class="st7" d="M-5523.1,246.4c-0.1,0-0.2,0-0.4,0c0,0,0,0,0,0h-200.8c0,0-0.1,0-0.1,0c0,0,0,0-0.1,0c-3.1,0-5.6,0.9-5.6,2.1
		c0,1.2,2.5,2.1,5.6,2.1c0,0,0.1,0,0.1,0c0,0,0,0,0,0h200.1c0.2,0,0.3,0,0.5-0.1c0.2,0,0.4,0,0.6,0c3.1,0,5.5-0.9,5.5-2.1
		S-5520.1,246.4-5523.1,246.4z"/>
	<circle class="st5" cx="-5501.8" cy="224.6" r="2"/>
	<circle class="st9" cx="-5536.2" cy="207.8" r="35.7"/>
	<circle class="st9" cx="-5674" cy="207.8" r="35.7"/>
	<polygon class="st10" points="-5678.8,207.8 -5639.9,155.9 -5562.1,155.9 -5602.6,207.8 	"/>
	<path class="st11" d="M-5536.2,207.8l-33.4-70.9c-0.7-1.5,0.4-3.3,2.1-3.3h29"/>
	<g>
		<path class="st12" d="M-5564,138.2h25.5c2.5,0,4.5-2,4.5-4.5c0-2.5-2-4.5-4.5-4.5h-29.6L-5564,138.2z"/>
	</g>
	<line class="st11" x1="-5604.4" y1="205.9" x2="-5651.1" y2="135.9"/>
	<circle class="st13" cx="-5602.6" cy="207.8" r="12.9"/>
	<line class="st14" x1="-5617.6" y1="225.6" x2="-5602.6" y2="207.8"/>
	<path class="st15" d="M-5610.1,229.5h-15c-1.4,0-2.5-1.1-2.5-2.5l0,0c0-1.4,1.1-2.5,2.5-2.5h15c1.4,0,2.5,1.1,2.5,2.5l0,0
		C-5607.7,228.3-5608.8,229.5-5610.1,229.5z"/>
	<line class="st16" x1="-5628.5" y1="134.6" x2="-5661.1" y2="134.6"/>
</g>
<g class="st23">
	<path class="st0" d="M-4928.6,244.9c0.1,0,0.3,0,0.4,0h262.7c0.1,0,0.3,0,0.4,0c7.1,0,12.8,5.7,12.8,12.8c0,5-2.8,9.2-6.9,11.4l0,0
		c0,0,0,0,0,0c-1.8,0.9-3.8,1.4-5.9,1.4h-11c-5.1,1-9,5.5-9,11c0,11.7,11.1,11.3,11.2,11.4c5.4,0,9.8,4.4,9.8,9.8
		c0,5.4-4.4,9.8-9.8,9.8c-0.6,0-1.1-0.1-1.7-0.2c-10.7,0-181.3,0-210.7,0c-0.7,0.1-1.3,0.2-2.1,0.2c-5.5,0-9.9-4.4-9.9-9.9
		c0-5.5,4.4-9.9,9.9-9.9c0.2,0,0.3,0,0.5,0c0.1,0,0.2,0,0.4,0c3.5,0,6.4-2.8,6.4-6.4s-2.8-6.4-6.4-6.4c-0.4,0-0.8,0-1.2,0.1
		c-0.6-0.1-1.3-0.1-2-0.1c-5,0-16.3,0-21,0s-8.8-2.6-8.8-9.4h-8.1c-7.1,0-12.8-5.7-12.8-12.8
		C-4941.4,250.6-4935.7,244.9-4928.6,244.9z"/>
	<line class="st17" x1="-4913.4" y1="101.4" x2="-4913.4" y2="237.1"/>
	<line class="st17" x1="-4692.4" y1="104.6" x2="-4692.4" y2="222.4"/>
	<path class="st3" d="M-4913.8,185.5c0,0,30.9,0.3,30.9-37.1c0-30.3-30.9-98.5-30.9-98.5s-30.9,68.2-30.9,98.5
		C-4944.7,185.8-4913.8,185.5-4913.8,185.5z"/>
	<path class="st2" d="M-4913.8,49.9v135.6c0,0-30.9,0.3-30.9-37.1C-4944.7,118.1-4913.8,49.9-4913.8,49.9z"/>
	<line class="st17" x1="-4882.3" y1="169.8" x2="-4882.3" y2="232"/>
	<path class="st2" d="M-4882.3,190.2c0,0-18.8,0.2-18.8-22.6c0-18.4,18.8-60,18.8-60s18.8,41.6,18.8,60
		C-4863.5,190.3-4882.3,190.2-4882.3,190.2z"/>
	<path class="st3" d="M-4882.3,107.5v82.6c0,0,18.8,0.2,18.8-22.6C-4863.5,149.1-4882.3,107.5-4882.3,107.5z"/>
	<path class="st3" d="M-4692.4,150.3c0,0,30.5,0.3,30.5-36.6c0-29.9-30.5-97.3-30.5-97.3s-30.5,67.4-30.5,97.3
		C-4722.9,150.6-4692.4,150.3-4692.4,150.3z"/>
	<path class="st2" d="M-4692.4,16.4v133.9c0,0-30.5,0.3-30.5-36.6C-4722.9,83.8-4692.4,16.4-4692.4,16.4z"/>
	<line class="st17" x1="-4727.4" y1="141.7" x2="-4727.4" y2="259.5"/>
	<path class="st3" d="M-4727.4,187.4c0,0,21.4,0.2,21.4-25.7c0-21-21.4-68.2-21.4-68.2s-21.4,47.3-21.4,68.2
		C-4748.8,187.6-4727.4,187.4-4727.4,187.4z"/>
	<path class="st2" d="M-4727.4,93.5v93.9c0,0-21.4,0.2-21.4-25.7C-4748.8,140.8-4727.4,93.5-4727.4,93.5z"/>
	<path class="st4" d="M-4688.7,214.5L-4688.7,214.5c-3.4-3-14.9-11-26.4,0.5c-13.1,13.1-25.4,0-25.4,0s-13.7-13-26.7,0.1
		s-25.4,0-25.4,0s-13.7-13-26.7,0.1s-25.2,0.1-25.2,0.1s-13.8-13.1-26.9,0c-13.1,13.1-25.4,0-25.4,0s-10.2-10.5-26.7-0.6
		c-6.5,3.9-13.2,15.2-14.9,26.4l1,9.7h249.4l0,0h23.8l1.6-12.2C-4678.1,223.4-4694.6,208.4-4688.7,214.5z"/>
	<circle class="st5" cx="-4916" cy="221" r="2"/>
	<circle class="st5" cx="-4759.3" cy="222.4" r="1.1"/>
	<circle class="st5" cx="-4785.1" cy="231.9" r="1.1"/>
	<circle class="st5" cx="-4867" cy="223" r="1.1"/>
	<circle class="st5" cx="-4683.2" cy="227.1" r="1.1"/>
	<circle class="st5" cx="-4924.9" cy="228" r="1.1"/>
	<circle class="st5" cx="-4847.4" cy="227.1" r="1.1"/>
	<circle class="st5" cx="-4698.5" cy="222.1" r="2"/>
	<path class="st6" d="M-4928.6,238.5c0.1,0,0.3,0,0.4,0h262.7c0.1,0,0.3,0,0.4,0c7.1,0,12.8,5.7,12.8,12.8c0,5-2.8,9.2-6.9,11.4l0,0
		c0,0,0,0,0,0c-1.8,0.9-3.8,1.4-5.9,1.4h-11c-5.1,1-9,5.5-9,11c0,11.7,11.1,11.3,11.2,11.4c5.4,0,9.8,4.4,9.8,9.8s-4.4,9.8-9.8,9.8
		c-0.6,0-1.1-0.1-1.7-0.2c-10.7,0-181.3,0-210.7,0c-0.7,0.1-1.3,0.2-2.1,0.2c-5.5,0-9.9-4.4-9.9-9.9s4.4-9.9,9.9-9.9
		c0.2,0,0.3,0,0.5,0c0.1,0,0.2,0,0.4,0c3.5,0,6.4-2.8,6.4-6.4c0-3.5-2.8-6.4-6.4-6.4c-0.4,0-0.8,0-1.2,0.1c-0.6-0.1-1.3-0.1-2-0.1
		c-5,0-16.3,0-21,0s-8.8-2.6-8.8-9.4h-8.1c-7.1,0-12.8-5.7-12.8-12.8C-4941.4,244.2-4935.7,238.5-4928.6,238.5z"/>
	<path class="st18" d="M-4885.9,224.6"/>
	<path class="st19" d="M-4775.3,116.1c5,2.8,9.1,5.2,9.8,5.5c1.8,0.9,3.5,4.2,3.5,4.2l7.3,27.9c0.7,1.6,0.9,3.4,0.4,5.2
		c-1.1,4.2-5.5,6.7-9.7,5.6c-3.6-1-6-4.3-5.9-7.9l-5.2-22.5l-2.9-1.7L-4775.3,116.1"/>
	<path class="st19" d="M-4827.4,133.4l-4.9,7.9c0,0-12.6,2.5-16.9,3.4c-3.9,0.5-6.9,3.9-6.8,7.9c0.1,4.3,3.7,7.7,8,7.6
		c0.4,0,0.8-0.1,1.2-0.1c0,0,16.9-3,18.7-3.4c2.1-0.4,3.7-1.3,4.7-2.4c0.4-0.5,2.3-3.8,4-6.2l-9-12.2"/>
	<path class="st20" d="M-4815.5,165.5l0.2-24.2l-4.1,6.7l-11.3-9.2c0,0,11.5-18.4,12.9-21.3c2.1-4.2,6.9-7.9,14.3-9.5
		c5.8-1.2,13.3,0,15.8,1.2s3.7,1.9,12.5,6.9c1.6,0.9,3.1,1.7,4.4,2.5l-7.1,13.9l-4.7-2.6c0.5,1.6-0.2,38.7-0.2,38.7"/>
	<path class="st7" d="M-4869.5,256.7h118.8c2.3,0,5.8-0.9,6.7-4.2s-2.8-4.2-5.1-4.2h-115.5c-2.3,0-6.9,1.9-8,4.2
		S-4871.8,256.7-4869.5,256.7z"/>
	<path class="st19" d="M-4765.8,247.1c1.3,1.7,2.3,3,2.9,3.8c1.7,2.3,4.4,3.9,7.4,3.9c5,0,9.1-4.1,9.1-9.1c0-2.6-1.1-5-2.9-6.7
		l-1.7-2.5"/>
	<path class="st19" d="M-4765.8,247.1c-7.4-10-23.4-33-25.3-35.2c-2.5-2.9-3.7-7.1-4-9l20.2-4.6l1.2,4.4l22.8,33.7L-4765.8,247.1z"
		/>
	<path class="st21" d="M-4834.2,189.8c0.6-0.7,18.7-24.3,18.7-24.3l32.7,3l8.2,29.9l-20.4,4.5c-0.4-1.9-7-22.8-7-22.8l-15.9,21.1
		L-4834.2,189.8z"/>
	<path class="st19" d="M-4849.3,237.7c2.5-10.8,7.6-33,9.5-38.6c0.8-2.4,4.9-8.6,5.6-9.3l16.3,11.4l-5,6.7l-8.7,35.3"/>
	<path class="st19" d="M-4849.3,237.7c-0.5,2.2-0.9,4-1.2,5c0,0.1,0,0.1-0.1,0.2c0,0,0,0.1,0,0.1c-0.1,0.5-0.2,0.8-0.2,0.8l0,0
		c-0.7,4.6,2.3,9.1,6.9,10.2c4.6,1.1,9.3-1.5,10.9-5.8l0,0l1.2-5L-4849.3,237.7z"/>
	<path class="st18" d="M-4854.1,160.3l7.3-1.2c1.6-0.3,2.7-1.8,2.4-3.4l-3.2-19.4c-0.3-1.6-1.8-2.7-3.4-2.4l-7.3,1.2
		c-1.6,0.3-2.7,1.8-2.4,3.4l3.2,19.4C-4857.2,159.5-4855.7,160.6-4854.1,160.3z"/>
	<path class="st22" d="M-4854.8,157l7.6-1.3c0.6-0.1,1.1-0.7,1-1.3l-2.8-16.7c-0.1-0.6-0.7-1.1-1.3-1l-7.6,1.3
		c-0.6,0.1-1.1,0.7-1,1.3l2.8,16.7C-4856.1,156.7-4855.5,157.1-4854.8,157z"/>
	<g>
		<path class="st20" d="M-4801.3,66.4c-6.1,0-11.5,3.1-14.6,7.9l32,8.3C-4784.6,73.6-4792.1,66.4-4801.3,66.4z"/>
		<path class="st19" d="M-4815.9,74.3c-1.8,2.7-2.9,6-2.9,9.6c0,9.6,7.8,17.4,17.4,17.4c9.6,0,17.4-7.8,17.4-17.4
			c0-0.4,0-0.9-0.1-1.3L-4815.9,74.3z"/>
	</g>
	<polygon class="st20" points="-4804.7,77.2 -4831.9,70.3 -4831.9,68 -4804.1,75.2 	"/>
</g>
<path class="st24" d="M-4445.9,143.2h15.6c0.5,0,0.8,0.4,0.8,0.8v1.5c0,0.5-0.4,0.8-0.8,0.8h-15.6c-0.5,0-0.8-0.4-0.8-0.8v-1.5
	C-4446.7,143.6-4446.3,143.2-4445.9,143.2z"/>
<ellipse class="st24" cx="-4445.9" cy="144.8" rx="6.1" ry="1.6"/>
<g>
	<path class="st24" d="M-4358.9,243.9h15.6c0.5,0,0.8,0.4,0.8,0.8v1.5c0,0.5-0.4,0.8-0.8,0.8h-15.6c-0.5,0-0.8-0.4-0.8-0.8v-1.5
		C-4359.7,244.3-4359.3,243.9-4358.9,243.9z"/>
	<ellipse class="st24" cx="-4359" cy="245.5" rx="6.1" ry="1.6"/>
</g>
<g>
	<path class="st24" d="M-4323.1,243.9h15.6c0.5,0,0.8,0.4,0.8,0.8v1.5c0,0.5-0.4,0.8-0.8,0.8h-15.6c-0.5,0-0.8-0.4-0.8-0.8v-1.5
		C-4323.9,244.3-4323.5,243.9-4323.1,243.9z"/>
	<ellipse class="st24" cx="-4323.2" cy="245.5" rx="6.1" ry="1.6"/>
</g>
<path class="st24" d="M-4481.6,143.2h15.6c0.5,0,0.8,0.4,0.8,0.8v1.5c0,0.5-0.4,0.8-0.8,0.8h-15.6c-0.5,0-0.8-0.4-0.8-0.8v-1.5
	C-4482.4,143.6-4482,143.2-4481.6,143.2z"/>
<line class="st25" x1="-4344.2" y1="193.4" x2="-4344.2" y2="247.1"/>
<path class="st2" d="M-4344,227c0,0-14.3,0.1-14.3-17.2c0-14.1,14.3-45.8,14.3-45.8s14.3,31.7,14.3,45.8
	C-4329.7,227.2-4344,227-4344,227z"/>
<path class="st3" d="M-4344,164v63c0,0,14.3,0.1,14.3-17.2C-4329.7,195.7-4344,164-4344,164z"/>
<line class="st25" x1="-4308.5" y1="193.4" x2="-4308.5" y2="247.1"/>
<path class="st2" d="M-4308.3,227c0,0-14.3,0.1-14.3-17.2c0-14.1,14.3-45.8,14.3-45.8s14.3,31.7,14.3,45.8
	C-4293.9,227.2-4308.3,227-4308.3,227z"/>
<path class="st3" d="M-4308.3,164v63c0,0,14.3,0.1,14.3-17.2C-4293.9,195.7-4308.3,164-4308.3,164z"/>
<line class="st25" x1="-4467" y1="92.8" x2="-4467" y2="146.4"/>
<path class="st2" d="M-4466.8,126.4c0,0-14.3,0.1-14.3-17.2c0-14.1,14.3-45.8,14.3-45.8s14.3,31.7,14.3,45.8
	C-4452.4,126.5-4466.8,126.4-4466.8,126.4z"/>
<path class="st3" d="M-4466.8,63.4v63c0,0,14.3,0.1,14.3-17.2C-4452.4,95.1-4466.8,63.4-4466.8,63.4z"/>
<line class="st25" x1="-4431.2" y1="92.8" x2="-4431.2" y2="146.4"/>
<path class="st2" d="M-4431,126.4c0,0-14.3,0.1-14.3-17.2c0-14.1,14.3-45.8,14.3-45.8s14.3,31.7,14.3,45.8
	C-4416.7,126.5-4431,126.4-4431,126.4z"/>
<path class="st3" d="M-4431,63.4v63c0,0,14.3,0.1,14.3-17.2C-4416.7,95.1-4431,63.4-4431,63.4z"/>
<path class="st13" d="M-4237.5,193c0,12.6-22.8,44.2-22.8,44.2s-22.8-31.6-22.8-44.2s10.2-22.8,22.8-22.8S-4237.5,180.4-4237.5,193z
	"/>
<circle class="st26" cx="-4260.3" cy="194.1" r="11.5"/>
<path class="st13" d="M-4491.9,91c0,12.6-22.8,44.2-22.8,44.2s-22.8-31.6-22.8-44.2s10.2-22.8,22.8-22.8S-4491.9,78.4-4491.9,91z"/>
<circle class="st26" cx="-4514.7" cy="92.1" r="11.5"/>
<g>
	<g>
		<g>
			<path class="st27" d="M-4403.4,235.2h-16c-5.6,0-10.1-4.5-10.1-10.1s4.5-10.1,10.1-10.1h16c4.2,0,14.1,0,14.1-16.5
				c0-4.3-1.1-8.5-2.9-11.3c-1.4-2.2-4.1-5.1-11.2-5.1h-111.3c-5.6,0-10.1-4.5-10.1-10.1c0-0.7,0-3.5,0-3.5s4.6-6.6,10.1-6.6h111.3
				c23.6,0,34.3,33.5,34.3,33.5s0,3,0,3.1C-4369.1,221.2-4382.2,235.2-4403.4,235.2z"/>
		</g>
		<g>
			<path class="st27" d="M-4258.5,283.8h-174.9c-23.7,0-34.3-18.1-34.3-36.1c0-0.5,0-3.9,0-3.9s10.9-28.7,34.3-28.7h12.1
				c5.6,0,10.1,4.5,10.1,10.1s-4.5,10.1-10.1,10.1h-12.1c-4.3,0-14.1,1.2-14.1,12.4c0,4.2,1.1,8.3,2.9,11c1.4,2.1,4.1,5,11.3,5
				h174.9c5.5,0,10.1,6.3,10.1,6.3s0,3.4,0,3.8C-4248.4,279.3-4252.9,283.8-4258.5,283.8z"/>
		</g>
	</g>
	<g>
		<path class="st28" d="M-4514.7,168.1c0,0,98.7,0,111.3,0c20.1,0,24.2,17,24.2,26.5c0,13.4-5.9,26.5-24.2,26.5c-6,0-16,0-16,0"/>
		<path class="st28" d="M-4258.5,269.7c0,0-162.4,0-174.9,0c-20.1,0-24.2-16.5-24.2-26s5.9-22.5,24.2-22.5c2.4,0,12.1,0,12.1,0"/>
	</g>
</g>
<ellipse class="st24" cx="-4481.7" cy="144.8" rx="6.1" ry="1.6"/>
<g class="st23">
	<path class="st24" d="M-4037.8,143.2h15.6c0.5,0,0.8,0.4,0.8,0.8v1.5c0,0.5-0.4,0.8-0.8,0.8h-15.6c-0.5,0-0.8-0.4-0.8-0.8v-1.5
		C-4038.7,143.6-4038.3,143.2-4037.8,143.2z"/>
	<ellipse class="st24" cx="-4037.9" cy="144.8" rx="6.1" ry="1.6"/>
	<g>
		<path class="st24" d="M-3950.8,243.9h15.6c0.5,0,0.8,0.4,0.8,0.8v1.5c0,0.5-0.4,0.8-0.8,0.8h-15.6c-0.5,0-0.8-0.4-0.8-0.8v-1.5
			C-3951.7,244.3-3951.3,243.9-3950.8,243.9z"/>
		<ellipse class="st24" cx="-3950.9" cy="245.5" rx="6.1" ry="1.6"/>
	</g>
	<g>
		<path class="st24" d="M-3915,243.9h15.6c0.5,0,0.8,0.4,0.8,0.8v1.5c0,0.5-0.4,0.8-0.8,0.8h-15.6c-0.5,0-0.8-0.4-0.8-0.8v-1.5
			C-3915.9,244.3-3915.5,243.9-3915,243.9z"/>
		<ellipse class="st24" cx="-3915.1" cy="245.5" rx="6.1" ry="1.6"/>
	</g>
	<path class="st24" d="M-4073.5,143.2h15.6c0.5,0,0.8,0.4,0.8,0.8v1.5c0,0.5-0.4,0.8-0.8,0.8h-15.6c-0.5,0-0.8-0.4-0.8-0.8v-1.5
		C-4074.4,143.6-4074,143.2-4073.5,143.2z"/>
	<line class="st25" x1="-3936.2" y1="193.4" x2="-3936.2" y2="247.1"/>
	<path class="st2" d="M-3936,227c0,0-14.3,0.1-14.3-17.2c0-14.1,14.3-45.8,14.3-45.8s14.3,31.7,14.3,45.8
		C-3921.6,227.2-3936,227-3936,227z"/>
	<path class="st3" d="M-3936,164v63c0,0,14.3,0.1,14.3-17.2C-3921.6,195.7-3936,164-3936,164z"/>
	<line class="st25" x1="-3900.5" y1="193.4" x2="-3900.5" y2="247.1"/>
	<path class="st2" d="M-3900.2,227c0,0-14.3,0.1-14.3-17.2c0-14.1,14.3-45.8,14.3-45.8s14.3,31.7,14.3,45.8
		C-3885.9,227.2-3900.2,227-3900.2,227z"/>
	<path class="st3" d="M-3900.2,164v63c0,0,14.3,0.1,14.3-17.2C-3885.9,195.7-3900.2,164-3900.2,164z"/>
	<line class="st25" x1="-4058.9" y1="92.8" x2="-4058.9" y2="146.4"/>
	<path class="st2" d="M-4058.7,126.4c0,0-14.3,0.1-14.3-17.2c0-14.1,14.3-45.8,14.3-45.8s14.3,31.7,14.3,45.8
		C-4044.4,126.5-4058.7,126.4-4058.7,126.4z"/>
	<path class="st3" d="M-4058.7,63.4v63c0,0,14.3,0.1,14.3-17.2C-4044.4,95.1-4058.7,63.4-4058.7,63.4z"/>
	<line class="st25" x1="-4023.2" y1="92.8" x2="-4023.2" y2="146.4"/>
	<path class="st2" d="M-4023,126.4c0,0-14.3,0.1-14.3-17.2c0-14.1,14.3-45.8,14.3-45.8s14.3,31.7,14.3,45.8
		C-4008.6,126.5-4023,126.4-4023,126.4z"/>
	<path class="st3" d="M-4023,63.4v63c0,0,14.3,0.1,14.3-17.2C-4008.6,95.1-4023,63.4-4023,63.4z"/>
	<path class="st13" d="M-3829.4,193c0,12.6-22.8,44.2-22.8,44.2s-22.8-31.6-22.8-44.2s10.2-22.8,22.8-22.8
		C-3839.6,170.2-3829.4,180.4-3829.4,193z"/>
	<circle class="st26" cx="-3852.2" cy="194.1" r="11.5"/>
	<path class="st13" d="M-4083.8,91c0,12.6-22.8,44.2-22.8,44.2s-22.8-31.6-22.8-44.2s10.2-22.8,22.8-22.8
		C-4094,68.2-4083.8,78.4-4083.8,91z"/>
	<circle class="st26" cx="-4106.6" cy="92.1" r="11.5"/>
	<g>
		<g>
			<g>
				<path class="st27" d="M-3995.4,235.2h-16c-5.6,0-10.1-4.5-10.1-10.1s4.5-10.1,10.1-10.1h16c4.2,0,14.1,0,14.1-16.5
					c0-4.3-1.1-8.5-2.9-11.3c-1.4-2.2-4.1-5.1-11.2-5.1h-111.3c-5.6,0-10.1-4.5-10.1-10.1c0-0.7,0-3.5,0-3.5s4.6-6.6,10.1-6.6h111.3
					c23.6,0,34.3,33.5,34.3,33.5s0,3,0,3.1C-3961,221.2-3974.2,235.2-3995.4,235.2z"/>
			</g>
			<g>
				<path class="st27" d="M-3850.4,283.8h-174.9c-23.7,0-34.3-18.1-34.3-36.1c0-0.5,0-3.9,0-3.9s10.9-28.7,34.3-28.7h12.1
					c5.6,0,10.1,4.5,10.1,10.1s-4.5,10.1-10.1,10.1h-12.1c-4.3,0-14.1,1.2-14.1,12.4c0,4.2,1.1,8.3,2.9,11c1.4,2.1,4.1,5,11.3,5
					h174.9c5.5,0,10.1,6.3,10.1,6.3s0,3.4,0,3.8C-3840.3,279.3-3844.8,283.8-3850.4,283.8z"/>
			</g>
		</g>
		<g>
			<path class="st28" d="M-4106.6,168.1c0,0,98.7,0,111.3,0c20.1,0,24.2,17,24.2,26.5c0,13.4-5.9,26.5-24.2,26.5c-6,0-16,0-16,0"/>
			<path class="st28" d="M-3850.4,269.7c0,0-162.4,0-174.9,0c-20.1,0-24.2-16.5-24.2-26s5.9-22.5,24.2-22.5c2.4,0,12.1,0,12.1,0"/>
		</g>
	</g>
	<ellipse class="st24" cx="-4073.6" cy="144.8" rx="6.1" ry="1.6"/>
</g>
<g>
	<path class="st27" d="M-3517.3,262.9h-138.2c-20.4,0-37.5-7.6-49.6-22c-10.5-12.5-16.2-29.2-16.2-47.1c0-35.3,23.1-71.1,67.3-71.1
		h36.9c5.3,0,9.9,5.9,9.9,5.9s0,2.8,0,4c0,5.5-4.4,9.9-9.9,9.9h-36.9c-32.6,0-47.5,26.6-47.5,51.3c0,34.1,23.1,49.3,46,49.3h138.2
		c14.3,0,26.2-5.2,34.4-14.9c7.5-8.9,11.6-21.1,11.6-34.4c0-24.7-14.9-51.3-47.5-51.3h-36.9c-5.5,0-9.9-4.4-9.9-9.9c0-1.2,0-4,0-4
		s4.6-5.9,9.9-5.9h36.9c20.7,0,38.2,7.9,50.6,22.7c10.8,12.9,16.7,30.1,16.7,48.3c0,17.9-5.8,34.7-16.2,47.1
		C-3479.8,255.3-3496.9,262.9-3517.3,262.9z"/>
</g>
<g>
	<path class="st24" d="M-3652.7,226.1h14.2c0.5,0,0.8,0.4,0.8,0.8v1.2c0,0.5-0.4,0.8-0.8,0.8h-14.2c-0.5,0-0.8-0.4-0.8-0.8v-1.2
		C-3653.5,226.5-3653.1,226.1-3652.7,226.1z"/>
	<ellipse class="st24" cx="-3652.8" cy="227.6" rx="5.6" ry="1.5"/>
</g>
<line class="st25" x1="-3639.3" y1="179.7" x2="-3639.3" y2="229"/>
<path class="st2" d="M-3639.1,210.6c0,0-13.2,0.1-13.2-15.9c0-12.9,13.2-42.1,13.2-42.1s13.2,29.2,13.2,42.1
	C-3625.9,210.7-3639.1,210.6-3639.1,210.6z"/>
<path class="st3" d="M-3639.1,152.6v58c0,0,13.2,0.1,13.2-15.9C-3625.9,181.8-3639.1,152.6-3639.1,152.6z"/>
<g>
	<path class="st24" d="M-3601,226.1h14.2c0.5,0,0.8,0.4,0.8,0.8v1.2c0,0.5-0.4,0.8-0.8,0.8h-14.2c-0.5,0-0.8-0.4-0.8-0.8v-1.2
		C-3601.9,226.5-3601.5,226.1-3601,226.1z"/>
	<ellipse class="st24" cx="-3601.2" cy="227.6" rx="5.6" ry="1.5"/>
</g>
<line class="st25" x1="-3587.6" y1="179.7" x2="-3587.6" y2="229"/>
<path class="st2" d="M-3587.4,210.6c0,0-13.2,0.1-13.2-15.9c0-12.9,13.2-42.1,13.2-42.1s13.2,29.2,13.2,42.1
	C-3574.3,210.7-3587.4,210.6-3587.4,210.6z"/>
<path class="st3" d="M-3587.4,152.6v58c0,0,13.2,0.1,13.2-15.9C-3574.2,181.8-3587.4,152.6-3587.4,152.6z"/>
<g>
	<path class="st24" d="M-3549.2,226.1h14.2c0.5,0,0.8,0.4,0.8,0.8v1.2c0,0.5-0.4,0.8-0.8,0.8h-14.2c-0.5,0-0.8-0.4-0.8-0.8v-1.2
		C-3550,226.5-3549.6,226.1-3549.2,226.1z"/>
	<ellipse class="st24" cx="-3549.3" cy="227.6" rx="5.6" ry="1.5"/>
</g>
<line class="st25" x1="-3535.8" y1="179.7" x2="-3535.8" y2="229"/>
<path class="st2" d="M-3535.6,210.6c0,0-13.2,0.1-13.2-15.9c0-12.9,13.2-42.1,13.2-42.1s13.2,29.2,13.2,42.1
	C-3522.4,210.7-3535.6,210.6-3535.6,210.6z"/>
<path class="st3" d="M-3535.6,152.6v58c0,0,13.2,0.1,13.2-15.9C-3522.4,181.8-3535.6,152.6-3535.6,152.6z"/>
<path class="st13" d="M-3564.7,85.2c0,12.4-22.4,43.5-22.4,43.5s-22.4-31.1-22.4-43.5s10-22.4,22.4-22.4S-3564.7,72.8-3564.7,85.2z"
	/>
<circle class="st26" cx="-3587.1" cy="86.2" r="11.3"/>
<path class="st29" d="M-3555.7,128.6c0,0,12.9,0,36.9,0c75.4,0,77.2,120.4,1.5,120.4c-12.1,0-40.6,0-69.1,0s-57,0-69.1,0
	c-75.7,0-73.9-120.4,1.5-120.4c24.1,0,36.9,0,36.9,0"/>
<g class="st23">
	<g>
		<path class="st27" d="M-3094.2,262h-138.2c-20.4,0-37.5-7.6-49.6-22c-10.5-12.5-16.2-29.2-16.2-47.1c0-35.3,23.1-71.1,67.3-71.1
			h36.9c5.3,0,9.9,5.9,9.9,5.9s0,2.8,0,4c0,5.5-4.4,9.9-9.9,9.9h-36.9c-32.6,0-47.5,26.6-47.5,51.3c0,34.1,23.1,49.3,46,49.3h138.2
			c14.3,0,26.2-5.2,34.4-14.9c7.5-8.9,11.6-21.1,11.6-34.4c0-24.7-14.9-51.3-47.5-51.3h-36.9c-5.5,0-9.9-4.4-9.9-9.9c0-1.2,0-4,0-4
			s4.6-5.9,9.9-5.9h36.9c20.7,0,38.2,7.9,50.6,22.7c10.8,12.9,16.7,30.1,16.7,48.3c0,17.9-5.8,34.7-16.2,47.1
			C-3056.7,254.4-3073.9,262-3094.2,262z"/>
	</g>
	<g>
		<path class="st24" d="M-3229.6,225.2h14.2c0.5,0,0.8,0.4,0.8,0.8v1.2c0,0.5-0.4,0.8-0.8,0.8h-14.2c-0.5,0-0.8-0.4-0.8-0.8V226
			C-3230.5,225.6-3230.1,225.2-3229.6,225.2z"/>
		<ellipse class="st24" cx="-3229.8" cy="226.7" rx="5.6" ry="1.5"/>
	</g>
	<line class="st25" x1="-3216.2" y1="178.8" x2="-3216.2" y2="228.1"/>
	<path class="st2" d="M-3216,209.7c0,0-13.2,0.1-13.2-15.9c0-12.9,13.2-42.1,13.2-42.1s13.2,29.2,13.2,42.1
		C-3202.8,209.8-3216,209.7-3216,209.7z"/>
	<path class="st3" d="M-3216,151.7v58c0,0,13.2,0.1,13.2-15.9C-3202.8,180.9-3216,151.7-3216,151.7z"/>
	<g>
		<path class="st24" d="M-3178,225.2h14.2c0.5,0,0.8,0.4,0.8,0.8v1.2c0,0.5-0.4,0.8-0.8,0.8h-14.2c-0.5,0-0.8-0.4-0.8-0.8V226
			C-3178.8,225.6-3178.4,225.2-3178,225.2z"/>
		<ellipse class="st24" cx="-3178.1" cy="226.7" rx="5.6" ry="1.5"/>
	</g>
	<line class="st25" x1="-3164.6" y1="178.8" x2="-3164.6" y2="228.1"/>
	<path class="st2" d="M-3164.4,209.7c0,0-13.2,0.1-13.2-15.9c0-12.9,13.2-42.1,13.2-42.1s13.2,29.2,13.2,42.1
		C-3151.2,209.8-3164.4,209.7-3164.4,209.7z"/>
	<path class="st3" d="M-3164.4,151.7v58c0,0,13.2,0.1,13.2-15.9C-3151.2,180.9-3164.4,151.7-3164.4,151.7z"/>
	<g>
		<path class="st24" d="M-3126.1,225.2h14.2c0.5,0,0.8,0.4,0.8,0.8v1.2c0,0.5-0.4,0.8-0.8,0.8h-14.2c-0.5,0-0.8-0.4-0.8-0.8V226
			C-3127,225.6-3126.6,225.2-3126.1,225.2z"/>
		<ellipse class="st24" cx="-3126.3" cy="226.7" rx="5.6" ry="1.5"/>
	</g>
	<line class="st25" x1="-3112.8" y1="178.8" x2="-3112.8" y2="228.1"/>
	<path class="st2" d="M-3112.6,209.7c0,0-13.2,0.1-13.2-15.9c0-12.9,13.2-42.1,13.2-42.1s13.2,29.2,13.2,42.1
		C-3099.4,209.8-3112.6,209.7-3112.6,209.7z"/>
	<path class="st3" d="M-3112.6,151.7v58c0,0,13.2,0.1,13.2-15.9C-3099.4,180.9-3112.6,151.7-3112.6,151.7z"/>
	<path class="st13" d="M-3141.6,84.3c0,12.4-22.4,43.5-22.4,43.5s-22.4-31.1-22.4-43.5s10-22.4,22.4-22.4S-3141.6,71.9-3141.6,84.3z
		"/>
	<circle class="st26" cx="-3164" cy="85.3" r="11.3"/>
	<path class="st29" d="M-3132.7,127.7c0,0,12.9,0,36.9,0c75.4,0,77.2,120.4,1.5,120.4c-12.1,0-40.6,0-69.1,0s-57,0-69.1,0
		c-75.7,0-73.9-120.4,1.5-120.4c24.1,0,36.9,0,36.9,0"/>
	<rect x="-3224.3" y="258" class="st27" width="18.5" height="4.1"/>
</g>
<path class="st30" d="M-2783.8,148.4h50.1c2.4,0,4.4-2,4.4-4.4c0-2.4-2-4.4-4.4-4.4h-50.1c-2.4,0-4.4,2-4.4,4.4
	C-2788.2,146.4-2786.2,148.4-2783.8,148.4z M-2733.7,174.9h-50.1c-2.4,0-4.4,2-4.4,4.4c0,2.4,2,4.4,4.4,4.4h50.1
	c2.4,0,4.4-2,4.4-4.4C-2729.2,176.9-2731.2,174.9-2733.7,174.9z M-2733.7,157.2h-50.1c-2.4,0-4.4,2-4.4,4.4c0,2.4,2,4.4,4.4,4.4
	h50.1c2.4,0,4.4-2,4.4-4.4C-2729.2,159.2-2731.2,157.2-2733.7,157.2z"/>
<g>
	<circle class="st31" cx="-2336.9" cy="166.3" r="10.4"/>
	<circle class="st31" cx="-2370.6" cy="166.3" r="10.4"/>
	<polyline class="st32" points="-2370.9,166.3 -2363.4,153.1 -2343.7,153.1 	"/>
	<path class="st32" d="M-2336.6,166.3l-9-18.8c-0.2-0.4,0.1-0.9,0.6-0.9h8.5"/>
	<line class="st32" x1="-2363.4" y1="152.1" x2="-2366.7" y2="147.2"/>
	<line class="st33" x1="-2360.1" y1="146.9" x2="-2369.6" y2="146.9"/>
</g>
<g>
	<path class="st34" d="M-1993.6,147.8c0,0,19.4,0,24.2,0c7.1,0,9.2,2.8,9.2,6.4c0,5.1-2.2,7.7-9.2,7.7c-2.3,0-6.1,0-6.1,0"/>
	<path class="st34" d="M-1951.9,175.5c0,0-22.7,0-27.5,0c-2.9,0-6.5-0.5-8.2-3.2c-1.4-2.3-1.5-5.4,0.2-7.6c1.8-2.3,5.3-2.8,8-2.8
		c0.9,0,4.6,0,4.6,0"/>
</g>
<path class="st35" d="M-1558.3,143.5c0,0-0.1,0-0.1,0l-35.9,18c-0.3,0.1-0.3,0.3,0,0.4l13,3.8c0.3,0.1,0.7,0.4,0.8,0.8l3.9,13.2
	c0.1,0.2,0.3,0.2,0.4,0l18-36C-1558.1,143.6-1558.1,143.4-1558.3,143.5L-1558.3,143.5z"/>
<g>
	<circle class="st36" cx="-1185.6" cy="161.7" r="18.1"/>
	<polyline class="st36" points="-1186.1,150.6 -1186.1,163.5 -1175.8,163.5 	"/>
</g>
<path class="st37" d="M-740.3,145.2c0,0-0.1,0-0.1,0l-32.5,16.3c-0.3,0.1-0.3,0.3,0,0.4l11.8,3.4c0.3,0.1,0.6,0.4,0.7,0.7l3.5,11.9
	c0.1,0.2,0.3,0.2,0.4,0l16.3-32.6C-740.1,145.3-740.2,145.2-740.3,145.2L-740.3,145.2z"/>
<line class="st38" x1="-282.2" y1="148.5" x2="-282.2" y2="174.8"/>
<line class="st38" x1="-269" y1="161.7" x2="-295.3" y2="161.7"/>
<g>
	<path class="st39" d="M377.9,199.5h-312c-6.2,0-11.2-5-11.2-11.2V139c0-6.2,5-11.2,11.2-11.2h312c6.2,0,11.2,5,11.2,11.2v49.3
		C389.1,194.5,384,199.5,377.9,199.5z"/>
	<path class="st2" d="M377.9,195.5h-312c-6.2,0-11.2-5-11.2-11.2V135c0-6.2,5-11.2,11.2-11.2h312c6.2,0,11.2,5,11.2,11.2v49.3
		C389.1,190.5,384,195.5,377.9,195.5z"/>
	<text transform="matrix(1 0 0 1 163.6098 171.1419)" class="st26 st40 st41 st42">confirm</text>
</g>
</svg>
