<?xml version="1.0" encoding="utf-8"?>
<!-- Generator: Adobe Illustrator 18.1.1, SVG Export Plug-In . SVG Version: 6.00 Build 0)  -->
<svg version="1.1" id="Layer_1" xmlns="http://www.w3.org/2000/svg" xmlns:xlink="http://www.w3.org/1999/xlink" x="0px" y="0px"
	 viewBox="0 0 67.1 69.1" style="enable-background:new 0 0 67.1 69.1;" xml:space="preserve">
<style type="text/css">
	.st0{fill:#F46B83;}
	.st1{fill:#C6AF75;}
	.st2{fill:#A17644;}
	.st3{fill:#2AD19D;}
	.st4{fill:#79E2BC;}
	.st5{fill:#34B188;}
	.st6{fill:#FCED5E;}
	.st7{fill:#FDE49C;}
	.st8{fill:#E2CC8A;}
	.st9{fill:#D9C081;}
	.st10{fill:#626366;}
	.st11{fill:#CC486A;}
	.st12{fill:#CE5B79;}
	.st13{fill:#FFFFFF;}
	.st14{fill:#929496;}
	.st15{fill:#626467;}
	.st16{fill:#E6D0B8;}
	.st17{fill:#EE6D83;}
	.st18{fill:#5ABABA;}
	.st19{fill:#DEDEDE;}
	.st20{fill:#D1D3D4;}
	.st21{fill:#16A457;}
	.st22{fill:#58BD98;}
	.st23{fill:#F6899C;}
	.st24{fill:#1A9169;}
	.st25{fill:#AA4660;}
	.st26{fill-rule:evenodd;clip-rule:evenodd;fill:#F46B83;}
	.st27{fill:#EF6B83;}
</style>
<g>
	<g>
		<path class="st27" d="M11.4,62.7c-1.5,0-3.1-0.6-4.2-1.7c-2.3-2.3-2.3-6.1,0-8.4L51.5,8.2c2.3-2.3,6.1-2.3,8.4,0
			c2.3,2.3,2.3,6.1,0,8.4L15.6,60.9C14.5,62.1,12.9,62.7,11.4,62.7z"/>
	</g>
	<g>
		<path class="st27" d="M55.7,62.7c-1.5,0-3.1-0.6-4.2-1.7L7.2,16.6c-2.3-2.3-2.3-6.1,0-8.4c2.3-2.3,6.1-2.3,8.4,0L60,52.5
			c2.3,2.3,2.3,6.1,0,8.4C58.8,62.1,57.3,62.7,55.7,62.7z"/>
	</g>
</g>
</svg>
