<?xml version="1.0" encoding="utf-8"?>
<!-- Generator: Adobe Illustrator 18.1.1, SVG Export Plug-In . SVG Version: 6.00 Build 0)  -->
<svg version="1.1" id="Layer_1" xmlns="http://www.w3.org/2000/svg" xmlns:xlink="http://www.w3.org/1999/xlink" x="0px" y="0px"
	 viewBox="0 0 323.3 323.3" style="enable-background:new 0 0 323.3 323.3;" xml:space="preserve">
<style type="text/css">
	.st0{fill:#C6AF76;}
	.st1{fill:none;stroke:#A17644;stroke-width:3.3156;stroke-miterlimit:10;}
	.st2{fill:#51BC96;}
	.st3{fill:#88CCB3;}
	.st4{fill:#34B188;}
	.st5{fill:#FBEC60;}
	.st6{fill:#FCE49B;}
	.st7{fill:#E3CD8A;}
	.st8{fill:#D9C080;}
	.st9{fill:none;stroke:#636467;stroke-width:10.5772;stroke-miterlimit:10;}
	.st10{fill:none;stroke:#EF6B83;stroke-width:8.9907;stroke-linejoin:round;stroke-miterlimit:10;}
	.st11{fill:none;stroke:#EF6B83;stroke-width:8.9907;stroke-linecap:round;stroke-miterlimit:10;}
	.st12{fill:#CC496B;}
	.st13{fill:#EF6B83;}
	.st14{fill:none;stroke:#CF5C7A;stroke-width:4.9592;stroke-linecap:round;stroke-miterlimit:10;}
	.st15{fill:#636467;}
	.st16{fill:#FFFFFF;stroke:#636467;stroke-width:7.1491;stroke-linecap:round;stroke-miterlimit:10;}
	.st17{fill:none;stroke:#A17644;stroke-width:3.2757;stroke-miterlimit:10;}
	.st18{fill:#626568;}
	.st19{fill:#E7D1B9;}
	.st20{fill:#ED6E83;}
	.st21{fill:#5BBBBB;}
	.st22{fill:#DFDFDE;}
	.st23{opacity:0.5;}
	.st24{fill:#D2D3D4;}
	.st25{fill:none;stroke:#A17644;stroke-width:3.6673;stroke-miterlimit:10;}
	.st26{fill:#FFFFFF;}
	.st27{fill:#16A457;}
	.st28{fill:none;stroke:#51BC96;stroke-width:20.1693;stroke-linecap:round;stroke-miterlimit:10;}
	.st29{fill:none;stroke:#51BC96;stroke-width:19.8239;stroke-linecap:round;stroke-miterlimit:10;}
	.st30{fill-rule:evenodd;clip-rule:evenodd;fill:#EF6B83;}
	.st31{fill:none;stroke:#59BE99;stroke-width:3.5;stroke-miterlimit:10;}
	.st32{fill:none;stroke:#59BE99;stroke-width:3.5;stroke-linecap:round;stroke-miterlimit:10;}
	.st33{fill:#FFFFFF;stroke:#59BE99;stroke-width:3.5;stroke-linecap:round;stroke-miterlimit:10;}
	.st34{fill:none;stroke:#59BE99;stroke-width:4.5;stroke-linecap:round;stroke-miterlimit:10;}
	.st35{fill:#59BE99;}
	.st36{fill:none;stroke:#59BE99;stroke-width:4.5;stroke-linecap:round;stroke-linejoin:round;stroke-miterlimit:10;}
	.st37{opacity:0.8;fill:#EF6B83;}
	.st38{opacity:0.8;fill:none;stroke:#EF6C84;stroke-width:5;stroke-linecap:round;stroke-miterlimit:10;}
</style>
<g class="st23">
	<path class="st24" d="M103.3,143.2h15.6c0.5,0,0.8,0.4,0.8,0.8v1.5c0,0.5-0.4,0.8-0.8,0.8h-15.6c-0.5,0-0.8-0.4-0.8-0.8v-1.5
		C102.4,143.6,102.8,143.2,103.3,143.2z"/>
	<ellipse class="st24" cx="103.2" cy="144.8" rx="6.1" ry="1.6"/>
	<g>
		<path class="st24" d="M190.3,243.9h15.6c0.5,0,0.8,0.4,0.8,0.8v1.5c0,0.5-0.4,0.8-0.8,0.8h-15.6c-0.5,0-0.8-0.4-0.8-0.8v-1.5
			C189.4,244.3,189.8,243.9,190.3,243.9z"/>
		<ellipse class="st24" cx="190.2" cy="245.5" rx="6.1" ry="1.6"/>
	</g>
	<g>
		<path class="st24" d="M226,243.9h15.6c0.5,0,0.8,0.4,0.8,0.8v1.5c0,0.5-0.4,0.8-0.8,0.8H226c-0.5,0-0.8-0.4-0.8-0.8v-1.5
			C225.2,244.3,225.6,243.9,226,243.9z"/>
		<ellipse class="st24" cx="226" cy="245.5" rx="6.1" ry="1.6"/>
	</g>
	<path class="st24" d="M67.6,143.2h15.6c0.5,0,0.8,0.4,0.8,0.8v1.5c0,0.5-0.4,0.8-0.8,0.8H67.6c-0.5,0-0.8-0.4-0.8-0.8v-1.5
		C66.7,143.6,67.1,143.2,67.6,143.2z"/>
	<line class="st25" x1="204.9" y1="193.4" x2="204.9" y2="247.1"/>
	<path class="st2" d="M205.1,227c0,0-14.3,0.1-14.3-17.2c0-14.1,14.3-45.8,14.3-45.8s14.3,31.7,14.3,45.8
		C219.5,227.2,205.1,227,205.1,227z"/>
	<path class="st3" d="M205.1,164v63c0,0,14.3,0.1,14.3-17.2C219.5,195.7,205.1,164,205.1,164z"/>
	<line class="st25" x1="240.6" y1="193.4" x2="240.6" y2="247.1"/>
	<path class="st2" d="M240.9,227c0,0-14.3,0.1-14.3-17.2c0-14.1,14.3-45.8,14.3-45.8s14.3,31.7,14.3,45.8
		C255.2,227.2,240.9,227,240.9,227z"/>
	<path class="st3" d="M240.9,164v63c0,0,14.3,0.1,14.3-17.2C255.2,195.7,240.9,164,240.9,164z"/>
	<line class="st25" x1="82.2" y1="92.8" x2="82.2" y2="146.4"/>
	<path class="st2" d="M82.4,126.4c0,0-14.3,0.1-14.3-17.2c0-14.1,14.3-45.8,14.3-45.8s14.3,31.7,14.3,45.8
		C96.7,126.5,82.4,126.4,82.4,126.4z"/>
	<path class="st3" d="M82.4,63.4v63c0,0,14.3,0.1,14.3-17.2C96.7,95.1,82.4,63.4,82.4,63.4z"/>
	<line class="st25" x1="117.9" y1="92.8" x2="117.9" y2="146.4"/>
	<path class="st2" d="M118.1,126.4c0,0-14.3,0.1-14.3-17.2c0-14.1,14.3-45.8,14.3-45.8s14.3,31.7,14.3,45.8
		C132.5,126.5,118.1,126.4,118.1,126.4z"/>
	<path class="st3" d="M118.1,63.4v63c0,0,14.3,0.1,14.3-17.2C132.5,95.1,118.1,63.4,118.1,63.4z"/>
	<path class="st13" d="M311.7,193c0,12.6-22.8,44.2-22.8,44.2s-22.8-31.6-22.8-44.2s10.2-22.8,22.8-22.8
		C301.5,170.2,311.7,180.4,311.7,193z"/>
	<circle class="st26" cx="288.9" cy="194.1" r="11.5"/>
	<path class="st13" d="M57.3,91c0,12.6-22.8,44.2-22.8,44.2S11.7,103.6,11.7,91s10.2-22.8,22.8-22.8S57.3,78.4,57.3,91z"/>
	<circle class="st26" cx="34.5" cy="92.1" r="11.5"/>
	<g>
		<g>
			<g>
				<path class="st27" d="M145.7,235.2h-16c-5.6,0-10.1-4.5-10.1-10.1s4.5-10.1,10.1-10.1h16c4.2,0,14.1,0,14.1-16.5
					c0-4.3-1.1-8.5-2.9-11.3c-1.4-2.2-4.1-5.1-11.2-5.1H34.5c-5.6,0-10.1-4.5-10.1-10.1c0-0.7,0-3.5,0-3.5S29,162,34.5,162h111.3
					c23.6,0,34.3,33.5,34.3,33.5s0,3,0,3.1C180,221.2,166.9,235.2,145.7,235.2z"/>
			</g>
			<g>
				<path class="st27" d="M290.7,283.8H115.8c-23.7,0-34.3-18.1-34.3-36.1c0-0.5,0-3.9,0-3.9s10.9-28.7,34.3-28.7h12.1
					c5.6,0,10.1,4.5,10.1,10.1s-4.5,10.1-10.1,10.1h-12.1c-4.3,0-14.1,1.2-14.1,12.4c0,4.2,1.1,8.3,2.9,11c1.4,2.1,4.1,5,11.3,5
					h174.9c5.5,0,10.1,6.3,10.1,6.3s0,3.4,0,3.8C300.8,279.3,296.2,283.8,290.7,283.8z"/>
			</g>
		</g>
		<g>
			<path class="st28" d="M34.5,168.1c0,0,98.7,0,111.3,0c20.1,0,24.2,17,24.2,26.5c0,13.4-5.9,26.5-24.2,26.5c-6,0-16,0-16,0"/>
			<path class="st28" d="M290.7,269.7c0,0-162.4,0-174.9,0c-20.1,0-24.2-16.5-24.2-26s5.9-22.5,24.2-22.5c2.4,0,12.1,0,12.1,0"/>
		</g>
	</g>
	<ellipse class="st24" cx="67.5" cy="144.8" rx="6.1" ry="1.6"/>
</g>
</svg>
