<?xml version="1.0" encoding="utf-8"?>
<!-- Generator: Adobe Illustrator 18.1.1, SVG Export Plug-In . SVG Version: 6.00 Build 0)  -->
<svg version="1.1" id="Layer_1" xmlns="http://www.w3.org/2000/svg" xmlns:xlink="http://www.w3.org/1999/xlink" x="0px" y="0px"
	 viewBox="0 0 323.3 323.3" style="enable-background:new 0 0 323.3 323.3;" xml:space="preserve">
<style type="text/css">
	.st0{fill:#C6AF76;}
	.st1{fill:none;stroke:#A17644;stroke-width:3.3156;stroke-miterlimit:10;}
	.st2{fill:#51BC96;}
	.st3{fill:#88CCB3;}
	.st4{fill:#34B188;}
	.st5{fill:#FBEC60;}
	.st6{fill:#FCE49B;}
	.st7{fill:#E3CD8A;}
	.st8{fill:#D9C080;}
	.st9{fill:none;stroke:#636467;stroke-width:10.5772;stroke-miterlimit:10;}
	.st10{fill:none;stroke:#EF6B83;stroke-width:8.9907;stroke-linejoin:round;stroke-miterlimit:10;}
	.st11{fill:none;stroke:#EF6B83;stroke-width:8.9907;stroke-linecap:round;stroke-miterlimit:10;}
	.st12{fill:#CC496B;}
	.st13{fill:#EF6B83;}
	.st14{fill:none;stroke:#CF5C7A;stroke-width:4.9592;stroke-linecap:round;stroke-miterlimit:10;}
	.st15{fill:#636467;}
	.st16{fill:#FFFFFF;stroke:#636467;stroke-width:7.1491;stroke-linecap:round;stroke-miterlimit:10;}
	.st17{fill:none;stroke:#A17644;stroke-width:3.2757;stroke-miterlimit:10;}
	.st18{fill:#626568;}
	.st19{fill:#E7D1B9;}
	.st20{fill:#ED6E83;}
	.st21{fill:#5BBBBB;}
	.st22{fill:#DFDFDE;}
	.st23{opacity:0.5;}
	.st24{fill:#D2D3D4;}
	.st25{fill:none;stroke:#A17644;stroke-width:3.6673;stroke-miterlimit:10;}
	.st26{fill:#FFFFFF;}
	.st27{fill:#16A457;}
	.st28{fill:none;stroke:#51BC96;stroke-width:20.1693;stroke-linecap:round;stroke-miterlimit:10;}
	.st29{fill:none;stroke:#51BC96;stroke-width:19.8239;stroke-linecap:round;stroke-miterlimit:10;}
	.st30{fill-rule:evenodd;clip-rule:evenodd;fill:#EF6B83;}
	.st31{fill:none;stroke:#59BE99;stroke-width:3.5;stroke-miterlimit:10;}
	.st32{fill:none;stroke:#59BE99;stroke-width:3.5;stroke-linecap:round;stroke-miterlimit:10;}
	.st33{fill:#FFFFFF;stroke:#59BE99;stroke-width:3.5;stroke-linecap:round;stroke-miterlimit:10;}
	.st34{fill:none;stroke:#59BE99;stroke-width:4.5;stroke-linecap:round;stroke-miterlimit:10;}
	.st35{fill:#59BE99;}
	.st36{fill:none;stroke:#59BE99;stroke-width:4.5;stroke-linecap:round;stroke-linejoin:round;stroke-miterlimit:10;}
	.st37{opacity:0.8;fill:#EF6B83;}
	.st38{opacity:0.8;fill:none;stroke:#EF6C84;stroke-width:5;stroke-linecap:round;stroke-miterlimit:10;}
</style>
<g class="st23">
	<path class="st0" d="M31.6,244.9c0.1,0,0.3,0,0.4,0h262.7c0.1,0,0.3,0,0.4,0c7.1,0,12.8,5.7,12.8,12.8c0,5-2.8,9.2-6.9,11.4l0,0
		c0,0,0,0,0,0c-1.8,0.9-3.8,1.4-5.9,1.4h-11c-5.1,1-9,5.5-9,11c0,11.7,11.1,11.3,11.2,11.4c5.4,0,9.8,4.4,9.8,9.8
		c0,5.4-4.4,9.8-9.8,9.8c-0.6,0-1.1-0.1-1.7-0.2c-10.7,0-181.3,0-210.7,0c-0.7,0.1-1.3,0.2-2.1,0.2c-5.5,0-9.9-4.4-9.9-9.9
		c0-5.5,4.4-9.9,9.9-9.9c0.2,0,0.3,0,0.5,0c0.1,0,0.2,0,0.4,0c3.5,0,6.4-2.8,6.4-6.4s-2.8-6.4-6.4-6.4c-0.4,0-0.8,0-1.2,0.1
		c-0.6-0.1-1.3-0.1-2-0.1c-5,0-16.3,0-21,0c-4.7,0-8.8-2.6-8.8-9.4h-8.1c-7.1,0-12.8-5.7-12.8-12.8
		C18.7,250.6,24.5,244.9,31.6,244.9z"/>
	<line class="st17" x1="46.8" y1="101.4" x2="46.8" y2="237.1"/>
	<line class="st17" x1="267.8" y1="104.6" x2="267.8" y2="222.4"/>
	<path class="st3" d="M46.3,185.5c0,0,30.9,0.3,30.9-37.1c0-30.3-30.9-98.5-30.9-98.5s-30.9,68.2-30.9,98.5
		C15.5,185.8,46.3,185.5,46.3,185.5z"/>
	<path class="st2" d="M46.3,49.9v135.6c0,0-30.9,0.3-30.9-37.1C15.5,118.1,46.3,49.9,46.3,49.9z"/>
	<line class="st17" x1="77.8" y1="169.8" x2="77.8" y2="232"/>
	<path class="st2" d="M77.8,190.2c0,0-18.8,0.2-18.8-22.6c0-18.4,18.8-60,18.8-60s18.8,41.6,18.8,60
		C96.6,190.3,77.8,190.2,77.8,190.2z"/>
	<path class="st3" d="M77.8,107.5v82.6c0,0,18.8,0.2,18.8-22.6C96.6,149.1,77.8,107.5,77.8,107.5z"/>
	<path class="st3" d="M267.8,150.3c0,0,30.5,0.3,30.5-36.6c0-29.9-30.5-97.3-30.5-97.3s-30.5,67.4-30.5,97.3
		C237.3,150.6,267.8,150.3,267.8,150.3z"/>
	<path class="st2" d="M267.8,16.4v133.9c0,0-30.5,0.3-30.5-36.6C237.3,83.8,267.8,16.4,267.8,16.4z"/>
	<line class="st17" x1="232.7" y1="141.7" x2="232.7" y2="259.5"/>
	<path class="st3" d="M232.7,187.4c0,0,21.4,0.2,21.4-25.7c0-21-21.4-68.2-21.4-68.2s-21.4,47.3-21.4,68.2
		C211.4,187.6,232.7,187.4,232.7,187.4z"/>
	<path class="st2" d="M232.7,93.5v93.9c0,0-21.4,0.2-21.4-25.7C211.4,140.8,232.7,93.5,232.7,93.5z"/>
	<path class="st4" d="M271.5,214.5L271.5,214.5c-3.4-3-14.9-11-26.4,0.5c-13.1,13.1-25.4,0-25.4,0s-13.7-13-26.7,0.1
		c-13.1,13.1-25.4,0-25.4,0s-13.7-13-26.7,0.1c-13.1,13.1-25.2,0.1-25.2,0.1s-13.8-13.1-26.9,0c-13.1,13.1-25.4,0-25.4,0
		s-10.2-10.5-26.7-0.6c-6.5,3.9-13.2,15.2-14.9,26.4l1,9.7h249.4l0,0h23.8l1.6-12.2C282,223.4,265.6,208.4,271.5,214.5z"/>
	<circle class="st5" cx="44.2" cy="221" r="2"/>
	<circle class="st5" cx="200.8" cy="222.4" r="1.1"/>
	<circle class="st5" cx="175.1" cy="231.9" r="1.1"/>
	<circle class="st5" cx="93.2" cy="223" r="1.1"/>
	<circle class="st5" cx="277" cy="227.1" r="1.1"/>
	<circle class="st5" cx="35.3" cy="228" r="1.1"/>
	<circle class="st5" cx="112.7" cy="227.1" r="1.1"/>
	<circle class="st5" cx="261.7" cy="222.1" r="2"/>
	<path class="st6" d="M31.6,238.5c0.1,0,0.3,0,0.4,0h262.7c0.1,0,0.3,0,0.4,0c7.1,0,12.8,5.7,12.8,12.8c0,5-2.8,9.2-6.9,11.4l0,0
		c0,0,0,0,0,0c-1.8,0.9-3.8,1.4-5.9,1.4h-11c-5.1,1-9,5.5-9,11c0,11.7,11.1,11.3,11.2,11.4c5.4,0,9.8,4.4,9.8,9.8s-4.4,9.8-9.8,9.8
		c-0.6,0-1.1-0.1-1.7-0.2c-10.7,0-181.3,0-210.7,0c-0.7,0.1-1.3,0.2-2.1,0.2c-5.5,0-9.9-4.4-9.9-9.9s4.4-9.9,9.9-9.9
		c0.2,0,0.3,0,0.5,0c0.1,0,0.2,0,0.4,0c3.5,0,6.4-2.8,6.4-6.4c0-3.5-2.8-6.4-6.4-6.4c-0.4,0-0.8,0-1.2,0.1c-0.6-0.1-1.3-0.1-2-0.1
		c-5,0-16.3,0-21,0c-4.7,0-8.8-2.6-8.8-9.4h-8.1c-7.1,0-12.8-5.7-12.8-12.8C18.7,244.2,24.5,238.5,31.6,238.5z"/>
	<path class="st18" d="M74.3,224.6"/>
	<path class="st19" d="M184.9,116.1c5,2.8,9.1,5.2,9.8,5.5c1.8,0.9,3.5,4.2,3.5,4.2l7.3,27.9c0.7,1.6,0.9,3.4,0.4,5.2
		c-1.1,4.2-5.5,6.7-9.7,5.6c-3.6-1-6-4.3-5.9-7.9l-5.2-22.5l-2.9-1.7L184.9,116.1"/>
	<path class="st19" d="M132.7,133.4l-4.9,7.9c0,0-12.6,2.5-16.9,3.4c-3.9,0.5-6.9,3.9-6.8,7.9c0.1,4.3,3.7,7.7,8,7.6
		c0.4,0,0.8-0.1,1.2-0.1c0,0,16.9-3,18.7-3.4c2.1-0.4,3.7-1.3,4.7-2.4c0.4-0.5,2.3-3.8,4-6.2l-9-12.2"/>
	<path class="st20" d="M144.6,165.5l0.2-24.2l-4.1,6.7l-11.3-9.2c0,0,11.5-18.4,12.9-21.3c2.1-4.2,6.9-7.9,14.3-9.5
		c5.8-1.2,13.3,0,15.8,1.2s3.7,1.9,12.5,6.9c1.6,0.9,3.1,1.7,4.4,2.5l-7.1,13.9l-4.7-2.6c0.5,1.6-0.2,38.7-0.2,38.7"/>
	<path class="st7" d="M90.7,256.7h118.8c2.3,0,5.8-0.9,6.7-4.2s-2.8-4.2-5.1-4.2H95.7c-2.3,0-6.9,1.9-8,4.2
		C86.6,254.8,88.3,256.7,90.7,256.7z"/>
	<path class="st19" d="M194.4,247.1c1.3,1.7,2.3,3,2.9,3.8c1.7,2.3,4.4,3.9,7.4,3.9c5,0,9.1-4.1,9.1-9.1c0-2.6-1.1-5-2.9-6.7
		l-1.7-2.5"/>
	<path class="st19" d="M194.4,247.1c-7.4-10-23.4-33-25.3-35.2c-2.5-2.9-3.7-7.1-4-9l20.2-4.6l1.2,4.4l22.8,33.7L194.4,247.1z"/>
	<path class="st21" d="M125.9,189.8c0.6-0.7,18.7-24.3,18.7-24.3l32.7,3l8.2,29.9l-20.4,4.5c-0.4-1.9-7-22.8-7-22.8l-15.9,21.1
		L125.9,189.8z"/>
	<path class="st19" d="M110.9,237.7c2.5-10.8,7.6-33,9.5-38.6c0.8-2.4,4.9-8.6,5.6-9.3l16.3,11.4l-5,6.7l-8.7,35.3"/>
	<path class="st19" d="M110.9,237.7c-0.5,2.2-0.9,4-1.2,5c0,0.1,0,0.1-0.1,0.2c0,0,0,0.1,0,0.1c-0.1,0.5-0.2,0.8-0.2,0.8l0,0
		c-0.7,4.6,2.3,9.1,6.9,10.2c4.6,1.1,9.3-1.5,10.9-5.8l0,0l1.2-5L110.9,237.7z"/>
	<path class="st18" d="M106.1,160.3l7.3-1.2c1.6-0.3,2.7-1.8,2.4-3.4l-3.2-19.4c-0.3-1.6-1.8-2.7-3.4-2.4l-7.3,1.2
		c-1.6,0.3-2.7,1.8-2.4,3.4l3.2,19.4C103,159.5,104.5,160.6,106.1,160.3z"/>
	<path class="st22" d="M105.3,157l7.6-1.3c0.6-0.1,1.1-0.7,1-1.3l-2.8-16.7c-0.1-0.6-0.7-1.1-1.3-1l-7.6,1.3c-0.6,0.1-1.1,0.7-1,1.3
		L104,156C104.1,156.7,104.7,157.1,105.3,157z"/>
	<g>
		<path class="st20" d="M158.8,66.4c-6.1,0-11.5,3.1-14.6,7.9l32,8.3C175.6,73.6,168,66.4,158.8,66.4z"/>
		<path class="st19" d="M144.3,74.3c-1.8,2.7-2.9,6-2.9,9.6c0,9.6,7.8,17.4,17.4,17.4c9.6,0,17.4-7.8,17.4-17.4c0-0.4,0-0.9-0.1-1.3
			L144.3,74.3z"/>
	</g>
	<polygon class="st20" points="155.5,77.2 128.3,70.3 128.3,68 156.1,75.2 	"/>
</g>
</svg>
