<?xml version="1.0" encoding="utf-8"?>
<!-- Generator: Adobe Illustrator 18.1.1, SVG Export Plug-In . SVG Version: 6.00 Build 0)  -->
<svg version="1.1" id="Layer_1" xmlns="http://www.w3.org/2000/svg" xmlns:xlink="http://www.w3.org/1999/xlink" x="0px" y="0px"
	 viewBox="0 0 323.3 410.7" style="enable-background:new 0 0 323.3 410.7;" xml:space="preserve">
<style type="text/css">
	.st0{fill:#C6AF75;}
	.st1{fill:#A17644;}
	.st2{fill:#2AD19D;}
	.st3{fill:#79E2BC;}
	.st4{fill:#34B188;}
	.st5{fill:#FCED5E;}
	.st6{fill:#FDE49C;}
	.st7{fill:#E2CC8A;}
	.st8{fill:#D9C081;}
	.st9{fill:#626366;}
	.st10{fill:#F46B83;}
	.st11{fill:#CC486A;}
	.st12{fill:#CE5B79;}
	.st13{fill:#FFFFFF;}
	.st14{fill:#929496;}
	.st15{fill:#626467;}
	.st16{fill:#E6D0B8;}
	.st17{fill:#EE6D83;}
	.st18{fill:#5ABABA;}
	.st19{fill:#DEDEDE;}
	.st20{fill:#D1D3D4;}
	.st21{fill:#16A457;}
	.st22{fill:#58BD98;}
	.st23{fill:#F6899C;}
	.st24{fill:#1A9169;}
	.st25{fill:#AA4660;}
	.st26{fill-rule:evenodd;clip-rule:evenodd;fill:#F46B83;}
	.st27{fill:#EF6B83;}
</style>
<g>
	<g>
		<g>
			<path class="st14" d="M104,352.1v4.5h3.2v3.5H104v9.4c0,0.7,0.1,1.2,0.4,1.5c0.3,0.3,0.7,0.5,1.2,0.5c0.3,0,0.6,0,0.9,0
				c0.3,0,0.5-0.1,0.9-0.1l0.4,3.6c-0.6,0.2-1.1,0.3-1.7,0.4c-0.5,0.1-1.1,0.1-1.8,0.1c-1.7,0-3-0.5-4-1.4c-0.9-0.9-1.4-2.4-1.4-4.5
				v-9.4h-2.7v-3.5H99v-4.5H104z"/>
		</g>
		<g>
			<path class="st14" d="M136,359.6l-1.9,0.2l-3.9,15.2h-4.2l-3.4-11h-0.1l-3.4,11H115l-3.9-15.2l-1.9-0.2v-3h8.4v3l-2,0.4l1.7,8.5
				h0.1l3.5-11.8h3.3l3.5,11.9h0.1l1.7-8.5l-2-0.4v-3h8.4V359.6z"/>
		</g>
		<g>
			<path class="st14" d="M137.7,365.7c0-2.8,0.8-5,2.3-6.8c1.5-1.8,3.7-2.6,6.4-2.6c2.7,0,4.9,0.9,6.4,2.6c1.5,1.8,2.3,4,2.3,6.8
				v0.4c0,2.8-0.8,5-2.3,6.8c-1.5,1.7-3.7,2.6-6.4,2.6c-2.7,0-4.9-0.9-6.4-2.6c-1.5-1.7-2.3-4-2.3-6.8V365.7z M142.7,366.1
				c0,1.7,0.3,3,0.9,4.1c0.6,1,1.5,1.5,2.9,1.5c1.3,0,2.2-0.5,2.8-1.5c0.6-1,0.9-2.4,0.9-4v-0.4c0-1.6-0.3-3-0.9-4
				c-0.6-1-1.6-1.6-2.9-1.6s-2.2,0.5-2.8,1.6c-0.6,1-0.9,2.4-0.9,4V366.1z"/>
		</g>
		<g>
			<path class="st14" d="M166.2,372.1l2.4-0.5v-11.5h-2.8v-3.5h2.8v-2.1c0-2.1,0.6-3.7,1.8-4.8c1.2-1.1,2.9-1.7,5-1.7
				c0.4,0,0.9,0,1.3,0.1s0.9,0.2,1.4,0.3l-0.4,3.7c-0.3,0-0.5-0.1-0.8-0.1c-0.3,0-0.6-0.1-0.9-0.1c-0.8,0-1.4,0.2-1.8,0.7
				c-0.4,0.4-0.6,1.1-0.6,1.9v2.1h3.7v3.5h-3.7v11.5l2.4,0.5v3h-9.8V372.1z"/>
		</g>
		<g>
			<path class="st14" d="M187.4,375.5c-2.7,0-4.8-0.9-6.4-2.6c-1.6-1.7-2.4-3.9-2.4-6.5v-0.7c0-2.7,0.8-5,2.3-6.8s3.5-2.7,6.1-2.6
				c2.5,0,4.4,0.8,5.8,2.3c1.4,1.5,2.1,3.5,2.1,6.1v2.7h-11l0,0.1c0.1,1.2,0.5,2.2,1.2,3s1.7,1.2,2.9,1.2c1.1,0,2-0.1,2.8-0.3
				c0.7-0.2,1.5-0.6,2.4-1.1l1.3,3.1c-0.8,0.6-1.8,1.1-3,1.5C190.2,375.3,188.9,375.5,187.4,375.5z M186.9,360.1
				c-0.9,0-1.7,0.4-2.2,1.1c-0.5,0.7-0.9,1.6-1,2.8l0.1,0.1h6.1v-0.4c0-1.1-0.2-1.9-0.7-2.5C188.7,360.4,187.9,360.1,186.9,360.1z"
				/>
		</g>
		<g>
			<path class="st14" d="M206,375.5c-2.7,0-4.8-0.9-6.4-2.6c-1.6-1.7-2.4-3.9-2.4-6.5v-0.7c0-2.7,0.8-5,2.3-6.8s3.5-2.7,6.1-2.6
				c2.5,0,4.4,0.8,5.8,2.3c1.4,1.5,2.1,3.5,2.1,6.1v2.7h-11l0,0.1c0.1,1.2,0.5,2.2,1.2,3s1.7,1.2,2.9,1.2c1.1,0,2-0.1,2.8-0.3
				c0.7-0.2,1.5-0.6,2.4-1.1l1.3,3.1c-0.8,0.6-1.8,1.1-3,1.5C208.9,375.3,207.5,375.5,206,375.5z M205.6,360.1
				c-0.9,0-1.7,0.4-2.2,1.1c-0.5,0.7-0.9,1.6-1,2.8l0.1,0.1h6.1v-0.4c0-1.1-0.2-1.9-0.7-2.5C207.3,360.4,206.6,360.1,205.6,360.1z"
				/>
		</g>
		<g>
			<path class="st14" d="M223.2,352.1v4.5h3.2v3.5h-3.2v9.4c0,0.7,0.1,1.2,0.4,1.5c0.3,0.3,0.7,0.5,1.2,0.5c0.3,0,0.6,0,0.9,0
				c0.3,0,0.5-0.1,0.9-0.1l0.4,3.6c-0.6,0.2-1.1,0.3-1.7,0.4c-0.5,0.1-1.1,0.1-1.8,0.1c-1.7,0-3-0.5-4-1.4c-0.9-0.9-1.4-2.4-1.4-4.5
				v-9.4h-2.7v-3.5h2.7v-4.5H223.2z"/>
		</g>
	</g>
	<g>
		<path class="st0" d="M31.6,241c0.1,0,0.3,0,0.4,0h262.7c0.1,0,0.3,0,0.4,0c7.1,0,12.8,0.2,12.8,7.3c0,10.6-2.8,14.8-6.9,16.9l0,0
			c0,0,0,0,0,0c-1.8,0.9-3.8,1.4-5.9,1.4c0,0-5.9,0-11,0s-9,5.5-9,11c0,11.7,11.1,11.3,11.2,11.4c5.4,0,9.8,4.4,9.8,9.8
			s-4.4,9.8-9.8,9.8c-0.6,0-213.7,0.1-214.4,0.1c-5.5,0-9.9-4.4-9.9-16.3c0-5.5,4.4-3.6,9.9-3.6c0.2,0,0.3,0,0.5,0
			c0.1,0,0.2,0,0.4,0c3.5,0,6.4-2.8,6.4-6.4c0-3.5-2.8-6.4-6.4-6.4c-0.4,0-2.4,0-3.1,0c-5,0-16.3,0-21,0c-4.7,0-8.8-2.6-8.8-9.4
			h-8.1c-7.1,0-12.8-5.7-12.8-12.8c0-0.3,0.1-7.9,0.1-7.9S25.4,241,31.6,241z"/>
	</g>
	<g>
		<rect x="45.2" y="97.5" class="st1" width="3.3" height="135.7"/>
	</g>
	<g>
		<rect x="266.1" y="100.8" class="st1" width="3.3" height="117.7"/>
	</g>
	<g>
		<path class="st3" d="M46.3,181.6c0,0,30.9,0.3,30.9-37.1c0-30.3-30.9-98.5-30.9-98.5s-30.9,68.2-30.9,98.5
			C15.5,181.9,46.3,181.6,46.3,181.6z"/>
	</g>
	<g>
		<path class="st2" d="M46.3,46v135.6c0,0-30.9,0.3-30.9-37.1C15.5,114.3,46.3,46,46.3,46z"/>
	</g>
	<g>
		<rect x="76.2" y="165.9" class="st1" width="3.3" height="62.2"/>
	</g>
	<g>
		<path class="st2" d="M77.8,186.3c0,0-18.8,0.2-18.8-22.6c0-18.4,18.8-60,18.8-60s18.8,41.6,18.8,60
			C96.6,186.5,77.8,186.3,77.8,186.3z"/>
	</g>
	<g>
		<path class="st3" d="M77.8,103.6v82.6c0,0,18.8,0.2,18.8-22.6C96.6,145.2,77.8,103.6,77.8,103.6z"/>
	</g>
	<g>
		<path class="st3" d="M267.8,146.4c0,0,30.5,0.3,30.5-36.6c0-29.9-30.5-97.3-30.5-97.3s-30.5,67.4-30.5,97.3
			C237.3,146.7,267.8,146.4,267.8,146.4z"/>
	</g>
	<g>
		<path class="st2" d="M267.8,12.5v133.9c0,0-30.5,0.3-30.5-36.6C237.3,79.9,267.8,12.5,267.8,12.5z"/>
	</g>
	<g>
		<rect x="231.1" y="137.9" class="st1" width="3.3" height="117.7"/>
	</g>
	<g>
		<path class="st3" d="M232.7,183.6c0,0,21.4,0.2,21.4-25.7c0-21-21.4-68.2-21.4-68.2s-21.4,47.3-21.4,68.2
			C211.4,183.8,232.7,183.6,232.7,183.6z"/>
	</g>
	<g>
		<path class="st2" d="M232.7,89.6v93.9c0,0-21.4,0.2-21.4-25.7C211.4,136.9,232.7,89.6,232.7,89.6z"/>
	</g>
	<g>
		<g>
			<path class="st4" d="M44.7,211c0,0,17.8-11.4,29.3,0.1c13.1,13.1,25.4,0,25.4,0s13.7-13,26.7,0.1c13.1,13.1,25.4,0,25.4,0
				s13.7-13,26.7,0.1c13.1,13.1,25.2,0.1,25.2,0.1s13.8-13.1,26.9,0c13.1,13.1,25.4,0,25.4,0s10.2-10.5,26.7-0.6
				c6.5,3.9,14.2,15.2,15.9,26.4l-2,9.7H47.1l0,0H23.3l-0.2-8.9C29.6,228.1,36.2,218.1,44.7,211z"/>
		</g>
		<g>
			<circle class="st5" cx="274.9" cy="217.1" r="2"/>
		</g>
		<g>
			<circle class="st5" cx="118.3" cy="218.5" r="1.1"/>
		</g>
		<g>
			<circle class="st5" cx="144" cy="228.1" r="1.1"/>
		</g>
		<g>
			<circle class="st5" cx="226" cy="219.1" r="1.1"/>
		</g>
		<g>
			<circle class="st5" cx="42.1" cy="223.2" r="1.1"/>
		</g>
		<g>
			<circle class="st5" cx="283.9" cy="224.1" r="1.1"/>
		</g>
		<g>
			<circle class="st5" cx="206.4" cy="223.2" r="1.1"/>
		</g>
		<g>
			<circle class="st5" cx="57.5" cy="218.2" r="2"/>
		</g>
	</g>
	<g>
		<path class="st6" d="M31.6,234.6c0.1,0,0.3,0,0.4,0h262.7c0.1,0,0.3,0,0.4,0c7.1,0,12.8,5.7,12.8,12.8c0,5-2.8,9.2-6.9,11.4l0,0
			c0,0,0,0,0,0c-1.8,0.9-3.8,1.4-5.9,1.4c0,0-7.3,0-11,0c-3.6,0-9,5.5-9,11c0,11.7,11.1,11.3,11.2,11.4c5.4,0,9.8,4.4,9.8,9.8
			c0,5.4-4.4,9.8-9.8,9.8c-0.6,0-213.7,0.1-214.4,0.1c-5.5,0-9.9-4.4-9.9-9.9s4.4-9.9,9.9-9.9c0.2,0,0.3,0,0.5,0c0.1,0,0.2,0,0.4,0
			c3.5,0,6.4-2.8,6.4-6.4c0-3.5-2.8-6.4-6.4-6.4c-0.4,0-2.4,0-3.1,0c-5,0-16.3,0-21,0c-4.7,0-8.8-2.6-8.8-9.4h-8.1
			c-7.1,0-12.8-5.7-12.8-12.8C18.7,240.4,24.5,234.6,31.6,234.6z"/>
	</g>
	<g>
		<path class="st15" d="M74.3,220.7"/>
	</g>
	<g>
		<path class="st16" d="M184.9,112.2c5,2.8,9.1,5.2,9.8,5.5c1.8,0.9,3.5,4.2,3.5,4.2l7.3,27.9c0.7,1.6,0.9,3.4,0.4,5.2
			c-1.1,4.2-5.5,6.7-9.7,5.6c-3.6-1-6-4.3-5.9-7.9l-5.2-22.5l-2.9-1.7L184.9,112.2"/>
	</g>
	<g>
		<path class="st16" d="M132.7,129.5l-4.9,7.9c0,0-12.6,2.5-16.9,3.4c-3.9,0.5-6.9,3.9-6.8,7.9c0.1,4.3,3.7,7.7,8,7.6
			c0.4,0,0.8-0.1,1.2-0.1c0,0,16.9-3,18.7-3.4c2.1-0.4,3.7-1.3,4.7-2.4c0.4-0.5,2.3-3.8,4-6.2l-9-12.2"/>
	</g>
	<g>
		<path class="st17" d="M144.6,161.6l0.2-24.2l-4.1,6.7l-11.3-9.2c0,0,11.5-18.4,12.9-21.3c2.1-4.2,6.9-7.9,14.3-9.5
			c5.8-1.2,13.3,0,15.8,1.2s3.7,1.9,12.5,6.9c1.6,0.9,3.1,1.7,4.4,2.5l-7.1,13.9l-4.7-2.6c0.5,1.6-0.2,38.7-0.2,38.7"/>
	</g>
	<g>
		<path class="st8" d="M90.7,252.8h118.8c2.3,0,5.8-0.9,6.7-4.2s-2.8-4.2-5.1-4.2H95.7c-2.3,0-6.9,1.9-8,4.2
			C86.6,251,88.3,252.8,90.7,252.8z"/>
	</g>
	<g>
		<path class="st16" d="M194.4,243.3c1.3,1.7,2.3,3,2.9,3.8c1.7,2.3,4.4,3.9,7.4,3.9c5,0,9.1-4.1,9.1-9.1c0-2.6-1.1-5-2.9-6.7
			l-1.7-2.5"/>
	</g>
	<g>
		<path class="st16" d="M194.4,243.3c-7.4-10-23.4-33-25.3-35.2c-2.5-2.9-3.7-7.1-4-9l20.2-4.6l1.2,4.4l22.8,33.7L194.4,243.3z"/>
	</g>
	<g>
		<path class="st18" d="M125.9,186c0.6-0.7,18.7-24.3,18.7-24.3l32.7,3l8.2,29.9l-20.4,4.5c-0.4-1.9-7-22.8-7-22.8l-15.9,21.1
			L125.9,186z"/>
	</g>
	<g>
		<path class="st16" d="M110.9,233.9c2.5-10.8,7.6-33,9.5-38.6c0.8-2.4,4.9-8.6,5.6-9.3l16.3,11.4l-5,6.7l-8.7,35.3"/>
	</g>
	<g>
		<path class="st16" d="M110.9,233.9c-0.5,2.2-0.9,4-1.2,5c0,0.1,0,0.1-0.1,0.2c0,0,0,0.1,0,0.1c-0.1,0.5-0.2,0.8-0.2,0.8l0,0
			c-0.7,4.6,2.3,9.1,6.9,10.2c4.6,1.1,9.3-1.5,10.9-5.8l0,0l1.2-5L110.9,233.9z"/>
	</g>
	<g>
		<path class="st15" d="M106.1,156.5l7.3-1.2c1.6-0.3,2.7-1.8,2.4-3.4l-3.2-19.4c-0.3-1.6-1.8-2.7-3.4-2.4l-7.3,1.2
			c-1.6,0.3-2.7,1.8-2.4,3.4l3.2,19.4C103,155.6,104.5,156.7,106.1,156.5z"/>
	</g>
	<g>
		<path class="st19" d="M105.3,153.1l7.6-1.3c0.6-0.1,1.1-0.7,1-1.3l-2.8-16.7c-0.1-0.6-0.7-1.1-1.3-1l-7.6,1.3
			c-0.6,0.1-1.1,0.7-1,1.3l2.8,16.7C104.1,152.8,104.7,153.2,105.3,153.1z"/>
	</g>
	<g>
		<g>
			<path class="st17" d="M158.8,62.6c-6.1,0-11.5,3.1-14.6,7.9l32,8.3C175.6,69.7,168,62.6,158.8,62.6z"/>
		</g>
		<g>
			<path class="st16" d="M144.3,70.4c-1.8,2.7-2.9,6-2.9,9.6c0,9.6,7.8,17.4,17.4,17.4c9.6,0,17.4-7.8,17.4-17.4
				c0-0.4,0-0.9-0.1-1.3L144.3,70.4z"/>
		</g>
	</g>
	<g>
		<polygon class="st17" points="155.5,73.4 128.3,66.4 128.3,64.2 156.1,71.3 		"/>
	</g>
</g>
</svg>
