<?xml version="1.0" encoding="utf-8"?>
<!-- Generator: Adobe Illustrator 18.1.1, SVG Export Plug-In . SVG Version: 6.00 Build 0)  -->
<svg version="1.1" id="Layer_1" xmlns="http://www.w3.org/2000/svg" xmlns:xlink="http://www.w3.org/1999/xlink" x="0px" y="0px"
	 viewBox="0 0 73.9 73.9" style="enable-background:new 0 0 73.9 73.9;" xml:space="preserve">
<style type="text/css">
	.st0{fill:#F46B83;}
	.st1{fill:#C6AF75;}
	.st2{fill:#A17644;}
	.st3{fill:#2AD19D;}
	.st4{fill:#79E2BC;}
	.st5{fill:#34B188;}
	.st6{fill:#FCED5E;}
	.st7{fill:#FDE49C;}
	.st8{fill:#E2CC8A;}
	.st9{fill:#D9C081;}
	.st10{fill:#626366;}
	.st11{fill:#CC486A;}
	.st12{fill:#CE5B79;}
	.st13{fill:#FFFFFF;}
	.st14{fill:#929496;}
	.st15{fill:#626467;}
	.st16{fill:#E6D0B8;}
	.st17{fill:#EE6D83;}
	.st18{fill:#5ABABA;}
	.st19{fill:#DEDEDE;}
	.st20{fill:#D1D3D4;}
	.st21{fill:#16A457;}
	.st22{fill:#58BD98;}
	.st23{fill:#F6899C;}
	.st24{fill:#1A9169;}
	.st25{fill:#AA4660;}
	.st26{fill-rule:evenodd;clip-rule:evenodd;fill:#F46B83;}
	.st27{fill:#EF6B83;}
	.st28{fill:none;stroke:#000000;stroke-miterlimit:10;}
	.st29{fill:#F4879A;}
	.st30{fill:#37CF9D;}
	.st31{fill-rule:evenodd;clip-rule:evenodd;fill:#FFFFFF;}
</style>
<g>
	<path class="st22" d="M50.5,57.3L50,56.7l-5.9-8.8l-0.3-1.1l0,0L41.7,39c0,0,0.2-9.6,0.1-10.1l1.2,0.7l0.8,0.4l1.4,5.9
		c0,0.9,0.6,1.8,1.5,2c1.1,0.3,2.2-0.4,2.5-1.5c0.1-0.5,0.1-0.9-0.1-1.4l-1.9-7.3c0,0-0.4-0.9-0.9-1.1c-0.1-0.1-0.7-0.4-1.4-0.8
		c-0.3-0.2-0.7-0.4-1.1-0.6c-2.3-1.3-2.6-1.5-3.3-1.8c-0.7-0.3-2.6-0.6-4.1-0.3c-1.9,0.4-3.4,0.9-4,2c-0.4,0.7-3.1,6-3.1,6l0,0
		l-0.4,0.7c0,0-3.3,0.7-4.4,0.9c-1,0.1-1.8,1-1.8,2.1c0,1.1,1,2,2.1,2c0.1,0,0.2,0,0.3,0c0,0,4.4-0.8,4.9-0.9c0.5-0.1,1-0.3,1.2-0.6
		c0.1-0.1,0.6-1,1-1.6l1.1-1.7l0,6.3c0,0-4.7,6.1-4.9,6.3c-0.2,0.2-1.2,1.8-1.5,2.4c-0.5,1.5-1.8,7.2-2.5,10.1
		c-0.1,0.6-0.2,1-0.3,1.3c0,0,0,0,0,0c0,0,0,0,0,0c0,0.1-0.1,0.2-0.1,0.2l0,0c-0.2,1.2,0.6,2.4,1.8,2.7c1.2,0.3,2.4-0.4,2.8-1.5l0,0
		l0.3-1.3l2.3-9.2l1.3-1.7l4.1-5.5c0,0,1.7,5.4,1.8,5.9c0.1,0.5,0.4,1.6,1.1,2.3c0.5,0.6,4.6,6.6,6.6,9.2c0.3,0.4,0.6,0.8,0.8,1
		c0.4,0.6,1.1,1,1.9,1c1.3,0,2.4-1.1,2.4-2.4C51.2,58.4,50.9,57.8,50.5,57.3z"/>
	<path class="st22" d="M36.9,21.5c2.5,0,4.5-2,4.5-4.5c0-0.1,0-0.2,0-0.3c-0.2-2.4-2.1-4.2-4.5-4.2c-1.6,0-3,0.8-3.8,2
		c-0.5,0.7-0.7,1.6-0.7,2.5C32.4,19.5,34.4,21.5,36.9,21.5z"/>
</g>
<rect x="-1732.8" y="-140.2" class="st28" width="2853.9" height="647.9"/>
</svg>
