<?xml version="1.0" encoding="utf-8"?>
<!-- Generator: Adobe Illustrator 18.1.1, SVG Export Plug-In . SVG Version: 6.00 Build 0)  -->
<svg version="1.1" id="Layer_1" xmlns="http://www.w3.org/2000/svg" xmlns:xlink="http://www.w3.org/1999/xlink" x="0px" y="0px"
	 viewBox="0 0 31.9 54.8" style="enable-background:new 0 0 31.9 54.8;" xml:space="preserve">
<style type="text/css">
	.st0{fill:#58BD98;}
	.st1{fill:#FFFFFF;}
	.st2{fill:#F6899C;}
	.st3{fill:#1A9169;}
	.st4{fill:#2AD19D;}
	.st5{fill:#F46B83;}
	.st6{fill:#17916A;}
	.st7{fill:#AA4660;}
	.st8{fill:#3A5D87;}
	.st9{fill:#527EBB;}
	.st10{fill:#D82908;}
	.st11{fill:#E85749;}
	.st12{fill:#C6AF75;}
	.st13{fill:#A17644;}
	.st14{fill:#79E2BC;}
	.st15{fill:#34B188;}
	.st16{fill:#FCED5E;}
	.st17{fill:#FDE49C;}
	.st18{fill:#E2CC8A;}
	.st19{fill:#D9C081;}
	.st20{fill:#626366;}
	.st21{fill:#CC486A;}
	.st22{fill:#CE5B79;}
	.st23{fill:#939598;}
	.st24{fill:#626467;}
	.st25{fill:#E6D0B8;}
	.st26{fill:#EE6D83;}
	.st27{fill:#5ABABA;}
	.st28{fill:#DEDEDE;}
	.st29{fill:#D1D3D4;}
	.st30{fill:#16A457;}
	.st31{fill:#929496;}
	.st32{fill:#EE6B82;}
	.st33{fill:#F66981;}
	.st34{fill:#16D19B;}
	.st35{fill:#24A45A;}
	.st36{opacity:0.21;}
	.st37{fill:#231F20;}
	.st38{fill-rule:evenodd;clip-rule:evenodd;fill:#FFFFFF;}
	.st39{fill:#F16D83;}
	.st40{fill-rule:evenodd;clip-rule:evenodd;fill:#F56980;}
	.st41{fill:#CCCCCC;}
	.st42{fill:#F36D85;}
	.st43{fill:#F4A6B7;}
	.st44{fill:#CBCBCB;}
	.st45{fill:#F06E85;}
	.st46{fill:#909294;}
	.st47{fill:#F56980;}
	.st48{opacity:0.3;}
	.st49{fill:#E2F2EB;}
</style>
<g>
	<g>
		<g>
			<path class="st23" d="M31.1,50.2l-0.5-0.7L24,39.7l-0.3-1.3l0,0l-2.4-8.7c0,0,0.2-10.8,0.1-11.3l1.4,0.8l0.9,0.5l1.5,6.6
				c0,1,0.7,2,1.7,2.3c1.2,0.3,2.5-0.4,2.8-1.6c0.1-0.5,0.1-1.1-0.1-1.5l-2.1-8.1c0,0-0.5-1-1-1.2c-0.1-0.1-0.7-0.4-1.6-0.9
				c-0.4-0.2-0.8-0.5-1.3-0.7c-2.5-1.4-2.9-1.6-3.6-2c-0.7-0.4-2.9-0.7-4.6-0.3c-2.2,0.5-3.8,1.1-4.4,2.3C10.4,15.2,7.4,21,7.4,21
				l0,0l-0.4,0.7c0,0-3.7,0.7-4.9,1c-1.1,0.1-2,1.1-2,2.3c0,1.3,1.1,2.2,2.3,2.2c0.1,0,0.2,0,0.3,0c0,0,4.9-0.9,5.5-1
				c0.6-0.1,1.1-0.4,1.4-0.7c0.1-0.1,0.7-1.1,1.2-1.8l1.2-1.9l0,7c0,0-5.3,6.9-5.4,7.1c-0.2,0.2-1.4,2-1.6,2.7
				c-0.5,1.6-2,8.1-2.8,11.2c-0.2,0.6-0.3,1.2-0.3,1.5c0,0,0,0,0,0.1c0,0,0,0,0,0c0,0.1-0.1,0.2-0.1,0.2l0,0c-0.2,1.3,0.7,2.6,2,3
				c1.3,0.3,2.7-0.4,3.2-1.7l0,0l0.4-1.4l2.5-10.3l1.5-1.9l4.6-6.1c0,0,1.9,6.1,2,6.6c0.1,0.6,0.5,1.8,1.2,2.6
				c0.6,0.7,5.2,7.3,7.4,10.2c0.4,0.5,0.7,0.9,0.9,1.1c0.5,0.7,1.3,1.1,2.2,1.1c1.5,0,2.7-1.2,2.7-2.7
				C31.9,51.4,31.6,50.7,31.1,50.2z"/>
		</g>
	</g>
	<g>
		<path class="st23" d="M15.9,10.1c2.8,0,5.1-2.3,5.1-5.1c0-0.1,0-0.3,0-0.4C20.8,2.1,18.6,0,15.9,0c-1.8,0-3.3,0.9-4.2,2.3
			c-0.5,0.8-0.8,1.8-0.8,2.8C10.8,7.9,13.1,10.1,15.9,10.1z"/>
	</g>
</g>
</svg>
