<?xml version="1.0" encoding="utf-8"?>
<!-- Generator: Adobe Illustrator 18.1.1, SVG Export Plug-In . SVG Version: 6.00 Build 0)  -->
<svg version="1.1" xmlns="http://www.w3.org/2000/svg" xmlns:xlink="http://www.w3.org/1999/xlink" x="0px" y="0px"
	 viewBox="0 0 693.3 181" style="enable-background:new 0 0 693.3 181;" xml:space="preserve">
<style type="text/css">
	.st0{fill:#FFFFFF;}
	.st1{fill-rule:evenodd;clip-rule:evenodd;fill:#F56980;}
	.st2{fill:#1A9169;}
	.st3{fill:#2AD19D;}
	.st4{opacity:0.21;}
	.st5{fill:#231F20;}
	.st6{fill:#BAF2F4;}
	.st7{fill:#85D6E6;}
	.st8{fill:#2BB186;}
	.st9{fill:#FDE497;}
	.st10{fill:#FDF063;}
	.st11{fill:#158459;}
	.st12{fill:none;stroke:#A17640;stroke-width:2;stroke-miterlimit:10;}
	.st13{fill:#16D19B;}
	.st14{fill:#75E2BA;}
	.st15{fill:none;stroke:#A17640;stroke-width:3;stroke-miterlimit:10;}
	.st16{fill:none;stroke:#A17640;stroke-width:4;stroke-miterlimit:10;}
	.st17{fill:none;stroke:#A17640;stroke-width:3.4344;stroke-miterlimit:10;}
	.st18{fill:#808083;}
	.st19{fill:#F56980;}
	.st20{fill:#BD4C64;}
	.st21{fill:#93374F;}
	.st22{fill:none;stroke:#75E2BA;stroke-miterlimit:10;}
	.st23{fill:#0C9168;}
	.st24{fill:#37CF9D;}
	.st25{fill:#CCCCCC;}
	.st26{display:none;}
	.st27{display:inline;}
</style>
<g id="Layer_1">
</g>
<g id="Layer_5">
</g>
<g id="logo_2_outline">
</g>
<g id="Layer_4">
	<g>
		<g>
			<path class="st0" d="M54.7,106.1c12.4-2.7,25.4-5.7,38.1-5.4c-2.4-3.2-4.8-6.3-7.2-9.5c-5.2,17.1-8.2,36.6-6.9,54.4
				c0.7,9.9,2.9,21,10.6,28c7.8,7.1,19.8,7.9,28.8,2.5c9-5.3,14.5-15.1,18.5-24.5c4.6-10.8,7.7-22.3,9.8-33.8c1.5-8,3.2-16.5,3-24.6
				c-0.2-10.7-16.8-23.9-26.8-16.6c-4.1,3-6.5,9.6-7.8,14.2c-1.9,6.6-1.8,14.5,3.3,19.7c5.7,5.8,15.5,6,23.2,6.6
				c9.3,0.7,18.8,0.8,28-1c-2.8-3.7-5.6-7.3-8.5-11c-6.3,11.7-10.8,23.4-12.5,36.6c-1.6,12.5-2.3,27.7,10.5,34.8
				c9.6,5.3,21.3,1.7,30.5-2.6c9-4.3,16.7-10.6,23.8-17.6c9.3-9.3,18.9-21,21.3-34.3c2.2-11.7-3.6-22.4-16-24
				c-25.2-3.4-38,27.8-34,48.3c4.9,25,29.7,35.5,53,32.3c12.8-1.8,22.8-7.7,32.1-16.5c5.5-5.2,10.4-10.9,15.5-16.4
				c4.4-4.8,8.9-9.8,11.7-15.8c6.1-13.2,0.4-28.8-14.9-31.2c-13.7-2.2-25.9,6.9-31.8,18.8c-5.6,11.4-7.8,25.9-3,38
				c4.7,11.8,14.8,21.3,27.6,23.2c37.6,5.6,54.1-35.7,56.7-66.3c0.2-2,0.3-4,0.2-6c-0.4-9.6-15-9.7-15,0c0,22.1-1.5,44.3-2.1,66.4
				c-0.3,9.7,14.7,9.6,15,0c0.4-12.1,1.2-24.3,4.1-36.1c1.1-4.7,2.8-9.3,4.7-13.7c1.5-3.5,3.4-8.1,6.8-10.1c1.6-1,3.3-1.1,5.1-0.9
				c-1.1-0.1,0.6,0.2,0.9,0.3c1.2,0.4-0.6-0.4,0.9,0.4c1.3,0.6,0.2,0,0.4,0.2c0.5,0.3,1.4,1.7,0.5,0.5c0.3,0.5,0.7,1,0.9,1.6
				c-0.6-1.4,0.1,0.3,0.2,0.8c0.2,0.6,0.3,1.3,0.5,1.9c0.1,0.3,0-0.6,0.1,0.8c0.1,1.6,0.2,3.3,0.1,4.9c-0.1,3.6-0.5,7.3-0.9,10.9
				c-1.5,12.1-6.3,30.3,3.7,40.1c6.2,6.1,16.2,6.4,24,3.6c11.4-4.1,18.7-14.3,23.8-24.8c13.2-27,23.3-56.6,27-86.5
				c1.7-13.5,2.6-29.8-3-42.7c-4.4-10.4-16.1-12.6-23.4-3.8c-5.3,6.3-8.1,14.5-10.6,22.2c-4.2,13-6.4,26.5-7.6,40
				c-2,21.4-2.3,44.3,2.7,65.4c2.1,8.9,5.5,18.5,12.2,25c7.6,7.4,19,9.7,27.8,2.8c9.1-7.1,14.5-19.4,19.5-29.6
				c5.1-10.5,10.2-23.6,21.5-28.8c5.7-2.6,12.3-3.2,18.4-2.1c9.4,1.5,13.6-12.5,4-14.5c-31.7-6.4-58.5,20.7-56,52
				c0.6,7.1,2.3,14.3,7.1,19.8c5.4,6.2,14,7.7,21.7,5.7c7-1.8,14.4-6.3,18.6-12.3c3-4.2,4.6-9.5,6.1-14.4
				c3.7-12.2,5.4-24.8,8.6-37.1c-4.8-1.3-9.6-2.7-14.5-4c-3,12-5.3,24.3-7.2,36.5c-0.9,6.1-2,11.7,0.6,17.5
				c2.8,6.4,8.5,11.7,15.3,13.7c16,4.8,24.8-9.2,30.7-21.6c3.6-7.6,5.9-14.8,6.9-23.2c1.1-8.3,1-16.8,2.3-25
				c-4.9-0.7-9.8-1.3-14.7-2c0,22-1,44.1-0.7,66.1c0.1,8.1,13.2,10.6,14.7,2c2.9-16,4-32.9,10.2-48.1c1.3-3.1,5.1-12.7,10.4-11.3
				c2,0.5,1.4,3.5,1.4,5.3c0,5.5-0.4,10.9-0.8,16.4c-0.7,9.5-2.5,20.7,0.9,29.9c3.1,8.4,11.3,14.1,20.2,14.5
				c16.7,0.8,31.8-14.1,42.9-24.7c12-11.4,27.5-29.7,17.5-47c-4.5-7.7-13.6-11.4-22.2-9.4c-8.8,2-15.7,9.1-20.5,16.4
				c-9,13.9-12.1,34.4-1.3,48.1c10.2,12.8,28.3,16.5,43.9,15.1c18.6-1.6,36-9.8,46.2-25.7c8.9-13.9,14.4-33.5,8.7-49.7
				c-3.2-9.1-17.7-5.2-14.5,4c3.9,11.1,0.5,24-4.8,34c-6.3,11.9-16.6,18.7-29.7,21.5c-11.5,2.4-26.9,2-36.1-6.5
				c-9.8-9.1-5.3-25.6,1.8-35.1c2.8-3.7,10-11.2,14.7-6.4c4.8,4.8,0.1,12.9-2.9,17.2c-4.3,6.3-10.1,11.6-15.8,16.7
				c-5.2,4.6-10.5,9.3-16.5,12.9c-4.4,2.6-10.8,5.5-15.4,1.8c-2.7-2.1-2.8-5.3-2.9-8.5c-0.1-4.5,0.1-9,0.4-13.5
				c0.8-12.9,6.5-37-10.6-41.9c-15.8-4.5-25.7,11.5-30.2,23.8c-5.3,14.8-6.6,30.6-9.4,46c4.9,0.7,9.8,1.3,14.7,2
				c-0.4-22,0.6-44.1,0.7-66.1c0-8.2-13.4-10.6-14.7-2c-2.1,13.2-0.5,27.9-5.7,40.4c-1.9,4.7-4.3,9.6-7,13.9
				c-2.1,3.4-4.5,6.5-8.8,5.1c-9.2-3.1-5.4-12.9-4.2-19.9c1.7-9.8,3.5-19.7,6-29.4c2.3-9.4-12-13.3-14.5-4
				c-2.8,10.8-4.5,21.8-7.3,32.6c-1.3,4.9-2.6,10.1-5.1,14.2c-0.5,0.8-0.5,0.8,0,0.1c-0.4,0.5-0.8,0.9-1.3,1.3
				c-1.3,1.1-2.6,2.1-4.1,3c-2.6,1.5-6.2,3.2-9.3,2.3c-5-1.5-5.5-9.5-5.6-13.7c-0.1-6.2,0.8-12.4,3.7-17.9
				c6.4-12.3,19.6-19.9,33.5-17.1c1.3-4.8,2.7-9.6,4-14.5c-13.3-2.2-27-0.1-37.6,8.6c-9.2,7.5-14.2,18.7-19.3,29.2
				c-2.2,4.6-4.6,9.1-7.1,13.5c-2.1,3.8-5.2,10.8-9.6,12.6c-5.7,2.3-10.4-6.2-12.3-10.7c-6.5-15.4-6.5-33.8-6.3-50.4
				c0.3-21.9,2.6-44.9,11.1-65.3c1.2-2.9,2.9-6.3,4.6-8.4c0.2-0.2,0.4-0.4,0.6-0.6c0.7-0.6,0.8-0.7,0.2-0.2c0.1,0-2.2,0.3-2.1,0.3
				c-1.5,0.8,0.1-1-0.5,0.2c-0.3,0.6,1.3,4.6,1.5,5.5c2.7,12.7,1.4,26.3-0.8,39c-2.5,14.1-6.5,27.9-11.3,41.3
				c-4.5,12.4-9.2,25.5-16,36.8c-2.3,3.7-5,7.4-8.6,9.9c-2,1.3-4.2,2.3-6.6,2.6c-1,0.1-2,0.1-3,0.1c-1.2,0,0.3,0.3-1.5-0.2
				c-1.4-0.4-0.2,0.1,0.1,0.1c-0.5-0.2-1-0.6-1.5-0.9c1.5,0.8,0.2,0.2-0.1-0.3c1.1,1.6,0.1,0-0.1-0.3c-0.9-1.7,0.5,1.5-0.2-0.3
				c-0.2-0.6-0.3-1.2-0.5-1.8c-0.1-0.2-0.4-2.3-0.2-0.6c-0.1-0.7-0.1-1.4-0.2-2.1c-0.7-13.2,4-26.2,3-39.4c-0.6-7.5-3-14.9-9.8-19
				c-8.7-5.2-20.4-3.2-27.2,4.1c-7.2,7.5-11.4,19.5-13.7,29.5c-3,12.9-4,26.3-4.5,39.4c5,0,10,0,15,0c0.6-22.1,2.1-44.3,2.1-66.4
				c-5,0-10,0-15,0c0.4,8.8-1.3,15.7-4,25c-3.1,10.4-8.2,21.9-16.6,28.2c-10.9,8.1-27.1,5.9-33.9-7.2c-4.1-7.9-2.9-18.2,0.5-26.2
				c2.8-6.6,10.7-16.3,19.1-12.2c12.7,6.3-25,40.3-30.7,44.1c-11.9,8-32.2,9.2-43.7-0.4c-11.9-9.9-11.4-30.3-0.6-40.7
				c2.5-2.4,10.6-7.4,13.2-2.4c1.3,2.4-0.6,6.8-1.4,9.1c-1.8,4.8-4.8,9.3-8,13.3c-5.7,7.2-12.9,14.4-19.9,19.1
				c-5.9,3.9-13.8,8.6-21.1,8.2c-9.7-0.6-6.9-14.4-6.1-20.9c1.3-11,5.4-20.8,10.6-30.5c3.2-6-2.1-12.3-8.5-11
				c-5.9,1.1-12.1,1-18.1,0.8c-5.8-0.2-12.1-0.3-17.7-2.1c-0.3-0.1-1.2-0.9-0.7-0.4c0.5,0.6-0.3-0.6-0.3-1.2c0-0.5,0.4-2.8,0.8-4.4
				c0.6-1.9,0.9-2.7,1.6-4.1c0.3-0.7,0.8-1.3,1.1-2c0.9-1.9-0.2-0.3-1.6,0.6c-2.2,1.5-1.8,0-0.9,1c0.7,0.7,2,1.1,2.8,1.7
				c0.5,0.4,1.5,1.8,2.1,1.9c1.1,0.3-0.8-0.9,0-1.4c-0.4,0.2-0.2,5.4-0.2,6c-0.6,7.5-1.7,13.8-3.4,21.8c-1.9,8.8-4.3,17.7-7.8,26
				c-1.7,3.9-3.7,7.8-6.2,11.2c-1.5,2.1-4.1,4.8-6.2,6c-2,1.2-1.1,0.8-3.4,1.3c-1.4,0.3,0.6,0.1-0.8,0.1c-0.3,0-3-0.1-1.9,0
				c-2.2-0.3-2.4-0.5-3.6-1.1c-0.3-0.2-0.6-0.3-0.9-0.5c-1-0.6,0.8,0.7-0.1-0.1c-0.6-0.5-1.2-1.1-1.7-1.7c0.8,1-0.5-0.7-0.7-1
				c-0.4-0.7-0.8-1.5-1.2-2.2c-0.3-0.7-1-2.7-1.4-4.5c-1-3.9-1.2-6.9-1.4-11.2c-0.5-15.8,1.9-31.9,6.6-47.2c1.5-4.8-2.5-9.4-7.2-9.5
				c-14-0.3-28.5,3-42.1,6C41.3,93.7,45.3,108.2,54.7,106.1L54.7,106.1z"/>
		</g>
		<g>
			<path class="st0" d="M96.8,49.9c1-3,1.1-6.3,1.3-9.4c0.4-7.3,0.2-15.5-2.3-22.4C91.6,6.5,80.8-0.6,68.5,0c-13.8,0.7-24,9-32.7,19
				c-11,12.7-19.2,27.2-25.4,42.8c-8.6,22-12.6,46.1-9.2,69.6c3.3,23,17,44.3,41.6,47.3C85.1,184,96.2,131,95.7,99.5
				c-0.1-9.6-15.1-9.7-15,0c0.2,13.4-1,26.8-5.5,39.5c-4,11.4-11.5,23.1-24.5,24.9c-19.2,2.7-30.8-14.7-34.2-31.1
				c-3.4-16.6-1.6-34.8,2.9-51.1c3.6-12.8,8.7-25.2,15.7-36.6c6-9.9,14-21.9,24.5-27.4c6.7-3.6,16.3-4.4,20.8,2.7
				c3.2,5.1,2.9,12.5,2.7,18.3c-0.1,3.4,0.1,4.4-0.8,7.2C79.3,55.1,93.8,59,96.8,49.9L96.8,49.9z"/>
		</g>
	</g>
</g>
<g id="Layer_2" class="st26">
</g>
</svg>
